<?xml version="1.0" encoding="utf-8" standalone="no"?>
<!DOCTYPE svg PUBLIC "-//W3C//DTD SVG 1.1//EN"
  "http://www.w3.org/Graphics/SVG/1.1/DTD/svg11.dtd">
<svg xmlns:xlink="http://www.w3.org/1999/xlink" width="1152pt" height="648pt" viewBox="0 0 1152 648" xmlns="http://www.w3.org/2000/svg" version="1.1">
 <metadata>
  <rdf:RDF xmlns:dc="http://purl.org/dc/elements/1.1/" xmlns:cc="http://creativecommons.org/ns#" xmlns:rdf="http://www.w3.org/1999/02/22-rdf-syntax-ns#">
   <cc:Work>
    <dc:type rdf:resource="http://purl.org/dc/dcmitype/StillImage"/>
    <dc:date>2022-08-24T03:00:39.692846</dc:date>
    <dc:format>image/svg+xml</dc:format>
    <dc:creator>
     <cc:Agent>
      <dc:title>Matplotlib v3.5.3, https://matplotlib.org/</dc:title>
     </cc:Agent>
    </dc:creator>
   </cc:Work>
  </rdf:RDF>
 </metadata>
 <defs>
  <style type="text/css">*{stroke-linejoin: round; stroke-linecap: butt}</style>
 </defs>
 <g id="figure_1">
  <g id="patch_1">
   <path d="M 0 648 
L 1152 648 
L 1152 0 
L 0 0 
z
" style="fill: #ffffff"/>
  </g>
  <g id="axes_1">
   <g id="patch_2">
    <path d="M 46.51625 606.16375 
L 1141.2 606.16375 
L 1141.2 10.8 
L 46.51625 10.8 
z
" style="fill: #ffffff"/>
   </g>
   <g id="matplotlib.axis_1">
    <g id="xtick_1">
     <g id="line2d_1">
      <defs>
       <path id="mcabb0f8f2f" d="M 0 0 
L 0 3.5 
" style="stroke: #000000; stroke-width: 0.8"/>
      </defs>
      <g>
       <use xlink:href="#mcabb0f8f2f" x="96.274602" y="606.16375" style="stroke: #000000; stroke-width: 0.8"/>
      </g>
     </g>
     <g id="text_1">
      <!-- 0 -->
      <g transform="translate(93.093352 620.762187)scale(0.1 -0.1)">
       <defs>
        <path id="DejaVuSans-30" d="M 2034 4250 
Q 1547 4250 1301 3770 
Q 1056 3291 1056 2328 
Q 1056 1369 1301 889 
Q 1547 409 2034 409 
Q 2525 409 2770 889 
Q 3016 1369 3016 2328 
Q 3016 3291 2770 3770 
Q 2525 4250 2034 4250 
z
M 2034 4750 
Q 2819 4750 3233 4129 
Q 3647 3509 3647 2328 
Q 3647 1150 3233 529 
Q 2819 -91 2034 -91 
Q 1250 -91 836 529 
Q 422 1150 422 2328 
Q 422 3509 836 4129 
Q 1250 4750 2034 4750 
z
" transform="scale(0.015625)"/>
       </defs>
       <use xlink:href="#DejaVuSans-30"/>
      </g>
     </g>
    </g>
    <g id="xtick_2">
     <g id="line2d_2">
      <g>
       <use xlink:href="#mcabb0f8f2f" x="299.369918" y="606.16375" style="stroke: #000000; stroke-width: 0.8"/>
      </g>
     </g>
     <g id="text_2">
      <!-- 10 -->
      <g transform="translate(293.007418 620.762187)scale(0.1 -0.1)">
       <defs>
        <path id="DejaVuSans-31" d="M 794 531 
L 1825 531 
L 1825 4091 
L 703 3866 
L 703 4441 
L 1819 4666 
L 2450 4666 
L 2450 531 
L 3481 531 
L 3481 0 
L 794 0 
L 794 531 
z
" transform="scale(0.015625)"/>
       </defs>
       <use xlink:href="#DejaVuSans-31"/>
       <use xlink:href="#DejaVuSans-30" x="63.623047"/>
      </g>
     </g>
    </g>
    <g id="xtick_3">
     <g id="line2d_3">
      <g>
       <use xlink:href="#mcabb0f8f2f" x="502.465233" y="606.16375" style="stroke: #000000; stroke-width: 0.8"/>
      </g>
     </g>
     <g id="text_3">
      <!-- 20 -->
      <g transform="translate(496.102733 620.762187)scale(0.1 -0.1)">
       <defs>
        <path id="DejaVuSans-32" d="M 1228 531 
L 3431 531 
L 3431 0 
L 469 0 
L 469 531 
Q 828 903 1448 1529 
Q 2069 2156 2228 2338 
Q 2531 2678 2651 2914 
Q 2772 3150 2772 3378 
Q 2772 3750 2511 3984 
Q 2250 4219 1831 4219 
Q 1534 4219 1204 4116 
Q 875 4013 500 3803 
L 500 4441 
Q 881 4594 1212 4672 
Q 1544 4750 1819 4750 
Q 2544 4750 2975 4387 
Q 3406 4025 3406 3419 
Q 3406 3131 3298 2873 
Q 3191 2616 2906 2266 
Q 2828 2175 2409 1742 
Q 1991 1309 1228 531 
z
" transform="scale(0.015625)"/>
       </defs>
       <use xlink:href="#DejaVuSans-32"/>
       <use xlink:href="#DejaVuSans-30" x="63.623047"/>
      </g>
     </g>
    </g>
    <g id="xtick_4">
     <g id="line2d_4">
      <g>
       <use xlink:href="#mcabb0f8f2f" x="705.560548" y="606.16375" style="stroke: #000000; stroke-width: 0.8"/>
      </g>
     </g>
     <g id="text_4">
      <!-- 30 -->
      <g transform="translate(699.198048 620.762187)scale(0.1 -0.1)">
       <defs>
        <path id="DejaVuSans-33" d="M 2597 2516 
Q 3050 2419 3304 2112 
Q 3559 1806 3559 1356 
Q 3559 666 3084 287 
Q 2609 -91 1734 -91 
Q 1441 -91 1130 -33 
Q 819 25 488 141 
L 488 750 
Q 750 597 1062 519 
Q 1375 441 1716 441 
Q 2309 441 2620 675 
Q 2931 909 2931 1356 
Q 2931 1769 2642 2001 
Q 2353 2234 1838 2234 
L 1294 2234 
L 1294 2753 
L 1863 2753 
Q 2328 2753 2575 2939 
Q 2822 3125 2822 3475 
Q 2822 3834 2567 4026 
Q 2313 4219 1838 4219 
Q 1578 4219 1281 4162 
Q 984 4106 628 3988 
L 628 4550 
Q 988 4650 1302 4700 
Q 1616 4750 1894 4750 
Q 2613 4750 3031 4423 
Q 3450 4097 3450 3541 
Q 3450 3153 3228 2886 
Q 3006 2619 2597 2516 
z
" transform="scale(0.015625)"/>
       </defs>
       <use xlink:href="#DejaVuSans-33"/>
       <use xlink:href="#DejaVuSans-30" x="63.623047"/>
      </g>
     </g>
    </g>
    <g id="xtick_5">
     <g id="line2d_5">
      <g>
       <use xlink:href="#mcabb0f8f2f" x="908.655864" y="606.16375" style="stroke: #000000; stroke-width: 0.8"/>
      </g>
     </g>
     <g id="text_5">
      <!-- 40 -->
      <g transform="translate(902.293364 620.762187)scale(0.1 -0.1)">
       <defs>
        <path id="DejaVuSans-34" d="M 2419 4116 
L 825 1625 
L 2419 1625 
L 2419 4116 
z
M 2253 4666 
L 3047 4666 
L 3047 1625 
L 3713 1625 
L 3713 1100 
L 3047 1100 
L 3047 0 
L 2419 0 
L 2419 1100 
L 313 1100 
L 313 1709 
L 2253 4666 
z
" transform="scale(0.015625)"/>
       </defs>
       <use xlink:href="#DejaVuSans-34"/>
       <use xlink:href="#DejaVuSans-30" x="63.623047"/>
      </g>
     </g>
    </g>
    <g id="xtick_6">
     <g id="line2d_6">
      <g>
       <use xlink:href="#mcabb0f8f2f" x="1111.751179" y="606.16375" style="stroke: #000000; stroke-width: 0.8"/>
      </g>
     </g>
     <g id="text_6">
      <!-- 50 -->
      <g transform="translate(1105.388679 620.762187)scale(0.1 -0.1)">
       <defs>
        <path id="DejaVuSans-35" d="M 691 4666 
L 3169 4666 
L 3169 4134 
L 1269 4134 
L 1269 2991 
Q 1406 3038 1543 3061 
Q 1681 3084 1819 3084 
Q 2600 3084 3056 2656 
Q 3513 2228 3513 1497 
Q 3513 744 3044 326 
Q 2575 -91 1722 -91 
Q 1428 -91 1123 -41 
Q 819 9 494 109 
L 494 744 
Q 775 591 1075 516 
Q 1375 441 1709 441 
Q 2250 441 2565 725 
Q 2881 1009 2881 1497 
Q 2881 1984 2565 2268 
Q 2250 2553 1709 2553 
Q 1456 2553 1204 2497 
Q 953 2441 691 2322 
L 691 4666 
z
" transform="scale(0.015625)"/>
       </defs>
       <use xlink:href="#DejaVuSans-35"/>
       <use xlink:href="#DejaVuSans-30" x="63.623047"/>
      </g>
     </g>
    </g>
    <g id="text_7">
     <!-- ﻪﻧﻮﻤﻧ ﻩﺭﺎﻤﺷ -->
     <g transform="translate(572.103438 633.944375)scale(0.12 -0.12)">
      <defs>
       <path id="BNazanin-feea" d="M 2738 3 
L 2441 3 
Q 1928 3 1791 641 
Q 1509 363 1466 363 
L 1113 363 
Q 925 363 741 419 
Q 484 497 484 638 
Q 484 1088 803 1369 
Q 1016 1556 1538 1763 
L 1459 2147 
L 1728 2450 
Q 1744 2400 2000 1141 
Q 2078 756 2144 641 
Q 2244 466 2459 466 
L 2738 466 
L 2738 3 
z
M 1741 819 
L 1606 1453 
Q 1403 1394 1122 1256 
Q 738 1069 738 959 
Q 738 869 1031 819 
Q 1238 784 1397 784 
Q 1594 784 1741 819 
z
" transform="scale(0.015625)"/>
       <path id="BNazanin-fee7" d="M 1038 797 
Q 1038 3 247 3 
L -81 3 
L -81 466 
L 191 466 
Q 788 466 788 681 
Q 788 831 516 1178 
L 678 1572 
Q 703 1631 719 1631 
Q 734 1631 784 1559 
Q 1038 1188 1038 797 
z
M 1006 2619 
L 681 2294 
L 356 2622 
L 681 2947 
L 1006 2619 
z
" transform="scale(0.015625)"/>
       <path id="BNazanin-feee" d="M 2484 3 
L 2050 3 
Q 1994 -813 1422 -1388 
Q 1241 -1569 1194 -1569 
Q 866 -1569 416 -1500 
Q 269 -1478 269 -1453 
Q 269 -1428 425 -1381 
Q 919 -1238 1328 -881 
Q 1503 -728 1647 -528 
Q 1828 -275 1828 -103 
L 1828 3 
L 1328 3 
Q 753 3 753 469 
Q 753 766 925 1106 
Q 1122 1494 1375 1494 
Q 1684 1494 1872 1113 
Q 2009 834 2044 466 
L 2484 466 
L 2484 3 
z
M 1769 472 
Q 1769 653 1641 838 
Q 1497 1047 1309 1047 
Q 1188 1047 1091 948 
Q 994 850 994 728 
Q 994 456 1459 456 
Q 1581 456 1769 472 
z
" transform="scale(0.015625)"/>
       <path id="BNazanin-fee4" d="M 2947 3 
L 2688 3 
Q 2406 3 2109 334 
Q 1944 -159 1734 -159 
Q 1541 -159 1194 38 
Q 884 213 759 353 
Q 478 3 163 3 
L -81 3 
L -81 466 
L 175 466 
Q 450 466 706 697 
Q 866 878 1094 1125 
Q 1306 1356 1491 1356 
Q 1719 1356 1906 1125 
Q 2000 1006 2247 697 
Q 2438 466 2688 466 
L 2947 466 
L 2947 3 
z
M 1869 334 
Q 1888 516 1766 725 
Q 1628 963 1425 963 
Q 1219 963 981 656 
Q 1047 572 1322 428 
Q 1619 272 1800 266 
Q 1863 263 1869 334 
z
" transform="scale(0.015625)"/>
       <path id="BNazanin-20" transform="scale(0.015625)"/>
       <path id="BNazanin-fee9" d="M 2000 844 
Q 2000 434 1747 206 
Q 1503 -9 1091 -9 
Q 838 -9 666 144 
Q 484 303 484 553 
Q 484 831 722 1244 
Q 928 1600 1178 1850 
Q 2000 1422 2000 844 
z
M 1772 681 
Q 1772 847 1506 1097 
Q 1269 1319 1084 1388 
Q 772 991 772 753 
Q 772 613 919 525 
Q 1044 450 1194 450 
Q 1453 450 1631 547 
Q 1772 622 1772 681 
z
" transform="scale(0.015625)"/>
       <path id="BNazanin-fead" d="M 2016 -34 
Q 2016 -619 1644 -1138 
Q 1325 -1581 1113 -1581 
Q 656 -1581 325 -1534 
Q 216 -1519 216 -1481 
Q 216 -1444 328 -1422 
Q 797 -1325 1272 -925 
Q 1778 -497 1778 -103 
Q 1778 159 1359 566 
L 1541 944 
Q 1566 994 1578 997 
Q 1597 991 1631 947 
Q 1775 772 1891 481 
Q 2016 175 2016 -34 
z
" transform="scale(0.015625)"/>
       <path id="BNazanin-fe8e" d="M 1584 3 
L 1313 3 
Q 866 3 694 369 
Q 572 625 575 1134 
L 578 1897 
Q 581 2450 484 3453 
L 731 3716 
Q 800 3788 813 3706 
Q 897 3184 897 2128 
L 897 963 
Q 897 466 1375 466 
L 1584 466 
L 1584 3 
z
" transform="scale(0.015625)"/>
       <path id="BNazanin-feb7" d="M 3234 856 
Q 3234 500 3069 269 
Q 2881 3 2541 3 
Q 2141 3 1966 331 
Q 1744 3 1403 3 
Q 966 3 819 331 
Q 591 3 197 3 
L -81 3 
L -81 466 
L 238 466 
Q 672 466 750 934 
Q 769 1050 825 1050 
Q 875 1050 888 931 
Q 934 466 1391 466 
Q 1659 466 1772 603 
Q 1850 700 1884 931 
Q 1900 1044 1950 1044 
Q 2003 1044 2019 934 
Q 2081 466 2500 466 
Q 2956 466 2956 681 
Q 2956 853 2731 1138 
L 2913 1478 
Q 2956 1559 2975 1559 
Q 2994 1559 3044 1469 
Q 3234 1122 3234 856 
z
M 2234 2941 
L 1944 2647 
L 1650 2944 
L 1941 3234 
L 2234 2941 
z
M 2597 2316 
L 2300 2022 
L 2006 2319 
L 2300 2609 
L 2597 2316 
z
M 1884 2316 
L 1591 2022 
L 1294 2319 
L 1588 2609 
L 1884 2316 
z
" transform="scale(0.015625)"/>
      </defs>
      <use xlink:href="#BNazanin-feea"/>
      <use xlink:href="#BNazanin-fee7" x="41.503906"/>
      <use xlink:href="#BNazanin-feee" x="57.763672"/>
      <use xlink:href="#BNazanin-fee4" x="95.263672"/>
      <use xlink:href="#BNazanin-fee7" x="139.990234"/>
      <use xlink:href="#BNazanin-20" x="156.25"/>
      <use xlink:href="#BNazanin-fee9" x="180.664062"/>
      <use xlink:href="#BNazanin-fead" x="211.962891"/>
      <use xlink:href="#BNazanin-fe8e" x="243.554688"/>
      <use xlink:href="#BNazanin-fee4" x="266.992188"/>
      <use xlink:href="#BNazanin-feb7" x="311.71875"/>
     </g>
    </g>
   </g>
   <g id="matplotlib.axis_2">
    <g id="ytick_1">
     <g id="line2d_7">
      <defs>
       <path id="m627598db5c" d="M 0 0 
L -3.5 0 
" style="stroke: #000000; stroke-width: 0.8"/>
      </defs>
      <g>
       <use xlink:href="#m627598db5c" x="46.51625" y="581.183437" style="stroke: #000000; stroke-width: 0.8"/>
      </g>
     </g>
     <g id="text_8">
      <!-- −2 -->
      <g transform="translate(24.774062 584.982656)scale(0.1 -0.1)">
       <defs>
        <path id="DejaVuSans-2212" d="M 678 2272 
L 4684 2272 
L 4684 1741 
L 678 1741 
L 678 2272 
z
" transform="scale(0.015625)"/>
       </defs>
       <use xlink:href="#DejaVuSans-2212"/>
       <use xlink:href="#DejaVuSans-32" x="83.789062"/>
      </g>
     </g>
    </g>
    <g id="ytick_2">
     <g id="line2d_8">
      <g>
       <use xlink:href="#m627598db5c" x="46.51625" y="471.569118" style="stroke: #000000; stroke-width: 0.8"/>
      </g>
     </g>
     <g id="text_9">
      <!-- 0 -->
      <g transform="translate(33.15375 475.368337)scale(0.1 -0.1)">
       <use xlink:href="#DejaVuSans-30"/>
      </g>
     </g>
    </g>
    <g id="ytick_3">
     <g id="line2d_9">
      <g>
       <use xlink:href="#m627598db5c" x="46.51625" y="361.954799" style="stroke: #000000; stroke-width: 0.8"/>
      </g>
     </g>
     <g id="text_10">
      <!-- 2 -->
      <g transform="translate(33.15375 365.754018)scale(0.1 -0.1)">
       <use xlink:href="#DejaVuSans-32"/>
      </g>
     </g>
    </g>
    <g id="ytick_4">
     <g id="line2d_10">
      <g>
       <use xlink:href="#m627598db5c" x="46.51625" y="252.34048" style="stroke: #000000; stroke-width: 0.8"/>
      </g>
     </g>
     <g id="text_11">
      <!-- 4 -->
      <g transform="translate(33.15375 256.139699)scale(0.1 -0.1)">
       <use xlink:href="#DejaVuSans-34"/>
      </g>
     </g>
    </g>
    <g id="ytick_5">
     <g id="line2d_11">
      <g>
       <use xlink:href="#m627598db5c" x="46.51625" y="142.726161" style="stroke: #000000; stroke-width: 0.8"/>
      </g>
     </g>
     <g id="text_12">
      <!-- 6 -->
      <g transform="translate(33.15375 146.52538)scale(0.1 -0.1)">
       <defs>
        <path id="DejaVuSans-36" d="M 2113 2584 
Q 1688 2584 1439 2293 
Q 1191 2003 1191 1497 
Q 1191 994 1439 701 
Q 1688 409 2113 409 
Q 2538 409 2786 701 
Q 3034 994 3034 1497 
Q 3034 2003 2786 2293 
Q 2538 2584 2113 2584 
z
M 3366 4563 
L 3366 3988 
Q 3128 4100 2886 4159 
Q 2644 4219 2406 4219 
Q 1781 4219 1451 3797 
Q 1122 3375 1075 2522 
Q 1259 2794 1537 2939 
Q 1816 3084 2150 3084 
Q 2853 3084 3261 2657 
Q 3669 2231 3669 1497 
Q 3669 778 3244 343 
Q 2819 -91 2113 -91 
Q 1303 -91 875 529 
Q 447 1150 447 2328 
Q 447 3434 972 4092 
Q 1497 4750 2381 4750 
Q 2619 4750 2861 4703 
Q 3103 4656 3366 4563 
z
" transform="scale(0.015625)"/>
       </defs>
       <use xlink:href="#DejaVuSans-36"/>
      </g>
     </g>
    </g>
    <g id="ytick_6">
     <g id="line2d_12">
      <g>
       <use xlink:href="#m627598db5c" x="46.51625" y="33.111843" style="stroke: #000000; stroke-width: 0.8"/>
      </g>
     </g>
     <g id="text_13">
      <!-- 8 -->
      <g transform="translate(33.15375 36.911061)scale(0.1 -0.1)">
       <defs>
        <path id="DejaVuSans-38" d="M 2034 2216 
Q 1584 2216 1326 1975 
Q 1069 1734 1069 1313 
Q 1069 891 1326 650 
Q 1584 409 2034 409 
Q 2484 409 2743 651 
Q 3003 894 3003 1313 
Q 3003 1734 2745 1975 
Q 2488 2216 2034 2216 
z
M 1403 2484 
Q 997 2584 770 2862 
Q 544 3141 544 3541 
Q 544 4100 942 4425 
Q 1341 4750 2034 4750 
Q 2731 4750 3128 4425 
Q 3525 4100 3525 3541 
Q 3525 3141 3298 2862 
Q 3072 2584 2669 2484 
Q 3125 2378 3379 2068 
Q 3634 1759 3634 1313 
Q 3634 634 3220 271 
Q 2806 -91 2034 -91 
Q 1263 -91 848 271 
Q 434 634 434 1313 
Q 434 1759 690 2068 
Q 947 2378 1403 2484 
z
M 1172 3481 
Q 1172 3119 1398 2916 
Q 1625 2713 2034 2713 
Q 2441 2713 2670 2916 
Q 2900 3119 2900 3481 
Q 2900 3844 2670 4047 
Q 2441 4250 2034 4250 
Q 1625 4250 1398 4047 
Q 1172 3844 1172 3481 
z
" transform="scale(0.015625)"/>
       </defs>
       <use xlink:href="#DejaVuSans-38"/>
      </g>
     </g>
    </g>
    <g id="text_14">
     <!-- ﻪﻧﻮﻤﻧ ﻩﺯﺍﺪﻧﺍ -->
     <g transform="translate(17.809687 328.68125)rotate(-90)scale(0.12 -0.12)">
      <defs>
       <path id="BNazanin-feaf" d="M 2016 -34 
Q 2016 -619 1644 -1138 
Q 1325 -1581 1113 -1581 
Q 656 -1581 325 -1534 
Q 216 -1519 216 -1481 
Q 216 -1444 328 -1422 
Q 797 -1325 1272 -925 
Q 1778 -497 1778 -103 
Q 1778 159 1359 566 
L 1541 944 
Q 1566 994 1578 997 
Q 1597 991 1631 947 
Q 1775 772 1891 481 
Q 2016 175 2016 -34 
z
M 1722 2113 
L 1397 1788 
L 1072 2116 
L 1397 2438 
L 1722 2113 
z
" transform="scale(0.015625)"/>
       <path id="BNazanin-fe8d" d="M 934 497 
Q 934 253 834 50 
Q 775 -72 753 -72 
Q 728 -72 728 81 
Q 728 775 484 3469 
L 816 3778 
Q 859 3819 875 3822 
Q 891 3822 894 3753 
Q 934 2963 934 497 
z
M 934 497 
Q 934 253 834 50 
Q 775 -72 753 -72 
Q 728 -72 728 81 
Q 728 775 484 3469 
L 816 3778 
Q 859 3819 875 3822 
Q 891 3822 894 3753 
Q 934 2963 934 497 
z
" transform="scale(0.015625)"/>
       <path id="BNazanin-feaa" d="M 3116 3 
L 2938 3 
Q 2713 3 2556 147 
Q 2459 238 2322 466 
Q 2178 209 1988 106 
Q 1756 -22 1325 -22 
Q 484 -22 484 581 
Q 484 784 609 1000 
Q 650 1072 691 1072 
Q 728 1072 728 1009 
Q 728 975 718 908 
Q 709 841 709 806 
Q 709 447 1319 447 
Q 2178 447 2178 781 
Q 2178 963 1681 2084 
L 1859 2394 
Q 1894 2453 1906 2456 
Q 1925 2444 1953 2378 
Q 2153 1906 2500 953 
Q 2678 466 3003 466 
L 3116 466 
L 3116 3 
z
" transform="scale(0.015625)"/>
      </defs>
      <use xlink:href="#BNazanin-feea"/>
      <use xlink:href="#BNazanin-fee7" x="41.503906"/>
      <use xlink:href="#BNazanin-feee" x="57.763672"/>
      <use xlink:href="#BNazanin-fee4" x="95.263672"/>
      <use xlink:href="#BNazanin-fee7" x="139.990234"/>
      <use xlink:href="#BNazanin-20" x="156.25"/>
      <use xlink:href="#BNazanin-fee9" x="180.664062"/>
      <use xlink:href="#BNazanin-feaf" x="211.962891"/>
      <use xlink:href="#BNazanin-fe8d" x="243.554688"/>
      <use xlink:href="#BNazanin-feaa" x="258.251953"/>
      <use xlink:href="#BNazanin-fee7" x="305.664062"/>
      <use xlink:href="#BNazanin-fe8d" x="321.923828"/>
     </g>
    </g>
   </g>
   <g id="line2d_13">
    <path d="M 96.274602 233.189991 
L 116.584134 113.230581 
L 136.893665 294.633023 
L 157.203197 320.032175 
L 177.512728 429.747594 
L 197.82226 484.981981 
L 218.131792 81.901608 
L 238.441323 165.367839 
L 258.750855 254.593334 
L 279.060386 147.915933 
L 299.369918 183.013533 
L 319.679449 276.045249 
L 339.988981 290.949918 
L 360.298512 98.593658 
L 380.608044 437.287097 
L 400.917575 152.309106 
L 421.227107 272.671465 
L 441.536638 390.45229 
L 461.84617 320.630719 
L 482.155702 65.627941 
L 502.465233 189.249761 
L 522.774765 521.071581 
L 543.084296 195.69602 
L 563.393828 502.885282 
L 583.703359 471.134105 
L 604.012891 82.576612 
L 624.322422 430.313002 
L 644.631954 306.928613 
L 664.941485 281.043634 
L 685.251017 389.352497 
L 705.560548 319.455587 
L 725.87008 210.239146 
L 746.179612 490.023585 
L 766.489143 175.68204 
L 786.798675 163.086071 
L 807.108206 419.417201 
L 827.417738 192.0785 
L 847.727269 304.30876 
L 868.036801 195.401845 
L 888.346332 199.099271 
L 908.655864 308.998579 
L 928.965395 93.214435 
L 949.274927 138.290931 
L 969.584458 48.459012 
L 989.89399 247.38054 
L 1010.203522 139.987835 
L 1030.513053 129.363213 
L 1050.822585 37.861989 
L 1071.132116 73.739001 
L 1091.441648 473.725325 
" clip-path="url(#pe3bb7a81d0)" style="fill: none; stroke: #1f77b4; stroke-width: 1.5; stroke-linecap: square"/>
   </g>
   <g id="line2d_14">
    <path d="M 96.274602 462.813717 
L 116.584134 414.356831 
L 136.893665 487.633262 
L 157.203197 497.893097 
L 177.512728 542.211984 
L 197.82226 564.523583 
L 218.131792 401.70168 
L 238.441323 435.417364 
L 258.750855 471.459469 
L 279.060386 428.367772 
L 299.369918 442.545237 
L 319.679449 480.124841 
L 339.988981 486.145494 
L 360.298512 408.444334 
L 380.608044 545.257521 
L 400.917575 430.142367 
L 421.227107 478.762022 
L 441.536638 526.338881 
L 461.84617 498.134875 
L 482.155702 395.12803 
L 502.465233 445.064324 
L 522.774765 579.101761 
L 543.084296 447.668251 
L 563.393828 571.755515 
L 583.703359 558.929817 
L 604.012891 401.974344 
L 624.322422 542.440377 
L 644.631954 492.599991 
L 664.941485 482.143909 
L 685.251017 525.894626 
L 705.560548 497.660188 
L 725.87008 453.54286 
L 746.179612 566.560109 
L 766.489143 439.583724 
L 786.798675 434.495658 
L 807.108206 538.039083 
L 827.417738 446.206976 
L 847.727269 491.541717 
L 868.036801 447.549421 
L 888.346332 449.042974 
L 908.655864 493.436142 
L 928.965395 406.271429 
L 949.274927 424.479809 
L 969.584458 388.192744 
L 989.89399 468.545904 
L 1010.203522 425.165264 
L 1030.513053 420.873511 
L 1050.822585 383.91214 
L 1071.132116 398.404444 
L 1091.441648 559.976525 
" clip-path="url(#pe3bb7a81d0)" style="fill: none; stroke: #ff7f0e; stroke-width: 1.5; stroke-linecap: square"/>
   </g>
   <g id="line2d_15">
    <path d="M 46.51625 383.91214 
L 1141.2 383.91214 
" clip-path="url(#pe3bb7a81d0)" style="fill: none; stroke-dasharray: 2.59,1.12; stroke-dashoffset: 0; stroke: #000000; stroke-width: 0.7"/>
   </g>
   <g id="line2d_16">
    <path d="M 46.51625 579.101761 
L 1141.2 579.101761 
" clip-path="url(#pe3bb7a81d0)" style="fill: none; stroke-dasharray: 2.59,1.12; stroke-dashoffset: 0; stroke: #000000; stroke-width: 0.7"/>
   </g>
   <g id="patch_3">
    <path d="M 46.51625 606.16375 
L 46.51625 10.8 
" style="fill: none; stroke: #000000; stroke-width: 0.8; stroke-linejoin: miter; stroke-linecap: square"/>
   </g>
   <g id="patch_4">
    <path d="M 1141.2 606.16375 
L 1141.2 10.8 
" style="fill: none; stroke: #000000; stroke-width: 0.8; stroke-linejoin: miter; stroke-linecap: square"/>
   </g>
   <g id="patch_5">
    <path d="M 46.51625 606.16375 
L 1141.2 606.16375 
" style="fill: none; stroke: #000000; stroke-width: 0.8; stroke-linejoin: miter; stroke-linecap: square"/>
   </g>
   <g id="patch_6">
    <path d="M 46.51625 10.8 
L 1141.2 10.8 
" style="fill: none; stroke: #000000; stroke-width: 0.8; stroke-linejoin: miter; stroke-linecap: square"/>
   </g>
   <g id="legend_1">
    <g id="patch_7">
     <path d="M 54.91625 55.558125 
L 207.186875 55.558125 
Q 209.586875 55.558125 209.586875 53.158125 
L 209.586875 19.2 
Q 209.586875 16.8 207.186875 16.8 
L 54.91625 16.8 
Q 52.51625 16.8 52.51625 19.2 
L 52.51625 53.158125 
Q 52.51625 55.558125 54.91625 55.558125 
z
" style="fill: #ffffff; stroke: #cccccc; stroke-linejoin: miter"/>
    </g>
    <g id="line2d_17">
     <path d="M 57.31625 25.8 
L 69.31625 25.8 
L 81.31625 25.8 
" style="fill: none; stroke: #1f77b4; stroke-width: 1.5; stroke-linecap: square"/>
    </g>
    <g id="text_15">
     <!-- ﯽﻠﺻﺍ ﻩﺩﺍﺩ -->
     <g transform="translate(90.91625 30)scale(0.12 -0.12)">
      <defs>
       <path id="BNazanin-fbfd" d="M 4075 3 
L 3163 3 
Q 2994 3 2838 -50 
Q 2622 -122 2622 -253 
Q 2622 -284 3198 -412 
Q 3775 -541 3775 -666 
Q 3775 -1138 3503 -1369 
Q 3044 -1763 1884 -1763 
Q 484 -1763 484 -728 
Q 484 -494 584 -208 
Q 684 78 828 266 
Q 884 341 931 344 
Q 978 347 978 294 
Q 978 247 941 175 
Q 759 -169 759 -538 
Q 759 -947 1147 -1144 
Q 1444 -1294 1900 -1294 
Q 2384 -1294 2788 -1244 
Q 3513 -1153 3513 -934 
Q 3513 -844 3197 -791 
Q 2694 -706 2616 -684 
Q 2300 -597 2300 -416 
Q 2300 -272 2453 -56 
Q 2581 122 2722 238 
Q 3003 466 3522 466 
L 4075 466 
L 4075 3 
z
" transform="scale(0.015625)"/>
       <path id="BNazanin-fee0" d="M 1559 3 
L 1397 3 
Q 878 3 681 384 
Q 628 213 438 103 
Q 266 3 72 3 
L -81 3 
L -81 466 
L 78 466 
Q 575 466 575 881 
L 575 2266 
Q 575 3056 541 3478 
L 881 3766 
L 881 1075 
Q 881 466 1400 466 
L 1559 466 
L 1559 3 
z
" transform="scale(0.015625)"/>
       <path id="BNazanin-febb" d="M 3569 1063 
Q 3569 463 2866 194 
Q 2375 6 1666 6 
Q 1256 6 1084 50 
Q 794 125 672 369 
Q 453 3 84 3 
L -81 3 
L -81 466 
L 81 466 
Q 534 466 616 925 
Q 634 1038 691 1038 
Q 747 1038 759 925 
Q 806 503 1144 484 
Q 2256 1681 2906 1681 
Q 3184 1681 3372 1513 
Q 3569 1334 3569 1063 
z
M 3278 831 
Q 3278 1009 3078 1134 
Q 2903 1244 2716 1244 
Q 2153 1244 1422 484 
Q 1591 475 1763 475 
Q 2159 475 2597 538 
Q 3278 634 3278 831 
z
" transform="scale(0.015625)"/>
       <path id="BNazanin-fea9" d="M 2438 838 
Q 2438 3 1331 3 
Q 919 3 728 116 
Q 481 259 481 638 
Q 481 816 578 1000 
Q 622 1084 659 1084 
Q 706 1084 694 981 
Q 684 906 684 856 
Q 684 606 909 519 
Q 1047 466 1353 466 
Q 2228 466 2228 738 
Q 2228 1166 1206 1906 
L 1325 2313 
Q 1344 2372 1359 2372 
Q 1378 2372 1438 2325 
Q 2438 1522 2438 838 
z
" transform="scale(0.015625)"/>
      </defs>
      <use xlink:href="#BNazanin-fbfd"/>
      <use xlink:href="#BNazanin-fee0" x="62.353516"/>
      <use xlink:href="#BNazanin-febb" x="85.449219"/>
      <use xlink:href="#BNazanin-fe8d" x="141.259766"/>
      <use xlink:href="#BNazanin-20" x="155.957031"/>
      <use xlink:href="#BNazanin-fee9" x="180.371094"/>
      <use xlink:href="#BNazanin-fea9" x="211.669922"/>
      <use xlink:href="#BNazanin-fe8d" x="249.853516"/>
      <use xlink:href="#BNazanin-fea9" x="264.550781"/>
     </g>
    </g>
    <g id="line2d_18">
     <path d="M 57.31625 43.505625 
L 69.31625 43.505625 
L 81.31625 43.505625 
" style="fill: none; stroke: #ff7f0e; stroke-width: 1.5; stroke-linecap: square"/>
    </g>
    <g id="text_16">
     <!-- (ﺪﺣﺍﻭ ﺲﻧﺎﯾﺭﺍﻭ) ﻩﺪﺷ ﻝﺎﻣﺮﻧ ﻩﺩﺍﺩ -->
     <g transform="translate(90.91625 47.705625)scale(0.12 -0.12)">
      <defs>
       <path id="BNazanin-28" d="M 1791 3238 
Q 1747 3166 1569 2913 
Q 934 2009 934 1275 
Q 934 675 1256 81 
Q 1363 -116 1775 -675 
Q 1794 -700 1794 -728 
Q 1794 -800 1697 -800 
Q 1613 -800 1331 -525 
Q 991 -194 775 203 
Q 488 731 488 1259 
Q 488 1863 831 2422 
Q 1147 2931 1681 3297 
Q 1722 3325 1756 3309 
Q 1791 3294 1791 3238 
z
" transform="scale(0.015625)"/>
       <path id="BNazanin-fea3" d="M 3203 1166 
L 3028 853 
Q 2581 859 2403 794 
Q 2163 703 1678 463 
Q 1209 228 953 138 
Q 575 3 203 3 
L -81 3 
L -81 466 
L 219 466 
Q 775 466 1197 650 
L 2128 1056 
Q 1906 1106 1419 1288 
Q 1016 1438 897 1438 
Q 666 1438 425 1234 
Q 378 1194 341 1194 
Q 300 1194 300 1247 
Q 300 1269 313 1306 
Q 509 1884 984 1884 
Q 1153 1884 1444 1753 
Q 1931 1534 2169 1453 
Q 2578 1316 3144 1278 
Q 3244 1272 3244 1253 
Q 3244 1238 3203 1166 
z
" transform="scale(0.015625)"/>
       <path id="BNazanin-feed" d="M 2056 163 
Q 2056 -731 1441 -1369 
Q 1247 -1569 1194 -1569 
Q 853 -1569 416 -1500 
Q 263 -1475 263 -1453 
Q 263 -1428 425 -1381 
Q 909 -1241 1328 -881 
Q 1503 -731 1647 -528 
Q 1828 -275 1828 -103 
L 1828 28 
L 1306 9 
Q 753 -9 753 469 
Q 753 766 925 1106 
Q 1122 1494 1375 1494 
Q 1750 1494 1931 978 
Q 2056 622 2056 163 
z
M 1769 494 
Q 1769 688 1638 859 
Q 1497 1047 1309 1047 
Q 1184 1047 1092 953 
Q 1000 859 1000 734 
Q 1000 459 1394 459 
Q 1541 459 1769 494 
z
" transform="scale(0.015625)"/>
       <path id="BNazanin-feb2" d="M 6116 3 
L 5897 3 
Q 5494 3 5328 331 
Q 5184 -13 4797 -13 
Q 4434 -13 4291 344 
Q 4094 -16 3725 -16 
Q 3588 -16 3428 34 
Q 3416 -325 3384 -728 
Q 3225 -1175 2697 -1419 
Q 2244 -1628 1716 -1628 
Q 1191 -1628 853 -1369 
Q 484 -1081 484 -569 
Q 484 -297 619 13 
Q 716 234 819 359 
Q 869 419 909 419 
Q 947 419 947 375 
Q 947 347 928 309 
Q 750 -56 750 -359 
Q 750 -656 947 -872 
Q 1206 -1156 1731 -1156 
Q 2325 -1156 2766 -944 
Q 3128 -769 3222 -563 
Q 3253 -494 3231 -297 
Q 3209 -97 3172 0 
Q 3100 188 2784 594 
L 2959 925 
Q 2997 997 3016 997 
Q 3031 997 3072 938 
Q 3238 688 3300 628 
Q 3469 463 3706 463 
Q 3972 463 4091 606 
Q 4169 700 4216 947 
Q 4238 1059 4288 1059 
Q 4338 1059 4350 959 
Q 4416 456 4784 456 
Q 5228 456 5278 931 
Q 5291 1050 5341 1050 
Q 5397 1050 5413 934 
Q 5475 466 5884 466 
L 6116 466 
L 6116 3 
z
" transform="scale(0.015625)"/>
       <path id="BNazanin-fbfe" d="M 1038 797 
Q 1038 3 247 3 
L -81 3 
L -81 466 
L 191 466 
Q 788 466 788 681 
Q 788 831 516 1178 
L 678 1572 
Q 703 1631 719 1631 
Q 734 1631 784 1559 
Q 1038 1188 1038 797 
z
M 1406 -878 
L 1097 -1188 
L 788 -875 
L 1097 -566 
L 1406 -878 
z
M 722 -878 
L 413 -1188 
L 103 -875 
L 409 -566 
L 722 -878 
z
" transform="scale(0.015625)"/>
       <path id="BNazanin-29" d="M 488 -728 
Q 519 -672 709 -403 
Q 1347 497 1347 1238 
Q 1347 1841 1025 2428 
Q 919 2622 503 3184 
Q 484 3209 484 3238 
Q 484 3313 584 3313 
Q 669 3313 947 3038 
Q 1288 2700 1503 2306 
Q 1791 1778 1791 1250 
Q 1791 638 1450 88 
Q 1138 -419 597 -788 
Q 559 -813 525 -797 
Q 488 -781 488 -728 
z
" transform="scale(0.015625)"/>
       <path id="BNazanin-fedd" d="M 3419 3150 
Q 3447 3084 3438 3075 
Q 3431 3063 3363 3063 
L 3228 3063 
Q 3353 753 3309 -144 
Q 3241 -1559 1656 -1559 
Q 1144 -1559 838 -1344 
Q 484 -1097 484 -603 
Q 484 -103 759 284 
Q 794 331 831 331 
Q 881 331 881 272 
Q 881 247 869 216 
Q 738 -113 738 -334 
Q 738 -713 1016 -919 
Q 1263 -1103 1653 -1103 
Q 2231 -1103 2650 -888 
Q 3022 -697 3022 -494 
Q 3022 2106 2847 3406 
L 3125 3663 
Q 3175 3709 3191 3713 
Q 3206 3703 3225 3641 
Q 3275 3481 3419 3150 
z
" transform="scale(0.015625)"/>
       <path id="BNazanin-fee3" d="M 2066 797 
Q 2091 500 1997 297 
Q 1853 -13 1678 -13 
Q 1359 -13 772 397 
Q 591 181 519 125 
Q 363 3 134 3 
L -81 3 
L -81 466 
L 203 466 
Q 472 466 675 741 
Q 775 884 1034 1250 
Q 1231 1525 1438 1525 
Q 1728 1525 1913 1231 
Q 2047 1016 2066 797 
z
M 1828 503 
Q 1828 678 1697 884 
Q 1550 1116 1375 1116 
Q 1197 1116 956 750 
Q 1056 641 1322 520 
Q 1588 400 1734 400 
Q 1828 400 1828 503 
z
" transform="scale(0.015625)"/>
       <path id="BNazanin-feae" d="M 2488 3 
L 2319 3 
Q 2100 3 1988 78 
Q 1994 16 1994 -47 
Q 1994 -609 1628 -1131 
Q 1313 -1581 1113 -1581 
Q 656 -1581 325 -1534 
Q 216 -1519 216 -1481 
Q 216 -1444 328 -1422 
Q 797 -1325 1272 -925 
Q 1778 -497 1778 -103 
Q 1778 159 1359 566 
L 1544 941 
Q 1566 988 1581 991 
Q 1600 984 1634 938 
Q 1819 694 1919 613 
Q 2106 466 2363 466 
L 2488 466 
L 2488 3 
z
" transform="scale(0.015625)"/>
      </defs>
      <use xlink:href="#BNazanin-28"/>
      <use xlink:href="#BNazanin-feaa" x="28.125"/>
      <use xlink:href="#BNazanin-fea3" x="75.537109"/>
      <use xlink:href="#BNazanin-fe8d" x="126.220703"/>
      <use xlink:href="#BNazanin-feed" x="140.917969"/>
      <use xlink:href="#BNazanin-20" x="173.095703"/>
      <use xlink:href="#BNazanin-feb2" x="197.509766"/>
      <use xlink:href="#BNazanin-fee7" x="291.796875"/>
      <use xlink:href="#BNazanin-fe8e" x="308.056641"/>
      <use xlink:href="#BNazanin-fbfe" x="331.494141"/>
      <use xlink:href="#BNazanin-fead" x="353.710938"/>
      <use xlink:href="#BNazanin-fe8d" x="385.302734"/>
      <use xlink:href="#BNazanin-feed" x="400"/>
      <use xlink:href="#BNazanin-29" x="432.177734"/>
      <use xlink:href="#BNazanin-20" x="460.302734"/>
      <use xlink:href="#BNazanin-fee9" x="484.716797"/>
      <use xlink:href="#BNazanin-feaa" x="516.015625"/>
      <use xlink:href="#BNazanin-feb7" x="563.427734"/>
      <use xlink:href="#BNazanin-20" x="614.257812"/>
      <use xlink:href="#BNazanin-fedd" x="638.671875"/>
      <use xlink:href="#BNazanin-fe8e" x="692.480469"/>
      <use xlink:href="#BNazanin-fee3" x="715.917969"/>
      <use xlink:href="#BNazanin-feae" x="748.242188"/>
      <use xlink:href="#BNazanin-fee7" x="785.839844"/>
      <use xlink:href="#BNazanin-20" x="802.099609"/>
      <use xlink:href="#BNazanin-fee9" x="826.513672"/>
      <use xlink:href="#BNazanin-fea9" x="857.8125"/>
      <use xlink:href="#BNazanin-fe8d" x="895.996094"/>
      <use xlink:href="#BNazanin-fea9" x="910.693359"/>
     </g>
    </g>
   </g>
  </g>
 </g>
 <defs>
  <clipPath id="pe3bb7a81d0">
   <rect x="46.51625" y="10.8" width="1094.68375" height="595.36375"/>
  </clipPath>
 </defs>
</svg>
