<?xml version="1.0" encoding="utf-8" standalone="no"?>
<!DOCTYPE svg PUBLIC "-//W3C//DTD SVG 1.1//EN"
  "http://www.w3.org/Graphics/SVG/1.1/DTD/svg11.dtd">
<svg xmlns:xlink="http://www.w3.org/1999/xlink" width="1152pt" height="1152pt" viewBox="0 0 1152 1152" xmlns="http://www.w3.org/2000/svg" version="1.1">
 <metadata>
  <rdf:RDF xmlns:dc="http://purl.org/dc/elements/1.1/" xmlns:cc="http://creativecommons.org/ns#" xmlns:rdf="http://www.w3.org/1999/02/22-rdf-syntax-ns#">
   <cc:Work>
    <dc:type rdf:resource="http://purl.org/dc/dcmitype/StillImage"/>
    <dc:date>2022-08-24T17:05:06.304064</dc:date>
    <dc:format>image/svg+xml</dc:format>
    <dc:creator>
     <cc:Agent>
      <dc:title>Matplotlib v3.5.3, https://matplotlib.org/</dc:title>
     </cc:Agent>
    </dc:creator>
   </cc:Work>
  </rdf:RDF>
 </metadata>
 <defs>
  <style type="text/css">*{stroke-linejoin: round; stroke-linecap: butt}</style>
 </defs>
 <g id="figure_1">
  <g id="patch_1">
   <path d="M 0 1152 
L 1152 1152 
L 1152 0 
L 0 0 
z
" style="fill: #ffffff"/>
  </g>
  <g id="axes_1">
   <g id="patch_2">
    <path d="M 144 541.44 
L 1036.8 541.44 
L 1036.8 138.24 
L 144 138.24 
z
" style="fill: #ffffff"/>
   </g>
   <g id="matplotlib.axis_1">
    <g id="xtick_1">
     <g id="line2d_1">
      <path d="M 184.581818 541.44 
L 184.581818 138.24 
" clip-path="url(#p45da91d6b2)" style="fill: none; stroke: #b0b0b0; stroke-width: 0.8; stroke-linecap: square"/>
     </g>
     <g id="line2d_2">
      <defs>
       <path id="m1ce1b275a2" d="M 0 0 
L 0 3.5 
" style="stroke: #000000; stroke-width: 0.8"/>
      </defs>
      <g>
       <use xlink:href="#m1ce1b275a2" x="184.581818" y="541.44" style="stroke: #000000; stroke-width: 0.8"/>
      </g>
     </g>
     <g id="text_1">
      <!-- 0 -->
      <g transform="translate(181.400568 556.038437)scale(0.1 -0.1)">
       <defs>
        <path id="DejaVuSans-30" d="M 2034 4250 
Q 1547 4250 1301 3770 
Q 1056 3291 1056 2328 
Q 1056 1369 1301 889 
Q 1547 409 2034 409 
Q 2525 409 2770 889 
Q 3016 1369 3016 2328 
Q 3016 3291 2770 3770 
Q 2525 4250 2034 4250 
z
M 2034 4750 
Q 2819 4750 3233 4129 
Q 3647 3509 3647 2328 
Q 3647 1150 3233 529 
Q 2819 -91 2034 -91 
Q 1250 -91 836 529 
Q 422 1150 422 2328 
Q 422 3509 836 4129 
Q 1250 4750 2034 4750 
z
" transform="scale(0.015625)"/>
       </defs>
       <use xlink:href="#DejaVuSans-30"/>
      </g>
     </g>
    </g>
    <g id="xtick_2">
     <g id="line2d_3">
      <path d="M 311.4 541.44 
L 311.4 138.24 
" clip-path="url(#p45da91d6b2)" style="fill: none; stroke: #b0b0b0; stroke-width: 0.8; stroke-linecap: square"/>
     </g>
     <g id="line2d_4">
      <g>
       <use xlink:href="#m1ce1b275a2" x="311.4" y="541.44" style="stroke: #000000; stroke-width: 0.8"/>
      </g>
     </g>
     <g id="text_2">
      <!-- 20 -->
      <g transform="translate(305.0375 556.038437)scale(0.1 -0.1)">
       <defs>
        <path id="DejaVuSans-32" d="M 1228 531 
L 3431 531 
L 3431 0 
L 469 0 
L 469 531 
Q 828 903 1448 1529 
Q 2069 2156 2228 2338 
Q 2531 2678 2651 2914 
Q 2772 3150 2772 3378 
Q 2772 3750 2511 3984 
Q 2250 4219 1831 4219 
Q 1534 4219 1204 4116 
Q 875 4013 500 3803 
L 500 4441 
Q 881 4594 1212 4672 
Q 1544 4750 1819 4750 
Q 2544 4750 2975 4387 
Q 3406 4025 3406 3419 
Q 3406 3131 3298 2873 
Q 3191 2616 2906 2266 
Q 2828 2175 2409 1742 
Q 1991 1309 1228 531 
z
" transform="scale(0.015625)"/>
       </defs>
       <use xlink:href="#DejaVuSans-32"/>
       <use xlink:href="#DejaVuSans-30" x="63.623047"/>
      </g>
     </g>
    </g>
    <g id="xtick_3">
     <g id="line2d_5">
      <path d="M 438.218182 541.44 
L 438.218182 138.24 
" clip-path="url(#p45da91d6b2)" style="fill: none; stroke: #b0b0b0; stroke-width: 0.8; stroke-linecap: square"/>
     </g>
     <g id="line2d_6">
      <g>
       <use xlink:href="#m1ce1b275a2" x="438.218182" y="541.44" style="stroke: #000000; stroke-width: 0.8"/>
      </g>
     </g>
     <g id="text_3">
      <!-- 40 -->
      <g transform="translate(431.855682 556.038437)scale(0.1 -0.1)">
       <defs>
        <path id="DejaVuSans-34" d="M 2419 4116 
L 825 1625 
L 2419 1625 
L 2419 4116 
z
M 2253 4666 
L 3047 4666 
L 3047 1625 
L 3713 1625 
L 3713 1100 
L 3047 1100 
L 3047 0 
L 2419 0 
L 2419 1100 
L 313 1100 
L 313 1709 
L 2253 4666 
z
" transform="scale(0.015625)"/>
       </defs>
       <use xlink:href="#DejaVuSans-34"/>
       <use xlink:href="#DejaVuSans-30" x="63.623047"/>
      </g>
     </g>
    </g>
    <g id="xtick_4">
     <g id="line2d_7">
      <path d="M 565.036364 541.44 
L 565.036364 138.24 
" clip-path="url(#p45da91d6b2)" style="fill: none; stroke: #b0b0b0; stroke-width: 0.8; stroke-linecap: square"/>
     </g>
     <g id="line2d_8">
      <g>
       <use xlink:href="#m1ce1b275a2" x="565.036364" y="541.44" style="stroke: #000000; stroke-width: 0.8"/>
      </g>
     </g>
     <g id="text_4">
      <!-- 60 -->
      <g transform="translate(558.673864 556.038437)scale(0.1 -0.1)">
       <defs>
        <path id="DejaVuSans-36" d="M 2113 2584 
Q 1688 2584 1439 2293 
Q 1191 2003 1191 1497 
Q 1191 994 1439 701 
Q 1688 409 2113 409 
Q 2538 409 2786 701 
Q 3034 994 3034 1497 
Q 3034 2003 2786 2293 
Q 2538 2584 2113 2584 
z
M 3366 4563 
L 3366 3988 
Q 3128 4100 2886 4159 
Q 2644 4219 2406 4219 
Q 1781 4219 1451 3797 
Q 1122 3375 1075 2522 
Q 1259 2794 1537 2939 
Q 1816 3084 2150 3084 
Q 2853 3084 3261 2657 
Q 3669 2231 3669 1497 
Q 3669 778 3244 343 
Q 2819 -91 2113 -91 
Q 1303 -91 875 529 
Q 447 1150 447 2328 
Q 447 3434 972 4092 
Q 1497 4750 2381 4750 
Q 2619 4750 2861 4703 
Q 3103 4656 3366 4563 
z
" transform="scale(0.015625)"/>
       </defs>
       <use xlink:href="#DejaVuSans-36"/>
       <use xlink:href="#DejaVuSans-30" x="63.623047"/>
      </g>
     </g>
    </g>
    <g id="xtick_5">
     <g id="line2d_9">
      <path d="M 691.854545 541.44 
L 691.854545 138.24 
" clip-path="url(#p45da91d6b2)" style="fill: none; stroke: #b0b0b0; stroke-width: 0.8; stroke-linecap: square"/>
     </g>
     <g id="line2d_10">
      <g>
       <use xlink:href="#m1ce1b275a2" x="691.854545" y="541.44" style="stroke: #000000; stroke-width: 0.8"/>
      </g>
     </g>
     <g id="text_5">
      <!-- 80 -->
      <g transform="translate(685.492045 556.038437)scale(0.1 -0.1)">
       <defs>
        <path id="DejaVuSans-38" d="M 2034 2216 
Q 1584 2216 1326 1975 
Q 1069 1734 1069 1313 
Q 1069 891 1326 650 
Q 1584 409 2034 409 
Q 2484 409 2743 651 
Q 3003 894 3003 1313 
Q 3003 1734 2745 1975 
Q 2488 2216 2034 2216 
z
M 1403 2484 
Q 997 2584 770 2862 
Q 544 3141 544 3541 
Q 544 4100 942 4425 
Q 1341 4750 2034 4750 
Q 2731 4750 3128 4425 
Q 3525 4100 3525 3541 
Q 3525 3141 3298 2862 
Q 3072 2584 2669 2484 
Q 3125 2378 3379 2068 
Q 3634 1759 3634 1313 
Q 3634 634 3220 271 
Q 2806 -91 2034 -91 
Q 1263 -91 848 271 
Q 434 634 434 1313 
Q 434 1759 690 2068 
Q 947 2378 1403 2484 
z
M 1172 3481 
Q 1172 3119 1398 2916 
Q 1625 2713 2034 2713 
Q 2441 2713 2670 2916 
Q 2900 3119 2900 3481 
Q 2900 3844 2670 4047 
Q 2441 4250 2034 4250 
Q 1625 4250 1398 4047 
Q 1172 3844 1172 3481 
z
" transform="scale(0.015625)"/>
       </defs>
       <use xlink:href="#DejaVuSans-38"/>
       <use xlink:href="#DejaVuSans-30" x="63.623047"/>
      </g>
     </g>
    </g>
    <g id="xtick_6">
     <g id="line2d_11">
      <path d="M 818.672727 541.44 
L 818.672727 138.24 
" clip-path="url(#p45da91d6b2)" style="fill: none; stroke: #b0b0b0; stroke-width: 0.8; stroke-linecap: square"/>
     </g>
     <g id="line2d_12">
      <g>
       <use xlink:href="#m1ce1b275a2" x="818.672727" y="541.44" style="stroke: #000000; stroke-width: 0.8"/>
      </g>
     </g>
     <g id="text_6">
      <!-- 100 -->
      <g transform="translate(809.128977 556.038437)scale(0.1 -0.1)">
       <defs>
        <path id="DejaVuSans-31" d="M 794 531 
L 1825 531 
L 1825 4091 
L 703 3866 
L 703 4441 
L 1819 4666 
L 2450 4666 
L 2450 531 
L 3481 531 
L 3481 0 
L 794 0 
L 794 531 
z
" transform="scale(0.015625)"/>
       </defs>
       <use xlink:href="#DejaVuSans-31"/>
       <use xlink:href="#DejaVuSans-30" x="63.623047"/>
       <use xlink:href="#DejaVuSans-30" x="127.246094"/>
      </g>
     </g>
    </g>
    <g id="xtick_7">
     <g id="line2d_13">
      <path d="M 945.490909 541.44 
L 945.490909 138.24 
" clip-path="url(#p45da91d6b2)" style="fill: none; stroke: #b0b0b0; stroke-width: 0.8; stroke-linecap: square"/>
     </g>
     <g id="line2d_14">
      <g>
       <use xlink:href="#m1ce1b275a2" x="945.490909" y="541.44" style="stroke: #000000; stroke-width: 0.8"/>
      </g>
     </g>
     <g id="text_7">
      <!-- 120 -->
      <g transform="translate(935.947159 556.038437)scale(0.1 -0.1)">
       <use xlink:href="#DejaVuSans-31"/>
       <use xlink:href="#DejaVuSans-32" x="63.623047"/>
       <use xlink:href="#DejaVuSans-30" x="127.246094"/>
      </g>
     </g>
    </g>
    <g id="text_8">
     <!-- (ﺰﺗﺮﻫ) ﺲﻧﺎﮐﺮﻓ -->
     <g transform="translate(563.350312 569.220625)scale(0.12 -0.12)">
      <defs>
       <path id="BNazanin-28" d="M 1791 3238 
Q 1747 3166 1569 2913 
Q 934 2009 934 1275 
Q 934 675 1256 81 
Q 1363 -116 1775 -675 
Q 1794 -700 1794 -728 
Q 1794 -800 1697 -800 
Q 1613 -800 1331 -525 
Q 991 -194 775 203 
Q 488 731 488 1259 
Q 488 1863 831 2422 
Q 1147 2931 1681 3297 
Q 1722 3325 1756 3309 
Q 1791 3294 1791 3238 
z
" transform="scale(0.015625)"/>
       <path id="BNazanin-feb0" d="M 2488 3 
L 2319 3 
Q 2100 3 1988 78 
Q 1994 16 1994 -47 
Q 1994 -609 1628 -1131 
Q 1313 -1581 1113 -1581 
Q 656 -1581 325 -1534 
Q 216 -1519 216 -1481 
Q 216 -1444 328 -1422 
Q 797 -1325 1272 -925 
Q 1778 -497 1778 -103 
Q 1778 159 1359 566 
L 1544 941 
Q 1566 988 1581 991 
Q 1600 984 1634 938 
Q 1819 694 1919 613 
Q 2106 466 2363 466 
L 2488 466 
L 2488 3 
z
M 1722 2113 
L 1397 1788 
L 1072 2116 
L 1397 2438 
L 1722 2113 
z
" transform="scale(0.015625)"/>
       <path id="BNazanin-fe97" d="M 1038 797 
Q 1038 3 247 3 
L -81 3 
L -81 466 
L 191 466 
Q 788 466 788 681 
Q 788 831 516 1178 
L 678 1572 
Q 703 1631 719 1631 
Q 734 1631 784 1559 
Q 1038 1188 1038 797 
z
M 1353 2547 
L 1044 2238 
L 731 2550 
L 1041 2856 
L 1353 2547 
z
M 666 2547 
L 359 2238 
L 47 2550 
L 356 2856 
L 666 2547 
z
" transform="scale(0.015625)"/>
       <path id="BNazanin-feae" d="M 2488 3 
L 2319 3 
Q 2100 3 1988 78 
Q 1994 16 1994 -47 
Q 1994 -609 1628 -1131 
Q 1313 -1581 1113 -1581 
Q 656 -1581 325 -1534 
Q 216 -1519 216 -1481 
Q 216 -1444 328 -1422 
Q 797 -1325 1272 -925 
Q 1778 -497 1778 -103 
Q 1778 159 1359 566 
L 1544 941 
Q 1566 988 1581 991 
Q 1600 984 1634 938 
Q 1819 694 1919 613 
Q 2106 466 2363 466 
L 2488 466 
L 2488 3 
z
" transform="scale(0.015625)"/>
       <path id="BNazanin-feeb" d="M 2522 819 
Q 2522 597 2372 350 
Q 2194 59 1953 59 
Q 1766 59 1097 334 
Q 575 3 138 3 
L -81 3 
L -81 466 
L 153 466 
Q 419 466 628 522 
Q 381 697 381 997 
Q 381 1384 903 1784 
L 638 1916 
Q 753 2031 981 2269 
Q 1544 1997 1934 1691 
Q 2522 1228 2522 819 
z
M 2309 663 
Q 2309 825 2063 1063 
Q 1863 1256 1697 1341 
Q 1697 866 1422 634 
Q 1916 472 2066 472 
Q 2309 472 2309 663 
z
M 1469 1134 
Q 1469 1288 1400 1416 
Q 1319 1569 1178 1569 
Q 1022 1569 844 1434 
Q 656 1294 656 1144 
Q 656 881 1091 753 
Q 1228 784 1341 888 
Q 1469 1003 1469 1134 
z
" transform="scale(0.015625)"/>
       <path id="BNazanin-29" d="M 488 -728 
Q 519 -672 709 -403 
Q 1347 497 1347 1238 
Q 1347 1841 1025 2428 
Q 919 2622 503 3184 
Q 484 3209 484 3238 
Q 484 3313 584 3313 
Q 669 3313 947 3038 
Q 1288 2700 1503 2306 
Q 1791 1778 1791 1250 
Q 1791 638 1450 88 
Q 1138 -419 597 -788 
Q 559 -813 525 -797 
Q 488 -781 488 -728 
z
" transform="scale(0.015625)"/>
       <path id="BNazanin-20" transform="scale(0.015625)"/>
       <path id="BNazanin-feb2" d="M 6116 3 
L 5897 3 
Q 5494 3 5328 331 
Q 5184 -13 4797 -13 
Q 4434 -13 4291 344 
Q 4094 -16 3725 -16 
Q 3588 -16 3428 34 
Q 3416 -325 3384 -728 
Q 3225 -1175 2697 -1419 
Q 2244 -1628 1716 -1628 
Q 1191 -1628 853 -1369 
Q 484 -1081 484 -569 
Q 484 -297 619 13 
Q 716 234 819 359 
Q 869 419 909 419 
Q 947 419 947 375 
Q 947 347 928 309 
Q 750 -56 750 -359 
Q 750 -656 947 -872 
Q 1206 -1156 1731 -1156 
Q 2325 -1156 2766 -944 
Q 3128 -769 3222 -563 
Q 3253 -494 3231 -297 
Q 3209 -97 3172 0 
Q 3100 188 2784 594 
L 2959 925 
Q 2997 997 3016 997 
Q 3031 997 3072 938 
Q 3238 688 3300 628 
Q 3469 463 3706 463 
Q 3972 463 4091 606 
Q 4169 700 4216 947 
Q 4238 1059 4288 1059 
Q 4338 1059 4350 959 
Q 4416 456 4784 456 
Q 5228 456 5278 931 
Q 5291 1050 5341 1050 
Q 5397 1050 5413 934 
Q 5475 466 5884 466 
L 6116 466 
L 6116 3 
z
" transform="scale(0.015625)"/>
       <path id="BNazanin-fee7" d="M 1038 797 
Q 1038 3 247 3 
L -81 3 
L -81 466 
L 191 466 
Q 788 466 788 681 
Q 788 831 516 1178 
L 678 1572 
Q 703 1631 719 1631 
Q 734 1631 784 1559 
Q 1038 1188 1038 797 
z
M 1006 2619 
L 681 2294 
L 356 2622 
L 681 2947 
L 1006 2619 
z
" transform="scale(0.015625)"/>
       <path id="BNazanin-fe8e" d="M 1584 3 
L 1313 3 
Q 866 3 694 369 
Q 572 625 575 1134 
L 578 1897 
Q 581 2450 484 3453 
L 731 3716 
Q 800 3788 813 3706 
Q 897 3184 897 2128 
L 897 963 
Q 897 466 1375 466 
L 1584 466 
L 1584 3 
z
" transform="scale(0.015625)"/>
       <path id="BNazanin-fb90" d="M 2559 3703 
Q 2544 3600 2406 3244 
L 1397 2928 
Q 719 2709 478 2566 
Q 953 2094 1122 1878 
Q 1444 1466 1478 1097 
Q 1506 800 1391 519 
Q 1181 3 134 3 
L -81 3 
L -81 466 
L 144 466 
Q 616 466 822 509 
Q 1253 600 1253 894 
Q 1253 1294 597 1888 
L 541 1800 
Q 478 1850 325 2050 
Q 159 2259 159 2306 
Q 159 2419 203 2609 
Q 253 2822 309 2888 
Q 347 2931 1134 3225 
Q 2019 3556 2559 3703 
z
" transform="scale(0.015625)"/>
       <path id="BNazanin-fed3" d="M 1631 1134 
L 1631 972 
Q 1631 578 1513 406 
Q 1234 3 481 3 
L -81 3 
L -81 466 
L 316 466 
Q 1341 466 1431 800 
Q 1441 834 1441 881 
Q 1441 975 1406 1034 
Q 1150 981 875 981 
Q 316 981 313 1447 
Q 309 1769 466 2078 
Q 653 2450 947 2450 
Q 1206 2450 1406 2116 
Q 1631 1738 1631 1134 
z
M 1328 1481 
Q 1328 1672 1195 1828 
Q 1063 1984 875 1984 
Q 741 1984 653 1900 
Q 566 1816 563 1684 
Q 559 1434 947 1428 
Q 1116 1425 1328 1481 
z
M 1166 3328 
L 844 3003 
L 516 3331 
L 841 3656 
L 1166 3328 
z
" transform="scale(0.015625)"/>
      </defs>
      <use xlink:href="#BNazanin-28"/>
      <use xlink:href="#BNazanin-feb0" x="28.125"/>
      <use xlink:href="#BNazanin-fe97" x="65.722656"/>
      <use xlink:href="#BNazanin-feae" x="86.865234"/>
      <use xlink:href="#BNazanin-feeb" x="124.462891"/>
      <use xlink:href="#BNazanin-29" x="163.916016"/>
      <use xlink:href="#BNazanin-20" x="192.041016"/>
      <use xlink:href="#BNazanin-feb2" x="216.455078"/>
      <use xlink:href="#BNazanin-fee7" x="310.742188"/>
      <use xlink:href="#BNazanin-fe8e" x="327.001953"/>
      <use xlink:href="#BNazanin-fb90" x="350.439453"/>
      <use xlink:href="#BNazanin-feae" x="387.792969"/>
      <use xlink:href="#BNazanin-fed3" x="425.390625"/>
     </g>
    </g>
   </g>
   <g id="matplotlib.axis_2">
    <g id="ytick_1">
     <g id="line2d_15">
      <path d="M 144 523.112727 
L 1036.8 523.112727 
" clip-path="url(#p45da91d6b2)" style="fill: none; stroke: #b0b0b0; stroke-width: 0.8; stroke-linecap: square"/>
     </g>
     <g id="line2d_16">
      <defs>
       <path id="me5485866d5" d="M 0 0 
L -3.5 0 
" style="stroke: #000000; stroke-width: 0.8"/>
      </defs>
      <g>
       <use xlink:href="#me5485866d5" x="144" y="523.112727" style="stroke: #000000; stroke-width: 0.8"/>
      </g>
     </g>
     <g id="text_9">
      <!-- 0.0 -->
      <g transform="translate(121.096875 526.911946)scale(0.1 -0.1)">
       <defs>
        <path id="DejaVuSans-2e" d="M 684 794 
L 1344 794 
L 1344 0 
L 684 0 
L 684 794 
z
" transform="scale(0.015625)"/>
       </defs>
       <use xlink:href="#DejaVuSans-30"/>
       <use xlink:href="#DejaVuSans-2e" x="63.623047"/>
       <use xlink:href="#DejaVuSans-30" x="95.410156"/>
      </g>
     </g>
    </g>
    <g id="ytick_2">
     <g id="line2d_17">
      <path d="M 144 449.803636 
L 1036.8 449.803636 
" clip-path="url(#p45da91d6b2)" style="fill: none; stroke: #b0b0b0; stroke-width: 0.8; stroke-linecap: square"/>
     </g>
     <g id="line2d_18">
      <g>
       <use xlink:href="#me5485866d5" x="144" y="449.803636" style="stroke: #000000; stroke-width: 0.8"/>
      </g>
     </g>
     <g id="text_10">
      <!-- 0.2 -->
      <g transform="translate(121.096875 453.602855)scale(0.1 -0.1)">
       <use xlink:href="#DejaVuSans-30"/>
       <use xlink:href="#DejaVuSans-2e" x="63.623047"/>
       <use xlink:href="#DejaVuSans-32" x="95.410156"/>
      </g>
     </g>
    </g>
    <g id="ytick_3">
     <g id="line2d_19">
      <path d="M 144 376.494545 
L 1036.8 376.494545 
" clip-path="url(#p45da91d6b2)" style="fill: none; stroke: #b0b0b0; stroke-width: 0.8; stroke-linecap: square"/>
     </g>
     <g id="line2d_20">
      <g>
       <use xlink:href="#me5485866d5" x="144" y="376.494545" style="stroke: #000000; stroke-width: 0.8"/>
      </g>
     </g>
     <g id="text_11">
      <!-- 0.4 -->
      <g transform="translate(121.096875 380.293764)scale(0.1 -0.1)">
       <use xlink:href="#DejaVuSans-30"/>
       <use xlink:href="#DejaVuSans-2e" x="63.623047"/>
       <use xlink:href="#DejaVuSans-34" x="95.410156"/>
      </g>
     </g>
    </g>
    <g id="ytick_4">
     <g id="line2d_21">
      <path d="M 144 303.185455 
L 1036.8 303.185455 
" clip-path="url(#p45da91d6b2)" style="fill: none; stroke: #b0b0b0; stroke-width: 0.8; stroke-linecap: square"/>
     </g>
     <g id="line2d_22">
      <g>
       <use xlink:href="#me5485866d5" x="144" y="303.185455" style="stroke: #000000; stroke-width: 0.8"/>
      </g>
     </g>
     <g id="text_12">
      <!-- 0.6 -->
      <g transform="translate(121.096875 306.984673)scale(0.1 -0.1)">
       <use xlink:href="#DejaVuSans-30"/>
       <use xlink:href="#DejaVuSans-2e" x="63.623047"/>
       <use xlink:href="#DejaVuSans-36" x="95.410156"/>
      </g>
     </g>
    </g>
    <g id="ytick_5">
     <g id="line2d_23">
      <path d="M 144 229.876364 
L 1036.8 229.876364 
" clip-path="url(#p45da91d6b2)" style="fill: none; stroke: #b0b0b0; stroke-width: 0.8; stroke-linecap: square"/>
     </g>
     <g id="line2d_24">
      <g>
       <use xlink:href="#me5485866d5" x="144" y="229.876364" style="stroke: #000000; stroke-width: 0.8"/>
      </g>
     </g>
     <g id="text_13">
      <!-- 0.8 -->
      <g transform="translate(121.096875 233.675582)scale(0.1 -0.1)">
       <use xlink:href="#DejaVuSans-30"/>
       <use xlink:href="#DejaVuSans-2e" x="63.623047"/>
       <use xlink:href="#DejaVuSans-38" x="95.410156"/>
      </g>
     </g>
    </g>
    <g id="ytick_6">
     <g id="line2d_25">
      <path d="M 144 156.567273 
L 1036.8 156.567273 
" clip-path="url(#p45da91d6b2)" style="fill: none; stroke: #b0b0b0; stroke-width: 0.8; stroke-linecap: square"/>
     </g>
     <g id="line2d_26">
      <g>
       <use xlink:href="#me5485866d5" x="144" y="156.567273" style="stroke: #000000; stroke-width: 0.8"/>
      </g>
     </g>
     <g id="text_14">
      <!-- 1.0 -->
      <g transform="translate(121.096875 160.366491)scale(0.1 -0.1)">
       <use xlink:href="#DejaVuSans-31"/>
       <use xlink:href="#DejaVuSans-2e" x="63.623047"/>
       <use xlink:href="#DejaVuSans-30" x="95.410156"/>
      </g>
     </g>
    </g>
    <g id="text_15">
     <!-- ﻦﯿﮔ -->
     <g transform="translate(114.044375 347.63625)rotate(-90)scale(0.12 -0.12)">
      <defs>
       <path id="BNazanin-fee6" d="M 4041 3 
L 3841 3 
Q 3547 3 3453 59 
Q 3475 -103 3475 -275 
Q 3475 -550 3413 -728 
Q 3256 -1175 2709 -1422 
Q 2253 -1628 1716 -1628 
Q 1191 -1628 853 -1369 
Q 484 -1081 484 -569 
Q 484 -297 619 13 
Q 716 234 819 359 
Q 869 419 909 419 
Q 947 419 947 375 
Q 947 347 928 309 
Q 750 -56 750 -359 
Q 750 -656 947 -872 
Q 1206 -1156 1731 -1156 
Q 2325 -1156 2781 -944 
Q 3156 -769 3250 -563 
Q 3281 -497 3259 -297 
Q 3241 -103 3200 0 
Q 3122 200 2809 594 
L 2988 925 
Q 3025 997 3044 997 
Q 3063 997 3100 938 
Q 3406 466 3731 466 
L 4041 466 
L 4041 3 
z
M 2275 1791 
L 1950 1466 
L 1622 1794 
L 1947 2119 
L 2275 1791 
z
" transform="scale(0.015625)"/>
       <path id="BNazanin-fbff" d="M 2050 3 
L 1744 3 
Q 1191 3 1003 366 
Q 797 3 178 3 
L -81 3 
L -81 466 
L 275 466 
Q 859 466 913 919 
Q 934 1100 1003 1100 
Q 1072 1100 1091 913 
Q 1131 466 1697 466 
L 2050 466 
L 2050 3 
z
M 1419 -878 
L 1109 -1188 
L 797 -875 
L 1106 -566 
L 1419 -878 
z
M 731 -878 
L 425 -1188 
L 113 -875 
L 422 -566 
L 731 -878 
z
" transform="scale(0.015625)"/>
       <path id="BNazanin-fb94" d="M 2403 3841 
L 2322 3544 
L 363 2916 
L 447 3203 
L 2403 3841 
z
M 2488 3244 
Q 2472 3141 2363 2803 
Q 1638 2622 597 2266 
Q 1338 1559 1403 1091 
Q 1447 763 1328 500 
Q 1197 209 903 100 
Q 644 3 91 3 
L -81 3 
L -81 466 
L 56 466 
Q 1197 466 1197 859 
Q 1197 1178 572 1778 
L 519 1678 
Q 453 1731 303 1913 
Q 141 2109 141 2156 
Q 141 2359 291 2525 
Q 325 2563 1088 2816 
Q 1897 3084 2488 3244 
z
" transform="scale(0.015625)"/>
      </defs>
      <use xlink:href="#BNazanin-fee6"/>
      <use xlink:href="#BNazanin-fbff" x="61.816406"/>
      <use xlink:href="#BNazanin-fb94" x="92.578125"/>
     </g>
    </g>
   </g>
   <g id="line2d_27">
    <path d="M 184.581818 523.112727 
L 221.042045 491.872196 
L 241.65 473.910456 
L 259.0875 458.401732 
L 273.354545 445.433449 
L 287.621591 432.159588 
L 300.303409 420.063247 
L 312.985227 407.650618 
L 324.081818 396.50357 
L 335.178409 385.06738 
L 346.275 373.323076 
L 357.371591 361.254946 
L 368.468182 348.851973 
L 379.564773 336.109699 
L 390.661364 323.032601 
L 401.757955 309.637066 
L 414.439773 293.979763 
L 430.292045 274.00834 
L 463.581818 231.877833 
L 473.093182 220.252104 
L 481.019318 210.888435 
L 487.360227 203.679438 
L 493.701136 196.779005 
L 500.042045 190.243346 
L 504.797727 185.615689 
L 509.553409 181.250217 
L 514.309091 177.171234 
L 519.064773 173.402449 
L 523.820455 169.966599 
L 528.576136 166.885043 
L 533.331818 164.177375 
L 536.502273 162.58869 
L 539.672727 161.17854 
L 542.843182 159.950948 
L 546.013636 158.909357 
L 549.184091 158.0566 
L 552.354545 157.394872 
L 555.525 156.925707 
L 558.695455 156.649964 
L 561.865909 156.56782 
L 565.036364 156.678771 
L 568.206818 156.981632 
L 571.377273 157.47456 
L 574.547727 158.155067 
L 577.718182 159.020046 
L 580.888636 160.065811 
L 584.059091 161.288125 
L 587.229545 162.682246 
L 591.985227 165.084073 
L 596.740909 167.841426 
L 601.496591 170.933358 
L 606.252273 174.337611 
L 611.007955 178.031 
L 615.763636 181.989785 
L 620.519318 186.190021 
L 626.860227 192.124784 
L 633.201136 198.391169 
L 641.127273 206.609899 
L 649.053409 215.16709 
L 658.564773 225.759057 
L 672.831818 242.036802 
L 704.536364 278.364266 
L 717.218182 292.536464 
L 729.9 306.365266 
L 740.996591 318.146355 
L 752.093182 329.611679 
L 763.189773 340.754911 
L 774.286364 351.577473 
L 785.382955 362.086471 
L 796.479545 372.29308 
L 807.576136 382.211292 
L 818.672727 391.85697 
L 831.354545 402.568743 
L 844.036364 412.973153 
L 856.718182 423.096911 
L 870.985227 434.183754 
L 885.252273 444.986189 
L 901.104545 456.699257 
L 918.542045 469.286749 
L 937.564773 482.733688 
L 959.757955 498.145274 
L 991.4625 519.86678 
L 994.632955 522.030799 
L 994.632955 522.030799 
" clip-path="url(#p45da91d6b2)" style="fill: none; stroke: #1f77b4; stroke-width: 1.5; stroke-linecap: square"/>
   </g>
   <g id="line2d_28">
    <path d="M 184.581818 523.112727 
L 213.115909 523.003767 
L 227.382955 522.738195 
L 240.064773 522.278228 
L 251.161364 521.634447 
L 260.672727 520.849859 
L 268.598864 519.993185 
L 276.525 518.914938 
L 284.451136 517.573951 
L 290.792045 516.279609 
L 297.132955 514.757155 
L 303.473864 512.973161 
L 308.229545 511.440513 
L 312.985227 509.72063 
L 317.740909 507.792804 
L 322.496591 505.633842 
L 327.252273 503.217746 
L 332.007955 500.515352 
L 336.763636 497.493932 
L 341.519318 494.116765 
L 346.275 490.342677 
L 349.445455 487.583561 
L 352.615909 484.612689 
L 355.786364 481.413973 
L 358.956818 477.970151 
L 362.127273 474.262756 
L 365.297727 470.272096 
L 368.468182 465.977259 
L 371.638636 461.356155 
L 374.809091 456.385607 
L 377.979545 451.041504 
L 381.15 445.299034 
L 384.320455 439.133033 
L 387.490909 432.518453 
L 390.661364 425.431007 
L 393.831818 417.848004 
L 397.002273 409.749417 
L 400.172727 401.119209 
L 403.343182 391.946951 
L 406.513636 382.229701 
L 409.684091 371.974152 
L 414.439773 355.626141 
L 419.195455 338.23778 
L 423.951136 320.02213 
L 441.388636 252.022236 
L 444.559091 240.630618 
L 447.729545 229.876999 
L 450.9 219.8664 
L 454.070455 210.677721 
L 457.240909 202.360815 
L 460.411364 194.93607 
L 463.581818 188.39632 
L 466.752273 182.710608 
L 469.922727 177.829085 
L 473.093182 173.688375 
L 476.263636 170.21678 
L 479.434091 167.338897 
L 482.604545 164.979402 
L 485.775 163.065911 
L 488.945455 161.530961 
L 492.115909 160.313223 
L 495.286364 159.358093 
L 498.456818 158.617812 
L 503.2125 157.821987 
L 507.968182 157.30531 
L 514.309091 156.905076 
L 522.235227 156.676281 
L 534.917045 156.577429 
L 588.814773 156.577808 
L 603.081818 156.701045 
L 611.007955 156.953419 
L 617.348864 157.372525 
L 622.104545 157.894533 
L 626.860227 158.675678 
L 630.030682 159.38638 
L 633.201136 160.287681 
L 636.371591 161.41799 
L 639.542045 162.820471 
L 642.7125 164.542839 
L 645.882955 166.636876 
L 649.053409 169.157549 
L 652.223864 172.161691 
L 655.394318 175.706171 
L 658.564773 179.845553 
L 661.735227 184.629281 
L 664.905682 190.098512 
L 668.076136 196.282808 
L 671.246591 203.196964 
L 674.417045 210.838331 
L 677.5875 219.184988 
L 680.757955 228.19506 
L 683.928409 237.807407 
L 688.684091 253.179915 
L 693.439773 269.409436 
L 702.951136 303.015514 
L 709.292045 325.179651 
L 714.047727 341.204355 
L 718.803409 356.494375 
L 723.559091 370.917444 
L 728.314773 384.396311 
L 731.485227 392.84027 
L 734.655682 400.849047 
L 737.826136 408.427594 
L 740.996591 415.585164 
L 744.167045 422.334265 
L 747.3375 428.689764 
L 750.507955 434.668136 
L 753.678409 440.286853 
L 756.848864 445.563898 
L 760.019318 450.517377 
L 763.189773 455.165227 
L 766.360227 459.524998 
L 769.530682 463.613689 
L 772.701136 467.447639 
L 775.871591 471.042456 
L 780.627273 476.01854 
L 785.382955 480.536481 
L 790.138636 484.639008 
L 794.894318 488.364999 
L 799.65 491.749704 
L 804.405682 494.824993 
L 809.161364 497.619638 
L 813.917045 500.159583 
L 818.672727 502.468211 
L 823.428409 504.566596 
L 828.184091 506.473734 
L 834.525 508.748455 
L 840.865909 510.749513 
L 847.206818 512.508413 
L 853.547727 514.052725 
L 861.473864 515.717901 
L 869.4 517.126252 
L 877.326136 518.312722 
L 886.8375 519.485509 
L 896.348864 520.425779 
L 907.445455 521.278041 
L 918.542045 521.913451 
L 931.223864 522.426683 
L 947.076136 522.823078 
L 966.098864 523.04732 
L 993.047727 523.112652 
L 994.632955 523.112718 
L 994.632955 523.112718 
" clip-path="url(#p45da91d6b2)" style="fill: none; stroke: #ff7f0e; stroke-width: 1.5; stroke-linecap: square"/>
   </g>
   <g id="line2d_29">
    <path d="M 184.581818 523.112727 
L 287.621591 523.009198 
L 306.644318 522.773759 
L 319.326136 522.411872 
L 328.8375 521.932891 
L 336.763636 521.313396 
L 343.104545 520.606286 
L 349.445455 519.636387 
L 354.201136 518.679731 
L 358.956818 517.468155 
L 362.127273 516.485792 
L 365.297727 515.335392 
L 368.468182 513.987755 
L 371.638636 512.408393 
L 374.809091 510.556526 
L 377.979545 508.383896 
L 381.15 505.833349 
L 384.320455 502.837188 
L 387.490909 499.315252 
L 390.661364 495.172735 
L 392.246591 492.834543 
L 393.831818 490.297798 
L 395.417045 487.545451 
L 397.002273 484.559084 
L 398.5875 481.318848 
L 400.172727 477.803418 
L 401.757955 473.989975 
L 403.343182 469.854209 
L 404.928409 465.370387 
L 406.513636 460.511468 
L 408.098864 455.249314 
L 409.684091 449.555004 
L 411.269318 443.399295 
L 412.854545 436.753248 
L 414.439773 429.589083 
L 416.025 421.881274 
L 419.195455 404.75258 
L 422.365909 385.269026 
L 425.536364 363.490083 
L 428.706818 339.713326 
L 433.4625 301.70982 
L 438.218182 263.925951 
L 441.388636 240.815305 
L 442.973864 230.274552 
L 444.559091 220.533085 
L 446.144318 211.646798 
L 447.729545 203.641601 
L 449.314773 196.51546 
L 450.9 190.24229 
L 452.485227 184.776959 
L 454.070455 180.06068 
L 455.655682 176.026192 
L 457.240909 172.6023 
L 458.826136 169.717558 
L 460.411364 167.303029 
L 461.996591 165.294185 
L 463.581818 163.632052 
L 465.167045 162.263773 
L 466.752273 161.142722 
L 468.3375 160.228313 
L 469.922727 159.485607 
L 473.093182 158.400727 
L 476.263636 157.701543 
L 479.434091 157.257821 
L 484.189773 156.884887 
L 490.530682 156.672684 
L 501.627273 156.579435 
L 557.110227 156.567273 
L 634.786364 156.669511 
L 641.127273 156.856209 
L 645.882955 157.167391 
L 649.053409 157.524336 
L 652.223864 158.070455 
L 655.394318 158.894115 
L 656.979545 159.446955 
L 658.564773 160.118759 
L 660.15 160.932119 
L 661.735227 161.913124 
L 663.320455 163.091663 
L 664.905682 164.501658 
L 666.490909 166.181194 
L 668.076136 168.172488 
L 669.661364 170.521634 
L 671.246591 173.278052 
L 672.831818 176.493564 
L 674.417045 180.221031 
L 676.002273 184.5125 
L 677.5875 189.416854 
L 679.172727 194.977018 
L 680.757955 201.226832 
L 682.343182 208.187821 
L 683.928409 215.866142 
L 685.513636 224.250073 
L 688.684091 242.989945 
L 691.854545 263.925951 
L 696.610227 297.796736 
L 702.951136 343.079936 
L 706.121591 364.158128 
L 709.292045 383.591623 
L 712.4625 401.178508 
L 715.632955 416.871545 
L 718.803409 430.730173 
L 721.973864 442.878331 
L 725.144318 453.47248 
L 728.314773 462.679803 
L 731.485227 470.664636 
L 734.655682 477.580845 
L 737.826136 483.568154 
L 740.996591 488.750944 
L 744.167045 493.238477 
L 747.3375 497.125899 
L 750.507955 500.495579 
L 753.678409 503.418568 
L 756.848864 505.956013 
L 760.019318 508.160482 
L 763.189773 510.077145 
L 766.360227 511.74482 
L 769.530682 513.196881 
L 772.701136 514.462046 
L 777.456818 516.062518 
L 782.2125 517.366921 
L 786.968182 518.431106 
L 791.723864 519.300006 
L 798.064773 520.216384 
L 804.405682 520.916613 
L 812.331818 521.564387 
L 821.843182 522.101779 
L 832.939773 522.505556 
L 848.792045 522.828717 
L 870.985227 523.023055 
L 910.615909 523.105452 
L 994.632955 523.112727 
L 994.632955 523.112727 
" clip-path="url(#p45da91d6b2)" style="fill: none; stroke: #2ca02c; stroke-width: 1.5; stroke-linecap: square"/>
   </g>
   <g id="line2d_30">
    <path d="M 184.581818 263.925951 
L 996.218182 263.925951 
" clip-path="url(#p45da91d6b2)" style="fill: none; stroke-dasharray: 5.55,2.4; stroke-dashoffset: 0; stroke: #d62728; stroke-width: 1.5"/>
   </g>
   <g id="patch_3">
    <path d="M 144 541.44 
L 144 138.24 
" style="fill: none; stroke: #000000; stroke-width: 0.8; stroke-linejoin: miter; stroke-linecap: square"/>
   </g>
   <g id="patch_4">
    <path d="M 1036.8 541.44 
L 1036.8 138.24 
" style="fill: none; stroke: #000000; stroke-width: 0.8; stroke-linejoin: miter; stroke-linecap: square"/>
   </g>
   <g id="patch_5">
    <path d="M 144 541.44 
L 1036.8 541.44 
" style="fill: none; stroke: #000000; stroke-width: 0.8; stroke-linejoin: miter; stroke-linecap: square"/>
   </g>
   <g id="patch_6">
    <path d="M 144 138.24 
L 1036.8 138.24 
" style="fill: none; stroke: #000000; stroke-width: 0.8; stroke-linejoin: miter; stroke-linecap: square"/>
   </g>
   <g id="text_16">
    <!-- $\mathbf{\sqrt{0.5}}$ -->
    <g transform="translate(112.411364 267.546263)scale(0.1 -0.1)">
     <defs>
      <path id="STIXSizeOneSym-Regular-221a" d="M 6970 9933 
L 3373 -1888 
L 3104 -1888 
L 1626 2918 
Q 1555 3149 1465 3251 
Q 1376 3354 1229 3354 
Q 1011 3354 794 3181 
L 717 3309 
L 1766 4115 
L 1926 4115 
L 3379 -602 
L 3405 -602 
L 6605 9933 
L 6970 9933 
z
" transform="scale(0.015625)"/>
      <path id="DejaVuSans-Bold-30" d="M 2944 2338 
Q 2944 3213 2780 3570 
Q 2616 3928 2228 3928 
Q 1841 3928 1675 3570 
Q 1509 3213 1509 2338 
Q 1509 1453 1675 1090 
Q 1841 728 2228 728 
Q 2613 728 2778 1090 
Q 2944 1453 2944 2338 
z
M 4147 2328 
Q 4147 1169 3647 539 
Q 3147 -91 2228 -91 
Q 1306 -91 806 539 
Q 306 1169 306 2328 
Q 306 3491 806 4120 
Q 1306 4750 2228 4750 
Q 3147 4750 3647 4120 
Q 4147 3491 4147 2328 
z
" transform="scale(0.015625)"/>
      <path id="DejaVuSans-Bold-2e" d="M 653 1209 
L 1778 1209 
L 1778 0 
L 653 0 
L 653 1209 
z
" transform="scale(0.015625)"/>
      <path id="DejaVuSans-Bold-35" d="M 678 4666 
L 3669 4666 
L 3669 3781 
L 1638 3781 
L 1638 3059 
Q 1775 3097 1914 3117 
Q 2053 3138 2203 3138 
Q 3056 3138 3531 2711 
Q 4006 2284 4006 1522 
Q 4006 766 3489 337 
Q 2972 -91 2053 -91 
Q 1656 -91 1267 -14 
Q 878 63 494 219 
L 494 1166 
Q 875 947 1217 837 
Q 1559 728 1863 728 
Q 2300 728 2551 942 
Q 2803 1156 2803 1522 
Q 2803 1891 2551 2103 
Q 2300 2316 1863 2316 
Q 1603 2316 1309 2248 
Q 1016 2181 678 2041 
L 678 4666 
z
" transform="scale(0.015625)"/>
     </defs>
     <use xlink:href="#STIXSizeOneSym-Regular-221a" transform="translate(0 15.984375)scale(0.578716)"/>
     <use xlink:href="#DejaVuSans-Bold-30" transform="translate(73.673874 0.53125)"/>
     <use xlink:href="#DejaVuSans-Bold-2e" transform="translate(143.253952 0.53125)"/>
     <use xlink:href="#DejaVuSans-Bold-35" transform="translate(181.242233 0.53125)"/>
     <path d="M 61.173874 99.5 
L 61.173874 105.75 
L 263.322311 105.75 
L 263.322311 99.5 
L 61.173874 99.5 
z
"/>
    </g>
   </g>
   <g id="legend_1">
    <g id="patch_7">
     <path d="M 929.861875 230.576563 
L 1027 230.576563 
Q 1029.8 230.576563 1029.8 227.776563 
L 1029.8 148.04 
Q 1029.8 145.24 1027 145.24 
L 929.861875 145.24 
Q 927.061875 145.24 927.061875 148.04 
L 927.061875 227.776563 
Q 927.061875 230.576563 929.861875 230.576563 
z
" style="fill: #ffffff; stroke: #cccccc; stroke-linejoin: miter"/>
    </g>
    <g id="line2d_31">
     <path d="M 932.661875 155.74 
L 946.661875 155.74 
L 960.661875 155.74 
" style="fill: none; stroke: #1f77b4; stroke-width: 1.5; stroke-linecap: square"/>
    </g>
    <g id="text_17">
     <!-- ﻪﺒﺗﺮﻣ = 1 -->
     <g transform="translate(971.861875 160.64)scale(0.14 -0.14)">
      <defs>
       <path id="BNazanin-feea" d="M 2738 3 
L 2441 3 
Q 1928 3 1791 641 
Q 1509 363 1466 363 
L 1113 363 
Q 925 363 741 419 
Q 484 497 484 638 
Q 484 1088 803 1369 
Q 1016 1556 1538 1763 
L 1459 2147 
L 1728 2450 
Q 1744 2400 2000 1141 
Q 2078 756 2144 641 
Q 2244 466 2459 466 
L 2738 466 
L 2738 3 
z
M 1741 819 
L 1606 1453 
Q 1403 1394 1122 1256 
Q 738 1069 738 959 
Q 738 869 1031 819 
Q 1238 784 1397 784 
Q 1594 784 1741 819 
z
" transform="scale(0.015625)"/>
       <path id="BNazanin-fe92" d="M 2050 3 
L 1744 3 
Q 1191 3 1003 366 
Q 797 3 178 3 
L -81 3 
L -81 466 
L 275 466 
Q 859 466 913 919 
Q 934 1100 1003 1100 
Q 1072 1100 1091 913 
Q 1131 466 1697 466 
L 2050 466 
L 2050 3 
z
M 1184 -878 
L 859 -1203 
L 531 -875 
L 856 -550 
L 1184 -878 
z
" transform="scale(0.015625)"/>
       <path id="BNazanin-fee3" d="M 2066 797 
Q 2091 500 1997 297 
Q 1853 -13 1678 -13 
Q 1359 -13 772 397 
Q 591 181 519 125 
Q 363 3 134 3 
L -81 3 
L -81 466 
L 203 466 
Q 472 466 675 741 
Q 775 884 1034 1250 
Q 1231 1525 1438 1525 
Q 1728 1525 1913 1231 
Q 2047 1016 2066 797 
z
M 1828 503 
Q 1828 678 1697 884 
Q 1550 1116 1375 1116 
Q 1197 1116 956 750 
Q 1056 641 1322 520 
Q 1588 400 1734 400 
Q 1828 400 1828 503 
z
" transform="scale(0.015625)"/>
       <path id="BNazanin-3d" d="M 2209 1425 
L 172 1425 
L 172 1666 
L 2209 1666 
L 2209 1425 
z
M 2209 656 
L 172 656 
L 172 894 
L 2209 894 
L 2209 656 
z
" transform="scale(0.015625)"/>
       <path id="BNazanin-31" d="M 1988 775 
Q 1988 -103 1794 -103 
Q 1700 -103 1681 219 
Q 1681 419 1681 619 
Q 1666 1022 1531 1525 
Q 1291 2425 859 3084 
L 1178 3584 
Q 1491 3125 1722 2388 
Q 1988 1541 1988 775 
z
" transform="scale(0.015625)"/>
      </defs>
      <use xlink:href="#BNazanin-feea"/>
      <use xlink:href="#BNazanin-fe92" x="41.503906"/>
      <use xlink:href="#BNazanin-fe97" x="72.265625"/>
      <use xlink:href="#BNazanin-feae" x="93.408203"/>
      <use xlink:href="#BNazanin-fee3" x="131.005859"/>
      <use xlink:href="#BNazanin-20" x="163.330078"/>
      <use xlink:href="#BNazanin-3d" x="187.744141"/>
      <use xlink:href="#BNazanin-20" x="225.195312"/>
      <use xlink:href="#BNazanin-31" x="249.609375"/>
     </g>
    </g>
    <g id="line2d_32">
     <path d="M 932.661875 175.998437 
L 946.661875 175.998437 
L 960.661875 175.998437 
" style="fill: none; stroke: #ff7f0e; stroke-width: 1.5; stroke-linecap: square"/>
    </g>
    <g id="text_18">
     <!-- ﻪﺒﺗﺮﻣ = 3 -->
     <g transform="translate(971.861875 180.898438)scale(0.14 -0.14)">
      <defs>
       <path id="BNazanin-33" d="M 2738 3441 
Q 2738 2494 2147 2494 
Q 2028 2494 1901 2566 
Q 1775 2638 1722 2741 
Q 1675 2597 1519 2506 
Q 1375 2425 1213 2425 
Q 1125 2425 1050 2450 
Q 1184 2203 1309 1722 
Q 1459 1144 1459 666 
Q 1459 216 1453 150 
Q 1428 -106 1309 -106 
Q 1244 -106 1194 253 
Q 1169 469 1144 684 
Q 1084 1100 913 1603 
Q 628 2431 166 3038 
L 463 3563 
Q 750 3150 759 3144 
Q 938 2950 1191 2950 
Q 1400 2950 1506 3125 
Q 1556 3209 1628 3466 
Q 1663 3591 1731 3591 
Q 1809 3591 1828 3425 
Q 1850 3222 1903 3138 
Q 1988 3003 2184 3003 
Q 2378 3003 2463 3166 
Q 2497 3231 2547 3453 
Q 2581 3603 2663 3603 
Q 2738 3603 2738 3441 
z
" transform="scale(0.015625)"/>
      </defs>
      <use xlink:href="#BNazanin-feea"/>
      <use xlink:href="#BNazanin-fe92" x="41.503906"/>
      <use xlink:href="#BNazanin-fe97" x="72.265625"/>
      <use xlink:href="#BNazanin-feae" x="93.408203"/>
      <use xlink:href="#BNazanin-fee3" x="131.005859"/>
      <use xlink:href="#BNazanin-20" x="163.330078"/>
      <use xlink:href="#BNazanin-3d" x="187.744141"/>
      <use xlink:href="#BNazanin-20" x="225.195312"/>
      <use xlink:href="#BNazanin-33" x="249.609375"/>
     </g>
    </g>
    <g id="line2d_33">
     <path d="M 932.661875 196.256875 
L 946.661875 196.256875 
L 960.661875 196.256875 
" style="fill: none; stroke: #2ca02c; stroke-width: 1.5; stroke-linecap: square"/>
    </g>
    <g id="text_19">
     <!-- ﻪﺒﺗﺮﻣ = 6 -->
     <g transform="translate(971.861875 201.156875)scale(0.14 -0.14)">
      <defs>
       <path id="BNazanin-36" d="M 2575 2534 
L 2363 1925 
Q 1091 1500 419 -6 
Q 375 -103 322 -103 
Q 250 -103 263 16 
Q 306 428 566 959 
Q 800 1438 1116 1722 
Q 384 1816 384 2422 
Q 384 2719 744 3138 
Q 1141 3600 1509 3600 
Q 1703 3600 1906 3469 
Q 2125 3325 2156 3144 
Q 2166 3097 2136 3070 
Q 2106 3044 2059 3056 
Q 1756 3138 1500 3138 
Q 1250 3138 1031 2997 
Q 784 2838 784 2600 
Q 784 2203 1472 2203 
Q 1650 2203 1966 2350 
Q 2066 2397 2456 2588 
Q 2531 2625 2563 2606 
Q 2594 2588 2575 2534 
z
" transform="scale(0.015625)"/>
      </defs>
      <use xlink:href="#BNazanin-feea"/>
      <use xlink:href="#BNazanin-fe92" x="41.503906"/>
      <use xlink:href="#BNazanin-fe97" x="72.265625"/>
      <use xlink:href="#BNazanin-feae" x="93.408203"/>
      <use xlink:href="#BNazanin-fee3" x="131.005859"/>
      <use xlink:href="#BNazanin-20" x="163.330078"/>
      <use xlink:href="#BNazanin-3d" x="187.744141"/>
      <use xlink:href="#BNazanin-20" x="225.195312"/>
      <use xlink:href="#BNazanin-36" x="249.609375"/>
     </g>
    </g>
    <g id="line2d_34">
     <path d="M 932.661875 216.515313 
L 946.661875 216.515313 
L 960.661875 216.515313 
" style="fill: none; stroke-dasharray: 5.55,2.4; stroke-dashoffset: 0; stroke: #d62728; stroke-width: 1.5"/>
    </g>
    <g id="text_20">
     <!-- ﻦﯿﮔ ﻒﯿﻌﻀﺗ -->
     <g transform="translate(971.861875 221.415313)scale(0.14 -0.14)">
      <defs>
       <path id="BNazanin-fed2" d="M 4734 3 
L 4481 3 
Q 4119 3 3678 244 
Q 3478 159 3363 119 
Q 2791 -78 1894 -78 
Q 1281 -78 975 41 
Q 484 231 484 731 
Q 484 1134 703 1453 
Q 747 1519 794 1519 
Q 825 1519 828 1466 
Q 828 1438 813 1391 
Q 722 1141 722 1006 
Q 716 584 1250 450 
Q 1513 384 2116 384 
Q 2616 384 2888 428 
Q 3044 453 3244 522 
Q 3041 713 3038 1028 
Q 3034 1306 3247 1619 
Q 3475 1956 3738 1959 
Q 4025 1963 4178 1669 
Q 4300 1438 4300 1119 
Q 4300 753 4044 544 
Q 4188 466 4556 466 
L 4734 466 
L 4734 3 
z
M 4084 1031 
Q 4084 1156 3953 1323 
Q 3822 1491 3700 1491 
Q 3578 1491 3420 1341 
Q 3263 1191 3259 1069 
Q 3253 828 3706 644 
Q 4084 800 4084 1031 
z
M 3866 2997 
L 3541 2672 
L 3213 3000 
L 3538 3325 
L 3866 2997 
z
" transform="scale(0.015625)"/>
       <path id="BNazanin-fecc" d="M 2328 3 
L 2078 3 
Q 1481 3 1172 397 
Q 813 3 244 3 
L -81 3 
L -81 466 
L 313 466 
Q 716 466 909 628 
Q 872 734 763 863 
Q 644 1003 550 1028 
Q 422 1063 422 1113 
Q 422 1141 450 1206 
Q 609 1581 1134 1581 
Q 1800 1581 1800 1166 
Q 1800 981 1434 663 
Q 1522 572 1725 513 
Q 1888 466 2009 466 
L 2328 466 
L 2328 3 
z
" transform="scale(0.015625)"/>
       <path id="BNazanin-fec0" d="M 3906 3 
L 3591 3 
Q 3178 3 2716 138 
Q 2303 6 1666 6 
Q 1256 6 1084 50 
Q 794 125 672 369 
Q 453 3 84 3 
L -81 3 
L -81 466 
L 81 466 
Q 534 466 616 925 
Q 634 1038 691 1038 
Q 747 1038 759 925 
Q 806 503 1144 484 
Q 2256 1681 2906 1681 
Q 3184 1681 3372 1513 
Q 3569 1334 3569 1063 
Q 3569 694 3303 431 
Q 3375 431 3520 448 
Q 3666 466 3738 466 
L 3906 466 
L 3906 3 
z
M 3278 831 
Q 3278 1009 3078 1134 
Q 2903 1244 2716 1244 
Q 2153 1244 1422 484 
Q 1591 475 1763 475 
Q 2159 475 2597 538 
Q 3278 634 3278 831 
z
M 2659 2800 
L 2334 2475 
L 2006 2803 
L 2331 3128 
L 2659 2800 
z
" transform="scale(0.015625)"/>
      </defs>
      <use xlink:href="#BNazanin-fee6"/>
      <use xlink:href="#BNazanin-fbff" x="61.816406"/>
      <use xlink:href="#BNazanin-fb94" x="92.578125"/>
      <use xlink:href="#BNazanin-20" x="129.931641"/>
      <use xlink:href="#BNazanin-fed2" x="154.345703"/>
      <use xlink:href="#BNazanin-fbff" x="227.050781"/>
      <use xlink:href="#BNazanin-fecc" x="257.8125"/>
      <use xlink:href="#BNazanin-fec0" x="292.919922"/>
      <use xlink:href="#BNazanin-fe97" x="352.685547"/>
     </g>
    </g>
   </g>
  </g>
  <g id="axes_2">
   <g id="patch_8">
    <path d="M 144 1025.28 
L 1036.8 1025.28 
L 1036.8 622.08 
L 144 622.08 
z
" style="fill: #ffffff"/>
   </g>
   <g id="matplotlib.axis_3">
    <g id="xtick_8">
     <g id="line2d_35">
      <path d="M 184.581818 1025.28 
L 184.581818 622.08 
" clip-path="url(#p392ac7c706)" style="fill: none; stroke: #b0b0b0; stroke-width: 0.8; stroke-linecap: square"/>
     </g>
     <g id="line2d_36">
      <g>
       <use xlink:href="#m1ce1b275a2" x="184.581818" y="1025.28" style="stroke: #000000; stroke-width: 0.8"/>
      </g>
     </g>
     <g id="text_21">
      <!-- 0 -->
      <g transform="translate(181.400568 1039.878438)scale(0.1 -0.1)">
       <use xlink:href="#DejaVuSans-30"/>
      </g>
     </g>
    </g>
    <g id="xtick_9">
     <g id="line2d_37">
      <path d="M 311.4 1025.28 
L 311.4 622.08 
" clip-path="url(#p392ac7c706)" style="fill: none; stroke: #b0b0b0; stroke-width: 0.8; stroke-linecap: square"/>
     </g>
     <g id="line2d_38">
      <g>
       <use xlink:href="#m1ce1b275a2" x="311.4" y="1025.28" style="stroke: #000000; stroke-width: 0.8"/>
      </g>
     </g>
     <g id="text_22">
      <!-- 20 -->
      <g transform="translate(305.0375 1039.878438)scale(0.1 -0.1)">
       <use xlink:href="#DejaVuSans-32"/>
       <use xlink:href="#DejaVuSans-30" x="63.623047"/>
      </g>
     </g>
    </g>
    <g id="xtick_10">
     <g id="line2d_39">
      <path d="M 438.218182 1025.28 
L 438.218182 622.08 
" clip-path="url(#p392ac7c706)" style="fill: none; stroke: #b0b0b0; stroke-width: 0.8; stroke-linecap: square"/>
     </g>
     <g id="line2d_40">
      <g>
       <use xlink:href="#m1ce1b275a2" x="438.218182" y="1025.28" style="stroke: #000000; stroke-width: 0.8"/>
      </g>
     </g>
     <g id="text_23">
      <!-- 40 -->
      <g transform="translate(431.855682 1039.878438)scale(0.1 -0.1)">
       <use xlink:href="#DejaVuSans-34"/>
       <use xlink:href="#DejaVuSans-30" x="63.623047"/>
      </g>
     </g>
    </g>
    <g id="xtick_11">
     <g id="line2d_41">
      <path d="M 565.036364 1025.28 
L 565.036364 622.08 
" clip-path="url(#p392ac7c706)" style="fill: none; stroke: #b0b0b0; stroke-width: 0.8; stroke-linecap: square"/>
     </g>
     <g id="line2d_42">
      <g>
       <use xlink:href="#m1ce1b275a2" x="565.036364" y="1025.28" style="stroke: #000000; stroke-width: 0.8"/>
      </g>
     </g>
     <g id="text_24">
      <!-- 60 -->
      <g transform="translate(558.673864 1039.878438)scale(0.1 -0.1)">
       <use xlink:href="#DejaVuSans-36"/>
       <use xlink:href="#DejaVuSans-30" x="63.623047"/>
      </g>
     </g>
    </g>
    <g id="xtick_12">
     <g id="line2d_43">
      <path d="M 691.854545 1025.28 
L 691.854545 622.08 
" clip-path="url(#p392ac7c706)" style="fill: none; stroke: #b0b0b0; stroke-width: 0.8; stroke-linecap: square"/>
     </g>
     <g id="line2d_44">
      <g>
       <use xlink:href="#m1ce1b275a2" x="691.854545" y="1025.28" style="stroke: #000000; stroke-width: 0.8"/>
      </g>
     </g>
     <g id="text_25">
      <!-- 80 -->
      <g transform="translate(685.492045 1039.878438)scale(0.1 -0.1)">
       <use xlink:href="#DejaVuSans-38"/>
       <use xlink:href="#DejaVuSans-30" x="63.623047"/>
      </g>
     </g>
    </g>
    <g id="xtick_13">
     <g id="line2d_45">
      <path d="M 818.672727 1025.28 
L 818.672727 622.08 
" clip-path="url(#p392ac7c706)" style="fill: none; stroke: #b0b0b0; stroke-width: 0.8; stroke-linecap: square"/>
     </g>
     <g id="line2d_46">
      <g>
       <use xlink:href="#m1ce1b275a2" x="818.672727" y="1025.28" style="stroke: #000000; stroke-width: 0.8"/>
      </g>
     </g>
     <g id="text_26">
      <!-- 100 -->
      <g transform="translate(809.128977 1039.878438)scale(0.1 -0.1)">
       <use xlink:href="#DejaVuSans-31"/>
       <use xlink:href="#DejaVuSans-30" x="63.623047"/>
       <use xlink:href="#DejaVuSans-30" x="127.246094"/>
      </g>
     </g>
    </g>
    <g id="xtick_14">
     <g id="line2d_47">
      <path d="M 945.490909 1025.28 
L 945.490909 622.08 
" clip-path="url(#p392ac7c706)" style="fill: none; stroke: #b0b0b0; stroke-width: 0.8; stroke-linecap: square"/>
     </g>
     <g id="line2d_48">
      <g>
       <use xlink:href="#m1ce1b275a2" x="945.490909" y="1025.28" style="stroke: #000000; stroke-width: 0.8"/>
      </g>
     </g>
     <g id="text_27">
      <!-- 120 -->
      <g transform="translate(935.947159 1039.878438)scale(0.1 -0.1)">
       <use xlink:href="#DejaVuSans-31"/>
       <use xlink:href="#DejaVuSans-32" x="63.623047"/>
       <use xlink:href="#DejaVuSans-30" x="127.246094"/>
      </g>
     </g>
    </g>
    <g id="text_28">
     <!-- (ﺰﺗﺮﻫ) ﺲﻧﺎﮐﺮﻓ -->
     <g transform="translate(563.350312 1053.060625)scale(0.12 -0.12)">
      <use xlink:href="#BNazanin-28"/>
      <use xlink:href="#BNazanin-feb0" x="28.125"/>
      <use xlink:href="#BNazanin-fe97" x="65.722656"/>
      <use xlink:href="#BNazanin-feae" x="86.865234"/>
      <use xlink:href="#BNazanin-feeb" x="124.462891"/>
      <use xlink:href="#BNazanin-29" x="163.916016"/>
      <use xlink:href="#BNazanin-20" x="192.041016"/>
      <use xlink:href="#BNazanin-feb2" x="216.455078"/>
      <use xlink:href="#BNazanin-fee7" x="310.742188"/>
      <use xlink:href="#BNazanin-fe8e" x="327.001953"/>
      <use xlink:href="#BNazanin-fb90" x="350.439453"/>
      <use xlink:href="#BNazanin-feae" x="387.792969"/>
      <use xlink:href="#BNazanin-fed3" x="425.390625"/>
     </g>
    </g>
   </g>
   <g id="matplotlib.axis_4">
    <g id="ytick_7">
     <g id="line2d_49">
      <path d="M 144 1025.28 
L 1036.8 1025.28 
" clip-path="url(#p392ac7c706)" style="fill: none; stroke: #b0b0b0; stroke-width: 0.8; stroke-linecap: square"/>
     </g>
     <g id="line2d_50">
      <g>
       <use xlink:href="#me5485866d5" x="144" y="1025.28" style="stroke: #000000; stroke-width: 0.8"/>
      </g>
     </g>
     <g id="text_29">
      <!-- −50 -->
      <g transform="translate(115.895313 1029.079219)scale(0.1 -0.1)">
       <defs>
        <path id="DejaVuSans-2212" d="M 678 2272 
L 4684 2272 
L 4684 1741 
L 678 1741 
L 678 2272 
z
" transform="scale(0.015625)"/>
        <path id="DejaVuSans-35" d="M 691 4666 
L 3169 4666 
L 3169 4134 
L 1269 4134 
L 1269 2991 
Q 1406 3038 1543 3061 
Q 1681 3084 1819 3084 
Q 2600 3084 3056 2656 
Q 3513 2228 3513 1497 
Q 3513 744 3044 326 
Q 2575 -91 1722 -91 
Q 1428 -91 1123 -41 
Q 819 9 494 109 
L 494 744 
Q 775 591 1075 516 
Q 1375 441 1709 441 
Q 2250 441 2565 725 
Q 2881 1009 2881 1497 
Q 2881 1984 2565 2268 
Q 2250 2553 1709 2553 
Q 1456 2553 1204 2497 
Q 953 2441 691 2322 
L 691 4666 
z
" transform="scale(0.015625)"/>
       </defs>
       <use xlink:href="#DejaVuSans-2212"/>
       <use xlink:href="#DejaVuSans-35" x="83.789062"/>
       <use xlink:href="#DejaVuSans-30" x="147.412109"/>
      </g>
     </g>
    </g>
    <g id="ytick_8">
     <g id="line2d_51">
      <path d="M 144 951.970909 
L 1036.8 951.970909 
" clip-path="url(#p392ac7c706)" style="fill: none; stroke: #b0b0b0; stroke-width: 0.8; stroke-linecap: square"/>
     </g>
     <g id="line2d_52">
      <g>
       <use xlink:href="#me5485866d5" x="144" y="951.970909" style="stroke: #000000; stroke-width: 0.8"/>
      </g>
     </g>
     <g id="text_30">
      <!-- −40 -->
      <g transform="translate(115.895313 955.770128)scale(0.1 -0.1)">
       <use xlink:href="#DejaVuSans-2212"/>
       <use xlink:href="#DejaVuSans-34" x="83.789062"/>
       <use xlink:href="#DejaVuSans-30" x="147.412109"/>
      </g>
     </g>
    </g>
    <g id="ytick_9">
     <g id="line2d_53">
      <path d="M 144 878.661818 
L 1036.8 878.661818 
" clip-path="url(#p392ac7c706)" style="fill: none; stroke: #b0b0b0; stroke-width: 0.8; stroke-linecap: square"/>
     </g>
     <g id="line2d_54">
      <g>
       <use xlink:href="#me5485866d5" x="144" y="878.661818" style="stroke: #000000; stroke-width: 0.8"/>
      </g>
     </g>
     <g id="text_31">
      <!-- −30 -->
      <g transform="translate(115.895313 882.461037)scale(0.1 -0.1)">
       <defs>
        <path id="DejaVuSans-33" d="M 2597 2516 
Q 3050 2419 3304 2112 
Q 3559 1806 3559 1356 
Q 3559 666 3084 287 
Q 2609 -91 1734 -91 
Q 1441 -91 1130 -33 
Q 819 25 488 141 
L 488 750 
Q 750 597 1062 519 
Q 1375 441 1716 441 
Q 2309 441 2620 675 
Q 2931 909 2931 1356 
Q 2931 1769 2642 2001 
Q 2353 2234 1838 2234 
L 1294 2234 
L 1294 2753 
L 1863 2753 
Q 2328 2753 2575 2939 
Q 2822 3125 2822 3475 
Q 2822 3834 2567 4026 
Q 2313 4219 1838 4219 
Q 1578 4219 1281 4162 
Q 984 4106 628 3988 
L 628 4550 
Q 988 4650 1302 4700 
Q 1616 4750 1894 4750 
Q 2613 4750 3031 4423 
Q 3450 4097 3450 3541 
Q 3450 3153 3228 2886 
Q 3006 2619 2597 2516 
z
" transform="scale(0.015625)"/>
       </defs>
       <use xlink:href="#DejaVuSans-2212"/>
       <use xlink:href="#DejaVuSans-33" x="83.789062"/>
       <use xlink:href="#DejaVuSans-30" x="147.412109"/>
      </g>
     </g>
    </g>
    <g id="ytick_10">
     <g id="line2d_55">
      <path d="M 144 805.352727 
L 1036.8 805.352727 
" clip-path="url(#p392ac7c706)" style="fill: none; stroke: #b0b0b0; stroke-width: 0.8; stroke-linecap: square"/>
     </g>
     <g id="line2d_56">
      <g>
       <use xlink:href="#me5485866d5" x="144" y="805.352727" style="stroke: #000000; stroke-width: 0.8"/>
      </g>
     </g>
     <g id="text_32">
      <!-- −20 -->
      <g transform="translate(115.895313 809.151946)scale(0.1 -0.1)">
       <use xlink:href="#DejaVuSans-2212"/>
       <use xlink:href="#DejaVuSans-32" x="83.789062"/>
       <use xlink:href="#DejaVuSans-30" x="147.412109"/>
      </g>
     </g>
    </g>
    <g id="ytick_11">
     <g id="line2d_57">
      <path d="M 144 732.043636 
L 1036.8 732.043636 
" clip-path="url(#p392ac7c706)" style="fill: none; stroke: #b0b0b0; stroke-width: 0.8; stroke-linecap: square"/>
     </g>
     <g id="line2d_58">
      <g>
       <use xlink:href="#me5485866d5" x="144" y="732.043636" style="stroke: #000000; stroke-width: 0.8"/>
      </g>
     </g>
     <g id="text_33">
      <!-- −10 -->
      <g transform="translate(115.895313 735.842855)scale(0.1 -0.1)">
       <use xlink:href="#DejaVuSans-2212"/>
       <use xlink:href="#DejaVuSans-31" x="83.789062"/>
       <use xlink:href="#DejaVuSans-30" x="147.412109"/>
      </g>
     </g>
    </g>
    <g id="ytick_12">
     <g id="line2d_59">
      <path d="M 144 658.734545 
L 1036.8 658.734545 
" clip-path="url(#p392ac7c706)" style="fill: none; stroke: #b0b0b0; stroke-width: 0.8; stroke-linecap: square"/>
     </g>
     <g id="line2d_60">
      <g>
       <use xlink:href="#me5485866d5" x="144" y="658.734545" style="stroke: #000000; stroke-width: 0.8"/>
      </g>
     </g>
     <g id="text_34">
      <!-- 0 -->
      <g transform="translate(130.6375 662.533764)scale(0.1 -0.1)">
       <use xlink:href="#DejaVuSans-30"/>
      </g>
     </g>
    </g>
    <g id="text_35">
     <!-- (ﯽﻤﺘﯾﺭﺎﮕﻟ) ﻦﯿﮔ -->
     <g transform="translate(108.589687 852.720937)rotate(-90)scale(0.12 -0.12)">
      <defs>
       <path id="BNazanin-fbfd" d="M 4075 3 
L 3163 3 
Q 2994 3 2838 -50 
Q 2622 -122 2622 -253 
Q 2622 -284 3198 -412 
Q 3775 -541 3775 -666 
Q 3775 -1138 3503 -1369 
Q 3044 -1763 1884 -1763 
Q 484 -1763 484 -728 
Q 484 -494 584 -208 
Q 684 78 828 266 
Q 884 341 931 344 
Q 978 347 978 294 
Q 978 247 941 175 
Q 759 -169 759 -538 
Q 759 -947 1147 -1144 
Q 1444 -1294 1900 -1294 
Q 2384 -1294 2788 -1244 
Q 3513 -1153 3513 -934 
Q 3513 -844 3197 -791 
Q 2694 -706 2616 -684 
Q 2300 -597 2300 -416 
Q 2300 -272 2453 -56 
Q 2581 122 2722 238 
Q 3003 466 3522 466 
L 4075 466 
L 4075 3 
z
" transform="scale(0.015625)"/>
       <path id="BNazanin-fee4" d="M 2947 3 
L 2688 3 
Q 2406 3 2109 334 
Q 1944 -159 1734 -159 
Q 1541 -159 1194 38 
Q 884 213 759 353 
Q 478 3 163 3 
L -81 3 
L -81 466 
L 175 466 
Q 450 466 706 697 
Q 866 878 1094 1125 
Q 1306 1356 1491 1356 
Q 1719 1356 1906 1125 
Q 2000 1006 2247 697 
Q 2438 466 2688 466 
L 2947 466 
L 2947 3 
z
M 1869 334 
Q 1888 516 1766 725 
Q 1628 963 1425 963 
Q 1219 963 981 656 
Q 1047 572 1322 428 
Q 1619 272 1800 266 
Q 1863 263 1869 334 
z
" transform="scale(0.015625)"/>
       <path id="BNazanin-fe98" d="M 2050 3 
L 1744 3 
Q 1191 3 1003 366 
Q 797 3 178 3 
L -81 3 
L -81 466 
L 275 466 
Q 859 466 913 919 
Q 934 1100 1003 1100 
Q 1072 1100 1091 913 
Q 1131 466 1697 466 
L 2050 466 
L 2050 3 
z
M 1378 2325 
L 1072 2019 
L 759 2328 
L 1069 2638 
L 1378 2325 
z
M 694 2325 
L 384 2019 
L 75 2328 
L 381 2638 
L 694 2325 
z
" transform="scale(0.015625)"/>
       <path id="BNazanin-fbfe" d="M 1038 797 
Q 1038 3 247 3 
L -81 3 
L -81 466 
L 191 466 
Q 788 466 788 681 
Q 788 831 516 1178 
L 678 1572 
Q 703 1631 719 1631 
Q 734 1631 784 1559 
Q 1038 1188 1038 797 
z
M 1406 -878 
L 1097 -1188 
L 788 -875 
L 1097 -566 
L 1406 -878 
z
M 722 -878 
L 413 -1188 
L 103 -875 
L 409 -566 
L 722 -878 
z
" transform="scale(0.015625)"/>
       <path id="BNazanin-fead" d="M 2016 -34 
Q 2016 -619 1644 -1138 
Q 1325 -1581 1113 -1581 
Q 656 -1581 325 -1534 
Q 216 -1519 216 -1481 
Q 216 -1444 328 -1422 
Q 797 -1325 1272 -925 
Q 1778 -497 1778 -103 
Q 1778 159 1359 566 
L 1541 944 
Q 1566 994 1578 997 
Q 1597 991 1631 947 
Q 1775 772 1891 481 
Q 2016 175 2016 -34 
z
" transform="scale(0.015625)"/>
       <path id="BNazanin-fb95" d="M 2378 3853 
L 2297 3556 
L 338 2928 
L 422 3219 
L 2378 3853 
z
M 2788 3 
L 2556 3 
Q 2241 3 1922 284 
Q 1700 481 1394 909 
Q 1341 3 144 3 
L -81 3 
L -81 466 
L 81 466 
Q 1191 466 1191 913 
Q 1191 1253 666 1747 
Q 441 1959 141 2169 
Q 141 2425 266 2553 
Q 316 2603 2466 3256 
Q 2459 3178 2334 2825 
Q 1809 2688 559 2291 
Q 1184 1641 1650 1100 
Q 1922 784 2072 669 
Q 2334 466 2625 466 
L 2788 466 
L 2788 3 
z
" transform="scale(0.015625)"/>
       <path id="BNazanin-fedf" d="M 1000 3178 
Q 1034 3097 1025 3081 
Q 1019 3072 959 3072 
L 831 3072 
Q 872 2272 856 809 
Q 853 456 684 241 
Q 497 3 153 3 
L -81 3 
L -81 466 
L 131 466 
Q 603 466 588 825 
Q 534 2113 453 3434 
L 719 3688 
Q 781 3747 794 3750 
Q 806 3738 825 3666 
Q 872 3484 1000 3178 
z
" transform="scale(0.015625)"/>
      </defs>
      <use xlink:href="#BNazanin-28"/>
      <use xlink:href="#BNazanin-fbfd" x="28.125"/>
      <use xlink:href="#BNazanin-fee4" x="90.478516"/>
      <use xlink:href="#BNazanin-fe98" x="135.205078"/>
      <use xlink:href="#BNazanin-fbfe" x="165.966797"/>
      <use xlink:href="#BNazanin-fead" x="188.183594"/>
      <use xlink:href="#BNazanin-fe8e" x="219.775391"/>
      <use xlink:href="#BNazanin-fb95" x="243.212891"/>
      <use xlink:href="#BNazanin-fedf" x="285.498047"/>
      <use xlink:href="#BNazanin-29" x="301.513672"/>
      <use xlink:href="#BNazanin-20" x="329.638672"/>
      <use xlink:href="#BNazanin-fee6" x="354.052734"/>
      <use xlink:href="#BNazanin-fbff" x="415.869141"/>
      <use xlink:href="#BNazanin-fb94" x="446.630859"/>
     </g>
    </g>
   </g>
   <g id="line2d_61">
    <path d="M 186.167045 1015.455548 
L 187.752273 971.317531 
L 189.3375 945.496773 
L 190.922727 927.174874 
L 192.507955 912.961464 
L 194.093182 901.346383 
L 195.678409 891.524065 
L 197.263636 883.013659 
L 198.848864 875.505006 
L 200.434091 868.786332 
L 202.019318 862.706588 
L 203.604545 857.154243 
L 205.189773 852.044601 
L 208.360227 842.903728 
L 211.530682 834.900927 
L 214.701136 827.781485 
L 217.871591 821.36741 
L 221.042045 815.529412 
L 224.2125 810.17061 
L 227.382955 805.216531 
L 230.553409 800.608695 
L 233.723864 796.300334 
L 238.479545 790.318103 
L 243.235227 784.824349 
L 247.990909 779.741403 
L 252.746591 775.008477 
L 257.502273 770.577109 
L 262.257955 766.40804 
L 268.598864 761.202386 
L 274.939773 756.34443 
L 281.280682 751.784914 
L 287.621591 747.484019 
L 295.547727 742.42244 
L 303.473864 737.662614 
L 311.4 733.162974 
L 319.326136 728.889728 
L 328.8375 724.021949 
L 338.348864 719.401438 
L 349.445455 714.281952 
L 360.542045 709.417377 
L 371.638636 704.77749 
L 384.320455 699.72102 
L 397.002273 694.904788 
L 409.684091 690.314782 
L 422.365909 685.946029 
L 435.047727 681.802294 
L 447.729545 677.895951 
L 458.826136 674.688834 
L 469.922727 671.698418 
L 481.019318 668.948136 
L 490.530682 666.802276 
L 500.042045 664.871101 
L 509.553409 663.17361 
L 519.064773 661.728407 
L 526.990909 660.729229 
L 534.917045 659.925809 
L 542.843182 659.32508 
L 550.769318 658.931929 
L 558.695455 658.748912 
L 566.621591 658.776084 
L 574.547727 659.010973 
L 582.473864 659.448678 
L 590.4 660.08211 
L 599.911364 661.087882 
L 609.422727 662.344397 
L 618.934091 663.831587 
L 628.445455 665.528525 
L 639.542045 667.745634 
L 650.638636 670.188433 
L 663.320455 673.220001 
L 676.002273 676.472216 
L 690.269318 680.357656 
L 706.121591 684.919415 
L 721.973864 689.711422 
L 737.826136 694.720092 
L 753.678409 699.945523 
L 769.530682 705.400653 
L 783.797727 710.527585 
L 798.064773 715.889175 
L 810.746591 720.882497 
L 823.428409 726.125665 
L 834.525 730.95256 
L 845.621591 736.040783 
L 855.132955 740.644338 
L 864.644318 745.508508 
L 872.570455 749.792111 
L 880.496591 754.317342 
L 888.422727 759.121427 
L 894.763636 763.195886 
L 901.104545 767.50642 
L 907.445455 772.087461 
L 913.786364 776.981103 
L 918.542045 780.887417 
L 923.297727 785.025516 
L 928.053409 789.427686 
L 932.809091 794.133227 
L 937.564773 799.190637 
L 942.320455 804.660736 
L 945.490909 808.574229 
L 948.661364 812.733702 
L 951.831818 817.173571 
L 955.002273 821.935912 
L 958.172727 827.072919 
L 961.343182 832.65043 
L 964.513636 838.753144 
L 967.684091 845.492594 
L 970.854545 853.01983 
L 974.025 861.546629 
L 975.610227 866.276343 
L 977.195455 871.38315 
L 978.780682 876.932886 
L 980.365909 883.010247 
L 981.951136 889.726764 
L 983.536364 897.233487 
L 985.121591 905.742189 
L 986.706818 915.56303 
L 988.292045 927.176861 
L 989.877273 941.389248 
L 991.4625 959.710351 
L 993.047727 985.530541 
L 994.632955 1029.668217 
L 994.632955 1029.668217 
" clip-path="url(#p392ac7c706)" style="fill: none; stroke: #1f77b4; stroke-width: 1.5; stroke-linecap: square"/>
   </g>
   <g id="line2d_62">
    <path d="M 216.704886 1153 
L 219.456818 1137.043699 
L 222.627273 1120.157491 
L 225.797727 1104.578904 
L 228.968182 1090.110288 
L 232.138636 1076.594916 
L 235.309091 1063.906403 
L 238.479545 1051.941331 
L 241.65 1040.613987 
L 246.405682 1024.664637 
L 251.161364 1009.792861 
L 255.917045 995.84128 
L 260.672727 982.682801 
L 265.428409 970.213241 
L 270.184091 958.346069 
L 274.939773 947.008563 
L 279.695455 936.138966 
L 286.036364 922.283562 
L 292.377273 909.060346 
L 298.718182 896.380499 
L 305.059091 884.168892 
L 312.985227 869.465814 
L 320.911364 855.287921 
L 328.8375 841.545378 
L 338.348864 825.52254 
L 349.445455 807.338351 
L 360.542045 789.573692 
L 373.223864 769.668103 
L 385.905682 750.145867 
L 397.002273 733.459281 
L 404.928409 721.887108 
L 411.269318 712.941694 
L 417.610227 704.382181 
L 422.365909 698.289987 
L 427.121591 692.543084 
L 431.877273 687.201072 
L 436.632955 682.31944 
L 439.803409 679.343771 
L 442.973864 676.602878 
L 446.144318 674.102638 
L 449.314773 671.844716 
L 452.485227 669.826438 
L 455.655682 668.040953 
L 458.826136 666.477669 
L 461.996591 665.122891 
L 465.167045 663.960604 
L 468.3375 662.973289 
L 473.093182 661.78049 
L 477.848864 660.879392 
L 482.604545 660.212912 
L 488.945455 659.602718 
L 495.286364 659.221216 
L 504.797727 658.918298 
L 517.479545 658.772771 
L 547.598864 658.734581 
L 614.178409 658.832539 
L 625.275 659.05042 
L 633.201136 659.384149 
L 639.542045 659.83021 
L 645.882955 660.508292 
L 650.638636 661.219376 
L 655.394318 662.149258 
L 660.15 663.342185 
L 664.905682 664.843402 
L 668.076136 666.037015 
L 671.246591 667.398536 
L 674.417045 668.937919 
L 677.5875 670.663034 
L 680.757955 672.579268 
L 683.928409 674.689238 
L 687.098864 676.992655 
L 691.854545 680.802781 
L 696.610227 685.018513 
L 701.365909 689.606959 
L 706.121591 694.527681 
L 710.877273 699.73643 
L 717.218182 707.052536 
L 723.559091 714.702612 
L 731.485227 724.606463 
L 742.581818 738.885613 
L 756.848864 757.63622 
L 775.871591 782.999026 
L 793.309091 806.588323 
L 807.576136 826.261116 
L 818.672727 841.90803 
L 828.184091 855.642881 
L 837.695455 869.754097 
L 845.621591 881.862743 
L 853.547727 894.349896 
L 861.473864 907.28167 
L 867.814773 917.998412 
L 874.155682 929.094022 
L 880.496591 940.620629 
L 886.8375 952.638632 
L 893.178409 965.218723 
L 897.934091 975.072393 
L 902.689773 985.33012 
L 907.445455 996.039364 
L 912.201136 1007.255272 
L 916.956818 1019.042481 
L 921.7125 1031.477478 
L 926.468182 1044.651746 
L 931.223864 1058.676019 
L 935.979545 1073.686148 
L 939.15 1084.322484 
L 942.320455 1095.532012 
L 945.490909 1107.38648 
L 948.661364 1119.971514 
L 951.831818 1133.390453 
L 955.002273 1147.769606 
L 956.093649 1153 
L 956.093649 1153 
" clip-path="url(#p392ac7c706)" style="fill: none; stroke: #ff7f0e; stroke-width: 1.5; stroke-linecap: square"/>
   </g>
   <g id="line2d_63">
    <path d="M 293.943668 1153 
L 298.718182 1133.989955 
L 305.059091 1109.549678 
L 311.4 1085.910382 
L 319.326136 1057.315955 
L 327.252273 1029.603654 
L 336.763636 997.278391 
L 346.275 965.728151 
L 358.956818 924.479533 
L 384.320455 843.056389 
L 403.343182 781.562279 
L 416.025 740.666599 
L 422.365909 721.009286 
L 427.121591 707.1761 
L 430.292045 698.640944 
L 433.4625 690.835793 
L 436.632955 683.904927 
L 438.218182 680.802781 
L 439.803409 677.954692 
L 441.388636 675.364115 
L 442.973864 673.02984 
L 444.559091 670.9461 
L 446.144318 669.102986 
L 447.729545 667.487097 
L 449.314773 666.082358 
L 450.9 664.870899 
L 452.485227 663.833915 
L 454.070455 662.952431 
L 457.240909 661.582882 
L 460.411364 660.627395 
L 463.581818 659.973805 
L 466.752273 659.534385 
L 471.507955 659.138421 
L 477.848864 658.888793 
L 488.945455 658.758866 
L 523.820455 658.734552 
L 645.882955 658.838882 
L 653.809091 659.060848 
L 658.564773 659.35451 
L 663.320455 659.878157 
L 666.490909 660.426947 
L 669.661364 661.206015 
L 672.831818 662.293741 
L 676.002273 663.784163 
L 677.5875 664.713195 
L 679.172727 665.783118 
L 680.757955 667.007607 
L 682.343182 668.399738 
L 683.928409 669.971476 
L 685.513636 671.733155 
L 687.098864 673.692965 
L 688.684091 675.85653 
L 690.269318 678.226578 
L 693.439773 683.581744 
L 696.610227 689.720219 
L 699.780682 696.563429 
L 702.951136 704.006754 
L 706.121591 711.935648 
L 710.877273 724.499815 
L 717.218182 742.028538 
L 729.9 778.028644 
L 745.752273 822.81962 
L 760.019318 862.44899 
L 783.797727 927.692673 
L 802.820455 980.170541 
L 815.502273 1015.833205 
L 825.013636 1043.16712 
L 834.525 1071.174641 
L 842.451136 1095.152836 
L 850.377273 1119.831067 
L 858.303409 1145.336826 
L 860.62804 1153 
L 860.62804 1153 
" clip-path="url(#p392ac7c706)" style="fill: none; stroke: #2ca02c; stroke-width: 1.5; stroke-linecap: square"/>
   </g>
   <g id="line2d_64">
    <path d="M 184.581818 680.727273 
L 996.218182 680.727273 
" clip-path="url(#p392ac7c706)" style="fill: none; stroke-dasharray: 5.55,2.4; stroke-dashoffset: 0; stroke: #d62728; stroke-width: 1.5"/>
   </g>
   <g id="patch_9">
    <path d="M 144 1025.28 
L 144 622.08 
" style="fill: none; stroke: #000000; stroke-width: 0.8; stroke-linejoin: miter; stroke-linecap: square"/>
   </g>
   <g id="patch_10">
    <path d="M 1036.8 1025.28 
L 1036.8 622.08 
" style="fill: none; stroke: #000000; stroke-width: 0.8; stroke-linejoin: miter; stroke-linecap: square"/>
   </g>
   <g id="patch_11">
    <path d="M 144 1025.28 
L 1036.8 1025.28 
" style="fill: none; stroke: #000000; stroke-width: 0.8; stroke-linejoin: miter; stroke-linecap: square"/>
   </g>
   <g id="patch_12">
    <path d="M 144 622.08 
L 1036.8 622.08 
" style="fill: none; stroke: #000000; stroke-width: 0.8; stroke-linejoin: miter; stroke-linecap: square"/>
   </g>
   <g id="text_36">
    <!-- $\mathbf{-3dB}$ -->
    <g transform="translate(110.511364 683.486648)scale(0.1 -0.1)">
     <defs>
      <path id="DejaVuSans-Bold-2212" d="M 678 2375 
L 4684 2375 
L 4684 1638 
L 678 1638 
L 678 2375 
z
" transform="scale(0.015625)"/>
      <path id="DejaVuSans-Bold-33" d="M 2981 2516 
Q 3453 2394 3698 2092 
Q 3944 1791 3944 1325 
Q 3944 631 3412 270 
Q 2881 -91 1863 -91 
Q 1503 -91 1142 -33 
Q 781 25 428 141 
L 428 1069 
Q 766 900 1098 814 
Q 1431 728 1753 728 
Q 2231 728 2486 893 
Q 2741 1059 2741 1369 
Q 2741 1688 2480 1852 
Q 2219 2016 1709 2016 
L 1228 2016 
L 1228 2791 
L 1734 2791 
Q 2188 2791 2409 2933 
Q 2631 3075 2631 3366 
Q 2631 3634 2415 3781 
Q 2200 3928 1806 3928 
Q 1516 3928 1219 3862 
Q 922 3797 628 3669 
L 628 4550 
Q 984 4650 1334 4700 
Q 1684 4750 2022 4750 
Q 2931 4750 3382 4451 
Q 3834 4153 3834 3553 
Q 3834 3144 3618 2883 
Q 3403 2622 2981 2516 
z
" transform="scale(0.015625)"/>
      <path id="DejaVuSans-Bold-64" d="M 2919 2988 
L 2919 4863 
L 4044 4863 
L 4044 0 
L 2919 0 
L 2919 506 
Q 2688 197 2409 53 
Q 2131 -91 1766 -91 
Q 1119 -91 703 423 
Q 288 938 288 1747 
Q 288 2556 703 3070 
Q 1119 3584 1766 3584 
Q 2128 3584 2408 3439 
Q 2688 3294 2919 2988 
z
M 2181 722 
Q 2541 722 2730 984 
Q 2919 1247 2919 1747 
Q 2919 2247 2730 2509 
Q 2541 2772 2181 2772 
Q 1825 2772 1636 2509 
Q 1447 2247 1447 1747 
Q 1447 1247 1636 984 
Q 1825 722 2181 722 
z
" transform="scale(0.015625)"/>
      <path id="DejaVuSans-Bold-42" d="M 2456 2859 
Q 2741 2859 2887 2984 
Q 3034 3109 3034 3353 
Q 3034 3594 2887 3720 
Q 2741 3847 2456 3847 
L 1791 3847 
L 1791 2859 
L 2456 2859 
z
M 2497 819 
Q 2859 819 3042 972 
Q 3225 1125 3225 1434 
Q 3225 1738 3044 1889 
Q 2863 2041 2497 2041 
L 1791 2041 
L 1791 819 
L 2497 819 
z
M 3616 2497 
Q 4003 2384 4215 2081 
Q 4428 1778 4428 1338 
Q 4428 663 3972 331 
Q 3516 0 2584 0 
L 588 0 
L 588 4666 
L 2394 4666 
Q 3366 4666 3802 4372 
Q 4238 4078 4238 3431 
Q 4238 3091 4078 2852 
Q 3919 2613 3616 2497 
z
" transform="scale(0.015625)"/>
     </defs>
     <use xlink:href="#DejaVuSans-Bold-2212" transform="translate(0 0.015625)"/>
     <use xlink:href="#DejaVuSans-Bold-33" transform="translate(83.789062 0.015625)"/>
     <use xlink:href="#DejaVuSans-Bold-64" transform="translate(153.369141 0.015625)"/>
     <use xlink:href="#DejaVuSans-Bold-42" transform="translate(224.951172 0.015625)"/>
    </g>
   </g>
   <g id="legend_2">
    <g id="patch_13">
     <path d="M 541.830937 1018.28 
L 638.969062 1018.28 
Q 641.769062 1018.28 641.769062 1015.48 
L 641.769062 935.743438 
Q 641.769062 932.943438 638.969062 932.943438 
L 541.830937 932.943438 
Q 539.030937 932.943438 539.030937 935.743438 
L 539.030937 1015.48 
Q 539.030937 1018.28 541.830937 1018.28 
z
" style="fill: #ffffff; stroke: #cccccc; stroke-linejoin: miter"/>
    </g>
    <g id="line2d_65">
     <path d="M 544.630937 943.443438 
L 558.630937 943.443438 
L 572.630937 943.443438 
" style="fill: none; stroke: #1f77b4; stroke-width: 1.5; stroke-linecap: square"/>
    </g>
    <g id="text_37">
     <!-- ﻪﺒﺗﺮﻣ = 1 -->
     <g transform="translate(583.830938 948.343438)scale(0.14 -0.14)">
      <use xlink:href="#BNazanin-feea"/>
      <use xlink:href="#BNazanin-fe92" x="41.503906"/>
      <use xlink:href="#BNazanin-fe97" x="72.265625"/>
      <use xlink:href="#BNazanin-feae" x="93.408203"/>
      <use xlink:href="#BNazanin-fee3" x="131.005859"/>
      <use xlink:href="#BNazanin-20" x="163.330078"/>
      <use xlink:href="#BNazanin-3d" x="187.744141"/>
      <use xlink:href="#BNazanin-20" x="225.195312"/>
      <use xlink:href="#BNazanin-31" x="249.609375"/>
     </g>
    </g>
    <g id="line2d_66">
     <path d="M 544.630937 963.701875 
L 558.630937 963.701875 
L 572.630937 963.701875 
" style="fill: none; stroke: #ff7f0e; stroke-width: 1.5; stroke-linecap: square"/>
    </g>
    <g id="text_38">
     <!-- ﻪﺒﺗﺮﻣ = 3 -->
     <g transform="translate(583.830938 968.601875)scale(0.14 -0.14)">
      <use xlink:href="#BNazanin-feea"/>
      <use xlink:href="#BNazanin-fe92" x="41.503906"/>
      <use xlink:href="#BNazanin-fe97" x="72.265625"/>
      <use xlink:href="#BNazanin-feae" x="93.408203"/>
      <use xlink:href="#BNazanin-fee3" x="131.005859"/>
      <use xlink:href="#BNazanin-20" x="163.330078"/>
      <use xlink:href="#BNazanin-3d" x="187.744141"/>
      <use xlink:href="#BNazanin-20" x="225.195312"/>
      <use xlink:href="#BNazanin-33" x="249.609375"/>
     </g>
    </g>
    <g id="line2d_67">
     <path d="M 544.630937 983.960313 
L 558.630937 983.960313 
L 572.630937 983.960313 
" style="fill: none; stroke: #2ca02c; stroke-width: 1.5; stroke-linecap: square"/>
    </g>
    <g id="text_39">
     <!-- ﻪﺒﺗﺮﻣ = 6 -->
     <g transform="translate(583.830938 988.860313)scale(0.14 -0.14)">
      <use xlink:href="#BNazanin-feea"/>
      <use xlink:href="#BNazanin-fe92" x="41.503906"/>
      <use xlink:href="#BNazanin-fe97" x="72.265625"/>
      <use xlink:href="#BNazanin-feae" x="93.408203"/>
      <use xlink:href="#BNazanin-fee3" x="131.005859"/>
      <use xlink:href="#BNazanin-20" x="163.330078"/>
      <use xlink:href="#BNazanin-3d" x="187.744141"/>
      <use xlink:href="#BNazanin-20" x="225.195312"/>
      <use xlink:href="#BNazanin-36" x="249.609375"/>
     </g>
    </g>
    <g id="line2d_68">
     <path d="M 544.630937 1004.21875 
L 558.630937 1004.21875 
L 572.630937 1004.21875 
" style="fill: none; stroke-dasharray: 5.55,2.4; stroke-dashoffset: 0; stroke: #d62728; stroke-width: 1.5"/>
    </g>
    <g id="text_40">
     <!-- ﻦﯿﮔ ﻒﯿﻌﻀﺗ -->
     <g transform="translate(583.830938 1009.11875)scale(0.14 -0.14)">
      <use xlink:href="#BNazanin-fee6"/>
      <use xlink:href="#BNazanin-fbff" x="61.816406"/>
      <use xlink:href="#BNazanin-fb94" x="92.578125"/>
      <use xlink:href="#BNazanin-20" x="129.931641"/>
      <use xlink:href="#BNazanin-fed2" x="154.345703"/>
      <use xlink:href="#BNazanin-fbff" x="227.050781"/>
      <use xlink:href="#BNazanin-fecc" x="257.8125"/>
      <use xlink:href="#BNazanin-fec0" x="292.919922"/>
      <use xlink:href="#BNazanin-fe97" x="352.685547"/>
     </g>
    </g>
   </g>
  </g>
  <g id="text_41">
   <!-- ﺙﺭﻭﺮﺗﺎﺑ (ﺰﺗﺮﻫ 80 ﺎﺗ 40) ﺭﺬﮔﻥﺎﯿﻣ ﺮﺘﻠﯿﻓ -->
   <g style="fill: #2d1754" transform="translate(425.287109 107.163906)scale(0.25 -0.25)">
    <defs>
     <path id="BNazanin-fe99" d="M 4331 900 
Q 4331 456 4034 269 
Q 3834 144 3313 50 
Q 2738 -53 2069 -53 
Q 484 -53 484 816 
Q 484 1106 706 1425 
Q 750 1488 794 1488 
Q 838 1488 838 1431 
Q 838 1403 822 1366 
Q 734 1166 734 1006 
Q 734 416 2244 416 
Q 2978 416 3500 503 
Q 4078 600 4078 766 
Q 4078 866 3803 1234 
L 4000 1613 
Q 4034 1678 4075 1613 
Q 4331 1206 4331 900 
z
M 2716 2631 
L 2422 2341 
L 2128 2634 
L 2419 2925 
L 2716 2631 
z
M 3075 2006 
L 2781 1716 
L 2484 2009 
L 2778 2300 
L 3075 2006 
z
M 2363 2006 
L 2069 1716 
L 1772 2009 
L 2069 2300 
L 2363 2006 
z
" transform="scale(0.015625)"/>
     <path id="BNazanin-feed" d="M 2056 163 
Q 2056 -731 1441 -1369 
Q 1247 -1569 1194 -1569 
Q 853 -1569 416 -1500 
Q 263 -1475 263 -1453 
Q 263 -1428 425 -1381 
Q 909 -1241 1328 -881 
Q 1503 -731 1647 -528 
Q 1828 -275 1828 -103 
L 1828 28 
L 1306 9 
Q 753 -9 753 469 
Q 753 766 925 1106 
Q 1122 1494 1375 1494 
Q 1750 1494 1931 978 
Q 2056 622 2056 163 
z
M 1769 494 
Q 1769 688 1638 859 
Q 1497 1047 1309 1047 
Q 1184 1047 1092 953 
Q 1000 859 1000 734 
Q 1000 459 1394 459 
Q 1541 459 1769 494 
z
" transform="scale(0.015625)"/>
     <path id="BNazanin-fe91" d="M 1038 797 
Q 1038 3 247 3 
L -81 3 
L -81 466 
L 191 466 
Q 788 466 788 681 
Q 788 831 516 1178 
L 678 1572 
Q 703 1631 719 1631 
Q 734 1631 784 1559 
Q 1038 1188 1038 797 
z
M 909 -878 
L 584 -1203 
L 256 -875 
L 581 -550 
L 909 -878 
z
" transform="scale(0.015625)"/>
     <path id="BNazanin-38" d="M 234 456 
Q 381 638 519 863 
Q 841 1391 1034 2003 
Q 1178 2453 1291 3175 
Q 1363 3638 1456 3638 
Q 1534 3638 1609 3194 
Q 1728 2491 1894 1991 
Q 2225 997 2738 500 
L 2563 -3 
Q 2534 -81 2519 -81 
Q 2497 -72 2450 -19 
Q 2069 406 1753 1300 
Q 1484 2059 1453 2506 
Q 1391 1950 1184 1306 
Q 900 416 475 -56 
Q 431 -106 416 -109 
Q 400 -100 381 -38 
L 234 456 
z
" transform="scale(0.015625)"/>
     <path id="BNazanin-30" d="M 1975 1534 
L 1428 988 
L 888 1531 
L 1431 2075 
L 1975 1534 
z
" transform="scale(0.015625)"/>
     <path id="BNazanin-34" d="M 2666 2625 
Q 2666 2466 2434 2300 
Q 2178 2116 1859 2116 
Q 1491 2116 1266 2269 
Q 1397 2047 1503 1622 
Q 1625 1131 1625 666 
Q 1625 216 1619 150 
Q 1594 -106 1475 -106 
Q 1406 -106 1381 100 
Q 1363 263 1309 684 
Q 1253 1088 1078 1603 
Q 803 2416 331 3038 
L 628 3563 
Q 791 3322 1119 2913 
Q 1138 3259 1359 3484 
Q 1581 3709 1925 3709 
Q 2125 3709 2303 3588 
Q 2444 3491 2484 3397 
Q 2503 3350 2476 3326 
Q 2450 3303 2403 3319 
Q 2225 3375 1966 3375 
Q 1756 3375 1618 3258 
Q 1481 3141 1481 2934 
Q 1481 2900 1488 2875 
Q 1522 2734 1688 2647 
Q 1831 2572 1994 2566 
Q 2288 2556 2484 2672 
Q 2559 2716 2603 2716 
Q 2666 2716 2666 2625 
z
" transform="scale(0.015625)"/>
     <path id="BNazanin-feac" d="M 3116 3 
L 2938 3 
Q 2713 3 2556 147 
Q 2459 238 2322 466 
Q 2178 209 1988 106 
Q 1756 -22 1325 -22 
Q 484 -22 484 581 
Q 484 784 609 1000 
Q 650 1072 691 1072 
Q 728 1072 728 1009 
Q 728 975 718 908 
Q 709 841 709 806 
Q 709 447 1319 447 
Q 2178 447 2178 781 
Q 2178 963 1681 2084 
L 1859 2394 
Q 1894 2453 1906 2456 
Q 1925 2444 1953 2378 
Q 2153 1906 2500 953 
Q 2678 466 3003 466 
L 3116 466 
L 3116 3 
z
M 1922 3284 
L 1597 2959 
L 1269 3288 
L 1594 3613 
L 1922 3284 
z
" transform="scale(0.015625)"/>
     <path id="BNazanin-fee5" d="M 3453 59 
Q 3488 -150 3488 -291 
Q 3488 -516 3413 -728 
Q 3256 -1175 2709 -1422 
Q 2253 -1628 1716 -1628 
Q 1191 -1628 853 -1369 
Q 484 -1081 484 -569 
Q 484 -297 619 13 
Q 716 234 819 359 
Q 869 419 909 419 
Q 947 419 947 375 
Q 947 347 928 309 
Q 750 -56 750 -359 
Q 750 -656 947 -872 
Q 1206 -1156 1731 -1156 
Q 2325 -1156 2781 -944 
Q 3156 -769 3250 -563 
Q 3281 -494 3281 -391 
Q 3281 -231 3200 0 
Q 3131 194 2825 628 
L 2988 953 
Q 3025 1025 3044 1025 
Q 3063 1025 3100 966 
Q 3375 538 3453 59 
z
M 2275 1791 
L 1950 1466 
L 1622 1794 
L 1947 2119 
L 2275 1791 
z
" transform="scale(0.015625)"/>
     <path id="BNazanin-fee0" d="M 1559 3 
L 1397 3 
Q 878 3 681 384 
Q 628 213 438 103 
Q 266 3 72 3 
L -81 3 
L -81 466 
L 78 466 
Q 575 466 575 881 
L 575 2266 
Q 575 3056 541 3478 
L 881 3766 
L 881 1075 
Q 881 466 1400 466 
L 1559 466 
L 1559 3 
z
" transform="scale(0.015625)"/>
    </defs>
    <use xlink:href="#BNazanin-fe99"/>
    <use xlink:href="#BNazanin-fead" x="67.724609"/>
    <use xlink:href="#BNazanin-feed" x="99.316406"/>
    <use xlink:href="#BNazanin-feae" x="131.494141"/>
    <use xlink:href="#BNazanin-fe97" x="169.091797"/>
    <use xlink:href="#BNazanin-fe8e" x="190.234375"/>
    <use xlink:href="#BNazanin-fe91" x="213.671875"/>
    <use xlink:href="#BNazanin-20" x="229.931641"/>
    <use xlink:href="#BNazanin-28" x="254.345703"/>
    <use xlink:href="#BNazanin-feb0" x="282.470703"/>
    <use xlink:href="#BNazanin-fe97" x="320.068359"/>
    <use xlink:href="#BNazanin-feae" x="341.210938"/>
    <use xlink:href="#BNazanin-feeb" x="378.808594"/>
    <use xlink:href="#BNazanin-20" x="418.261719"/>
    <use xlink:href="#BNazanin-38" x="442.675781"/>
    <use xlink:href="#BNazanin-30" x="489.550781"/>
    <use xlink:href="#BNazanin-20" x="536.425781"/>
    <use xlink:href="#BNazanin-fe8e" x="560.839844"/>
    <use xlink:href="#BNazanin-fe97" x="584.277344"/>
    <use xlink:href="#BNazanin-20" x="605.419922"/>
    <use xlink:href="#BNazanin-34" x="629.833984"/>
    <use xlink:href="#BNazanin-30" x="676.708984"/>
    <use xlink:href="#BNazanin-29" x="723.583984"/>
    <use xlink:href="#BNazanin-20" x="751.708984"/>
    <use xlink:href="#BNazanin-fead" x="776.123047"/>
    <use xlink:href="#BNazanin-feac" x="807.714844"/>
    <use xlink:href="#BNazanin-fb94" x="855.126953"/>
    <use xlink:href="#BNazanin-fee5" x="892.480469"/>
    <use xlink:href="#BNazanin-fe8e" x="947.070312"/>
    <use xlink:href="#BNazanin-fbff" x="970.507812"/>
    <use xlink:href="#BNazanin-fee3" x="1001.269531"/>
    <use xlink:href="#BNazanin-20" x="1033.59375"/>
    <use xlink:href="#BNazanin-feae" x="1058.007812"/>
    <use xlink:href="#BNazanin-fe98" x="1095.605469"/>
    <use xlink:href="#BNazanin-fee0" x="1126.367188"/>
    <use xlink:href="#BNazanin-fbff" x="1149.462891"/>
    <use xlink:href="#BNazanin-fed3" x="1180.224609"/>
   </g>
  </g>
 </g>
 <defs>
  <clipPath id="p45da91d6b2">
   <rect x="144" y="138.24" width="892.8" height="403.2"/>
  </clipPath>
  <clipPath id="p392ac7c706">
   <rect x="144" y="622.08" width="892.8" height="403.2"/>
  </clipPath>
 </defs>
</svg>
