<?xml version="1.0" encoding="utf-8" standalone="no"?>
<!DOCTYPE svg PUBLIC "-//W3C//DTD SVG 1.1//EN"
  "http://www.w3.org/Graphics/SVG/1.1/DTD/svg11.dtd">
<svg xmlns:xlink="http://www.w3.org/1999/xlink" width="1152pt" height="1152pt" viewBox="0 0 1152 1152" xmlns="http://www.w3.org/2000/svg" version="1.1">
 <metadata>
  <rdf:RDF xmlns:dc="http://purl.org/dc/elements/1.1/" xmlns:cc="http://creativecommons.org/ns#" xmlns:rdf="http://www.w3.org/1999/02/22-rdf-syntax-ns#">
   <cc:Work>
    <dc:type rdf:resource="http://purl.org/dc/dcmitype/StillImage"/>
    <dc:date>2022-08-24T17:05:06.580812</dc:date>
    <dc:format>image/svg+xml</dc:format>
    <dc:creator>
     <cc:Agent>
      <dc:title>Matplotlib v3.5.3, https://matplotlib.org/</dc:title>
     </cc:Agent>
    </dc:creator>
   </cc:Work>
  </rdf:RDF>
 </metadata>
 <defs>
  <style type="text/css">*{stroke-linejoin: round; stroke-linecap: butt}</style>
 </defs>
 <g id="figure_1">
  <g id="patch_1">
   <path d="M 0 1152 
L 1152 1152 
L 1152 0 
L 0 0 
z
" style="fill: #ffffff"/>
  </g>
  <g id="axes_1">
   <g id="patch_2">
    <path d="M 144 541.44 
L 1036.8 541.44 
L 1036.8 138.24 
L 144 138.24 
z
" style="fill: #ffffff"/>
   </g>
   <g id="matplotlib.axis_1">
    <g id="xtick_1">
     <g id="line2d_1">
      <path d="M 184.581818 541.44 
L 184.581818 138.24 
" clip-path="url(#pd792803a65)" style="fill: none; stroke: #b0b0b0; stroke-width: 0.8; stroke-linecap: square"/>
     </g>
     <g id="line2d_2">
      <defs>
       <path id="mc349ae0bef" d="M 0 0 
L 0 3.5 
" style="stroke: #000000; stroke-width: 0.8"/>
      </defs>
      <g>
       <use xlink:href="#mc349ae0bef" x="184.581818" y="541.44" style="stroke: #000000; stroke-width: 0.8"/>
      </g>
     </g>
     <g id="text_1">
      <!-- 0 -->
      <g transform="translate(181.400568 556.038437)scale(0.1 -0.1)">
       <defs>
        <path id="DejaVuSans-30" d="M 2034 4250 
Q 1547 4250 1301 3770 
Q 1056 3291 1056 2328 
Q 1056 1369 1301 889 
Q 1547 409 2034 409 
Q 2525 409 2770 889 
Q 3016 1369 3016 2328 
Q 3016 3291 2770 3770 
Q 2525 4250 2034 4250 
z
M 2034 4750 
Q 2819 4750 3233 4129 
Q 3647 3509 3647 2328 
Q 3647 1150 3233 529 
Q 2819 -91 2034 -91 
Q 1250 -91 836 529 
Q 422 1150 422 2328 
Q 422 3509 836 4129 
Q 1250 4750 2034 4750 
z
" transform="scale(0.015625)"/>
       </defs>
       <use xlink:href="#DejaVuSans-30"/>
      </g>
     </g>
    </g>
    <g id="xtick_2">
     <g id="line2d_3">
      <path d="M 311.4 541.44 
L 311.4 138.24 
" clip-path="url(#pd792803a65)" style="fill: none; stroke: #b0b0b0; stroke-width: 0.8; stroke-linecap: square"/>
     </g>
     <g id="line2d_4">
      <g>
       <use xlink:href="#mc349ae0bef" x="311.4" y="541.44" style="stroke: #000000; stroke-width: 0.8"/>
      </g>
     </g>
     <g id="text_2">
      <!-- 20 -->
      <g transform="translate(305.0375 556.038437)scale(0.1 -0.1)">
       <defs>
        <path id="DejaVuSans-32" d="M 1228 531 
L 3431 531 
L 3431 0 
L 469 0 
L 469 531 
Q 828 903 1448 1529 
Q 2069 2156 2228 2338 
Q 2531 2678 2651 2914 
Q 2772 3150 2772 3378 
Q 2772 3750 2511 3984 
Q 2250 4219 1831 4219 
Q 1534 4219 1204 4116 
Q 875 4013 500 3803 
L 500 4441 
Q 881 4594 1212 4672 
Q 1544 4750 1819 4750 
Q 2544 4750 2975 4387 
Q 3406 4025 3406 3419 
Q 3406 3131 3298 2873 
Q 3191 2616 2906 2266 
Q 2828 2175 2409 1742 
Q 1991 1309 1228 531 
z
" transform="scale(0.015625)"/>
       </defs>
       <use xlink:href="#DejaVuSans-32"/>
       <use xlink:href="#DejaVuSans-30" x="63.623047"/>
      </g>
     </g>
    </g>
    <g id="xtick_3">
     <g id="line2d_5">
      <path d="M 438.218182 541.44 
L 438.218182 138.24 
" clip-path="url(#pd792803a65)" style="fill: none; stroke: #b0b0b0; stroke-width: 0.8; stroke-linecap: square"/>
     </g>
     <g id="line2d_6">
      <g>
       <use xlink:href="#mc349ae0bef" x="438.218182" y="541.44" style="stroke: #000000; stroke-width: 0.8"/>
      </g>
     </g>
     <g id="text_3">
      <!-- 40 -->
      <g transform="translate(431.855682 556.038437)scale(0.1 -0.1)">
       <defs>
        <path id="DejaVuSans-34" d="M 2419 4116 
L 825 1625 
L 2419 1625 
L 2419 4116 
z
M 2253 4666 
L 3047 4666 
L 3047 1625 
L 3713 1625 
L 3713 1100 
L 3047 1100 
L 3047 0 
L 2419 0 
L 2419 1100 
L 313 1100 
L 313 1709 
L 2253 4666 
z
" transform="scale(0.015625)"/>
       </defs>
       <use xlink:href="#DejaVuSans-34"/>
       <use xlink:href="#DejaVuSans-30" x="63.623047"/>
      </g>
     </g>
    </g>
    <g id="xtick_4">
     <g id="line2d_7">
      <path d="M 565.036364 541.44 
L 565.036364 138.24 
" clip-path="url(#pd792803a65)" style="fill: none; stroke: #b0b0b0; stroke-width: 0.8; stroke-linecap: square"/>
     </g>
     <g id="line2d_8">
      <g>
       <use xlink:href="#mc349ae0bef" x="565.036364" y="541.44" style="stroke: #000000; stroke-width: 0.8"/>
      </g>
     </g>
     <g id="text_4">
      <!-- 60 -->
      <g transform="translate(558.673864 556.038437)scale(0.1 -0.1)">
       <defs>
        <path id="DejaVuSans-36" d="M 2113 2584 
Q 1688 2584 1439 2293 
Q 1191 2003 1191 1497 
Q 1191 994 1439 701 
Q 1688 409 2113 409 
Q 2538 409 2786 701 
Q 3034 994 3034 1497 
Q 3034 2003 2786 2293 
Q 2538 2584 2113 2584 
z
M 3366 4563 
L 3366 3988 
Q 3128 4100 2886 4159 
Q 2644 4219 2406 4219 
Q 1781 4219 1451 3797 
Q 1122 3375 1075 2522 
Q 1259 2794 1537 2939 
Q 1816 3084 2150 3084 
Q 2853 3084 3261 2657 
Q 3669 2231 3669 1497 
Q 3669 778 3244 343 
Q 2819 -91 2113 -91 
Q 1303 -91 875 529 
Q 447 1150 447 2328 
Q 447 3434 972 4092 
Q 1497 4750 2381 4750 
Q 2619 4750 2861 4703 
Q 3103 4656 3366 4563 
z
" transform="scale(0.015625)"/>
       </defs>
       <use xlink:href="#DejaVuSans-36"/>
       <use xlink:href="#DejaVuSans-30" x="63.623047"/>
      </g>
     </g>
    </g>
    <g id="xtick_5">
     <g id="line2d_9">
      <path d="M 691.854545 541.44 
L 691.854545 138.24 
" clip-path="url(#pd792803a65)" style="fill: none; stroke: #b0b0b0; stroke-width: 0.8; stroke-linecap: square"/>
     </g>
     <g id="line2d_10">
      <g>
       <use xlink:href="#mc349ae0bef" x="691.854545" y="541.44" style="stroke: #000000; stroke-width: 0.8"/>
      </g>
     </g>
     <g id="text_5">
      <!-- 80 -->
      <g transform="translate(685.492045 556.038437)scale(0.1 -0.1)">
       <defs>
        <path id="DejaVuSans-38" d="M 2034 2216 
Q 1584 2216 1326 1975 
Q 1069 1734 1069 1313 
Q 1069 891 1326 650 
Q 1584 409 2034 409 
Q 2484 409 2743 651 
Q 3003 894 3003 1313 
Q 3003 1734 2745 1975 
Q 2488 2216 2034 2216 
z
M 1403 2484 
Q 997 2584 770 2862 
Q 544 3141 544 3541 
Q 544 4100 942 4425 
Q 1341 4750 2034 4750 
Q 2731 4750 3128 4425 
Q 3525 4100 3525 3541 
Q 3525 3141 3298 2862 
Q 3072 2584 2669 2484 
Q 3125 2378 3379 2068 
Q 3634 1759 3634 1313 
Q 3634 634 3220 271 
Q 2806 -91 2034 -91 
Q 1263 -91 848 271 
Q 434 634 434 1313 
Q 434 1759 690 2068 
Q 947 2378 1403 2484 
z
M 1172 3481 
Q 1172 3119 1398 2916 
Q 1625 2713 2034 2713 
Q 2441 2713 2670 2916 
Q 2900 3119 2900 3481 
Q 2900 3844 2670 4047 
Q 2441 4250 2034 4250 
Q 1625 4250 1398 4047 
Q 1172 3844 1172 3481 
z
" transform="scale(0.015625)"/>
       </defs>
       <use xlink:href="#DejaVuSans-38"/>
       <use xlink:href="#DejaVuSans-30" x="63.623047"/>
      </g>
     </g>
    </g>
    <g id="xtick_6">
     <g id="line2d_11">
      <path d="M 818.672727 541.44 
L 818.672727 138.24 
" clip-path="url(#pd792803a65)" style="fill: none; stroke: #b0b0b0; stroke-width: 0.8; stroke-linecap: square"/>
     </g>
     <g id="line2d_12">
      <g>
       <use xlink:href="#mc349ae0bef" x="818.672727" y="541.44" style="stroke: #000000; stroke-width: 0.8"/>
      </g>
     </g>
     <g id="text_6">
      <!-- 100 -->
      <g transform="translate(809.128977 556.038437)scale(0.1 -0.1)">
       <defs>
        <path id="DejaVuSans-31" d="M 794 531 
L 1825 531 
L 1825 4091 
L 703 3866 
L 703 4441 
L 1819 4666 
L 2450 4666 
L 2450 531 
L 3481 531 
L 3481 0 
L 794 0 
L 794 531 
z
" transform="scale(0.015625)"/>
       </defs>
       <use xlink:href="#DejaVuSans-31"/>
       <use xlink:href="#DejaVuSans-30" x="63.623047"/>
       <use xlink:href="#DejaVuSans-30" x="127.246094"/>
      </g>
     </g>
    </g>
    <g id="xtick_7">
     <g id="line2d_13">
      <path d="M 945.490909 541.44 
L 945.490909 138.24 
" clip-path="url(#pd792803a65)" style="fill: none; stroke: #b0b0b0; stroke-width: 0.8; stroke-linecap: square"/>
     </g>
     <g id="line2d_14">
      <g>
       <use xlink:href="#mc349ae0bef" x="945.490909" y="541.44" style="stroke: #000000; stroke-width: 0.8"/>
      </g>
     </g>
     <g id="text_7">
      <!-- 120 -->
      <g transform="translate(935.947159 556.038437)scale(0.1 -0.1)">
       <use xlink:href="#DejaVuSans-31"/>
       <use xlink:href="#DejaVuSans-32" x="63.623047"/>
       <use xlink:href="#DejaVuSans-30" x="127.246094"/>
      </g>
     </g>
    </g>
    <g id="text_8">
     <!-- (ﺰﺗﺮﻫ) ﺲﻧﺎﮐﺮﻓ -->
     <g transform="translate(563.350312 569.220625)scale(0.12 -0.12)">
      <defs>
       <path id="BNazanin-28" d="M 1791 3238 
Q 1747 3166 1569 2913 
Q 934 2009 934 1275 
Q 934 675 1256 81 
Q 1363 -116 1775 -675 
Q 1794 -700 1794 -728 
Q 1794 -800 1697 -800 
Q 1613 -800 1331 -525 
Q 991 -194 775 203 
Q 488 731 488 1259 
Q 488 1863 831 2422 
Q 1147 2931 1681 3297 
Q 1722 3325 1756 3309 
Q 1791 3294 1791 3238 
z
" transform="scale(0.015625)"/>
       <path id="BNazanin-feb0" d="M 2488 3 
L 2319 3 
Q 2100 3 1988 78 
Q 1994 16 1994 -47 
Q 1994 -609 1628 -1131 
Q 1313 -1581 1113 -1581 
Q 656 -1581 325 -1534 
Q 216 -1519 216 -1481 
Q 216 -1444 328 -1422 
Q 797 -1325 1272 -925 
Q 1778 -497 1778 -103 
Q 1778 159 1359 566 
L 1544 941 
Q 1566 988 1581 991 
Q 1600 984 1634 938 
Q 1819 694 1919 613 
Q 2106 466 2363 466 
L 2488 466 
L 2488 3 
z
M 1722 2113 
L 1397 1788 
L 1072 2116 
L 1397 2438 
L 1722 2113 
z
" transform="scale(0.015625)"/>
       <path id="BNazanin-fe97" d="M 1038 797 
Q 1038 3 247 3 
L -81 3 
L -81 466 
L 191 466 
Q 788 466 788 681 
Q 788 831 516 1178 
L 678 1572 
Q 703 1631 719 1631 
Q 734 1631 784 1559 
Q 1038 1188 1038 797 
z
M 1353 2547 
L 1044 2238 
L 731 2550 
L 1041 2856 
L 1353 2547 
z
M 666 2547 
L 359 2238 
L 47 2550 
L 356 2856 
L 666 2547 
z
" transform="scale(0.015625)"/>
       <path id="BNazanin-feae" d="M 2488 3 
L 2319 3 
Q 2100 3 1988 78 
Q 1994 16 1994 -47 
Q 1994 -609 1628 -1131 
Q 1313 -1581 1113 -1581 
Q 656 -1581 325 -1534 
Q 216 -1519 216 -1481 
Q 216 -1444 328 -1422 
Q 797 -1325 1272 -925 
Q 1778 -497 1778 -103 
Q 1778 159 1359 566 
L 1544 941 
Q 1566 988 1581 991 
Q 1600 984 1634 938 
Q 1819 694 1919 613 
Q 2106 466 2363 466 
L 2488 466 
L 2488 3 
z
" transform="scale(0.015625)"/>
       <path id="BNazanin-feeb" d="M 2522 819 
Q 2522 597 2372 350 
Q 2194 59 1953 59 
Q 1766 59 1097 334 
Q 575 3 138 3 
L -81 3 
L -81 466 
L 153 466 
Q 419 466 628 522 
Q 381 697 381 997 
Q 381 1384 903 1784 
L 638 1916 
Q 753 2031 981 2269 
Q 1544 1997 1934 1691 
Q 2522 1228 2522 819 
z
M 2309 663 
Q 2309 825 2063 1063 
Q 1863 1256 1697 1341 
Q 1697 866 1422 634 
Q 1916 472 2066 472 
Q 2309 472 2309 663 
z
M 1469 1134 
Q 1469 1288 1400 1416 
Q 1319 1569 1178 1569 
Q 1022 1569 844 1434 
Q 656 1294 656 1144 
Q 656 881 1091 753 
Q 1228 784 1341 888 
Q 1469 1003 1469 1134 
z
" transform="scale(0.015625)"/>
       <path id="BNazanin-29" d="M 488 -728 
Q 519 -672 709 -403 
Q 1347 497 1347 1238 
Q 1347 1841 1025 2428 
Q 919 2622 503 3184 
Q 484 3209 484 3238 
Q 484 3313 584 3313 
Q 669 3313 947 3038 
Q 1288 2700 1503 2306 
Q 1791 1778 1791 1250 
Q 1791 638 1450 88 
Q 1138 -419 597 -788 
Q 559 -813 525 -797 
Q 488 -781 488 -728 
z
" transform="scale(0.015625)"/>
       <path id="BNazanin-20" transform="scale(0.015625)"/>
       <path id="BNazanin-feb2" d="M 6116 3 
L 5897 3 
Q 5494 3 5328 331 
Q 5184 -13 4797 -13 
Q 4434 -13 4291 344 
Q 4094 -16 3725 -16 
Q 3588 -16 3428 34 
Q 3416 -325 3384 -728 
Q 3225 -1175 2697 -1419 
Q 2244 -1628 1716 -1628 
Q 1191 -1628 853 -1369 
Q 484 -1081 484 -569 
Q 484 -297 619 13 
Q 716 234 819 359 
Q 869 419 909 419 
Q 947 419 947 375 
Q 947 347 928 309 
Q 750 -56 750 -359 
Q 750 -656 947 -872 
Q 1206 -1156 1731 -1156 
Q 2325 -1156 2766 -944 
Q 3128 -769 3222 -563 
Q 3253 -494 3231 -297 
Q 3209 -97 3172 0 
Q 3100 188 2784 594 
L 2959 925 
Q 2997 997 3016 997 
Q 3031 997 3072 938 
Q 3238 688 3300 628 
Q 3469 463 3706 463 
Q 3972 463 4091 606 
Q 4169 700 4216 947 
Q 4238 1059 4288 1059 
Q 4338 1059 4350 959 
Q 4416 456 4784 456 
Q 5228 456 5278 931 
Q 5291 1050 5341 1050 
Q 5397 1050 5413 934 
Q 5475 466 5884 466 
L 6116 466 
L 6116 3 
z
" transform="scale(0.015625)"/>
       <path id="BNazanin-fee7" d="M 1038 797 
Q 1038 3 247 3 
L -81 3 
L -81 466 
L 191 466 
Q 788 466 788 681 
Q 788 831 516 1178 
L 678 1572 
Q 703 1631 719 1631 
Q 734 1631 784 1559 
Q 1038 1188 1038 797 
z
M 1006 2619 
L 681 2294 
L 356 2622 
L 681 2947 
L 1006 2619 
z
" transform="scale(0.015625)"/>
       <path id="BNazanin-fe8e" d="M 1584 3 
L 1313 3 
Q 866 3 694 369 
Q 572 625 575 1134 
L 578 1897 
Q 581 2450 484 3453 
L 731 3716 
Q 800 3788 813 3706 
Q 897 3184 897 2128 
L 897 963 
Q 897 466 1375 466 
L 1584 466 
L 1584 3 
z
" transform="scale(0.015625)"/>
       <path id="BNazanin-fb90" d="M 2559 3703 
Q 2544 3600 2406 3244 
L 1397 2928 
Q 719 2709 478 2566 
Q 953 2094 1122 1878 
Q 1444 1466 1478 1097 
Q 1506 800 1391 519 
Q 1181 3 134 3 
L -81 3 
L -81 466 
L 144 466 
Q 616 466 822 509 
Q 1253 600 1253 894 
Q 1253 1294 597 1888 
L 541 1800 
Q 478 1850 325 2050 
Q 159 2259 159 2306 
Q 159 2419 203 2609 
Q 253 2822 309 2888 
Q 347 2931 1134 3225 
Q 2019 3556 2559 3703 
z
" transform="scale(0.015625)"/>
       <path id="BNazanin-fed3" d="M 1631 1134 
L 1631 972 
Q 1631 578 1513 406 
Q 1234 3 481 3 
L -81 3 
L -81 466 
L 316 466 
Q 1341 466 1431 800 
Q 1441 834 1441 881 
Q 1441 975 1406 1034 
Q 1150 981 875 981 
Q 316 981 313 1447 
Q 309 1769 466 2078 
Q 653 2450 947 2450 
Q 1206 2450 1406 2116 
Q 1631 1738 1631 1134 
z
M 1328 1481 
Q 1328 1672 1195 1828 
Q 1063 1984 875 1984 
Q 741 1984 653 1900 
Q 566 1816 563 1684 
Q 559 1434 947 1428 
Q 1116 1425 1328 1481 
z
M 1166 3328 
L 844 3003 
L 516 3331 
L 841 3656 
L 1166 3328 
z
" transform="scale(0.015625)"/>
      </defs>
      <use xlink:href="#BNazanin-28"/>
      <use xlink:href="#BNazanin-feb0" x="28.125"/>
      <use xlink:href="#BNazanin-fe97" x="65.722656"/>
      <use xlink:href="#BNazanin-feae" x="86.865234"/>
      <use xlink:href="#BNazanin-feeb" x="124.462891"/>
      <use xlink:href="#BNazanin-29" x="163.916016"/>
      <use xlink:href="#BNazanin-20" x="192.041016"/>
      <use xlink:href="#BNazanin-feb2" x="216.455078"/>
      <use xlink:href="#BNazanin-fee7" x="310.742188"/>
      <use xlink:href="#BNazanin-fe8e" x="327.001953"/>
      <use xlink:href="#BNazanin-fb90" x="350.439453"/>
      <use xlink:href="#BNazanin-feae" x="387.792969"/>
      <use xlink:href="#BNazanin-fed3" x="425.390625"/>
     </g>
    </g>
   </g>
   <g id="matplotlib.axis_2">
    <g id="ytick_1">
     <g id="line2d_15">
      <path d="M 144 523.112727 
L 1036.8 523.112727 
" clip-path="url(#pd792803a65)" style="fill: none; stroke: #b0b0b0; stroke-width: 0.8; stroke-linecap: square"/>
     </g>
     <g id="line2d_16">
      <defs>
       <path id="mdd4aef9c23" d="M 0 0 
L -3.5 0 
" style="stroke: #000000; stroke-width: 0.8"/>
      </defs>
      <g>
       <use xlink:href="#mdd4aef9c23" x="144" y="523.112727" style="stroke: #000000; stroke-width: 0.8"/>
      </g>
     </g>
     <g id="text_9">
      <!-- 0.0 -->
      <g transform="translate(121.096875 526.911946)scale(0.1 -0.1)">
       <defs>
        <path id="DejaVuSans-2e" d="M 684 794 
L 1344 794 
L 1344 0 
L 684 0 
L 684 794 
z
" transform="scale(0.015625)"/>
       </defs>
       <use xlink:href="#DejaVuSans-30"/>
       <use xlink:href="#DejaVuSans-2e" x="63.623047"/>
       <use xlink:href="#DejaVuSans-30" x="95.410156"/>
      </g>
     </g>
    </g>
    <g id="ytick_2">
     <g id="line2d_17">
      <path d="M 144 449.803636 
L 1036.8 449.803636 
" clip-path="url(#pd792803a65)" style="fill: none; stroke: #b0b0b0; stroke-width: 0.8; stroke-linecap: square"/>
     </g>
     <g id="line2d_18">
      <g>
       <use xlink:href="#mdd4aef9c23" x="144" y="449.803636" style="stroke: #000000; stroke-width: 0.8"/>
      </g>
     </g>
     <g id="text_10">
      <!-- 0.2 -->
      <g transform="translate(121.096875 453.602855)scale(0.1 -0.1)">
       <use xlink:href="#DejaVuSans-30"/>
       <use xlink:href="#DejaVuSans-2e" x="63.623047"/>
       <use xlink:href="#DejaVuSans-32" x="95.410156"/>
      </g>
     </g>
    </g>
    <g id="ytick_3">
     <g id="line2d_19">
      <path d="M 144 376.494545 
L 1036.8 376.494545 
" clip-path="url(#pd792803a65)" style="fill: none; stroke: #b0b0b0; stroke-width: 0.8; stroke-linecap: square"/>
     </g>
     <g id="line2d_20">
      <g>
       <use xlink:href="#mdd4aef9c23" x="144" y="376.494545" style="stroke: #000000; stroke-width: 0.8"/>
      </g>
     </g>
     <g id="text_11">
      <!-- 0.4 -->
      <g transform="translate(121.096875 380.293764)scale(0.1 -0.1)">
       <use xlink:href="#DejaVuSans-30"/>
       <use xlink:href="#DejaVuSans-2e" x="63.623047"/>
       <use xlink:href="#DejaVuSans-34" x="95.410156"/>
      </g>
     </g>
    </g>
    <g id="ytick_4">
     <g id="line2d_21">
      <path d="M 144 303.185455 
L 1036.8 303.185455 
" clip-path="url(#pd792803a65)" style="fill: none; stroke: #b0b0b0; stroke-width: 0.8; stroke-linecap: square"/>
     </g>
     <g id="line2d_22">
      <g>
       <use xlink:href="#mdd4aef9c23" x="144" y="303.185455" style="stroke: #000000; stroke-width: 0.8"/>
      </g>
     </g>
     <g id="text_12">
      <!-- 0.6 -->
      <g transform="translate(121.096875 306.984673)scale(0.1 -0.1)">
       <use xlink:href="#DejaVuSans-30"/>
       <use xlink:href="#DejaVuSans-2e" x="63.623047"/>
       <use xlink:href="#DejaVuSans-36" x="95.410156"/>
      </g>
     </g>
    </g>
    <g id="ytick_5">
     <g id="line2d_23">
      <path d="M 144 229.876364 
L 1036.8 229.876364 
" clip-path="url(#pd792803a65)" style="fill: none; stroke: #b0b0b0; stroke-width: 0.8; stroke-linecap: square"/>
     </g>
     <g id="line2d_24">
      <g>
       <use xlink:href="#mdd4aef9c23" x="144" y="229.876364" style="stroke: #000000; stroke-width: 0.8"/>
      </g>
     </g>
     <g id="text_13">
      <!-- 0.8 -->
      <g transform="translate(121.096875 233.675582)scale(0.1 -0.1)">
       <use xlink:href="#DejaVuSans-30"/>
       <use xlink:href="#DejaVuSans-2e" x="63.623047"/>
       <use xlink:href="#DejaVuSans-38" x="95.410156"/>
      </g>
     </g>
    </g>
    <g id="ytick_6">
     <g id="line2d_25">
      <path d="M 144 156.567273 
L 1036.8 156.567273 
" clip-path="url(#pd792803a65)" style="fill: none; stroke: #b0b0b0; stroke-width: 0.8; stroke-linecap: square"/>
     </g>
     <g id="line2d_26">
      <g>
       <use xlink:href="#mdd4aef9c23" x="144" y="156.567273" style="stroke: #000000; stroke-width: 0.8"/>
      </g>
     </g>
     <g id="text_14">
      <!-- 1.0 -->
      <g transform="translate(121.096875 160.366491)scale(0.1 -0.1)">
       <use xlink:href="#DejaVuSans-31"/>
       <use xlink:href="#DejaVuSans-2e" x="63.623047"/>
       <use xlink:href="#DejaVuSans-30" x="95.410156"/>
      </g>
     </g>
    </g>
    <g id="text_15">
     <!-- ﻦﯿﮔ -->
     <g transform="translate(114.044375 347.63625)rotate(-90)scale(0.12 -0.12)">
      <defs>
       <path id="BNazanin-fee6" d="M 4041 3 
L 3841 3 
Q 3547 3 3453 59 
Q 3475 -103 3475 -275 
Q 3475 -550 3413 -728 
Q 3256 -1175 2709 -1422 
Q 2253 -1628 1716 -1628 
Q 1191 -1628 853 -1369 
Q 484 -1081 484 -569 
Q 484 -297 619 13 
Q 716 234 819 359 
Q 869 419 909 419 
Q 947 419 947 375 
Q 947 347 928 309 
Q 750 -56 750 -359 
Q 750 -656 947 -872 
Q 1206 -1156 1731 -1156 
Q 2325 -1156 2781 -944 
Q 3156 -769 3250 -563 
Q 3281 -497 3259 -297 
Q 3241 -103 3200 0 
Q 3122 200 2809 594 
L 2988 925 
Q 3025 997 3044 997 
Q 3063 997 3100 938 
Q 3406 466 3731 466 
L 4041 466 
L 4041 3 
z
M 2275 1791 
L 1950 1466 
L 1622 1794 
L 1947 2119 
L 2275 1791 
z
" transform="scale(0.015625)"/>
       <path id="BNazanin-fbff" d="M 2050 3 
L 1744 3 
Q 1191 3 1003 366 
Q 797 3 178 3 
L -81 3 
L -81 466 
L 275 466 
Q 859 466 913 919 
Q 934 1100 1003 1100 
Q 1072 1100 1091 913 
Q 1131 466 1697 466 
L 2050 466 
L 2050 3 
z
M 1419 -878 
L 1109 -1188 
L 797 -875 
L 1106 -566 
L 1419 -878 
z
M 731 -878 
L 425 -1188 
L 113 -875 
L 422 -566 
L 731 -878 
z
" transform="scale(0.015625)"/>
       <path id="BNazanin-fb94" d="M 2403 3841 
L 2322 3544 
L 363 2916 
L 447 3203 
L 2403 3841 
z
M 2488 3244 
Q 2472 3141 2363 2803 
Q 1638 2622 597 2266 
Q 1338 1559 1403 1091 
Q 1447 763 1328 500 
Q 1197 209 903 100 
Q 644 3 91 3 
L -81 3 
L -81 466 
L 56 466 
Q 1197 466 1197 859 
Q 1197 1178 572 1778 
L 519 1678 
Q 453 1731 303 1913 
Q 141 2109 141 2156 
Q 141 2359 291 2525 
Q 325 2563 1088 2816 
Q 1897 3084 2488 3244 
z
" transform="scale(0.015625)"/>
      </defs>
      <use xlink:href="#BNazanin-fee6"/>
      <use xlink:href="#BNazanin-fbff" x="61.816406"/>
      <use xlink:href="#BNazanin-fb94" x="92.578125"/>
     </g>
    </g>
   </g>
   <g id="line2d_27">
    <path d="M 184.581818 156.567273 
L 203.655273 156.678819 
L 222.728727 157.014063 
L 241.802182 157.574827 
L 260.469818 158.344957 
L 279.137455 159.338044 
L 297.399273 160.53026 
L 315.661091 161.946776 
L 333.517091 163.555508 
L 350.967273 165.348837 
L 368.011636 167.319461 
L 385.056 169.51523 
L 401.694545 171.885126 
L 417.927273 174.422347 
L 433.754182 177.119955 
L 449.175273 179.970772 
L 464.190545 182.967287 
L 479.205818 186.191822 
L 493.815273 189.558407 
L 508.018909 193.05843 
L 521.816727 196.682666 
L 535.614545 200.53802 
L 549.006545 204.511009 
L 561.992727 208.590588 
L 574.978909 212.903343 
L 587.559273 217.313054 
L 600.139636 221.960217 
L 612.314182 226.692541 
L 624.488727 231.664994 
L 636.257455 236.708353 
L 648.026182 241.992577 
L 659.794909 247.525794 
L 671.157818 253.112037 
L 682.520727 258.945049 
L 693.883636 265.031775 
L 705.246545 271.378887 
L 716.203636 277.75183 
L 727.160727 284.378025 
L 738.117818 291.262249 
L 749.074909 298.408704 
L 760.032 305.820913 
L 770.989091 313.501618 
L 781.946182 321.45267 
L 792.903273 329.674913 
L 803.860364 338.16808 
L 815.223273 347.260356 
L 826.586182 356.639191 
L 838.354909 366.649891 
L 850.123636 376.955389 
L 862.298182 387.916306 
L 874.878545 399.549402 
L 887.864727 411.866633 
L 901.256727 424.873917 
L 915.460364 438.976807 
L 930.881455 454.602902 
L 948.331636 472.612695 
L 969.028364 494.308518 
L 995.812364 522.681878 
L 995.812364 522.681878 
" clip-path="url(#pd792803a65)" style="fill: none; stroke: #1f77b4; stroke-width: 1.5; stroke-linecap: square"/>
   </g>
   <g id="line2d_28">
    <path d="M 184.581818 156.567273 
L 396.418909 156.677129 
L 436.189091 156.926093 
L 462.567273 157.301334 
L 482.858182 157.805543 
L 499.090909 158.422503 
L 512.888727 159.161668 
L 525.063273 160.035617 
L 535.614545 161.01091 
L 545.354182 162.136686 
L 553.876364 163.338584 
L 561.992727 164.708607 
L 569.297455 166.162497 
L 576.196364 167.758308 
L 582.689455 169.486243 
L 588.776727 171.331356 
L 594.458182 173.27353 
L 600.139636 175.451632 
L 605.415273 177.706826 
L 610.690909 180.207355 
L 615.560727 182.752037 
L 620.430545 185.541843 
L 625.300364 188.594688 
L 630.170182 191.928544 
L 634.634182 195.246583 
L 639.098182 198.828849 
L 643.562182 202.687831 
L 648.026182 206.834997 
L 652.490182 211.280455 
L 656.954182 216.032597 
L 661.418182 221.097732 
L 665.882182 226.479714 
L 670.752 232.713479 
L 675.621818 239.322607 
L 680.491636 246.299362 
L 685.767273 254.257318 
L 691.042909 262.608182 
L 696.724364 272.005609 
L 703.217455 283.199208 
L 710.522182 296.269919 
L 719.450182 312.740095 
L 751.104 371.626574 
L 758.408727 384.519359 
L 765.307636 396.24135 
L 771.394909 406.164155 
L 777.482182 415.656895 
L 783.163636 424.1064 
L 788.845091 432.145314 
L 794.120727 439.235123 
L 799.396364 445.961093 
L 804.672 452.323775 
L 809.947636 458.326478 
L 815.223273 463.974818 
L 820.498909 469.276304 
L 825.774545 474.239964 
L 831.050182 478.876015 
L 836.325818 483.195569 
L 841.601455 487.21039 
L 846.877091 490.932687 
L 852.152727 494.374933 
L 857.428364 497.549728 
L 862.704 500.469684 
L 867.979636 503.147332 
L 873.661091 505.774164 
L 879.342545 508.149529 
L 885.024 510.288296 
L 891.111273 512.333755 
L 897.198545 514.141609 
L 903.691636 515.827052 
L 910.184727 517.281082 
L 917.083636 518.593821 
L 924.388364 519.747208 
L 932.098909 520.728247 
L 940.215273 521.529772 
L 949.143273 522.175804 
L 958.882909 522.646763 
L 969.84 522.948822 
L 983.637818 523.094983 
L 995.812364 523.112727 
L 995.812364 523.112727 
" clip-path="url(#pd792803a65)" style="fill: none; stroke: #ff7f0e; stroke-width: 1.5; stroke-linecap: square"/>
   </g>
   <g id="line2d_29">
    <path d="M 184.581818 156.567273 
L 535.208727 156.676849 
L 559.557818 156.912065 
L 574.573091 157.260876 
L 585.530182 157.719443 
L 594.458182 158.307371 
L 601.762909 159.003687 
L 607.850182 159.790771 
L 613.531636 160.751014 
L 618.401455 161.796036 
L 622.865455 162.97831 
L 626.923636 164.279181 
L 630.576 165.668928 
L 634.228364 167.301861 
L 637.474909 168.989213 
L 640.721455 170.930676 
L 643.968 173.160358 
L 646.808727 175.376926 
L 649.649455 177.86931 
L 652.490182 180.665667 
L 655.330909 183.795245 
L 658.171636 187.287898 
L 661.012364 191.173442 
L 663.853091 195.48084 
L 666.693818 200.237225 
L 669.534545 205.466759 
L 672.375273 211.189369 
L 675.216 217.419408 
L 678.056727 224.164317 
L 681.303273 232.501895 
L 684.549818 241.494807 
L 687.796364 251.110098 
L 691.448727 262.607756 
L 695.506909 276.112394 
L 700.376727 293.101125 
L 708.087273 320.953439 
L 717.015273 353.035737 
L 722.290909 371.162168 
L 726.754909 385.7338 
L 730.813091 398.2565 
L 734.871273 410.024385 
L 738.523636 419.940591 
L 742.176 429.207102 
L 745.828364 437.826794 
L 749.074909 444.955849 
L 752.321455 451.597795 
L 755.568 457.77015 
L 758.814545 463.492952 
L 762.061091 468.787925 
L 765.307636 473.677784 
L 768.554182 478.185683 
L 771.800727 482.334776 
L 775.047273 486.14789 
L 778.293818 489.647262 
L 781.540364 492.854369 
L 785.192727 496.138611 
L 788.845091 499.106816 
L 792.497455 501.785186 
L 796.149818 504.198262 
L 800.208 506.596095 
L 804.266182 508.723692 
L 808.324364 510.607762 
L 812.788364 512.428107 
L 817.252364 514.012986 
L 822.122182 515.504781 
L 827.397818 516.87665 
L 833.079273 518.109095 
L 839.166545 519.190135 
L 845.659636 520.115057 
L 852.964364 520.925267 
L 861.080727 521.597934 
L 870.414545 522.145132 
L 881.777455 522.575809 
L 895.981091 522.875878 
L 915.866182 523.051573 
L 952.795636 523.111256 
L 995.812364 523.112727 
L 995.812364 523.112727 
" clip-path="url(#pd792803a65)" style="fill: none; stroke: #2ca02c; stroke-width: 1.5; stroke-linecap: square"/>
   </g>
   <g id="line2d_30">
    <path d="M 184.581818 263.925951 
L 996.218182 263.925951 
" clip-path="url(#pd792803a65)" style="fill: none; stroke-dasharray: 5.55,2.4; stroke-dashoffset: 0; stroke: #d62728; stroke-width: 1.5"/>
   </g>
   <g id="line2d_31">
    <path d="M 184.581818 156.567273 
L 691.448727 156.567273 
L 691.854545 523.112727 
L 995.812364 523.112727 
L 995.812364 523.112727 
" clip-path="url(#pd792803a65)" style="fill: none; stroke-dasharray: 5.55,2.4; stroke-dashoffset: 0; stroke: #000000; stroke-width: 1.5"/>
   </g>
   <g id="patch_3">
    <path d="M 144 541.44 
L 144 138.24 
" style="fill: none; stroke: #000000; stroke-width: 0.8; stroke-linejoin: miter; stroke-linecap: square"/>
   </g>
   <g id="patch_4">
    <path d="M 1036.8 541.44 
L 1036.8 138.24 
" style="fill: none; stroke: #000000; stroke-width: 0.8; stroke-linejoin: miter; stroke-linecap: square"/>
   </g>
   <g id="patch_5">
    <path d="M 144 541.44 
L 1036.8 541.44 
" style="fill: none; stroke: #000000; stroke-width: 0.8; stroke-linejoin: miter; stroke-linecap: square"/>
   </g>
   <g id="patch_6">
    <path d="M 144 138.24 
L 1036.8 138.24 
" style="fill: none; stroke: #000000; stroke-width: 0.8; stroke-linejoin: miter; stroke-linecap: square"/>
   </g>
   <g id="text_16">
    <!-- $\mathbf{= f_c}$ -->
    <g transform="translate(678.954545 594.234886)scale(0.12 -0.12)">
     <defs>
      <path id="DejaVuSans-Bold-3d" d="M 678 3084 
L 4684 3084 
L 4684 2350 
L 678 2350 
L 678 3084 
z
M 678 1663 
L 4684 1663 
L 4684 922 
L 678 922 
L 678 1663 
z
" transform="scale(0.015625)"/>
      <path id="DejaVuSans-Bold-66" d="M 2841 4863 
L 2841 4128 
L 2222 4128 
Q 1984 4128 1890 4042 
Q 1797 3956 1797 3744 
L 1797 3500 
L 2753 3500 
L 2753 2700 
L 1797 2700 
L 1797 0 
L 678 0 
L 678 2700 
L 122 2700 
L 122 3500 
L 678 3500 
L 678 3744 
Q 678 4316 997 4589 
Q 1316 4863 1984 4863 
L 2841 4863 
z
" transform="scale(0.015625)"/>
      <path id="DejaVuSans-Bold-63" d="M 3366 3391 
L 3366 2478 
Q 3138 2634 2908 2709 
Q 2678 2784 2431 2784 
Q 1963 2784 1702 2511 
Q 1441 2238 1441 1747 
Q 1441 1256 1702 982 
Q 1963 709 2431 709 
Q 2694 709 2930 787 
Q 3166 866 3366 1019 
L 3366 103 
Q 3103 6 2833 -42 
Q 2563 -91 2291 -91 
Q 1344 -91 809 395 
Q 275 881 275 1747 
Q 275 2613 809 3098 
Q 1344 3584 2291 3584 
Q 2566 3584 2833 3536 
Q 3100 3488 3366 3391 
z
" transform="scale(0.015625)"/>
     </defs>
     <use xlink:href="#DejaVuSans-Bold-3d" transform="translate(20.839844 0.015625)"/>
     <use xlink:href="#DejaVuSans-Bold-66" transform="translate(125.46875 0.015625)"/>
     <use xlink:href="#DejaVuSans-Bold-63" transform="translate(169.931641 -16.390625)scale(0.7)"/>
    </g>
   </g>
   <g id="text_17">
    <!-- $\mathbf{\sqrt{0.5}}$ -->
    <g transform="translate(112.411364 267.546263)scale(0.1 -0.1)">
     <defs>
      <path id="STIXSizeOneSym-Regular-221a" d="M 6970 9933 
L 3373 -1888 
L 3104 -1888 
L 1626 2918 
Q 1555 3149 1465 3251 
Q 1376 3354 1229 3354 
Q 1011 3354 794 3181 
L 717 3309 
L 1766 4115 
L 1926 4115 
L 3379 -602 
L 3405 -602 
L 6605 9933 
L 6970 9933 
z
" transform="scale(0.015625)"/>
      <path id="DejaVuSans-Bold-30" d="M 2944 2338 
Q 2944 3213 2780 3570 
Q 2616 3928 2228 3928 
Q 1841 3928 1675 3570 
Q 1509 3213 1509 2338 
Q 1509 1453 1675 1090 
Q 1841 728 2228 728 
Q 2613 728 2778 1090 
Q 2944 1453 2944 2338 
z
M 4147 2328 
Q 4147 1169 3647 539 
Q 3147 -91 2228 -91 
Q 1306 -91 806 539 
Q 306 1169 306 2328 
Q 306 3491 806 4120 
Q 1306 4750 2228 4750 
Q 3147 4750 3647 4120 
Q 4147 3491 4147 2328 
z
" transform="scale(0.015625)"/>
      <path id="DejaVuSans-Bold-2e" d="M 653 1209 
L 1778 1209 
L 1778 0 
L 653 0 
L 653 1209 
z
" transform="scale(0.015625)"/>
      <path id="DejaVuSans-Bold-35" d="M 678 4666 
L 3669 4666 
L 3669 3781 
L 1638 3781 
L 1638 3059 
Q 1775 3097 1914 3117 
Q 2053 3138 2203 3138 
Q 3056 3138 3531 2711 
Q 4006 2284 4006 1522 
Q 4006 766 3489 337 
Q 2972 -91 2053 -91 
Q 1656 -91 1267 -14 
Q 878 63 494 219 
L 494 1166 
Q 875 947 1217 837 
Q 1559 728 1863 728 
Q 2300 728 2551 942 
Q 2803 1156 2803 1522 
Q 2803 1891 2551 2103 
Q 2300 2316 1863 2316 
Q 1603 2316 1309 2248 
Q 1016 2181 678 2041 
L 678 4666 
z
" transform="scale(0.015625)"/>
     </defs>
     <use xlink:href="#STIXSizeOneSym-Regular-221a" transform="translate(0 15.984375)scale(0.578716)"/>
     <use xlink:href="#DejaVuSans-Bold-30" transform="translate(73.673874 0.53125)"/>
     <use xlink:href="#DejaVuSans-Bold-2e" transform="translate(143.253952 0.53125)"/>
     <use xlink:href="#DejaVuSans-Bold-35" transform="translate(181.242233 0.53125)"/>
     <path d="M 61.173874 99.5 
L 61.173874 105.75 
L 263.322311 105.75 
L 263.322311 99.5 
L 61.173874 99.5 
z
"/>
    </g>
   </g>
   <g id="legend_1">
    <g id="patch_7">
     <path d="M 929.861875 250.835 
L 1027 250.835 
Q 1029.8 250.835 1029.8 248.035 
L 1029.8 148.04 
Q 1029.8 145.24 1027 145.24 
L 929.861875 145.24 
Q 927.061875 145.24 927.061875 148.04 
L 927.061875 248.035 
Q 927.061875 250.835 929.861875 250.835 
z
" style="fill: #ffffff; stroke: #cccccc; stroke-linejoin: miter"/>
    </g>
    <g id="line2d_32">
     <path d="M 932.661875 155.74 
L 946.661875 155.74 
L 960.661875 155.74 
" style="fill: none; stroke: #1f77b4; stroke-width: 1.5; stroke-linecap: square"/>
    </g>
    <g id="text_18">
     <!-- ﻪﺒﺗﺮﻣ = 1 -->
     <g transform="translate(971.861875 160.64)scale(0.14 -0.14)">
      <defs>
       <path id="BNazanin-feea" d="M 2738 3 
L 2441 3 
Q 1928 3 1791 641 
Q 1509 363 1466 363 
L 1113 363 
Q 925 363 741 419 
Q 484 497 484 638 
Q 484 1088 803 1369 
Q 1016 1556 1538 1763 
L 1459 2147 
L 1728 2450 
Q 1744 2400 2000 1141 
Q 2078 756 2144 641 
Q 2244 466 2459 466 
L 2738 466 
L 2738 3 
z
M 1741 819 
L 1606 1453 
Q 1403 1394 1122 1256 
Q 738 1069 738 959 
Q 738 869 1031 819 
Q 1238 784 1397 784 
Q 1594 784 1741 819 
z
" transform="scale(0.015625)"/>
       <path id="BNazanin-fe92" d="M 2050 3 
L 1744 3 
Q 1191 3 1003 366 
Q 797 3 178 3 
L -81 3 
L -81 466 
L 275 466 
Q 859 466 913 919 
Q 934 1100 1003 1100 
Q 1072 1100 1091 913 
Q 1131 466 1697 466 
L 2050 466 
L 2050 3 
z
M 1184 -878 
L 859 -1203 
L 531 -875 
L 856 -550 
L 1184 -878 
z
" transform="scale(0.015625)"/>
       <path id="BNazanin-fee3" d="M 2066 797 
Q 2091 500 1997 297 
Q 1853 -13 1678 -13 
Q 1359 -13 772 397 
Q 591 181 519 125 
Q 363 3 134 3 
L -81 3 
L -81 466 
L 203 466 
Q 472 466 675 741 
Q 775 884 1034 1250 
Q 1231 1525 1438 1525 
Q 1728 1525 1913 1231 
Q 2047 1016 2066 797 
z
M 1828 503 
Q 1828 678 1697 884 
Q 1550 1116 1375 1116 
Q 1197 1116 956 750 
Q 1056 641 1322 520 
Q 1588 400 1734 400 
Q 1828 400 1828 503 
z
" transform="scale(0.015625)"/>
       <path id="BNazanin-3d" d="M 2209 1425 
L 172 1425 
L 172 1666 
L 2209 1666 
L 2209 1425 
z
M 2209 656 
L 172 656 
L 172 894 
L 2209 894 
L 2209 656 
z
" transform="scale(0.015625)"/>
       <path id="BNazanin-31" d="M 1988 775 
Q 1988 -103 1794 -103 
Q 1700 -103 1681 219 
Q 1681 419 1681 619 
Q 1666 1022 1531 1525 
Q 1291 2425 859 3084 
L 1178 3584 
Q 1491 3125 1722 2388 
Q 1988 1541 1988 775 
z
" transform="scale(0.015625)"/>
      </defs>
      <use xlink:href="#BNazanin-feea"/>
      <use xlink:href="#BNazanin-fe92" x="41.503906"/>
      <use xlink:href="#BNazanin-fe97" x="72.265625"/>
      <use xlink:href="#BNazanin-feae" x="93.408203"/>
      <use xlink:href="#BNazanin-fee3" x="131.005859"/>
      <use xlink:href="#BNazanin-20" x="163.330078"/>
      <use xlink:href="#BNazanin-3d" x="187.744141"/>
      <use xlink:href="#BNazanin-20" x="225.195312"/>
      <use xlink:href="#BNazanin-31" x="249.609375"/>
     </g>
    </g>
    <g id="line2d_33">
     <path d="M 932.661875 175.998438 
L 946.661875 175.998438 
L 960.661875 175.998438 
" style="fill: none; stroke: #ff7f0e; stroke-width: 1.5; stroke-linecap: square"/>
    </g>
    <g id="text_19">
     <!-- ﻪﺒﺗﺮﻣ = 3 -->
     <g transform="translate(971.861875 180.898438)scale(0.14 -0.14)">
      <defs>
       <path id="BNazanin-33" d="M 2738 3441 
Q 2738 2494 2147 2494 
Q 2028 2494 1901 2566 
Q 1775 2638 1722 2741 
Q 1675 2597 1519 2506 
Q 1375 2425 1213 2425 
Q 1125 2425 1050 2450 
Q 1184 2203 1309 1722 
Q 1459 1144 1459 666 
Q 1459 216 1453 150 
Q 1428 -106 1309 -106 
Q 1244 -106 1194 253 
Q 1169 469 1144 684 
Q 1084 1100 913 1603 
Q 628 2431 166 3038 
L 463 3563 
Q 750 3150 759 3144 
Q 938 2950 1191 2950 
Q 1400 2950 1506 3125 
Q 1556 3209 1628 3466 
Q 1663 3591 1731 3591 
Q 1809 3591 1828 3425 
Q 1850 3222 1903 3138 
Q 1988 3003 2184 3003 
Q 2378 3003 2463 3166 
Q 2497 3231 2547 3453 
Q 2581 3603 2663 3603 
Q 2738 3603 2738 3441 
z
" transform="scale(0.015625)"/>
      </defs>
      <use xlink:href="#BNazanin-feea"/>
      <use xlink:href="#BNazanin-fe92" x="41.503906"/>
      <use xlink:href="#BNazanin-fe97" x="72.265625"/>
      <use xlink:href="#BNazanin-feae" x="93.408203"/>
      <use xlink:href="#BNazanin-fee3" x="131.005859"/>
      <use xlink:href="#BNazanin-20" x="163.330078"/>
      <use xlink:href="#BNazanin-3d" x="187.744141"/>
      <use xlink:href="#BNazanin-20" x="225.195312"/>
      <use xlink:href="#BNazanin-33" x="249.609375"/>
     </g>
    </g>
    <g id="line2d_34">
     <path d="M 932.661875 196.256875 
L 946.661875 196.256875 
L 960.661875 196.256875 
" style="fill: none; stroke: #2ca02c; stroke-width: 1.5; stroke-linecap: square"/>
    </g>
    <g id="text_20">
     <!-- ﻪﺒﺗﺮﻣ = 6 -->
     <g transform="translate(971.861875 201.156875)scale(0.14 -0.14)">
      <defs>
       <path id="BNazanin-36" d="M 2575 2534 
L 2363 1925 
Q 1091 1500 419 -6 
Q 375 -103 322 -103 
Q 250 -103 263 16 
Q 306 428 566 959 
Q 800 1438 1116 1722 
Q 384 1816 384 2422 
Q 384 2719 744 3138 
Q 1141 3600 1509 3600 
Q 1703 3600 1906 3469 
Q 2125 3325 2156 3144 
Q 2166 3097 2136 3070 
Q 2106 3044 2059 3056 
Q 1756 3138 1500 3138 
Q 1250 3138 1031 2997 
Q 784 2838 784 2600 
Q 784 2203 1472 2203 
Q 1650 2203 1966 2350 
Q 2066 2397 2456 2588 
Q 2531 2625 2563 2606 
Q 2594 2588 2575 2534 
z
" transform="scale(0.015625)"/>
      </defs>
      <use xlink:href="#BNazanin-feea"/>
      <use xlink:href="#BNazanin-fe92" x="41.503906"/>
      <use xlink:href="#BNazanin-fe97" x="72.265625"/>
      <use xlink:href="#BNazanin-feae" x="93.408203"/>
      <use xlink:href="#BNazanin-fee3" x="131.005859"/>
      <use xlink:href="#BNazanin-20" x="163.330078"/>
      <use xlink:href="#BNazanin-3d" x="187.744141"/>
      <use xlink:href="#BNazanin-20" x="225.195312"/>
      <use xlink:href="#BNazanin-36" x="249.609375"/>
     </g>
    </g>
    <g id="line2d_35">
     <path d="M 932.661875 216.515313 
L 946.661875 216.515313 
L 960.661875 216.515313 
" style="fill: none; stroke-dasharray: 5.55,2.4; stroke-dashoffset: 0; stroke: #d62728; stroke-width: 1.5"/>
    </g>
    <g id="text_21">
     <!-- ﻦﯿﮔ ﻒﯿﻌﻀﺗ -->
     <g transform="translate(971.861875 221.415313)scale(0.14 -0.14)">
      <defs>
       <path id="BNazanin-fed2" d="M 4734 3 
L 4481 3 
Q 4119 3 3678 244 
Q 3478 159 3363 119 
Q 2791 -78 1894 -78 
Q 1281 -78 975 41 
Q 484 231 484 731 
Q 484 1134 703 1453 
Q 747 1519 794 1519 
Q 825 1519 828 1466 
Q 828 1438 813 1391 
Q 722 1141 722 1006 
Q 716 584 1250 450 
Q 1513 384 2116 384 
Q 2616 384 2888 428 
Q 3044 453 3244 522 
Q 3041 713 3038 1028 
Q 3034 1306 3247 1619 
Q 3475 1956 3738 1959 
Q 4025 1963 4178 1669 
Q 4300 1438 4300 1119 
Q 4300 753 4044 544 
Q 4188 466 4556 466 
L 4734 466 
L 4734 3 
z
M 4084 1031 
Q 4084 1156 3953 1323 
Q 3822 1491 3700 1491 
Q 3578 1491 3420 1341 
Q 3263 1191 3259 1069 
Q 3253 828 3706 644 
Q 4084 800 4084 1031 
z
M 3866 2997 
L 3541 2672 
L 3213 3000 
L 3538 3325 
L 3866 2997 
z
" transform="scale(0.015625)"/>
       <path id="BNazanin-fecc" d="M 2328 3 
L 2078 3 
Q 1481 3 1172 397 
Q 813 3 244 3 
L -81 3 
L -81 466 
L 313 466 
Q 716 466 909 628 
Q 872 734 763 863 
Q 644 1003 550 1028 
Q 422 1063 422 1113 
Q 422 1141 450 1206 
Q 609 1581 1134 1581 
Q 1800 1581 1800 1166 
Q 1800 981 1434 663 
Q 1522 572 1725 513 
Q 1888 466 2009 466 
L 2328 466 
L 2328 3 
z
" transform="scale(0.015625)"/>
       <path id="BNazanin-fec0" d="M 3906 3 
L 3591 3 
Q 3178 3 2716 138 
Q 2303 6 1666 6 
Q 1256 6 1084 50 
Q 794 125 672 369 
Q 453 3 84 3 
L -81 3 
L -81 466 
L 81 466 
Q 534 466 616 925 
Q 634 1038 691 1038 
Q 747 1038 759 925 
Q 806 503 1144 484 
Q 2256 1681 2906 1681 
Q 3184 1681 3372 1513 
Q 3569 1334 3569 1063 
Q 3569 694 3303 431 
Q 3375 431 3520 448 
Q 3666 466 3738 466 
L 3906 466 
L 3906 3 
z
M 3278 831 
Q 3278 1009 3078 1134 
Q 2903 1244 2716 1244 
Q 2153 1244 1422 484 
Q 1591 475 1763 475 
Q 2159 475 2597 538 
Q 3278 634 3278 831 
z
M 2659 2800 
L 2334 2475 
L 2006 2803 
L 2331 3128 
L 2659 2800 
z
" transform="scale(0.015625)"/>
      </defs>
      <use xlink:href="#BNazanin-fee6"/>
      <use xlink:href="#BNazanin-fbff" x="61.816406"/>
      <use xlink:href="#BNazanin-fb94" x="92.578125"/>
      <use xlink:href="#BNazanin-20" x="129.931641"/>
      <use xlink:href="#BNazanin-fed2" x="154.345703"/>
      <use xlink:href="#BNazanin-fbff" x="227.050781"/>
      <use xlink:href="#BNazanin-fecc" x="257.8125"/>
      <use xlink:href="#BNazanin-fec0" x="292.919922"/>
      <use xlink:href="#BNazanin-fe97" x="352.685547"/>
     </g>
    </g>
    <g id="line2d_36">
     <path d="M 932.661875 236.876563 
L 946.661875 236.876563 
L 960.661875 236.876563 
" style="fill: none; stroke-dasharray: 5.55,2.4; stroke-dashoffset: 0; stroke: #000000; stroke-width: 1.5"/>
    </g>
    <g id="text_22">
     <!-- ﻝﺁﻩﺪﯾﺍ ﺮﺘﻠﯿﻓ -->
     <g transform="translate(971.861875 241.776563)scale(0.14 -0.14)">
      <defs>
       <path id="BNazanin-fedd" d="M 3419 3150 
Q 3447 3084 3438 3075 
Q 3431 3063 3363 3063 
L 3228 3063 
Q 3353 753 3309 -144 
Q 3241 -1559 1656 -1559 
Q 1144 -1559 838 -1344 
Q 484 -1097 484 -603 
Q 484 -103 759 284 
Q 794 331 831 331 
Q 881 331 881 272 
Q 881 247 869 216 
Q 738 -113 738 -334 
Q 738 -713 1016 -919 
Q 1263 -1103 1653 -1103 
Q 2231 -1103 2650 -888 
Q 3022 -697 3022 -494 
Q 3022 2106 2847 3406 
L 3125 3663 
Q 3175 3709 3191 3713 
Q 3206 3703 3225 3641 
Q 3275 3481 3419 3150 
z
" transform="scale(0.015625)"/>
       <path id="BNazanin-fe81" d="M 1350 497 
Q 1350 259 1247 50 
Q 1188 -72 1166 -72 
Q 1141 -72 1141 81 
Q 1141 775 897 3469 
L 1228 3778 
Q 1272 3819 1288 3822 
Q 1303 3822 1306 3753 
Q 1350 2994 1350 497 
z
M 1609 4284 
Q 1350 4072 966 4072 
Q 909 4072 796 4086 
Q 684 4100 628 4100 
Q 591 4100 520 4012 
Q 450 3925 422 3925 
Q 369 3925 369 4000 
Q 369 4050 438 4203 
Q 513 4372 569 4372 
Q 647 4372 801 4345 
Q 956 4319 1034 4319 
Q 1378 4319 1547 4366 
Q 1638 4391 1666 4391 
Q 1691 4391 1691 4375 
Q 1691 4350 1609 4284 
z
" transform="scale(0.015625)"/>
       <path id="BNazanin-fee9" d="M 2000 844 
Q 2000 434 1747 206 
Q 1503 -9 1091 -9 
Q 838 -9 666 144 
Q 484 303 484 553 
Q 484 831 722 1244 
Q 928 1600 1178 1850 
Q 2000 1422 2000 844 
z
M 1772 681 
Q 1772 847 1506 1097 
Q 1269 1319 1084 1388 
Q 772 991 772 753 
Q 772 613 919 525 
Q 1044 450 1194 450 
Q 1453 450 1631 547 
Q 1772 622 1772 681 
z
" transform="scale(0.015625)"/>
       <path id="BNazanin-feaa" d="M 3116 3 
L 2938 3 
Q 2713 3 2556 147 
Q 2459 238 2322 466 
Q 2178 209 1988 106 
Q 1756 -22 1325 -22 
Q 484 -22 484 581 
Q 484 784 609 1000 
Q 650 1072 691 1072 
Q 728 1072 728 1009 
Q 728 975 718 908 
Q 709 841 709 806 
Q 709 447 1319 447 
Q 2178 447 2178 781 
Q 2178 963 1681 2084 
L 1859 2394 
Q 1894 2453 1906 2456 
Q 1925 2444 1953 2378 
Q 2153 1906 2500 953 
Q 2678 466 3003 466 
L 3116 466 
L 3116 3 
z
" transform="scale(0.015625)"/>
       <path id="BNazanin-fbfe" d="M 1038 797 
Q 1038 3 247 3 
L -81 3 
L -81 466 
L 191 466 
Q 788 466 788 681 
Q 788 831 516 1178 
L 678 1572 
Q 703 1631 719 1631 
Q 734 1631 784 1559 
Q 1038 1188 1038 797 
z
M 1406 -878 
L 1097 -1188 
L 788 -875 
L 1097 -566 
L 1406 -878 
z
M 722 -878 
L 413 -1188 
L 103 -875 
L 409 -566 
L 722 -878 
z
" transform="scale(0.015625)"/>
       <path id="BNazanin-fe8d" d="M 934 497 
Q 934 253 834 50 
Q 775 -72 753 -72 
Q 728 -72 728 81 
Q 728 775 484 3469 
L 816 3778 
Q 859 3819 875 3822 
Q 891 3822 894 3753 
Q 934 2963 934 497 
z
M 934 497 
Q 934 253 834 50 
Q 775 -72 753 -72 
Q 728 -72 728 81 
Q 728 775 484 3469 
L 816 3778 
Q 859 3819 875 3822 
Q 891 3822 894 3753 
Q 934 2963 934 497 
z
" transform="scale(0.015625)"/>
       <path id="BNazanin-fe98" d="M 2050 3 
L 1744 3 
Q 1191 3 1003 366 
Q 797 3 178 3 
L -81 3 
L -81 466 
L 275 466 
Q 859 466 913 919 
Q 934 1100 1003 1100 
Q 1072 1100 1091 913 
Q 1131 466 1697 466 
L 2050 466 
L 2050 3 
z
M 1378 2325 
L 1072 2019 
L 759 2328 
L 1069 2638 
L 1378 2325 
z
M 694 2325 
L 384 2019 
L 75 2328 
L 381 2638 
L 694 2325 
z
" transform="scale(0.015625)"/>
       <path id="BNazanin-fee0" d="M 1559 3 
L 1397 3 
Q 878 3 681 384 
Q 628 213 438 103 
Q 266 3 72 3 
L -81 3 
L -81 466 
L 78 466 
Q 575 466 575 881 
L 575 2266 
Q 575 3056 541 3478 
L 881 3766 
L 881 1075 
Q 881 466 1400 466 
L 1559 466 
L 1559 3 
z
" transform="scale(0.015625)"/>
      </defs>
      <use xlink:href="#BNazanin-fedd"/>
      <use xlink:href="#BNazanin-fe81" x="53.808594"/>
      <use xlink:href="#BNazanin-fee9" x="78.515625"/>
      <use xlink:href="#BNazanin-feaa" x="109.814453"/>
      <use xlink:href="#BNazanin-fbfe" x="157.226562"/>
      <use xlink:href="#BNazanin-fe8d" x="179.443359"/>
      <use xlink:href="#BNazanin-20" x="194.140625"/>
      <use xlink:href="#BNazanin-feae" x="218.554688"/>
      <use xlink:href="#BNazanin-fe98" x="256.152344"/>
      <use xlink:href="#BNazanin-fee0" x="286.914062"/>
      <use xlink:href="#BNazanin-fbff" x="310.009766"/>
      <use xlink:href="#BNazanin-fed3" x="340.771484"/>
     </g>
    </g>
   </g>
  </g>
  <g id="axes_2">
   <g id="patch_8">
    <path d="M 144 1025.28 
L 1036.8 1025.28 
L 1036.8 622.08 
L 144 622.08 
z
" style="fill: #ffffff"/>
   </g>
   <g id="matplotlib.axis_3">
    <g id="xtick_8">
     <g id="line2d_37">
      <path d="M 184.581818 1025.28 
L 184.581818 622.08 
" clip-path="url(#p8d413f79c5)" style="fill: none; stroke: #b0b0b0; stroke-width: 0.8; stroke-linecap: square"/>
     </g>
     <g id="line2d_38">
      <g>
       <use xlink:href="#mc349ae0bef" x="184.581818" y="1025.28" style="stroke: #000000; stroke-width: 0.8"/>
      </g>
     </g>
     <g id="text_23">
      <!-- 0 -->
      <g transform="translate(181.400568 1039.878438)scale(0.1 -0.1)">
       <use xlink:href="#DejaVuSans-30"/>
      </g>
     </g>
    </g>
    <g id="xtick_9">
     <g id="line2d_39">
      <path d="M 311.4 1025.28 
L 311.4 622.08 
" clip-path="url(#p8d413f79c5)" style="fill: none; stroke: #b0b0b0; stroke-width: 0.8; stroke-linecap: square"/>
     </g>
     <g id="line2d_40">
      <g>
       <use xlink:href="#mc349ae0bef" x="311.4" y="1025.28" style="stroke: #000000; stroke-width: 0.8"/>
      </g>
     </g>
     <g id="text_24">
      <!-- 20 -->
      <g transform="translate(305.0375 1039.878438)scale(0.1 -0.1)">
       <use xlink:href="#DejaVuSans-32"/>
       <use xlink:href="#DejaVuSans-30" x="63.623047"/>
      </g>
     </g>
    </g>
    <g id="xtick_10">
     <g id="line2d_41">
      <path d="M 438.218182 1025.28 
L 438.218182 622.08 
" clip-path="url(#p8d413f79c5)" style="fill: none; stroke: #b0b0b0; stroke-width: 0.8; stroke-linecap: square"/>
     </g>
     <g id="line2d_42">
      <g>
       <use xlink:href="#mc349ae0bef" x="438.218182" y="1025.28" style="stroke: #000000; stroke-width: 0.8"/>
      </g>
     </g>
     <g id="text_25">
      <!-- 40 -->
      <g transform="translate(431.855682 1039.878438)scale(0.1 -0.1)">
       <use xlink:href="#DejaVuSans-34"/>
       <use xlink:href="#DejaVuSans-30" x="63.623047"/>
      </g>
     </g>
    </g>
    <g id="xtick_11">
     <g id="line2d_43">
      <path d="M 565.036364 1025.28 
L 565.036364 622.08 
" clip-path="url(#p8d413f79c5)" style="fill: none; stroke: #b0b0b0; stroke-width: 0.8; stroke-linecap: square"/>
     </g>
     <g id="line2d_44">
      <g>
       <use xlink:href="#mc349ae0bef" x="565.036364" y="1025.28" style="stroke: #000000; stroke-width: 0.8"/>
      </g>
     </g>
     <g id="text_26">
      <!-- 60 -->
      <g transform="translate(558.673864 1039.878438)scale(0.1 -0.1)">
       <use xlink:href="#DejaVuSans-36"/>
       <use xlink:href="#DejaVuSans-30" x="63.623047"/>
      </g>
     </g>
    </g>
    <g id="xtick_12">
     <g id="line2d_45">
      <path d="M 691.854545 1025.28 
L 691.854545 622.08 
" clip-path="url(#p8d413f79c5)" style="fill: none; stroke: #b0b0b0; stroke-width: 0.8; stroke-linecap: square"/>
     </g>
     <g id="line2d_46">
      <g>
       <use xlink:href="#mc349ae0bef" x="691.854545" y="1025.28" style="stroke: #000000; stroke-width: 0.8"/>
      </g>
     </g>
     <g id="text_27">
      <!-- 80 -->
      <g transform="translate(685.492045 1039.878438)scale(0.1 -0.1)">
       <use xlink:href="#DejaVuSans-38"/>
       <use xlink:href="#DejaVuSans-30" x="63.623047"/>
      </g>
     </g>
    </g>
    <g id="xtick_13">
     <g id="line2d_47">
      <path d="M 818.672727 1025.28 
L 818.672727 622.08 
" clip-path="url(#p8d413f79c5)" style="fill: none; stroke: #b0b0b0; stroke-width: 0.8; stroke-linecap: square"/>
     </g>
     <g id="line2d_48">
      <g>
       <use xlink:href="#mc349ae0bef" x="818.672727" y="1025.28" style="stroke: #000000; stroke-width: 0.8"/>
      </g>
     </g>
     <g id="text_28">
      <!-- 100 -->
      <g transform="translate(809.128977 1039.878438)scale(0.1 -0.1)">
       <use xlink:href="#DejaVuSans-31"/>
       <use xlink:href="#DejaVuSans-30" x="63.623047"/>
       <use xlink:href="#DejaVuSans-30" x="127.246094"/>
      </g>
     </g>
    </g>
    <g id="xtick_14">
     <g id="line2d_49">
      <path d="M 945.490909 1025.28 
L 945.490909 622.08 
" clip-path="url(#p8d413f79c5)" style="fill: none; stroke: #b0b0b0; stroke-width: 0.8; stroke-linecap: square"/>
     </g>
     <g id="line2d_50">
      <g>
       <use xlink:href="#mc349ae0bef" x="945.490909" y="1025.28" style="stroke: #000000; stroke-width: 0.8"/>
      </g>
     </g>
     <g id="text_29">
      <!-- 120 -->
      <g transform="translate(935.947159 1039.878438)scale(0.1 -0.1)">
       <use xlink:href="#DejaVuSans-31"/>
       <use xlink:href="#DejaVuSans-32" x="63.623047"/>
       <use xlink:href="#DejaVuSans-30" x="127.246094"/>
      </g>
     </g>
    </g>
    <g id="text_30">
     <!-- (ﺰﺗﺮﻫ) ﺲﻧﺎﮐﺮﻓ -->
     <g transform="translate(563.350312 1053.060625)scale(0.12 -0.12)">
      <use xlink:href="#BNazanin-28"/>
      <use xlink:href="#BNazanin-feb0" x="28.125"/>
      <use xlink:href="#BNazanin-fe97" x="65.722656"/>
      <use xlink:href="#BNazanin-feae" x="86.865234"/>
      <use xlink:href="#BNazanin-feeb" x="124.462891"/>
      <use xlink:href="#BNazanin-29" x="163.916016"/>
      <use xlink:href="#BNazanin-20" x="192.041016"/>
      <use xlink:href="#BNazanin-feb2" x="216.455078"/>
      <use xlink:href="#BNazanin-fee7" x="310.742188"/>
      <use xlink:href="#BNazanin-fe8e" x="327.001953"/>
      <use xlink:href="#BNazanin-fb90" x="350.439453"/>
      <use xlink:href="#BNazanin-feae" x="387.792969"/>
      <use xlink:href="#BNazanin-fed3" x="425.390625"/>
     </g>
    </g>
   </g>
   <g id="matplotlib.axis_4">
    <g id="ytick_7">
     <g id="line2d_51">
      <path d="M 144 1025.28 
L 1036.8 1025.28 
" clip-path="url(#p8d413f79c5)" style="fill: none; stroke: #b0b0b0; stroke-width: 0.8; stroke-linecap: square"/>
     </g>
     <g id="line2d_52">
      <g>
       <use xlink:href="#mdd4aef9c23" x="144" y="1025.28" style="stroke: #000000; stroke-width: 0.8"/>
      </g>
     </g>
     <g id="text_31">
      <!-- −50 -->
      <g transform="translate(115.895313 1029.079219)scale(0.1 -0.1)">
       <defs>
        <path id="DejaVuSans-2212" d="M 678 2272 
L 4684 2272 
L 4684 1741 
L 678 1741 
L 678 2272 
z
" transform="scale(0.015625)"/>
        <path id="DejaVuSans-35" d="M 691 4666 
L 3169 4666 
L 3169 4134 
L 1269 4134 
L 1269 2991 
Q 1406 3038 1543 3061 
Q 1681 3084 1819 3084 
Q 2600 3084 3056 2656 
Q 3513 2228 3513 1497 
Q 3513 744 3044 326 
Q 2575 -91 1722 -91 
Q 1428 -91 1123 -41 
Q 819 9 494 109 
L 494 744 
Q 775 591 1075 516 
Q 1375 441 1709 441 
Q 2250 441 2565 725 
Q 2881 1009 2881 1497 
Q 2881 1984 2565 2268 
Q 2250 2553 1709 2553 
Q 1456 2553 1204 2497 
Q 953 2441 691 2322 
L 691 4666 
z
" transform="scale(0.015625)"/>
       </defs>
       <use xlink:href="#DejaVuSans-2212"/>
       <use xlink:href="#DejaVuSans-35" x="83.789062"/>
       <use xlink:href="#DejaVuSans-30" x="147.412109"/>
      </g>
     </g>
    </g>
    <g id="ytick_8">
     <g id="line2d_53">
      <path d="M 144 951.970909 
L 1036.8 951.970909 
" clip-path="url(#p8d413f79c5)" style="fill: none; stroke: #b0b0b0; stroke-width: 0.8; stroke-linecap: square"/>
     </g>
     <g id="line2d_54">
      <g>
       <use xlink:href="#mdd4aef9c23" x="144" y="951.970909" style="stroke: #000000; stroke-width: 0.8"/>
      </g>
     </g>
     <g id="text_32">
      <!-- −40 -->
      <g transform="translate(115.895313 955.770128)scale(0.1 -0.1)">
       <use xlink:href="#DejaVuSans-2212"/>
       <use xlink:href="#DejaVuSans-34" x="83.789062"/>
       <use xlink:href="#DejaVuSans-30" x="147.412109"/>
      </g>
     </g>
    </g>
    <g id="ytick_9">
     <g id="line2d_55">
      <path d="M 144 878.661818 
L 1036.8 878.661818 
" clip-path="url(#p8d413f79c5)" style="fill: none; stroke: #b0b0b0; stroke-width: 0.8; stroke-linecap: square"/>
     </g>
     <g id="line2d_56">
      <g>
       <use xlink:href="#mdd4aef9c23" x="144" y="878.661818" style="stroke: #000000; stroke-width: 0.8"/>
      </g>
     </g>
     <g id="text_33">
      <!-- −30 -->
      <g transform="translate(115.895313 882.461037)scale(0.1 -0.1)">
       <defs>
        <path id="DejaVuSans-33" d="M 2597 2516 
Q 3050 2419 3304 2112 
Q 3559 1806 3559 1356 
Q 3559 666 3084 287 
Q 2609 -91 1734 -91 
Q 1441 -91 1130 -33 
Q 819 25 488 141 
L 488 750 
Q 750 597 1062 519 
Q 1375 441 1716 441 
Q 2309 441 2620 675 
Q 2931 909 2931 1356 
Q 2931 1769 2642 2001 
Q 2353 2234 1838 2234 
L 1294 2234 
L 1294 2753 
L 1863 2753 
Q 2328 2753 2575 2939 
Q 2822 3125 2822 3475 
Q 2822 3834 2567 4026 
Q 2313 4219 1838 4219 
Q 1578 4219 1281 4162 
Q 984 4106 628 3988 
L 628 4550 
Q 988 4650 1302 4700 
Q 1616 4750 1894 4750 
Q 2613 4750 3031 4423 
Q 3450 4097 3450 3541 
Q 3450 3153 3228 2886 
Q 3006 2619 2597 2516 
z
" transform="scale(0.015625)"/>
       </defs>
       <use xlink:href="#DejaVuSans-2212"/>
       <use xlink:href="#DejaVuSans-33" x="83.789062"/>
       <use xlink:href="#DejaVuSans-30" x="147.412109"/>
      </g>
     </g>
    </g>
    <g id="ytick_10">
     <g id="line2d_57">
      <path d="M 144 805.352727 
L 1036.8 805.352727 
" clip-path="url(#p8d413f79c5)" style="fill: none; stroke: #b0b0b0; stroke-width: 0.8; stroke-linecap: square"/>
     </g>
     <g id="line2d_58">
      <g>
       <use xlink:href="#mdd4aef9c23" x="144" y="805.352727" style="stroke: #000000; stroke-width: 0.8"/>
      </g>
     </g>
     <g id="text_34">
      <!-- −20 -->
      <g transform="translate(115.895313 809.151946)scale(0.1 -0.1)">
       <use xlink:href="#DejaVuSans-2212"/>
       <use xlink:href="#DejaVuSans-32" x="83.789062"/>
       <use xlink:href="#DejaVuSans-30" x="147.412109"/>
      </g>
     </g>
    </g>
    <g id="ytick_11">
     <g id="line2d_59">
      <path d="M 144 732.043636 
L 1036.8 732.043636 
" clip-path="url(#p8d413f79c5)" style="fill: none; stroke: #b0b0b0; stroke-width: 0.8; stroke-linecap: square"/>
     </g>
     <g id="line2d_60">
      <g>
       <use xlink:href="#mdd4aef9c23" x="144" y="732.043636" style="stroke: #000000; stroke-width: 0.8"/>
      </g>
     </g>
     <g id="text_35">
      <!-- −10 -->
      <g transform="translate(115.895313 735.842855)scale(0.1 -0.1)">
       <use xlink:href="#DejaVuSans-2212"/>
       <use xlink:href="#DejaVuSans-31" x="83.789062"/>
       <use xlink:href="#DejaVuSans-30" x="147.412109"/>
      </g>
     </g>
    </g>
    <g id="ytick_12">
     <g id="line2d_61">
      <path d="M 144 658.734545 
L 1036.8 658.734545 
" clip-path="url(#p8d413f79c5)" style="fill: none; stroke: #b0b0b0; stroke-width: 0.8; stroke-linecap: square"/>
     </g>
     <g id="line2d_62">
      <g>
       <use xlink:href="#mdd4aef9c23" x="144" y="658.734545" style="stroke: #000000; stroke-width: 0.8"/>
      </g>
     </g>
     <g id="text_36">
      <!-- 0 -->
      <g transform="translate(130.6375 662.533764)scale(0.1 -0.1)">
       <use xlink:href="#DejaVuSans-30"/>
      </g>
     </g>
    </g>
    <g id="text_37">
     <!-- (ﯽﻤﺘﯾﺭﺎﮕﻟ) ﻦﯿﮔ -->
     <g transform="translate(108.589687 852.720937)rotate(-90)scale(0.12 -0.12)">
      <defs>
       <path id="BNazanin-fbfd" d="M 4075 3 
L 3163 3 
Q 2994 3 2838 -50 
Q 2622 -122 2622 -253 
Q 2622 -284 3198 -412 
Q 3775 -541 3775 -666 
Q 3775 -1138 3503 -1369 
Q 3044 -1763 1884 -1763 
Q 484 -1763 484 -728 
Q 484 -494 584 -208 
Q 684 78 828 266 
Q 884 341 931 344 
Q 978 347 978 294 
Q 978 247 941 175 
Q 759 -169 759 -538 
Q 759 -947 1147 -1144 
Q 1444 -1294 1900 -1294 
Q 2384 -1294 2788 -1244 
Q 3513 -1153 3513 -934 
Q 3513 -844 3197 -791 
Q 2694 -706 2616 -684 
Q 2300 -597 2300 -416 
Q 2300 -272 2453 -56 
Q 2581 122 2722 238 
Q 3003 466 3522 466 
L 4075 466 
L 4075 3 
z
" transform="scale(0.015625)"/>
       <path id="BNazanin-fee4" d="M 2947 3 
L 2688 3 
Q 2406 3 2109 334 
Q 1944 -159 1734 -159 
Q 1541 -159 1194 38 
Q 884 213 759 353 
Q 478 3 163 3 
L -81 3 
L -81 466 
L 175 466 
Q 450 466 706 697 
Q 866 878 1094 1125 
Q 1306 1356 1491 1356 
Q 1719 1356 1906 1125 
Q 2000 1006 2247 697 
Q 2438 466 2688 466 
L 2947 466 
L 2947 3 
z
M 1869 334 
Q 1888 516 1766 725 
Q 1628 963 1425 963 
Q 1219 963 981 656 
Q 1047 572 1322 428 
Q 1619 272 1800 266 
Q 1863 263 1869 334 
z
" transform="scale(0.015625)"/>
       <path id="BNazanin-fead" d="M 2016 -34 
Q 2016 -619 1644 -1138 
Q 1325 -1581 1113 -1581 
Q 656 -1581 325 -1534 
Q 216 -1519 216 -1481 
Q 216 -1444 328 -1422 
Q 797 -1325 1272 -925 
Q 1778 -497 1778 -103 
Q 1778 159 1359 566 
L 1541 944 
Q 1566 994 1578 997 
Q 1597 991 1631 947 
Q 1775 772 1891 481 
Q 2016 175 2016 -34 
z
" transform="scale(0.015625)"/>
       <path id="BNazanin-fb95" d="M 2378 3853 
L 2297 3556 
L 338 2928 
L 422 3219 
L 2378 3853 
z
M 2788 3 
L 2556 3 
Q 2241 3 1922 284 
Q 1700 481 1394 909 
Q 1341 3 144 3 
L -81 3 
L -81 466 
L 81 466 
Q 1191 466 1191 913 
Q 1191 1253 666 1747 
Q 441 1959 141 2169 
Q 141 2425 266 2553 
Q 316 2603 2466 3256 
Q 2459 3178 2334 2825 
Q 1809 2688 559 2291 
Q 1184 1641 1650 1100 
Q 1922 784 2072 669 
Q 2334 466 2625 466 
L 2788 466 
L 2788 3 
z
" transform="scale(0.015625)"/>
       <path id="BNazanin-fedf" d="M 1000 3178 
Q 1034 3097 1025 3081 
Q 1019 3072 959 3072 
L 831 3072 
Q 872 2272 856 809 
Q 853 456 684 241 
Q 497 3 153 3 
L -81 3 
L -81 466 
L 131 466 
Q 603 466 588 825 
Q 534 2113 453 3434 
L 719 3688 
Q 781 3747 794 3750 
Q 806 3738 825 3666 
Q 872 3484 1000 3178 
z
" transform="scale(0.015625)"/>
      </defs>
      <use xlink:href="#BNazanin-28"/>
      <use xlink:href="#BNazanin-fbfd" x="28.125"/>
      <use xlink:href="#BNazanin-fee4" x="90.478516"/>
      <use xlink:href="#BNazanin-fe98" x="135.205078"/>
      <use xlink:href="#BNazanin-fbfe" x="165.966797"/>
      <use xlink:href="#BNazanin-fead" x="188.183594"/>
      <use xlink:href="#BNazanin-fe8e" x="219.775391"/>
      <use xlink:href="#BNazanin-fb95" x="243.212891"/>
      <use xlink:href="#BNazanin-fedf" x="285.498047"/>
      <use xlink:href="#BNazanin-29" x="301.513672"/>
      <use xlink:href="#BNazanin-20" x="329.638672"/>
      <use xlink:href="#BNazanin-fee6" x="354.052734"/>
      <use xlink:href="#BNazanin-fbff" x="415.869141"/>
      <use xlink:href="#BNazanin-fb94" x="446.630859"/>
     </g>
    </g>
   </g>
   <g id="line2d_63">
    <path d="M 184.987636 1053.314642 
L 185.393455 1009.178528 
L 185.799273 983.360942 
L 186.610909 950.835784 
L 187.422545 929.41361 
L 188.234182 913.41485 
L 189.451636 895.104047 
L 190.669091 880.904901 
L 191.886545 869.307249 
L 193.104 859.505523 
L 194.727273 848.425322 
L 196.350545 839.00022 
L 197.973818 830.801983 
L 200.002909 821.860746 
L 202.032 814.037428 
L 204.061091 807.086751 
L 206.090182 800.836567 
L 208.525091 794.08663 
L 210.96 788.006878 
L 213.394909 782.480178 
L 216.235636 776.614332 
L 219.076364 771.274287 
L 221.917091 766.378312 
L 225.163636 761.245505 
L 228.410182 756.535149 
L 231.656727 752.188512 
L 235.309091 747.675101 
L 238.961455 743.508843 
L 243.019636 739.23423 
L 247.077818 735.28635 
L 251.541818 731.274288 
L 256.005818 727.567178 
L 260.875636 723.829582 
L 265.745455 720.375174 
L 271.021091 716.916113 
L 276.296727 713.719144 
L 281.978182 710.537274 
L 288.065455 707.395864 
L 294.152727 704.501483 
L 300.645818 701.657151 
L 307.544727 698.880517 
L 314.849455 696.186297 
L 322.56 693.586452 
L 330.676364 691.090385 
L 339.198545 688.705146 
L 348.126545 686.435645 
L 357.866182 684.196092 
L 368.011636 682.093919 
L 378.968727 680.055128 
L 390.737455 678.098842 
L 403.317818 676.239488 
L 416.709818 674.48716 
L 431.319273 672.804249 
L 447.146182 671.210182 
L 464.190545 669.718336 
L 482.858182 668.308306 
L 503.554909 666.971773 
L 526.280727 665.729353 
L 551.847273 664.559622 
L 580.254545 663.486192 
L 612.314182 662.500163 
L 648.837818 661.603069 
L 690.637091 660.802624 
L 738.929455 660.104707 
L 794.932364 659.52314 
L 859.457455 659.080672 
L 932.098909 658.808167 
L 995.812364 658.734548 
L 995.812364 658.734548 
" clip-path="url(#p8d413f79c5)" style="fill: none; stroke: #1f77b4; stroke-width: 1.5; stroke-linecap: square"/>
   </g>
   <g id="line2d_64">
    <path d="M 199.569197 1153 
L 201.220364 1133.018136 
L 203.249455 1111.019771 
L 205.278545 1091.289814 
L 207.713455 1070.017345 
L 210.148364 1050.870517 
L 212.583273 1033.461461 
L 215.018182 1017.499546 
L 217.858909 1000.411089 
L 220.699636 984.716083 
L 223.540364 970.202793 
L 226.786909 954.850608 
L 230.033455 940.627565 
L 233.28 927.377268 
L 236.932364 913.47747 
L 240.584727 900.504899 
L 244.237091 888.342183 
L 247.889455 876.893092 
L 251.947636 864.912252 
L 256.005818 853.623367 
L 260.064 842.951106 
L 264.528 831.848979 
L 268.992 821.347022 
L 273.456 811.387063 
L 278.325818 801.082999 
L 283.195636 791.314156 
L 288.065455 782.037764 
L 292.935273 773.219003 
L 297.805091 764.829833 
L 303.080727 756.200717 
L 308.356364 748.028182 
L 313.226182 740.875836 
L 318.096 734.090343 
L 322.965818 727.665832 
L 327.835636 721.598578 
L 332.705455 715.886268 
L 337.575273 710.527257 
L 342.445091 705.51982 
L 346.909091 701.236394 
L 351.373091 697.243318 
L 355.837091 693.536271 
L 360.301091 690.10935 
L 364.765091 686.954934 
L 369.229091 684.063671 
L 373.693091 681.42458 
L 378.157091 679.025236 
L 383.026909 676.665201 
L 387.896727 674.555496 
L 392.766545 672.676628 
L 398.042182 670.878841 
L 403.723636 669.191593 
L 409.405091 667.733479 
L 415.492364 666.39391 
L 421.985455 665.184456 
L 429.290182 664.053175 
L 437.406545 663.031921 
L 446.334545 662.139452 
L 456.48 661.354934 
L 468.248727 660.675875 
L 482.046545 660.107695 
L 499.090909 659.636756 
L 521.005091 659.266156 
L 551.035636 658.996075 
L 597.704727 658.822943 
L 690.637091 658.744168 
L 995.812364 658.734545 
L 995.812364 658.734545 
" clip-path="url(#p8d413f79c5)" style="fill: none; stroke: #ff7f0e; stroke-width: 1.5; stroke-linecap: square"/>
   </g>
   <g id="line2d_65">
    <path d="M 239.041826 1153 
L 242.613818 1128.534571 
L 246.266182 1105.005769 
L 249.918545 1082.805784 
L 253.976727 1059.520755 
L 258.034909 1037.528468 
L 262.093091 1016.688076 
L 266.557091 994.952301 
L 271.021091 974.331798 
L 275.485091 954.712419 
L 280.354909 934.336993 
L 285.224727 914.928923 
L 290.094545 896.395948 
L 295.370182 877.214956 
L 300.645818 858.883849 
L 305.921455 841.332143 
L 311.197091 824.502904 
L 316.878545 807.137717 
L 322.56 790.525382 
L 327.835636 775.762392 
L 333.111273 761.647784 
L 337.981091 749.222684 
L 342.850909 737.423364 
L 347.314909 727.21149 
L 351.373091 718.482471 
L 355.025455 711.121924 
L 358.677818 704.270534 
L 361.924364 698.636361 
L 365.170909 693.452338 
L 368.011636 689.296274 
L 370.852364 685.498879 
L 373.693091 682.058286 
L 376.533818 678.966942 
L 379.374545 676.211897 
L 382.215273 673.775496 
L 385.056 671.636359 
L 387.896727 669.770524 
L 390.737455 668.152603 
L 393.984 666.57411 
L 397.230545 665.248322 
L 400.882909 664.015046 
L 404.535273 663.011422 
L 408.593455 662.117162 
L 413.463273 661.288211 
L 418.738909 660.620322 
L 425.232 660.036893 
L 432.942545 659.578167 
L 443.088 659.215751 
L 456.885818 658.963 
L 478.8 658.807441 
L 526.686545 658.741415 
L 888.676364 658.734545 
L 995.812364 658.734545 
L 995.812364 658.734545 
" clip-path="url(#p8d413f79c5)" style="fill: none; stroke: #2ca02c; stroke-width: 1.5; stroke-linecap: square"/>
   </g>
   <g id="line2d_66">
    <path d="M 184.581818 680.727273 
L 996.218182 680.727273 
" clip-path="url(#p8d413f79c5)" style="fill: none; stroke-dasharray: 5.55,2.4; stroke-dashoffset: 0; stroke: #d62728; stroke-width: 1.5"/>
   </g>
   <g id="patch_9">
    <path d="M 144 1025.28 
L 144 622.08 
" style="fill: none; stroke: #000000; stroke-width: 0.8; stroke-linejoin: miter; stroke-linecap: square"/>
   </g>
   <g id="patch_10">
    <path d="M 1036.8 1025.28 
L 1036.8 622.08 
" style="fill: none; stroke: #000000; stroke-width: 0.8; stroke-linejoin: miter; stroke-linecap: square"/>
   </g>
   <g id="patch_11">
    <path d="M 144 1025.28 
L 1036.8 1025.28 
" style="fill: none; stroke: #000000; stroke-width: 0.8; stroke-linejoin: miter; stroke-linecap: square"/>
   </g>
   <g id="patch_12">
    <path d="M 144 622.08 
L 1036.8 622.08 
" style="fill: none; stroke: #000000; stroke-width: 0.8; stroke-linejoin: miter; stroke-linecap: square"/>
   </g>
   <g id="text_38">
    <!-- $\mathbf{-3dB}$ -->
    <g transform="translate(110.511364 683.486648)scale(0.1 -0.1)">
     <defs>
      <path id="DejaVuSans-Bold-2212" d="M 678 2375 
L 4684 2375 
L 4684 1638 
L 678 1638 
L 678 2375 
z
" transform="scale(0.015625)"/>
      <path id="DejaVuSans-Bold-33" d="M 2981 2516 
Q 3453 2394 3698 2092 
Q 3944 1791 3944 1325 
Q 3944 631 3412 270 
Q 2881 -91 1863 -91 
Q 1503 -91 1142 -33 
Q 781 25 428 141 
L 428 1069 
Q 766 900 1098 814 
Q 1431 728 1753 728 
Q 2231 728 2486 893 
Q 2741 1059 2741 1369 
Q 2741 1688 2480 1852 
Q 2219 2016 1709 2016 
L 1228 2016 
L 1228 2791 
L 1734 2791 
Q 2188 2791 2409 2933 
Q 2631 3075 2631 3366 
Q 2631 3634 2415 3781 
Q 2200 3928 1806 3928 
Q 1516 3928 1219 3862 
Q 922 3797 628 3669 
L 628 4550 
Q 984 4650 1334 4700 
Q 1684 4750 2022 4750 
Q 2931 4750 3382 4451 
Q 3834 4153 3834 3553 
Q 3834 3144 3618 2883 
Q 3403 2622 2981 2516 
z
" transform="scale(0.015625)"/>
      <path id="DejaVuSans-Bold-64" d="M 2919 2988 
L 2919 4863 
L 4044 4863 
L 4044 0 
L 2919 0 
L 2919 506 
Q 2688 197 2409 53 
Q 2131 -91 1766 -91 
Q 1119 -91 703 423 
Q 288 938 288 1747 
Q 288 2556 703 3070 
Q 1119 3584 1766 3584 
Q 2128 3584 2408 3439 
Q 2688 3294 2919 2988 
z
M 2181 722 
Q 2541 722 2730 984 
Q 2919 1247 2919 1747 
Q 2919 2247 2730 2509 
Q 2541 2772 2181 2772 
Q 1825 2772 1636 2509 
Q 1447 2247 1447 1747 
Q 1447 1247 1636 984 
Q 1825 722 2181 722 
z
" transform="scale(0.015625)"/>
      <path id="DejaVuSans-Bold-42" d="M 2456 2859 
Q 2741 2859 2887 2984 
Q 3034 3109 3034 3353 
Q 3034 3594 2887 3720 
Q 2741 3847 2456 3847 
L 1791 3847 
L 1791 2859 
L 2456 2859 
z
M 2497 819 
Q 2859 819 3042 972 
Q 3225 1125 3225 1434 
Q 3225 1738 3044 1889 
Q 2863 2041 2497 2041 
L 1791 2041 
L 1791 819 
L 2497 819 
z
M 3616 2497 
Q 4003 2384 4215 2081 
Q 4428 1778 4428 1338 
Q 4428 663 3972 331 
Q 3516 0 2584 0 
L 588 0 
L 588 4666 
L 2394 4666 
Q 3366 4666 3802 4372 
Q 4238 4078 4238 3431 
Q 4238 3091 4078 2852 
Q 3919 2613 3616 2497 
z
" transform="scale(0.015625)"/>
     </defs>
     <use xlink:href="#DejaVuSans-Bold-2212" transform="translate(0 0.015625)"/>
     <use xlink:href="#DejaVuSans-Bold-33" transform="translate(83.789062 0.015625)"/>
     <use xlink:href="#DejaVuSans-Bold-64" transform="translate(153.369141 0.015625)"/>
     <use xlink:href="#DejaVuSans-Bold-42" transform="translate(224.951172 0.015625)"/>
    </g>
   </g>
   <g id="legend_2">
    <g id="patch_13">
     <path d="M 929.861875 1018.28 
L 1027 1018.28 
Q 1029.8 1018.28 1029.8 1015.48 
L 1029.8 935.743438 
Q 1029.8 932.943438 1027 932.943438 
L 929.861875 932.943438 
Q 927.061875 932.943438 927.061875 935.743438 
L 927.061875 1015.48 
Q 927.061875 1018.28 929.861875 1018.28 
z
" style="fill: #ffffff; stroke: #cccccc; stroke-linejoin: miter"/>
    </g>
    <g id="line2d_67">
     <path d="M 932.661875 943.443438 
L 946.661875 943.443438 
L 960.661875 943.443438 
" style="fill: none; stroke: #1f77b4; stroke-width: 1.5; stroke-linecap: square"/>
    </g>
    <g id="text_39">
     <!-- ﻪﺒﺗﺮﻣ = 1 -->
     <g transform="translate(971.861875 948.343438)scale(0.14 -0.14)">
      <use xlink:href="#BNazanin-feea"/>
      <use xlink:href="#BNazanin-fe92" x="41.503906"/>
      <use xlink:href="#BNazanin-fe97" x="72.265625"/>
      <use xlink:href="#BNazanin-feae" x="93.408203"/>
      <use xlink:href="#BNazanin-fee3" x="131.005859"/>
      <use xlink:href="#BNazanin-20" x="163.330078"/>
      <use xlink:href="#BNazanin-3d" x="187.744141"/>
      <use xlink:href="#BNazanin-20" x="225.195312"/>
      <use xlink:href="#BNazanin-31" x="249.609375"/>
     </g>
    </g>
    <g id="line2d_68">
     <path d="M 932.661875 963.701875 
L 946.661875 963.701875 
L 960.661875 963.701875 
" style="fill: none; stroke: #ff7f0e; stroke-width: 1.5; stroke-linecap: square"/>
    </g>
    <g id="text_40">
     <!-- ﻪﺒﺗﺮﻣ = 3 -->
     <g transform="translate(971.861875 968.601875)scale(0.14 -0.14)">
      <use xlink:href="#BNazanin-feea"/>
      <use xlink:href="#BNazanin-fe92" x="41.503906"/>
      <use xlink:href="#BNazanin-fe97" x="72.265625"/>
      <use xlink:href="#BNazanin-feae" x="93.408203"/>
      <use xlink:href="#BNazanin-fee3" x="131.005859"/>
      <use xlink:href="#BNazanin-20" x="163.330078"/>
      <use xlink:href="#BNazanin-3d" x="187.744141"/>
      <use xlink:href="#BNazanin-20" x="225.195312"/>
      <use xlink:href="#BNazanin-33" x="249.609375"/>
     </g>
    </g>
    <g id="line2d_69">
     <path d="M 932.661875 983.960313 
L 946.661875 983.960313 
L 960.661875 983.960313 
" style="fill: none; stroke: #2ca02c; stroke-width: 1.5; stroke-linecap: square"/>
    </g>
    <g id="text_41">
     <!-- ﻪﺒﺗﺮﻣ = 6 -->
     <g transform="translate(971.861875 988.860313)scale(0.14 -0.14)">
      <use xlink:href="#BNazanin-feea"/>
      <use xlink:href="#BNazanin-fe92" x="41.503906"/>
      <use xlink:href="#BNazanin-fe97" x="72.265625"/>
      <use xlink:href="#BNazanin-feae" x="93.408203"/>
      <use xlink:href="#BNazanin-fee3" x="131.005859"/>
      <use xlink:href="#BNazanin-20" x="163.330078"/>
      <use xlink:href="#BNazanin-3d" x="187.744141"/>
      <use xlink:href="#BNazanin-20" x="225.195312"/>
      <use xlink:href="#BNazanin-36" x="249.609375"/>
     </g>
    </g>
    <g id="line2d_70">
     <path d="M 932.661875 1004.21875 
L 946.661875 1004.21875 
L 960.661875 1004.21875 
" style="fill: none; stroke-dasharray: 5.55,2.4; stroke-dashoffset: 0; stroke: #d62728; stroke-width: 1.5"/>
    </g>
    <g id="text_42">
     <!-- ﻦﯿﮔ ﻒﯿﻌﻀﺗ -->
     <g transform="translate(971.861875 1009.11875)scale(0.14 -0.14)">
      <use xlink:href="#BNazanin-fee6"/>
      <use xlink:href="#BNazanin-fbff" x="61.816406"/>
      <use xlink:href="#BNazanin-fb94" x="92.578125"/>
      <use xlink:href="#BNazanin-20" x="129.931641"/>
      <use xlink:href="#BNazanin-fed2" x="154.345703"/>
      <use xlink:href="#BNazanin-fbff" x="227.050781"/>
      <use xlink:href="#BNazanin-fecc" x="257.8125"/>
      <use xlink:href="#BNazanin-fec0" x="292.919922"/>
      <use xlink:href="#BNazanin-fe97" x="352.685547"/>
     </g>
    </g>
   </g>
  </g>
  <g id="text_43">
   <!-- ﺙﺭﻭﺮﺗﺎﺑ (ﺰﺗﺮﻫ 30) ﺭﺬﮔﻻﺎﺑ ﺮﺘﻠﯿﻓ -->
   <g style="fill: #2d1754" transform="translate(455.330078 107.163906)scale(0.25 -0.25)">
    <defs>
     <path id="BNazanin-fe99" d="M 4331 900 
Q 4331 456 4034 269 
Q 3834 144 3313 50 
Q 2738 -53 2069 -53 
Q 484 -53 484 816 
Q 484 1106 706 1425 
Q 750 1488 794 1488 
Q 838 1488 838 1431 
Q 838 1403 822 1366 
Q 734 1166 734 1006 
Q 734 416 2244 416 
Q 2978 416 3500 503 
Q 4078 600 4078 766 
Q 4078 866 3803 1234 
L 4000 1613 
Q 4034 1678 4075 1613 
Q 4331 1206 4331 900 
z
M 2716 2631 
L 2422 2341 
L 2128 2634 
L 2419 2925 
L 2716 2631 
z
M 3075 2006 
L 2781 1716 
L 2484 2009 
L 2778 2300 
L 3075 2006 
z
M 2363 2006 
L 2069 1716 
L 1772 2009 
L 2069 2300 
L 2363 2006 
z
" transform="scale(0.015625)"/>
     <path id="BNazanin-feed" d="M 2056 163 
Q 2056 -731 1441 -1369 
Q 1247 -1569 1194 -1569 
Q 853 -1569 416 -1500 
Q 263 -1475 263 -1453 
Q 263 -1428 425 -1381 
Q 909 -1241 1328 -881 
Q 1503 -731 1647 -528 
Q 1828 -275 1828 -103 
L 1828 28 
L 1306 9 
Q 753 -9 753 469 
Q 753 766 925 1106 
Q 1122 1494 1375 1494 
Q 1750 1494 1931 978 
Q 2056 622 2056 163 
z
M 1769 494 
Q 1769 688 1638 859 
Q 1497 1047 1309 1047 
Q 1184 1047 1092 953 
Q 1000 859 1000 734 
Q 1000 459 1394 459 
Q 1541 459 1769 494 
z
" transform="scale(0.015625)"/>
     <path id="BNazanin-fe91" d="M 1038 797 
Q 1038 3 247 3 
L -81 3 
L -81 466 
L 191 466 
Q 788 466 788 681 
Q 788 831 516 1178 
L 678 1572 
Q 703 1631 719 1631 
Q 734 1631 784 1559 
Q 1038 1188 1038 797 
z
M 909 -878 
L 584 -1203 
L 256 -875 
L 581 -550 
L 909 -878 
z
" transform="scale(0.015625)"/>
     <path id="BNazanin-30" d="M 1975 1534 
L 1428 988 
L 888 1531 
L 1431 2075 
L 1975 1534 
z
" transform="scale(0.015625)"/>
     <path id="BNazanin-feac" d="M 3116 3 
L 2938 3 
Q 2713 3 2556 147 
Q 2459 238 2322 466 
Q 2178 209 1988 106 
Q 1756 -22 1325 -22 
Q 484 -22 484 581 
Q 484 784 609 1000 
Q 650 1072 691 1072 
Q 728 1072 728 1009 
Q 728 975 718 908 
Q 709 841 709 806 
Q 709 447 1319 447 
Q 2178 447 2178 781 
Q 2178 963 1681 2084 
L 1859 2394 
Q 1894 2453 1906 2456 
Q 1925 2444 1953 2378 
Q 2153 1906 2500 953 
Q 2678 466 3003 466 
L 3116 466 
L 3116 3 
z
M 1922 3284 
L 1597 2959 
L 1269 3288 
L 1594 3613 
L 1922 3284 
z
" transform="scale(0.015625)"/>
     <path id="BNazanin-fefb" d="M 3050 3159 
Q 3063 3128 3084 3059 
Q 3072 3053 3016 3053 
L 2900 3053 
Q 2900 2553 2791 2038 
Q 2650 1375 2378 1003 
Q 2516 738 2516 500 
Q 2516 359 2453 197 
Q 2378 0 2263 -28 
Q 1728 -153 1119 -109 
L 1250 331 
Q 1834 603 2094 959 
Q 1503 1766 753 2516 
L 675 2384 
Q 259 2834 259 2941 
Q 259 3050 334 3353 
Q 353 3431 375 3431 
Q 397 3431 500 3338 
Q 1663 2272 2256 1194 
Q 2481 1575 2531 2228 
Q 2575 2794 2525 3428 
L 2863 3741 
Q 2972 3378 3050 3159 
z
M 2300 403 
Q 2303 431 2303 459 
Q 2303 628 2191 788 
Q 1991 547 1700 325 
Q 1775 319 1844 319 
Q 2128 319 2300 403 
z
" transform="scale(0.015625)"/>
    </defs>
    <use xlink:href="#BNazanin-fe99"/>
    <use xlink:href="#BNazanin-fead" x="67.724609"/>
    <use xlink:href="#BNazanin-feed" x="99.316406"/>
    <use xlink:href="#BNazanin-feae" x="131.494141"/>
    <use xlink:href="#BNazanin-fe97" x="169.091797"/>
    <use xlink:href="#BNazanin-fe8e" x="190.234375"/>
    <use xlink:href="#BNazanin-fe91" x="213.671875"/>
    <use xlink:href="#BNazanin-20" x="229.931641"/>
    <use xlink:href="#BNazanin-28" x="254.345703"/>
    <use xlink:href="#BNazanin-feb0" x="282.470703"/>
    <use xlink:href="#BNazanin-fe97" x="320.068359"/>
    <use xlink:href="#BNazanin-feae" x="341.210938"/>
    <use xlink:href="#BNazanin-feeb" x="378.808594"/>
    <use xlink:href="#BNazanin-20" x="418.261719"/>
    <use xlink:href="#BNazanin-33" x="442.675781"/>
    <use xlink:href="#BNazanin-30" x="489.550781"/>
    <use xlink:href="#BNazanin-29" x="536.425781"/>
    <use xlink:href="#BNazanin-20" x="564.550781"/>
    <use xlink:href="#BNazanin-fead" x="588.964844"/>
    <use xlink:href="#BNazanin-feac" x="620.556641"/>
    <use xlink:href="#BNazanin-fb94" x="667.96875"/>
    <use xlink:href="#BNazanin-fefb" x="705.322266"/>
    <use xlink:href="#BNazanin-fe8e" x="753.564453"/>
    <use xlink:href="#BNazanin-fe91" x="777.001953"/>
    <use xlink:href="#BNazanin-20" x="793.261719"/>
    <use xlink:href="#BNazanin-feae" x="817.675781"/>
    <use xlink:href="#BNazanin-fe98" x="855.273438"/>
    <use xlink:href="#BNazanin-fee0" x="886.035156"/>
    <use xlink:href="#BNazanin-fbff" x="909.130859"/>
    <use xlink:href="#BNazanin-fed3" x="939.892578"/>
   </g>
  </g>
 </g>
 <defs>
  <clipPath id="pd792803a65">
   <rect x="144" y="138.24" width="892.8" height="403.2"/>
  </clipPath>
  <clipPath id="p8d413f79c5">
   <rect x="144" y="622.08" width="892.8" height="403.2"/>
  </clipPath>
 </defs>
</svg>
