<?xml version="1.0" encoding="utf-8" standalone="no"?>
<!DOCTYPE svg PUBLIC "-//W3C//DTD SVG 1.1//EN"
  "http://www.w3.org/Graphics/SVG/1.1/DTD/svg11.dtd">
<svg xmlns:xlink="http://www.w3.org/1999/xlink" width="1152pt" height="1152pt" viewBox="0 0 1152 1152" xmlns="http://www.w3.org/2000/svg" version="1.1">
 <metadata>
  <rdf:RDF xmlns:dc="http://purl.org/dc/elements/1.1/" xmlns:cc="http://creativecommons.org/ns#" xmlns:rdf="http://www.w3.org/1999/02/22-rdf-syntax-ns#">
   <cc:Work>
    <dc:type rdf:resource="http://purl.org/dc/dcmitype/StillImage"/>
    <dc:date>2022-08-24T17:05:06.056556</dc:date>
    <dc:format>image/svg+xml</dc:format>
    <dc:creator>
     <cc:Agent>
      <dc:title>Matplotlib v3.5.3, https://matplotlib.org/</dc:title>
     </cc:Agent>
    </dc:creator>
   </cc:Work>
  </rdf:RDF>
 </metadata>
 <defs>
  <style type="text/css">*{stroke-linejoin: round; stroke-linecap: butt}</style>
 </defs>
 <g id="figure_1">
  <g id="patch_1">
   <path d="M 0 1152 
L 1152 1152 
L 1152 0 
L 0 0 
z
" style="fill: #ffffff"/>
  </g>
  <g id="axes_1">
   <g id="patch_2">
    <path d="M 144 541.44 
L 1036.8 541.44 
L 1036.8 138.24 
L 144 138.24 
z
" style="fill: #ffffff"/>
   </g>
   <g id="matplotlib.axis_1">
    <g id="xtick_1">
     <g id="line2d_1">
      <path d="M 184.581818 541.44 
L 184.581818 138.24 
" clip-path="url(#p337c3df071)" style="fill: none; stroke: #b0b0b0; stroke-width: 0.8; stroke-linecap: square"/>
     </g>
     <g id="line2d_2">
      <defs>
       <path id="m50e9bc713a" d="M 0 0 
L 0 3.5 
" style="stroke: #000000; stroke-width: 0.8"/>
      </defs>
      <g>
       <use xlink:href="#m50e9bc713a" x="184.581818" y="541.44" style="stroke: #000000; stroke-width: 0.8"/>
      </g>
     </g>
     <g id="text_1">
      <!-- 0 -->
      <g transform="translate(181.400568 556.038437)scale(0.1 -0.1)">
       <defs>
        <path id="DejaVuSans-30" d="M 2034 4250 
Q 1547 4250 1301 3770 
Q 1056 3291 1056 2328 
Q 1056 1369 1301 889 
Q 1547 409 2034 409 
Q 2525 409 2770 889 
Q 3016 1369 3016 2328 
Q 3016 3291 2770 3770 
Q 2525 4250 2034 4250 
z
M 2034 4750 
Q 2819 4750 3233 4129 
Q 3647 3509 3647 2328 
Q 3647 1150 3233 529 
Q 2819 -91 2034 -91 
Q 1250 -91 836 529 
Q 422 1150 422 2328 
Q 422 3509 836 4129 
Q 1250 4750 2034 4750 
z
" transform="scale(0.015625)"/>
       </defs>
       <use xlink:href="#DejaVuSans-30"/>
      </g>
     </g>
    </g>
    <g id="xtick_2">
     <g id="line2d_3">
      <path d="M 311.4 541.44 
L 311.4 138.24 
" clip-path="url(#p337c3df071)" style="fill: none; stroke: #b0b0b0; stroke-width: 0.8; stroke-linecap: square"/>
     </g>
     <g id="line2d_4">
      <g>
       <use xlink:href="#m50e9bc713a" x="311.4" y="541.44" style="stroke: #000000; stroke-width: 0.8"/>
      </g>
     </g>
     <g id="text_2">
      <!-- 20 -->
      <g transform="translate(305.0375 556.038437)scale(0.1 -0.1)">
       <defs>
        <path id="DejaVuSans-32" d="M 1228 531 
L 3431 531 
L 3431 0 
L 469 0 
L 469 531 
Q 828 903 1448 1529 
Q 2069 2156 2228 2338 
Q 2531 2678 2651 2914 
Q 2772 3150 2772 3378 
Q 2772 3750 2511 3984 
Q 2250 4219 1831 4219 
Q 1534 4219 1204 4116 
Q 875 4013 500 3803 
L 500 4441 
Q 881 4594 1212 4672 
Q 1544 4750 1819 4750 
Q 2544 4750 2975 4387 
Q 3406 4025 3406 3419 
Q 3406 3131 3298 2873 
Q 3191 2616 2906 2266 
Q 2828 2175 2409 1742 
Q 1991 1309 1228 531 
z
" transform="scale(0.015625)"/>
       </defs>
       <use xlink:href="#DejaVuSans-32"/>
       <use xlink:href="#DejaVuSans-30" x="63.623047"/>
      </g>
     </g>
    </g>
    <g id="xtick_3">
     <g id="line2d_5">
      <path d="M 438.218182 541.44 
L 438.218182 138.24 
" clip-path="url(#p337c3df071)" style="fill: none; stroke: #b0b0b0; stroke-width: 0.8; stroke-linecap: square"/>
     </g>
     <g id="line2d_6">
      <g>
       <use xlink:href="#m50e9bc713a" x="438.218182" y="541.44" style="stroke: #000000; stroke-width: 0.8"/>
      </g>
     </g>
     <g id="text_3">
      <!-- 40 -->
      <g transform="translate(431.855682 556.038437)scale(0.1 -0.1)">
       <defs>
        <path id="DejaVuSans-34" d="M 2419 4116 
L 825 1625 
L 2419 1625 
L 2419 4116 
z
M 2253 4666 
L 3047 4666 
L 3047 1625 
L 3713 1625 
L 3713 1100 
L 3047 1100 
L 3047 0 
L 2419 0 
L 2419 1100 
L 313 1100 
L 313 1709 
L 2253 4666 
z
" transform="scale(0.015625)"/>
       </defs>
       <use xlink:href="#DejaVuSans-34"/>
       <use xlink:href="#DejaVuSans-30" x="63.623047"/>
      </g>
     </g>
    </g>
    <g id="xtick_4">
     <g id="line2d_7">
      <path d="M 565.036364 541.44 
L 565.036364 138.24 
" clip-path="url(#p337c3df071)" style="fill: none; stroke: #b0b0b0; stroke-width: 0.8; stroke-linecap: square"/>
     </g>
     <g id="line2d_8">
      <g>
       <use xlink:href="#m50e9bc713a" x="565.036364" y="541.44" style="stroke: #000000; stroke-width: 0.8"/>
      </g>
     </g>
     <g id="text_4">
      <!-- 60 -->
      <g transform="translate(558.673864 556.038437)scale(0.1 -0.1)">
       <defs>
        <path id="DejaVuSans-36" d="M 2113 2584 
Q 1688 2584 1439 2293 
Q 1191 2003 1191 1497 
Q 1191 994 1439 701 
Q 1688 409 2113 409 
Q 2538 409 2786 701 
Q 3034 994 3034 1497 
Q 3034 2003 2786 2293 
Q 2538 2584 2113 2584 
z
M 3366 4563 
L 3366 3988 
Q 3128 4100 2886 4159 
Q 2644 4219 2406 4219 
Q 1781 4219 1451 3797 
Q 1122 3375 1075 2522 
Q 1259 2794 1537 2939 
Q 1816 3084 2150 3084 
Q 2853 3084 3261 2657 
Q 3669 2231 3669 1497 
Q 3669 778 3244 343 
Q 2819 -91 2113 -91 
Q 1303 -91 875 529 
Q 447 1150 447 2328 
Q 447 3434 972 4092 
Q 1497 4750 2381 4750 
Q 2619 4750 2861 4703 
Q 3103 4656 3366 4563 
z
" transform="scale(0.015625)"/>
       </defs>
       <use xlink:href="#DejaVuSans-36"/>
       <use xlink:href="#DejaVuSans-30" x="63.623047"/>
      </g>
     </g>
    </g>
    <g id="xtick_5">
     <g id="line2d_9">
      <path d="M 691.854545 541.44 
L 691.854545 138.24 
" clip-path="url(#p337c3df071)" style="fill: none; stroke: #b0b0b0; stroke-width: 0.8; stroke-linecap: square"/>
     </g>
     <g id="line2d_10">
      <g>
       <use xlink:href="#m50e9bc713a" x="691.854545" y="541.44" style="stroke: #000000; stroke-width: 0.8"/>
      </g>
     </g>
     <g id="text_5">
      <!-- 80 -->
      <g transform="translate(685.492045 556.038437)scale(0.1 -0.1)">
       <defs>
        <path id="DejaVuSans-38" d="M 2034 2216 
Q 1584 2216 1326 1975 
Q 1069 1734 1069 1313 
Q 1069 891 1326 650 
Q 1584 409 2034 409 
Q 2484 409 2743 651 
Q 3003 894 3003 1313 
Q 3003 1734 2745 1975 
Q 2488 2216 2034 2216 
z
M 1403 2484 
Q 997 2584 770 2862 
Q 544 3141 544 3541 
Q 544 4100 942 4425 
Q 1341 4750 2034 4750 
Q 2731 4750 3128 4425 
Q 3525 4100 3525 3541 
Q 3525 3141 3298 2862 
Q 3072 2584 2669 2484 
Q 3125 2378 3379 2068 
Q 3634 1759 3634 1313 
Q 3634 634 3220 271 
Q 2806 -91 2034 -91 
Q 1263 -91 848 271 
Q 434 634 434 1313 
Q 434 1759 690 2068 
Q 947 2378 1403 2484 
z
M 1172 3481 
Q 1172 3119 1398 2916 
Q 1625 2713 2034 2713 
Q 2441 2713 2670 2916 
Q 2900 3119 2900 3481 
Q 2900 3844 2670 4047 
Q 2441 4250 2034 4250 
Q 1625 4250 1398 4047 
Q 1172 3844 1172 3481 
z
" transform="scale(0.015625)"/>
       </defs>
       <use xlink:href="#DejaVuSans-38"/>
       <use xlink:href="#DejaVuSans-30" x="63.623047"/>
      </g>
     </g>
    </g>
    <g id="xtick_6">
     <g id="line2d_11">
      <path d="M 818.672727 541.44 
L 818.672727 138.24 
" clip-path="url(#p337c3df071)" style="fill: none; stroke: #b0b0b0; stroke-width: 0.8; stroke-linecap: square"/>
     </g>
     <g id="line2d_12">
      <g>
       <use xlink:href="#m50e9bc713a" x="818.672727" y="541.44" style="stroke: #000000; stroke-width: 0.8"/>
      </g>
     </g>
     <g id="text_6">
      <!-- 100 -->
      <g transform="translate(809.128977 556.038437)scale(0.1 -0.1)">
       <defs>
        <path id="DejaVuSans-31" d="M 794 531 
L 1825 531 
L 1825 4091 
L 703 3866 
L 703 4441 
L 1819 4666 
L 2450 4666 
L 2450 531 
L 3481 531 
L 3481 0 
L 794 0 
L 794 531 
z
" transform="scale(0.015625)"/>
       </defs>
       <use xlink:href="#DejaVuSans-31"/>
       <use xlink:href="#DejaVuSans-30" x="63.623047"/>
       <use xlink:href="#DejaVuSans-30" x="127.246094"/>
      </g>
     </g>
    </g>
    <g id="xtick_7">
     <g id="line2d_13">
      <path d="M 945.490909 541.44 
L 945.490909 138.24 
" clip-path="url(#p337c3df071)" style="fill: none; stroke: #b0b0b0; stroke-width: 0.8; stroke-linecap: square"/>
     </g>
     <g id="line2d_14">
      <g>
       <use xlink:href="#m50e9bc713a" x="945.490909" y="541.44" style="stroke: #000000; stroke-width: 0.8"/>
      </g>
     </g>
     <g id="text_7">
      <!-- 120 -->
      <g transform="translate(935.947159 556.038437)scale(0.1 -0.1)">
       <use xlink:href="#DejaVuSans-31"/>
       <use xlink:href="#DejaVuSans-32" x="63.623047"/>
       <use xlink:href="#DejaVuSans-30" x="127.246094"/>
      </g>
     </g>
    </g>
    <g id="text_8">
     <!-- (ﺰﺗﺮﻫ) ﺲﻧﺎﮐﺮﻓ -->
     <g transform="translate(563.350312 569.220625)scale(0.12 -0.12)">
      <defs>
       <path id="BNazanin-28" d="M 1791 3238 
Q 1747 3166 1569 2913 
Q 934 2009 934 1275 
Q 934 675 1256 81 
Q 1363 -116 1775 -675 
Q 1794 -700 1794 -728 
Q 1794 -800 1697 -800 
Q 1613 -800 1331 -525 
Q 991 -194 775 203 
Q 488 731 488 1259 
Q 488 1863 831 2422 
Q 1147 2931 1681 3297 
Q 1722 3325 1756 3309 
Q 1791 3294 1791 3238 
z
" transform="scale(0.015625)"/>
       <path id="BNazanin-feb0" d="M 2488 3 
L 2319 3 
Q 2100 3 1988 78 
Q 1994 16 1994 -47 
Q 1994 -609 1628 -1131 
Q 1313 -1581 1113 -1581 
Q 656 -1581 325 -1534 
Q 216 -1519 216 -1481 
Q 216 -1444 328 -1422 
Q 797 -1325 1272 -925 
Q 1778 -497 1778 -103 
Q 1778 159 1359 566 
L 1544 941 
Q 1566 988 1581 991 
Q 1600 984 1634 938 
Q 1819 694 1919 613 
Q 2106 466 2363 466 
L 2488 466 
L 2488 3 
z
M 1722 2113 
L 1397 1788 
L 1072 2116 
L 1397 2438 
L 1722 2113 
z
" transform="scale(0.015625)"/>
       <path id="BNazanin-fe97" d="M 1038 797 
Q 1038 3 247 3 
L -81 3 
L -81 466 
L 191 466 
Q 788 466 788 681 
Q 788 831 516 1178 
L 678 1572 
Q 703 1631 719 1631 
Q 734 1631 784 1559 
Q 1038 1188 1038 797 
z
M 1353 2547 
L 1044 2238 
L 731 2550 
L 1041 2856 
L 1353 2547 
z
M 666 2547 
L 359 2238 
L 47 2550 
L 356 2856 
L 666 2547 
z
" transform="scale(0.015625)"/>
       <path id="BNazanin-feae" d="M 2488 3 
L 2319 3 
Q 2100 3 1988 78 
Q 1994 16 1994 -47 
Q 1994 -609 1628 -1131 
Q 1313 -1581 1113 -1581 
Q 656 -1581 325 -1534 
Q 216 -1519 216 -1481 
Q 216 -1444 328 -1422 
Q 797 -1325 1272 -925 
Q 1778 -497 1778 -103 
Q 1778 159 1359 566 
L 1544 941 
Q 1566 988 1581 991 
Q 1600 984 1634 938 
Q 1819 694 1919 613 
Q 2106 466 2363 466 
L 2488 466 
L 2488 3 
z
" transform="scale(0.015625)"/>
       <path id="BNazanin-feeb" d="M 2522 819 
Q 2522 597 2372 350 
Q 2194 59 1953 59 
Q 1766 59 1097 334 
Q 575 3 138 3 
L -81 3 
L -81 466 
L 153 466 
Q 419 466 628 522 
Q 381 697 381 997 
Q 381 1384 903 1784 
L 638 1916 
Q 753 2031 981 2269 
Q 1544 1997 1934 1691 
Q 2522 1228 2522 819 
z
M 2309 663 
Q 2309 825 2063 1063 
Q 1863 1256 1697 1341 
Q 1697 866 1422 634 
Q 1916 472 2066 472 
Q 2309 472 2309 663 
z
M 1469 1134 
Q 1469 1288 1400 1416 
Q 1319 1569 1178 1569 
Q 1022 1569 844 1434 
Q 656 1294 656 1144 
Q 656 881 1091 753 
Q 1228 784 1341 888 
Q 1469 1003 1469 1134 
z
" transform="scale(0.015625)"/>
       <path id="BNazanin-29" d="M 488 -728 
Q 519 -672 709 -403 
Q 1347 497 1347 1238 
Q 1347 1841 1025 2428 
Q 919 2622 503 3184 
Q 484 3209 484 3238 
Q 484 3313 584 3313 
Q 669 3313 947 3038 
Q 1288 2700 1503 2306 
Q 1791 1778 1791 1250 
Q 1791 638 1450 88 
Q 1138 -419 597 -788 
Q 559 -813 525 -797 
Q 488 -781 488 -728 
z
" transform="scale(0.015625)"/>
       <path id="BNazanin-20" transform="scale(0.015625)"/>
       <path id="BNazanin-feb2" d="M 6116 3 
L 5897 3 
Q 5494 3 5328 331 
Q 5184 -13 4797 -13 
Q 4434 -13 4291 344 
Q 4094 -16 3725 -16 
Q 3588 -16 3428 34 
Q 3416 -325 3384 -728 
Q 3225 -1175 2697 -1419 
Q 2244 -1628 1716 -1628 
Q 1191 -1628 853 -1369 
Q 484 -1081 484 -569 
Q 484 -297 619 13 
Q 716 234 819 359 
Q 869 419 909 419 
Q 947 419 947 375 
Q 947 347 928 309 
Q 750 -56 750 -359 
Q 750 -656 947 -872 
Q 1206 -1156 1731 -1156 
Q 2325 -1156 2766 -944 
Q 3128 -769 3222 -563 
Q 3253 -494 3231 -297 
Q 3209 -97 3172 0 
Q 3100 188 2784 594 
L 2959 925 
Q 2997 997 3016 997 
Q 3031 997 3072 938 
Q 3238 688 3300 628 
Q 3469 463 3706 463 
Q 3972 463 4091 606 
Q 4169 700 4216 947 
Q 4238 1059 4288 1059 
Q 4338 1059 4350 959 
Q 4416 456 4784 456 
Q 5228 456 5278 931 
Q 5291 1050 5341 1050 
Q 5397 1050 5413 934 
Q 5475 466 5884 466 
L 6116 466 
L 6116 3 
z
" transform="scale(0.015625)"/>
       <path id="BNazanin-fee7" d="M 1038 797 
Q 1038 3 247 3 
L -81 3 
L -81 466 
L 191 466 
Q 788 466 788 681 
Q 788 831 516 1178 
L 678 1572 
Q 703 1631 719 1631 
Q 734 1631 784 1559 
Q 1038 1188 1038 797 
z
M 1006 2619 
L 681 2294 
L 356 2622 
L 681 2947 
L 1006 2619 
z
" transform="scale(0.015625)"/>
       <path id="BNazanin-fe8e" d="M 1584 3 
L 1313 3 
Q 866 3 694 369 
Q 572 625 575 1134 
L 578 1897 
Q 581 2450 484 3453 
L 731 3716 
Q 800 3788 813 3706 
Q 897 3184 897 2128 
L 897 963 
Q 897 466 1375 466 
L 1584 466 
L 1584 3 
z
" transform="scale(0.015625)"/>
       <path id="BNazanin-fb90" d="M 2559 3703 
Q 2544 3600 2406 3244 
L 1397 2928 
Q 719 2709 478 2566 
Q 953 2094 1122 1878 
Q 1444 1466 1478 1097 
Q 1506 800 1391 519 
Q 1181 3 134 3 
L -81 3 
L -81 466 
L 144 466 
Q 616 466 822 509 
Q 1253 600 1253 894 
Q 1253 1294 597 1888 
L 541 1800 
Q 478 1850 325 2050 
Q 159 2259 159 2306 
Q 159 2419 203 2609 
Q 253 2822 309 2888 
Q 347 2931 1134 3225 
Q 2019 3556 2559 3703 
z
" transform="scale(0.015625)"/>
       <path id="BNazanin-fed3" d="M 1631 1134 
L 1631 972 
Q 1631 578 1513 406 
Q 1234 3 481 3 
L -81 3 
L -81 466 
L 316 466 
Q 1341 466 1431 800 
Q 1441 834 1441 881 
Q 1441 975 1406 1034 
Q 1150 981 875 981 
Q 316 981 313 1447 
Q 309 1769 466 2078 
Q 653 2450 947 2450 
Q 1206 2450 1406 2116 
Q 1631 1738 1631 1134 
z
M 1328 1481 
Q 1328 1672 1195 1828 
Q 1063 1984 875 1984 
Q 741 1984 653 1900 
Q 566 1816 563 1684 
Q 559 1434 947 1428 
Q 1116 1425 1328 1481 
z
M 1166 3328 
L 844 3003 
L 516 3331 
L 841 3656 
L 1166 3328 
z
" transform="scale(0.015625)"/>
      </defs>
      <use xlink:href="#BNazanin-28"/>
      <use xlink:href="#BNazanin-feb0" x="28.125"/>
      <use xlink:href="#BNazanin-fe97" x="65.722656"/>
      <use xlink:href="#BNazanin-feae" x="86.865234"/>
      <use xlink:href="#BNazanin-feeb" x="124.462891"/>
      <use xlink:href="#BNazanin-29" x="163.916016"/>
      <use xlink:href="#BNazanin-20" x="192.041016"/>
      <use xlink:href="#BNazanin-feb2" x="216.455078"/>
      <use xlink:href="#BNazanin-fee7" x="310.742188"/>
      <use xlink:href="#BNazanin-fe8e" x="327.001953"/>
      <use xlink:href="#BNazanin-fb90" x="350.439453"/>
      <use xlink:href="#BNazanin-feae" x="387.792969"/>
      <use xlink:href="#BNazanin-fed3" x="425.390625"/>
     </g>
    </g>
   </g>
   <g id="matplotlib.axis_2">
    <g id="ytick_1">
     <g id="line2d_15">
      <path d="M 144 523.112727 
L 1036.8 523.112727 
" clip-path="url(#p337c3df071)" style="fill: none; stroke: #b0b0b0; stroke-width: 0.8; stroke-linecap: square"/>
     </g>
     <g id="line2d_16">
      <defs>
       <path id="m35d2a4451a" d="M 0 0 
L -3.5 0 
" style="stroke: #000000; stroke-width: 0.8"/>
      </defs>
      <g>
       <use xlink:href="#m35d2a4451a" x="144" y="523.112727" style="stroke: #000000; stroke-width: 0.8"/>
      </g>
     </g>
     <g id="text_9">
      <!-- 0.0 -->
      <g transform="translate(121.096875 526.911946)scale(0.1 -0.1)">
       <defs>
        <path id="DejaVuSans-2e" d="M 684 794 
L 1344 794 
L 1344 0 
L 684 0 
L 684 794 
z
" transform="scale(0.015625)"/>
       </defs>
       <use xlink:href="#DejaVuSans-30"/>
       <use xlink:href="#DejaVuSans-2e" x="63.623047"/>
       <use xlink:href="#DejaVuSans-30" x="95.410156"/>
      </g>
     </g>
    </g>
    <g id="ytick_2">
     <g id="line2d_17">
      <path d="M 144 449.803636 
L 1036.8 449.803636 
" clip-path="url(#p337c3df071)" style="fill: none; stroke: #b0b0b0; stroke-width: 0.8; stroke-linecap: square"/>
     </g>
     <g id="line2d_18">
      <g>
       <use xlink:href="#m35d2a4451a" x="144" y="449.803636" style="stroke: #000000; stroke-width: 0.8"/>
      </g>
     </g>
     <g id="text_10">
      <!-- 0.2 -->
      <g transform="translate(121.096875 453.602855)scale(0.1 -0.1)">
       <use xlink:href="#DejaVuSans-30"/>
       <use xlink:href="#DejaVuSans-2e" x="63.623047"/>
       <use xlink:href="#DejaVuSans-32" x="95.410156"/>
      </g>
     </g>
    </g>
    <g id="ytick_3">
     <g id="line2d_19">
      <path d="M 144 376.494545 
L 1036.8 376.494545 
" clip-path="url(#p337c3df071)" style="fill: none; stroke: #b0b0b0; stroke-width: 0.8; stroke-linecap: square"/>
     </g>
     <g id="line2d_20">
      <g>
       <use xlink:href="#m35d2a4451a" x="144" y="376.494545" style="stroke: #000000; stroke-width: 0.8"/>
      </g>
     </g>
     <g id="text_11">
      <!-- 0.4 -->
      <g transform="translate(121.096875 380.293764)scale(0.1 -0.1)">
       <use xlink:href="#DejaVuSans-30"/>
       <use xlink:href="#DejaVuSans-2e" x="63.623047"/>
       <use xlink:href="#DejaVuSans-34" x="95.410156"/>
      </g>
     </g>
    </g>
    <g id="ytick_4">
     <g id="line2d_21">
      <path d="M 144 303.185455 
L 1036.8 303.185455 
" clip-path="url(#p337c3df071)" style="fill: none; stroke: #b0b0b0; stroke-width: 0.8; stroke-linecap: square"/>
     </g>
     <g id="line2d_22">
      <g>
       <use xlink:href="#m35d2a4451a" x="144" y="303.185455" style="stroke: #000000; stroke-width: 0.8"/>
      </g>
     </g>
     <g id="text_12">
      <!-- 0.6 -->
      <g transform="translate(121.096875 306.984673)scale(0.1 -0.1)">
       <use xlink:href="#DejaVuSans-30"/>
       <use xlink:href="#DejaVuSans-2e" x="63.623047"/>
       <use xlink:href="#DejaVuSans-36" x="95.410156"/>
      </g>
     </g>
    </g>
    <g id="ytick_5">
     <g id="line2d_23">
      <path d="M 144 229.876364 
L 1036.8 229.876364 
" clip-path="url(#p337c3df071)" style="fill: none; stroke: #b0b0b0; stroke-width: 0.8; stroke-linecap: square"/>
     </g>
     <g id="line2d_24">
      <g>
       <use xlink:href="#m35d2a4451a" x="144" y="229.876364" style="stroke: #000000; stroke-width: 0.8"/>
      </g>
     </g>
     <g id="text_13">
      <!-- 0.8 -->
      <g transform="translate(121.096875 233.675582)scale(0.1 -0.1)">
       <use xlink:href="#DejaVuSans-30"/>
       <use xlink:href="#DejaVuSans-2e" x="63.623047"/>
       <use xlink:href="#DejaVuSans-38" x="95.410156"/>
      </g>
     </g>
    </g>
    <g id="ytick_6">
     <g id="line2d_25">
      <path d="M 144 156.567273 
L 1036.8 156.567273 
" clip-path="url(#p337c3df071)" style="fill: none; stroke: #b0b0b0; stroke-width: 0.8; stroke-linecap: square"/>
     </g>
     <g id="line2d_26">
      <g>
       <use xlink:href="#m35d2a4451a" x="144" y="156.567273" style="stroke: #000000; stroke-width: 0.8"/>
      </g>
     </g>
     <g id="text_14">
      <!-- 1.0 -->
      <g transform="translate(121.096875 160.366491)scale(0.1 -0.1)">
       <use xlink:href="#DejaVuSans-31"/>
       <use xlink:href="#DejaVuSans-2e" x="63.623047"/>
       <use xlink:href="#DejaVuSans-30" x="95.410156"/>
      </g>
     </g>
    </g>
    <g id="text_15">
     <!-- ﻦﯿﮔ -->
     <g transform="translate(114.044375 347.63625)rotate(-90)scale(0.12 -0.12)">
      <defs>
       <path id="BNazanin-fee6" d="M 4041 3 
L 3841 3 
Q 3547 3 3453 59 
Q 3475 -103 3475 -275 
Q 3475 -550 3413 -728 
Q 3256 -1175 2709 -1422 
Q 2253 -1628 1716 -1628 
Q 1191 -1628 853 -1369 
Q 484 -1081 484 -569 
Q 484 -297 619 13 
Q 716 234 819 359 
Q 869 419 909 419 
Q 947 419 947 375 
Q 947 347 928 309 
Q 750 -56 750 -359 
Q 750 -656 947 -872 
Q 1206 -1156 1731 -1156 
Q 2325 -1156 2781 -944 
Q 3156 -769 3250 -563 
Q 3281 -497 3259 -297 
Q 3241 -103 3200 0 
Q 3122 200 2809 594 
L 2988 925 
Q 3025 997 3044 997 
Q 3063 997 3100 938 
Q 3406 466 3731 466 
L 4041 466 
L 4041 3 
z
M 2275 1791 
L 1950 1466 
L 1622 1794 
L 1947 2119 
L 2275 1791 
z
" transform="scale(0.015625)"/>
       <path id="BNazanin-fbff" d="M 2050 3 
L 1744 3 
Q 1191 3 1003 366 
Q 797 3 178 3 
L -81 3 
L -81 466 
L 275 466 
Q 859 466 913 919 
Q 934 1100 1003 1100 
Q 1072 1100 1091 913 
Q 1131 466 1697 466 
L 2050 466 
L 2050 3 
z
M 1419 -878 
L 1109 -1188 
L 797 -875 
L 1106 -566 
L 1419 -878 
z
M 731 -878 
L 425 -1188 
L 113 -875 
L 422 -566 
L 731 -878 
z
" transform="scale(0.015625)"/>
       <path id="BNazanin-fb94" d="M 2403 3841 
L 2322 3544 
L 363 2916 
L 447 3203 
L 2403 3841 
z
M 2488 3244 
Q 2472 3141 2363 2803 
Q 1638 2622 597 2266 
Q 1338 1559 1403 1091 
Q 1447 763 1328 500 
Q 1197 209 903 100 
Q 644 3 91 3 
L -81 3 
L -81 466 
L 56 466 
Q 1197 466 1197 859 
Q 1197 1178 572 1778 
L 519 1678 
Q 453 1731 303 1913 
Q 141 2109 141 2156 
Q 141 2359 291 2525 
Q 325 2563 1088 2816 
Q 1897 3084 2488 3244 
z
" transform="scale(0.015625)"/>
      </defs>
      <use xlink:href="#BNazanin-fee6"/>
      <use xlink:href="#BNazanin-fbff" x="61.816406"/>
      <use xlink:href="#BNazanin-fb94" x="92.578125"/>
     </g>
    </g>
   </g>
   <g id="line2d_27">
    <path d="M 184.581818 156.567273 
L 189.451636 156.676637 
L 194.321455 157.004222 
L 199.191273 157.548506 
L 204.061091 158.30698 
L 208.930909 159.276173 
L 214.206545 160.55882 
L 219.482182 162.076909 
L 224.757818 163.822652 
L 230.439273 165.947214 
L 236.120727 168.313589 
L 242.208 171.102542 
L 248.295273 174.137179 
L 254.788364 177.624943 
L 261.687273 181.590123 
L 268.992 186.050569 
L 276.702545 191.016638 
L 285.224727 196.769991 
L 294.964364 203.625932 
L 305.921455 211.616537 
L 319.719273 221.967181 
L 342.445091 239.345483 
L 368.417455 259.131488 
L 385.056 271.521934 
L 399.665455 282.127082 
L 413.463273 291.868353 
L 426.855273 301.046385 
L 439.841455 309.674714 
L 452.827636 318.030844 
L 465.408 325.866073 
L 478.394182 333.689048 
L 491.380364 341.248557 
L 504.366545 348.552282 
L 517.758545 355.825893 
L 531.150545 362.847931 
L 544.948364 369.83174 
L 559.152 376.768258 
L 573.761455 383.650192 
L 588.776727 390.471942 
L 604.197818 397.229525 
L 620.024727 403.920479 
L 636.257455 410.543762 
L 653.301818 417.256768 
L 671.157818 424.045008 
L 689.419636 430.750366 
L 708.898909 437.661891 
L 729.189818 444.622063 
L 750.698182 451.760556 
L 773.424 459.065342 
L 797.773091 466.654119 
L 824.151273 474.63615 
L 852.964364 483.116378 
L 885.024 492.315963 
L 922.765091 502.907098 
L 973.086545 516.779639 
L 995.812364 523.001678 
L 995.812364 523.001678 
" clip-path="url(#p337c3df071)" style="fill: none; stroke: #1f77b4; stroke-width: 1.5; stroke-linecap: square"/>
   </g>
   <g id="line2d_28">
    <path d="M 184.581818 156.567273 
L 242.208 156.676977 
L 254.788364 156.930007 
L 263.716364 157.31753 
L 271.021091 157.850526 
L 277.108364 158.50844 
L 282.384 159.286727 
L 287.253818 160.220354 
L 291.717818 161.295836 
L 295.776 162.488299 
L 299.834182 163.916946 
L 303.486545 165.431706 
L 307.138909 167.189302 
L 310.791273 169.215425 
L 314.037818 171.262788 
L 317.284364 173.560729 
L 320.530909 176.126574 
L 323.777455 178.976601 
L 327.024 182.125579 
L 330.270545 185.58628 
L 333.517091 189.368989 
L 336.763636 193.481032 
L 340.010182 197.926337 
L 343.662545 203.325699 
L 347.314909 209.141019 
L 350.967273 215.359605 
L 355.025455 222.718181 
L 359.489455 231.316196 
L 364.359273 241.227645 
L 369.634909 252.485085 
L 376.128 266.889554 
L 386.679273 290.948637 
L 398.042182 316.696857 
L 404.941091 331.791345 
L 411.028364 344.592498 
L 416.709818 356.022271 
L 421.985455 366.145418 
L 427.261091 375.773181 
L 432.130909 384.211425 
L 437.000727 392.217758 
L 441.870545 399.797101 
L 446.740364 406.958808 
L 451.610182 413.715567 
L 456.48 420.082458 
L 461.349818 426.076177 
L 466.219636 431.714408 
L 471.089455 437.015315 
L 475.959273 441.997153 
L 480.829091 446.677973 
L 486.104727 451.429597 
L 491.380364 455.870243 
L 496.656 460.020572 
L 501.931636 463.900187 
L 507.613091 467.796669 
L 513.294545 471.422252 
L 518.976 474.797079 
L 525.063273 478.155908 
L 531.150545 481.269536 
L 537.643636 484.342407 
L 544.542545 487.350104 
L 551.441455 490.11586 
L 558.746182 492.804279 
L 566.456727 495.398922 
L 574.573091 497.886311 
L 583.095273 500.255814 
L 592.023273 502.499481 
L 601.357091 504.611829 
L 611.096727 506.589601 
L 621.648 508.500915 
L 632.605091 510.261114 
L 644.373818 511.928055 
L 656.954182 513.486436 
L 670.752 514.965723 
L 685.361455 516.306807 
L 701.188364 517.536989 
L 718.638545 518.666879 
L 737.712 519.675363 
L 758.814545 520.564547 
L 782.352 521.329345 
L 809.136 521.9695 
L 839.572364 522.468787 
L 875.690182 522.830568 
L 920.330182 523.044614 
L 986.072727 523.112568 
L 995.812364 523.112727 
L 995.812364 523.112727 
" clip-path="url(#p337c3df071)" style="fill: none; stroke: #ff7f0e; stroke-width: 1.5; stroke-linecap: square"/>
   </g>
   <g id="line2d_29">
    <path d="M 184.581818 156.567273 
L 290.500364 156.67738 
L 301.051636 156.923626 
L 307.950545 157.295326 
L 313.226182 157.79302 
L 317.690182 158.441639 
L 321.342545 159.192738 
L 324.589091 160.082297 
L 327.429818 161.077889 
L 330.270545 162.323536 
L 332.705455 163.630249 
L 335.140364 165.197591 
L 337.575273 167.067969 
L 339.604364 168.891545 
L 341.633455 170.986655 
L 343.662545 173.383544 
L 345.691636 176.113353 
L 347.720727 179.207457 
L 349.749818 182.696628 
L 351.778909 186.610019 
L 353.808 190.974004 
L 355.837091 195.810884 
L 358.272 202.262678 
L 360.706909 209.435525 
L 363.141818 217.328634 
L 365.576727 225.92208 
L 368.417455 236.778177 
L 371.664 250.157049 
L 375.316364 266.206717 
L 380.592 290.571827 
L 390.331636 335.806183 
L 394.795636 355.329352 
L 398.448 370.347428 
L 402.100364 384.37948 
L 405.346909 395.977305 
L 408.593455 406.740372 
L 411.84 416.680492 
L 415.086545 425.825174 
L 417.927273 433.204079 
L 420.768 440.03292 
L 423.608727 446.343718 
L 426.449455 452.169431 
L 429.290182 457.543009 
L 432.130909 462.496711 
L 435.377455 467.683773 
L 438.624 472.407022 
L 441.870545 476.707629 
L 445.117091 480.623753 
L 448.363636 484.190517 
L 451.610182 487.440091 
L 454.856727 490.401822 
L 458.509091 493.422847 
L 462.161455 496.147584 
L 465.813818 498.606728 
L 469.872 501.060881 
L 473.930182 503.25435 
L 478.394182 505.401122 
L 482.858182 507.302375 
L 487.728 509.131487 
L 493.003636 510.86225 
L 498.685091 512.475149 
L 504.772364 513.957087 
L 511.265455 515.300827 
L 518.164364 516.504234 
L 525.874909 517.623066 
L 534.397091 518.63344 
L 544.136727 519.556222 
L 555.093818 520.364094 
L 567.674182 521.064313 
L 582.689455 521.668316 
L 600.951273 522.167664 
L 623.677091 522.556382 
L 654.113455 522.84191 
L 699.565091 523.024306 
L 784.786909 523.104694 
L 995.812364 523.112727 
L 995.812364 523.112727 
" clip-path="url(#p337c3df071)" style="fill: none; stroke: #2ca02c; stroke-width: 1.5; stroke-linecap: square"/>
   </g>
   <g id="line2d_30">
    <path d="M 184.581818 263.925951 
L 996.218182 263.925951 
" clip-path="url(#p337c3df071)" style="fill: none; stroke-dasharray: 5.55,2.4; stroke-dashoffset: 0; stroke: #d62728; stroke-width: 1.5"/>
   </g>
   <g id="line2d_31">
    <path d="M 184.581818 156.567273 
L 374.504727 156.567273 
L 374.910545 523.112727 
L 995.812364 523.112727 
L 995.812364 523.112727 
" clip-path="url(#p337c3df071)" style="fill: none; stroke-dasharray: 5.55,2.4; stroke-dashoffset: 0; stroke: #000000; stroke-width: 1.5"/>
   </g>
   <g id="patch_3">
    <path d="M 144 541.44 
L 144 138.24 
" style="fill: none; stroke: #000000; stroke-width: 0.8; stroke-linejoin: miter; stroke-linecap: square"/>
   </g>
   <g id="patch_4">
    <path d="M 1036.8 541.44 
L 1036.8 138.24 
" style="fill: none; stroke: #000000; stroke-width: 0.8; stroke-linejoin: miter; stroke-linecap: square"/>
   </g>
   <g id="patch_5">
    <path d="M 144 541.44 
L 1036.8 541.44 
" style="fill: none; stroke: #000000; stroke-width: 0.8; stroke-linejoin: miter; stroke-linecap: square"/>
   </g>
   <g id="patch_6">
    <path d="M 144 138.24 
L 1036.8 138.24 
" style="fill: none; stroke: #000000; stroke-width: 0.8; stroke-linejoin: miter; stroke-linecap: square"/>
   </g>
   <g id="text_16">
    <!-- $\mathbf{f_c}$ -->
    <g transform="translate(369.469091 557.580341)scale(0.12 -0.12)">
     <defs>
      <path id="DejaVuSans-Bold-66" d="M 2841 4863 
L 2841 4128 
L 2222 4128 
Q 1984 4128 1890 4042 
Q 1797 3956 1797 3744 
L 1797 3500 
L 2753 3500 
L 2753 2700 
L 1797 2700 
L 1797 0 
L 678 0 
L 678 2700 
L 122 2700 
L 122 3500 
L 678 3500 
L 678 3744 
Q 678 4316 997 4589 
Q 1316 4863 1984 4863 
L 2841 4863 
z
" transform="scale(0.015625)"/>
      <path id="DejaVuSans-Bold-63" d="M 3366 3391 
L 3366 2478 
Q 3138 2634 2908 2709 
Q 2678 2784 2431 2784 
Q 1963 2784 1702 2511 
Q 1441 2238 1441 1747 
Q 1441 1256 1702 982 
Q 1963 709 2431 709 
Q 2694 709 2930 787 
Q 3166 866 3366 1019 
L 3366 103 
Q 3103 6 2833 -42 
Q 2563 -91 2291 -91 
Q 1344 -91 809 395 
Q 275 881 275 1747 
Q 275 2613 809 3098 
Q 1344 3584 2291 3584 
Q 2566 3584 2833 3536 
Q 3100 3488 3366 3391 
z
" transform="scale(0.015625)"/>
     </defs>
     <use xlink:href="#DejaVuSans-Bold-66" transform="translate(0 0.015625)"/>
     <use xlink:href="#DejaVuSans-Bold-63" transform="translate(44.462891 -16.390625)scale(0.7)"/>
    </g>
   </g>
   <g id="text_17">
    <!-- $\mathbf{\sqrt{0.5}}$ -->
    <g transform="translate(112.411364 267.546263)scale(0.1 -0.1)">
     <defs>
      <path id="STIXSizeOneSym-Regular-221a" d="M 6970 9933 
L 3373 -1888 
L 3104 -1888 
L 1626 2918 
Q 1555 3149 1465 3251 
Q 1376 3354 1229 3354 
Q 1011 3354 794 3181 
L 717 3309 
L 1766 4115 
L 1926 4115 
L 3379 -602 
L 3405 -602 
L 6605 9933 
L 6970 9933 
z
" transform="scale(0.015625)"/>
      <path id="DejaVuSans-Bold-30" d="M 2944 2338 
Q 2944 3213 2780 3570 
Q 2616 3928 2228 3928 
Q 1841 3928 1675 3570 
Q 1509 3213 1509 2338 
Q 1509 1453 1675 1090 
Q 1841 728 2228 728 
Q 2613 728 2778 1090 
Q 2944 1453 2944 2338 
z
M 4147 2328 
Q 4147 1169 3647 539 
Q 3147 -91 2228 -91 
Q 1306 -91 806 539 
Q 306 1169 306 2328 
Q 306 3491 806 4120 
Q 1306 4750 2228 4750 
Q 3147 4750 3647 4120 
Q 4147 3491 4147 2328 
z
" transform="scale(0.015625)"/>
      <path id="DejaVuSans-Bold-2e" d="M 653 1209 
L 1778 1209 
L 1778 0 
L 653 0 
L 653 1209 
z
" transform="scale(0.015625)"/>
      <path id="DejaVuSans-Bold-35" d="M 678 4666 
L 3669 4666 
L 3669 3781 
L 1638 3781 
L 1638 3059 
Q 1775 3097 1914 3117 
Q 2053 3138 2203 3138 
Q 3056 3138 3531 2711 
Q 4006 2284 4006 1522 
Q 4006 766 3489 337 
Q 2972 -91 2053 -91 
Q 1656 -91 1267 -14 
Q 878 63 494 219 
L 494 1166 
Q 875 947 1217 837 
Q 1559 728 1863 728 
Q 2300 728 2551 942 
Q 2803 1156 2803 1522 
Q 2803 1891 2551 2103 
Q 2300 2316 1863 2316 
Q 1603 2316 1309 2248 
Q 1016 2181 678 2041 
L 678 4666 
z
" transform="scale(0.015625)"/>
     </defs>
     <use xlink:href="#STIXSizeOneSym-Regular-221a" transform="translate(0 15.984375)scale(0.578716)"/>
     <use xlink:href="#DejaVuSans-Bold-30" transform="translate(73.673874 0.53125)"/>
     <use xlink:href="#DejaVuSans-Bold-2e" transform="translate(143.253952 0.53125)"/>
     <use xlink:href="#DejaVuSans-Bold-35" transform="translate(181.242233 0.53125)"/>
     <path d="M 61.173874 99.5 
L 61.173874 105.75 
L 263.322311 105.75 
L 263.322311 99.5 
L 61.173874 99.5 
z
"/>
    </g>
   </g>
   <g id="legend_1">
    <g id="patch_7">
     <path d="M 929.861875 250.835 
L 1027 250.835 
Q 1029.8 250.835 1029.8 248.035 
L 1029.8 148.04 
Q 1029.8 145.24 1027 145.24 
L 929.861875 145.24 
Q 927.061875 145.24 927.061875 148.04 
L 927.061875 248.035 
Q 927.061875 250.835 929.861875 250.835 
z
" style="fill: #ffffff; stroke: #cccccc; stroke-linejoin: miter"/>
    </g>
    <g id="line2d_32">
     <path d="M 932.661875 155.74 
L 946.661875 155.74 
L 960.661875 155.74 
" style="fill: none; stroke: #1f77b4; stroke-width: 1.5; stroke-linecap: square"/>
    </g>
    <g id="text_18">
     <!-- ﻪﺒﺗﺮﻣ = 1 -->
     <g transform="translate(971.861875 160.64)scale(0.14 -0.14)">
      <defs>
       <path id="BNazanin-feea" d="M 2738 3 
L 2441 3 
Q 1928 3 1791 641 
Q 1509 363 1466 363 
L 1113 363 
Q 925 363 741 419 
Q 484 497 484 638 
Q 484 1088 803 1369 
Q 1016 1556 1538 1763 
L 1459 2147 
L 1728 2450 
Q 1744 2400 2000 1141 
Q 2078 756 2144 641 
Q 2244 466 2459 466 
L 2738 466 
L 2738 3 
z
M 1741 819 
L 1606 1453 
Q 1403 1394 1122 1256 
Q 738 1069 738 959 
Q 738 869 1031 819 
Q 1238 784 1397 784 
Q 1594 784 1741 819 
z
" transform="scale(0.015625)"/>
       <path id="BNazanin-fe92" d="M 2050 3 
L 1744 3 
Q 1191 3 1003 366 
Q 797 3 178 3 
L -81 3 
L -81 466 
L 275 466 
Q 859 466 913 919 
Q 934 1100 1003 1100 
Q 1072 1100 1091 913 
Q 1131 466 1697 466 
L 2050 466 
L 2050 3 
z
M 1184 -878 
L 859 -1203 
L 531 -875 
L 856 -550 
L 1184 -878 
z
" transform="scale(0.015625)"/>
       <path id="BNazanin-fee3" d="M 2066 797 
Q 2091 500 1997 297 
Q 1853 -13 1678 -13 
Q 1359 -13 772 397 
Q 591 181 519 125 
Q 363 3 134 3 
L -81 3 
L -81 466 
L 203 466 
Q 472 466 675 741 
Q 775 884 1034 1250 
Q 1231 1525 1438 1525 
Q 1728 1525 1913 1231 
Q 2047 1016 2066 797 
z
M 1828 503 
Q 1828 678 1697 884 
Q 1550 1116 1375 1116 
Q 1197 1116 956 750 
Q 1056 641 1322 520 
Q 1588 400 1734 400 
Q 1828 400 1828 503 
z
" transform="scale(0.015625)"/>
       <path id="BNazanin-3d" d="M 2209 1425 
L 172 1425 
L 172 1666 
L 2209 1666 
L 2209 1425 
z
M 2209 656 
L 172 656 
L 172 894 
L 2209 894 
L 2209 656 
z
" transform="scale(0.015625)"/>
       <path id="BNazanin-31" d="M 1988 775 
Q 1988 -103 1794 -103 
Q 1700 -103 1681 219 
Q 1681 419 1681 619 
Q 1666 1022 1531 1525 
Q 1291 2425 859 3084 
L 1178 3584 
Q 1491 3125 1722 2388 
Q 1988 1541 1988 775 
z
" transform="scale(0.015625)"/>
      </defs>
      <use xlink:href="#BNazanin-feea"/>
      <use xlink:href="#BNazanin-fe92" x="41.503906"/>
      <use xlink:href="#BNazanin-fe97" x="72.265625"/>
      <use xlink:href="#BNazanin-feae" x="93.408203"/>
      <use xlink:href="#BNazanin-fee3" x="131.005859"/>
      <use xlink:href="#BNazanin-20" x="163.330078"/>
      <use xlink:href="#BNazanin-3d" x="187.744141"/>
      <use xlink:href="#BNazanin-20" x="225.195312"/>
      <use xlink:href="#BNazanin-31" x="249.609375"/>
     </g>
    </g>
    <g id="line2d_33">
     <path d="M 932.661875 175.998438 
L 946.661875 175.998438 
L 960.661875 175.998438 
" style="fill: none; stroke: #ff7f0e; stroke-width: 1.5; stroke-linecap: square"/>
    </g>
    <g id="text_19">
     <!-- ﻪﺒﺗﺮﻣ = 3 -->
     <g transform="translate(971.861875 180.898438)scale(0.14 -0.14)">
      <defs>
       <path id="BNazanin-33" d="M 2738 3441 
Q 2738 2494 2147 2494 
Q 2028 2494 1901 2566 
Q 1775 2638 1722 2741 
Q 1675 2597 1519 2506 
Q 1375 2425 1213 2425 
Q 1125 2425 1050 2450 
Q 1184 2203 1309 1722 
Q 1459 1144 1459 666 
Q 1459 216 1453 150 
Q 1428 -106 1309 -106 
Q 1244 -106 1194 253 
Q 1169 469 1144 684 
Q 1084 1100 913 1603 
Q 628 2431 166 3038 
L 463 3563 
Q 750 3150 759 3144 
Q 938 2950 1191 2950 
Q 1400 2950 1506 3125 
Q 1556 3209 1628 3466 
Q 1663 3591 1731 3591 
Q 1809 3591 1828 3425 
Q 1850 3222 1903 3138 
Q 1988 3003 2184 3003 
Q 2378 3003 2463 3166 
Q 2497 3231 2547 3453 
Q 2581 3603 2663 3603 
Q 2738 3603 2738 3441 
z
" transform="scale(0.015625)"/>
      </defs>
      <use xlink:href="#BNazanin-feea"/>
      <use xlink:href="#BNazanin-fe92" x="41.503906"/>
      <use xlink:href="#BNazanin-fe97" x="72.265625"/>
      <use xlink:href="#BNazanin-feae" x="93.408203"/>
      <use xlink:href="#BNazanin-fee3" x="131.005859"/>
      <use xlink:href="#BNazanin-20" x="163.330078"/>
      <use xlink:href="#BNazanin-3d" x="187.744141"/>
      <use xlink:href="#BNazanin-20" x="225.195312"/>
      <use xlink:href="#BNazanin-33" x="249.609375"/>
     </g>
    </g>
    <g id="line2d_34">
     <path d="M 932.661875 196.256875 
L 946.661875 196.256875 
L 960.661875 196.256875 
" style="fill: none; stroke: #2ca02c; stroke-width: 1.5; stroke-linecap: square"/>
    </g>
    <g id="text_20">
     <!-- ﻪﺒﺗﺮﻣ = 6 -->
     <g transform="translate(971.861875 201.156875)scale(0.14 -0.14)">
      <defs>
       <path id="BNazanin-36" d="M 2575 2534 
L 2363 1925 
Q 1091 1500 419 -6 
Q 375 -103 322 -103 
Q 250 -103 263 16 
Q 306 428 566 959 
Q 800 1438 1116 1722 
Q 384 1816 384 2422 
Q 384 2719 744 3138 
Q 1141 3600 1509 3600 
Q 1703 3600 1906 3469 
Q 2125 3325 2156 3144 
Q 2166 3097 2136 3070 
Q 2106 3044 2059 3056 
Q 1756 3138 1500 3138 
Q 1250 3138 1031 2997 
Q 784 2838 784 2600 
Q 784 2203 1472 2203 
Q 1650 2203 1966 2350 
Q 2066 2397 2456 2588 
Q 2531 2625 2563 2606 
Q 2594 2588 2575 2534 
z
" transform="scale(0.015625)"/>
      </defs>
      <use xlink:href="#BNazanin-feea"/>
      <use xlink:href="#BNazanin-fe92" x="41.503906"/>
      <use xlink:href="#BNazanin-fe97" x="72.265625"/>
      <use xlink:href="#BNazanin-feae" x="93.408203"/>
      <use xlink:href="#BNazanin-fee3" x="131.005859"/>
      <use xlink:href="#BNazanin-20" x="163.330078"/>
      <use xlink:href="#BNazanin-3d" x="187.744141"/>
      <use xlink:href="#BNazanin-20" x="225.195312"/>
      <use xlink:href="#BNazanin-36" x="249.609375"/>
     </g>
    </g>
    <g id="line2d_35">
     <path d="M 932.661875 216.515313 
L 946.661875 216.515313 
L 960.661875 216.515313 
" style="fill: none; stroke-dasharray: 5.55,2.4; stroke-dashoffset: 0; stroke: #d62728; stroke-width: 1.5"/>
    </g>
    <g id="text_21">
     <!-- ﻦﯿﮔ ﻒﯿﻌﻀﺗ -->
     <g transform="translate(971.861875 221.415313)scale(0.14 -0.14)">
      <defs>
       <path id="BNazanin-fed2" d="M 4734 3 
L 4481 3 
Q 4119 3 3678 244 
Q 3478 159 3363 119 
Q 2791 -78 1894 -78 
Q 1281 -78 975 41 
Q 484 231 484 731 
Q 484 1134 703 1453 
Q 747 1519 794 1519 
Q 825 1519 828 1466 
Q 828 1438 813 1391 
Q 722 1141 722 1006 
Q 716 584 1250 450 
Q 1513 384 2116 384 
Q 2616 384 2888 428 
Q 3044 453 3244 522 
Q 3041 713 3038 1028 
Q 3034 1306 3247 1619 
Q 3475 1956 3738 1959 
Q 4025 1963 4178 1669 
Q 4300 1438 4300 1119 
Q 4300 753 4044 544 
Q 4188 466 4556 466 
L 4734 466 
L 4734 3 
z
M 4084 1031 
Q 4084 1156 3953 1323 
Q 3822 1491 3700 1491 
Q 3578 1491 3420 1341 
Q 3263 1191 3259 1069 
Q 3253 828 3706 644 
Q 4084 800 4084 1031 
z
M 3866 2997 
L 3541 2672 
L 3213 3000 
L 3538 3325 
L 3866 2997 
z
" transform="scale(0.015625)"/>
       <path id="BNazanin-fecc" d="M 2328 3 
L 2078 3 
Q 1481 3 1172 397 
Q 813 3 244 3 
L -81 3 
L -81 466 
L 313 466 
Q 716 466 909 628 
Q 872 734 763 863 
Q 644 1003 550 1028 
Q 422 1063 422 1113 
Q 422 1141 450 1206 
Q 609 1581 1134 1581 
Q 1800 1581 1800 1166 
Q 1800 981 1434 663 
Q 1522 572 1725 513 
Q 1888 466 2009 466 
L 2328 466 
L 2328 3 
z
" transform="scale(0.015625)"/>
       <path id="BNazanin-fec0" d="M 3906 3 
L 3591 3 
Q 3178 3 2716 138 
Q 2303 6 1666 6 
Q 1256 6 1084 50 
Q 794 125 672 369 
Q 453 3 84 3 
L -81 3 
L -81 466 
L 81 466 
Q 534 466 616 925 
Q 634 1038 691 1038 
Q 747 1038 759 925 
Q 806 503 1144 484 
Q 2256 1681 2906 1681 
Q 3184 1681 3372 1513 
Q 3569 1334 3569 1063 
Q 3569 694 3303 431 
Q 3375 431 3520 448 
Q 3666 466 3738 466 
L 3906 466 
L 3906 3 
z
M 3278 831 
Q 3278 1009 3078 1134 
Q 2903 1244 2716 1244 
Q 2153 1244 1422 484 
Q 1591 475 1763 475 
Q 2159 475 2597 538 
Q 3278 634 3278 831 
z
M 2659 2800 
L 2334 2475 
L 2006 2803 
L 2331 3128 
L 2659 2800 
z
" transform="scale(0.015625)"/>
      </defs>
      <use xlink:href="#BNazanin-fee6"/>
      <use xlink:href="#BNazanin-fbff" x="61.816406"/>
      <use xlink:href="#BNazanin-fb94" x="92.578125"/>
      <use xlink:href="#BNazanin-20" x="129.931641"/>
      <use xlink:href="#BNazanin-fed2" x="154.345703"/>
      <use xlink:href="#BNazanin-fbff" x="227.050781"/>
      <use xlink:href="#BNazanin-fecc" x="257.8125"/>
      <use xlink:href="#BNazanin-fec0" x="292.919922"/>
      <use xlink:href="#BNazanin-fe97" x="352.685547"/>
     </g>
    </g>
    <g id="line2d_36">
     <path d="M 932.661875 236.876563 
L 946.661875 236.876563 
L 960.661875 236.876563 
" style="fill: none; stroke-dasharray: 5.55,2.4; stroke-dashoffset: 0; stroke: #000000; stroke-width: 1.5"/>
    </g>
    <g id="text_22">
     <!-- ﻝﺁﻩﺪﯾﺍ ﺮﺘﻠﯿﻓ -->
     <g transform="translate(971.861875 241.776563)scale(0.14 -0.14)">
      <defs>
       <path id="BNazanin-fedd" d="M 3419 3150 
Q 3447 3084 3438 3075 
Q 3431 3063 3363 3063 
L 3228 3063 
Q 3353 753 3309 -144 
Q 3241 -1559 1656 -1559 
Q 1144 -1559 838 -1344 
Q 484 -1097 484 -603 
Q 484 -103 759 284 
Q 794 331 831 331 
Q 881 331 881 272 
Q 881 247 869 216 
Q 738 -113 738 -334 
Q 738 -713 1016 -919 
Q 1263 -1103 1653 -1103 
Q 2231 -1103 2650 -888 
Q 3022 -697 3022 -494 
Q 3022 2106 2847 3406 
L 3125 3663 
Q 3175 3709 3191 3713 
Q 3206 3703 3225 3641 
Q 3275 3481 3419 3150 
z
" transform="scale(0.015625)"/>
       <path id="BNazanin-fe81" d="M 1350 497 
Q 1350 259 1247 50 
Q 1188 -72 1166 -72 
Q 1141 -72 1141 81 
Q 1141 775 897 3469 
L 1228 3778 
Q 1272 3819 1288 3822 
Q 1303 3822 1306 3753 
Q 1350 2994 1350 497 
z
M 1609 4284 
Q 1350 4072 966 4072 
Q 909 4072 796 4086 
Q 684 4100 628 4100 
Q 591 4100 520 4012 
Q 450 3925 422 3925 
Q 369 3925 369 4000 
Q 369 4050 438 4203 
Q 513 4372 569 4372 
Q 647 4372 801 4345 
Q 956 4319 1034 4319 
Q 1378 4319 1547 4366 
Q 1638 4391 1666 4391 
Q 1691 4391 1691 4375 
Q 1691 4350 1609 4284 
z
" transform="scale(0.015625)"/>
       <path id="BNazanin-fee9" d="M 2000 844 
Q 2000 434 1747 206 
Q 1503 -9 1091 -9 
Q 838 -9 666 144 
Q 484 303 484 553 
Q 484 831 722 1244 
Q 928 1600 1178 1850 
Q 2000 1422 2000 844 
z
M 1772 681 
Q 1772 847 1506 1097 
Q 1269 1319 1084 1388 
Q 772 991 772 753 
Q 772 613 919 525 
Q 1044 450 1194 450 
Q 1453 450 1631 547 
Q 1772 622 1772 681 
z
" transform="scale(0.015625)"/>
       <path id="BNazanin-feaa" d="M 3116 3 
L 2938 3 
Q 2713 3 2556 147 
Q 2459 238 2322 466 
Q 2178 209 1988 106 
Q 1756 -22 1325 -22 
Q 484 -22 484 581 
Q 484 784 609 1000 
Q 650 1072 691 1072 
Q 728 1072 728 1009 
Q 728 975 718 908 
Q 709 841 709 806 
Q 709 447 1319 447 
Q 2178 447 2178 781 
Q 2178 963 1681 2084 
L 1859 2394 
Q 1894 2453 1906 2456 
Q 1925 2444 1953 2378 
Q 2153 1906 2500 953 
Q 2678 466 3003 466 
L 3116 466 
L 3116 3 
z
" transform="scale(0.015625)"/>
       <path id="BNazanin-fbfe" d="M 1038 797 
Q 1038 3 247 3 
L -81 3 
L -81 466 
L 191 466 
Q 788 466 788 681 
Q 788 831 516 1178 
L 678 1572 
Q 703 1631 719 1631 
Q 734 1631 784 1559 
Q 1038 1188 1038 797 
z
M 1406 -878 
L 1097 -1188 
L 788 -875 
L 1097 -566 
L 1406 -878 
z
M 722 -878 
L 413 -1188 
L 103 -875 
L 409 -566 
L 722 -878 
z
" transform="scale(0.015625)"/>
       <path id="BNazanin-fe8d" d="M 934 497 
Q 934 253 834 50 
Q 775 -72 753 -72 
Q 728 -72 728 81 
Q 728 775 484 3469 
L 816 3778 
Q 859 3819 875 3822 
Q 891 3822 894 3753 
Q 934 2963 934 497 
z
M 934 497 
Q 934 253 834 50 
Q 775 -72 753 -72 
Q 728 -72 728 81 
Q 728 775 484 3469 
L 816 3778 
Q 859 3819 875 3822 
Q 891 3822 894 3753 
Q 934 2963 934 497 
z
" transform="scale(0.015625)"/>
       <path id="BNazanin-fe98" d="M 2050 3 
L 1744 3 
Q 1191 3 1003 366 
Q 797 3 178 3 
L -81 3 
L -81 466 
L 275 466 
Q 859 466 913 919 
Q 934 1100 1003 1100 
Q 1072 1100 1091 913 
Q 1131 466 1697 466 
L 2050 466 
L 2050 3 
z
M 1378 2325 
L 1072 2019 
L 759 2328 
L 1069 2638 
L 1378 2325 
z
M 694 2325 
L 384 2019 
L 75 2328 
L 381 2638 
L 694 2325 
z
" transform="scale(0.015625)"/>
       <path id="BNazanin-fee0" d="M 1559 3 
L 1397 3 
Q 878 3 681 384 
Q 628 213 438 103 
Q 266 3 72 3 
L -81 3 
L -81 466 
L 78 466 
Q 575 466 575 881 
L 575 2266 
Q 575 3056 541 3478 
L 881 3766 
L 881 1075 
Q 881 466 1400 466 
L 1559 466 
L 1559 3 
z
" transform="scale(0.015625)"/>
      </defs>
      <use xlink:href="#BNazanin-fedd"/>
      <use xlink:href="#BNazanin-fe81" x="53.808594"/>
      <use xlink:href="#BNazanin-fee9" x="78.515625"/>
      <use xlink:href="#BNazanin-feaa" x="109.814453"/>
      <use xlink:href="#BNazanin-fbfe" x="157.226562"/>
      <use xlink:href="#BNazanin-fe8d" x="179.443359"/>
      <use xlink:href="#BNazanin-20" x="194.140625"/>
      <use xlink:href="#BNazanin-feae" x="218.554688"/>
      <use xlink:href="#BNazanin-fe98" x="256.152344"/>
      <use xlink:href="#BNazanin-fee0" x="286.914062"/>
      <use xlink:href="#BNazanin-fbff" x="310.009766"/>
      <use xlink:href="#BNazanin-fed3" x="340.771484"/>
     </g>
    </g>
   </g>
  </g>
  <g id="axes_2">
   <g id="patch_8">
    <path d="M 144 1025.28 
L 1036.8 1025.28 
L 1036.8 622.08 
L 144 622.08 
z
" style="fill: #ffffff"/>
   </g>
   <g id="matplotlib.axis_3">
    <g id="xtick_8">
     <g id="line2d_37">
      <path d="M 184.581818 1025.28 
L 184.581818 622.08 
" clip-path="url(#p392aa23550)" style="fill: none; stroke: #b0b0b0; stroke-width: 0.8; stroke-linecap: square"/>
     </g>
     <g id="line2d_38">
      <g>
       <use xlink:href="#m50e9bc713a" x="184.581818" y="1025.28" style="stroke: #000000; stroke-width: 0.8"/>
      </g>
     </g>
     <g id="text_23">
      <!-- 0 -->
      <g transform="translate(181.400568 1039.878438)scale(0.1 -0.1)">
       <use xlink:href="#DejaVuSans-30"/>
      </g>
     </g>
    </g>
    <g id="xtick_9">
     <g id="line2d_39">
      <path d="M 311.4 1025.28 
L 311.4 622.08 
" clip-path="url(#p392aa23550)" style="fill: none; stroke: #b0b0b0; stroke-width: 0.8; stroke-linecap: square"/>
     </g>
     <g id="line2d_40">
      <g>
       <use xlink:href="#m50e9bc713a" x="311.4" y="1025.28" style="stroke: #000000; stroke-width: 0.8"/>
      </g>
     </g>
     <g id="text_24">
      <!-- 20 -->
      <g transform="translate(305.0375 1039.878438)scale(0.1 -0.1)">
       <use xlink:href="#DejaVuSans-32"/>
       <use xlink:href="#DejaVuSans-30" x="63.623047"/>
      </g>
     </g>
    </g>
    <g id="xtick_10">
     <g id="line2d_41">
      <path d="M 438.218182 1025.28 
L 438.218182 622.08 
" clip-path="url(#p392aa23550)" style="fill: none; stroke: #b0b0b0; stroke-width: 0.8; stroke-linecap: square"/>
     </g>
     <g id="line2d_42">
      <g>
       <use xlink:href="#m50e9bc713a" x="438.218182" y="1025.28" style="stroke: #000000; stroke-width: 0.8"/>
      </g>
     </g>
     <g id="text_25">
      <!-- 40 -->
      <g transform="translate(431.855682 1039.878438)scale(0.1 -0.1)">
       <use xlink:href="#DejaVuSans-34"/>
       <use xlink:href="#DejaVuSans-30" x="63.623047"/>
      </g>
     </g>
    </g>
    <g id="xtick_11">
     <g id="line2d_43">
      <path d="M 565.036364 1025.28 
L 565.036364 622.08 
" clip-path="url(#p392aa23550)" style="fill: none; stroke: #b0b0b0; stroke-width: 0.8; stroke-linecap: square"/>
     </g>
     <g id="line2d_44">
      <g>
       <use xlink:href="#m50e9bc713a" x="565.036364" y="1025.28" style="stroke: #000000; stroke-width: 0.8"/>
      </g>
     </g>
     <g id="text_26">
      <!-- 60 -->
      <g transform="translate(558.673864 1039.878438)scale(0.1 -0.1)">
       <use xlink:href="#DejaVuSans-36"/>
       <use xlink:href="#DejaVuSans-30" x="63.623047"/>
      </g>
     </g>
    </g>
    <g id="xtick_12">
     <g id="line2d_45">
      <path d="M 691.854545 1025.28 
L 691.854545 622.08 
" clip-path="url(#p392aa23550)" style="fill: none; stroke: #b0b0b0; stroke-width: 0.8; stroke-linecap: square"/>
     </g>
     <g id="line2d_46">
      <g>
       <use xlink:href="#m50e9bc713a" x="691.854545" y="1025.28" style="stroke: #000000; stroke-width: 0.8"/>
      </g>
     </g>
     <g id="text_27">
      <!-- 80 -->
      <g transform="translate(685.492045 1039.878438)scale(0.1 -0.1)">
       <use xlink:href="#DejaVuSans-38"/>
       <use xlink:href="#DejaVuSans-30" x="63.623047"/>
      </g>
     </g>
    </g>
    <g id="xtick_13">
     <g id="line2d_47">
      <path d="M 818.672727 1025.28 
L 818.672727 622.08 
" clip-path="url(#p392aa23550)" style="fill: none; stroke: #b0b0b0; stroke-width: 0.8; stroke-linecap: square"/>
     </g>
     <g id="line2d_48">
      <g>
       <use xlink:href="#m50e9bc713a" x="818.672727" y="1025.28" style="stroke: #000000; stroke-width: 0.8"/>
      </g>
     </g>
     <g id="text_28">
      <!-- 100 -->
      <g transform="translate(809.128977 1039.878438)scale(0.1 -0.1)">
       <use xlink:href="#DejaVuSans-31"/>
       <use xlink:href="#DejaVuSans-30" x="63.623047"/>
       <use xlink:href="#DejaVuSans-30" x="127.246094"/>
      </g>
     </g>
    </g>
    <g id="xtick_14">
     <g id="line2d_49">
      <path d="M 945.490909 1025.28 
L 945.490909 622.08 
" clip-path="url(#p392aa23550)" style="fill: none; stroke: #b0b0b0; stroke-width: 0.8; stroke-linecap: square"/>
     </g>
     <g id="line2d_50">
      <g>
       <use xlink:href="#m50e9bc713a" x="945.490909" y="1025.28" style="stroke: #000000; stroke-width: 0.8"/>
      </g>
     </g>
     <g id="text_29">
      <!-- 120 -->
      <g transform="translate(935.947159 1039.878438)scale(0.1 -0.1)">
       <use xlink:href="#DejaVuSans-31"/>
       <use xlink:href="#DejaVuSans-32" x="63.623047"/>
       <use xlink:href="#DejaVuSans-30" x="127.246094"/>
      </g>
     </g>
    </g>
    <g id="text_30">
     <!-- (ﺰﺗﺮﻫ) ﺲﻧﺎﮐﺮﻓ -->
     <g transform="translate(563.350312 1053.060625)scale(0.12 -0.12)">
      <use xlink:href="#BNazanin-28"/>
      <use xlink:href="#BNazanin-feb0" x="28.125"/>
      <use xlink:href="#BNazanin-fe97" x="65.722656"/>
      <use xlink:href="#BNazanin-feae" x="86.865234"/>
      <use xlink:href="#BNazanin-feeb" x="124.462891"/>
      <use xlink:href="#BNazanin-29" x="163.916016"/>
      <use xlink:href="#BNazanin-20" x="192.041016"/>
      <use xlink:href="#BNazanin-feb2" x="216.455078"/>
      <use xlink:href="#BNazanin-fee7" x="310.742188"/>
      <use xlink:href="#BNazanin-fe8e" x="327.001953"/>
      <use xlink:href="#BNazanin-fb90" x="350.439453"/>
      <use xlink:href="#BNazanin-feae" x="387.792969"/>
      <use xlink:href="#BNazanin-fed3" x="425.390625"/>
     </g>
    </g>
   </g>
   <g id="matplotlib.axis_4">
    <g id="ytick_7">
     <g id="line2d_51">
      <path d="M 144 1025.28 
L 1036.8 1025.28 
" clip-path="url(#p392aa23550)" style="fill: none; stroke: #b0b0b0; stroke-width: 0.8; stroke-linecap: square"/>
     </g>
     <g id="line2d_52">
      <g>
       <use xlink:href="#m35d2a4451a" x="144" y="1025.28" style="stroke: #000000; stroke-width: 0.8"/>
      </g>
     </g>
     <g id="text_31">
      <!-- −50 -->
      <g transform="translate(115.895313 1029.079219)scale(0.1 -0.1)">
       <defs>
        <path id="DejaVuSans-2212" d="M 678 2272 
L 4684 2272 
L 4684 1741 
L 678 1741 
L 678 2272 
z
" transform="scale(0.015625)"/>
        <path id="DejaVuSans-35" d="M 691 4666 
L 3169 4666 
L 3169 4134 
L 1269 4134 
L 1269 2991 
Q 1406 3038 1543 3061 
Q 1681 3084 1819 3084 
Q 2600 3084 3056 2656 
Q 3513 2228 3513 1497 
Q 3513 744 3044 326 
Q 2575 -91 1722 -91 
Q 1428 -91 1123 -41 
Q 819 9 494 109 
L 494 744 
Q 775 591 1075 516 
Q 1375 441 1709 441 
Q 2250 441 2565 725 
Q 2881 1009 2881 1497 
Q 2881 1984 2565 2268 
Q 2250 2553 1709 2553 
Q 1456 2553 1204 2497 
Q 953 2441 691 2322 
L 691 4666 
z
" transform="scale(0.015625)"/>
       </defs>
       <use xlink:href="#DejaVuSans-2212"/>
       <use xlink:href="#DejaVuSans-35" x="83.789062"/>
       <use xlink:href="#DejaVuSans-30" x="147.412109"/>
      </g>
     </g>
    </g>
    <g id="ytick_8">
     <g id="line2d_53">
      <path d="M 144 951.970909 
L 1036.8 951.970909 
" clip-path="url(#p392aa23550)" style="fill: none; stroke: #b0b0b0; stroke-width: 0.8; stroke-linecap: square"/>
     </g>
     <g id="line2d_54">
      <g>
       <use xlink:href="#m35d2a4451a" x="144" y="951.970909" style="stroke: #000000; stroke-width: 0.8"/>
      </g>
     </g>
     <g id="text_32">
      <!-- −40 -->
      <g transform="translate(115.895313 955.770128)scale(0.1 -0.1)">
       <use xlink:href="#DejaVuSans-2212"/>
       <use xlink:href="#DejaVuSans-34" x="83.789062"/>
       <use xlink:href="#DejaVuSans-30" x="147.412109"/>
      </g>
     </g>
    </g>
    <g id="ytick_9">
     <g id="line2d_55">
      <path d="M 144 878.661818 
L 1036.8 878.661818 
" clip-path="url(#p392aa23550)" style="fill: none; stroke: #b0b0b0; stroke-width: 0.8; stroke-linecap: square"/>
     </g>
     <g id="line2d_56">
      <g>
       <use xlink:href="#m35d2a4451a" x="144" y="878.661818" style="stroke: #000000; stroke-width: 0.8"/>
      </g>
     </g>
     <g id="text_33">
      <!-- −30 -->
      <g transform="translate(115.895313 882.461037)scale(0.1 -0.1)">
       <defs>
        <path id="DejaVuSans-33" d="M 2597 2516 
Q 3050 2419 3304 2112 
Q 3559 1806 3559 1356 
Q 3559 666 3084 287 
Q 2609 -91 1734 -91 
Q 1441 -91 1130 -33 
Q 819 25 488 141 
L 488 750 
Q 750 597 1062 519 
Q 1375 441 1716 441 
Q 2309 441 2620 675 
Q 2931 909 2931 1356 
Q 2931 1769 2642 2001 
Q 2353 2234 1838 2234 
L 1294 2234 
L 1294 2753 
L 1863 2753 
Q 2328 2753 2575 2939 
Q 2822 3125 2822 3475 
Q 2822 3834 2567 4026 
Q 2313 4219 1838 4219 
Q 1578 4219 1281 4162 
Q 984 4106 628 3988 
L 628 4550 
Q 988 4650 1302 4700 
Q 1616 4750 1894 4750 
Q 2613 4750 3031 4423 
Q 3450 4097 3450 3541 
Q 3450 3153 3228 2886 
Q 3006 2619 2597 2516 
z
" transform="scale(0.015625)"/>
       </defs>
       <use xlink:href="#DejaVuSans-2212"/>
       <use xlink:href="#DejaVuSans-33" x="83.789062"/>
       <use xlink:href="#DejaVuSans-30" x="147.412109"/>
      </g>
     </g>
    </g>
    <g id="ytick_10">
     <g id="line2d_57">
      <path d="M 144 805.352727 
L 1036.8 805.352727 
" clip-path="url(#p392aa23550)" style="fill: none; stroke: #b0b0b0; stroke-width: 0.8; stroke-linecap: square"/>
     </g>
     <g id="line2d_58">
      <g>
       <use xlink:href="#m35d2a4451a" x="144" y="805.352727" style="stroke: #000000; stroke-width: 0.8"/>
      </g>
     </g>
     <g id="text_34">
      <!-- −20 -->
      <g transform="translate(115.895313 809.151946)scale(0.1 -0.1)">
       <use xlink:href="#DejaVuSans-2212"/>
       <use xlink:href="#DejaVuSans-32" x="83.789062"/>
       <use xlink:href="#DejaVuSans-30" x="147.412109"/>
      </g>
     </g>
    </g>
    <g id="ytick_11">
     <g id="line2d_59">
      <path d="M 144 732.043636 
L 1036.8 732.043636 
" clip-path="url(#p392aa23550)" style="fill: none; stroke: #b0b0b0; stroke-width: 0.8; stroke-linecap: square"/>
     </g>
     <g id="line2d_60">
      <g>
       <use xlink:href="#m35d2a4451a" x="144" y="732.043636" style="stroke: #000000; stroke-width: 0.8"/>
      </g>
     </g>
     <g id="text_35">
      <!-- −10 -->
      <g transform="translate(115.895313 735.842855)scale(0.1 -0.1)">
       <use xlink:href="#DejaVuSans-2212"/>
       <use xlink:href="#DejaVuSans-31" x="83.789062"/>
       <use xlink:href="#DejaVuSans-30" x="147.412109"/>
      </g>
     </g>
    </g>
    <g id="ytick_12">
     <g id="line2d_61">
      <path d="M 144 658.734545 
L 1036.8 658.734545 
" clip-path="url(#p392aa23550)" style="fill: none; stroke: #b0b0b0; stroke-width: 0.8; stroke-linecap: square"/>
     </g>
     <g id="line2d_62">
      <g>
       <use xlink:href="#m35d2a4451a" x="144" y="658.734545" style="stroke: #000000; stroke-width: 0.8"/>
      </g>
     </g>
     <g id="text_36">
      <!-- 0 -->
      <g transform="translate(130.6375 662.533764)scale(0.1 -0.1)">
       <use xlink:href="#DejaVuSans-30"/>
      </g>
     </g>
    </g>
    <g id="text_37">
     <!-- (ﯽﻤﺘﯾﺭﺎﮕﻟ) ﻦﯿﮔ -->
     <g transform="translate(108.589687 852.720937)rotate(-90)scale(0.12 -0.12)">
      <defs>
       <path id="BNazanin-fbfd" d="M 4075 3 
L 3163 3 
Q 2994 3 2838 -50 
Q 2622 -122 2622 -253 
Q 2622 -284 3198 -412 
Q 3775 -541 3775 -666 
Q 3775 -1138 3503 -1369 
Q 3044 -1763 1884 -1763 
Q 484 -1763 484 -728 
Q 484 -494 584 -208 
Q 684 78 828 266 
Q 884 341 931 344 
Q 978 347 978 294 
Q 978 247 941 175 
Q 759 -169 759 -538 
Q 759 -947 1147 -1144 
Q 1444 -1294 1900 -1294 
Q 2384 -1294 2788 -1244 
Q 3513 -1153 3513 -934 
Q 3513 -844 3197 -791 
Q 2694 -706 2616 -684 
Q 2300 -597 2300 -416 
Q 2300 -272 2453 -56 
Q 2581 122 2722 238 
Q 3003 466 3522 466 
L 4075 466 
L 4075 3 
z
" transform="scale(0.015625)"/>
       <path id="BNazanin-fee4" d="M 2947 3 
L 2688 3 
Q 2406 3 2109 334 
Q 1944 -159 1734 -159 
Q 1541 -159 1194 38 
Q 884 213 759 353 
Q 478 3 163 3 
L -81 3 
L -81 466 
L 175 466 
Q 450 466 706 697 
Q 866 878 1094 1125 
Q 1306 1356 1491 1356 
Q 1719 1356 1906 1125 
Q 2000 1006 2247 697 
Q 2438 466 2688 466 
L 2947 466 
L 2947 3 
z
M 1869 334 
Q 1888 516 1766 725 
Q 1628 963 1425 963 
Q 1219 963 981 656 
Q 1047 572 1322 428 
Q 1619 272 1800 266 
Q 1863 263 1869 334 
z
" transform="scale(0.015625)"/>
       <path id="BNazanin-fead" d="M 2016 -34 
Q 2016 -619 1644 -1138 
Q 1325 -1581 1113 -1581 
Q 656 -1581 325 -1534 
Q 216 -1519 216 -1481 
Q 216 -1444 328 -1422 
Q 797 -1325 1272 -925 
Q 1778 -497 1778 -103 
Q 1778 159 1359 566 
L 1541 944 
Q 1566 994 1578 997 
Q 1597 991 1631 947 
Q 1775 772 1891 481 
Q 2016 175 2016 -34 
z
" transform="scale(0.015625)"/>
       <path id="BNazanin-fb95" d="M 2378 3853 
L 2297 3556 
L 338 2928 
L 422 3219 
L 2378 3853 
z
M 2788 3 
L 2556 3 
Q 2241 3 1922 284 
Q 1700 481 1394 909 
Q 1341 3 144 3 
L -81 3 
L -81 466 
L 81 466 
Q 1191 466 1191 913 
Q 1191 1253 666 1747 
Q 441 1959 141 2169 
Q 141 2425 266 2553 
Q 316 2603 2466 3256 
Q 2459 3178 2334 2825 
Q 1809 2688 559 2291 
Q 1184 1641 1650 1100 
Q 1922 784 2072 669 
Q 2334 466 2625 466 
L 2788 466 
L 2788 3 
z
" transform="scale(0.015625)"/>
       <path id="BNazanin-fedf" d="M 1000 3178 
Q 1034 3097 1025 3081 
Q 1019 3072 959 3072 
L 831 3072 
Q 872 2272 856 809 
Q 853 456 684 241 
Q 497 3 153 3 
L -81 3 
L -81 466 
L 131 466 
Q 603 466 588 825 
Q 534 2113 453 3434 
L 719 3688 
Q 781 3747 794 3750 
Q 806 3738 825 3666 
Q 872 3484 1000 3178 
z
" transform="scale(0.015625)"/>
      </defs>
      <use xlink:href="#BNazanin-28"/>
      <use xlink:href="#BNazanin-fbfd" x="28.125"/>
      <use xlink:href="#BNazanin-fee4" x="90.478516"/>
      <use xlink:href="#BNazanin-fe98" x="135.205078"/>
      <use xlink:href="#BNazanin-fbfe" x="165.966797"/>
      <use xlink:href="#BNazanin-fead" x="188.183594"/>
      <use xlink:href="#BNazanin-fe8e" x="219.775391"/>
      <use xlink:href="#BNazanin-fb95" x="243.212891"/>
      <use xlink:href="#BNazanin-fedf" x="285.498047"/>
      <use xlink:href="#BNazanin-29" x="301.513672"/>
      <use xlink:href="#BNazanin-20" x="329.638672"/>
      <use xlink:href="#BNazanin-fee6" x="354.052734"/>
      <use xlink:href="#BNazanin-fbff" x="415.869141"/>
      <use xlink:href="#BNazanin-fb94" x="446.630859"/>
     </g>
    </g>
   </g>
   <g id="line2d_63">
    <path d="M 184.581818 658.734545 
L 196.350545 658.845391 
L 208.119273 659.176084 
L 220.293818 659.743741 
L 232.468364 660.531226 
L 245.454545 661.599098 
L 258.846545 662.927565 
L 273.050182 664.563903 
L 288.065455 666.517847 
L 304.704 668.913145 
L 322.965818 671.772333 
L 343.662545 675.243319 
L 368.011636 679.561969 
L 397.230545 684.978989 
L 434.16 692.062157 
L 480.017455 701.092295 
L 527.092364 710.583224 
L 567.674182 718.983402 
L 601.762909 726.259467 
L 631.387636 732.806433 
L 657.36 738.770038 
L 680.491636 744.30324 
L 701.594182 749.574935 
L 721.073455 754.669811 
L 738.929455 759.569887 
L 755.162182 764.249372 
L 770.177455 768.800769 
L 784.381091 773.335217 
L 797.773091 777.846814 
L 809.947636 782.177959 
L 821.310545 786.447355 
L 832.267636 790.802453 
L 842.413091 795.073957 
L 851.746909 799.23606 
L 860.674909 803.455248 
L 869.197091 807.730708 
L 876.907636 811.837319 
L 884.212364 815.965978 
L 891.111273 820.107572 
L 897.604364 824.250459 
L 903.691636 828.380089 
L 909.778909 832.781229 
L 915.460364 837.169419 
L 920.736 841.522423 
L 925.605818 845.813193 
L 930.475636 850.404569 
L 934.939636 854.91716 
L 939.403636 859.766074 
L 943.461818 864.512475 
L 947.114182 869.103835 
L 950.766545 874.046793 
L 954.013091 878.78326 
L 957.259636 883.896316 
L 960.506182 889.451797 
L 963.346909 894.741753 
L 966.187636 900.508046 
L 968.622545 905.90095 
L 971.057455 911.790802 
L 973.492364 918.279068 
L 975.927273 925.501796 
L 977.956364 932.215509 
L 979.985455 939.719723 
L 982.014545 948.226211 
L 983.637818 955.956606 
L 985.261091 964.755753 
L 986.884364 974.967681 
L 988.101818 983.8684 
L 989.319273 994.217998 
L 990.536727 1006.581918 
L 991.754182 1021.938788 
L 992.565818 1034.716995 
L 993.377455 1050.719884 
L 994.189091 1072.145155 
L 994.594909 1086.354017 
L 995.000727 1104.672378 
L 995.406545 1130.490609 
L 995.613511 1153 
L 995.613511 1153 
" clip-path="url(#p392aa23550)" style="fill: none; stroke: #1f77b4; stroke-width: 1.5; stroke-linecap: square"/>
   </g>
   <g id="line2d_64">
    <path d="M 184.581818 658.734545 
L 261.281455 658.842432 
L 278.325818 659.100713 
L 290.094545 659.487839 
L 299.834182 660.024289 
L 307.950545 660.683327 
L 315.255273 661.490645 
L 322.154182 662.481679 
L 328.241455 663.572708 
L 334.328727 664.894551 
L 340.010182 666.358028 
L 345.691636 668.060537 
L 350.967273 669.866585 
L 356.242909 671.895901 
L 361.518545 674.150505 
L 367.2 676.82771 
L 372.881455 679.755019 
L 378.968727 683.153561 
L 385.461818 687.053369 
L 392.360727 691.473279 
L 399.665455 696.419175 
L 408.187636 702.471251 
L 417.927273 709.670338 
L 430.507636 719.267666 
L 449.581091 734.13641 
L 488.133818 764.21241 
L 510.453818 781.309103 
L 533.585455 798.74602 
L 561.181091 819.259033 
L 641.938909 879.098242 
L 661.824 894.220042 
L 679.274182 907.765929 
L 694.695273 920.012666 
L 708.898909 931.572415 
L 721.885091 942.419364 
L 734.059636 952.868417 
L 745.828364 963.264464 
L 756.785455 973.239964 
L 767.336727 983.150968 
L 777.076364 992.597362 
L 786.410182 1001.949521 
L 795.338182 1011.19973 
L 803.860364 1020.337505 
L 812.382545 1029.808548 
L 820.498909 1039.171626 
L 828.209455 1048.409617 
L 835.514182 1057.501975 
L 842.818909 1066.960283 
L 849.717818 1076.264149 
L 856.210909 1085.38418 
L 862.704 1094.893229 
L 868.791273 1104.19785 
L 874.878545 1113.919654 
L 880.56 1123.409409 
L 886.241455 1133.344161 
L 891.517091 1143.010531 
L 896.717207 1153 
L 896.717207 1153 
" clip-path="url(#p392aa23550)" style="fill: none; stroke: #ff7f0e; stroke-width: 1.5; stroke-linecap: square"/>
   </g>
   <g id="line2d_65">
    <path d="M 184.581818 658.734545 
L 306.327273 658.841916 
L 318.501818 659.086732 
L 326.618182 659.468859 
L 332.705455 659.973485 
L 337.575273 660.585342 
L 342.039273 661.372245 
L 345.691636 662.223933 
L 349.344 663.307027 
L 352.590545 664.50047 
L 355.837091 665.945138 
L 358.677818 667.44053 
L 361.518545 669.172596 
L 364.359273 671.158318 
L 367.2 673.410753 
L 370.040727 675.938067 
L 372.881455 678.742875 
L 376.128 682.283787 
L 379.374545 686.169026 
L 383.026909 690.923674 
L 386.679273 696.044763 
L 390.737455 702.106678 
L 395.607273 709.804112 
L 401.288727 719.22427 
L 408.593455 731.791162 
L 421.173818 753.968111 
L 439.841455 786.809646 
L 452.421818 808.464546 
L 464.190545 828.288392 
L 476.365091 848.360547 
L 488.945455 868.672357 
L 502.337455 889.869528 
L 516.946909 912.566602 
L 533.179636 937.359029 
L 551.847273 965.449565 
L 576.196364 1001.657968 
L 633.822545 1087.190472 
L 652.490182 1115.388697 
L 668.317091 1139.684328 
L 676.86908 1153 
L 676.86908 1153 
" clip-path="url(#p392aa23550)" style="fill: none; stroke: #2ca02c; stroke-width: 1.5; stroke-linecap: square"/>
   </g>
   <g id="line2d_66">
    <path d="M 184.581818 680.727273 
L 996.218182 680.727273 
" clip-path="url(#p392aa23550)" style="fill: none; stroke-dasharray: 5.55,2.4; stroke-dashoffset: 0; stroke: #d62728; stroke-width: 1.5"/>
   </g>
   <g id="patch_9">
    <path d="M 144 1025.28 
L 144 622.08 
" style="fill: none; stroke: #000000; stroke-width: 0.8; stroke-linejoin: miter; stroke-linecap: square"/>
   </g>
   <g id="patch_10">
    <path d="M 1036.8 1025.28 
L 1036.8 622.08 
" style="fill: none; stroke: #000000; stroke-width: 0.8; stroke-linejoin: miter; stroke-linecap: square"/>
   </g>
   <g id="patch_11">
    <path d="M 144 1025.28 
L 1036.8 1025.28 
" style="fill: none; stroke: #000000; stroke-width: 0.8; stroke-linejoin: miter; stroke-linecap: square"/>
   </g>
   <g id="patch_12">
    <path d="M 144 622.08 
L 1036.8 622.08 
" style="fill: none; stroke: #000000; stroke-width: 0.8; stroke-linejoin: miter; stroke-linecap: square"/>
   </g>
   <g id="text_38">
    <!-- $\mathbf{-3dB}$ -->
    <g transform="translate(110.511364 683.486648)scale(0.1 -0.1)">
     <defs>
      <path id="DejaVuSans-Bold-2212" d="M 678 2375 
L 4684 2375 
L 4684 1638 
L 678 1638 
L 678 2375 
z
" transform="scale(0.015625)"/>
      <path id="DejaVuSans-Bold-33" d="M 2981 2516 
Q 3453 2394 3698 2092 
Q 3944 1791 3944 1325 
Q 3944 631 3412 270 
Q 2881 -91 1863 -91 
Q 1503 -91 1142 -33 
Q 781 25 428 141 
L 428 1069 
Q 766 900 1098 814 
Q 1431 728 1753 728 
Q 2231 728 2486 893 
Q 2741 1059 2741 1369 
Q 2741 1688 2480 1852 
Q 2219 2016 1709 2016 
L 1228 2016 
L 1228 2791 
L 1734 2791 
Q 2188 2791 2409 2933 
Q 2631 3075 2631 3366 
Q 2631 3634 2415 3781 
Q 2200 3928 1806 3928 
Q 1516 3928 1219 3862 
Q 922 3797 628 3669 
L 628 4550 
Q 984 4650 1334 4700 
Q 1684 4750 2022 4750 
Q 2931 4750 3382 4451 
Q 3834 4153 3834 3553 
Q 3834 3144 3618 2883 
Q 3403 2622 2981 2516 
z
" transform="scale(0.015625)"/>
      <path id="DejaVuSans-Bold-64" d="M 2919 2988 
L 2919 4863 
L 4044 4863 
L 4044 0 
L 2919 0 
L 2919 506 
Q 2688 197 2409 53 
Q 2131 -91 1766 -91 
Q 1119 -91 703 423 
Q 288 938 288 1747 
Q 288 2556 703 3070 
Q 1119 3584 1766 3584 
Q 2128 3584 2408 3439 
Q 2688 3294 2919 2988 
z
M 2181 722 
Q 2541 722 2730 984 
Q 2919 1247 2919 1747 
Q 2919 2247 2730 2509 
Q 2541 2772 2181 2772 
Q 1825 2772 1636 2509 
Q 1447 2247 1447 1747 
Q 1447 1247 1636 984 
Q 1825 722 2181 722 
z
" transform="scale(0.015625)"/>
      <path id="DejaVuSans-Bold-42" d="M 2456 2859 
Q 2741 2859 2887 2984 
Q 3034 3109 3034 3353 
Q 3034 3594 2887 3720 
Q 2741 3847 2456 3847 
L 1791 3847 
L 1791 2859 
L 2456 2859 
z
M 2497 819 
Q 2859 819 3042 972 
Q 3225 1125 3225 1434 
Q 3225 1738 3044 1889 
Q 2863 2041 2497 2041 
L 1791 2041 
L 1791 819 
L 2497 819 
z
M 3616 2497 
Q 4003 2384 4215 2081 
Q 4428 1778 4428 1338 
Q 4428 663 3972 331 
Q 3516 0 2584 0 
L 588 0 
L 588 4666 
L 2394 4666 
Q 3366 4666 3802 4372 
Q 4238 4078 4238 3431 
Q 4238 3091 4078 2852 
Q 3919 2613 3616 2497 
z
" transform="scale(0.015625)"/>
     </defs>
     <use xlink:href="#DejaVuSans-Bold-2212" transform="translate(0 0.015625)"/>
     <use xlink:href="#DejaVuSans-Bold-33" transform="translate(83.789062 0.015625)"/>
     <use xlink:href="#DejaVuSans-Bold-64" transform="translate(153.369141 0.015625)"/>
     <use xlink:href="#DejaVuSans-Bold-42" transform="translate(224.951172 0.015625)"/>
    </g>
   </g>
   <g id="legend_2">
    <g id="patch_13">
     <path d="M 153.8 1018.28 
L 250.938125 1018.28 
Q 253.738125 1018.28 253.738125 1015.48 
L 253.738125 935.743438 
Q 253.738125 932.943438 250.938125 932.943438 
L 153.8 932.943438 
Q 151 932.943438 151 935.743438 
L 151 1015.48 
Q 151 1018.28 153.8 1018.28 
z
" style="fill: #ffffff; stroke: #cccccc; stroke-linejoin: miter"/>
    </g>
    <g id="line2d_67">
     <path d="M 156.6 943.443438 
L 170.6 943.443438 
L 184.6 943.443438 
" style="fill: none; stroke: #1f77b4; stroke-width: 1.5; stroke-linecap: square"/>
    </g>
    <g id="text_39">
     <!-- ﻪﺒﺗﺮﻣ = 1 -->
     <g transform="translate(195.8 948.343438)scale(0.14 -0.14)">
      <use xlink:href="#BNazanin-feea"/>
      <use xlink:href="#BNazanin-fe92" x="41.503906"/>
      <use xlink:href="#BNazanin-fe97" x="72.265625"/>
      <use xlink:href="#BNazanin-feae" x="93.408203"/>
      <use xlink:href="#BNazanin-fee3" x="131.005859"/>
      <use xlink:href="#BNazanin-20" x="163.330078"/>
      <use xlink:href="#BNazanin-3d" x="187.744141"/>
      <use xlink:href="#BNazanin-20" x="225.195312"/>
      <use xlink:href="#BNazanin-31" x="249.609375"/>
     </g>
    </g>
    <g id="line2d_68">
     <path d="M 156.6 963.701875 
L 170.6 963.701875 
L 184.6 963.701875 
" style="fill: none; stroke: #ff7f0e; stroke-width: 1.5; stroke-linecap: square"/>
    </g>
    <g id="text_40">
     <!-- ﻪﺒﺗﺮﻣ = 3 -->
     <g transform="translate(195.8 968.601875)scale(0.14 -0.14)">
      <use xlink:href="#BNazanin-feea"/>
      <use xlink:href="#BNazanin-fe92" x="41.503906"/>
      <use xlink:href="#BNazanin-fe97" x="72.265625"/>
      <use xlink:href="#BNazanin-feae" x="93.408203"/>
      <use xlink:href="#BNazanin-fee3" x="131.005859"/>
      <use xlink:href="#BNazanin-20" x="163.330078"/>
      <use xlink:href="#BNazanin-3d" x="187.744141"/>
      <use xlink:href="#BNazanin-20" x="225.195312"/>
      <use xlink:href="#BNazanin-33" x="249.609375"/>
     </g>
    </g>
    <g id="line2d_69">
     <path d="M 156.6 983.960313 
L 170.6 983.960313 
L 184.6 983.960313 
" style="fill: none; stroke: #2ca02c; stroke-width: 1.5; stroke-linecap: square"/>
    </g>
    <g id="text_41">
     <!-- ﻪﺒﺗﺮﻣ = 6 -->
     <g transform="translate(195.8 988.860313)scale(0.14 -0.14)">
      <use xlink:href="#BNazanin-feea"/>
      <use xlink:href="#BNazanin-fe92" x="41.503906"/>
      <use xlink:href="#BNazanin-fe97" x="72.265625"/>
      <use xlink:href="#BNazanin-feae" x="93.408203"/>
      <use xlink:href="#BNazanin-fee3" x="131.005859"/>
      <use xlink:href="#BNazanin-20" x="163.330078"/>
      <use xlink:href="#BNazanin-3d" x="187.744141"/>
      <use xlink:href="#BNazanin-20" x="225.195312"/>
      <use xlink:href="#BNazanin-36" x="249.609375"/>
     </g>
    </g>
    <g id="line2d_70">
     <path d="M 156.6 1004.21875 
L 170.6 1004.21875 
L 184.6 1004.21875 
" style="fill: none; stroke-dasharray: 5.55,2.4; stroke-dashoffset: 0; stroke: #d62728; stroke-width: 1.5"/>
    </g>
    <g id="text_42">
     <!-- ﻦﯿﮔ ﻒﯿﻌﻀﺗ -->
     <g transform="translate(195.8 1009.11875)scale(0.14 -0.14)">
      <use xlink:href="#BNazanin-fee6"/>
      <use xlink:href="#BNazanin-fbff" x="61.816406"/>
      <use xlink:href="#BNazanin-fb94" x="92.578125"/>
      <use xlink:href="#BNazanin-20" x="129.931641"/>
      <use xlink:href="#BNazanin-fed2" x="154.345703"/>
      <use xlink:href="#BNazanin-fbff" x="227.050781"/>
      <use xlink:href="#BNazanin-fecc" x="257.8125"/>
      <use xlink:href="#BNazanin-fec0" x="292.919922"/>
      <use xlink:href="#BNazanin-fe97" x="352.685547"/>
     </g>
    </g>
   </g>
  </g>
  <g id="text_43">
   <!-- ﺙﺭﻭﺮﺗﺎﺑ (ﺰﺗﺮﻫ 30) ﺭﺬﮔﻦﯿﯾﺎﭘ ﺮﺘﻠﯿﻓ -->
   <g style="fill: #2d1754" transform="translate(446.236328 107.163906)scale(0.25 -0.25)">
    <defs>
     <path id="BNazanin-fe99" d="M 4331 900 
Q 4331 456 4034 269 
Q 3834 144 3313 50 
Q 2738 -53 2069 -53 
Q 484 -53 484 816 
Q 484 1106 706 1425 
Q 750 1488 794 1488 
Q 838 1488 838 1431 
Q 838 1403 822 1366 
Q 734 1166 734 1006 
Q 734 416 2244 416 
Q 2978 416 3500 503 
Q 4078 600 4078 766 
Q 4078 866 3803 1234 
L 4000 1613 
Q 4034 1678 4075 1613 
Q 4331 1206 4331 900 
z
M 2716 2631 
L 2422 2341 
L 2128 2634 
L 2419 2925 
L 2716 2631 
z
M 3075 2006 
L 2781 1716 
L 2484 2009 
L 2778 2300 
L 3075 2006 
z
M 2363 2006 
L 2069 1716 
L 1772 2009 
L 2069 2300 
L 2363 2006 
z
" transform="scale(0.015625)"/>
     <path id="BNazanin-feed" d="M 2056 163 
Q 2056 -731 1441 -1369 
Q 1247 -1569 1194 -1569 
Q 853 -1569 416 -1500 
Q 263 -1475 263 -1453 
Q 263 -1428 425 -1381 
Q 909 -1241 1328 -881 
Q 1503 -731 1647 -528 
Q 1828 -275 1828 -103 
L 1828 28 
L 1306 9 
Q 753 -9 753 469 
Q 753 766 925 1106 
Q 1122 1494 1375 1494 
Q 1750 1494 1931 978 
Q 2056 622 2056 163 
z
M 1769 494 
Q 1769 688 1638 859 
Q 1497 1047 1309 1047 
Q 1184 1047 1092 953 
Q 1000 859 1000 734 
Q 1000 459 1394 459 
Q 1541 459 1769 494 
z
" transform="scale(0.015625)"/>
     <path id="BNazanin-fe91" d="M 1038 797 
Q 1038 3 247 3 
L -81 3 
L -81 466 
L 191 466 
Q 788 466 788 681 
Q 788 831 516 1178 
L 678 1572 
Q 703 1631 719 1631 
Q 734 1631 784 1559 
Q 1038 1188 1038 797 
z
M 909 -878 
L 584 -1203 
L 256 -875 
L 581 -550 
L 909 -878 
z
" transform="scale(0.015625)"/>
     <path id="BNazanin-30" d="M 1975 1534 
L 1428 988 
L 888 1531 
L 1431 2075 
L 1975 1534 
z
" transform="scale(0.015625)"/>
     <path id="BNazanin-feac" d="M 3116 3 
L 2938 3 
Q 2713 3 2556 147 
Q 2459 238 2322 466 
Q 2178 209 1988 106 
Q 1756 -22 1325 -22 
Q 484 -22 484 581 
Q 484 784 609 1000 
Q 650 1072 691 1072 
Q 728 1072 728 1009 
Q 728 975 718 908 
Q 709 841 709 806 
Q 709 447 1319 447 
Q 2178 447 2178 781 
Q 2178 963 1681 2084 
L 1859 2394 
Q 1894 2453 1906 2456 
Q 1925 2444 1953 2378 
Q 2153 1906 2500 953 
Q 2678 466 3003 466 
L 3116 466 
L 3116 3 
z
M 1922 3284 
L 1597 2959 
L 1269 3288 
L 1594 3613 
L 1922 3284 
z
" transform="scale(0.015625)"/>
     <path id="BNazanin-fb58" d="M 1038 797 
Q 1038 3 247 3 
L -81 3 
L -81 466 
L 191 466 
Q 788 466 788 681 
Q 788 831 516 1178 
L 678 1572 
Q 703 1631 719 1631 
Q 734 1631 784 1559 
Q 1038 1188 1038 797 
z
M 447 -1409 
L 738 -1119 
L 1031 -1413 
L 741 -1703 
L 447 -1409 
z
M 84 -784 
L 381 -494 
L 675 -788 
L 381 -1078 
L 84 -784 
z
M 797 -784 
L 1091 -494 
L 1388 -788 
L 1094 -1078 
L 797 -784 
z
" transform="scale(0.015625)"/>
    </defs>
    <use xlink:href="#BNazanin-fe99"/>
    <use xlink:href="#BNazanin-fead" x="67.724609"/>
    <use xlink:href="#BNazanin-feed" x="99.316406"/>
    <use xlink:href="#BNazanin-feae" x="131.494141"/>
    <use xlink:href="#BNazanin-fe97" x="169.091797"/>
    <use xlink:href="#BNazanin-fe8e" x="190.234375"/>
    <use xlink:href="#BNazanin-fe91" x="213.671875"/>
    <use xlink:href="#BNazanin-20" x="229.931641"/>
    <use xlink:href="#BNazanin-28" x="254.345703"/>
    <use xlink:href="#BNazanin-feb0" x="282.470703"/>
    <use xlink:href="#BNazanin-fe97" x="320.068359"/>
    <use xlink:href="#BNazanin-feae" x="341.210938"/>
    <use xlink:href="#BNazanin-feeb" x="378.808594"/>
    <use xlink:href="#BNazanin-20" x="418.261719"/>
    <use xlink:href="#BNazanin-33" x="442.675781"/>
    <use xlink:href="#BNazanin-30" x="489.550781"/>
    <use xlink:href="#BNazanin-29" x="536.425781"/>
    <use xlink:href="#BNazanin-20" x="564.550781"/>
    <use xlink:href="#BNazanin-fead" x="588.964844"/>
    <use xlink:href="#BNazanin-feac" x="620.556641"/>
    <use xlink:href="#BNazanin-fb94" x="667.96875"/>
    <use xlink:href="#BNazanin-fee6" x="705.322266"/>
    <use xlink:href="#BNazanin-fbff" x="767.138672"/>
    <use xlink:href="#BNazanin-fbfe" x="797.900391"/>
    <use xlink:href="#BNazanin-fe8e" x="820.117188"/>
    <use xlink:href="#BNazanin-fb58" x="843.554688"/>
    <use xlink:href="#BNazanin-20" x="866.015625"/>
    <use xlink:href="#BNazanin-feae" x="890.429688"/>
    <use xlink:href="#BNazanin-fe98" x="928.027344"/>
    <use xlink:href="#BNazanin-fee0" x="958.789062"/>
    <use xlink:href="#BNazanin-fbff" x="981.884766"/>
    <use xlink:href="#BNazanin-fed3" x="1012.646484"/>
   </g>
  </g>
 </g>
 <defs>
  <clipPath id="p337c3df071">
   <rect x="144" y="138.24" width="892.8" height="403.2"/>
  </clipPath>
  <clipPath id="p392aa23550">
   <rect x="144" y="622.08" width="892.8" height="403.2"/>
  </clipPath>
 </defs>
</svg>
