<?xml version="1.0" encoding="utf-8" standalone="no"?>
<!DOCTYPE svg PUBLIC "-//W3C//DTD SVG 1.1//EN"
  "http://www.w3.org/Graphics/SVG/1.1/DTD/svg11.dtd">
<svg xmlns:xlink="http://www.w3.org/1999/xlink" width="1152pt" height="648pt" viewBox="0 0 1152 648" xmlns="http://www.w3.org/2000/svg" version="1.1">
 <metadata>
  <rdf:RDF xmlns:dc="http://purl.org/dc/elements/1.1/" xmlns:cc="http://creativecommons.org/ns#" xmlns:rdf="http://www.w3.org/1999/02/22-rdf-syntax-ns#">
   <cc:Work>
    <dc:type rdf:resource="http://purl.org/dc/dcmitype/StillImage"/>
    <dc:date>2022-08-24T02:55:11.319798</dc:date>
    <dc:format>image/svg+xml</dc:format>
    <dc:creator>
     <cc:Agent>
      <dc:title>Matplotlib v3.5.3, https://matplotlib.org/</dc:title>
     </cc:Agent>
    </dc:creator>
   </cc:Work>
  </rdf:RDF>
 </metadata>
 <defs>
  <style type="text/css">*{stroke-linejoin: round; stroke-linecap: butt}</style>
 </defs>
 <g id="figure_1">
  <g id="patch_1">
   <path d="M 0 648 
L 1152 648 
L 1152 0 
L 0 0 
z
" style="fill: #ffffff"/>
  </g>
  <g id="axes_1">
   <g id="patch_2">
    <path d="M 144 294.69913 
L 1036.8 294.69913 
L 1036.8 77.76 
L 144 77.76 
z
" style="fill: #ffffff"/>
   </g>
   <g id="line2d_1">
    <path d="M 144 116.900118 
L 145.014545 87.62087 
L 146.029091 93.063145 
L 147.043636 110.325594 
L 148.058182 122.009221 
L 150.087273 134.615418 
L 151.101818 147.098516 
L 153.130909 155.035583 
L 154.145455 163.935372 
L 155.16 164.732776 
L 156.174545 166.656617 
L 157.189091 170.247476 
L 159.218182 183.600981 
L 160.232727 186.754183 
L 163.276364 191.200628 
L 164.290909 190.936868 
L 165.305455 194.447979 
L 166.32 198.584348 
L 167.334545 200.901556 
L 168.349091 201.181568 
L 169.363636 203.07587 
L 170.378182 203.636076 
L 171.392727 204.59735 
L 172.407273 206.615753 
L 173.421818 209.41642 
L 174.436364 209.883788 
L 175.450909 212.262894 
L 176.465455 210.955651 
L 177.48 217.466302 
L 178.494545 214.879163 
L 179.509091 214.932284 
L 180.523636 211.28288 
L 181.538182 211.86853 
L 182.552727 213.041938 
L 183.567273 217.558747 
L 184.581818 214.355563 
L 185.596364 213.213534 
L 186.610909 214.810005 
L 187.625455 217.735674 
L 188.64 216.884353 
L 189.654545 216.512423 
L 190.669091 215.79216 
L 192.698182 218.80752 
L 193.712727 216.006878 
L 194.727273 219.360098 
L 195.741818 216.942751 
L 196.756364 217.610005 
L 197.770909 215.290246 
L 198.785455 219.825534 
L 199.8 218.618465 
L 200.814545 220.283709 
L 201.829091 220.460854 
L 202.843636 221.997962 
L 203.858182 225.197762 
L 204.872727 222.815494 
L 205.887273 225.442018 
L 206.901818 226.573941 
L 207.916364 222.97638 
L 208.930909 220.521145 
L 209.945455 224.451767 
L 210.96 226.739099 
L 211.974545 227.030498 
L 212.989091 228.667583 
L 214.003636 229.421373 
L 215.018182 228.734602 
L 216.032727 223.332163 
L 217.047273 227.47333 
L 218.061818 228.98363 
L 219.076364 230.862194 
L 220.090909 233.584794 
L 221.105455 233.533721 
L 222.12 228.947732 
L 223.134545 227.339726 
L 224.149091 230.359965 
L 225.163636 231.412516 
L 226.178182 229.639209 
L 228.207273 233.419872 
L 229.221818 236.64405 
L 230.236364 234.042259 
L 231.250909 230.882089 
L 232.265455 230.664474 
L 233.28 232.310839 
L 234.294545 233.722149 
L 235.309091 233.185729 
L 236.323636 231.321566 
L 237.338182 231.890266 
L 239.367273 236.040584 
L 240.381818 234.435406 
L 241.396364 234.829653 
L 242.410909 232.803445 
L 243.425455 236.799991 
L 244.44 235.049809 
L 245.454545 234.675383 
L 246.469091 235.457335 
L 247.483636 238.08946 
L 248.498182 239.56556 
L 249.512727 238.969646 
L 250.527273 238.863848 
L 251.541818 237.235287 
L 252.556364 236.238061 
L 253.570909 236.343162 
L 254.585455 236.785977 
L 255.6 240.545555 
L 256.614545 235.749751 
L 257.629091 236.700853 
L 258.643636 238.342593 
L 259.658182 238.204741 
L 260.672727 237.092107 
L 261.687273 237.055414 
L 262.701818 242.131459 
L 264.730909 239.113982 
L 265.745455 239.872579 
L 266.76 242.054948 
L 267.774545 239.91733 
L 268.789091 239.132591 
L 269.803636 239.79618 
L 270.818182 239.783829 
L 271.832727 240.038116 
L 272.847273 243.674951 
L 273.861818 242.182171 
L 274.876364 240.197854 
L 275.890909 239.308681 
L 276.905455 242.25568 
L 277.92 244.219892 
L 278.934545 240.229728 
L 279.949091 240.031953 
L 280.963636 243.63756 
L 281.978182 241.442903 
L 282.992727 241.913529 
L 284.007273 241.867431 
L 285.021818 242.651922 
L 286.036364 242.711235 
L 287.050909 239.844384 
L 288.065455 240.005301 
L 289.08 240.57623 
L 290.094545 243.341714 
L 291.109091 243.418858 
L 292.123636 243.636662 
L 293.138182 241.475053 
L 294.152727 242.441903 
L 295.167273 241.937074 
L 296.181818 242.613879 
L 297.196364 243.054083 
L 298.210909 244.168213 
L 299.225455 244.771632 
L 300.24 248.358143 
L 301.254545 245.39799 
L 302.269091 245.764564 
L 303.283636 245.166076 
L 304.298182 243.44569 
L 305.312727 243.147818 
L 306.327273 244.320953 
L 308.356364 249.235385 
L 309.370909 243.792439 
L 310.385455 247.622385 
L 311.4 246.677594 
L 312.414545 247.76396 
L 313.429091 247.877402 
L 314.443636 244.618601 
L 315.458182 245.333223 
L 316.472727 245.078943 
L 317.487273 244.2162 
L 318.501818 248.401937 
L 319.516364 244.653025 
L 320.530909 247.674939 
L 321.545455 245.392438 
L 322.56 247.54198 
L 323.574545 249.0804 
L 324.589091 249.615919 
L 325.603636 247.11037 
L 326.618182 250.135899 
L 327.632727 245.303333 
L 328.647273 245.257913 
L 329.661818 248.063101 
L 330.676364 246.689229 
L 331.690909 248.774897 
L 332.705455 248.344485 
L 333.72 250.766211 
L 334.734545 251.032602 
L 335.749091 249.333277 
L 336.763636 249.661493 
L 337.778182 248.272534 
L 338.792727 244.931599 
L 340.821818 248.551749 
L 341.836364 246.647976 
L 342.850909 246.60278 
L 343.865455 250.029963 
L 344.88 249.728718 
L 345.894545 247.709814 
L 346.909091 245.969577 
L 347.923636 248.010032 
L 348.938182 249.033168 
L 349.952727 249.501491 
L 350.967273 251.058662 
L 351.981818 251.559132 
L 352.996364 247.664181 
L 354.010909 245.982868 
L 355.025455 250.263953 
L 357.054545 250.908956 
L 358.069091 247.211607 
L 359.083636 249.883889 
L 360.098182 249.613743 
L 361.112727 251.384764 
L 362.127273 248.857509 
L 363.141818 249.79513 
L 364.156364 251.141331 
L 365.170909 250.309315 
L 366.185455 252.082629 
L 367.2 250.248803 
L 368.214545 247.852966 
L 369.229091 249.226637 
L 370.243636 248.436377 
L 371.258182 249.157082 
L 372.272727 250.84255 
L 373.287273 250.580451 
L 374.301818 250.119714 
L 375.316364 250.16195 
L 377.345455 254.766069 
L 378.36 252.788109 
L 379.374545 249.676043 
L 380.389091 250.673941 
L 381.403636 251.909749 
L 382.418182 252.526854 
L 383.432727 251.649712 
L 384.447273 253.43091 
L 386.476364 251.743939 
L 387.490909 250.017019 
L 388.505455 247.429625 
L 389.52 249.88058 
L 390.534545 254.499942 
L 391.549091 253.926749 
L 392.563636 251.933337 
L 393.578182 252.641237 
L 394.592727 255.030258 
L 395.607273 252.869029 
L 396.621818 251.195682 
L 397.636364 252.84989 
L 398.650909 256.061124 
L 399.665455 252.987046 
L 400.68 254.398545 
L 401.694545 256.504186 
L 402.709091 254.958134 
L 403.723636 254.690196 
L 404.738182 254.980126 
L 405.752727 253.441785 
L 406.767273 252.85261 
L 407.781818 254.32772 
L 408.796364 253.860141 
L 409.810909 253.613653 
L 410.825455 255.61453 
L 411.84 255.209378 
L 412.854545 255.745009 
L 413.869091 254.496501 
L 414.883636 253.899309 
L 415.898182 255.900096 
L 416.912727 256.415257 
L 417.927273 255.776255 
L 418.941818 254.044869 
L 420.970909 254.073809 
L 421.985455 253.726724 
L 423 252.889074 
L 424.014545 254.193079 
L 425.029091 254.239454 
L 426.043636 255.331643 
L 427.058182 257.115392 
L 428.072727 254.69359 
L 429.087273 258.041438 
L 430.101818 254.677709 
L 431.116364 253.720494 
L 432.130909 258.350794 
L 433.145455 258.14881 
L 434.16 252.493314 
L 435.174545 255.272535 
L 436.189091 256.958642 
L 437.203636 252.806663 
L 438.218182 252.289307 
L 439.232727 253.074073 
L 440.247273 250.859055 
L 442.276364 256.513822 
L 443.290909 255.780455 
L 444.305455 256.555324 
L 445.32 256.003572 
L 446.334545 256.760943 
L 447.349091 253.733668 
L 448.363636 256.164209 
L 449.378182 254.698251 
L 450.392727 254.551181 
L 451.407273 256.276444 
L 452.421818 255.497526 
L 453.436364 257.120082 
L 454.450909 253.585609 
L 455.465455 252.624056 
L 456.48 257.582293 
L 457.494545 256.472211 
L 458.509091 253.870359 
L 459.523636 257.490871 
L 460.538182 254.114727 
L 461.552727 253.565729 
L 462.567273 257.239978 
L 463.581818 257.830696 
L 464.596364 257.139096 
L 465.610909 255.811421 
L 466.625455 258.039593 
L 467.64 253.462585 
L 468.654545 256.023982 
L 469.669091 257.034701 
L 470.683636 257.429764 
L 471.698182 257.685298 
L 472.712727 256.605324 
L 473.727273 254.724604 
L 474.741818 253.805215 
L 475.756364 256.906526 
L 476.770909 258.240496 
L 477.785455 257.172668 
L 478.8 259.014159 
L 479.814545 258.968453 
L 480.829091 256.971867 
L 481.843636 259.133169 
L 482.858182 259.938276 
L 483.872727 257.041303 
L 484.887273 257.954636 
L 485.901818 259.091301 
L 486.916364 254.071729 
L 487.930909 254.108891 
L 488.945455 258.414787 
L 489.96 255.406542 
L 490.974545 254.803682 
L 491.989091 256.002174 
L 493.003636 256.471761 
L 494.018182 256.693804 
L 495.032727 254.329597 
L 496.047273 255.278453 
L 497.061818 257.539399 
L 498.076364 257.375866 
L 499.090909 257.40827 
L 500.105455 254.827417 
L 501.12 257.086238 
L 502.134545 258.564615 
L 503.149091 257.163283 
L 504.163636 256.183893 
L 506.192727 260.514208 
L 507.207273 260.496204 
L 508.221818 260.102671 
L 509.236364 259.378178 
L 511.265455 259.204463 
L 512.28 256.967151 
L 513.294545 258.821157 
L 514.309091 259.052538 
L 515.323636 261.422384 
L 516.338182 257.754297 
L 517.352727 255.998329 
L 518.367273 255.11374 
L 519.381818 259.020977 
L 520.396364 258.545104 
L 521.410909 256.904829 
L 523.44 260.113324 
L 524.454545 260.413279 
L 525.469091 257.303272 
L 526.483636 256.398269 
L 527.498182 257.71372 
L 528.512727 258.114831 
L 529.527273 260.20299 
L 530.541818 259.855515 
L 531.556364 260.145596 
L 532.570909 257.244859 
L 533.585455 256.789722 
L 534.6 257.801561 
L 535.614545 258.139773 
L 536.629091 261.073666 
L 537.643636 257.572132 
L 538.658182 260.141412 
L 539.672727 258.812131 
L 540.687273 258.064483 
L 541.701818 260.580321 
L 542.716364 260.421416 
L 543.730909 260.70874 
L 544.745455 258.39503 
L 546.774545 259.934023 
L 547.789091 259.214963 
L 548.803636 256.452813 
L 549.818182 257.231431 
L 550.832727 260.696506 
L 551.847273 261.944298 
L 552.861818 261.431042 
L 553.876364 258.473335 
L 554.890909 257.611037 
L 555.905455 260.561369 
L 556.92 256.943364 
L 557.934545 260.221221 
L 558.949091 258.787892 
L 560.978182 259.887959 
L 561.992727 261.695981 
L 563.007273 260.174916 
L 564.021818 257.504904 
L 565.036364 257.982102 
L 566.050909 258.95961 
L 567.065455 259.309708 
L 568.08 260.171554 
L 569.094545 260.707454 
L 570.109091 260.130839 
L 571.123636 258.700155 
L 572.138182 261.219073 
L 573.152727 260.587135 
L 574.167273 257.299888 
L 575.181818 256.805272 
L 577.210909 263.508985 
L 578.225455 259.401876 
L 579.24 261.616173 
L 580.254545 262.325191 
L 581.269091 260.481742 
L 582.283636 262.995898 
L 583.298182 261.391752 
L 584.312727 258.912031 
L 585.327273 259.378038 
L 586.341818 261.457534 
L 587.356364 262.469233 
L 590.4 259.959581 
L 591.414545 260.942119 
L 592.429091 260.862714 
L 593.443636 261.922047 
L 594.458182 261.474761 
L 595.472727 263.056833 
L 596.487273 263.625376 
L 597.501818 262.513317 
L 598.516364 263.132983 
L 599.530909 262.739164 
L 600.545455 260.927319 
L 601.56 263.160708 
L 603.589091 255.075523 
L 604.603636 259.284447 
L 605.618182 259.513552 
L 606.632727 258.637229 
L 607.647273 260.694212 
L 608.661818 263.764821 
L 609.676364 263.152328 
L 610.690909 261.442716 
L 611.705455 263.845721 
L 612.72 264.211682 
L 613.734545 262.620442 
L 614.749091 263.798123 
L 615.763636 262.908055 
L 616.778182 261.674711 
L 617.792727 261.316176 
L 618.807273 262.65205 
L 619.821818 259.879975 
L 620.836364 264.024316 
L 621.850909 262.109628 
L 622.865455 258.888378 
L 623.88 261.811017 
L 624.894545 262.923628 
L 625.909091 263.110217 
L 626.923636 263.848503 
L 627.938182 261.972194 
L 628.952727 258.93038 
L 629.967273 188.449364 
L 630.981818 167.393131 
L 631.996364 194.882175 
L 633.010909 261.115077 
L 634.025455 259.443307 
L 635.04 262.383363 
L 636.054545 261.459465 
L 637.069091 263.617429 
L 639.098182 257.972362 
L 640.112727 263.996731 
L 641.127273 265.630902 
L 642.141818 263.608311 
L 643.156364 262.14196 
L 644.170909 262.331133 
L 645.185455 261.952511 
L 646.2 264.040999 
L 647.214545 264.064655 
L 648.229091 263.574467 
L 649.243636 262.664597 
L 650.258182 260.412199 
L 651.272727 262.018873 
L 652.287273 262.111802 
L 653.301818 264.39194 
L 654.316364 263.849163 
L 655.330909 262.733814 
L 656.345455 262.768102 
L 657.36 259.08751 
L 659.389091 265.901286 
L 660.403636 263.976952 
L 661.418182 261.642141 
L 662.432727 262.262199 
L 663.447273 263.680863 
L 664.461818 266.505571 
L 665.476364 266.082063 
L 666.490909 264.327509 
L 667.505455 261.465488 
L 668.52 263.401377 
L 669.534545 266.074732 
L 670.549091 263.512314 
L 671.563636 264.046167 
L 672.578182 265.843023 
L 673.592727 266.053373 
L 674.607273 262.710397 
L 675.621818 264.255608 
L 676.636364 264.502967 
L 677.650909 263.796533 
L 678.665455 264.683345 
L 679.68 267.186183 
L 680.694545 265.230003 
L 681.709091 265.526377 
L 682.723636 260.599901 
L 683.738182 263.505155 
L 684.752727 265.840332 
L 685.767273 266.916893 
L 686.781818 263.004032 
L 687.796364 262.113436 
L 688.810909 264.097538 
L 689.825455 264.183079 
L 690.84 263.074584 
L 691.854545 263.578246 
L 692.869091 263.3397 
L 693.883636 265.711928 
L 694.898182 264.816312 
L 695.912727 261.525144 
L 696.927273 261.431123 
L 697.941818 263.702027 
L 698.956364 266.942076 
L 699.970909 266.157285 
L 700.985455 265.011983 
L 702 263.41361 
L 703.014545 265.723751 
L 704.029091 265.455738 
L 705.043636 263.854534 
L 706.058182 264.376256 
L 707.072727 265.620824 
L 708.087273 262.217288 
L 709.101818 266.131162 
L 710.116364 265.807626 
L 711.130909 266.887037 
L 712.145455 267.39573 
L 713.16 267.406479 
L 714.174545 266.675576 
L 715.189091 265.784095 
L 716.203636 266.562218 
L 717.218182 264.339821 
L 718.232727 264.590598 
L 719.247273 264.363453 
L 720.261818 265.692916 
L 721.276364 266.797792 
L 722.290909 263.966824 
L 723.305455 265.871795 
L 724.32 264.966341 
L 725.334545 268.180381 
L 726.349091 266.765728 
L 727.363636 263.361876 
L 728.378182 265.352826 
L 729.392727 266.903632 
L 730.407273 265.572328 
L 731.421818 267.005277 
L 732.436364 267.368326 
L 733.450909 265.969658 
L 734.465455 265.89307 
L 735.48 266.458112 
L 736.494545 265.15518 
L 737.509091 265.595074 
L 738.523636 267.188581 
L 739.538182 264.543621 
L 740.552727 266.756529 
L 741.567273 267.643549 
L 742.581818 264.375307 
L 743.596364 263.336414 
L 744.610909 264.361153 
L 745.625455 268.668792 
L 746.64 269.787662 
L 747.654545 265.573315 
L 748.669091 267.128015 
L 749.683636 268.031094 
L 750.698182 266.594602 
L 751.712727 264.602723 
L 752.727273 265.860097 
L 753.741818 269.359032 
L 754.756364 265.618517 
L 755.770909 264.480327 
L 756.785455 266.239257 
L 757.8 267.698191 
L 758.814545 267.310694 
L 759.829091 264.125668 
L 760.843636 261.516985 
L 761.858182 266.060654 
L 762.872727 269.032543 
L 763.887273 267.687665 
L 764.901818 266.680417 
L 765.916364 267.173533 
L 766.930909 268.493505 
L 767.945455 270.35365 
L 768.96 267.794715 
L 769.974545 267.171359 
L 770.989091 269.058156 
L 772.003636 267.63991 
L 773.018182 267.788059 
L 774.032727 270.266177 
L 776.061818 269.099737 
L 777.076364 268.53825 
L 778.090909 267.527277 
L 779.105455 268.940291 
L 780.12 271.526225 
L 781.134545 267.667321 
L 782.149091 269.435755 
L 783.163636 272.386634 
L 784.178182 269.85111 
L 785.192727 268.515999 
L 786.207273 269.932287 
L 787.221818 268.303771 
L 788.236364 264.414447 
L 789.250909 268.285042 
L 790.265455 268.986351 
L 791.28 267.822539 
L 792.294545 268.227781 
L 793.309091 268.759741 
L 794.323636 266.529157 
L 795.338182 269.674748 
L 796.352727 269.124447 
L 797.367273 266.348039 
L 798.381818 268.605033 
L 799.396364 269.927003 
L 800.410909 268.973149 
L 801.425455 268.827928 
L 802.44 270.159363 
L 803.454545 270.268517 
L 804.469091 269.395708 
L 805.483636 269.414598 
L 806.498182 270.681355 
L 807.512727 273.404041 
L 808.527273 273.022795 
L 809.541818 274.059484 
L 810.556364 270.259623 
L 811.570909 268.959258 
L 812.585455 270.925197 
L 813.6 271.0039 
L 814.614545 270.635912 
L 815.629091 268.923236 
L 816.643636 269.442182 
L 817.658182 269.371838 
L 818.672727 272.824236 
L 819.687273 271.361807 
L 820.701818 271.038839 
L 821.716364 270.184451 
L 822.730909 267.838795 
L 823.745455 267.665734 
L 824.76 271.040922 
L 825.774545 272.723913 
L 826.789091 271.771222 
L 827.803636 271.551754 
L 828.818182 267.884796 
L 829.832727 267.933261 
L 830.847273 270.560059 
L 831.861818 271.368808 
L 832.876364 271.862397 
L 833.890909 271.344328 
L 834.905455 272.571006 
L 835.92 269.257035 
L 837.949091 272.241724 
L 838.963636 274.314144 
L 839.978182 271.602715 
L 840.992727 270.909101 
L 842.007273 272.338944 
L 843.021818 272.1533 
L 844.036364 269.584098 
L 846.065455 270.476537 
L 847.08 272.437815 
L 848.094545 270.928961 
L 849.109091 271.310044 
L 851.138182 272.919702 
L 852.152727 270.430898 
L 853.167273 272.299465 
L 854.181818 275.038754 
L 855.196364 272.995514 
L 856.210909 273.399358 
L 857.225455 271.561511 
L 858.24 270.327261 
L 860.269091 271.176715 
L 861.283636 273.816508 
L 862.298182 274.790468 
L 863.312727 271.59497 
L 864.327273 271.786401 
L 865.341818 268.976053 
L 866.356364 271.736569 
L 867.370909 272.821627 
L 868.385455 272.646875 
L 869.4 270.818486 
L 870.414545 271.585682 
L 871.429091 271.04018 
L 872.443636 273.560812 
L 873.458182 274.766435 
L 874.472727 275.135557 
L 875.487273 276.221603 
L 876.501818 273.976018 
L 877.516364 272.685767 
L 878.530909 272.684695 
L 879.545455 274.331014 
L 880.56 272.593899 
L 881.574545 273.42564 
L 882.589091 273.525799 
L 883.603636 275.60917 
L 884.618182 274.010221 
L 885.632727 272.179317 
L 886.647273 273.099694 
L 887.661818 272.73263 
L 888.676364 273.350113 
L 889.690909 273.038818 
L 890.705455 272.954828 
L 891.72 273.002676 
L 892.734545 274.403141 
L 893.749091 273.821564 
L 894.763636 274.914286 
L 895.778182 276.384536 
L 896.792727 277.467337 
L 897.807273 277.390527 
L 898.821818 273.89638 
L 899.836364 273.858023 
L 900.850909 273.497211 
L 901.865455 274.319509 
L 902.88 274.821044 
L 903.894545 274.782829 
L 904.909091 274.970448 
L 905.923636 276.023391 
L 906.938182 275.310657 
L 907.952727 273.702522 
L 908.967273 274.330232 
L 909.981818 276.368238 
L 910.996364 275.309362 
L 912.010909 276.305582 
L 913.025455 276.337566 
L 914.04 275.563513 
L 915.054545 272.874243 
L 916.069091 276.966032 
L 917.083636 274.307068 
L 918.098182 275.047237 
L 919.112727 276.022634 
L 920.127273 275.859621 
L 921.141818 278.871799 
L 922.156364 278.147976 
L 923.170909 274.688265 
L 924.185455 275.605082 
L 925.2 274.275571 
L 926.214545 273.572762 
L 927.229091 274.370643 
L 928.243636 277.276532 
L 930.272727 272.447929 
L 931.287273 275.860353 
L 932.301818 276.047733 
L 933.316364 274.686571 
L 934.330909 274.862048 
L 935.345455 275.333049 
L 936.36 276.26426 
L 937.374545 275.691624 
L 938.389091 275.967127 
L 939.403636 273.975527 
L 940.418182 276.475473 
L 941.432727 277.718671 
L 942.447273 277.664354 
L 943.461818 276.200664 
L 944.476364 277.708082 
L 945.490909 279.457658 
L 946.505455 277.34715 
L 947.52 278.173331 
L 948.534545 274.449013 
L 949.549091 276.930633 
L 950.563636 277.643271 
L 952.592727 278.090459 
L 953.607273 274.247708 
L 954.621818 276.501918 
L 955.636364 282.473101 
L 956.650909 279.493778 
L 957.665455 277.587099 
L 958.68 277.190687 
L 959.694545 277.855872 
L 960.709091 279.88711 
L 961.723636 278.583154 
L 962.738182 276.300206 
L 963.752727 278.152981 
L 964.767273 277.701362 
L 965.781818 278.012611 
L 966.796364 277.669142 
L 967.810909 277.74192 
L 968.825455 277.151789 
L 969.84 277.651518 
L 970.854545 276.36313 
L 971.869091 276.868479 
L 972.883636 279.716798 
L 973.898182 278.120338 
L 974.912727 279.709008 
L 975.927273 278.926583 
L 976.941818 276.898426 
L 977.956364 276.312036 
L 978.970909 277.358915 
L 979.985455 279.698009 
L 981 278.467729 
L 982.014545 280.586705 
L 983.029091 276.985266 
L 984.043636 278.798174 
L 985.058182 279.264533 
L 986.072727 276.960581 
L 987.087273 276.258823 
L 988.101818 279.997338 
L 989.116364 280.700253 
L 990.130909 280.178058 
L 991.145455 280.628054 
L 992.16 279.123022 
L 993.174545 279.397101 
L 994.189091 280.197591 
L 995.203636 279.102842 
L 996.218182 277.573964 
L 998.247273 282.164603 
L 999.261818 280.133591 
L 1000.276364 279.85892 
L 1001.290909 280.537109 
L 1002.305455 279.811391 
L 1003.32 279.485763 
L 1004.334545 279.00379 
L 1005.349091 278.159677 
L 1006.363636 279.852265 
L 1007.378182 279.940675 
L 1008.392727 279.765254 
L 1009.407273 279.87014 
L 1010.421818 277.238164 
L 1012.450909 280.985961 
L 1013.465455 282.168465 
L 1014.48 280.055222 
L 1015.494545 280.993246 
L 1016.509091 283.777253 
L 1017.523636 279.585712 
L 1018.538182 279.473944 
L 1019.552727 280.070138 
L 1020.567273 279.817268 
L 1021.581818 280.80959 
L 1022.596364 280.235944 
L 1023.610909 281.308426 
L 1024.625455 281.521197 
L 1026.654545 280.229502 
L 1027.669091 280.926623 
L 1028.683636 284.838261 
L 1030.712727 277.773646 
L 1031.727273 279.90982 
L 1032.741818 281.15892 
L 1033.756364 280.553479 
L 1034.770909 281.490005 
L 1035.785455 280.783286 
L 1036.8 279.626002 
L 1036.8 279.626002 
" clip-path="url(#pb12402270c)" style="fill: none; stroke: #000000; stroke-opacity: 0.75; stroke-width: 0.5; stroke-linecap: square"/>
   </g>
   <g id="matplotlib.axis_1">
    <g id="xtick_1">
     <g id="line2d_2">
      <path d="M 144 294.69913 
L 144 77.76 
" clip-path="url(#pb12402270c)" style="fill: none; stroke-dasharray: 0.8,1.32; stroke-dashoffset: 0; stroke: #b0b0b0; stroke-width: 0.8"/>
     </g>
     <g id="line2d_3">
      <defs>
       <path id="ma071889a88" d="M 0 0 
L 0 3.5 
" style="stroke: #000000; stroke-width: 0.8"/>
      </defs>
      <g>
       <use xlink:href="#ma071889a88" x="144" y="294.69913" style="stroke: #000000; stroke-width: 0.8"/>
      </g>
     </g>
     <g id="text_1">
      <!-- 0 -->
      <g transform="translate(140.81875 309.297568)scale(0.1 -0.1)">
       <defs>
        <path id="DejaVuSans-30" d="M 2034 4250 
Q 1547 4250 1301 3770 
Q 1056 3291 1056 2328 
Q 1056 1369 1301 889 
Q 1547 409 2034 409 
Q 2525 409 2770 889 
Q 3016 1369 3016 2328 
Q 3016 3291 2770 3770 
Q 2525 4250 2034 4250 
z
M 2034 4750 
Q 2819 4750 3233 4129 
Q 3647 3509 3647 2328 
Q 3647 1150 3233 529 
Q 2819 -91 2034 -91 
Q 1250 -91 836 529 
Q 422 1150 422 2328 
Q 422 3509 836 4129 
Q 1250 4750 2034 4750 
z
" transform="scale(0.015625)"/>
       </defs>
       <use xlink:href="#DejaVuSans-30"/>
      </g>
     </g>
    </g>
    <g id="xtick_2">
     <g id="line2d_4">
      <path d="M 306.327273 294.69913 
L 306.327273 77.76 
" clip-path="url(#pb12402270c)" style="fill: none; stroke-dasharray: 0.8,1.32; stroke-dashoffset: 0; stroke: #b0b0b0; stroke-width: 0.8"/>
     </g>
     <g id="line2d_5">
      <g>
       <use xlink:href="#ma071889a88" x="306.327273" y="294.69913" style="stroke: #000000; stroke-width: 0.8"/>
      </g>
     </g>
     <g id="text_2">
      <!-- 20 -->
      <g transform="translate(299.964773 309.297568)scale(0.1 -0.1)">
       <defs>
        <path id="DejaVuSans-32" d="M 1228 531 
L 3431 531 
L 3431 0 
L 469 0 
L 469 531 
Q 828 903 1448 1529 
Q 2069 2156 2228 2338 
Q 2531 2678 2651 2914 
Q 2772 3150 2772 3378 
Q 2772 3750 2511 3984 
Q 2250 4219 1831 4219 
Q 1534 4219 1204 4116 
Q 875 4013 500 3803 
L 500 4441 
Q 881 4594 1212 4672 
Q 1544 4750 1819 4750 
Q 2544 4750 2975 4387 
Q 3406 4025 3406 3419 
Q 3406 3131 3298 2873 
Q 3191 2616 2906 2266 
Q 2828 2175 2409 1742 
Q 1991 1309 1228 531 
z
" transform="scale(0.015625)"/>
       </defs>
       <use xlink:href="#DejaVuSans-32"/>
       <use xlink:href="#DejaVuSans-30" x="63.623047"/>
      </g>
     </g>
    </g>
    <g id="xtick_3">
     <g id="line2d_6">
      <path d="M 468.654545 294.69913 
L 468.654545 77.76 
" clip-path="url(#pb12402270c)" style="fill: none; stroke-dasharray: 0.8,1.32; stroke-dashoffset: 0; stroke: #b0b0b0; stroke-width: 0.8"/>
     </g>
     <g id="line2d_7">
      <g>
       <use xlink:href="#ma071889a88" x="468.654545" y="294.69913" style="stroke: #000000; stroke-width: 0.8"/>
      </g>
     </g>
     <g id="text_3">
      <!-- 40 -->
      <g transform="translate(462.292045 309.297568)scale(0.1 -0.1)">
       <defs>
        <path id="DejaVuSans-34" d="M 2419 4116 
L 825 1625 
L 2419 1625 
L 2419 4116 
z
M 2253 4666 
L 3047 4666 
L 3047 1625 
L 3713 1625 
L 3713 1100 
L 3047 1100 
L 3047 0 
L 2419 0 
L 2419 1100 
L 313 1100 
L 313 1709 
L 2253 4666 
z
" transform="scale(0.015625)"/>
       </defs>
       <use xlink:href="#DejaVuSans-34"/>
       <use xlink:href="#DejaVuSans-30" x="63.623047"/>
      </g>
     </g>
    </g>
    <g id="xtick_4">
     <g id="line2d_8">
      <path d="M 630.981818 294.69913 
L 630.981818 77.76 
" clip-path="url(#pb12402270c)" style="fill: none; stroke-dasharray: 0.8,1.32; stroke-dashoffset: 0; stroke: #b0b0b0; stroke-width: 0.8"/>
     </g>
     <g id="line2d_9">
      <g>
       <use xlink:href="#ma071889a88" x="630.981818" y="294.69913" style="stroke: #000000; stroke-width: 0.8"/>
      </g>
     </g>
     <g id="text_4">
      <!-- 60 -->
      <g transform="translate(624.619318 309.297568)scale(0.1 -0.1)">
       <defs>
        <path id="DejaVuSans-36" d="M 2113 2584 
Q 1688 2584 1439 2293 
Q 1191 2003 1191 1497 
Q 1191 994 1439 701 
Q 1688 409 2113 409 
Q 2538 409 2786 701 
Q 3034 994 3034 1497 
Q 3034 2003 2786 2293 
Q 2538 2584 2113 2584 
z
M 3366 4563 
L 3366 3988 
Q 3128 4100 2886 4159 
Q 2644 4219 2406 4219 
Q 1781 4219 1451 3797 
Q 1122 3375 1075 2522 
Q 1259 2794 1537 2939 
Q 1816 3084 2150 3084 
Q 2853 3084 3261 2657 
Q 3669 2231 3669 1497 
Q 3669 778 3244 343 
Q 2819 -91 2113 -91 
Q 1303 -91 875 529 
Q 447 1150 447 2328 
Q 447 3434 972 4092 
Q 1497 4750 2381 4750 
Q 2619 4750 2861 4703 
Q 3103 4656 3366 4563 
z
" transform="scale(0.015625)"/>
       </defs>
       <use xlink:href="#DejaVuSans-36"/>
       <use xlink:href="#DejaVuSans-30" x="63.623047"/>
      </g>
     </g>
    </g>
    <g id="xtick_5">
     <g id="line2d_10">
      <path d="M 793.309091 294.69913 
L 793.309091 77.76 
" clip-path="url(#pb12402270c)" style="fill: none; stroke-dasharray: 0.8,1.32; stroke-dashoffset: 0; stroke: #b0b0b0; stroke-width: 0.8"/>
     </g>
     <g id="line2d_11">
      <g>
       <use xlink:href="#ma071889a88" x="793.309091" y="294.69913" style="stroke: #000000; stroke-width: 0.8"/>
      </g>
     </g>
     <g id="text_5">
      <!-- 80 -->
      <g transform="translate(786.946591 309.297568)scale(0.1 -0.1)">
       <defs>
        <path id="DejaVuSans-38" d="M 2034 2216 
Q 1584 2216 1326 1975 
Q 1069 1734 1069 1313 
Q 1069 891 1326 650 
Q 1584 409 2034 409 
Q 2484 409 2743 651 
Q 3003 894 3003 1313 
Q 3003 1734 2745 1975 
Q 2488 2216 2034 2216 
z
M 1403 2484 
Q 997 2584 770 2862 
Q 544 3141 544 3541 
Q 544 4100 942 4425 
Q 1341 4750 2034 4750 
Q 2731 4750 3128 4425 
Q 3525 4100 3525 3541 
Q 3525 3141 3298 2862 
Q 3072 2584 2669 2484 
Q 3125 2378 3379 2068 
Q 3634 1759 3634 1313 
Q 3634 634 3220 271 
Q 2806 -91 2034 -91 
Q 1263 -91 848 271 
Q 434 634 434 1313 
Q 434 1759 690 2068 
Q 947 2378 1403 2484 
z
M 1172 3481 
Q 1172 3119 1398 2916 
Q 1625 2713 2034 2713 
Q 2441 2713 2670 2916 
Q 2900 3119 2900 3481 
Q 2900 3844 2670 4047 
Q 2441 4250 2034 4250 
Q 1625 4250 1398 4047 
Q 1172 3844 1172 3481 
z
" transform="scale(0.015625)"/>
       </defs>
       <use xlink:href="#DejaVuSans-38"/>
       <use xlink:href="#DejaVuSans-30" x="63.623047"/>
      </g>
     </g>
    </g>
    <g id="xtick_6">
     <g id="line2d_12">
      <path d="M 955.636364 294.69913 
L 955.636364 77.76 
" clip-path="url(#pb12402270c)" style="fill: none; stroke-dasharray: 0.8,1.32; stroke-dashoffset: 0; stroke: #b0b0b0; stroke-width: 0.8"/>
     </g>
     <g id="line2d_13">
      <g>
       <use xlink:href="#ma071889a88" x="955.636364" y="294.69913" style="stroke: #000000; stroke-width: 0.8"/>
      </g>
     </g>
     <g id="text_6">
      <!-- 100 -->
      <g transform="translate(946.092614 309.297568)scale(0.1 -0.1)">
       <defs>
        <path id="DejaVuSans-31" d="M 794 531 
L 1825 531 
L 1825 4091 
L 703 3866 
L 703 4441 
L 1819 4666 
L 2450 4666 
L 2450 531 
L 3481 531 
L 3481 0 
L 794 0 
L 794 531 
z
" transform="scale(0.015625)"/>
       </defs>
       <use xlink:href="#DejaVuSans-31"/>
       <use xlink:href="#DejaVuSans-30" x="63.623047"/>
       <use xlink:href="#DejaVuSans-30" x="127.246094"/>
      </g>
     </g>
    </g>
   </g>
   <g id="matplotlib.axis_2">
    <g id="ytick_1">
     <g id="line2d_14">
      <path d="M 144 292.894702 
L 1036.8 292.894702 
" clip-path="url(#pb12402270c)" style="fill: none; stroke-dasharray: 0.8,1.32; stroke-dashoffset: 0; stroke: #b0b0b0; stroke-width: 0.8"/>
     </g>
     <g id="line2d_15">
      <defs>
       <path id="m0f15e7b2b0" d="M 0 0 
L -3.5 0 
" style="stroke: #000000; stroke-width: 0.8"/>
      </defs>
      <g>
       <use xlink:href="#m0f15e7b2b0" x="144" y="292.894702" style="stroke: #000000; stroke-width: 0.8"/>
      </g>
     </g>
     <g id="text_7">
      <!-- −40 -->
      <g transform="translate(115.895313 296.693921)scale(0.1 -0.1)">
       <defs>
        <path id="DejaVuSans-2212" d="M 678 2272 
L 4684 2272 
L 4684 1741 
L 678 1741 
L 678 2272 
z
" transform="scale(0.015625)"/>
       </defs>
       <use xlink:href="#DejaVuSans-2212"/>
       <use xlink:href="#DejaVuSans-34" x="83.789062"/>
       <use xlink:href="#DejaVuSans-30" x="147.412109"/>
      </g>
     </g>
    </g>
    <g id="ytick_2">
     <g id="line2d_16">
      <path d="M 144 259.207855 
L 1036.8 259.207855 
" clip-path="url(#pb12402270c)" style="fill: none; stroke-dasharray: 0.8,1.32; stroke-dashoffset: 0; stroke: #b0b0b0; stroke-width: 0.8"/>
     </g>
     <g id="line2d_17">
      <g>
       <use xlink:href="#m0f15e7b2b0" x="144" y="259.207855" style="stroke: #000000; stroke-width: 0.8"/>
      </g>
     </g>
     <g id="text_8">
      <!-- −30 -->
      <g transform="translate(115.895313 263.007074)scale(0.1 -0.1)">
       <defs>
        <path id="DejaVuSans-33" d="M 2597 2516 
Q 3050 2419 3304 2112 
Q 3559 1806 3559 1356 
Q 3559 666 3084 287 
Q 2609 -91 1734 -91 
Q 1441 -91 1130 -33 
Q 819 25 488 141 
L 488 750 
Q 750 597 1062 519 
Q 1375 441 1716 441 
Q 2309 441 2620 675 
Q 2931 909 2931 1356 
Q 2931 1769 2642 2001 
Q 2353 2234 1838 2234 
L 1294 2234 
L 1294 2753 
L 1863 2753 
Q 2328 2753 2575 2939 
Q 2822 3125 2822 3475 
Q 2822 3834 2567 4026 
Q 2313 4219 1838 4219 
Q 1578 4219 1281 4162 
Q 984 4106 628 3988 
L 628 4550 
Q 988 4650 1302 4700 
Q 1616 4750 1894 4750 
Q 2613 4750 3031 4423 
Q 3450 4097 3450 3541 
Q 3450 3153 3228 2886 
Q 3006 2619 2597 2516 
z
" transform="scale(0.015625)"/>
       </defs>
       <use xlink:href="#DejaVuSans-2212"/>
       <use xlink:href="#DejaVuSans-33" x="83.789062"/>
       <use xlink:href="#DejaVuSans-30" x="147.412109"/>
      </g>
     </g>
    </g>
    <g id="ytick_3">
     <g id="line2d_18">
      <path d="M 144 225.521008 
L 1036.8 225.521008 
" clip-path="url(#pb12402270c)" style="fill: none; stroke-dasharray: 0.8,1.32; stroke-dashoffset: 0; stroke: #b0b0b0; stroke-width: 0.8"/>
     </g>
     <g id="line2d_19">
      <g>
       <use xlink:href="#m0f15e7b2b0" x="144" y="225.521008" style="stroke: #000000; stroke-width: 0.8"/>
      </g>
     </g>
     <g id="text_9">
      <!-- −20 -->
      <g transform="translate(115.895313 229.320226)scale(0.1 -0.1)">
       <use xlink:href="#DejaVuSans-2212"/>
       <use xlink:href="#DejaVuSans-32" x="83.789062"/>
       <use xlink:href="#DejaVuSans-30" x="147.412109"/>
      </g>
     </g>
    </g>
    <g id="ytick_4">
     <g id="line2d_20">
      <path d="M 144 191.83416 
L 1036.8 191.83416 
" clip-path="url(#pb12402270c)" style="fill: none; stroke-dasharray: 0.8,1.32; stroke-dashoffset: 0; stroke: #b0b0b0; stroke-width: 0.8"/>
     </g>
     <g id="line2d_21">
      <g>
       <use xlink:href="#m0f15e7b2b0" x="144" y="191.83416" style="stroke: #000000; stroke-width: 0.8"/>
      </g>
     </g>
     <g id="text_10">
      <!-- −10 -->
      <g transform="translate(115.895313 195.633379)scale(0.1 -0.1)">
       <use xlink:href="#DejaVuSans-2212"/>
       <use xlink:href="#DejaVuSans-31" x="83.789062"/>
       <use xlink:href="#DejaVuSans-30" x="147.412109"/>
      </g>
     </g>
    </g>
    <g id="ytick_5">
     <g id="line2d_22">
      <path d="M 144 158.147313 
L 1036.8 158.147313 
" clip-path="url(#pb12402270c)" style="fill: none; stroke-dasharray: 0.8,1.32; stroke-dashoffset: 0; stroke: #b0b0b0; stroke-width: 0.8"/>
     </g>
     <g id="line2d_23">
      <g>
       <use xlink:href="#m0f15e7b2b0" x="144" y="158.147313" style="stroke: #000000; stroke-width: 0.8"/>
      </g>
     </g>
     <g id="text_11">
      <!-- 0 -->
      <g transform="translate(130.6375 161.946532)scale(0.1 -0.1)">
       <use xlink:href="#DejaVuSans-30"/>
      </g>
     </g>
    </g>
    <g id="ytick_6">
     <g id="line2d_24">
      <path d="M 144 124.460466 
L 1036.8 124.460466 
" clip-path="url(#pb12402270c)" style="fill: none; stroke-dasharray: 0.8,1.32; stroke-dashoffset: 0; stroke: #b0b0b0; stroke-width: 0.8"/>
     </g>
     <g id="line2d_25">
      <g>
       <use xlink:href="#m0f15e7b2b0" x="144" y="124.460466" style="stroke: #000000; stroke-width: 0.8"/>
      </g>
     </g>
     <g id="text_12">
      <!-- 10 -->
      <g transform="translate(124.275 128.259685)scale(0.1 -0.1)">
       <use xlink:href="#DejaVuSans-31"/>
       <use xlink:href="#DejaVuSans-30" x="63.623047"/>
      </g>
     </g>
    </g>
    <g id="ytick_7">
     <g id="line2d_26">
      <path d="M 144 90.773618 
L 1036.8 90.773618 
" clip-path="url(#pb12402270c)" style="fill: none; stroke-dasharray: 0.8,1.32; stroke-dashoffset: 0; stroke: #b0b0b0; stroke-width: 0.8"/>
     </g>
     <g id="line2d_27">
      <g>
       <use xlink:href="#m0f15e7b2b0" x="144" y="90.773618" style="stroke: #000000; stroke-width: 0.8"/>
      </g>
     </g>
     <g id="text_13">
      <!-- 20 -->
      <g transform="translate(124.275 94.572837)scale(0.1 -0.1)">
       <use xlink:href="#DejaVuSans-32"/>
       <use xlink:href="#DejaVuSans-30" x="63.623047"/>
      </g>
     </g>
    </g>
    <g id="text_14">
     <!-- $\mathrm{µV²/Hz}$$\ \mathrm{(dB)}$ -->
     <g transform="translate(109.795312 214.979565)rotate(-90)scale(0.1 -0.1)">
      <defs>
       <path id="DejaVuSans-b5" d="M 544 -1331 
L 544 3500 
L 1119 3500 
L 1119 1325 
Q 1119 872 1334 640 
Q 1550 409 1972 409 
Q 2434 409 2667 671 
Q 2900 934 2900 1459 
L 2900 3500 
L 3475 3500 
L 3475 806 
Q 3475 619 3529 530 
Q 3584 441 3700 441 
Q 3728 441 3778 458 
Q 3828 475 3916 513 
L 3916 50 
Q 3788 -22 3673 -56 
Q 3559 -91 3450 -91 
Q 3234 -91 3106 31 
Q 2978 153 2931 403 
Q 2775 156 2548 32 
Q 2322 -91 2016 -91 
Q 1697 -91 1473 31 
Q 1250 153 1119 397 
L 1119 -1331 
L 544 -1331 
z
" transform="scale(0.015625)"/>
       <path id="DejaVuSans-56" d="M 1831 0 
L 50 4666 
L 709 4666 
L 2188 738 
L 3669 4666 
L 4325 4666 
L 2547 0 
L 1831 0 
z
" transform="scale(0.015625)"/>
       <path id="DejaVuSans-b2" d="M 838 2444 
L 2163 2444 
L 2163 2088 
L 294 2088 
L 294 2431 
Q 400 2528 597 2703 
Q 1672 3656 1672 3950 
Q 1672 4156 1509 4282 
Q 1347 4409 1081 4409 
Q 919 4409 728 4354 
Q 538 4300 313 4191 
L 313 4575 
Q 553 4663 761 4706 
Q 969 4750 1147 4750 
Q 1600 4750 1872 4544 
Q 2144 4338 2144 4000 
Q 2144 3566 1109 2678 
Q 934 2528 838 2444 
z
" transform="scale(0.015625)"/>
       <path id="DejaVuSans-2f" d="M 1625 4666 
L 2156 4666 
L 531 -594 
L 0 -594 
L 1625 4666 
z
" transform="scale(0.015625)"/>
       <path id="DejaVuSans-48" d="M 628 4666 
L 1259 4666 
L 1259 2753 
L 3553 2753 
L 3553 4666 
L 4184 4666 
L 4184 0 
L 3553 0 
L 3553 2222 
L 1259 2222 
L 1259 0 
L 628 0 
L 628 4666 
z
" transform="scale(0.015625)"/>
       <path id="DejaVuSans-7a" d="M 353 3500 
L 3084 3500 
L 3084 2975 
L 922 459 
L 3084 459 
L 3084 0 
L 275 0 
L 275 525 
L 2438 3041 
L 353 3041 
L 353 3500 
z
" transform="scale(0.015625)"/>
       <path id="DejaVuSans-28" d="M 1984 4856 
Q 1566 4138 1362 3434 
Q 1159 2731 1159 2009 
Q 1159 1288 1364 580 
Q 1569 -128 1984 -844 
L 1484 -844 
Q 1016 -109 783 600 
Q 550 1309 550 2009 
Q 550 2706 781 3412 
Q 1013 4119 1484 4856 
L 1984 4856 
z
" transform="scale(0.015625)"/>
       <path id="DejaVuSans-64" d="M 2906 2969 
L 2906 4863 
L 3481 4863 
L 3481 0 
L 2906 0 
L 2906 525 
Q 2725 213 2448 61 
Q 2172 -91 1784 -91 
Q 1150 -91 751 415 
Q 353 922 353 1747 
Q 353 2572 751 3078 
Q 1150 3584 1784 3584 
Q 2172 3584 2448 3432 
Q 2725 3281 2906 2969 
z
M 947 1747 
Q 947 1113 1208 752 
Q 1469 391 1925 391 
Q 2381 391 2643 752 
Q 2906 1113 2906 1747 
Q 2906 2381 2643 2742 
Q 2381 3103 1925 3103 
Q 1469 3103 1208 2742 
Q 947 2381 947 1747 
z
" transform="scale(0.015625)"/>
       <path id="DejaVuSans-42" d="M 1259 2228 
L 1259 519 
L 2272 519 
Q 2781 519 3026 730 
Q 3272 941 3272 1375 
Q 3272 1813 3026 2020 
Q 2781 2228 2272 2228 
L 1259 2228 
z
M 1259 4147 
L 1259 2741 
L 2194 2741 
Q 2656 2741 2882 2914 
Q 3109 3088 3109 3444 
Q 3109 3797 2882 3972 
Q 2656 4147 2194 4147 
L 1259 4147 
z
M 628 4666 
L 2241 4666 
Q 2963 4666 3353 4366 
Q 3744 4066 3744 3513 
Q 3744 3084 3544 2831 
Q 3344 2578 2956 2516 
Q 3422 2416 3680 2098 
Q 3938 1781 3938 1306 
Q 3938 681 3513 340 
Q 3088 0 2303 0 
L 628 0 
L 628 4666 
z
" transform="scale(0.015625)"/>
       <path id="DejaVuSans-29" d="M 513 4856 
L 1013 4856 
Q 1481 4119 1714 3412 
Q 1947 2706 1947 2009 
Q 1947 1309 1714 600 
Q 1481 -109 1013 -844 
L 513 -844 
Q 928 -128 1133 580 
Q 1338 1288 1338 2009 
Q 1338 2731 1133 3434 
Q 928 4138 513 4856 
z
" transform="scale(0.015625)"/>
      </defs>
      <use xlink:href="#DejaVuSans-b5" transform="translate(0 0.015625)"/>
      <use xlink:href="#DejaVuSans-56" transform="translate(63.623047 0.015625)"/>
      <use xlink:href="#DejaVuSans-b2" transform="translate(132.03125 0.015625)"/>
      <use xlink:href="#DejaVuSans-2f" transform="translate(172.119141 0.015625)"/>
      <use xlink:href="#DejaVuSans-48" transform="translate(204.060547 0.015625)"/>
      <use xlink:href="#DejaVuSans-7a" transform="translate(279.255859 0.015625)"/>
      <use xlink:href="#DejaVuSans-28" transform="translate(364.216472 0.015625)"/>
      <use xlink:href="#DejaVuSans-64" transform="translate(403.230144 0.015625)"/>
      <use xlink:href="#DejaVuSans-42" transform="translate(466.706707 0.015625)"/>
      <use xlink:href="#DejaVuSans-29" transform="translate(535.310222 0.015625)"/>
     </g>
    </g>
   </g>
   <g id="line2d_28">
    <path clip-path="url(#pb12402270c)" style="fill: none; stroke-dasharray: 7.4,3.2; stroke-dashoffset: 0; stroke: #000000; stroke-opacity: 0.25; stroke-width: 2"/>
   </g>
   <g id="line2d_29">
    <path d="M 144 294.69913 
L 144 77.76 
" clip-path="url(#pb12402270c)" style="fill: none; stroke-dasharray: 7.4,3.2; stroke-dashoffset: 0; stroke: #000000; stroke-opacity: 0.25; stroke-width: 2"/>
   </g>
   <g id="patch_3">
    <path d="M 144 294.69913 
L 144 77.76 
" style="fill: none; stroke: #000000; stroke-width: 0.8; stroke-linejoin: miter; stroke-linecap: square"/>
   </g>
   <g id="patch_4">
    <path d="M 1036.8 294.69913 
L 1036.8 77.76 
" style="fill: none; stroke: #000000; stroke-width: 0.8; stroke-linejoin: miter; stroke-linecap: square"/>
   </g>
   <g id="patch_5">
    <path d="M 144 294.69913 
L 1036.8 294.69913 
" style="fill: none; stroke: #000000; stroke-width: 0.8; stroke-linejoin: miter; stroke-linecap: square"/>
   </g>
   <g id="patch_6">
    <path d="M 144 77.76 
L 1036.8 77.76 
" style="fill: none; stroke: #000000; stroke-width: 0.8; stroke-linejoin: miter; stroke-linecap: square"/>
   </g>
   <g id="text_15">
    <!-- ﭺﺎﻧ ﺮﺘﻠﯿﻓ ﻝﺎﻤﻋﺍ ﺯﺍ ﻞﺒﻗ ،ﻥﺍﻮﺗ ﯽﻔﯿﻃ ﯽﻟﺎﮕﭼ -->
    <g style="fill: #2d1754" transform="translate(451.500937 65.251826)scale(0.22 -0.22)">
     <defs>
      <path id="BNazanin-fb7a" d="M 3425 -1322 
Q 3125 -1594 2797 -1694 
Q 2513 -1781 2066 -1781 
Q 1200 -1781 794 -1366 
Q 484 -1050 484 -566 
Q 484 597 2009 1200 
Q 1369 1309 1091 1309 
Q 953 1309 718 1148 
Q 484 988 522 988 
Q 475 988 488 1088 
Q 509 1269 631 1450 
Q 834 1753 1191 1753 
Q 1478 1753 2047 1653 
Q 2616 1553 2906 1553 
L 3200 1553 
Q 3313 1553 3313 1525 
Q 3313 1506 3288 1434 
L 3178 1125 
Q 2897 1119 2509 1050 
Q 1897 941 1384 606 
Q 747 188 747 -347 
Q 747 -875 1275 -1141 
Q 1691 -1350 2269 -1350 
Q 2891 -1350 3363 -1222 
Q 3409 -1209 3441 -1209 
Q 3488 -1209 3488 -1234 
Q 3488 -1266 3425 -1322 
z
M 1791 -600 
L 2081 -309 
L 2375 -603 
L 2084 -894 
L 1791 -600 
z
M 1428 25 
L 1722 316 
L 2019 22 
L 1725 -269 
L 1428 25 
z
M 2141 25 
L 2434 316 
L 2731 22 
L 2438 -269 
L 2141 25 
z
" transform="scale(0.015625)"/>
      <path id="BNazanin-fe8e" d="M 1584 3 
L 1313 3 
Q 866 3 694 369 
Q 572 625 575 1134 
L 578 1897 
Q 581 2450 484 3453 
L 731 3716 
Q 800 3788 813 3706 
Q 897 3184 897 2128 
L 897 963 
Q 897 466 1375 466 
L 1584 466 
L 1584 3 
z
" transform="scale(0.015625)"/>
      <path id="BNazanin-fee7" d="M 1038 797 
Q 1038 3 247 3 
L -81 3 
L -81 466 
L 191 466 
Q 788 466 788 681 
Q 788 831 516 1178 
L 678 1572 
Q 703 1631 719 1631 
Q 734 1631 784 1559 
Q 1038 1188 1038 797 
z
M 1006 2619 
L 681 2294 
L 356 2622 
L 681 2947 
L 1006 2619 
z
" transform="scale(0.015625)"/>
      <path id="BNazanin-20" transform="scale(0.015625)"/>
      <path id="BNazanin-feae" d="M 2488 3 
L 2319 3 
Q 2100 3 1988 78 
Q 1994 16 1994 -47 
Q 1994 -609 1628 -1131 
Q 1313 -1581 1113 -1581 
Q 656 -1581 325 -1534 
Q 216 -1519 216 -1481 
Q 216 -1444 328 -1422 
Q 797 -1325 1272 -925 
Q 1778 -497 1778 -103 
Q 1778 159 1359 566 
L 1544 941 
Q 1566 988 1581 991 
Q 1600 984 1634 938 
Q 1819 694 1919 613 
Q 2106 466 2363 466 
L 2488 466 
L 2488 3 
z
" transform="scale(0.015625)"/>
      <path id="BNazanin-fe98" d="M 2050 3 
L 1744 3 
Q 1191 3 1003 366 
Q 797 3 178 3 
L -81 3 
L -81 466 
L 275 466 
Q 859 466 913 919 
Q 934 1100 1003 1100 
Q 1072 1100 1091 913 
Q 1131 466 1697 466 
L 2050 466 
L 2050 3 
z
M 1378 2325 
L 1072 2019 
L 759 2328 
L 1069 2638 
L 1378 2325 
z
M 694 2325 
L 384 2019 
L 75 2328 
L 381 2638 
L 694 2325 
z
" transform="scale(0.015625)"/>
      <path id="BNazanin-fee0" d="M 1559 3 
L 1397 3 
Q 878 3 681 384 
Q 628 213 438 103 
Q 266 3 72 3 
L -81 3 
L -81 466 
L 78 466 
Q 575 466 575 881 
L 575 2266 
Q 575 3056 541 3478 
L 881 3766 
L 881 1075 
Q 881 466 1400 466 
L 1559 466 
L 1559 3 
z
" transform="scale(0.015625)"/>
      <path id="BNazanin-fbff" d="M 2050 3 
L 1744 3 
Q 1191 3 1003 366 
Q 797 3 178 3 
L -81 3 
L -81 466 
L 275 466 
Q 859 466 913 919 
Q 934 1100 1003 1100 
Q 1072 1100 1091 913 
Q 1131 466 1697 466 
L 2050 466 
L 2050 3 
z
M 1419 -878 
L 1109 -1188 
L 797 -875 
L 1106 -566 
L 1419 -878 
z
M 731 -878 
L 425 -1188 
L 113 -875 
L 422 -566 
L 731 -878 
z
" transform="scale(0.015625)"/>
      <path id="BNazanin-fed3" d="M 1631 1134 
L 1631 972 
Q 1631 578 1513 406 
Q 1234 3 481 3 
L -81 3 
L -81 466 
L 316 466 
Q 1341 466 1431 800 
Q 1441 834 1441 881 
Q 1441 975 1406 1034 
Q 1150 981 875 981 
Q 316 981 313 1447 
Q 309 1769 466 2078 
Q 653 2450 947 2450 
Q 1206 2450 1406 2116 
Q 1631 1738 1631 1134 
z
M 1328 1481 
Q 1328 1672 1195 1828 
Q 1063 1984 875 1984 
Q 741 1984 653 1900 
Q 566 1816 563 1684 
Q 559 1434 947 1428 
Q 1116 1425 1328 1481 
z
M 1166 3328 
L 844 3003 
L 516 3331 
L 841 3656 
L 1166 3328 
z
" transform="scale(0.015625)"/>
      <path id="BNazanin-fedd" d="M 3419 3150 
Q 3447 3084 3438 3075 
Q 3431 3063 3363 3063 
L 3228 3063 
Q 3353 753 3309 -144 
Q 3241 -1559 1656 -1559 
Q 1144 -1559 838 -1344 
Q 484 -1097 484 -603 
Q 484 -103 759 284 
Q 794 331 831 331 
Q 881 331 881 272 
Q 881 247 869 216 
Q 738 -113 738 -334 
Q 738 -713 1016 -919 
Q 1263 -1103 1653 -1103 
Q 2231 -1103 2650 -888 
Q 3022 -697 3022 -494 
Q 3022 2106 2847 3406 
L 3125 3663 
Q 3175 3709 3191 3713 
Q 3206 3703 3225 3641 
Q 3275 3481 3419 3150 
z
" transform="scale(0.015625)"/>
      <path id="BNazanin-fee4" d="M 2947 3 
L 2688 3 
Q 2406 3 2109 334 
Q 1944 -159 1734 -159 
Q 1541 -159 1194 38 
Q 884 213 759 353 
Q 478 3 163 3 
L -81 3 
L -81 466 
L 175 466 
Q 450 466 706 697 
Q 866 878 1094 1125 
Q 1306 1356 1491 1356 
Q 1719 1356 1906 1125 
Q 2000 1006 2247 697 
Q 2438 466 2688 466 
L 2947 466 
L 2947 3 
z
M 1869 334 
Q 1888 516 1766 725 
Q 1628 963 1425 963 
Q 1219 963 981 656 
Q 1047 572 1322 428 
Q 1619 272 1800 266 
Q 1863 263 1869 334 
z
" transform="scale(0.015625)"/>
      <path id="BNazanin-fecb" d="M 2191 781 
L 2066 409 
L 975 122 
Q 525 3 134 3 
L -81 3 
L -81 466 
L 253 466 
Q 347 466 556 497 
Q 206 772 206 1041 
Q 206 1278 497 1644 
Q 834 2066 1213 2066 
Q 1603 2066 1859 1691 
Q 1944 1566 1944 1531 
Q 1944 1506 1903 1506 
Q 1853 1506 1722 1541 
Q 1422 1619 1216 1619 
Q 1041 1619 813 1509 
Q 550 1384 550 1228 
Q 550 1100 756 900 
Q 1009 656 1316 656 
Q 1413 656 2144 856 
Q 2200 872 2206 872 
Q 2209 863 2216 853 
Q 2209 841 2191 781 
z
" transform="scale(0.015625)"/>
      <path id="BNazanin-fe8d" d="M 934 497 
Q 934 253 834 50 
Q 775 -72 753 -72 
Q 728 -72 728 81 
Q 728 775 484 3469 
L 816 3778 
Q 859 3819 875 3822 
Q 891 3822 894 3753 
Q 934 2963 934 497 
z
M 934 497 
Q 934 253 834 50 
Q 775 -72 753 -72 
Q 728 -72 728 81 
Q 728 775 484 3469 
L 816 3778 
Q 859 3819 875 3822 
Q 891 3822 894 3753 
Q 934 2963 934 497 
z
" transform="scale(0.015625)"/>
      <path id="BNazanin-feaf" d="M 2016 -34 
Q 2016 -619 1644 -1138 
Q 1325 -1581 1113 -1581 
Q 656 -1581 325 -1534 
Q 216 -1519 216 -1481 
Q 216 -1444 328 -1422 
Q 797 -1325 1272 -925 
Q 1778 -497 1778 -103 
Q 1778 159 1359 566 
L 1541 944 
Q 1566 994 1578 997 
Q 1597 991 1631 947 
Q 1775 772 1891 481 
Q 2016 175 2016 -34 
z
M 1722 2113 
L 1397 1788 
L 1072 2116 
L 1397 2438 
L 1722 2113 
z
" transform="scale(0.015625)"/>
      <path id="BNazanin-fede" d="M 3919 3 
L 3728 3 
Q 3419 3 3294 181 
Q 3278 -181 3197 -709 
Q 3028 -1144 2566 -1369 
Q 2166 -1566 1653 -1566 
Q 1141 -1566 834 -1347 
Q 484 -1097 484 -603 
Q 484 -103 759 284 
Q 794 331 831 331 
Q 881 331 881 272 
Q 881 247 869 216 
Q 738 -113 738 -334 
Q 738 -713 1016 -919 
Q 1263 -1103 1653 -1103 
Q 2041 -1103 2469 -963 
Q 3041 -775 3031 -466 
L 2981 1453 
Q 2947 2813 2891 3463 
L 3209 3741 
Q 3228 3566 3272 2400 
L 3331 853 
Q 3347 466 3816 466 
L 3919 466 
L 3919 3 
z
" transform="scale(0.015625)"/>
      <path id="BNazanin-fe92" d="M 2050 3 
L 1744 3 
Q 1191 3 1003 366 
Q 797 3 178 3 
L -81 3 
L -81 466 
L 275 466 
Q 859 466 913 919 
Q 934 1100 1003 1100 
Q 1072 1100 1091 913 
Q 1131 466 1697 466 
L 2050 466 
L 2050 3 
z
M 1184 -878 
L 859 -1203 
L 531 -875 
L 856 -550 
L 1184 -878 
z
" transform="scale(0.015625)"/>
      <path id="BNazanin-fed7" d="M 1631 1134 
Q 1631 578 1513 406 
Q 1234 3 481 3 
L -81 3 
L -81 466 
L 316 466 
Q 1344 466 1431 800 
Q 1469 941 1406 1034 
Q 1175 981 875 981 
Q 313 981 313 1447 
Q 313 1772 466 2078 
Q 650 2450 947 2450 
Q 1206 2450 1406 2113 
Q 1631 1734 1631 1134 
z
M 1328 1481 
Q 1328 1672 1195 1828 
Q 1063 1984 875 1984 
Q 744 1984 653 1900 
Q 563 1816 563 1684 
Q 563 1428 947 1428 
Q 1113 1428 1328 1481 
z
M 1534 3300 
L 1225 2991 
L 913 3303 
L 1222 3613 
L 1534 3300 
z
M 847 3300 
L 541 2991 
L 228 3303 
L 538 3613 
L 847 3300 
z
" transform="scale(0.015625)"/>
      <path id="BNazanin-60c" d="M 1297 322 
Q 1297 219 1209 119 
Q 1097 -9 916 -9 
Q 709 -9 594 144 
Q 488 284 488 497 
Q 488 1022 925 1256 
Q 984 1288 1069 1291 
Q 1156 1294 1156 1256 
Q 1144 1238 1063 1166 
Q 800 934 800 613 
Q 903 644 991 644 
Q 1297 644 1297 322 
z
" transform="scale(0.015625)"/>
      <path id="BNazanin-fee5" d="M 3453 59 
Q 3488 -150 3488 -291 
Q 3488 -516 3413 -728 
Q 3256 -1175 2709 -1422 
Q 2253 -1628 1716 -1628 
Q 1191 -1628 853 -1369 
Q 484 -1081 484 -569 
Q 484 -297 619 13 
Q 716 234 819 359 
Q 869 419 909 419 
Q 947 419 947 375 
Q 947 347 928 309 
Q 750 -56 750 -359 
Q 750 -656 947 -872 
Q 1206 -1156 1731 -1156 
Q 2325 -1156 2781 -944 
Q 3156 -769 3250 -563 
Q 3281 -494 3281 -391 
Q 3281 -231 3200 0 
Q 3131 194 2825 628 
L 2988 953 
Q 3025 1025 3044 1025 
Q 3063 1025 3100 966 
Q 3375 538 3453 59 
z
M 2275 1791 
L 1950 1466 
L 1622 1794 
L 1947 2119 
L 2275 1791 
z
" transform="scale(0.015625)"/>
      <path id="BNazanin-feee" d="M 2484 3 
L 2050 3 
Q 1994 -813 1422 -1388 
Q 1241 -1569 1194 -1569 
Q 866 -1569 416 -1500 
Q 269 -1478 269 -1453 
Q 269 -1428 425 -1381 
Q 919 -1238 1328 -881 
Q 1503 -728 1647 -528 
Q 1828 -275 1828 -103 
L 1828 3 
L 1328 3 
Q 753 3 753 469 
Q 753 766 925 1106 
Q 1122 1494 1375 1494 
Q 1684 1494 1872 1113 
Q 2009 834 2044 466 
L 2484 466 
L 2484 3 
z
M 1769 472 
Q 1769 653 1641 838 
Q 1497 1047 1309 1047 
Q 1188 1047 1091 948 
Q 994 850 994 728 
Q 994 456 1459 456 
Q 1581 456 1769 472 
z
" transform="scale(0.015625)"/>
      <path id="BNazanin-fe97" d="M 1038 797 
Q 1038 3 247 3 
L -81 3 
L -81 466 
L 191 466 
Q 788 466 788 681 
Q 788 831 516 1178 
L 678 1572 
Q 703 1631 719 1631 
Q 734 1631 784 1559 
Q 1038 1188 1038 797 
z
M 1353 2547 
L 1044 2238 
L 731 2550 
L 1041 2856 
L 1353 2547 
z
M 666 2547 
L 359 2238 
L 47 2550 
L 356 2856 
L 666 2547 
z
" transform="scale(0.015625)"/>
      <path id="BNazanin-fbfd" d="M 4075 3 
L 3163 3 
Q 2994 3 2838 -50 
Q 2622 -122 2622 -253 
Q 2622 -284 3198 -412 
Q 3775 -541 3775 -666 
Q 3775 -1138 3503 -1369 
Q 3044 -1763 1884 -1763 
Q 484 -1763 484 -728 
Q 484 -494 584 -208 
Q 684 78 828 266 
Q 884 341 931 344 
Q 978 347 978 294 
Q 978 247 941 175 
Q 759 -169 759 -538 
Q 759 -947 1147 -1144 
Q 1444 -1294 1900 -1294 
Q 2384 -1294 2788 -1244 
Q 3513 -1153 3513 -934 
Q 3513 -844 3197 -791 
Q 2694 -706 2616 -684 
Q 2300 -597 2300 -416 
Q 2300 -272 2453 -56 
Q 2581 122 2722 238 
Q 3003 466 3522 466 
L 4075 466 
L 4075 3 
z
" transform="scale(0.015625)"/>
      <path id="BNazanin-fed4" d="M 2247 3 
L 2041 3 
Q 1847 3 1578 75 
Q 1281 153 1150 253 
Q 1016 163 791 94 
Q 500 3 209 3 
L -81 3 
L -81 466 
L 106 466 
Q 575 466 722 534 
Q 631 600 564 739 
Q 497 878 497 991 
Q 497 1241 700 1572 
Q 938 1959 1234 1959 
Q 1522 1959 1672 1650 
Q 1788 1413 1791 1091 
Q 1794 881 1691 719 
Q 1634 628 1519 541 
Q 1663 466 2088 466 
L 2247 466 
L 2247 3 
z
M 1559 1031 
Q 1559 1175 1441 1328 
Q 1316 1494 1178 1497 
Q 1044 1500 895 1362 
Q 747 1225 744 1091 
Q 741 944 888 816 
Q 1016 703 1172 669 
Q 1316 688 1431 788 
Q 1559 897 1559 1031 
z
M 1444 2997 
L 1119 2672 
L 791 3000 
L 1116 3325 
L 1444 2997 
z
" transform="scale(0.015625)"/>
      <path id="BNazanin-fec3" d="M 3128 1088 
Q 3128 428 2409 181 
Q 1891 3 722 3 
L -81 3 
L -81 466 
L 338 466 
Q 528 466 591 544 
Q 638 603 634 791 
Q 631 1041 616 1688 
Q 581 2672 475 3444 
L 759 3731 
Q 800 3772 813 3775 
Q 828 3775 853 3684 
Q 913 3459 1025 3194 
Q 1053 3125 1047 3113 
Q 1031 3106 984 3106 
L 859 3106 
Q 919 2028 919 1828 
L 919 1397 
Q 919 1159 809 716 
Q 847 716 1113 966 
Q 1441 1275 1688 1431 
Q 2084 1681 2428 1681 
Q 2728 1681 2916 1538 
Q 3128 1378 3128 1088 
z
M 2850 828 
Q 2850 1022 2622 1156 
Q 2425 1272 2219 1272 
Q 1778 1272 847 497 
Q 1106 469 1375 469 
Q 1728 469 2188 541 
Q 2850 644 2850 828 
z
" transform="scale(0.015625)"/>
      <path id="BNazanin-fedf" d="M 1000 3178 
Q 1034 3097 1025 3081 
Q 1019 3072 959 3072 
L 831 3072 
Q 872 2272 856 809 
Q 853 456 684 241 
Q 497 3 153 3 
L -81 3 
L -81 466 
L 131 466 
Q 603 466 588 825 
Q 534 2113 453 3434 
L 719 3688 
Q 781 3747 794 3750 
Q 806 3738 825 3666 
Q 872 3484 1000 3178 
z
" transform="scale(0.015625)"/>
      <path id="BNazanin-fb95" d="M 2378 3853 
L 2297 3556 
L 338 2928 
L 422 3219 
L 2378 3853 
z
M 2788 3 
L 2556 3 
Q 2241 3 1922 284 
Q 1700 481 1394 909 
Q 1341 3 144 3 
L -81 3 
L -81 466 
L 81 466 
Q 1191 466 1191 913 
Q 1191 1253 666 1747 
Q 441 1959 141 2169 
Q 141 2425 266 2553 
Q 316 2603 2466 3256 
Q 2459 3178 2334 2825 
Q 1809 2688 559 2291 
Q 1184 1641 1650 1100 
Q 1922 784 2072 669 
Q 2334 466 2625 466 
L 2788 466 
L 2788 3 
z
" transform="scale(0.015625)"/>
      <path id="BNazanin-fb7c" d="M 3203 1166 
L 3028 853 
Q 2581 859 2403 794 
Q 2163 703 1678 463 
Q 1209 228 953 138 
Q 575 3 203 3 
L -81 3 
L -81 466 
L 219 466 
Q 775 466 1197 650 
L 2128 1056 
Q 1906 1106 1419 1288 
Q 1016 1438 897 1438 
Q 666 1438 425 1234 
Q 378 1194 341 1194 
Q 300 1194 300 1247 
Q 300 1269 313 1306 
Q 509 1884 984 1884 
Q 1153 1884 1444 1753 
Q 1931 1534 2169 1453 
Q 2578 1316 3144 1278 
Q 3244 1272 3244 1253 
Q 3244 1238 3203 1166 
z
M 1350 -1372 
L 1641 -1078 
L 1934 -1375 
L 1644 -1666 
L 1350 -1372 
z
M 988 -747 
L 1281 -453 
L 1578 -750 
L 1284 -1041 
L 988 -747 
z
M 1700 -747 
L 1994 -453 
L 2291 -750 
L 1997 -1041 
L 1700 -747 
z
" transform="scale(0.015625)"/>
     </defs>
     <use xlink:href="#BNazanin-fb7a"/>
     <use xlink:href="#BNazanin-fe8e" x="51.806641"/>
     <use xlink:href="#BNazanin-fee7" x="75.244141"/>
     <use xlink:href="#BNazanin-20" x="91.503906"/>
     <use xlink:href="#BNazanin-feae" x="115.917969"/>
     <use xlink:href="#BNazanin-fe98" x="153.515625"/>
     <use xlink:href="#BNazanin-fee0" x="184.277344"/>
     <use xlink:href="#BNazanin-fbff" x="207.373047"/>
     <use xlink:href="#BNazanin-fed3" x="238.134766"/>
     <use xlink:href="#BNazanin-20" x="263.574219"/>
     <use xlink:href="#BNazanin-fedd" x="287.988281"/>
     <use xlink:href="#BNazanin-fe8e" x="341.796875"/>
     <use xlink:href="#BNazanin-fee4" x="365.234375"/>
     <use xlink:href="#BNazanin-fecb" x="409.960938"/>
     <use xlink:href="#BNazanin-fe8d" x="444.433594"/>
     <use xlink:href="#BNazanin-20" x="459.130859"/>
     <use xlink:href="#BNazanin-feaf" x="483.544922"/>
     <use xlink:href="#BNazanin-fe8d" x="515.136719"/>
     <use xlink:href="#BNazanin-20" x="529.833984"/>
     <use xlink:href="#BNazanin-fede" x="554.248047"/>
     <use xlink:href="#BNazanin-fe92" x="614.208984"/>
     <use xlink:href="#BNazanin-fed7" x="644.970703"/>
     <use xlink:href="#BNazanin-20" x="670.410156"/>
     <use xlink:href="#BNazanin-60c" x="694.824219"/>
     <use xlink:href="#BNazanin-fee5" x="715.234375"/>
     <use xlink:href="#BNazanin-fe8d" x="769.824219"/>
     <use xlink:href="#BNazanin-feee" x="784.521484"/>
     <use xlink:href="#BNazanin-fe97" x="822.021484"/>
     <use xlink:href="#BNazanin-20" x="843.164062"/>
     <use xlink:href="#BNazanin-fbfd" x="867.578125"/>
     <use xlink:href="#BNazanin-fed4" x="929.931641"/>
     <use xlink:href="#BNazanin-fbff" x="963.720703"/>
     <use xlink:href="#BNazanin-fec3" x="994.482422"/>
     <use xlink:href="#BNazanin-20" x="1043.408203"/>
     <use xlink:href="#BNazanin-fbfd" x="1067.822266"/>
     <use xlink:href="#BNazanin-fedf" x="1130.175781"/>
     <use xlink:href="#BNazanin-fe8e" x="1146.191406"/>
     <use xlink:href="#BNazanin-fb95" x="1169.628906"/>
     <use xlink:href="#BNazanin-fb7c" x="1211.914062"/>
    </g>
   </g>
  </g>
  <g id="axes_2">
   <g id="patch_7">
    <path d="M 144 576.72 
L 1036.8 576.72 
L 1036.8 359.78087 
L 144 359.78087 
z
" style="fill: #ffffff"/>
   </g>
   <g id="line2d_30">
    <path d="M 144 393.266219 
L 145.014545 369.641739 
L 146.029091 374.033701 
L 147.043636 387.962917 
L 148.058182 397.388966 
L 150.087273 407.560757 
L 151.101818 417.633833 
L 153.130909 424.03764 
L 154.145455 431.219139 
L 155.16 431.861691 
L 156.174545 433.414849 
L 157.189091 436.311742 
L 159.218182 447.086877 
L 160.232727 449.63039 
L 163.276364 453.218929 
L 164.290909 453.005368 
L 165.305455 455.838491 
L 166.32 459.176935 
L 167.334545 461.04533 
L 168.349091 461.27243 
L 169.363636 462.799834 
L 170.378182 463.252549 
L 171.392727 464.028267 
L 172.407273 465.656033 
L 173.421818 467.916867 
L 174.436364 468.292981 
L 175.450909 470.213324 
L 176.465455 469.158597 
L 177.48 474.410662 
L 178.494545 472.324935 
L 179.509091 472.366986 
L 180.523636 469.422292 
L 181.538182 469.895125 
L 182.552727 470.841991 
L 183.567273 474.485928 
L 184.581818 471.900858 
L 185.596364 470.980861 
L 186.610909 472.267674 
L 187.625455 474.629386 
L 188.64 473.942304 
L 189.654545 473.640899 
L 190.669091 473.061746 
L 192.698182 475.493731 
L 193.712727 473.234469 
L 194.727273 475.939119 
L 195.741818 473.989828 
L 196.756364 474.526905 
L 197.770909 472.656095 
L 198.785455 476.314845 
L 199.8 475.341513 
L 200.814545 476.685009 
L 201.829091 476.82725 
L 202.843636 478.068116 
L 203.858182 480.650322 
L 204.872727 478.727181 
L 205.887273 480.847218 
L 206.901818 481.760339 
L 207.916364 478.858057 
L 208.930909 476.875837 
L 209.945455 480.047866 
L 210.96 481.893097 
L 211.974545 482.128735 
L 212.989091 483.450476 
L 214.003636 484.056694 
L 215.018182 483.503578 
L 216.032727 479.144781 
L 217.047273 482.486302 
L 218.061818 483.705377 
L 219.076364 485.218366 
L 220.090909 487.418883 
L 221.105455 487.374361 
L 222.12 483.676173 
L 223.134545 482.377786 
L 224.149091 484.815694 
L 225.163636 485.665736 
L 226.178182 484.23187 
L 228.207273 487.284733 
L 229.221818 489.884983 
L 230.236364 487.786064 
L 231.250909 485.236253 
L 232.265455 485.061057 
L 233.28 486.388765 
L 234.294545 487.528658 
L 235.309091 487.094339 
L 236.323636 485.589676 
L 237.338182 486.051946 
L 239.367273 489.400512 
L 240.381818 488.101594 
L 241.396364 488.423231 
L 242.410909 486.787322 
L 243.425455 490.010853 
L 244.44 488.600109 
L 245.454545 488.296634 
L 246.469091 488.928596 
L 247.483636 491.051246 
L 248.498182 492.242698 
L 249.512727 491.76222 
L 250.527273 491.67635 
L 251.541818 490.36294 
L 252.556364 489.558424 
L 253.570909 489.642339 
L 254.585455 490.000243 
L 255.6 493.033979 
L 256.614545 489.164163 
L 257.629091 489.931258 
L 258.643636 491.255699 
L 259.658182 491.146 
L 260.672727 490.245258 
L 261.687273 490.219405 
L 262.701818 494.311641 
L 264.730909 491.879035 
L 265.745455 492.491961 
L 266.76 494.250232 
L 267.774545 492.526438 
L 268.789091 491.894142 
L 269.803636 492.428642 
L 270.818182 492.417418 
L 271.832727 492.625554 
L 272.847273 495.557346 
L 273.861818 494.355234 
L 274.876364 492.753303 
L 275.890909 492.034097 
L 276.905455 494.414465 
L 277.92 495.998374 
L 278.934545 492.779166 
L 279.949091 492.619058 
L 280.963636 495.527929 
L 281.978182 493.758678 
L 282.992727 494.13585 
L 284.007273 494.102261 
L 285.021818 494.73139 
L 286.036364 494.780027 
L 287.050909 492.468737 
L 288.065455 492.597278 
L 289.08 493.05879 
L 290.094545 495.288087 
L 292.123636 495.527671 
L 293.138182 493.782745 
L 294.152727 494.563645 
L 295.167273 494.155164 
L 296.181818 494.704427 
L 297.196364 495.05586 
L 298.210909 495.957146 
L 299.225455 496.444472 
L 300.24 499.335407 
L 301.254545 496.949961 
L 302.269091 497.242515 
L 303.283636 496.763551 
L 304.298182 495.372713 
L 305.312727 495.133716 
L 306.327273 496.081832 
L 308.356364 500.040581 
L 309.370909 495.656471 
L 310.385455 498.741867 
L 311.4 497.982583 
L 312.414545 498.85931 
L 313.429091 498.947386 
L 314.443636 496.319392 
L 315.458182 496.896946 
L 316.472727 496.692043 
L 317.487273 495.994322 
L 318.501818 499.375939 
L 319.516364 496.343319 
L 320.530909 498.788998 
L 321.545455 496.944442 
L 322.56 498.67776 
L 323.574545 499.921459 
L 324.589091 500.350496 
L 325.603636 498.33142 
L 326.618182 500.771637 
L 327.632727 496.870643 
L 328.647273 496.836128 
L 329.661818 499.100844 
L 330.676364 497.990137 
L 331.690909 499.674971 
L 332.705455 499.324441 
L 333.72 501.280131 
L 334.734545 501.497828 
L 335.749091 500.121327 
L 336.763636 500.392429 
L 337.778182 499.265927 
L 338.792727 496.572239 
L 340.821818 499.493008 
L 341.836364 497.958411 
L 342.850909 497.920822 
L 343.865455 500.686497 
L 344.88 500.443455 
L 345.894545 498.814302 
L 346.909091 497.410593 
L 347.923636 499.05623 
L 348.938182 499.882828 
L 349.952727 500.257965 
L 350.967273 501.51727 
L 351.981818 501.917554 
L 352.996364 498.781289 
L 354.010909 497.418117 
L 355.025455 500.876188 
L 357.054545 501.393776 
L 358.069091 498.414788 
L 359.083636 500.565502 
L 360.098182 500.353388 
L 361.112727 501.776432 
L 362.127273 499.74193 
L 363.141818 500.496389 
L 364.156364 501.584169 
L 365.170909 500.910628 
L 366.185455 502.342052 
L 367.2 500.865535 
L 368.214545 498.927301 
L 369.229091 500.041022 
L 370.243636 499.400266 
L 371.258182 499.981589 
L 372.272727 501.341836 
L 373.287273 501.130532 
L 374.301818 500.760283 
L 375.316364 500.791956 
L 377.345455 504.51249 
L 378.36 502.90848 
L 379.374545 500.401529 
L 380.389091 501.207988 
L 381.403636 502.199266 
L 382.418182 502.703944 
L 383.432727 501.991535 
L 384.447273 503.431698 
L 386.476364 502.066162 
L 387.490909 500.678135 
L 388.505455 498.587934 
L 389.52 500.566191 
L 390.534545 504.289442 
L 391.549091 503.835127 
L 392.563636 502.221161 
L 393.578182 502.792891 
L 394.592727 504.724533 
L 395.607273 502.975292 
L 396.621818 501.622672 
L 397.636364 502.966566 
L 398.650909 505.548623 
L 399.665455 503.075848 
L 400.68 504.210049 
L 401.694545 505.910955 
L 402.709091 504.66068 
L 403.723636 504.448013 
L 404.738182 504.680223 
L 405.752727 503.439017 
L 406.767273 502.963598 
L 407.781818 504.153208 
L 408.796364 503.776805 
L 409.810909 503.579121 
L 410.825455 505.187743 
L 411.84 504.87084 
L 412.854545 505.296312 
L 413.869091 504.28935 
L 414.883636 503.809937 
L 415.898182 505.420972 
L 416.912727 505.842036 
L 417.927273 505.317183 
L 418.941818 503.928726 
L 420.970909 503.949519 
L 421.985455 503.670311 
L 423 502.992354 
L 424.014545 504.043353 
L 425.029091 504.084221 
L 426.043636 504.961433 
L 427.058182 506.406722 
L 428.072727 504.445837 
L 429.087273 507.1499 
L 430.101818 504.438506 
L 431.116364 503.662517 
L 432.130909 507.403023 
L 433.145455 507.23728 
L 434.16 502.67384 
L 435.174545 504.913888 
L 436.189091 506.278347 
L 437.203636 502.928504 
L 438.218182 502.50481 
L 439.232727 503.149875 
L 440.247273 501.346871 
L 442.276364 505.91517 
L 443.290909 505.325446 
L 444.305455 505.958978 
L 445.32 505.501001 
L 446.334545 506.119552 
L 447.349091 503.67348 
L 448.363636 505.634987 
L 449.378182 504.451231 
L 450.392727 504.335436 
L 451.407273 505.726501 
L 452.421818 505.097661 
L 453.436364 506.407774 
L 454.450909 503.55517 
L 455.465455 502.776982 
L 456.48 506.783783 
L 457.494545 505.884073 
L 458.509091 503.782782 
L 459.523636 506.708631 
L 460.538182 503.985129 
L 461.552727 503.535134 
L 462.567273 506.509378 
L 463.581818 506.978579 
L 464.596364 506.420522 
L 465.610909 505.350715 
L 466.625455 507.147512 
L 467.64 503.457576 
L 468.654545 505.522372 
L 469.669091 506.339203 
L 471.698182 506.861852 
L 472.712727 505.994343 
L 473.727273 504.473287 
L 474.741818 503.729068 
L 475.756364 506.242155 
L 476.770909 507.306874 
L 477.785455 506.450618 
L 478.8 507.931257 
L 479.814545 507.901528 
L 480.829091 506.289868 
L 481.843636 508.028364 
L 482.858182 508.684712 
L 483.872727 506.345118 
L 484.887273 507.078249 
L 485.901818 507.994875 
L 486.916364 503.945906 
L 487.930909 503.980547 
L 488.945455 507.450893 
L 489.96 505.025481 
L 490.974545 504.537796 
L 491.989091 505.509384 
L 493.003636 505.879805 
L 494.018182 506.060069 
L 495.032727 504.161281 
L 496.047273 504.918134 
L 497.061818 506.742965 
L 498.076364 506.621305 
L 499.090909 506.632438 
L 500.105455 504.55623 
L 501.12 506.394434 
L 502.134545 507.555479 
L 503.149091 506.447224 
L 504.163636 505.645064 
L 506.192727 509.138881 
L 507.207273 509.130905 
L 508.221818 508.820073 
L 509.236364 508.222546 
L 511.265455 508.089086 
L 512.28 506.278867 
L 513.294545 507.782574 
L 514.309091 507.976378 
L 515.323636 509.865086 
L 516.338182 506.924315 
L 517.352727 505.505573 
L 518.367273 504.782345 
L 519.381818 507.936327 
L 520.396364 507.573758 
L 521.410909 506.220542 
L 523.44 508.818172 
L 524.454545 509.064933 
L 525.469091 506.555557 
L 526.483636 505.823743 
L 527.498182 506.884372 
L 528.512727 507.215735 
L 529.527273 508.895502 
L 530.541818 508.606776 
L 531.556364 508.853426 
L 532.570909 506.501415 
L 533.585455 506.139173 
L 534.6 506.962929 
L 535.614545 507.228328 
L 536.629091 509.599639 
L 537.643636 506.772665 
L 538.658182 508.843372 
L 539.672727 507.766461 
L 540.687273 507.173367 
L 541.701818 509.206951 
L 542.716364 509.062834 
L 543.730909 509.306214 
L 544.745455 507.426302 
L 546.774545 508.670857 
L 547.789091 508.098724 
L 548.803636 505.879296 
L 549.818182 506.485643 
L 550.832727 509.293184 
L 551.847273 510.296681 
L 552.861818 509.88519 
L 553.876364 507.502143 
L 554.890909 506.809896 
L 555.905455 509.167686 
L 556.92 506.277054 
L 557.934545 508.917 
L 558.949091 507.741938 
L 560.978182 508.630373 
L 561.992727 510.100419 
L 563.007273 508.881091 
L 564.021818 506.720949 
L 565.036364 507.103352 
L 566.050909 507.897731 
L 567.065455 508.164943 
L 568.08 508.864991 
L 569.094545 509.317658 
L 570.109091 508.82522 
L 571.123636 507.684286 
L 572.138182 509.715355 
L 573.152727 509.200632 
L 574.167273 506.548449 
L 575.181818 506.172034 
L 577.210909 511.58001 
L 578.225455 508.265394 
L 579.24 510.032342 
L 580.254545 510.590225 
L 581.269091 509.137923 
L 582.283636 511.122711 
L 583.298182 509.894318 
L 584.312727 507.82152 
L 585.327273 508.228731 
L 586.341818 509.935441 
L 587.356364 510.697591 
L 590.4 508.669664 
L 591.414545 509.522346 
L 592.429091 509.401452 
L 593.443636 510.332453 
L 594.458182 509.869645 
L 595.472727 511.222971 
L 596.487273 511.67248 
L 597.501818 510.73913 
L 598.516364 511.264313 
L 599.530909 510.950811 
L 600.545455 509.466149 
L 601.56 511.295204 
L 603.589091 504.757935 
L 604.603636 508.121252 
L 605.618182 508.360551 
L 606.632727 507.623356 
L 607.647273 509.312499 
L 608.661818 511.732414 
L 609.676364 511.330437 
L 610.690909 509.897062 
L 611.705455 511.838276 
L 612.72 512.093913 
L 613.734545 510.882554 
L 614.749091 511.810364 
L 616.778182 510.120707 
L 617.792727 509.823745 
L 618.807273 510.869067 
L 619.821818 508.634006 
L 620.836364 511.9983 
L 621.850909 510.431101 
L 622.865455 507.838425 
L 623.88 510.266628 
L 624.894545 511.142536 
L 625.909091 511.842325 
L 626.923636 517.034398 
L 627.938182 528.720034 
L 629.967273 566.440865 
L 630.981818 566.268 
L 631.996364 566.85913 
L 634.025455 526.970614 
L 635.04 516.129769 
L 636.054545 510.592503 
L 637.069091 511.631133 
L 638.083636 509.487369 
L 639.098182 507.052198 
L 640.112727 511.953164 
L 641.127273 513.398597 
L 642.141818 511.608752 
L 643.156364 510.530409 
L 644.170909 510.584004 
L 645.185455 510.271799 
L 646.2 512.057632 
L 647.214545 511.996873 
L 648.229091 511.611206 
L 649.243636 510.910275 
L 650.258182 509.078311 
L 651.272727 510.310009 
L 652.287273 510.488117 
L 653.301818 512.267478 
L 654.316364 511.849121 
L 655.330909 510.948368 
L 656.345455 510.942102 
L 657.36 508.015513 
L 659.389091 513.496411 
L 660.403636 511.934527 
L 661.418182 510.101541 
L 662.432727 510.529867 
L 663.447273 511.707551 
L 664.461818 513.958175 
L 665.476364 513.66691 
L 666.490909 512.233499 
L 667.505455 509.907882 
L 668.52 511.488536 
L 669.534545 513.63857 
L 670.549091 511.564561 
L 671.563636 511.979729 
L 672.578182 513.476979 
L 673.592727 513.573819 
L 674.607273 510.950556 
L 675.621818 512.14465 
L 676.636364 512.39496 
L 677.650909 511.775678 
L 678.665455 512.530589 
L 679.68 514.495043 
L 680.694545 512.99715 
L 681.709091 513.162324 
L 682.723636 509.226486 
L 683.738182 511.550247 
L 684.752727 513.470051 
L 685.767273 514.290776 
L 686.781818 511.162179 
L 687.796364 510.445124 
L 688.810909 512.025286 
L 689.825455 512.136139 
L 690.84 511.20749 
L 691.854545 511.616813 
L 692.869091 511.428207 
L 693.883636 513.337155 
L 694.898182 512.629176 
L 695.912727 509.954529 
L 696.927273 509.903492 
L 697.941818 511.705398 
L 698.956364 514.333571 
L 699.970909 513.70608 
L 700.985455 512.776047 
L 702 511.493054 
L 703.014545 513.351118 
L 704.029091 513.129217 
L 705.043636 511.844873 
L 706.058182 512.271328 
L 707.072727 513.264376 
L 708.087273 510.525885 
L 709.101818 513.670196 
L 710.116364 513.432438 
L 711.130909 514.281679 
L 712.145455 514.70651 
L 713.16 514.699194 
L 714.174545 514.120319 
L 715.189091 513.411422 
L 716.203636 514.03081 
L 717.218182 512.216573 
L 718.232727 512.461731 
L 719.247273 512.240399 
L 720.261818 513.328602 
L 721.276364 514.221343 
L 722.290909 511.938214 
L 723.305455 513.468297 
L 724.32 512.733178 
L 725.334545 515.347085 
L 726.349091 514.185353 
L 727.363636 511.453503 
L 728.378182 513.044252 
L 729.392727 514.307994 
L 730.407273 513.230799 
L 731.421818 514.387753 
L 732.436364 514.672574 
L 733.450909 513.551484 
L 734.465455 513.483966 
L 735.48 513.954523 
L 736.494545 512.893572 
L 737.509091 513.239964 
L 738.523636 514.545001 
L 739.538182 512.395974 
L 740.552727 514.184683 
L 741.567273 514.900712 
L 742.581818 512.262548 
L 743.596364 511.42668 
L 744.610909 512.248621 
L 745.625455 515.734671 
L 746.64 516.628196 
L 747.654545 513.224626 
L 748.669091 514.492417 
L 749.683636 515.206402 
L 750.698182 514.049534 
L 751.712727 512.455958 
L 752.727273 513.449225 
L 753.741818 516.291272 
L 754.756364 513.276195 
L 755.770909 512.337495 
L 756.785455 513.766551 
L 757.8 514.956821 
L 758.814545 514.629539 
L 759.829091 512.053234 
L 760.843636 509.960155 
L 761.858182 513.62124 
L 762.872727 516.027607 
L 763.887273 514.920958 
L 764.901818 514.130727 
L 765.916364 514.518757 
L 766.930909 515.59173 
L 767.945455 517.080679 
L 768.96 515.025698 
L 769.974545 514.518246 
L 770.989091 516.047285 
L 772.003636 514.894225 
L 773.018182 515.014669 
L 774.032727 517.010433 
L 776.061818 516.078064 
L 777.076364 515.622142 
L 778.090909 514.793047 
L 779.105455 515.956268 
L 780.12 518.03203 
L 781.134545 514.918269 
L 782.149091 516.348006 
L 783.163636 518.728719 
L 784.178182 516.680436 
L 785.192727 515.608349 
L 786.207273 516.748092 
L 787.221818 515.424258 
L 788.236364 512.302196 
L 789.250909 515.414384 
L 790.265455 515.977713 
L 791.28 515.046981 
L 793.309091 515.789688 
L 794.323636 514.008502 
L 795.338182 516.531818 
L 796.352727 516.097274 
L 797.367273 513.850024 
L 798.381818 515.689437 
L 799.396364 516.73005 
L 800.410909 515.971613 
L 801.425455 515.862252 
L 802.44 516.933066 
L 803.454545 517.014816 
L 804.469091 516.30513 
L 805.483636 516.334338 
L 806.498182 517.349587 
L 807.512727 519.55186 
L 808.527273 519.239175 
L 809.541818 520.076093 
L 810.556364 517.017698 
L 811.570909 515.959299 
L 812.585455 517.545078 
L 813.6 517.608095 
L 814.614545 517.319681 
L 815.629091 515.933958 
L 816.643636 516.346285 
L 817.658182 516.298897 
L 818.672727 519.079386 
L 819.687273 517.901099 
L 820.701818 517.633386 
L 821.716364 516.952756 
L 822.730909 515.058505 
L 823.745455 514.915969 
L 824.76 517.645564 
L 825.774545 518.990454 
L 826.789091 518.237876 
L 827.803636 518.047631 
L 828.818182 515.09659 
L 829.832727 515.132192 
L 830.847273 517.253297 
L 831.861818 517.910881 
L 832.876364 518.300014 
L 833.890909 517.894081 
L 834.905455 518.872564 
L 835.92 516.196804 
L 837.949091 518.613104 
L 838.963636 520.281084 
L 839.978182 518.093359 
L 840.992727 517.53225 
L 842.007273 518.689439 
L 843.021818 518.532873 
L 844.036364 516.475772 
L 846.065455 517.190113 
L 847.08 518.769959 
L 848.094545 517.545628 
L 849.109091 517.859588 
L 851.138182 519.139224 
L 852.152727 517.167453 
L 853.167273 518.644454 
L 854.181818 520.877173 
L 855.196364 519.211673 
L 856.210909 519.543664 
L 857.225455 518.064758 
L 858.24 517.068263 
L 860.269091 517.754122 
L 861.283636 519.880623 
L 862.298182 520.670438 
L 863.312727 518.086843 
L 864.327273 518.247732 
L 865.341818 515.96896 
L 866.356364 518.214417 
L 867.370909 519.067998 
L 868.385455 518.934298 
L 869.4 517.467786 
L 870.414545 518.075939 
L 871.429091 517.649181 
L 872.443636 519.668753 
L 873.458182 520.642065 
L 874.472727 520.950498 
L 875.487273 521.819409 
L 876.501818 520.006167 
L 877.516364 518.970172 
L 878.530909 518.97224 
L 879.545455 520.295994 
L 880.56 518.893934 
L 881.574545 519.559256 
L 882.589091 519.653858 
L 883.603636 521.318965 
L 884.618182 520.041127 
L 885.632727 518.560097 
L 886.647273 519.297524 
L 887.661818 519.013596 
L 888.676364 519.500419 
L 889.690909 519.257576 
L 890.705455 519.181656 
L 891.72 519.228296 
L 892.734545 520.349614 
L 893.749091 519.882163 
L 894.763636 520.77721 
L 895.778182 521.946178 
L 896.792727 522.825221 
L 897.807273 522.774863 
L 898.821818 519.938773 
L 899.836364 519.913645 
L 900.850909 519.625353 
L 901.865455 520.281495 
L 902.88 520.699411 
L 903.894545 520.654935 
L 904.909091 520.81392 
L 905.923636 521.660282 
L 906.938182 521.095146 
L 907.952727 519.785432 
L 908.967273 520.294136 
L 909.981818 521.941502 
L 910.996364 521.087001 
L 912.010909 521.884613 
L 913.025455 521.919478 
L 914.04 521.284892 
L 915.054545 519.12531 
L 916.069091 522.415321 
L 917.083636 520.279186 
L 918.098182 520.877973 
L 919.112727 521.660119 
L 920.127273 521.525869 
L 921.141818 523.963303 
L 922.156364 523.381036 
L 923.170909 520.584679 
L 924.185455 521.315506 
L 925.2 520.252516 
L 926.214545 519.688364 
L 927.229091 520.320703 
L 928.243636 522.678566 
L 930.272727 518.772529 
L 931.287273 521.535679 
L 932.301818 521.67523 
L 933.316364 520.587818 
L 934.330909 520.724772 
L 935.345455 521.104924 
L 936.36 521.854504 
L 937.374545 521.394445 
L 938.389091 521.61585 
L 939.403636 520.007314 
L 940.418182 522.027643 
L 941.432727 523.033296 
L 942.447273 522.977775 
L 943.461818 521.810203 
L 944.476364 523.021827 
L 945.490909 524.438884 
L 946.505455 522.724358 
L 947.52 523.390113 
L 948.534545 520.39798 
L 949.549091 522.389274 
L 950.563636 522.966796 
L 952.592727 523.322781 
L 953.607273 520.233628 
L 954.621818 522.04568 
L 955.636364 526.862104 
L 956.650909 524.463972 
L 957.665455 522.924315 
L 958.68 522.606254 
L 959.694545 523.134121 
L 960.709091 524.785916 
L 961.723636 523.724376 
L 962.738182 521.883877 
L 963.752727 523.376897 
L 964.767273 523.01422 
L 965.781818 523.270729 
L 966.796364 522.98867 
L 967.810909 523.052691 
L 968.825455 522.568203 
L 969.84 522.970904 
L 970.854545 521.942792 
L 971.869091 522.337437 
L 972.883636 524.643766 
L 973.898182 523.354742 
L 974.912727 524.633842 
L 975.927273 524.007374 
L 976.941818 522.367083 
L 977.956364 521.891408 
L 978.970909 522.746331 
L 979.985455 524.615828 
L 981 523.643734 
L 982.014545 525.338358 
L 983.029091 522.439344 
L 984.043636 523.897566 
L 985.058182 524.280645 
L 986.072727 522.411009 
L 987.087273 521.8558 
L 988.101818 524.869842 
L 989.116364 525.432257 
L 990.130909 525.017154 
L 991.145455 525.373867 
L 992.16 524.164172 
L 993.174545 524.385082 
L 994.189091 525.028156 
L 995.203636 524.150552 
L 996.218182 522.90509 
L 998.247273 526.619193 
L 999.261818 524.98252 
L 1000.276364 524.748377 
L 1001.290909 525.304624 
L 1002.305455 524.717578 
L 1003.32 524.45537 
L 1004.334545 524.06918 
L 1005.349091 523.379944 
L 1006.363636 524.756159 
L 1007.378182 524.817422 
L 1008.392727 524.690895 
L 1009.407273 524.761174 
L 1010.421818 522.641175 
L 1012.450909 525.667963 
L 1013.465455 526.618546 
L 1014.48 524.914262 
L 1015.494545 525.673919 
L 1016.509091 527.921209 
L 1017.523636 524.540114 
L 1018.538182 524.43587 
L 1019.552727 524.932054 
L 1020.567273 524.716538 
L 1021.581818 525.528117 
L 1022.596364 525.059142 
L 1023.610909 525.923928 
L 1024.625455 526.104291 
L 1026.654545 525.051733 
L 1027.669091 525.626783 
L 1028.683636 528.768348 
L 1030.712727 523.073671 
L 1031.727273 524.795137 
L 1032.741818 525.80678 
L 1033.756364 525.318467 
L 1034.770909 526.072302 
L 1035.785455 525.504268 
L 1036.8 524.567546 
L 1036.8 524.567546 
" clip-path="url(#pfe17087e44)" style="fill: none; stroke: #000000; stroke-opacity: 0.75; stroke-width: 0.5; stroke-linecap: square"/>
   </g>
   <g id="matplotlib.axis_3">
    <g id="xtick_7">
     <g id="line2d_31">
      <path d="M 144 576.72 
L 144 359.78087 
" clip-path="url(#pfe17087e44)" style="fill: none; stroke-dasharray: 0.8,1.32; stroke-dashoffset: 0; stroke: #b0b0b0; stroke-width: 0.8"/>
     </g>
     <g id="line2d_32">
      <g>
       <use xlink:href="#ma071889a88" x="144" y="576.72" style="stroke: #000000; stroke-width: 0.8"/>
      </g>
     </g>
     <g id="text_16">
      <!-- 0 -->
      <g transform="translate(140.81875 591.318438)scale(0.1 -0.1)">
       <use xlink:href="#DejaVuSans-30"/>
      </g>
     </g>
    </g>
    <g id="xtick_8">
     <g id="line2d_33">
      <path d="M 306.327273 576.72 
L 306.327273 359.78087 
" clip-path="url(#pfe17087e44)" style="fill: none; stroke-dasharray: 0.8,1.32; stroke-dashoffset: 0; stroke: #b0b0b0; stroke-width: 0.8"/>
     </g>
     <g id="line2d_34">
      <g>
       <use xlink:href="#ma071889a88" x="306.327273" y="576.72" style="stroke: #000000; stroke-width: 0.8"/>
      </g>
     </g>
     <g id="text_17">
      <!-- 20 -->
      <g transform="translate(299.964773 591.318438)scale(0.1 -0.1)">
       <use xlink:href="#DejaVuSans-32"/>
       <use xlink:href="#DejaVuSans-30" x="63.623047"/>
      </g>
     </g>
    </g>
    <g id="xtick_9">
     <g id="line2d_35">
      <path d="M 468.654545 576.72 
L 468.654545 359.78087 
" clip-path="url(#pfe17087e44)" style="fill: none; stroke-dasharray: 0.8,1.32; stroke-dashoffset: 0; stroke: #b0b0b0; stroke-width: 0.8"/>
     </g>
     <g id="line2d_36">
      <g>
       <use xlink:href="#ma071889a88" x="468.654545" y="576.72" style="stroke: #000000; stroke-width: 0.8"/>
      </g>
     </g>
     <g id="text_18">
      <!-- 40 -->
      <g transform="translate(462.292045 591.318438)scale(0.1 -0.1)">
       <use xlink:href="#DejaVuSans-34"/>
       <use xlink:href="#DejaVuSans-30" x="63.623047"/>
      </g>
     </g>
    </g>
    <g id="xtick_10">
     <g id="line2d_37">
      <path d="M 630.981818 576.72 
L 630.981818 359.78087 
" clip-path="url(#pfe17087e44)" style="fill: none; stroke-dasharray: 0.8,1.32; stroke-dashoffset: 0; stroke: #b0b0b0; stroke-width: 0.8"/>
     </g>
     <g id="line2d_38">
      <g>
       <use xlink:href="#ma071889a88" x="630.981818" y="576.72" style="stroke: #000000; stroke-width: 0.8"/>
      </g>
     </g>
     <g id="text_19">
      <!-- 60 -->
      <g transform="translate(624.619318 591.318438)scale(0.1 -0.1)">
       <use xlink:href="#DejaVuSans-36"/>
       <use xlink:href="#DejaVuSans-30" x="63.623047"/>
      </g>
     </g>
    </g>
    <g id="xtick_11">
     <g id="line2d_39">
      <path d="M 793.309091 576.72 
L 793.309091 359.78087 
" clip-path="url(#pfe17087e44)" style="fill: none; stroke-dasharray: 0.8,1.32; stroke-dashoffset: 0; stroke: #b0b0b0; stroke-width: 0.8"/>
     </g>
     <g id="line2d_40">
      <g>
       <use xlink:href="#ma071889a88" x="793.309091" y="576.72" style="stroke: #000000; stroke-width: 0.8"/>
      </g>
     </g>
     <g id="text_20">
      <!-- 80 -->
      <g transform="translate(786.946591 591.318438)scale(0.1 -0.1)">
       <use xlink:href="#DejaVuSans-38"/>
       <use xlink:href="#DejaVuSans-30" x="63.623047"/>
      </g>
     </g>
    </g>
    <g id="xtick_12">
     <g id="line2d_41">
      <path d="M 955.636364 576.72 
L 955.636364 359.78087 
" clip-path="url(#pfe17087e44)" style="fill: none; stroke-dasharray: 0.8,1.32; stroke-dashoffset: 0; stroke: #b0b0b0; stroke-width: 0.8"/>
     </g>
     <g id="line2d_42">
      <g>
       <use xlink:href="#ma071889a88" x="955.636364" y="576.72" style="stroke: #000000; stroke-width: 0.8"/>
      </g>
     </g>
     <g id="text_21">
      <!-- 100 -->
      <g transform="translate(946.092614 591.318438)scale(0.1 -0.1)">
       <use xlink:href="#DejaVuSans-31"/>
       <use xlink:href="#DejaVuSans-30" x="63.623047"/>
       <use xlink:href="#DejaVuSans-30" x="127.246094"/>
      </g>
     </g>
    </g>
   </g>
   <g id="matplotlib.axis_4">
    <g id="ytick_8">
     <g id="line2d_43">
      <path d="M 144 562.455414 
L 1036.8 562.455414 
" clip-path="url(#pfe17087e44)" style="fill: none; stroke-dasharray: 0.8,1.32; stroke-dashoffset: 0; stroke: #b0b0b0; stroke-width: 0.8"/>
     </g>
     <g id="line2d_44">
      <g>
       <use xlink:href="#m0f15e7b2b0" x="144" y="562.455414" style="stroke: #000000; stroke-width: 0.8"/>
      </g>
     </g>
     <g id="text_22">
      <!-- −50 -->
      <g transform="translate(115.895313 566.254633)scale(0.1 -0.1)">
       <defs>
        <path id="DejaVuSans-35" d="M 691 4666 
L 3169 4666 
L 3169 4134 
L 1269 4134 
L 1269 2991 
Q 1406 3038 1543 3061 
Q 1681 3084 1819 3084 
Q 2600 3084 3056 2656 
Q 3513 2228 3513 1497 
Q 3513 744 3044 326 
Q 2575 -91 1722 -91 
Q 1428 -91 1123 -41 
Q 819 9 494 109 
L 494 744 
Q 775 591 1075 516 
Q 1375 441 1709 441 
Q 2250 441 2565 725 
Q 2881 1009 2881 1497 
Q 2881 1984 2565 2268 
Q 2250 2553 1709 2553 
Q 1456 2553 1204 2497 
Q 953 2441 691 2322 
L 691 4666 
z
" transform="scale(0.015625)"/>
       </defs>
       <use xlink:href="#DejaVuSans-2212"/>
       <use xlink:href="#DejaVuSans-35" x="83.789062"/>
       <use xlink:href="#DejaVuSans-30" x="147.412109"/>
      </g>
     </g>
    </g>
    <g id="ytick_9">
     <g id="line2d_45">
      <path d="M 144 535.274378 
L 1036.8 535.274378 
" clip-path="url(#pfe17087e44)" style="fill: none; stroke-dasharray: 0.8,1.32; stroke-dashoffset: 0; stroke: #b0b0b0; stroke-width: 0.8"/>
     </g>
     <g id="line2d_46">
      <g>
       <use xlink:href="#m0f15e7b2b0" x="144" y="535.274378" style="stroke: #000000; stroke-width: 0.8"/>
      </g>
     </g>
     <g id="text_23">
      <!-- −40 -->
      <g transform="translate(115.895313 539.073597)scale(0.1 -0.1)">
       <use xlink:href="#DejaVuSans-2212"/>
       <use xlink:href="#DejaVuSans-34" x="83.789062"/>
       <use xlink:href="#DejaVuSans-30" x="147.412109"/>
      </g>
     </g>
    </g>
    <g id="ytick_10">
     <g id="line2d_47">
      <path d="M 144 508.093342 
L 1036.8 508.093342 
" clip-path="url(#pfe17087e44)" style="fill: none; stroke-dasharray: 0.8,1.32; stroke-dashoffset: 0; stroke: #b0b0b0; stroke-width: 0.8"/>
     </g>
     <g id="line2d_48">
      <g>
       <use xlink:href="#m0f15e7b2b0" x="144" y="508.093342" style="stroke: #000000; stroke-width: 0.8"/>
      </g>
     </g>
     <g id="text_24">
      <!-- −30 -->
      <g transform="translate(115.895313 511.892561)scale(0.1 -0.1)">
       <use xlink:href="#DejaVuSans-2212"/>
       <use xlink:href="#DejaVuSans-33" x="83.789062"/>
       <use xlink:href="#DejaVuSans-30" x="147.412109"/>
      </g>
     </g>
    </g>
    <g id="ytick_11">
     <g id="line2d_49">
      <path d="M 144 480.912306 
L 1036.8 480.912306 
" clip-path="url(#pfe17087e44)" style="fill: none; stroke-dasharray: 0.8,1.32; stroke-dashoffset: 0; stroke: #b0b0b0; stroke-width: 0.8"/>
     </g>
     <g id="line2d_50">
      <g>
       <use xlink:href="#m0f15e7b2b0" x="144" y="480.912306" style="stroke: #000000; stroke-width: 0.8"/>
      </g>
     </g>
     <g id="text_25">
      <!-- −20 -->
      <g transform="translate(115.895313 484.711525)scale(0.1 -0.1)">
       <use xlink:href="#DejaVuSans-2212"/>
       <use xlink:href="#DejaVuSans-32" x="83.789062"/>
       <use xlink:href="#DejaVuSans-30" x="147.412109"/>
      </g>
     </g>
    </g>
    <g id="ytick_12">
     <g id="line2d_51">
      <path d="M 144 453.73127 
L 1036.8 453.73127 
" clip-path="url(#pfe17087e44)" style="fill: none; stroke-dasharray: 0.8,1.32; stroke-dashoffset: 0; stroke: #b0b0b0; stroke-width: 0.8"/>
     </g>
     <g id="line2d_52">
      <g>
       <use xlink:href="#m0f15e7b2b0" x="144" y="453.73127" style="stroke: #000000; stroke-width: 0.8"/>
      </g>
     </g>
     <g id="text_26">
      <!-- −10 -->
      <g transform="translate(115.895313 457.530489)scale(0.1 -0.1)">
       <use xlink:href="#DejaVuSans-2212"/>
       <use xlink:href="#DejaVuSans-31" x="83.789062"/>
       <use xlink:href="#DejaVuSans-30" x="147.412109"/>
      </g>
     </g>
    </g>
    <g id="ytick_13">
     <g id="line2d_53">
      <path d="M 144 426.550234 
L 1036.8 426.550234 
" clip-path="url(#pfe17087e44)" style="fill: none; stroke-dasharray: 0.8,1.32; stroke-dashoffset: 0; stroke: #b0b0b0; stroke-width: 0.8"/>
     </g>
     <g id="line2d_54">
      <g>
       <use xlink:href="#m0f15e7b2b0" x="144" y="426.550234" style="stroke: #000000; stroke-width: 0.8"/>
      </g>
     </g>
     <g id="text_27">
      <!-- 0 -->
      <g transform="translate(130.6375 430.349452)scale(0.1 -0.1)">
       <use xlink:href="#DejaVuSans-30"/>
      </g>
     </g>
    </g>
    <g id="ytick_14">
     <g id="line2d_55">
      <path d="M 144 399.369198 
L 1036.8 399.369198 
" clip-path="url(#pfe17087e44)" style="fill: none; stroke-dasharray: 0.8,1.32; stroke-dashoffset: 0; stroke: #b0b0b0; stroke-width: 0.8"/>
     </g>
     <g id="line2d_56">
      <g>
       <use xlink:href="#m0f15e7b2b0" x="144" y="399.369198" style="stroke: #000000; stroke-width: 0.8"/>
      </g>
     </g>
     <g id="text_28">
      <!-- 10 -->
      <g transform="translate(124.275 403.168416)scale(0.1 -0.1)">
       <use xlink:href="#DejaVuSans-31"/>
       <use xlink:href="#DejaVuSans-30" x="63.623047"/>
      </g>
     </g>
    </g>
    <g id="ytick_15">
     <g id="line2d_57">
      <path d="M 144 372.188161 
L 1036.8 372.188161 
" clip-path="url(#pfe17087e44)" style="fill: none; stroke-dasharray: 0.8,1.32; stroke-dashoffset: 0; stroke: #b0b0b0; stroke-width: 0.8"/>
     </g>
     <g id="line2d_58">
      <g>
       <use xlink:href="#m0f15e7b2b0" x="144" y="372.188161" style="stroke: #000000; stroke-width: 0.8"/>
      </g>
     </g>
     <g id="text_29">
      <!-- 20 -->
      <g transform="translate(124.275 375.98738)scale(0.1 -0.1)">
       <use xlink:href="#DejaVuSans-32"/>
       <use xlink:href="#DejaVuSans-30" x="63.623047"/>
      </g>
     </g>
    </g>
    <g id="text_30">
     <!-- $\mathrm{µV²/Hz}$$\ \mathrm{(dB)}$ -->
     <g transform="translate(109.795312 497.000435)rotate(-90)scale(0.1 -0.1)">
      <use xlink:href="#DejaVuSans-b5" transform="translate(0 0.015625)"/>
      <use xlink:href="#DejaVuSans-56" transform="translate(63.623047 0.015625)"/>
      <use xlink:href="#DejaVuSans-b2" transform="translate(132.03125 0.015625)"/>
      <use xlink:href="#DejaVuSans-2f" transform="translate(172.119141 0.015625)"/>
      <use xlink:href="#DejaVuSans-48" transform="translate(204.060547 0.015625)"/>
      <use xlink:href="#DejaVuSans-7a" transform="translate(279.255859 0.015625)"/>
      <use xlink:href="#DejaVuSans-28" transform="translate(364.216472 0.015625)"/>
      <use xlink:href="#DejaVuSans-64" transform="translate(403.230144 0.015625)"/>
      <use xlink:href="#DejaVuSans-42" transform="translate(466.706707 0.015625)"/>
      <use xlink:href="#DejaVuSans-29" transform="translate(535.310222 0.015625)"/>
     </g>
    </g>
   </g>
   <g id="line2d_59">
    <path clip-path="url(#pfe17087e44)" style="fill: none; stroke-dasharray: 7.4,3.2; stroke-dashoffset: 0; stroke: #000000; stroke-opacity: 0.25; stroke-width: 2"/>
   </g>
   <g id="line2d_60">
    <path d="M 144 576.72 
L 144 359.78087 
" clip-path="url(#pfe17087e44)" style="fill: none; stroke-dasharray: 7.4,3.2; stroke-dashoffset: 0; stroke: #000000; stroke-opacity: 0.25; stroke-width: 2"/>
   </g>
   <g id="patch_8">
    <path d="M 144 576.72 
L 144 359.78087 
" style="fill: none; stroke: #000000; stroke-width: 0.8; stroke-linejoin: miter; stroke-linecap: square"/>
   </g>
   <g id="patch_9">
    <path d="M 1036.8 576.72 
L 1036.8 359.78087 
" style="fill: none; stroke: #000000; stroke-width: 0.8; stroke-linejoin: miter; stroke-linecap: square"/>
   </g>
   <g id="patch_10">
    <path d="M 144 576.72 
L 1036.8 576.72 
" style="fill: none; stroke: #000000; stroke-width: 0.8; stroke-linejoin: miter; stroke-linecap: square"/>
   </g>
   <g id="patch_11">
    <path d="M 144 359.78087 
L 1036.8 359.78087 
" style="fill: none; stroke: #000000; stroke-width: 0.8; stroke-linejoin: miter; stroke-linecap: square"/>
   </g>
   <g id="text_31">
    <!-- ﺰﺗﺮﻫ 60 ﺭﺩ ﭺﺎﻧ ﺮﺘﻠﯿﻓ ﻝﺎﻤﻋﺍ ﺯﺍ ﺪﻌﺑ ،ﻥﺍﻮﺗ ﯽﻔﯿﻃ ﯽﻟﺎﮕﭼ -->
    <g style="fill: #2d1754" transform="translate(412.817031 347.272696)scale(0.22 -0.22)">
     <defs>
      <path id="BNazanin-feb0" d="M 2488 3 
L 2319 3 
Q 2100 3 1988 78 
Q 1994 16 1994 -47 
Q 1994 -609 1628 -1131 
Q 1313 -1581 1113 -1581 
Q 656 -1581 325 -1534 
Q 216 -1519 216 -1481 
Q 216 -1444 328 -1422 
Q 797 -1325 1272 -925 
Q 1778 -497 1778 -103 
Q 1778 159 1359 566 
L 1544 941 
Q 1566 988 1581 991 
Q 1600 984 1634 938 
Q 1819 694 1919 613 
Q 2106 466 2363 466 
L 2488 466 
L 2488 3 
z
M 1722 2113 
L 1397 1788 
L 1072 2116 
L 1397 2438 
L 1722 2113 
z
" transform="scale(0.015625)"/>
      <path id="BNazanin-feeb" d="M 2522 819 
Q 2522 597 2372 350 
Q 2194 59 1953 59 
Q 1766 59 1097 334 
Q 575 3 138 3 
L -81 3 
L -81 466 
L 153 466 
Q 419 466 628 522 
Q 381 697 381 997 
Q 381 1384 903 1784 
L 638 1916 
Q 753 2031 981 2269 
Q 1544 1997 1934 1691 
Q 2522 1228 2522 819 
z
M 2309 663 
Q 2309 825 2063 1063 
Q 1863 1256 1697 1341 
Q 1697 866 1422 634 
Q 1916 472 2066 472 
Q 2309 472 2309 663 
z
M 1469 1134 
Q 1469 1288 1400 1416 
Q 1319 1569 1178 1569 
Q 1022 1569 844 1434 
Q 656 1294 656 1144 
Q 656 881 1091 753 
Q 1228 784 1341 888 
Q 1469 1003 1469 1134 
z
" transform="scale(0.015625)"/>
      <path id="BNazanin-36" d="M 2575 2534 
L 2363 1925 
Q 1091 1500 419 -6 
Q 375 -103 322 -103 
Q 250 -103 263 16 
Q 306 428 566 959 
Q 800 1438 1116 1722 
Q 384 1816 384 2422 
Q 384 2719 744 3138 
Q 1141 3600 1509 3600 
Q 1703 3600 1906 3469 
Q 2125 3325 2156 3144 
Q 2166 3097 2136 3070 
Q 2106 3044 2059 3056 
Q 1756 3138 1500 3138 
Q 1250 3138 1031 2997 
Q 784 2838 784 2600 
Q 784 2203 1472 2203 
Q 1650 2203 1966 2350 
Q 2066 2397 2456 2588 
Q 2531 2625 2563 2606 
Q 2594 2588 2575 2534 
z
" transform="scale(0.015625)"/>
      <path id="BNazanin-30" d="M 1975 1534 
L 1428 988 
L 888 1531 
L 1431 2075 
L 1975 1534 
z
" transform="scale(0.015625)"/>
      <path id="BNazanin-fead" d="M 2016 -34 
Q 2016 -619 1644 -1138 
Q 1325 -1581 1113 -1581 
Q 656 -1581 325 -1534 
Q 216 -1519 216 -1481 
Q 216 -1444 328 -1422 
Q 797 -1325 1272 -925 
Q 1778 -497 1778 -103 
Q 1778 159 1359 566 
L 1541 944 
Q 1566 994 1578 997 
Q 1597 991 1631 947 
Q 1775 772 1891 481 
Q 2016 175 2016 -34 
z
" transform="scale(0.015625)"/>
      <path id="BNazanin-fea9" d="M 2438 838 
Q 2438 3 1331 3 
Q 919 3 728 116 
Q 481 259 481 638 
Q 481 816 578 1000 
Q 622 1084 659 1084 
Q 706 1084 694 981 
Q 684 906 684 856 
Q 684 606 909 519 
Q 1047 466 1353 466 
Q 2228 466 2228 738 
Q 2228 1166 1206 1906 
L 1325 2313 
Q 1344 2372 1359 2372 
Q 1378 2372 1438 2325 
Q 2438 1522 2438 838 
z
" transform="scale(0.015625)"/>
      <path id="BNazanin-feaa" d="M 3116 3 
L 2938 3 
Q 2713 3 2556 147 
Q 2459 238 2322 466 
Q 2178 209 1988 106 
Q 1756 -22 1325 -22 
Q 484 -22 484 581 
Q 484 784 609 1000 
Q 650 1072 691 1072 
Q 728 1072 728 1009 
Q 728 975 718 908 
Q 709 841 709 806 
Q 709 447 1319 447 
Q 2178 447 2178 781 
Q 2178 963 1681 2084 
L 1859 2394 
Q 1894 2453 1906 2456 
Q 1925 2444 1953 2378 
Q 2153 1906 2500 953 
Q 2678 466 3003 466 
L 3116 466 
L 3116 3 
z
" transform="scale(0.015625)"/>
      <path id="BNazanin-fecc" d="M 2328 3 
L 2078 3 
Q 1481 3 1172 397 
Q 813 3 244 3 
L -81 3 
L -81 466 
L 313 466 
Q 716 466 909 628 
Q 872 734 763 863 
Q 644 1003 550 1028 
Q 422 1063 422 1113 
Q 422 1141 450 1206 
Q 609 1581 1134 1581 
Q 1800 1581 1800 1166 
Q 1800 981 1434 663 
Q 1522 572 1725 513 
Q 1888 466 2009 466 
L 2328 466 
L 2328 3 
z
" transform="scale(0.015625)"/>
      <path id="BNazanin-fe91" d="M 1038 797 
Q 1038 3 247 3 
L -81 3 
L -81 466 
L 191 466 
Q 788 466 788 681 
Q 788 831 516 1178 
L 678 1572 
Q 703 1631 719 1631 
Q 734 1631 784 1559 
Q 1038 1188 1038 797 
z
M 909 -878 
L 584 -1203 
L 256 -875 
L 581 -550 
L 909 -878 
z
" transform="scale(0.015625)"/>
     </defs>
     <use xlink:href="#BNazanin-feb0"/>
     <use xlink:href="#BNazanin-fe97" x="37.597656"/>
     <use xlink:href="#BNazanin-feae" x="58.740234"/>
     <use xlink:href="#BNazanin-feeb" x="96.337891"/>
     <use xlink:href="#BNazanin-20" x="135.791016"/>
     <use xlink:href="#BNazanin-36" x="160.205078"/>
     <use xlink:href="#BNazanin-30" x="203.564453"/>
     <use xlink:href="#BNazanin-20" x="250.439453"/>
     <use xlink:href="#BNazanin-fead" x="274.853516"/>
     <use xlink:href="#BNazanin-fea9" x="306.445312"/>
     <use xlink:href="#BNazanin-20" x="344.628906"/>
     <use xlink:href="#BNazanin-fb7a" x="369.042969"/>
     <use xlink:href="#BNazanin-fe8e" x="420.849609"/>
     <use xlink:href="#BNazanin-fee7" x="444.287109"/>
     <use xlink:href="#BNazanin-20" x="460.546875"/>
     <use xlink:href="#BNazanin-feae" x="484.960938"/>
     <use xlink:href="#BNazanin-fe98" x="522.558594"/>
     <use xlink:href="#BNazanin-fee0" x="553.320312"/>
     <use xlink:href="#BNazanin-fbff" x="576.416016"/>
     <use xlink:href="#BNazanin-fed3" x="607.177734"/>
     <use xlink:href="#BNazanin-20" x="632.617188"/>
     <use xlink:href="#BNazanin-fedd" x="657.03125"/>
     <use xlink:href="#BNazanin-fe8e" x="710.839844"/>
     <use xlink:href="#BNazanin-fee4" x="734.277344"/>
     <use xlink:href="#BNazanin-fecb" x="779.003906"/>
     <use xlink:href="#BNazanin-fe8d" x="813.476562"/>
     <use xlink:href="#BNazanin-20" x="828.173828"/>
     <use xlink:href="#BNazanin-feaf" x="852.587891"/>
     <use xlink:href="#BNazanin-fe8d" x="884.179688"/>
     <use xlink:href="#BNazanin-20" x="898.876953"/>
     <use xlink:href="#BNazanin-feaa" x="923.291016"/>
     <use xlink:href="#BNazanin-fecc" x="970.703125"/>
     <use xlink:href="#BNazanin-fe91" x="1005.810547"/>
     <use xlink:href="#BNazanin-20" x="1022.070312"/>
     <use xlink:href="#BNazanin-60c" x="1046.484375"/>
     <use xlink:href="#BNazanin-fee5" x="1066.894531"/>
     <use xlink:href="#BNazanin-fe8d" x="1121.484375"/>
     <use xlink:href="#BNazanin-feee" x="1136.181641"/>
     <use xlink:href="#BNazanin-fe97" x="1173.681641"/>
     <use xlink:href="#BNazanin-20" x="1194.824219"/>
     <use xlink:href="#BNazanin-fbfd" x="1219.238281"/>
     <use xlink:href="#BNazanin-fed4" x="1281.591797"/>
     <use xlink:href="#BNazanin-fbff" x="1315.380859"/>
     <use xlink:href="#BNazanin-fec3" x="1346.142578"/>
     <use xlink:href="#BNazanin-20" x="1395.068359"/>
     <use xlink:href="#BNazanin-fbfd" x="1419.482422"/>
     <use xlink:href="#BNazanin-fedf" x="1481.835938"/>
     <use xlink:href="#BNazanin-fe8e" x="1497.851562"/>
     <use xlink:href="#BNazanin-fb95" x="1521.289062"/>
     <use xlink:href="#BNazanin-fb7c" x="1563.574219"/>
    </g>
   </g>
  </g>
 </g>
 <defs>
  <clipPath id="pb12402270c">
   <rect x="144" y="77.76" width="892.8" height="216.93913"/>
  </clipPath>
  <clipPath id="pfe17087e44">
   <rect x="144" y="359.78087" width="892.8" height="216.93913"/>
  </clipPath>
 </defs>
</svg>
