<?xml version="1.0" encoding="utf-8" standalone="no"?>
<!DOCTYPE svg PUBLIC "-//W3C//DTD SVG 1.1//EN"
  "http://www.w3.org/Graphics/SVG/1.1/DTD/svg11.dtd">
<svg xmlns:xlink="http://www.w3.org/1999/xlink" width="1152pt" height="648pt" viewBox="0 0 1152 648" xmlns="http://www.w3.org/2000/svg" version="1.1">
 <metadata>
  <rdf:RDF xmlns:dc="http://purl.org/dc/elements/1.1/" xmlns:cc="http://creativecommons.org/ns#" xmlns:rdf="http://www.w3.org/1999/02/22-rdf-syntax-ns#">
   <cc:Work>
    <dc:type rdf:resource="http://purl.org/dc/dcmitype/StillImage"/>
    <dc:date>2022-08-24T17:18:22.552646</dc:date>
    <dc:format>image/svg+xml</dc:format>
    <dc:creator>
     <cc:Agent>
      <dc:title>Matplotlib v3.5.3, https://matplotlib.org/</dc:title>
     </cc:Agent>
    </dc:creator>
   </cc:Work>
  </rdf:RDF>
 </metadata>
 <defs>
  <style type="text/css">*{stroke-linejoin: round; stroke-linecap: butt}</style>
 </defs>
 <g id="figure_1">
  <g id="patch_1">
   <path d="M 0 648 
L 1152 648 
L 1152 0 
L 0 0 
z
" style="fill: #ffffff"/>
  </g>
  <g id="axes_1">
   <g id="patch_2">
    <path d="M 52.125928 289.540625 
L 1141.2 289.540625 
L 1141.2 74.64125 
L 52.125928 74.64125 
z
" style="fill: #eaeaf2"/>
   </g>
   <g id="matplotlib.axis_1">
    <g id="xtick_1">
     <g id="line2d_1">
      <path d="M 101.629295 289.540625 
L 101.629295 74.64125 
" clip-path="url(#pf173d69806)" style="fill: none; stroke: #ffffff; stroke-linecap: round"/>
     </g>
     <g id="line2d_2"/>
     <g id="text_1">
      <!-- 0 -->
      <g style="fill: #262626" transform="translate(98.821482 304.040625)scale(0.1 -0.1)">
       <defs>
        <path id="Roboto-Regular-30" d="M 3231 1941 
Q 3231 925 2884 431 
Q 2538 -63 1800 -63 
Q 1072 -63 722 420 
Q 372 903 359 1863 
L 359 2634 
Q 359 3638 706 4125 
Q 1053 4613 1794 4613 
Q 2528 4613 2875 4142 
Q 3222 3672 3231 2691 
L 3231 1941 
z
M 2653 2731 
Q 2653 3466 2447 3802 
Q 2241 4138 1794 4138 
Q 1350 4138 1147 3803 
Q 944 3469 938 2775 
L 938 1850 
Q 938 1113 1152 761 
Q 1366 409 1800 409 
Q 2228 409 2436 740 
Q 2644 1072 2653 1784 
L 2653 2731 
z
" transform="scale(0.015625)"/>
       </defs>
       <use xlink:href="#Roboto-Regular-30"/>
      </g>
     </g>
    </g>
    <g id="xtick_2">
     <g id="line2d_3">
      <path d="M 304.476224 289.540625 
L 304.476224 74.64125 
" clip-path="url(#pf173d69806)" style="fill: none; stroke: #ffffff; stroke-linecap: round"/>
     </g>
     <g id="line2d_4"/>
     <g id="text_2">
      <!-- 2 -->
      <g style="fill: #262626" transform="translate(301.668412 304.040625)scale(0.1 -0.1)">
       <defs>
        <path id="Roboto-Regular-32" d="M 3359 0 
L 378 0 
L 378 416 
L 1953 2166 
Q 2303 2563 2436 2811 
Q 2569 3059 2569 3325 
Q 2569 3681 2353 3909 
Q 2138 4138 1778 4138 
Q 1347 4138 1108 3892 
Q 869 3647 869 3209 
L 291 3209 
Q 291 3838 695 4225 
Q 1100 4613 1778 4613 
Q 2413 4613 2781 4280 
Q 3150 3947 3150 3394 
Q 3150 2722 2294 1794 
L 1075 472 
L 3359 472 
L 3359 0 
z
" transform="scale(0.015625)"/>
       </defs>
       <use xlink:href="#Roboto-Regular-32"/>
      </g>
     </g>
    </g>
    <g id="xtick_3">
     <g id="line2d_5">
      <path d="M 507.323154 289.540625 
L 507.323154 74.64125 
" clip-path="url(#pf173d69806)" style="fill: none; stroke: #ffffff; stroke-linecap: round"/>
     </g>
     <g id="line2d_6"/>
     <g id="text_3">
      <!-- 4 -->
      <g style="fill: #262626" transform="translate(504.515342 304.040625)scale(0.1 -0.1)">
       <defs>
        <path id="Roboto-Regular-34" d="M 2819 1528 
L 3450 1528 
L 3450 1056 
L 2819 1056 
L 2819 0 
L 2238 0 
L 2238 1056 
L 166 1056 
L 166 1397 
L 2203 4550 
L 2819 4550 
L 2819 1528 
z
M 822 1528 
L 2238 1528 
L 2238 3759 
L 2169 3634 
L 822 1528 
z
" transform="scale(0.015625)"/>
       </defs>
       <use xlink:href="#Roboto-Regular-34"/>
      </g>
     </g>
    </g>
    <g id="xtick_4">
     <g id="line2d_7">
      <path d="M 710.170084 289.540625 
L 710.170084 74.64125 
" clip-path="url(#pf173d69806)" style="fill: none; stroke: #ffffff; stroke-linecap: round"/>
     </g>
     <g id="line2d_8"/>
     <g id="text_4">
      <!-- 6 -->
      <g style="fill: #262626" transform="translate(707.362271 304.040625)scale(0.1 -0.1)">
       <defs>
        <path id="Roboto-Regular-36" d="M 2647 4553 
L 2647 4063 
L 2541 4063 
Q 1866 4050 1466 3662 
Q 1066 3275 1003 2572 
Q 1363 2984 1984 2984 
Q 2578 2984 2933 2565 
Q 3288 2147 3288 1484 
Q 3288 781 2905 359 
Q 2522 -63 1878 -63 
Q 1225 -63 819 439 
Q 413 941 413 1731 
L 413 1953 
Q 413 3209 948 3873 
Q 1484 4538 2544 4553 
L 2647 4553 
z
M 1888 2503 
Q 1591 2503 1341 2325 
Q 1091 2147 994 1878 
L 994 1666 
Q 994 1103 1247 759 
Q 1500 416 1878 416 
Q 2269 416 2492 703 
Q 2716 991 2716 1456 
Q 2716 1925 2489 2214 
Q 2263 2503 1888 2503 
z
" transform="scale(0.015625)"/>
       </defs>
       <use xlink:href="#Roboto-Regular-36"/>
      </g>
     </g>
    </g>
    <g id="xtick_5">
     <g id="line2d_9">
      <path d="M 913.017013 289.540625 
L 913.017013 74.64125 
" clip-path="url(#pf173d69806)" style="fill: none; stroke: #ffffff; stroke-linecap: round"/>
     </g>
     <g id="line2d_10"/>
     <g id="text_5">
      <!-- 8 -->
      <g style="fill: #262626" transform="translate(910.209201 304.040625)scale(0.1 -0.1)">
       <defs>
        <path id="Roboto-Regular-38" d="M 3138 3363 
Q 3138 3022 2958 2756 
Q 2778 2491 2472 2341 
Q 2828 2188 3036 1894 
Q 3244 1600 3244 1228 
Q 3244 638 2845 287 
Q 2447 -63 1797 -63 
Q 1141 -63 745 289 
Q 350 641 350 1228 
Q 350 1597 551 1894 
Q 753 2191 1109 2344 
Q 806 2494 631 2759 
Q 456 3025 456 3363 
Q 456 3938 825 4275 
Q 1194 4613 1797 4613 
Q 2397 4613 2767 4275 
Q 3138 3938 3138 3363 
z
M 2666 1241 
Q 2666 1622 2423 1862 
Q 2181 2103 1790 2103 
Q 1400 2103 1164 1865 
Q 928 1628 928 1240 
Q 928 853 1158 631 
Q 1388 409 1797 409 
Q 2203 409 2434 632 
Q 2666 856 2666 1241 
z
M 1797 4138 
Q 1456 4138 1245 3927 
Q 1034 3716 1034 3353 
Q 1034 3006 1242 2792 
Q 1450 2578 1797 2578 
Q 2144 2578 2351 2792 
Q 2559 3006 2559 3353 
Q 2559 3700 2343 3919 
Q 2128 4138 1797 4138 
z
" transform="scale(0.015625)"/>
       </defs>
       <use xlink:href="#Roboto-Regular-38"/>
      </g>
     </g>
    </g>
    <g id="xtick_6">
     <g id="line2d_11">
      <path d="M 1115.863943 289.540625 
L 1115.863943 74.64125 
" clip-path="url(#pf173d69806)" style="fill: none; stroke: #ffffff; stroke-linecap: round"/>
     </g>
     <g id="line2d_12"/>
     <g id="text_6">
      <!-- 10 -->
      <g style="fill: #262626" transform="translate(1110.248318 304.040625)scale(0.1 -0.1)">
       <defs>
        <path id="Roboto-Regular-31" d="M 2278 0 
L 1697 0 
L 1697 3853 
L 531 3425 
L 531 3950 
L 2188 4572 
L 2278 4572 
L 2278 0 
z
" transform="scale(0.015625)"/>
       </defs>
       <use xlink:href="#Roboto-Regular-31"/>
       <use xlink:href="#Roboto-Regular-30" x="56.152344"/>
      </g>
     </g>
    </g>
    <g id="text_7">
     <!-- (ﻪﯿﻧﺎﺛ) ﻥﺎﻣﺯ -->
     <g style="fill: #056385" transform="translate(571.761558 329.358125)scale(0.14 -0.14)">
      <defs>
       <path id="BNazanin-28" d="M 1791 3238 
Q 1747 3166 1569 2913 
Q 934 2009 934 1275 
Q 934 675 1256 81 
Q 1363 -116 1775 -675 
Q 1794 -700 1794 -728 
Q 1794 -800 1697 -800 
Q 1613 -800 1331 -525 
Q 991 -194 775 203 
Q 488 731 488 1259 
Q 488 1863 831 2422 
Q 1147 2931 1681 3297 
Q 1722 3325 1756 3309 
Q 1791 3294 1791 3238 
z
" transform="scale(0.015625)"/>
       <path id="BNazanin-feea" d="M 2738 3 
L 2441 3 
Q 1928 3 1791 641 
Q 1509 363 1466 363 
L 1113 363 
Q 925 363 741 419 
Q 484 497 484 638 
Q 484 1088 803 1369 
Q 1016 1556 1538 1763 
L 1459 2147 
L 1728 2450 
Q 1744 2400 2000 1141 
Q 2078 756 2144 641 
Q 2244 466 2459 466 
L 2738 466 
L 2738 3 
z
M 1741 819 
L 1606 1453 
Q 1403 1394 1122 1256 
Q 738 1069 738 959 
Q 738 869 1031 819 
Q 1238 784 1397 784 
Q 1594 784 1741 819 
z
" transform="scale(0.015625)"/>
       <path id="BNazanin-fbff" d="M 2050 3 
L 1744 3 
Q 1191 3 1003 366 
Q 797 3 178 3 
L -81 3 
L -81 466 
L 275 466 
Q 859 466 913 919 
Q 934 1100 1003 1100 
Q 1072 1100 1091 913 
Q 1131 466 1697 466 
L 2050 466 
L 2050 3 
z
M 1419 -878 
L 1109 -1188 
L 797 -875 
L 1106 -566 
L 1419 -878 
z
M 731 -878 
L 425 -1188 
L 113 -875 
L 422 -566 
L 731 -878 
z
" transform="scale(0.015625)"/>
       <path id="BNazanin-fee7" d="M 1038 797 
Q 1038 3 247 3 
L -81 3 
L -81 466 
L 191 466 
Q 788 466 788 681 
Q 788 831 516 1178 
L 678 1572 
Q 703 1631 719 1631 
Q 734 1631 784 1559 
Q 1038 1188 1038 797 
z
M 1006 2619 
L 681 2294 
L 356 2622 
L 681 2947 
L 1006 2619 
z
" transform="scale(0.015625)"/>
       <path id="BNazanin-fe8e" d="M 1584 3 
L 1313 3 
Q 866 3 694 369 
Q 572 625 575 1134 
L 578 1897 
Q 581 2450 484 3453 
L 731 3716 
Q 800 3788 813 3706 
Q 897 3184 897 2128 
L 897 963 
Q 897 466 1375 466 
L 1584 466 
L 1584 3 
z
" transform="scale(0.015625)"/>
       <path id="BNazanin-fe9b" d="M 1038 797 
Q 1038 3 247 3 
L -81 3 
L -81 466 
L 191 466 
Q 788 466 788 681 
Q 788 831 516 1178 
L 678 1572 
Q 703 1631 719 1631 
Q 734 1631 784 1559 
Q 1038 1188 1038 797 
z
M 953 3100 
L 659 2806 
L 366 3103 
L 659 3394 
L 953 3100 
z
M 1313 2475 
L 1019 2184 
L 725 2478 
L 1016 2769 
L 1313 2475 
z
M 600 2475 
L 309 2184 
L 13 2478 
L 306 2769 
L 600 2475 
z
" transform="scale(0.015625)"/>
       <path id="BNazanin-29" d="M 488 -728 
Q 519 -672 709 -403 
Q 1347 497 1347 1238 
Q 1347 1841 1025 2428 
Q 919 2622 503 3184 
Q 484 3209 484 3238 
Q 484 3313 584 3313 
Q 669 3313 947 3038 
Q 1288 2700 1503 2306 
Q 1791 1778 1791 1250 
Q 1791 638 1450 88 
Q 1138 -419 597 -788 
Q 559 -813 525 -797 
Q 488 -781 488 -728 
z
" transform="scale(0.015625)"/>
       <path id="BNazanin-20" transform="scale(0.015625)"/>
       <path id="BNazanin-fee5" d="M 3453 59 
Q 3488 -150 3488 -291 
Q 3488 -516 3413 -728 
Q 3256 -1175 2709 -1422 
Q 2253 -1628 1716 -1628 
Q 1191 -1628 853 -1369 
Q 484 -1081 484 -569 
Q 484 -297 619 13 
Q 716 234 819 359 
Q 869 419 909 419 
Q 947 419 947 375 
Q 947 347 928 309 
Q 750 -56 750 -359 
Q 750 -656 947 -872 
Q 1206 -1156 1731 -1156 
Q 2325 -1156 2781 -944 
Q 3156 -769 3250 -563 
Q 3281 -494 3281 -391 
Q 3281 -231 3200 0 
Q 3131 194 2825 628 
L 2988 953 
Q 3025 1025 3044 1025 
Q 3063 1025 3100 966 
Q 3375 538 3453 59 
z
M 2275 1791 
L 1950 1466 
L 1622 1794 
L 1947 2119 
L 2275 1791 
z
" transform="scale(0.015625)"/>
       <path id="BNazanin-fee3" d="M 2066 797 
Q 2091 500 1997 297 
Q 1853 -13 1678 -13 
Q 1359 -13 772 397 
Q 591 181 519 125 
Q 363 3 134 3 
L -81 3 
L -81 466 
L 203 466 
Q 472 466 675 741 
Q 775 884 1034 1250 
Q 1231 1525 1438 1525 
Q 1728 1525 1913 1231 
Q 2047 1016 2066 797 
z
M 1828 503 
Q 1828 678 1697 884 
Q 1550 1116 1375 1116 
Q 1197 1116 956 750 
Q 1056 641 1322 520 
Q 1588 400 1734 400 
Q 1828 400 1828 503 
z
" transform="scale(0.015625)"/>
       <path id="BNazanin-feaf" d="M 2016 -34 
Q 2016 -619 1644 -1138 
Q 1325 -1581 1113 -1581 
Q 656 -1581 325 -1534 
Q 216 -1519 216 -1481 
Q 216 -1444 328 -1422 
Q 797 -1325 1272 -925 
Q 1778 -497 1778 -103 
Q 1778 159 1359 566 
L 1541 944 
Q 1566 994 1578 997 
Q 1597 991 1631 947 
Q 1775 772 1891 481 
Q 2016 175 2016 -34 
z
M 1722 2113 
L 1397 1788 
L 1072 2116 
L 1397 2438 
L 1722 2113 
z
" transform="scale(0.015625)"/>
      </defs>
      <use xlink:href="#BNazanin-28"/>
      <use xlink:href="#BNazanin-feea" x="28.125"/>
      <use xlink:href="#BNazanin-fbff" x="69.628906"/>
      <use xlink:href="#BNazanin-fee7" x="100.390625"/>
      <use xlink:href="#BNazanin-fe8e" x="116.650391"/>
      <use xlink:href="#BNazanin-fe9b" x="140.087891"/>
      <use xlink:href="#BNazanin-29" x="161.230469"/>
      <use xlink:href="#BNazanin-20" x="189.355469"/>
      <use xlink:href="#BNazanin-fee5" x="213.769531"/>
      <use xlink:href="#BNazanin-fe8e" x="268.359375"/>
      <use xlink:href="#BNazanin-fee3" x="291.796875"/>
      <use xlink:href="#BNazanin-feaf" x="324.121094"/>
     </g>
    </g>
   </g>
   <g id="matplotlib.axis_2">
    <g id="ytick_1">
     <g id="line2d_13">
      <path d="M 52.125928 268.050687 
L 1141.2 268.050687 
" clip-path="url(#pf173d69806)" style="fill: none; stroke: #ffffff; stroke-linecap: round"/>
     </g>
     <g id="line2d_14"/>
     <g id="text_8">
      <!-- $\mathdefault{−2}$ -->
      <g style="fill: #262626" transform="translate(33.725928 271.800687)scale(0.1 -0.1)">
       <defs>
        <path id="Roboto-Regular-2212" d="M 3134 2034 
L 525 2034 
L 525 2506 
L 3134 2506 
L 3134 2034 
z
" transform="scale(0.015625)"/>
       </defs>
       <use xlink:href="#Roboto-Regular-2212" transform="translate(0 0.921875)"/>
       <use xlink:href="#Roboto-Regular-32" transform="translate(57.128906 0.921875)"/>
      </g>
     </g>
    </g>
    <g id="ytick_2">
     <g id="line2d_15">
      <path d="M 52.125928 225.070812 
L 1141.2 225.070812 
" clip-path="url(#pf173d69806)" style="fill: none; stroke: #ffffff; stroke-linecap: round"/>
     </g>
     <g id="line2d_16"/>
     <g id="text_9">
      <!-- $\mathdefault{−1}$ -->
      <g style="fill: #262626" transform="translate(33.725928 228.820812)scale(0.1 -0.1)">
       <use xlink:href="#Roboto-Regular-2212" transform="translate(0 0.5625)"/>
       <use xlink:href="#Roboto-Regular-31" transform="translate(57.128906 0.5625)"/>
      </g>
     </g>
    </g>
    <g id="ytick_3">
     <g id="line2d_17">
      <path d="M 52.125928 182.090937 
L 1141.2 182.090937 
" clip-path="url(#pf173d69806)" style="fill: none; stroke: #ffffff; stroke-linecap: round"/>
     </g>
     <g id="line2d_18"/>
     <g id="text_10">
      <!-- $\mathdefault{0}$ -->
      <g style="fill: #262626" transform="translate(39.425928 185.840937)scale(0.1 -0.1)">
       <use xlink:href="#Roboto-Regular-30" transform="translate(0 0.921875)"/>
      </g>
     </g>
    </g>
    <g id="ytick_4">
     <g id="line2d_19">
      <path d="M 52.125928 139.111063 
L 1141.2 139.111063 
" clip-path="url(#pf173d69806)" style="fill: none; stroke: #ffffff; stroke-linecap: round"/>
     </g>
     <g id="line2d_20"/>
     <g id="text_11">
      <!-- $\mathdefault{1}$ -->
      <g style="fill: #262626" transform="translate(39.425928 142.861063)scale(0.1 -0.1)">
       <use xlink:href="#Roboto-Regular-31" transform="translate(0 0.5625)"/>
      </g>
     </g>
    </g>
    <g id="ytick_5">
     <g id="line2d_21">
      <path d="M 52.125928 96.131188 
L 1141.2 96.131188 
" clip-path="url(#pf173d69806)" style="fill: none; stroke: #ffffff; stroke-linecap: round"/>
     </g>
     <g id="line2d_22"/>
     <g id="text_12">
      <!-- $\mathdefault{2}$ -->
      <g style="fill: #262626" transform="translate(39.425928 99.881188)scale(0.1 -0.1)">
       <use xlink:href="#Roboto-Regular-32" transform="translate(0 0.921875)"/>
      </g>
     </g>
    </g>
    <g id="text_13">
     <!-- (ﺖﻟﻭ) ﻩﺯﺍﺪﻧﺍ -->
     <g style="fill: #056385" transform="translate(20.26749 207.193594)rotate(-90)scale(0.14 -0.14)">
      <defs>
       <path id="BNazanin-fe96" d="M 4803 3 
L 4634 3 
Q 4353 3 4175 131 
Q 3972 275 3969 544 
Q 3303 -72 1916 -72 
Q 484 -72 484 797 
Q 484 1091 706 1406 
Q 747 1466 794 1466 
Q 838 1466 838 1409 
Q 838 1384 822 1347 
Q 734 1147 734 988 
Q 734 391 2034 391 
Q 3550 391 4047 1050 
Q 4147 1181 4200 1181 
Q 4238 1181 4238 1106 
Q 4238 1053 4216 947 
Q 4194 841 4194 788 
Q 4194 466 4634 466 
L 4803 466 
L 4803 3 
z
M 3003 2325 
L 2694 2019 
L 2384 2328 
L 2691 2638 
L 3003 2325 
z
M 2319 2325 
L 2009 2019 
L 1697 2328 
L 2006 2638 
L 2319 2325 
z
" transform="scale(0.015625)"/>
       <path id="BNazanin-fedf" d="M 1000 3178 
Q 1034 3097 1025 3081 
Q 1019 3072 959 3072 
L 831 3072 
Q 872 2272 856 809 
Q 853 456 684 241 
Q 497 3 153 3 
L -81 3 
L -81 466 
L 131 466 
Q 603 466 588 825 
Q 534 2113 453 3434 
L 719 3688 
Q 781 3747 794 3750 
Q 806 3738 825 3666 
Q 872 3484 1000 3178 
z
" transform="scale(0.015625)"/>
       <path id="BNazanin-feed" d="M 2056 163 
Q 2056 -731 1441 -1369 
Q 1247 -1569 1194 -1569 
Q 853 -1569 416 -1500 
Q 263 -1475 263 -1453 
Q 263 -1428 425 -1381 
Q 909 -1241 1328 -881 
Q 1503 -731 1647 -528 
Q 1828 -275 1828 -103 
L 1828 28 
L 1306 9 
Q 753 -9 753 469 
Q 753 766 925 1106 
Q 1122 1494 1375 1494 
Q 1750 1494 1931 978 
Q 2056 622 2056 163 
z
M 1769 494 
Q 1769 688 1638 859 
Q 1497 1047 1309 1047 
Q 1184 1047 1092 953 
Q 1000 859 1000 734 
Q 1000 459 1394 459 
Q 1541 459 1769 494 
z
" transform="scale(0.015625)"/>
       <path id="BNazanin-fee9" d="M 2000 844 
Q 2000 434 1747 206 
Q 1503 -9 1091 -9 
Q 838 -9 666 144 
Q 484 303 484 553 
Q 484 831 722 1244 
Q 928 1600 1178 1850 
Q 2000 1422 2000 844 
z
M 1772 681 
Q 1772 847 1506 1097 
Q 1269 1319 1084 1388 
Q 772 991 772 753 
Q 772 613 919 525 
Q 1044 450 1194 450 
Q 1453 450 1631 547 
Q 1772 622 1772 681 
z
" transform="scale(0.015625)"/>
       <path id="BNazanin-fe8d" d="M 934 497 
Q 934 253 834 50 
Q 775 -72 753 -72 
Q 728 -72 728 81 
Q 728 775 484 3469 
L 816 3778 
Q 859 3819 875 3822 
Q 891 3822 894 3753 
Q 934 2963 934 497 
z
M 934 497 
Q 934 253 834 50 
Q 775 -72 753 -72 
Q 728 -72 728 81 
Q 728 775 484 3469 
L 816 3778 
Q 859 3819 875 3822 
Q 891 3822 894 3753 
Q 934 2963 934 497 
z
" transform="scale(0.015625)"/>
       <path id="BNazanin-feaa" d="M 3116 3 
L 2938 3 
Q 2713 3 2556 147 
Q 2459 238 2322 466 
Q 2178 209 1988 106 
Q 1756 -22 1325 -22 
Q 484 -22 484 581 
Q 484 784 609 1000 
Q 650 1072 691 1072 
Q 728 1072 728 1009 
Q 728 975 718 908 
Q 709 841 709 806 
Q 709 447 1319 447 
Q 2178 447 2178 781 
Q 2178 963 1681 2084 
L 1859 2394 
Q 1894 2453 1906 2456 
Q 1925 2444 1953 2378 
Q 2153 1906 2500 953 
Q 2678 466 3003 466 
L 3116 466 
L 3116 3 
z
" transform="scale(0.015625)"/>
      </defs>
      <use xlink:href="#BNazanin-28"/>
      <use xlink:href="#BNazanin-fe96" x="28.125"/>
      <use xlink:href="#BNazanin-fedf" x="101.904297"/>
      <use xlink:href="#BNazanin-feed" x="117.919922"/>
      <use xlink:href="#BNazanin-29" x="150.097656"/>
      <use xlink:href="#BNazanin-20" x="178.222656"/>
      <use xlink:href="#BNazanin-fee9" x="202.636719"/>
      <use xlink:href="#BNazanin-feaf" x="233.935547"/>
      <use xlink:href="#BNazanin-fe8d" x="265.527344"/>
      <use xlink:href="#BNazanin-feaa" x="280.224609"/>
      <use xlink:href="#BNazanin-fee7" x="327.636719"/>
      <use xlink:href="#BNazanin-fe8d" x="343.896484"/>
     </g>
    </g>
    <g id="text_14">
     <!-- $\times\mathdefault{10^{−5}}\mathdefault{}$ -->
     <g style="fill: #262626" transform="translate(52.125928 71.64125)scale(0.1 -0.1)">
      <defs>
       <path id="DejaVuSans-d7" d="M 4488 3438 
L 3059 2003 
L 4488 575 
L 4116 197 
L 2681 1631 
L 1247 197 
L 878 575 
L 2303 2003 
L 878 3438 
L 1247 3816 
L 2681 2381 
L 4116 3816 
L 4488 3438 
z
" transform="scale(0.015625)"/>
       <path id="Roboto-Regular-35" d="M 644 2281 
L 875 4550 
L 3206 4550 
L 3206 4016 
L 1366 4016 
L 1228 2775 
Q 1563 2972 1988 2972 
Q 2609 2972 2975 2561 
Q 3341 2150 3341 1450 
Q 3341 747 2961 342 
Q 2581 -63 1900 -63 
Q 1297 -63 915 271 
Q 534 606 481 1197 
L 1028 1197 
Q 1081 806 1306 607 
Q 1531 409 1900 409 
Q 2303 409 2533 684 
Q 2763 959 2763 1444 
Q 2763 1900 2514 2176 
Q 2266 2453 1853 2453 
Q 1475 2453 1259 2288 
L 1106 2163 
L 644 2281 
z
" transform="scale(0.015625)"/>
      </defs>
      <use xlink:href="#DejaVuSans-d7" transform="translate(0 0.254688)"/>
      <use xlink:href="#Roboto-Regular-31" transform="translate(83.789062 0.254688)"/>
      <use xlink:href="#Roboto-Regular-30" transform="translate(139.941406 0.254688)"/>
      <use xlink:href="#Roboto-Regular-2212" transform="translate(197.018242 37.234375)scale(0.7)"/>
      <use xlink:href="#Roboto-Regular-35" transform="translate(237.008477 37.234375)scale(0.7)"/>
     </g>
    </g>
   </g>
   <g id="patch_3">
    <path d="M 203.052759 289.540625 
L 203.052759 74.64125 
L 263.906838 74.64125 
L 263.906838 289.540625 
z
" clip-path="url(#pf173d69806)" style="fill: #b2d9d5; opacity: 0.4; stroke: #b2d9d5; stroke-width: 0.3; stroke-linejoin: miter"/>
   </g>
   <g id="patch_4">
    <path d="M 801.451202 289.540625 
L 801.451202 74.64125 
L 872.447627 74.64125 
L 872.447627 289.540625 
z
" clip-path="url(#pf173d69806)" style="fill: #b2d9d5; opacity: 0.4; stroke: #b2d9d5; stroke-width: 0.3; stroke-linejoin: miter"/>
   </g>
   <g id="patch_5">
    <path d="M 547.89254 289.540625 
L 547.89254 74.64125 
L 639.173658 74.64125 
L 639.173658 289.540625 
z
" clip-path="url(#pf173d69806)" style="fill: #b2d9d5; opacity: 0.4; stroke: #b2d9d5; stroke-width: 0.3; stroke-linejoin: miter"/>
   </g>
   <g id="patch_6">
    <path d="M 915.045483 289.540625 
L 915.045483 74.64125 
L 975.899562 74.64125 
L 975.899562 289.540625 
z
" clip-path="url(#pf173d69806)" style="fill: #b2d9d5; opacity: 0.4; stroke: #b2d9d5; stroke-width: 0.3; stroke-linejoin: miter"/>
   </g>
   <g id="line2d_23">
    <path d="M 101.629295 182.930828 
L 103.214036 182.703513 
L 104.798778 182.224487 
L 107.17589 181.193496 
L 109.156817 180.371422 
L 110.345374 180.048732 
L 111.53393 179.927209 
L 112.722486 180.036588 
L 113.911042 180.372562 
L 115.495784 181.100645 
L 119.457638 183.141628 
L 120.646194 183.463151 
L 121.834751 183.549304 
L 123.023307 183.395636 
L 124.211863 183.035725 
L 126.588975 181.988296 
L 128.173717 181.354239 
L 129.362273 181.071346 
L 130.55083 181.030513 
L 131.739386 181.266061 
L 132.927942 181.775206 
L 134.116498 182.519758 
L 136.097425 184.095262 
L 138.870723 186.342707 
L 140.455465 187.327362 
L 141.644021 187.843629 
L 142.832577 188.157718 
L 144.021133 188.280894 
L 145.605875 188.193074 
L 147.586802 187.789826 
L 150.3601 186.945826 
L 153.925769 185.877602 
L 155.906696 185.53712 
L 157.491437 185.525174 
L 158.679994 185.717409 
L 159.86855 186.105082 
L 161.057106 186.691132 
L 162.641848 187.745575 
L 165.415146 189.991909 
L 167.396073 191.441969 
L 168.584629 192.056529 
L 169.773185 192.387207 
L 170.565556 192.422193 
L 171.357927 192.295788 
L 172.150298 192.002033 
L 173.338854 191.245608 
L 174.52741 190.122685 
L 175.715966 188.663315 
L 177.300708 186.272267 
L 179.281635 182.763635 
L 184.03586 173.99895 
L 185.224416 172.230602 
L 186.412972 170.817273 
L 187.205343 170.111741 
L 187.997714 169.617671 
L 188.790085 169.348392 
L 189.582456 169.311269 
L 190.374826 169.507041 
L 191.167197 169.929376 
L 191.959568 170.5647 
L 193.148124 171.869771 
L 194.732866 174.106016 
L 198.69472 180.099171 
L 199.883276 181.370102 
L 200.675647 181.953632 
L 201.468018 182.294245 
L 202.260389 182.376463 
L 203.052759 182.197433 
L 203.84513 181.768397 
L 204.637501 181.115619 
L 205.826057 179.811865 
L 208.599355 176.434118 
L 209.391726 175.767735 
L 210.184097 175.408722 
L 210.580282 175.374223 
L 210.976468 175.451581 
L 211.372653 175.651525 
L 212.165024 176.458528 
L 212.957395 177.865015 
L 213.749766 179.923819 
L 214.542136 182.667382 
L 215.334507 186.105031 
L 216.523063 192.521702 
L 217.71162 200.298157 
L 219.296361 212.276042 
L 223.654401 246.720681 
L 224.842957 254.275494 
L 226.031513 260.254562 
L 226.823884 263.217777 
L 227.616255 265.286983 
L 228.01244 265.972185 
L 228.408626 266.419402 
L 228.804811 266.626416 
L 229.200997 266.592262 
L 229.597182 266.317231 
L 229.993367 265.802863 
L 230.785738 264.068491 
L 231.578109 261.426179 
L 232.37048 257.932275 
L 233.559036 251.263401 
L 234.747592 243.175934 
L 236.728519 227.652733 
L 239.898003 202.26628 
L 241.482744 191.525457 
L 242.6713 184.949427 
L 243.859857 179.810488 
L 244.652227 177.193522 
L 245.444598 175.194872 
L 246.236969 173.764958 
L 247.02934 172.836166 
L 247.821711 172.327412 
L 248.614082 172.149226 
L 249.406452 172.209028 
L 250.595009 172.54856 
L 252.575936 173.139853 
L 253.764492 173.205914 
L 254.556863 173.068093 
L 255.745419 172.579303 
L 256.933975 171.796639 
L 258.914902 170.111689 
L 260.895829 168.443926 
L 262.084386 167.655763 
L 263.272942 167.10004 
L 264.461498 166.783121 
L 266.04624 166.65995 
L 269.611908 166.609766 
L 270.800465 166.293819 
L 271.989021 165.680375 
L 273.177577 164.715313 
L 274.366133 163.372908 
L 275.554689 161.654508 
L 276.743246 159.584627 
L 278.327987 156.353715 
L 280.308914 151.755995 
L 285.459325 139.381471 
L 287.044066 136.334278 
L 288.232623 134.551689 
L 289.024993 133.653817 
L 289.817364 133.014298 
L 290.609735 132.649966 
L 291.402106 132.572196 
L 292.194477 132.786586 
L 292.986847 133.292928 
L 293.779218 134.085422 
L 294.571589 135.153129 
L 295.760145 137.235838 
L 296.948702 139.834886 
L 298.533443 143.964142 
L 300.51437 149.902748 
L 304.080039 161.601196 
L 307.249522 171.771624 
L 309.230449 177.517162 
L 311.211376 182.605515 
L 313.192303 187.049235 
L 315.965601 192.587909 
L 319.135084 198.964637 
L 321.908382 205.144225 
L 325.474051 213.157671 
L 327.058793 216.206229 
L 328.247349 218.101647 
L 329.435905 219.581495 
L 330.228276 220.309245 
L 331.020647 220.815412 
L 331.813018 221.091694 
L 332.605388 221.13375 
L 333.397759 220.941553 
L 334.19013 220.519813 
L 334.982501 219.878473 
L 336.171057 218.540705 
L 337.359613 216.824795 
L 339.34054 213.440766 
L 341.717653 209.387023 
L 342.906209 207.757664 
L 343.69858 206.926328 
L 344.490951 206.343064 
L 345.283322 206.035754 
L 346.075692 206.021418 
L 346.868063 206.304774 
L 347.660434 206.877216 
L 348.452805 207.716301 
L 349.641361 209.392108 
L 351.226103 212.117144 
L 353.20703 215.5161 
L 354.395586 217.083389 
L 355.187957 217.777318 
L 355.980328 218.1185 
L 356.772698 218.059616 
L 357.565069 217.568927 
L 358.35744 216.631998 
L 359.149811 215.2526 
L 359.942182 213.452776 
L 361.130738 210.055757 
L 362.71548 204.552977 
L 366.281148 191.402269 
L 367.469704 187.871677 
L 368.262075 185.985827 
L 369.054446 184.538095 
L 369.846817 183.563539 
L 370.639188 183.077636 
L 371.035373 183.017126 
L 371.431559 183.075189 
L 372.223929 183.53011 
L 373.0163 184.396151 
L 373.808671 185.608601 
L 374.997227 187.897169 
L 378.166711 194.40656 
L 378.959081 195.583299 
L 379.751452 196.406416 
L 380.543823 196.814386 
L 380.940008 196.848683 
L 381.336194 196.764956 
L 382.128565 196.236749 
L 382.920935 195.229826 
L 383.713306 193.765245 
L 384.505677 191.883732 
L 385.694233 188.411379 
L 387.278975 182.982335 
L 390.052273 173.395815 
L 391.240829 170.093502 
L 392.0332 168.372982 
L 392.825571 167.114059 
L 393.617941 166.365828 
L 394.014127 166.193987 
L 394.410312 166.160498 
L 394.806498 166.266535 
L 395.202683 166.512084 
L 395.995054 167.41568 
L 396.787425 168.847351 
L 397.579796 170.764691 
L 398.768352 174.41665 
L 400.353093 180.308171 
L 403.522577 192.624043 
L 404.711133 196.379085 
L 405.503504 198.38306 
L 406.295875 199.913022 
L 407.088245 200.924121 
L 407.880616 201.38987 
L 408.276802 201.415109 
L 408.672987 201.302598 
L 409.069172 201.054263 
L 409.861543 200.163231 
L 410.653914 198.778264 
L 411.446285 196.950102 
L 412.634841 193.516419 
L 414.219583 188.037835 
L 418.181437 173.650731 
L 419.766179 168.939578 
L 420.954735 166.068148 
L 422.143291 163.785333 
L 423.331847 162.045497 
L 424.520403 160.753278 
L 425.70896 159.777882 
L 430.066999 156.582206 
L 431.255555 155.314851 
L 432.840297 153.217002 
L 434.821224 150.075052 
L 437.990707 144.906277 
L 439.179264 143.319855 
L 440.36782 142.100646 
L 441.160191 141.533202 
L 441.952561 141.182069 
L 442.744932 141.056802 
L 443.537303 141.159962 
L 444.329674 141.487147 
L 445.122045 142.027237 
L 446.310601 143.196872 
L 447.499157 144.722908 
L 449.480084 147.767091 
L 452.253382 152.140612 
L 453.838124 154.219028 
L 455.02668 155.441214 
L 456.215236 156.345586 
L 457.403792 156.947587 
L 458.592349 157.299136 
L 460.573276 157.562133 
L 462.554203 157.855389 
L 463.742759 158.257188 
L 464.931315 158.938652 
L 466.119871 159.957169 
L 467.308428 161.334242 
L 468.496984 163.053574 
L 470.081726 165.785965 
L 472.855023 171.207837 
L 475.628321 176.460363 
L 477.609248 179.714544 
L 479.986361 183.105652 
L 485.532956 190.722618 
L 489.098625 195.704892 
L 490.683367 197.515158 
L 491.871923 198.577316 
L 493.060479 199.347721 
L 494.249036 199.822781 
L 495.437592 200.02616 
L 496.626148 200.0009 
L 498.21089 199.697346 
L 499.795631 199.169235 
L 501.380373 198.441872 
L 502.965115 197.453619 
L 504.153671 196.46378 
L 505.342227 195.187426 
L 506.530783 193.564585 
L 507.719339 191.555344 
L 508.907896 189.150152 
L 510.492637 185.377395 
L 512.473564 179.986697 
L 517.227789 166.727541 
L 518.812531 162.995919 
L 520.397273 159.826513 
L 521.982014 157.238856 
L 523.17057 155.657807 
L 524.755312 153.97043 
L 526.340054 152.682265 
L 527.924795 151.706973 
L 529.509537 150.972525 
L 531.490464 150.307752 
L 534.263762 149.670975 
L 537.829431 148.850081 
L 539.810358 148.140155 
L 542.18747 147.006041 
L 544.960768 145.672221 
L 546.54551 145.188602 
L 547.734066 145.065497 
L 548.922622 145.19063 
L 550.111178 145.584783 
L 551.299734 146.25997 
L 552.488291 147.232481 
L 553.676847 148.537494 
L 554.865403 150.240109 
L 556.053959 152.43791 
L 557.242516 155.251914 
L 558.431072 158.805781 
L 559.619628 163.196619 
L 560.808184 168.46355 
L 562.392926 176.757055 
L 564.373853 188.584247 
L 567.543336 207.635498 
L 569.128078 215.598284 
L 570.316634 220.450846 
L 571.50519 224.283111 
L 572.693747 227.180097 
L 573.882303 229.33882 
L 575.467044 231.549017 
L 577.447972 234.244032 
L 578.636528 236.278825 
L 579.825084 238.813973 
L 581.01364 241.879263 
L 582.598382 246.648638 
L 586.560236 259.142029 
L 587.748792 262.159481 
L 588.937348 264.558145 
L 589.729719 265.783991 
L 590.52209 266.710767 
L 591.314461 267.3511 
L 592.106832 267.725825 
L 592.899202 267.860237 
L 593.691573 267.780148 
L 594.483944 267.50816 
L 595.276315 267.060547 
L 596.464871 266.074134 
L 597.653427 264.693179 
L 598.841984 262.857754 
L 600.03054 260.475858 
L 601.219096 257.444413 
L 602.407652 253.673653 
L 603.596209 249.110536 
L 604.784765 243.75716 
L 606.369506 235.516041 
L 608.746619 221.537873 
L 612.312288 200.403011 
L 613.897029 192.226489 
L 615.481771 185.233132 
L 617.066512 179.467538 
L 618.651254 174.774156 
L 620.235996 170.836346 
L 624.594035 160.508034 
L 626.178777 155.906167 
L 628.159704 149.296864 
L 632.121558 135.62569 
L 633.310114 132.334996 
L 634.49867 129.779616 
L 635.291041 128.547332 
L 636.083412 127.714798 
L 636.875783 127.284899 
L 637.668154 127.247114 
L 638.460525 127.579667 
L 639.252895 128.252189 
L 640.045266 129.22851 
L 641.233822 131.176184 
L 642.422379 133.583192 
L 644.00712 137.283655 
L 649.949901 151.842423 
L 651.534643 154.850741 
L 652.723199 156.659885 
L 653.911756 158.072009 
L 655.100312 159.125506 
L 656.288868 159.907643 
L 659.854537 162.001057 
L 661.043093 163.094421 
L 662.231649 164.554954 
L 663.420205 166.40793 
L 665.004947 169.433726 
L 666.985874 173.856485 
L 670.947728 183.50099 
L 674.117211 191.656822 
L 676.098138 197.330705 
L 678.079066 203.626104 
L 684.021847 223.267134 
L 685.210403 226.295729 
L 686.398959 228.672211 
L 687.19133 229.83444 
L 687.983701 230.62567 
L 688.776072 231.02455 
L 689.568442 231.016338 
L 690.360813 230.592875 
L 691.153184 229.752434 
L 691.945555 228.499511 
L 692.737926 226.844626 
L 693.926482 223.646188 
L 695.115038 219.662334 
L 696.69978 213.326959 
L 698.680707 204.280803 
L 702.246376 187.674236 
L 703.831117 181.402143 
L 705.019673 177.498487 
L 706.20823 174.364094 
L 707.396786 171.985392 
L 708.585342 170.266394 
L 709.773898 169.041621 
L 711.35864 167.812323 
L 712.943382 166.576139 
L 714.131938 165.39682 
L 715.320494 163.895899 
L 716.50905 162.069839 
L 718.489977 158.549729 
L 720.470904 155.090002 
L 721.659461 153.397593 
L 722.451831 152.523428 
L 723.244202 151.885713 
L 724.036573 151.496711 
L 724.828944 151.353678 
L 725.621315 151.439667 
L 726.413685 151.72548 
L 727.602242 152.44285 
L 729.583169 154.031487 
L 731.564096 155.554917 
L 733.148837 156.458024 
L 734.733579 157.04479 
L 736.714506 157.493164 
L 739.487804 158.120938 
L 741.468731 158.81779 
L 746.222956 160.684122 
L 747.807698 160.938477 
L 748.996254 160.921646 
L 750.580995 160.638314 
L 752.561923 160.004344 
L 754.939035 159.245195 
L 756.127591 159.044364 
L 757.316147 159.055091 
L 758.504704 159.330781 
L 759.69326 159.908085 
L 760.881816 160.805397 
L 762.070372 162.022589 
L 763.258929 163.541999 
L 764.84367 165.979769 
L 766.824597 169.537139 
L 769.597895 175.069878 
L 774.35212 184.608888 
L 775.936862 187.286056 
L 777.125418 188.89101 
L 777.917789 189.69785 
L 778.71016 190.249562 
L 779.50253 190.511522 
L 780.294901 190.455471 
L 781.087272 190.06219 
L 781.879643 189.323676 
L 782.672014 188.244562 
L 783.464384 186.842585 
L 784.652941 184.203563 
L 786.237682 179.922885 
L 791.784278 163.910073 
L 793.36902 160.293276 
L 794.953761 157.301228 
L 796.142318 155.487317 
L 797.330874 154.095683 
L 798.123245 153.450179 
L 798.915615 153.07856 
L 799.707986 153.031017 
L 800.500357 153.361741 
L 801.292728 154.123912 
L 802.085099 155.363901 
L 802.87747 157.115257 
L 803.66984 159.393153 
L 804.858397 163.773469 
L 806.046953 169.180315 
L 807.631694 177.517428 
L 810.801178 194.655868 
L 812.385919 201.75945 
L 813.574476 206.075987 
L 814.763032 209.57766 
L 816.347773 213.349744 
L 819.121071 219.53916 
L 820.309628 222.732795 
L 821.894369 227.756279 
L 826.648594 244.052 
L 827.83715 246.843326 
L 828.629521 248.151097 
L 829.421892 248.982319 
L 830.214263 249.338421 
L 831.006634 249.248105 
L 831.799004 248.765293 
L 832.591375 247.965293 
L 833.779931 246.373324 
L 836.157044 243.036456 
L 836.949415 242.222909 
L 837.741786 241.676574 
L 838.534156 241.435795 
L 839.326527 241.513208 
L 840.118898 241.894894 
L 840.911269 242.541171 
L 842.099825 243.863102 
L 844.080752 246.243429 
L 844.873123 246.947918 
L 845.665494 247.348837 
L 846.457865 247.348204 
L 846.85405 247.170534 
L 847.646421 246.416963 
L 848.438792 245.090158 
L 849.231162 243.160313 
L 850.023533 240.622583 
L 851.212089 235.726264 
L 852.400646 229.67469 
L 853.985387 220.257649 
L 859.928169 183.117259 
L 861.51291 175.127334 
L 863.097652 168.232297 
L 864.682393 162.264029 
L 866.66332 155.761062 
L 869.040433 148.880872 
L 871.417545 142.741094 
L 873.398472 138.213845 
L 874.983214 135.04011 
L 876.567956 132.298087 
L 878.152697 129.993216 
L 879.737439 128.116279 
L 880.925995 126.985249 
L 882.114551 126.094983 
L 883.303108 125.456062 
L 884.491664 125.084064 
L 885.68022 124.995957 
L 886.868776 125.206164 
L 888.057333 125.723593 
L 889.245889 126.550336 
L 890.434445 127.682093 
L 891.623001 129.109804 
L 893.207743 131.453008 
L 894.792485 134.268255 
L 896.377226 137.514775 
L 898.358153 142.086907 
L 901.527637 150.095011 
L 904.300934 156.853965 
L 905.885676 160.144314 
L 907.074232 162.190004 
L 908.262788 163.819372 
L 909.451345 165.026103 
L 910.639901 165.852957 
L 911.828457 166.394915 
L 914.601755 167.420062 
L 915.394126 167.9031 
L 916.186497 168.575533 
L 916.978867 169.487526 
L 917.771238 170.680204 
L 918.563609 172.183007 
L 919.752165 175.049045 
L 920.940722 178.634688 
L 922.525463 184.379568 
L 924.50639 192.572562 
L 928.072059 207.497851 
L 930.052986 214.801155 
L 932.033913 221.295408 
L 940.353807 246.860179 
L 941.938548 251.176093 
L 943.127105 253.847222 
L 943.919475 255.268168 
L 944.711846 256.351589 
L 945.504217 257.062077 
L 946.296588 257.371925 
L 947.088959 257.261836 
L 947.881329 256.721169 
L 948.6737 255.747779 
L 949.466071 254.347466 
L 950.258442 252.533076 
L 951.446998 249.077251 
L 952.635554 244.81304 
L 954.220296 238.027283 
L 955.805038 230.177763 
L 957.785965 219.146704 
L 960.163077 204.514567 
L 967.6906 156.724244 
L 969.275342 148.991283 
L 970.463898 144.308912 
L 971.652454 140.697408 
L 972.444825 138.902196 
L 973.237196 137.586698 
L 974.029566 136.723634 
L 974.821937 136.269456 
L 975.614308 136.165602 
L 976.406679 136.340805 
L 977.595235 136.948982 
L 979.972348 138.361304 
L 980.764718 138.613791 
L 981.557089 138.667295 
L 982.34946 138.496791 
L 983.141831 138.099773 
L 983.934202 137.496524 
L 985.122758 136.301299 
L 987.49987 133.726862 
L 988.292241 133.117834 
L 989.084612 132.770033 
L 989.876983 132.752159 
L 990.669354 133.117581 
L 991.461724 133.901199 
L 992.254095 135.117673 
L 993.046466 136.761081 
L 994.235022 139.966098 
L 995.423579 143.914448 
L 997.404506 151.541771 
L 1000.573989 163.983248 
L 1002.158731 169.340972 
L 1003.743472 173.822181 
L 1004.932028 176.615807 
L 1006.51677 179.72403 
L 1008.497697 183.014802 
L 1012.063366 188.842171 
L 1014.836664 193.411674 
L 1016.02522 194.874389 
L 1016.817591 195.495948 
L 1017.609961 195.740498 
L 1018.006147 195.698032 
L 1018.402332 195.534723 
L 1019.194703 194.81857 
L 1019.987074 193.550587 
L 1020.779445 191.712094 
L 1021.571816 189.30987 
L 1022.760372 184.729432 
L 1023.948928 179.180576 
L 1026.326041 166.573081 
L 1028.306968 156.563644 
L 1029.495524 151.660258 
L 1030.287895 149.070658 
L 1031.080265 147.115596 
L 1031.872636 145.847951 
L 1032.268822 145.481904 
L 1032.665007 145.296671 
L 1033.061192 145.292102 
L 1033.457378 145.466583 
L 1033.853563 145.817091 
L 1034.645934 147.027429 
L 1035.438305 148.873418 
L 1036.230676 151.288019 
L 1037.419232 155.796128 
L 1039.003974 162.96748 
L 1043.362013 183.652568 
L 1044.946755 189.717175 
L 1046.135311 193.401547 
L 1047.323867 196.297416 
L 1048.116238 197.794641 
L 1048.908609 198.960459 
L 1049.70098 199.814826 
L 1050.49335 200.381837 
L 1051.285721 200.688031 
L 1052.078092 200.760893 
L 1052.870463 200.627598 
L 1053.662834 200.314051 
L 1054.85139 199.55758 
L 1056.039946 198.52 
L 1057.624688 196.799666 
L 1059.605615 194.259292 
L 1062.378913 190.267876 
L 1067.133138 183.333467 
L 1068.717879 181.357459 
L 1070.302621 179.758724 
L 1071.491177 178.890791 
L 1072.679733 178.36312 
L 1073.472104 178.218134 
L 1074.264475 178.24488 
L 1075.056846 178.443156 
L 1076.245402 179.048711 
L 1077.433958 179.986215 
L 1079.0187 181.639915 
L 1081.791998 185.068161 
L 1083.772925 187.370944 
L 1084.961481 188.495546 
L 1086.150037 189.336979 
L 1087.338594 189.839447 
L 1088.130964 189.967282 
L 1088.923335 189.922641 
L 1089.715706 189.705219 
L 1090.508077 189.319894 
L 1091.696633 188.450628 
L 1091.696633 188.450628 
" clip-path="url(#pf173d69806)" style="fill: none; stroke: #000000; stroke-width: 1.2; stroke-linecap: round"/>
   </g>
   <g id="patch_7">
    <path d="M 52.125928 289.540625 
L 52.125928 74.64125 
" style="fill: none"/>
   </g>
   <g id="patch_8">
    <path d="M 1141.2 289.540625 
L 1141.2 74.64125 
" style="fill: none"/>
   </g>
   <g id="patch_9">
    <path d="M 52.125928 289.540625 
L 1141.2 289.540625 
" style="fill: none"/>
   </g>
   <g id="patch_10">
    <path d="M 52.125928 74.64125 
L 1141.2 74.64125 
" style="fill: none"/>
   </g>
   <g id="text_15">
    <!-- TUH Seizure: 00008512_s009, 61M -->
    <g style="fill: #262626" transform="translate(1016.7175 287.915625)scale(0.08 -0.08)">
     <defs>
      <path id="Roboto-Regular-54" d="M 3672 4056 
L 2209 4056 
L 2209 0 
L 1613 0 
L 1613 4056 
L 153 4056 
L 153 4550 
L 3672 4550 
L 3672 4056 
z
" transform="scale(0.015625)"/>
      <path id="Roboto-Regular-55" d="M 3731 4550 
L 3731 1456 
Q 3728 813 3326 403 
Q 2925 -6 2238 -56 
L 2078 -63 
Q 1331 -63 887 340 
Q 444 744 438 1450 
L 438 4550 
L 1031 4550 
L 1031 1469 
Q 1031 975 1303 701 
Q 1575 428 2078 428 
Q 2588 428 2858 700 
Q 3128 972 3128 1466 
L 3128 4550 
L 3731 4550 
z
" transform="scale(0.015625)"/>
      <path id="Roboto-Regular-48" d="M 4025 0 
L 3422 0 
L 3422 2103 
L 1128 2103 
L 1128 0 
L 528 0 
L 528 4550 
L 1128 4550 
L 1128 2594 
L 3422 2594 
L 3422 4550 
L 4025 4550 
L 4025 0 
z
" transform="scale(0.015625)"/>
      <path id="Roboto-Regular-20" transform="scale(0.015625)"/>
      <path id="Roboto-Regular-53" d="M 1869 2028 
Q 1097 2250 745 2573 
Q 394 2897 394 3372 
Q 394 3909 823 4261 
Q 1253 4613 1941 4613 
Q 2409 4613 2776 4431 
Q 3144 4250 3345 3931 
Q 3547 3613 3547 3234 
L 2944 3234 
Q 2944 3647 2681 3883 
Q 2419 4119 1941 4119 
Q 1497 4119 1248 3923 
Q 1000 3728 1000 3381 
Q 1000 3103 1236 2911 
Q 1472 2719 2039 2559 
Q 2606 2400 2926 2208 
Q 3247 2016 3401 1759 
Q 3556 1503 3556 1156 
Q 3556 603 3125 270 
Q 2694 -63 1972 -63 
Q 1503 -63 1097 117 
Q 691 297 470 609 
Q 250 922 250 1319 
L 853 1319 
Q 853 906 1158 667 
Q 1463 428 1972 428 
Q 2447 428 2700 622 
Q 2953 816 2953 1150 
Q 2953 1484 2718 1667 
Q 2484 1850 1869 2028 
z
" transform="scale(0.015625)"/>
      <path id="Roboto-Regular-65" d="M 1841 -63 
Q 1153 -63 722 389 
Q 291 841 291 1597 
L 291 1703 
Q 291 2206 483 2601 
Q 675 2997 1020 3220 
Q 1366 3444 1769 3444 
Q 2428 3444 2793 3009 
Q 3159 2575 3159 1766 
L 3159 1525 
L 869 1525 
Q 881 1025 1161 717 
Q 1441 409 1872 409 
Q 2178 409 2390 534 
Q 2603 659 2763 866 
L 3116 591 
Q 2691 -63 1841 -63 
z
M 1769 2969 
Q 1419 2969 1181 2714 
Q 944 2459 888 2000 
L 2581 2000 
L 2581 2044 
Q 2556 2484 2343 2726 
Q 2131 2969 1769 2969 
z
" transform="scale(0.015625)"/>
      <path id="Roboto-Regular-69" d="M 1066 0 
L 488 0 
L 488 3381 
L 1066 3381 
L 1066 0 
z
M 441 4278 
Q 441 4419 527 4516 
Q 613 4613 781 4613 
Q 950 4613 1037 4516 
Q 1125 4419 1125 4278 
Q 1125 4138 1037 4044 
Q 950 3950 781 3950 
Q 613 3950 527 4044 
Q 441 4138 441 4278 
z
" transform="scale(0.015625)"/>
      <path id="Roboto-Regular-7a" d="M 981 472 
L 2959 472 
L 2959 0 
L 275 0 
L 275 425 
L 2141 2903 
L 303 2903 
L 303 3381 
L 2866 3381 
L 2866 2972 
L 981 472 
z
" transform="scale(0.015625)"/>
      <path id="Roboto-Regular-75" d="M 2525 334 
Q 2188 -63 1534 -63 
Q 994 -63 711 251 
Q 428 566 425 1181 
L 425 3381 
L 1003 3381 
L 1003 1197 
Q 1003 428 1628 428 
Q 2291 428 2509 922 
L 2509 3381 
L 3088 3381 
L 3088 0 
L 2538 0 
L 2525 334 
z
" transform="scale(0.015625)"/>
      <path id="Roboto-Regular-72" d="M 2072 2863 
Q 1941 2884 1788 2884 
Q 1219 2884 1016 2400 
L 1016 0 
L 438 0 
L 438 3381 
L 1000 3381 
L 1009 2991 
Q 1294 3444 1816 3444 
Q 1984 3444 2072 3400 
L 2072 2863 
z
" transform="scale(0.015625)"/>
      <path id="Roboto-Regular-3a" d="M 418 303 
Q 418 453 507 553 
Q 596 653 774 653 
Q 952 653 1044 553 
Q 1137 453 1137 303 
Q 1137 159 1044 62 
Q 952 -34 774 -34 
Q 596 -34 507 62 
Q 418 159 418 303 
z
M 418 3055 
Q 418 3205 507 3305 
Q 596 3405 774 3405 
Q 952 3405 1044 3305 
Q 1137 3205 1137 3055 
Q 1137 2911 1044 2814 
Q 952 2718 774 2718 
Q 596 2718 507 2814 
Q 418 2911 418 3055 
z
" transform="scale(0.015625)"/>
      <path id="Roboto-Regular-5f" d="M 2875 -472 
L 13 -472 
L 13 0 
L 2875 0 
L 2875 -472 
z
" transform="scale(0.015625)"/>
      <path id="Roboto-Regular-73" d="M 2406 897 
Q 2406 1131 2229 1261 
Q 2053 1391 1614 1484 
Q 1175 1578 917 1709 
Q 659 1841 536 2022 
Q 413 2203 413 2453 
Q 413 2869 764 3156 
Q 1116 3444 1663 3444 
Q 2238 3444 2595 3147 
Q 2953 2850 2953 2388 
L 2372 2388 
Q 2372 2625 2170 2797 
Q 1969 2969 1663 2969 
Q 1347 2969 1169 2831 
Q 991 2694 991 2472 
Q 991 2263 1156 2156 
Q 1322 2050 1755 1953 
Q 2188 1856 2456 1722 
Q 2725 1588 2854 1398 
Q 2984 1209 2984 938 
Q 2984 484 2621 210 
Q 2259 -63 1681 -63 
Q 1275 -63 962 81 
Q 650 225 473 483 
Q 297 741 297 1041 
L 875 1041 
Q 891 750 1108 579 
Q 1325 409 1681 409 
Q 2009 409 2207 542 
Q 2406 675 2406 897 
z
" transform="scale(0.015625)"/>
      <path id="Roboto-Regular-39" d="M 2594 2000 
Q 2413 1784 2161 1653 
Q 1909 1522 1609 1522 
Q 1216 1522 923 1715 
Q 631 1909 472 2261 
Q 313 2613 313 3038 
Q 313 3494 486 3859 
Q 659 4225 978 4419 
Q 1297 4613 1722 4613 
Q 2397 4613 2786 4108 
Q 3175 3603 3175 2731 
L 3175 2563 
Q 3175 1234 2650 623 
Q 2125 13 1066 -3 
L 953 -3 
L 953 484 
L 1075 484 
Q 1791 497 2175 858 
Q 2559 1219 2594 2000 
z
M 1703 2000 
Q 1994 2000 2239 2178 
Q 2484 2356 2597 2619 
L 2597 2850 
Q 2597 3419 2350 3775 
Q 2103 4131 1725 4131 
Q 1344 4131 1112 3839 
Q 881 3547 881 3069 
Q 881 2603 1104 2301 
Q 1328 2000 1703 2000 
z
" transform="scale(0.015625)"/>
      <path id="Roboto-Regular-2c" d="M 419 -906 
L 91 -681 
Q 384 -272 397 163 
L 397 684 
L 963 684 
L 963 231 
Q 963 -84 808 -400 
Q 653 -716 419 -906 
z
" transform="scale(0.015625)"/>
      <path id="Roboto-Regular-4d" d="M 1303 4550 
L 2791 838 
L 4278 4550 
L 5056 4550 
L 5056 0 
L 4456 0 
L 4456 1772 
L 4513 3684 
L 3019 0 
L 2559 0 
L 1069 3675 
L 1128 1772 
L 1128 0 
L 528 0 
L 528 4550 
L 1303 4550 
z
" transform="scale(0.015625)"/>
     </defs>
     <use xlink:href="#Roboto-Regular-54"/>
     <use xlink:href="#Roboto-Regular-55" x="59.667969"/>
     <use xlink:href="#Roboto-Regular-48" x="124.511719"/>
     <use xlink:href="#Roboto-Regular-20" x="195.800781"/>
     <use xlink:href="#Roboto-Regular-53" x="220.556641"/>
     <use xlink:href="#Roboto-Regular-65" x="279.882812"/>
     <use xlink:href="#Roboto-Regular-69" x="332.861328"/>
     <use xlink:href="#Roboto-Regular-7a" x="357.128906"/>
     <use xlink:href="#Roboto-Regular-75" x="406.689453"/>
     <use xlink:href="#Roboto-Regular-72" x="461.816406"/>
     <use xlink:href="#Roboto-Regular-65" x="495.654297"/>
     <use xlink:href="#Roboto-Regular-3a" x="548.632812"/>
     <use xlink:href="#Roboto-Regular-20" x="572.851562"/>
     <use xlink:href="#Roboto-Regular-30" x="597.607422"/>
     <use xlink:href="#Roboto-Regular-30" x="653.759766"/>
     <use xlink:href="#Roboto-Regular-30" x="709.912109"/>
     <use xlink:href="#Roboto-Regular-30" x="766.064453"/>
     <use xlink:href="#Roboto-Regular-38" x="822.216797"/>
     <use xlink:href="#Roboto-Regular-35" x="878.369141"/>
     <use xlink:href="#Roboto-Regular-31" x="934.521484"/>
     <use xlink:href="#Roboto-Regular-32" x="990.673828"/>
     <use xlink:href="#Roboto-Regular-5f" x="1046.826172"/>
     <use xlink:href="#Roboto-Regular-73" x="1091.943359"/>
     <use xlink:href="#Roboto-Regular-30" x="1143.505859"/>
     <use xlink:href="#Roboto-Regular-30" x="1199.658203"/>
     <use xlink:href="#Roboto-Regular-39" x="1255.810547"/>
     <use xlink:href="#Roboto-Regular-2c" x="1311.962891"/>
     <use xlink:href="#Roboto-Regular-20" x="1331.591797"/>
     <use xlink:href="#Roboto-Regular-36" x="1356.347656"/>
     <use xlink:href="#Roboto-Regular-31" x="1412.5"/>
     <use xlink:href="#Roboto-Regular-4d" x="1468.652344"/>
    </g>
   </g>
   <g id="text_16">
    <!-- Fp1-F3 -->
    <g style="fill: #414242" transform="translate(568.522495 54.64125)scale(0.18 -0.18)">
     <defs>
      <path id="Roboto-Medium-46" d="M 3084 1928 
L 1253 1928 
L 1253 0 
L 463 0 
L 463 4550 
L 3353 4550 
L 3353 3913 
L 1253 3913 
L 1253 2559 
L 3084 2559 
L 3084 1928 
z
" transform="scale(0.015625)"/>
      <path id="Roboto-Medium-70" d="M 3350 1656 
Q 3350 872 2994 404 
Q 2638 -63 2038 -63 
Q 1481 -63 1147 303 
L 1147 -1300 
L 388 -1300 
L 388 3381 
L 1088 3381 
L 1119 3038 
Q 1453 3444 2028 3444 
Q 2647 3444 2998 2983 
Q 3350 2522 3350 1703 
L 3350 1656 
z
M 2594 1722 
Q 2594 2228 2392 2525 
Q 2191 2822 1816 2822 
Q 1350 2822 1147 2438 
L 1147 938 
Q 1353 544 1822 544 
Q 2184 544 2389 836 
Q 2594 1128 2594 1722 
z
" transform="scale(0.015625)"/>
      <path id="Roboto-Medium-31" d="M 2397 0 
L 1641 0 
L 1641 3653 
L 525 3272 
L 525 3913 
L 2300 4566 
L 2397 4566 
L 2397 0 
z
" transform="scale(0.015625)"/>
      <path id="Roboto-Medium-2d" d="M 1863 1628 
L 222 1628 
L 222 2241 
L 1863 2241 
L 1863 1628 
z
" transform="scale(0.015625)"/>
      <path id="Roboto-Medium-33" d="M 1219 2622 
L 1681 2622 
Q 2031 2625 2236 2803 
Q 2441 2981 2441 3319 
Q 2441 3644 2270 3823 
Q 2100 4003 1750 4003 
Q 1444 4003 1247 3826 
Q 1050 3650 1050 3366 
L 291 3366 
Q 291 3716 477 4003 
Q 663 4291 995 4452 
Q 1328 4613 1741 4613 
Q 2422 4613 2811 4270 
Q 3200 3928 3200 3319 
Q 3200 3013 3004 2742 
Q 2809 2472 2500 2334 
Q 2875 2206 3070 1931 
Q 3266 1656 3266 1275 
Q 3266 663 2845 300 
Q 2425 -63 1741 -63 
Q 1084 -63 665 287 
Q 247 638 247 1219 
L 1006 1219 
Q 1006 919 1207 731 
Q 1409 544 1750 544 
Q 2103 544 2306 731 
Q 2509 919 2509 1275 
Q 2509 1634 2296 1828 
Q 2084 2022 1666 2022 
L 1219 2022 
L 1219 2622 
z
" transform="scale(0.015625)"/>
     </defs>
     <use xlink:href="#Roboto-Medium-46"/>
     <use xlink:href="#Roboto-Medium-70" x="54.931641"/>
     <use xlink:href="#Roboto-Medium-31" x="111.230469"/>
     <use xlink:href="#Roboto-Medium-2d" x="168.066406"/>
     <use xlink:href="#Roboto-Medium-46" x="200.878906"/>
     <use xlink:href="#Roboto-Medium-33" x="255.810547"/>
    </g>
   </g>
   <g id="legend_1">
    <g id="patch_11">
     <path d="M 1062.459375 97.395937 
L 1134.2 97.395937 
Q 1136.2 97.395937 1136.2 95.395937 
L 1136.2 81.64125 
Q 1136.2 79.64125 1134.2 79.64125 
L 1062.459375 79.64125 
Q 1060.459375 79.64125 1060.459375 81.64125 
L 1060.459375 95.395937 
Q 1060.459375 97.395937 1062.459375 97.395937 
z
" style="fill: #ffffff; stroke: #cccccc; stroke-width: 0.3; stroke-linejoin: miter"/>
    </g>
    <g id="patch_12">
     <path d="M 1064.459375 90.64125 
L 1084.459375 90.64125 
L 1084.459375 83.64125 
L 1064.459375 83.64125 
z
" style="fill: #b2d9d5; opacity: 0.4; stroke: #b2d9d5; stroke-width: 0.3; stroke-linejoin: miter"/>
    </g>
    <g id="text_17">
     <!-- ﯽﻟﺎﻤﺘﺣﺍ ﮏﻠﭘ -->
     <g style="fill: #262626" transform="translate(1092.459375 90.64125)scale(0.1 -0.1)">
      <defs>
       <path id="BNazanin-fbfd" d="M 4075 3 
L 3163 3 
Q 2994 3 2838 -50 
Q 2622 -122 2622 -253 
Q 2622 -284 3198 -412 
Q 3775 -541 3775 -666 
Q 3775 -1138 3503 -1369 
Q 3044 -1763 1884 -1763 
Q 484 -1763 484 -728 
Q 484 -494 584 -208 
Q 684 78 828 266 
Q 884 341 931 344 
Q 978 347 978 294 
Q 978 247 941 175 
Q 759 -169 759 -538 
Q 759 -947 1147 -1144 
Q 1444 -1294 1900 -1294 
Q 2384 -1294 2788 -1244 
Q 3513 -1153 3513 -934 
Q 3513 -844 3197 -791 
Q 2694 -706 2616 -684 
Q 2300 -597 2300 -416 
Q 2300 -272 2453 -56 
Q 2581 122 2722 238 
Q 3003 466 3522 466 
L 4075 466 
L 4075 3 
z
" transform="scale(0.015625)"/>
       <path id="BNazanin-fee4" d="M 2947 3 
L 2688 3 
Q 2406 3 2109 334 
Q 1944 -159 1734 -159 
Q 1541 -159 1194 38 
Q 884 213 759 353 
Q 478 3 163 3 
L -81 3 
L -81 466 
L 175 466 
Q 450 466 706 697 
Q 866 878 1094 1125 
Q 1306 1356 1491 1356 
Q 1719 1356 1906 1125 
Q 2000 1006 2247 697 
Q 2438 466 2688 466 
L 2947 466 
L 2947 3 
z
M 1869 334 
Q 1888 516 1766 725 
Q 1628 963 1425 963 
Q 1219 963 981 656 
Q 1047 572 1322 428 
Q 1619 272 1800 266 
Q 1863 263 1869 334 
z
" transform="scale(0.015625)"/>
       <path id="BNazanin-fe98" d="M 2050 3 
L 1744 3 
Q 1191 3 1003 366 
Q 797 3 178 3 
L -81 3 
L -81 466 
L 275 466 
Q 859 466 913 919 
Q 934 1100 1003 1100 
Q 1072 1100 1091 913 
Q 1131 466 1697 466 
L 2050 466 
L 2050 3 
z
M 1378 2325 
L 1072 2019 
L 759 2328 
L 1069 2638 
L 1378 2325 
z
M 694 2325 
L 384 2019 
L 75 2328 
L 381 2638 
L 694 2325 
z
" transform="scale(0.015625)"/>
       <path id="BNazanin-fea3" d="M 3203 1166 
L 3028 853 
Q 2581 859 2403 794 
Q 2163 703 1678 463 
Q 1209 228 953 138 
Q 575 3 203 3 
L -81 3 
L -81 466 
L 219 466 
Q 775 466 1197 650 
L 2128 1056 
Q 1906 1106 1419 1288 
Q 1016 1438 897 1438 
Q 666 1438 425 1234 
Q 378 1194 341 1194 
Q 300 1194 300 1247 
Q 300 1269 313 1306 
Q 509 1884 984 1884 
Q 1153 1884 1444 1753 
Q 1931 1534 2169 1453 
Q 2578 1316 3144 1278 
Q 3244 1272 3244 1253 
Q 3244 1238 3203 1166 
z
" transform="scale(0.015625)"/>
       <path id="BNazanin-fb8f" d="M 5503 3 
L 5213 3 
Q 4909 3 4581 341 
Q 4406 519 4113 953 
Q 4122 541 3941 334 
Q 3638 -13 2759 -13 
L 1950 -13 
Q 484 -13 484 819 
Q 484 1119 678 1434 
Q 728 1516 775 1516 
Q 813 1516 813 1466 
Q 813 1434 797 1397 
Q 709 1181 709 1050 
Q 709 831 925 675 
Q 1234 450 1897 450 
L 2681 450 
Q 3353 450 3606 534 
Q 3903 634 3903 913 
Q 3903 1153 3625 1494 
Q 3463 1694 3103 2031 
Q 2825 2294 2825 2322 
Q 2825 2719 2956 2900 
Q 2984 2941 3788 3234 
Q 4625 3541 5188 3709 
Q 5188 3622 5072 3263 
Q 4413 3059 3113 2575 
Q 3691 2047 4478 1022 
Q 4763 650 4944 547 
Q 5084 466 5338 466 
L 5503 466 
L 5503 3 
z
" transform="scale(0.015625)"/>
       <path id="BNazanin-fee0" d="M 1559 3 
L 1397 3 
Q 878 3 681 384 
Q 628 213 438 103 
Q 266 3 72 3 
L -81 3 
L -81 466 
L 78 466 
Q 575 466 575 881 
L 575 2266 
Q 575 3056 541 3478 
L 881 3766 
L 881 1075 
Q 881 466 1400 466 
L 1559 466 
L 1559 3 
z
" transform="scale(0.015625)"/>
       <path id="BNazanin-fb58" d="M 1038 797 
Q 1038 3 247 3 
L -81 3 
L -81 466 
L 191 466 
Q 788 466 788 681 
Q 788 831 516 1178 
L 678 1572 
Q 703 1631 719 1631 
Q 734 1631 784 1559 
Q 1038 1188 1038 797 
z
M 447 -1409 
L 738 -1119 
L 1031 -1413 
L 741 -1703 
L 447 -1409 
z
M 84 -784 
L 381 -494 
L 675 -788 
L 381 -1078 
L 84 -784 
z
M 797 -784 
L 1091 -494 
L 1388 -788 
L 1094 -1078 
L 797 -784 
z
" transform="scale(0.015625)"/>
      </defs>
      <use xlink:href="#BNazanin-fbfd"/>
      <use xlink:href="#BNazanin-fedf" x="62.353516"/>
      <use xlink:href="#BNazanin-fe8e" x="78.369141"/>
      <use xlink:href="#BNazanin-fee4" x="101.806641"/>
      <use xlink:href="#BNazanin-fe98" x="146.533203"/>
      <use xlink:href="#BNazanin-fea3" x="177.294922"/>
      <use xlink:href="#BNazanin-fe8d" x="227.978516"/>
      <use xlink:href="#BNazanin-20" x="242.675781"/>
      <use xlink:href="#BNazanin-fb8f" x="267.089844"/>
      <use xlink:href="#BNazanin-fee0" x="351.806641"/>
      <use xlink:href="#BNazanin-fb58" x="374.902344"/>
     </g>
    </g>
   </g>
  </g>
  <g id="axes_2">
   <g id="patch_13">
    <path d="M 52.125928 593.06 
L 1141.2 593.06 
L 1141.2 378.160625 
L 52.125928 378.160625 
z
" style="fill: #eaeaf2"/>
   </g>
   <g id="matplotlib.axis_3">
    <g id="xtick_7">
     <g id="line2d_24">
      <path d="M 101.629295 593.06 
L 101.629295 378.160625 
" clip-path="url(#p504e7ce9f8)" style="fill: none; stroke: #ffffff; stroke-linecap: round"/>
     </g>
     <g id="line2d_25"/>
     <g id="text_18">
      <!-- 0 -->
      <g style="fill: #262626" transform="translate(98.821482 607.56)scale(0.1 -0.1)">
       <use xlink:href="#Roboto-Regular-30"/>
      </g>
     </g>
    </g>
    <g id="xtick_8">
     <g id="line2d_26">
      <path d="M 304.476224 593.06 
L 304.476224 378.160625 
" clip-path="url(#p504e7ce9f8)" style="fill: none; stroke: #ffffff; stroke-linecap: round"/>
     </g>
     <g id="line2d_27"/>
     <g id="text_19">
      <!-- 2 -->
      <g style="fill: #262626" transform="translate(301.668412 607.56)scale(0.1 -0.1)">
       <use xlink:href="#Roboto-Regular-32"/>
      </g>
     </g>
    </g>
    <g id="xtick_9">
     <g id="line2d_28">
      <path d="M 507.323154 593.06 
L 507.323154 378.160625 
" clip-path="url(#p504e7ce9f8)" style="fill: none; stroke: #ffffff; stroke-linecap: round"/>
     </g>
     <g id="line2d_29"/>
     <g id="text_20">
      <!-- 4 -->
      <g style="fill: #262626" transform="translate(504.515342 607.56)scale(0.1 -0.1)">
       <use xlink:href="#Roboto-Regular-34"/>
      </g>
     </g>
    </g>
    <g id="xtick_10">
     <g id="line2d_30">
      <path d="M 710.170084 593.06 
L 710.170084 378.160625 
" clip-path="url(#p504e7ce9f8)" style="fill: none; stroke: #ffffff; stroke-linecap: round"/>
     </g>
     <g id="line2d_31"/>
     <g id="text_21">
      <!-- 6 -->
      <g style="fill: #262626" transform="translate(707.362271 607.56)scale(0.1 -0.1)">
       <use xlink:href="#Roboto-Regular-36"/>
      </g>
     </g>
    </g>
    <g id="xtick_11">
     <g id="line2d_32">
      <path d="M 913.017013 593.06 
L 913.017013 378.160625 
" clip-path="url(#p504e7ce9f8)" style="fill: none; stroke: #ffffff; stroke-linecap: round"/>
     </g>
     <g id="line2d_33"/>
     <g id="text_22">
      <!-- 8 -->
      <g style="fill: #262626" transform="translate(910.209201 607.56)scale(0.1 -0.1)">
       <use xlink:href="#Roboto-Regular-38"/>
      </g>
     </g>
    </g>
    <g id="xtick_12">
     <g id="line2d_34">
      <path d="M 1115.863943 593.06 
L 1115.863943 378.160625 
" clip-path="url(#p504e7ce9f8)" style="fill: none; stroke: #ffffff; stroke-linecap: round"/>
     </g>
     <g id="line2d_35"/>
     <g id="text_23">
      <!-- 10 -->
      <g style="fill: #262626" transform="translate(1110.248318 607.56)scale(0.1 -0.1)">
       <use xlink:href="#Roboto-Regular-31"/>
       <use xlink:href="#Roboto-Regular-30" x="56.152344"/>
      </g>
     </g>
    </g>
    <g id="text_24">
     <!-- (ﻪﯿﻧﺎﺛ) ﻥﺎﻣﺯ -->
     <g style="fill: #056385" transform="translate(571.761558 632.8775)scale(0.14 -0.14)">
      <use xlink:href="#BNazanin-28"/>
      <use xlink:href="#BNazanin-feea" x="28.125"/>
      <use xlink:href="#BNazanin-fbff" x="69.628906"/>
      <use xlink:href="#BNazanin-fee7" x="100.390625"/>
      <use xlink:href="#BNazanin-fe8e" x="116.650391"/>
      <use xlink:href="#BNazanin-fe9b" x="140.087891"/>
      <use xlink:href="#BNazanin-29" x="161.230469"/>
      <use xlink:href="#BNazanin-20" x="189.355469"/>
      <use xlink:href="#BNazanin-fee5" x="213.769531"/>
      <use xlink:href="#BNazanin-fe8e" x="268.359375"/>
      <use xlink:href="#BNazanin-fee3" x="291.796875"/>
      <use xlink:href="#BNazanin-feaf" x="324.121094"/>
     </g>
    </g>
   </g>
   <g id="matplotlib.axis_4">
    <g id="ytick_6">
     <g id="line2d_36">
      <path d="M 52.125928 571.570062 
L 1141.2 571.570062 
" clip-path="url(#p504e7ce9f8)" style="fill: none; stroke: #ffffff; stroke-linecap: round"/>
     </g>
     <g id="line2d_37"/>
     <g id="text_25">
      <!-- $\mathdefault{−2}$ -->
      <g style="fill: #262626" transform="translate(33.725928 575.320062)scale(0.1 -0.1)">
       <use xlink:href="#Roboto-Regular-2212" transform="translate(0 0.921875)"/>
       <use xlink:href="#Roboto-Regular-32" transform="translate(57.128906 0.921875)"/>
      </g>
     </g>
    </g>
    <g id="ytick_7">
     <g id="line2d_38">
      <path d="M 52.125928 528.590187 
L 1141.2 528.590187 
" clip-path="url(#p504e7ce9f8)" style="fill: none; stroke: #ffffff; stroke-linecap: round"/>
     </g>
     <g id="line2d_39"/>
     <g id="text_26">
      <!-- $\mathdefault{−1}$ -->
      <g style="fill: #262626" transform="translate(33.725928 532.340187)scale(0.1 -0.1)">
       <use xlink:href="#Roboto-Regular-2212" transform="translate(0 0.5625)"/>
       <use xlink:href="#Roboto-Regular-31" transform="translate(57.128906 0.5625)"/>
      </g>
     </g>
    </g>
    <g id="ytick_8">
     <g id="line2d_40">
      <path d="M 52.125928 485.610312 
L 1141.2 485.610312 
" clip-path="url(#p504e7ce9f8)" style="fill: none; stroke: #ffffff; stroke-linecap: round"/>
     </g>
     <g id="line2d_41"/>
     <g id="text_27">
      <!-- $\mathdefault{0}$ -->
      <g style="fill: #262626" transform="translate(39.425928 489.360312)scale(0.1 -0.1)">
       <use xlink:href="#Roboto-Regular-30" transform="translate(0 0.921875)"/>
      </g>
     </g>
    </g>
    <g id="ytick_9">
     <g id="line2d_42">
      <path d="M 52.125928 442.630437 
L 1141.2 442.630437 
" clip-path="url(#p504e7ce9f8)" style="fill: none; stroke: #ffffff; stroke-linecap: round"/>
     </g>
     <g id="line2d_43"/>
     <g id="text_28">
      <!-- $\mathdefault{1}$ -->
      <g style="fill: #262626" transform="translate(39.425928 446.380437)scale(0.1 -0.1)">
       <use xlink:href="#Roboto-Regular-31" transform="translate(0 0.5625)"/>
      </g>
     </g>
    </g>
    <g id="ytick_10">
     <g id="line2d_44">
      <path d="M 52.125928 399.650562 
L 1141.2 399.650562 
" clip-path="url(#p504e7ce9f8)" style="fill: none; stroke: #ffffff; stroke-linecap: round"/>
     </g>
     <g id="line2d_45"/>
     <g id="text_29">
      <!-- $\mathdefault{2}$ -->
      <g style="fill: #262626" transform="translate(39.425928 403.400562)scale(0.1 -0.1)">
       <use xlink:href="#Roboto-Regular-32" transform="translate(0 0.921875)"/>
      </g>
     </g>
    </g>
    <g id="text_30">
     <!-- (ﺖﻟﻭ) ﻩﺯﺍﺪﻧﺍ -->
     <g style="fill: #056385" transform="translate(20.26749 510.712969)rotate(-90)scale(0.14 -0.14)">
      <use xlink:href="#BNazanin-28"/>
      <use xlink:href="#BNazanin-fe96" x="28.125"/>
      <use xlink:href="#BNazanin-fedf" x="101.904297"/>
      <use xlink:href="#BNazanin-feed" x="117.919922"/>
      <use xlink:href="#BNazanin-29" x="150.097656"/>
      <use xlink:href="#BNazanin-20" x="178.222656"/>
      <use xlink:href="#BNazanin-fee9" x="202.636719"/>
      <use xlink:href="#BNazanin-feaf" x="233.935547"/>
      <use xlink:href="#BNazanin-fe8d" x="265.527344"/>
      <use xlink:href="#BNazanin-feaa" x="280.224609"/>
      <use xlink:href="#BNazanin-fee7" x="327.636719"/>
      <use xlink:href="#BNazanin-fe8d" x="343.896484"/>
     </g>
    </g>
    <g id="text_31">
     <!-- $\times\mathdefault{10^{−5}}\mathdefault{}$ -->
     <g style="fill: #262626" transform="translate(52.125928 375.160625)scale(0.1 -0.1)">
      <use xlink:href="#DejaVuSans-d7" transform="translate(0 0.254688)"/>
      <use xlink:href="#Roboto-Regular-31" transform="translate(83.789062 0.254688)"/>
      <use xlink:href="#Roboto-Regular-30" transform="translate(139.941406 0.254688)"/>
      <use xlink:href="#Roboto-Regular-2212" transform="translate(197.018242 37.234375)scale(0.7)"/>
      <use xlink:href="#Roboto-Regular-35" transform="translate(237.008477 37.234375)scale(0.7)"/>
     </g>
    </g>
   </g>
   <g id="patch_14">
    <path d="M 835.93518 593.06 
L 835.93518 378.160625 
L 870.419158 378.160625 
L 870.419158 593.06 
z
" clip-path="url(#p504e7ce9f8)" style="fill: #b2d9d5; opacity: 0.4; stroke: #b2d9d5; stroke-width: 0.3; stroke-linejoin: miter"/>
   </g>
   <g id="patch_15">
    <path d="M 925.187829 593.06 
L 925.187829 378.160625 
L 976.913796 378.160625 
L 976.913796 593.06 
z
" clip-path="url(#p504e7ce9f8)" style="fill: #b2d9d5; opacity: 0.4; stroke: #b2d9d5; stroke-width: 0.3; stroke-linejoin: miter"/>
   </g>
   <g id="patch_16">
    <path d="M 577.305345 593.06 
L 577.305345 378.160625 
L 620.917435 378.160625 
L 620.917435 593.06 
z
" clip-path="url(#p504e7ce9f8)" style="fill: #b2d9d5; opacity: 0.4; stroke: #b2d9d5; stroke-width: 0.3; stroke-linejoin: miter"/>
   </g>
   <g id="patch_17">
    <path d="M 201.02429 593.06 
L 201.02429 378.160625 
L 240.579441 378.160625 
L 240.579441 593.06 
z
" clip-path="url(#p504e7ce9f8)" style="fill: #b2d9d5; opacity: 0.4; stroke: #b2d9d5; stroke-width: 0.3; stroke-linejoin: miter"/>
   </g>
   <g id="line2d_46">
    <path d="M 101.629295 469.66085 
L 104.006407 469.156657 
L 106.779705 468.567946 
L 108.364447 468.507757 
L 109.553003 468.693699 
L 110.741559 469.10815 
L 111.930115 469.746202 
L 113.514857 470.875908 
L 117.476711 473.933358 
L 118.665267 474.551506 
L 119.853823 474.918639 
L 121.04238 475.024233 
L 122.230936 474.900255 
L 124.211863 474.395963 
L 125.796605 474.027709 
L 126.985161 473.968829 
L 127.777532 474.096608 
L 128.569903 474.38796 
L 129.362273 474.85868 
L 130.55083 475.909453 
L 131.739386 477.342114 
L 133.324127 479.687024 
L 136.097425 483.982721 
L 137.285982 485.452946 
L 138.078352 486.196772 
L 138.870723 486.715533 
L 139.663094 486.99139 
L 140.455465 487.01931 
L 141.247836 486.807292 
L 142.040206 486.375769 
L 143.228763 485.388319 
L 144.813504 483.665676 
L 147.190617 481.019261 
L 148.379173 480.004148 
L 149.567729 479.344095 
L 150.3601 479.130345 
L 151.152471 479.103618 
L 151.944842 479.258559 
L 153.133398 479.799999 
L 154.321954 480.645352 
L 155.906696 482.081426 
L 159.472364 485.481029 
L 161.057106 486.657785 
L 162.245662 487.321586 
L 163.434219 487.78957 
L 164.622775 488.070845 
L 166.207516 488.18688 
L 167.792258 488.04889 
L 169.377 487.686014 
L 170.961741 487.098093 
L 172.546483 486.25858 
L 174.131225 485.131882 
L 175.715966 483.699809 
L 177.696893 481.528265 
L 182.054933 476.484954 
L 183.243489 475.491914 
L 184.432045 474.843065 
L 185.224416 474.634148 
L 186.016787 474.61578 
L 186.809158 474.787659 
L 187.601529 475.139702 
L 188.790085 475.96016 
L 190.374826 477.433582 
L 193.148124 480.165929 
L 194.33668 481.074241 
L 195.525237 481.713943 
L 196.713793 482.078745 
L 197.902349 482.222186 
L 200.675647 482.395948 
L 201.468018 482.635215 
L 202.260389 483.065727 
L 203.052759 483.745931 
L 203.84513 484.730533 
L 204.637501 486.068094 
L 205.429872 487.79882 
L 206.222243 489.952635 
L 207.410799 494.012597 
L 208.599355 499.067091 
L 209.787911 505.050464 
L 211.372653 514.22741 
L 214.542136 534.589025 
L 216.523063 546.534634 
L 217.71162 552.58885 
L 218.900176 557.411433 
L 219.692547 559.810761 
L 220.484918 561.489043 
L 220.881103 562.04555 
L 221.277288 562.409781 
L 221.673474 562.580578 
L 222.069659 562.558176 
L 222.465845 562.344171 
L 222.86203 561.941479 
L 223.654401 560.587799 
L 224.446772 558.543403 
L 225.239142 555.86869 
L 226.427699 550.828119 
L 227.616255 544.771629 
L 229.200997 535.498415 
L 231.181924 522.499253 
L 233.559036 505.258228 
L 236.332334 483.192732 
L 239.898003 454.414638 
L 241.482744 443.468708 
L 242.6713 436.82312 
L 243.463671 433.328192 
L 244.256042 430.666357 
L 245.048413 428.878151 
L 245.444598 428.315551 
L 245.840784 427.971859 
L 246.236969 427.842903 
L 246.633155 427.922491 
L 247.02934 428.202503 
L 247.425525 428.673014 
L 248.217896 430.137719 
L 249.010267 432.207396 
L 250.198823 436.167367 
L 252.17975 443.913489 
L 254.160677 451.410729 
L 255.349234 455.200817 
L 256.53779 458.277931 
L 257.726346 460.636476 
L 258.914902 462.374641 
L 260.103458 463.663728 
L 264.461498 467.73701 
L 266.04624 469.842623 
L 268.423352 473.563271 
L 270.008094 475.916881 
L 271.19665 477.305736 
L 271.989021 477.958897 
L 272.781392 478.350828 
L 273.573762 478.460192 
L 274.366133 478.281974 
L 275.158504 477.828554 
L 275.950875 477.129544 
L 277.139431 475.723717 
L 280.7051 471.040563 
L 281.497471 470.36285 
L 282.289841 469.946515 
L 283.082212 469.82735 
L 283.874583 470.024117 
L 284.666954 470.537744 
L 285.459325 471.351694 
L 286.647881 473.060769 
L 288.232623 475.982195 
L 291.402106 482.146046 
L 292.590662 483.968594 
L 293.779218 485.321491 
L 294.571589 485.939418 
L 295.36396 486.333017 
L 296.156331 486.518115 
L 296.948702 486.520533 
L 298.137258 486.256797 
L 300.118185 485.443109 
L 301.702926 484.828195 
L 302.891483 484.575517 
L 304.080039 484.594239 
L 305.268595 484.925682 
L 306.457151 485.569004 
L 307.645708 486.482402 
L 309.626635 488.382106 
L 312.003747 490.643884 
L 313.192303 491.487374 
L 314.38086 491.99841 
L 315.17323 492.11529 
L 315.965601 492.034593 
L 316.757972 491.748347 
L 317.550343 491.256396 
L 318.738899 490.153464 
L 319.927455 488.675339 
L 321.908382 485.710575 
L 323.889309 482.836972 
L 325.077866 481.567559 
L 325.870236 481.042171 
L 326.662607 480.835776 
L 327.454978 480.988193 
L 328.247349 481.523274 
L 329.03972 482.446233 
L 329.832091 483.742104 
L 331.020647 486.302543 
L 332.605388 490.539229 
L 335.378686 498.307537 
L 336.567243 501.002666 
L 337.359613 502.410265 
L 338.151984 503.45721 
L 338.944355 504.124454 
L 339.736726 504.414234 
L 340.529097 504.349125 
L 341.321467 503.96983 
L 342.113838 503.331939 
L 343.302394 502.037579 
L 346.075692 498.723424 
L 347.264249 497.714237 
L 348.056619 497.29896 
L 348.84899 497.11853 
L 349.641361 497.180778 
L 350.433732 497.478678 
L 351.226103 497.991207 
L 352.414659 499.085917 
L 354.395586 501.368548 
L 355.980328 503.075454 
L 357.168884 503.968099 
L 357.961255 504.27848 
L 358.753625 504.312235 
L 359.545996 504.040222 
L 360.338367 503.446418 
L 361.130738 502.528885 
L 361.923109 501.300048 
L 363.111665 498.934241 
L 364.696407 495.037836 
L 368.658261 484.599002 
L 369.846817 482.118487 
L 371.035373 480.209457 
L 371.827744 479.289216 
L 372.620115 478.65795 
L 373.412486 478.309204 
L 374.204856 478.22701 
L 374.997227 478.387757 
L 375.789598 478.762265 
L 376.978154 479.652867 
L 378.166711 480.835151 
L 380.543823 483.631793 
L 382.920935 486.357487 
L 384.505677 487.801806 
L 385.694233 488.562485 
L 386.486604 488.879406 
L 387.278975 489.025756 
L 388.071346 488.990446 
L 388.863717 488.767926 
L 389.656087 488.359357 
L 390.844644 487.419242 
L 392.0332 486.147307 
L 394.014127 483.596008 
L 395.995054 481.119857 
L 397.18361 479.992245 
L 397.975981 479.482124 
L 398.768352 479.203776 
L 399.560723 479.177765 
L 400.353093 479.411706 
L 401.145464 479.899346 
L 401.937835 480.620508 
L 403.126391 482.064105 
L 405.107318 485.017779 
L 406.69206 487.333772 
L 407.880616 488.728968 
L 408.672987 489.403168 
L 409.465358 489.831582 
L 410.257729 489.993993 
L 411.0501 489.884753 
L 411.84247 489.512996 
L 412.634841 488.901962 
L 413.823397 487.618098 
L 415.408139 485.482748 
L 417.389066 482.781619 
L 418.577622 481.47778 
L 419.369993 480.834067 
L 420.162364 480.405784 
L 420.954735 480.209494 
L 421.747106 480.249178 
L 422.539476 480.51642 
L 423.331847 480.991231 
L 424.520403 482.024311 
L 426.105145 483.782933 
L 428.482258 486.456731 
L 429.670814 487.468669 
L 430.463185 487.93492 
L 431.255555 488.202851 
L 432.047926 488.254616 
L 432.840297 488.080838 
L 433.632668 487.680374 
L 434.425039 487.059716 
L 435.613595 485.746348 
L 436.802151 484.035504 
L 438.386893 481.285142 
L 440.764005 476.606356 
L 443.933488 470.395763 
L 445.51823 467.670227 
L 447.102972 465.380841 
L 448.291528 464.030144 
L 449.480084 463.056101 
L 450.272455 462.642299 
L 451.064826 462.432819 
L 451.857197 462.437891 
L 452.649568 462.663537 
L 453.441938 463.110563 
L 454.234309 463.773758 
L 455.422865 465.146332 
L 456.611422 466.909526 
L 458.196163 469.692805 
L 461.761832 476.222622 
L 462.950388 477.985816 
L 464.138944 479.346879 
L 464.931315 479.993631 
L 465.723686 480.417345 
L 466.516057 480.615216 
L 467.308428 480.593206 
L 468.100798 480.365814 
L 468.893169 479.955487 
L 470.081726 479.063049 
L 472.062653 477.151523 
L 474.04358 475.279006 
L 475.232136 474.438079 
L 476.024507 474.065993 
L 476.816877 473.874297 
L 477.609248 473.880294 
L 478.401619 474.093402 
L 479.19399 474.514765 
L 479.986361 475.137142 
L 481.174917 476.411691 
L 482.363473 478.018102 
L 484.740586 481.740313 
L 486.721513 484.680209 
L 487.910069 486.085735 
L 489.098625 487.091711 
L 489.890996 487.508083 
L 490.683367 487.71192 
L 491.475738 487.706457 
L 492.268108 487.504558 
L 493.456665 486.882851 
L 494.645221 485.972028 
L 499.399446 481.881952 
L 500.588002 481.221489 
L 501.776558 480.774513 
L 503.3613 480.44754 
L 507.719339 479.840305 
L 509.304081 479.270618 
L 510.888823 478.427831 
L 513.265935 476.83329 
L 515.643048 475.305675 
L 516.831604 474.749506 
L 518.02016 474.416886 
L 519.208716 474.355636 
L 520.397273 474.598459 
L 521.585829 475.162793 
L 522.774385 476.05133 
L 523.962941 477.252672 
L 525.151497 478.7419 
L 526.736239 481.107964 
L 528.717166 484.495536 
L 532.67902 491.404785 
L 534.263762 493.661346 
L 535.452318 494.997592 
L 536.640874 495.987689 
L 537.829431 496.642352 
L 539.017987 497.0283 
L 541.791285 497.707975 
L 542.583655 498.124636 
L 543.376026 498.770998 
L 544.168397 499.7163 
L 544.960768 501.020878 
L 545.753139 502.730875 
L 546.54551 504.873351 
L 547.734066 508.899596 
L 548.922622 513.804813 
L 550.903549 523.252139 
L 553.280662 534.455222 
L 554.469218 538.968638 
L 555.261589 541.307227 
L 556.053959 543.0113 
L 556.84633 544.027093 
L 557.242516 544.267992 
L 557.638701 544.329735 
L 558.034886 544.213589 
L 558.431072 543.9224 
L 559.223443 542.833346 
L 560.015813 541.111318 
L 560.808184 538.819918 
L 561.996741 534.474826 
L 563.185297 529.265645 
L 564.770038 521.380251 
L 567.543336 506.216716 
L 571.50519 484.625251 
L 573.089932 477.127323 
L 574.278488 472.363204 
L 575.467044 468.569742 
L 576.259415 466.674576 
L 577.051786 465.340967 
L 577.844157 464.60288 
L 578.240342 464.464036 
L 578.636528 464.480442 
L 579.032713 464.652191 
L 579.428899 464.978346 
L 580.221269 466.084953 
L 581.01364 467.772162 
L 581.806011 469.995999 
L 582.994567 474.206274 
L 584.579309 481.051467 
L 589.729719 504.685226 
L 590.918275 508.756999 
L 592.106832 511.88707 
L 592.899202 513.405158 
L 593.691573 514.455192 
L 594.483944 515.039288 
L 595.276315 515.170255 
L 596.068686 514.870304 
L 596.861057 514.169644 
L 597.653427 513.105007 
L 598.445798 511.718138 
L 599.634354 509.133147 
L 601.219096 504.993153 
L 603.992394 496.85772 
L 606.765692 488.915487 
L 608.746619 483.872824 
L 610.727546 479.466584 
L 612.708473 475.654159 
L 614.6894 472.377298 
L 616.274142 470.152188 
L 617.858883 468.34924 
L 619.04744 467.33778 
L 620.235996 466.673036 
L 621.028367 466.443102 
L 621.820737 466.392977 
L 622.613108 466.524777 
L 623.405479 466.834401 
L 624.594035 467.606707 
L 625.782591 468.688575 
L 627.763519 470.914408 
L 630.140631 473.60307 
L 631.329187 474.680558 
L 632.517743 475.457028 
L 633.7063 475.880214 
L 634.49867 475.958834 
L 635.687227 475.790955 
L 636.875783 475.339044 
L 638.85671 474.241177 
L 640.441452 473.406616 
L 641.630008 473.017402 
L 642.422379 472.935316 
L 643.214749 473.025204 
L 644.00712 473.303723 
L 644.799491 473.778627 
L 645.591862 474.448625 
L 646.780418 475.795432 
L 647.968974 477.49147 
L 649.949901 480.827402 
L 653.119385 486.299444 
L 654.704126 488.547485 
L 655.892683 489.852426 
L 657.081239 490.767327 
L 657.87361 491.143609 
L 658.66598 491.328233 
L 659.458351 491.322986 
L 660.250722 491.134995 
L 661.439278 490.538961 
L 662.627835 489.623669 
L 664.212576 488.053613 
L 668.17443 483.838367 
L 669.362987 482.861442 
L 670.551543 482.125211 
L 671.740099 481.65245 
L 672.928655 481.44334 
L 674.117211 481.480745 
L 675.305768 481.736881 
L 676.890509 482.363004 
L 678.475251 483.245574 
L 680.456178 484.603035 
L 686.795145 489.194113 
L 688.379886 489.958011 
L 689.568442 490.330092 
L 690.756999 490.50156 
L 691.945555 490.451288 
L 693.134111 490.161386 
L 694.322667 489.615998 
L 695.511224 488.800246 
L 696.69978 487.700068 
L 697.888336 486.303812 
L 699.076892 484.606119 
L 700.661634 481.888246 
L 702.246376 478.72221 
L 707.396786 467.87366 
L 708.585342 466.034616 
L 709.377713 465.098802 
L 710.170084 464.428327 
L 710.962455 464.041059 
L 711.754825 463.944143 
L 712.547196 464.133559 
L 713.339567 464.594435 
L 714.131938 465.302089 
L 715.320494 466.752831 
L 716.905236 469.201921 
L 722.055646 477.747049 
L 724.036573 480.426996 
L 726.413685 483.225544 
L 729.186983 486.131679 
L 730.771725 487.542306 
L 731.960281 488.37599 
L 733.148837 488.933601 
L 733.941208 489.117707 
L 734.733579 489.133685 
L 735.52595 488.973021 
L 736.318321 488.634633 
L 737.506877 487.810905 
L 738.695433 486.659196 
L 740.280175 484.763779 
L 745.0344 478.789311 
L 747.015327 476.796427 
L 752.561923 471.53459 
L 756.523777 467.269799 
L 757.712333 466.359208 
L 758.504704 465.972363 
L 759.297074 465.804915 
L 760.089445 465.885536 
L 760.881816 466.232525 
L 761.674187 466.851926 
L 762.466558 467.736545 
L 763.655114 469.512696 
L 764.84367 471.718293 
L 767.616968 477.577973 
L 769.20171 480.692733 
L 770.390266 482.658642 
L 771.578822 484.22561 
L 772.767378 485.380211 
L 773.955935 486.156357 
L 775.144491 486.620355 
L 776.333047 486.853259 
L 777.917789 486.939787 
L 781.087272 486.813927 
L 783.86057 486.508689 
L 785.445312 486.098204 
L 786.633868 485.571374 
L 787.822424 484.780418 
L 789.01098 483.661007 
L 790.199536 482.166777 
L 791.388093 480.285908 
L 792.972834 477.257128 
L 796.142318 470.81316 
L 796.934688 469.588663 
L 797.727059 468.730907 
L 798.123245 468.476185 
L 798.51943 468.356973 
L 798.915615 468.387354 
L 799.311801 468.580755 
L 799.707986 468.949694 
L 800.104172 469.505534 
L 800.896542 471.216123 
L 801.688913 473.771192 
L 802.481284 477.196427 
L 803.273655 481.479214 
L 804.462211 489.381483 
L 806.046953 502.070038 
L 810.008807 535.470327 
L 811.197363 543.214955 
L 811.989734 547.314589 
L 812.782105 550.478886 
L 813.574476 552.686718 
L 814.366846 553.960157 
L 814.763032 554.263811 
L 815.159217 554.358642 
L 815.555403 554.256531 
L 815.951588 553.970538 
L 816.743959 552.903022 
L 817.53633 551.271358 
L 818.724886 548.010614 
L 820.309628 542.633038 
L 822.290555 534.890189 
L 824.271482 526.188936 
L 826.252409 516.278323 
L 828.233336 505.020334 
L 832.987561 477.037368 
L 834.176117 471.750952 
L 834.968488 469.028164 
L 835.760859 467.057292 
L 836.553229 465.90546 
L 836.949415 465.649497 
L 837.3456 465.609585 
L 837.741786 465.785123 
L 838.137971 466.173356 
L 838.534156 466.7694 
L 839.326527 468.555092 
L 840.118898 471.063374 
L 841.307454 475.94205 
L 842.892196 483.820606 
L 845.665494 498.069505 
L 846.85405 503.18964 
L 848.042606 507.246776 
L 848.834977 509.271121 
L 849.627348 510.722685 
L 850.419719 511.601737 
L 850.815904 511.831982 
L 851.212089 511.927724 
L 851.608275 511.893874 
L 852.400646 511.460844 
L 853.193017 510.585805 
L 853.985387 509.328776 
L 855.173944 506.866491 
L 856.758685 502.837541 
L 860.324354 492.694596 
L 862.701466 486.282755 
L 865.078579 480.560987 
L 867.059506 476.335513 
L 869.040433 472.575097 
L 871.02136 469.249849 
L 873.398472 465.722971 
L 877.360327 460.022996 
L 879.341254 456.681129 
L 881.718366 452.084272 
L 884.095478 447.461832 
L 885.284035 445.532548 
L 886.076406 444.51697 
L 886.868776 443.781488 
L 887.661147 443.373702 
L 888.453518 443.331787 
L 889.245889 443.682143 
L 890.03826 444.437814 
L 890.83063 445.597769 
L 891.623001 447.147079 
L 892.811557 450.137161 
L 894.000114 453.799797 
L 895.584855 459.422217 
L 900.735266 478.480594 
L 902.320007 483.27718 
L 903.508564 486.283465 
L 904.69712 488.709579 
L 905.885676 490.502026 
L 906.678047 491.324091 
L 907.470418 491.837868 
L 908.262788 492.039696 
L 909.055159 491.931572 
L 909.84753 491.522458 
L 910.639901 490.829516 
L 911.432272 489.879165 
L 912.620828 488.053305 
L 914.601755 484.378757 
L 916.582682 480.817968 
L 917.771238 479.211274 
L 918.563609 478.502132 
L 919.35598 478.145842 
L 920.148351 478.181282 
L 920.940722 478.630984 
L 921.733092 479.499638 
L 922.525463 480.773596 
L 923.317834 482.421436 
L 924.50639 485.486218 
L 926.091132 490.330573 
L 929.260615 500.266891 
L 930.449171 503.316843 
L 931.637728 505.716489 
L 932.430098 506.910584 
L 933.222469 507.77112 
L 934.01484 508.306771 
L 934.807211 508.539349 
L 935.599582 508.501787 
L 936.391953 508.235649 
L 937.580509 507.51244 
L 939.16525 506.207479 
L 941.542363 504.262238 
L 942.730919 503.545024 
L 943.919475 503.083998 
L 945.108032 502.894442 
L 946.296588 502.956468 
L 947.881329 503.341913 
L 951.843184 504.615148 
L 953.03174 504.697041 
L 954.220296 504.481755 
L 955.012667 504.138178 
L 955.805038 503.615767 
L 956.597408 502.9036 
L 957.785965 501.468335 
L 958.974521 499.597631 
L 960.163077 497.322151 
L 961.747819 493.757633 
L 964.124931 487.662578 
L 968.086785 477.285134 
L 970.067712 472.748294 
L 971.652454 469.666253 
L 972.84101 467.726803 
L 974.029566 466.122729 
L 975.218123 464.846149 
L 976.406679 463.862881 
L 977.991421 462.895001 
L 981.557089 460.989771 
L 982.745645 460.059598 
L 983.934202 458.863324 
L 985.518943 456.867251 
L 989.084612 451.991148 
L 989.876983 451.246938 
L 990.669354 450.795025 
L 991.461724 450.720112 
L 991.85791 450.850097 
L 992.254095 451.105072 
L 993.046466 452.027307 
L 993.838837 453.55489 
L 994.631208 455.74255 
L 995.423579 458.627634 
L 996.215949 462.226249 
L 997.404506 468.935885 
L 998.593062 477.079361 
L 1000.177803 489.642312 
L 1004.139658 522.188395 
L 1005.328214 529.851172 
L 1006.120585 533.926827 
L 1006.912955 537.053105 
L 1007.705326 539.166376 
L 1008.101512 539.834291 
L 1008.497697 540.243455 
L 1008.893882 540.397279 
L 1009.290068 540.301539 
L 1009.686253 539.964221 
L 1010.082439 539.395338 
L 1010.87481 537.611666 
L 1011.66718 535.062017 
L 1012.855737 530.082207 
L 1014.440478 521.983185 
L 1027.514597 450.570396 
L 1029.099338 442.86595 
L 1030.287895 437.939516 
L 1031.476451 434.066109 
L 1032.268822 432.197973 
L 1033.061192 430.972879 
L 1033.457378 430.615228 
L 1033.853563 430.432294 
L 1034.249749 430.425942 
L 1034.645934 430.596611 
L 1035.04212 430.943286 
L 1035.83449 432.153342 
L 1036.626861 434.019361 
L 1037.419232 436.483186 
L 1038.607788 441.126706 
L 1040.19253 448.569852 
L 1044.154384 467.942158 
L 1045.34294 472.591743 
L 1046.531496 476.307569 
L 1047.323867 478.227424 
L 1048.116238 479.705121 
L 1048.908609 480.766428 
L 1049.70098 481.454945 
L 1050.49335 481.829092 
L 1051.285721 481.958353 
L 1052.474278 481.860706 
L 1054.455205 481.559822 
L 1055.247575 481.589394 
L 1056.039946 481.782607 
L 1056.832317 482.172234 
L 1057.624688 482.775729 
L 1058.417059 483.595462 
L 1059.605615 485.201974 
L 1061.190357 487.900841 
L 1066.736952 498.171903 
L 1068.321694 500.449852 
L 1069.906436 502.376906 
L 1072.283548 504.847169 
L 1075.056846 507.410521 
L 1077.037773 508.948837 
L 1078.226329 509.625489 
L 1079.414885 510.023809 
L 1080.207256 510.100476 
L 1080.999627 510.008196 
L 1081.791998 509.738512 
L 1082.584369 509.290184 
L 1083.772925 508.298763 
L 1084.961481 506.973566 
L 1086.546223 504.832018 
L 1091.300448 498.014414 
L 1091.696633 497.520886 
L 1091.696633 497.520886 
" clip-path="url(#p504e7ce9f8)" style="fill: none; stroke: #000000; stroke-width: 1.2; stroke-linecap: round"/>
   </g>
   <g id="patch_18">
    <path d="M 52.125928 593.06 
L 52.125928 378.160625 
" style="fill: none"/>
   </g>
   <g id="patch_19">
    <path d="M 1141.2 593.06 
L 1141.2 378.160625 
" style="fill: none"/>
   </g>
   <g id="patch_20">
    <path d="M 52.125928 593.06 
L 1141.2 593.06 
" style="fill: none"/>
   </g>
   <g id="patch_21">
    <path d="M 52.125928 378.160625 
L 1141.2 378.160625 
" style="fill: none"/>
   </g>
   <g id="text_32">
    <!-- TUH Seizure: 00008512_s009, 61M -->
    <g style="fill: #262626" transform="translate(1016.7175 591.435)scale(0.08 -0.08)">
     <use xlink:href="#Roboto-Regular-54"/>
     <use xlink:href="#Roboto-Regular-55" x="59.667969"/>
     <use xlink:href="#Roboto-Regular-48" x="124.511719"/>
     <use xlink:href="#Roboto-Regular-20" x="195.800781"/>
     <use xlink:href="#Roboto-Regular-53" x="220.556641"/>
     <use xlink:href="#Roboto-Regular-65" x="279.882812"/>
     <use xlink:href="#Roboto-Regular-69" x="332.861328"/>
     <use xlink:href="#Roboto-Regular-7a" x="357.128906"/>
     <use xlink:href="#Roboto-Regular-75" x="406.689453"/>
     <use xlink:href="#Roboto-Regular-72" x="461.816406"/>
     <use xlink:href="#Roboto-Regular-65" x="495.654297"/>
     <use xlink:href="#Roboto-Regular-3a" x="548.632812"/>
     <use xlink:href="#Roboto-Regular-20" x="572.851562"/>
     <use xlink:href="#Roboto-Regular-30" x="597.607422"/>
     <use xlink:href="#Roboto-Regular-30" x="653.759766"/>
     <use xlink:href="#Roboto-Regular-30" x="709.912109"/>
     <use xlink:href="#Roboto-Regular-30" x="766.064453"/>
     <use xlink:href="#Roboto-Regular-38" x="822.216797"/>
     <use xlink:href="#Roboto-Regular-35" x="878.369141"/>
     <use xlink:href="#Roboto-Regular-31" x="934.521484"/>
     <use xlink:href="#Roboto-Regular-32" x="990.673828"/>
     <use xlink:href="#Roboto-Regular-5f" x="1046.826172"/>
     <use xlink:href="#Roboto-Regular-73" x="1091.943359"/>
     <use xlink:href="#Roboto-Regular-30" x="1143.505859"/>
     <use xlink:href="#Roboto-Regular-30" x="1199.658203"/>
     <use xlink:href="#Roboto-Regular-39" x="1255.810547"/>
     <use xlink:href="#Roboto-Regular-2c" x="1311.962891"/>
     <use xlink:href="#Roboto-Regular-20" x="1331.591797"/>
     <use xlink:href="#Roboto-Regular-36" x="1356.347656"/>
     <use xlink:href="#Roboto-Regular-31" x="1412.5"/>
     <use xlink:href="#Roboto-Regular-4d" x="1468.652344"/>
    </g>
   </g>
   <g id="text_33">
    <!-- F3-C3 -->
    <g style="fill: #414242" transform="translate(572.658276 358.160625)scale(0.18 -0.18)">
     <defs>
      <path id="Roboto-Medium-43" d="M 3934 1481 
Q 3866 753 3397 345 
Q 2928 -63 2150 -63 
Q 1606 -63 1192 195 
Q 778 453 553 928 
Q 328 1403 319 2031 
L 319 2456 
Q 319 3100 547 3590 
Q 775 4081 1201 4347 
Q 1628 4613 2188 4613 
Q 2941 4613 3400 4203 
Q 3859 3794 3934 3047 
L 3147 3047 
Q 3091 3538 2861 3755 
Q 2631 3972 2188 3972 
Q 1672 3972 1395 3595 
Q 1119 3219 1113 2491 
L 1113 2088 
Q 1113 1350 1377 962 
Q 1641 575 2150 575 
Q 2616 575 2850 784 
Q 3084 994 3147 1481 
L 3934 1481 
z
" transform="scale(0.015625)"/>
     </defs>
     <use xlink:href="#Roboto-Medium-46"/>
     <use xlink:href="#Roboto-Medium-33" x="54.931641"/>
     <use xlink:href="#Roboto-Medium-2d" x="111.767578"/>
     <use xlink:href="#Roboto-Medium-43" x="144.580078"/>
     <use xlink:href="#Roboto-Medium-33" x="209.863281"/>
    </g>
   </g>
   <g id="legend_2">
    <g id="patch_22">
     <path d="M 1062.459375 400.915312 
L 1134.2 400.915312 
Q 1136.2 400.915312 1136.2 398.915312 
L 1136.2 385.160625 
Q 1136.2 383.160625 1134.2 383.160625 
L 1062.459375 383.160625 
Q 1060.459375 383.160625 1060.459375 385.160625 
L 1060.459375 398.915312 
Q 1060.459375 400.915312 1062.459375 400.915312 
z
" style="fill: #ffffff; stroke: #cccccc; stroke-width: 0.3; stroke-linejoin: miter"/>
    </g>
    <g id="patch_23">
     <path d="M 1064.459375 394.160625 
L 1084.459375 394.160625 
L 1084.459375 387.160625 
L 1064.459375 387.160625 
z
" style="fill: #b2d9d5; opacity: 0.4; stroke: #b2d9d5; stroke-width: 0.3; stroke-linejoin: miter"/>
    </g>
    <g id="text_34">
     <!-- ﯽﻟﺎﻤﺘﺣﺍ ﮏﻠﭘ -->
     <g style="fill: #262626" transform="translate(1092.459375 394.160625)scale(0.1 -0.1)">
      <use xlink:href="#BNazanin-fbfd"/>
      <use xlink:href="#BNazanin-fedf" x="62.353516"/>
      <use xlink:href="#BNazanin-fe8e" x="78.369141"/>
      <use xlink:href="#BNazanin-fee4" x="101.806641"/>
      <use xlink:href="#BNazanin-fe98" x="146.533203"/>
      <use xlink:href="#BNazanin-fea3" x="177.294922"/>
      <use xlink:href="#BNazanin-fe8d" x="227.978516"/>
      <use xlink:href="#BNazanin-20" x="242.675781"/>
      <use xlink:href="#BNazanin-fb8f" x="267.089844"/>
      <use xlink:href="#BNazanin-fee0" x="351.806641"/>
      <use xlink:href="#BNazanin-fb58" x="374.902344"/>
     </g>
    </g>
   </g>
  </g>
  <g id="line2d_47">
   <path d="M 0 339.080625 
L 1152 339.080625 
" style="fill: none; stroke-dasharray: 1.2,1.98; stroke-dashoffset: 0; stroke: #000000; stroke-width: 1.2"/>
  </g>
  <g id="text_35">
   <!-- ﻥﺩﺯ ﮏﻠﭘ ﻡﺎﮕﻨﻫ ﺭﺩ ﭗﭼ ﻩﺮﮐﻢﯿﻧ ﻩﺮﯿﺠﻧﺯ ﻭﺩ ﻪﺴﯾﺎﻘﻣ -->
   <g style="fill: #2d1754" transform="translate(434.3945 13.244688)scale(0.22 -0.22)">
    <defs>
     <path id="BNazanin-fea9" d="M 2438 838 
Q 2438 3 1331 3 
Q 919 3 728 116 
Q 481 259 481 638 
Q 481 816 578 1000 
Q 622 1084 659 1084 
Q 706 1084 694 981 
Q 684 906 684 856 
Q 684 606 909 519 
Q 1047 466 1353 466 
Q 2228 466 2228 738 
Q 2228 1166 1206 1906 
L 1325 2313 
Q 1344 2372 1359 2372 
Q 1378 2372 1438 2325 
Q 2438 1522 2438 838 
z
" transform="scale(0.015625)"/>
     <path id="BNazanin-fee1" d="M 2553 794 
Q 2553 694 2428 475 
Q 2294 244 2209 244 
Q 2047 244 1725 305 
Q 1403 366 1241 366 
Q 922 366 781 300 
Q 884 -738 884 -1216 
Q 884 -1428 725 -1738 
Q 691 -1806 675 -1809 
Q 659 -1809 656 -1750 
Q 594 -803 484 188 
Q 472 300 600 478 
Q 703 622 788 681 
Q 916 772 1088 772 
Q 1044 941 1044 1044 
Q 1044 1241 1197 1466 
Q 1375 1725 1603 1725 
Q 1878 1725 2215 1395 
Q 2553 1066 2553 794 
z
M 2234 659 
Q 2153 866 1947 1063 
Q 1716 1281 1519 1281 
Q 1244 1281 1244 1075 
Q 1244 959 1306 772 
Q 1706 772 2234 659 
z
" transform="scale(0.015625)"/>
     <path id="BNazanin-fb95" d="M 2378 3853 
L 2297 3556 
L 338 2928 
L 422 3219 
L 2378 3853 
z
M 2788 3 
L 2556 3 
Q 2241 3 1922 284 
Q 1700 481 1394 909 
Q 1341 3 144 3 
L -81 3 
L -81 466 
L 81 466 
Q 1191 466 1191 913 
Q 1191 1253 666 1747 
Q 441 1959 141 2169 
Q 141 2425 266 2553 
Q 316 2603 2466 3256 
Q 2459 3178 2334 2825 
Q 1809 2688 559 2291 
Q 1184 1641 1650 1100 
Q 1922 784 2072 669 
Q 2334 466 2625 466 
L 2788 466 
L 2788 3 
z
" transform="scale(0.015625)"/>
     <path id="BNazanin-fee8" d="M 2050 3 
L 1744 3 
Q 1191 3 1003 366 
Q 797 3 178 3 
L -81 3 
L -81 466 
L 275 466 
Q 859 466 913 919 
Q 934 1100 1003 1100 
Q 1072 1100 1091 913 
Q 1131 466 1697 466 
L 2050 466 
L 2050 3 
z
M 1256 2069 
L 931 1744 
L 603 2069 
L 928 2394 
L 1256 2069 
z
" transform="scale(0.015625)"/>
     <path id="BNazanin-feeb" d="M 2522 819 
Q 2522 597 2372 350 
Q 2194 59 1953 59 
Q 1766 59 1097 334 
Q 575 3 138 3 
L -81 3 
L -81 466 
L 153 466 
Q 419 466 628 522 
Q 381 697 381 997 
Q 381 1384 903 1784 
L 638 1916 
Q 753 2031 981 2269 
Q 1544 1997 1934 1691 
Q 2522 1228 2522 819 
z
M 2309 663 
Q 2309 825 2063 1063 
Q 1863 1256 1697 1341 
Q 1697 866 1422 634 
Q 1916 472 2066 472 
Q 2309 472 2309 663 
z
M 1469 1134 
Q 1469 1288 1400 1416 
Q 1319 1569 1178 1569 
Q 1022 1569 844 1434 
Q 656 1294 656 1144 
Q 656 881 1091 753 
Q 1228 784 1341 888 
Q 1469 1003 1469 1134 
z
" transform="scale(0.015625)"/>
     <path id="BNazanin-fead" d="M 2016 -34 
Q 2016 -619 1644 -1138 
Q 1325 -1581 1113 -1581 
Q 656 -1581 325 -1534 
Q 216 -1519 216 -1481 
Q 216 -1444 328 -1422 
Q 797 -1325 1272 -925 
Q 1778 -497 1778 -103 
Q 1778 159 1359 566 
L 1541 944 
Q 1566 994 1578 997 
Q 1597 991 1631 947 
Q 1775 772 1891 481 
Q 2016 175 2016 -34 
z
" transform="scale(0.015625)"/>
     <path id="BNazanin-fb57" d="M 4803 3 
L 4634 3 
Q 4353 3 4175 131 
Q 3972 275 3969 544 
Q 3303 -72 1916 -72 
Q 484 -72 484 797 
Q 484 1091 706 1406 
Q 747 1466 794 1466 
Q 838 1466 838 1409 
Q 838 1384 822 1347 
Q 734 1147 734 988 
Q 734 391 2034 391 
Q 3550 391 4047 1050 
Q 4147 1181 4200 1181 
Q 4238 1181 4238 1106 
Q 4238 1053 4216 947 
Q 4194 841 4194 788 
Q 4194 466 4634 466 
L 4803 466 
L 4803 3 
z
M 2097 -1409 
L 2391 -1119 
L 2684 -1413 
L 2391 -1703 
L 2097 -1409 
z
M 1738 -784 
L 2031 -494 
L 2325 -788 
L 2034 -1078 
L 1738 -784 
z
M 2450 -784 
L 2741 -494 
L 3038 -788 
L 2744 -1078 
L 2450 -784 
z
" transform="scale(0.015625)"/>
     <path id="BNazanin-fb7c" d="M 3203 1166 
L 3028 853 
Q 2581 859 2403 794 
Q 2163 703 1678 463 
Q 1209 228 953 138 
Q 575 3 203 3 
L -81 3 
L -81 466 
L 219 466 
Q 775 466 1197 650 
L 2128 1056 
Q 1906 1106 1419 1288 
Q 1016 1438 897 1438 
Q 666 1438 425 1234 
Q 378 1194 341 1194 
Q 300 1194 300 1247 
Q 300 1269 313 1306 
Q 509 1884 984 1884 
Q 1153 1884 1444 1753 
Q 1931 1534 2169 1453 
Q 2578 1316 3144 1278 
Q 3244 1272 3244 1253 
Q 3244 1238 3203 1166 
z
M 1350 -1372 
L 1641 -1078 
L 1934 -1375 
L 1644 -1666 
L 1350 -1372 
z
M 988 -747 
L 1281 -453 
L 1578 -750 
L 1284 -1041 
L 988 -747 
z
M 1700 -747 
L 1994 -453 
L 2291 -750 
L 1997 -1041 
L 1700 -747 
z
" transform="scale(0.015625)"/>
     <path id="BNazanin-feae" d="M 2488 3 
L 2319 3 
Q 2100 3 1988 78 
Q 1994 16 1994 -47 
Q 1994 -609 1628 -1131 
Q 1313 -1581 1113 -1581 
Q 656 -1581 325 -1534 
Q 216 -1519 216 -1481 
Q 216 -1444 328 -1422 
Q 797 -1325 1272 -925 
Q 1778 -497 1778 -103 
Q 1778 159 1359 566 
L 1544 941 
Q 1566 988 1581 991 
Q 1600 984 1634 938 
Q 1819 694 1919 613 
Q 2106 466 2363 466 
L 2488 466 
L 2488 3 
z
" transform="scale(0.015625)"/>
     <path id="BNazanin-fb90" d="M 2559 3703 
Q 2544 3600 2406 3244 
L 1397 2928 
Q 719 2709 478 2566 
Q 953 2094 1122 1878 
Q 1444 1466 1478 1097 
Q 1506 800 1391 519 
Q 1181 3 134 3 
L -81 3 
L -81 466 
L 144 466 
Q 616 466 822 509 
Q 1253 600 1253 894 
Q 1253 1294 597 1888 
L 541 1800 
Q 478 1850 325 2050 
Q 159 2259 159 2306 
Q 159 2419 203 2609 
Q 253 2822 309 2888 
Q 347 2931 1134 3225 
Q 2019 3556 2559 3703 
z
" transform="scale(0.015625)"/>
     <path id="BNazanin-fee2" d="M 3303 3 
L 3113 3 
Q 2747 3 2553 166 
Q 2578 81 2578 -53 
Q 2578 -678 2163 -678 
Q 1822 -678 1619 -303 
Q 1453 3 1453 378 
Q 1453 459 1463 534 
Q 1403 544 1341 544 
Q 950 544 772 341 
Q 897 -631 897 -1106 
Q 897 -1338 775 -1663 
Q 731 -1778 709 -1778 
Q 688 -1778 672 -1625 
L 484 231 
Q 472 350 619 559 
Q 750 744 869 831 
Q 953 894 1172 941 
Q 1366 984 1497 984 
Q 1531 984 1559 981 
L 1619 1238 
Q 1638 1316 1656 1316 
Q 1675 1309 1719 1272 
Q 2200 841 2416 697 
Q 2766 466 3069 466 
L 3303 466 
L 3303 3 
z
M 2397 28 
Q 2397 194 2150 419 
Q 2109 456 1700 809 
Q 1684 691 1684 581 
Q 1684 303 1784 91 
Q 1913 -184 2163 -184 
Q 2397 -184 2397 28 
z
" transform="scale(0.015625)"/>
     <path id="BNazanin-fea0" d="M 3606 3 
L 3200 3 
Q 2413 3 2413 784 
Q 2413 875 2422 991 
Q 2150 859 1666 559 
Q 1209 275 969 172 
Q 581 3 203 3 
L -81 3 
L -81 466 
L 219 466 
Q 719 466 1209 716 
Q 1453 844 2088 1172 
Q 1950 1200 1388 1347 
Q 978 1453 897 1453 
Q 681 1453 425 1234 
Q 378 1194 341 1194 
Q 300 1194 300 1247 
Q 300 1269 313 1306 
Q 513 1900 984 1900 
Q 1163 1900 1447 1803 
Q 1881 1656 2169 1591 
Q 2559 1503 3134 1516 
Q 3225 1519 3238 1503 
Q 3250 1488 3222 1416 
L 3088 1069 
Q 2713 1072 2622 1025 
Q 2622 756 2684 656 
Q 2803 466 3216 466 
L 3606 466 
L 3606 3 
z
M 2075 -813 
L 1750 -1138 
L 1422 -809 
L 1747 -484 
L 2075 -813 
z
" transform="scale(0.015625)"/>
     <path id="BNazanin-feb4" d="M 3772 3 
L 3550 3 
Q 3147 3 2984 331 
Q 2841 3 2453 3 
Q 2116 3 1934 331 
Q 1766 3 1403 3 
Q 966 3 819 331 
Q 591 3 197 3 
L -81 3 
L -81 466 
L 238 466 
Q 672 466 750 934 
Q 769 1050 825 1050 
Q 875 1050 888 931 
Q 934 466 1391 466 
Q 1834 466 1884 931 
Q 1897 1050 1947 1050 
Q 2003 1050 2019 934 
Q 2081 466 2438 466 
Q 2881 466 2931 931 
Q 2944 1050 2994 1050 
Q 3050 1050 3066 934 
Q 3125 466 3541 466 
L 3772 466 
L 3772 3 
z
" transform="scale(0.015625)"/>
     <path id="BNazanin-fbfe" d="M 1038 797 
Q 1038 3 247 3 
L -81 3 
L -81 466 
L 191 466 
Q 788 466 788 681 
Q 788 831 516 1178 
L 678 1572 
Q 703 1631 719 1631 
Q 734 1631 784 1559 
Q 1038 1188 1038 797 
z
M 1406 -878 
L 1097 -1188 
L 788 -875 
L 1097 -566 
L 1406 -878 
z
M 722 -878 
L 413 -1188 
L 103 -875 
L 409 -566 
L 722 -878 
z
" transform="scale(0.015625)"/>
     <path id="BNazanin-fed8" d="M 2247 3 
L 2041 3 
Q 1847 3 1578 75 
Q 1291 150 1150 253 
Q 784 3 209 3 
L -81 3 
L -81 466 
L 106 466 
Q 563 466 722 534 
Q 497 709 497 991 
Q 497 1238 703 1572 
Q 944 1959 1234 1959 
Q 1519 1959 1672 1650 
Q 1791 1409 1791 1091 
Q 1791 759 1519 541 
Q 1669 466 2088 466 
L 2247 466 
L 2247 3 
z
M 1559 1031 
Q 1559 1172 1437 1334 
Q 1316 1497 1178 1497 
Q 1050 1497 897 1358 
Q 744 1219 744 1091 
Q 744 950 891 819 
Q 1025 697 1172 669 
Q 1300 691 1413 775 
Q 1559 884 1559 1031 
z
M 1759 2969 
L 1450 2663 
L 1141 2972 
L 1447 3281 
L 1759 2969 
z
M 1075 2969 
L 766 2663 
L 453 2972 
L 763 3281 
L 1075 2969 
z
" transform="scale(0.015625)"/>
    </defs>
    <use xlink:href="#BNazanin-fee5"/>
    <use xlink:href="#BNazanin-fea9" x="54.589844"/>
    <use xlink:href="#BNazanin-feaf" x="92.773438"/>
    <use xlink:href="#BNazanin-20" x="124.365234"/>
    <use xlink:href="#BNazanin-fb8f" x="148.779297"/>
    <use xlink:href="#BNazanin-fee0" x="233.496094"/>
    <use xlink:href="#BNazanin-fb58" x="256.591797"/>
    <use xlink:href="#BNazanin-20" x="279.052734"/>
    <use xlink:href="#BNazanin-fee1" x="303.466797"/>
    <use xlink:href="#BNazanin-fe8e" x="343.457031"/>
    <use xlink:href="#BNazanin-fb95" x="366.894531"/>
    <use xlink:href="#BNazanin-fee8" x="409.179688"/>
    <use xlink:href="#BNazanin-feeb" x="439.941406"/>
    <use xlink:href="#BNazanin-20" x="479.394531"/>
    <use xlink:href="#BNazanin-fead" x="503.808594"/>
    <use xlink:href="#BNazanin-fea9" x="535.400391"/>
    <use xlink:href="#BNazanin-20" x="573.583984"/>
    <use xlink:href="#BNazanin-fb57" x="597.998047"/>
    <use xlink:href="#BNazanin-fb7c" x="671.777344"/>
    <use xlink:href="#BNazanin-20" x="722.460938"/>
    <use xlink:href="#BNazanin-fee9" x="746.875"/>
    <use xlink:href="#BNazanin-feae" x="778.173828"/>
    <use xlink:href="#BNazanin-fb90" x="815.771484"/>
    <use xlink:href="#BNazanin-fee2" x="853.125"/>
    <use xlink:href="#BNazanin-fbff" x="903.466797"/>
    <use xlink:href="#BNazanin-fee7" x="934.228516"/>
    <use xlink:href="#BNazanin-20" x="950.488281"/>
    <use xlink:href="#BNazanin-fee9" x="974.902344"/>
    <use xlink:href="#BNazanin-feae" x="1006.201172"/>
    <use xlink:href="#BNazanin-fbff" x="1043.798828"/>
    <use xlink:href="#BNazanin-fea0" x="1074.560547"/>
    <use xlink:href="#BNazanin-fee7" x="1129.199219"/>
    <use xlink:href="#BNazanin-feaf" x="1145.458984"/>
    <use xlink:href="#BNazanin-20" x="1177.050781"/>
    <use xlink:href="#BNazanin-feed" x="1201.464844"/>
    <use xlink:href="#BNazanin-fea9" x="1233.642578"/>
    <use xlink:href="#BNazanin-20" x="1271.826172"/>
    <use xlink:href="#BNazanin-feea" x="1296.240234"/>
    <use xlink:href="#BNazanin-feb4" x="1337.744141"/>
    <use xlink:href="#BNazanin-fbfe" x="1395.361328"/>
    <use xlink:href="#BNazanin-fe8e" x="1417.578125"/>
    <use xlink:href="#BNazanin-fed8" x="1441.015625"/>
    <use xlink:href="#BNazanin-fee3" x="1474.804688"/>
   </g>
  </g>
 </g>
 <defs>
  <clipPath id="pf173d69806">
   <rect x="52.125928" y="74.64125" width="1089.074072" height="214.899375"/>
  </clipPath>
  <clipPath id="p504e7ce9f8">
   <rect x="52.125928" y="378.160625" width="1089.074072" height="214.899375"/>
  </clipPath>
 </defs>
</svg>
