<?xml version="1.0" encoding="utf-8" standalone="no"?>
<!DOCTYPE svg PUBLIC "-//W3C//DTD SVG 1.1//EN"
  "http://www.w3.org/Graphics/SVG/1.1/DTD/svg11.dtd">
<svg xmlns:xlink="http://www.w3.org/1999/xlink" width="1152pt" height="648pt" viewBox="0 0 1152 648" xmlns="http://www.w3.org/2000/svg" version="1.1">
 <metadata>
  <rdf:RDF xmlns:dc="http://purl.org/dc/elements/1.1/" xmlns:cc="http://creativecommons.org/ns#" xmlns:rdf="http://www.w3.org/1999/02/22-rdf-syntax-ns#">
   <cc:Work>
    <dc:type rdf:resource="http://purl.org/dc/dcmitype/StillImage"/>
    <dc:date>2022-08-24T13:50:23.722996</dc:date>
    <dc:format>image/svg+xml</dc:format>
    <dc:creator>
     <cc:Agent>
      <dc:title>Matplotlib v3.5.3, https://matplotlib.org/</dc:title>
     </cc:Agent>
    </dc:creator>
   </cc:Work>
  </rdf:RDF>
 </metadata>
 <defs>
  <style type="text/css">*{stroke-linejoin: round; stroke-linecap: butt}</style>
 </defs>
 <g id="figure_1">
  <g id="patch_1">
   <path d="M 0 648 
L 1152 648 
L 1152 0 
L 0 0 
z
" style="fill: #ffffff"/>
  </g>
  <g id="axes_1">
   <g id="patch_2">
    <path d="M 60.364751 291.70625 
L 1141.2 291.70625 
L 1141.2 76.8575 
L 60.364751 76.8575 
z
" style="fill: #eaeaf2"/>
   </g>
   <g id="matplotlib.axis_1">
    <g id="xtick_1">
     <g id="line2d_1">
      <path d="M 104.580738 291.70625 
L 104.580738 76.8575 
" clip-path="url(#p78fb9f808d)" style="fill: none; stroke: #ffffff; stroke-linecap: round"/>
     </g>
     <g id="line2d_2"/>
     <g id="text_1">
      <!-- 0 -->
      <g style="fill: #262626" transform="translate(101.772926 306.20625)scale(0.1 -0.1)">
       <defs>
        <path id="Roboto-Regular-30" d="M 3231 1941 
Q 3231 925 2884 431 
Q 2538 -63 1800 -63 
Q 1072 -63 722 420 
Q 372 903 359 1863 
L 359 2634 
Q 359 3638 706 4125 
Q 1053 4613 1794 4613 
Q 2528 4613 2875 4142 
Q 3222 3672 3231 2691 
L 3231 1941 
z
M 2653 2731 
Q 2653 3466 2447 3802 
Q 2241 4138 1794 4138 
Q 1350 4138 1147 3803 
Q 944 3469 938 2775 
L 938 1850 
Q 938 1113 1152 761 
Q 1366 409 1800 409 
Q 2228 409 2436 740 
Q 2644 1072 2653 1784 
L 2653 2731 
z
" transform="scale(0.015625)"/>
       </defs>
       <use xlink:href="#Roboto-Regular-30"/>
      </g>
     </g>
    </g>
    <g id="xtick_2">
     <g id="line2d_3">
      <path d="M 301.096238 291.70625 
L 301.096238 76.8575 
" clip-path="url(#p78fb9f808d)" style="fill: none; stroke: #ffffff; stroke-linecap: round"/>
     </g>
     <g id="line2d_4"/>
     <g id="text_2">
      <!-- 20 -->
      <g style="fill: #262626" transform="translate(295.480613 306.20625)scale(0.1 -0.1)">
       <defs>
        <path id="Roboto-Regular-32" d="M 3359 0 
L 378 0 
L 378 416 
L 1953 2166 
Q 2303 2563 2436 2811 
Q 2569 3059 2569 3325 
Q 2569 3681 2353 3909 
Q 2138 4138 1778 4138 
Q 1347 4138 1108 3892 
Q 869 3647 869 3209 
L 291 3209 
Q 291 3838 695 4225 
Q 1100 4613 1778 4613 
Q 2413 4613 2781 4280 
Q 3150 3947 3150 3394 
Q 3150 2722 2294 1794 
L 1075 472 
L 3359 472 
L 3359 0 
z
" transform="scale(0.015625)"/>
       </defs>
       <use xlink:href="#Roboto-Regular-32"/>
       <use xlink:href="#Roboto-Regular-30" x="56.152344"/>
      </g>
     </g>
    </g>
    <g id="xtick_3">
     <g id="line2d_5">
      <path d="M 497.611738 291.70625 
L 497.611738 76.8575 
" clip-path="url(#p78fb9f808d)" style="fill: none; stroke: #ffffff; stroke-linecap: round"/>
     </g>
     <g id="line2d_6"/>
     <g id="text_3">
      <!-- 40 -->
      <g style="fill: #262626" transform="translate(491.996113 306.20625)scale(0.1 -0.1)">
       <defs>
        <path id="Roboto-Regular-34" d="M 2819 1528 
L 3450 1528 
L 3450 1056 
L 2819 1056 
L 2819 0 
L 2238 0 
L 2238 1056 
L 166 1056 
L 166 1397 
L 2203 4550 
L 2819 4550 
L 2819 1528 
z
M 822 1528 
L 2238 1528 
L 2238 3759 
L 2169 3634 
L 822 1528 
z
" transform="scale(0.015625)"/>
       </defs>
       <use xlink:href="#Roboto-Regular-34"/>
       <use xlink:href="#Roboto-Regular-30" x="56.152344"/>
      </g>
     </g>
    </g>
    <g id="xtick_4">
     <g id="line2d_7">
      <path d="M 694.127238 291.70625 
L 694.127238 76.8575 
" clip-path="url(#p78fb9f808d)" style="fill: none; stroke: #ffffff; stroke-linecap: round"/>
     </g>
     <g id="line2d_8"/>
     <g id="text_4">
      <!-- 60 -->
      <g style="fill: #262626" transform="translate(688.511613 306.20625)scale(0.1 -0.1)">
       <defs>
        <path id="Roboto-Regular-36" d="M 2647 4553 
L 2647 4063 
L 2541 4063 
Q 1866 4050 1466 3662 
Q 1066 3275 1003 2572 
Q 1363 2984 1984 2984 
Q 2578 2984 2933 2565 
Q 3288 2147 3288 1484 
Q 3288 781 2905 359 
Q 2522 -63 1878 -63 
Q 1225 -63 819 439 
Q 413 941 413 1731 
L 413 1953 
Q 413 3209 948 3873 
Q 1484 4538 2544 4553 
L 2647 4553 
z
M 1888 2503 
Q 1591 2503 1341 2325 
Q 1091 2147 994 1878 
L 994 1666 
Q 994 1103 1247 759 
Q 1500 416 1878 416 
Q 2269 416 2492 703 
Q 2716 991 2716 1456 
Q 2716 1925 2489 2214 
Q 2263 2503 1888 2503 
z
" transform="scale(0.015625)"/>
       </defs>
       <use xlink:href="#Roboto-Regular-36"/>
       <use xlink:href="#Roboto-Regular-30" x="56.152344"/>
      </g>
     </g>
    </g>
    <g id="xtick_5">
     <g id="line2d_9">
      <path d="M 890.642738 291.70625 
L 890.642738 76.8575 
" clip-path="url(#p78fb9f808d)" style="fill: none; stroke: #ffffff; stroke-linecap: round"/>
     </g>
     <g id="line2d_10"/>
     <g id="text_5">
      <!-- 80 -->
      <g style="fill: #262626" transform="translate(885.027113 306.20625)scale(0.1 -0.1)">
       <defs>
        <path id="Roboto-Regular-38" d="M 3138 3363 
Q 3138 3022 2958 2756 
Q 2778 2491 2472 2341 
Q 2828 2188 3036 1894 
Q 3244 1600 3244 1228 
Q 3244 638 2845 287 
Q 2447 -63 1797 -63 
Q 1141 -63 745 289 
Q 350 641 350 1228 
Q 350 1597 551 1894 
Q 753 2191 1109 2344 
Q 806 2494 631 2759 
Q 456 3025 456 3363 
Q 456 3938 825 4275 
Q 1194 4613 1797 4613 
Q 2397 4613 2767 4275 
Q 3138 3938 3138 3363 
z
M 2666 1241 
Q 2666 1622 2423 1862 
Q 2181 2103 1790 2103 
Q 1400 2103 1164 1865 
Q 928 1628 928 1240 
Q 928 853 1158 631 
Q 1388 409 1797 409 
Q 2203 409 2434 632 
Q 2666 856 2666 1241 
z
M 1797 4138 
Q 1456 4138 1245 3927 
Q 1034 3716 1034 3353 
Q 1034 3006 1242 2792 
Q 1450 2578 1797 2578 
Q 2144 2578 2351 2792 
Q 2559 3006 2559 3353 
Q 2559 3700 2343 3919 
Q 2128 4138 1797 4138 
z
" transform="scale(0.015625)"/>
       </defs>
       <use xlink:href="#Roboto-Regular-38"/>
       <use xlink:href="#Roboto-Regular-30" x="56.152344"/>
      </g>
     </g>
    </g>
    <g id="xtick_6">
     <g id="line2d_11">
      <path d="M 1087.158238 291.70625 
L 1087.158238 76.8575 
" clip-path="url(#p78fb9f808d)" style="fill: none; stroke: #ffffff; stroke-linecap: round"/>
     </g>
     <g id="line2d_12"/>
     <g id="text_6">
      <!-- 100 -->
      <g style="fill: #262626" transform="translate(1078.7348 306.20625)scale(0.1 -0.1)">
       <defs>
        <path id="Roboto-Regular-31" d="M 2278 0 
L 1697 0 
L 1697 3853 
L 531 3425 
L 531 3950 
L 2188 4572 
L 2278 4572 
L 2278 0 
z
" transform="scale(0.015625)"/>
       </defs>
       <use xlink:href="#Roboto-Regular-31"/>
       <use xlink:href="#Roboto-Regular-30" x="56.152344"/>
       <use xlink:href="#Roboto-Regular-30" x="112.304688"/>
      </g>
     </g>
    </g>
    <g id="text_7">
     <!-- (ﻪﯿﻧﺎﺛ ﯽﻠﯿﻣ) ﻥﺎﻣﺯ -->
     <g style="fill: #056385" transform="translate(563.773157 331.52375)scale(0.14 -0.14)">
      <defs>
       <path id="BNazanin-28" d="M 1791 3238 
Q 1747 3166 1569 2913 
Q 934 2009 934 1275 
Q 934 675 1256 81 
Q 1363 -116 1775 -675 
Q 1794 -700 1794 -728 
Q 1794 -800 1697 -800 
Q 1613 -800 1331 -525 
Q 991 -194 775 203 
Q 488 731 488 1259 
Q 488 1863 831 2422 
Q 1147 2931 1681 3297 
Q 1722 3325 1756 3309 
Q 1791 3294 1791 3238 
z
" transform="scale(0.015625)"/>
       <path id="BNazanin-feea" d="M 2738 3 
L 2441 3 
Q 1928 3 1791 641 
Q 1509 363 1466 363 
L 1113 363 
Q 925 363 741 419 
Q 484 497 484 638 
Q 484 1088 803 1369 
Q 1016 1556 1538 1763 
L 1459 2147 
L 1728 2450 
Q 1744 2400 2000 1141 
Q 2078 756 2144 641 
Q 2244 466 2459 466 
L 2738 466 
L 2738 3 
z
M 1741 819 
L 1606 1453 
Q 1403 1394 1122 1256 
Q 738 1069 738 959 
Q 738 869 1031 819 
Q 1238 784 1397 784 
Q 1594 784 1741 819 
z
" transform="scale(0.015625)"/>
       <path id="BNazanin-fbff" d="M 2050 3 
L 1744 3 
Q 1191 3 1003 366 
Q 797 3 178 3 
L -81 3 
L -81 466 
L 275 466 
Q 859 466 913 919 
Q 934 1100 1003 1100 
Q 1072 1100 1091 913 
Q 1131 466 1697 466 
L 2050 466 
L 2050 3 
z
M 1419 -878 
L 1109 -1188 
L 797 -875 
L 1106 -566 
L 1419 -878 
z
M 731 -878 
L 425 -1188 
L 113 -875 
L 422 -566 
L 731 -878 
z
" transform="scale(0.015625)"/>
       <path id="BNazanin-fee7" d="M 1038 797 
Q 1038 3 247 3 
L -81 3 
L -81 466 
L 191 466 
Q 788 466 788 681 
Q 788 831 516 1178 
L 678 1572 
Q 703 1631 719 1631 
Q 734 1631 784 1559 
Q 1038 1188 1038 797 
z
M 1006 2619 
L 681 2294 
L 356 2622 
L 681 2947 
L 1006 2619 
z
" transform="scale(0.015625)"/>
       <path id="BNazanin-fe8e" d="M 1584 3 
L 1313 3 
Q 866 3 694 369 
Q 572 625 575 1134 
L 578 1897 
Q 581 2450 484 3453 
L 731 3716 
Q 800 3788 813 3706 
Q 897 3184 897 2128 
L 897 963 
Q 897 466 1375 466 
L 1584 466 
L 1584 3 
z
" transform="scale(0.015625)"/>
       <path id="BNazanin-fe9b" d="M 1038 797 
Q 1038 3 247 3 
L -81 3 
L -81 466 
L 191 466 
Q 788 466 788 681 
Q 788 831 516 1178 
L 678 1572 
Q 703 1631 719 1631 
Q 734 1631 784 1559 
Q 1038 1188 1038 797 
z
M 953 3100 
L 659 2806 
L 366 3103 
L 659 3394 
L 953 3100 
z
M 1313 2475 
L 1019 2184 
L 725 2478 
L 1016 2769 
L 1313 2475 
z
M 600 2475 
L 309 2184 
L 13 2478 
L 306 2769 
L 600 2475 
z
" transform="scale(0.015625)"/>
       <path id="BNazanin-20" transform="scale(0.015625)"/>
       <path id="BNazanin-fbfd" d="M 4075 3 
L 3163 3 
Q 2994 3 2838 -50 
Q 2622 -122 2622 -253 
Q 2622 -284 3198 -412 
Q 3775 -541 3775 -666 
Q 3775 -1138 3503 -1369 
Q 3044 -1763 1884 -1763 
Q 484 -1763 484 -728 
Q 484 -494 584 -208 
Q 684 78 828 266 
Q 884 341 931 344 
Q 978 347 978 294 
Q 978 247 941 175 
Q 759 -169 759 -538 
Q 759 -947 1147 -1144 
Q 1444 -1294 1900 -1294 
Q 2384 -1294 2788 -1244 
Q 3513 -1153 3513 -934 
Q 3513 -844 3197 -791 
Q 2694 -706 2616 -684 
Q 2300 -597 2300 -416 
Q 2300 -272 2453 -56 
Q 2581 122 2722 238 
Q 3003 466 3522 466 
L 4075 466 
L 4075 3 
z
" transform="scale(0.015625)"/>
       <path id="BNazanin-fee0" d="M 1559 3 
L 1397 3 
Q 878 3 681 384 
Q 628 213 438 103 
Q 266 3 72 3 
L -81 3 
L -81 466 
L 78 466 
Q 575 466 575 881 
L 575 2266 
Q 575 3056 541 3478 
L 881 3766 
L 881 1075 
Q 881 466 1400 466 
L 1559 466 
L 1559 3 
z
" transform="scale(0.015625)"/>
       <path id="BNazanin-fee3" d="M 2066 797 
Q 2091 500 1997 297 
Q 1853 -13 1678 -13 
Q 1359 -13 772 397 
Q 591 181 519 125 
Q 363 3 134 3 
L -81 3 
L -81 466 
L 203 466 
Q 472 466 675 741 
Q 775 884 1034 1250 
Q 1231 1525 1438 1525 
Q 1728 1525 1913 1231 
Q 2047 1016 2066 797 
z
M 1828 503 
Q 1828 678 1697 884 
Q 1550 1116 1375 1116 
Q 1197 1116 956 750 
Q 1056 641 1322 520 
Q 1588 400 1734 400 
Q 1828 400 1828 503 
z
" transform="scale(0.015625)"/>
       <path id="BNazanin-29" d="M 488 -728 
Q 519 -672 709 -403 
Q 1347 497 1347 1238 
Q 1347 1841 1025 2428 
Q 919 2622 503 3184 
Q 484 3209 484 3238 
Q 484 3313 584 3313 
Q 669 3313 947 3038 
Q 1288 2700 1503 2306 
Q 1791 1778 1791 1250 
Q 1791 638 1450 88 
Q 1138 -419 597 -788 
Q 559 -813 525 -797 
Q 488 -781 488 -728 
z
" transform="scale(0.015625)"/>
       <path id="BNazanin-fee5" d="M 3453 59 
Q 3488 -150 3488 -291 
Q 3488 -516 3413 -728 
Q 3256 -1175 2709 -1422 
Q 2253 -1628 1716 -1628 
Q 1191 -1628 853 -1369 
Q 484 -1081 484 -569 
Q 484 -297 619 13 
Q 716 234 819 359 
Q 869 419 909 419 
Q 947 419 947 375 
Q 947 347 928 309 
Q 750 -56 750 -359 
Q 750 -656 947 -872 
Q 1206 -1156 1731 -1156 
Q 2325 -1156 2781 -944 
Q 3156 -769 3250 -563 
Q 3281 -494 3281 -391 
Q 3281 -231 3200 0 
Q 3131 194 2825 628 
L 2988 953 
Q 3025 1025 3044 1025 
Q 3063 1025 3100 966 
Q 3375 538 3453 59 
z
M 2275 1791 
L 1950 1466 
L 1622 1794 
L 1947 2119 
L 2275 1791 
z
" transform="scale(0.015625)"/>
       <path id="BNazanin-feaf" d="M 2016 -34 
Q 2016 -619 1644 -1138 
Q 1325 -1581 1113 -1581 
Q 656 -1581 325 -1534 
Q 216 -1519 216 -1481 
Q 216 -1444 328 -1422 
Q 797 -1325 1272 -925 
Q 1778 -497 1778 -103 
Q 1778 159 1359 566 
L 1541 944 
Q 1566 994 1578 997 
Q 1597 991 1631 947 
Q 1775 772 1891 481 
Q 2016 175 2016 -34 
z
M 1722 2113 
L 1397 1788 
L 1072 2116 
L 1397 2438 
L 1722 2113 
z
" transform="scale(0.015625)"/>
      </defs>
      <use xlink:href="#BNazanin-28"/>
      <use xlink:href="#BNazanin-feea" x="28.125"/>
      <use xlink:href="#BNazanin-fbff" x="69.628906"/>
      <use xlink:href="#BNazanin-fee7" x="100.390625"/>
      <use xlink:href="#BNazanin-fe8e" x="116.650391"/>
      <use xlink:href="#BNazanin-fe9b" x="140.087891"/>
      <use xlink:href="#BNazanin-20" x="161.230469"/>
      <use xlink:href="#BNazanin-fbfd" x="185.644531"/>
      <use xlink:href="#BNazanin-fee0" x="247.998047"/>
      <use xlink:href="#BNazanin-fbff" x="271.09375"/>
      <use xlink:href="#BNazanin-fee3" x="301.855469"/>
      <use xlink:href="#BNazanin-29" x="334.179688"/>
      <use xlink:href="#BNazanin-20" x="362.304688"/>
      <use xlink:href="#BNazanin-fee5" x="386.71875"/>
      <use xlink:href="#BNazanin-fe8e" x="441.308594"/>
      <use xlink:href="#BNazanin-fee3" x="464.746094"/>
      <use xlink:href="#BNazanin-feaf" x="497.070312"/>
     </g>
    </g>
   </g>
   <g id="matplotlib.axis_2">
    <g id="ytick_1">
     <g id="line2d_13">
      <path d="M 60.364751 290.641257 
L 1141.2 290.641257 
" clip-path="url(#p78fb9f808d)" style="fill: none; stroke: #ffffff; stroke-linecap: round"/>
     </g>
     <g id="line2d_14"/>
     <g id="text_8">
      <!-- $\mathdefault{−1.0}$ -->
      <g style="fill: #262626" transform="translate(33.764751 294.391257)scale(0.1 -0.1)">
       <defs>
        <path id="Roboto-Regular-2212" d="M 3134 2034 
L 525 2034 
L 525 2506 
L 3134 2506 
L 3134 2034 
z
" transform="scale(0.015625)"/>
        <path id="Roboto-Regular-2e" d="M 450 303 
Q 450 453 539 553 
Q 628 653 806 653 
Q 984 653 1076 553 
Q 1169 453 1169 303 
Q 1169 159 1076 62 
Q 984 -34 806 -34 
Q 628 -34 539 62 
Q 450 159 450 303 
z
" transform="scale(0.015625)"/>
       </defs>
       <use xlink:href="#Roboto-Regular-2212" transform="translate(0 0.921875)"/>
       <use xlink:href="#Roboto-Regular-31" transform="translate(57.128906 0.921875)"/>
       <use xlink:href="#Roboto-Regular-2e" transform="translate(113.28125 0.921875)"/>
       <use xlink:href="#Roboto-Regular-30" transform="translate(139.599609 0.921875)"/>
      </g>
     </g>
    </g>
    <g id="ytick_2">
     <g id="line2d_15">
      <path d="M 60.364751 248.931966 
L 1141.2 248.931966 
" clip-path="url(#p78fb9f808d)" style="fill: none; stroke: #ffffff; stroke-linecap: round"/>
     </g>
     <g id="line2d_16"/>
     <g id="text_9">
      <!-- $\mathdefault{−0.5}$ -->
      <g style="fill: #262626" transform="translate(33.764751 252.681966)scale(0.1 -0.1)">
       <defs>
        <path id="Roboto-Regular-35" d="M 644 2281 
L 875 4550 
L 3206 4550 
L 3206 4016 
L 1366 4016 
L 1228 2775 
Q 1563 2972 1988 2972 
Q 2609 2972 2975 2561 
Q 3341 2150 3341 1450 
Q 3341 747 2961 342 
Q 2581 -63 1900 -63 
Q 1297 -63 915 271 
Q 534 606 481 1197 
L 1028 1197 
Q 1081 806 1306 607 
Q 1531 409 1900 409 
Q 2303 409 2533 684 
Q 2763 959 2763 1444 
Q 2763 1900 2514 2176 
Q 2266 2453 1853 2453 
Q 1475 2453 1259 2288 
L 1106 2163 
L 644 2281 
z
" transform="scale(0.015625)"/>
       </defs>
       <use xlink:href="#Roboto-Regular-2212" transform="translate(0 0.921875)"/>
       <use xlink:href="#Roboto-Regular-30" transform="translate(57.128906 0.921875)"/>
       <use xlink:href="#Roboto-Regular-2e" transform="translate(113.28125 0.921875)"/>
       <use xlink:href="#Roboto-Regular-35" transform="translate(139.599609 0.921875)"/>
      </g>
     </g>
    </g>
    <g id="ytick_3">
     <g id="line2d_17">
      <path d="M 60.364751 207.222675 
L 1141.2 207.222675 
" clip-path="url(#p78fb9f808d)" style="fill: none; stroke: #ffffff; stroke-linecap: round"/>
     </g>
     <g id="line2d_18"/>
     <g id="text_10">
      <!-- $\mathdefault{0.0}$ -->
      <g style="fill: #262626" transform="translate(39.464751 210.972675)scale(0.1 -0.1)">
       <use xlink:href="#Roboto-Regular-30" transform="translate(0 0.921875)"/>
       <use xlink:href="#Roboto-Regular-2e" transform="translate(56.152344 0.921875)"/>
       <use xlink:href="#Roboto-Regular-30" transform="translate(82.470703 0.921875)"/>
      </g>
     </g>
    </g>
    <g id="ytick_4">
     <g id="line2d_19">
      <path d="M 60.364751 165.513385 
L 1141.2 165.513385 
" clip-path="url(#p78fb9f808d)" style="fill: none; stroke: #ffffff; stroke-linecap: round"/>
     </g>
     <g id="line2d_20"/>
     <g id="text_11">
      <!-- $\mathdefault{0.5}$ -->
      <g style="fill: #262626" transform="translate(39.464751 169.263385)scale(0.1 -0.1)">
       <use xlink:href="#Roboto-Regular-30" transform="translate(0 0.921875)"/>
       <use xlink:href="#Roboto-Regular-2e" transform="translate(56.152344 0.921875)"/>
       <use xlink:href="#Roboto-Regular-35" transform="translate(82.470703 0.921875)"/>
      </g>
     </g>
    </g>
    <g id="ytick_5">
     <g id="line2d_21">
      <path d="M 60.364751 123.804094 
L 1141.2 123.804094 
" clip-path="url(#p78fb9f808d)" style="fill: none; stroke: #ffffff; stroke-linecap: round"/>
     </g>
     <g id="line2d_22"/>
     <g id="text_12">
      <!-- $\mathdefault{1.0}$ -->
      <g style="fill: #262626" transform="translate(39.464751 127.554094)scale(0.1 -0.1)">
       <use xlink:href="#Roboto-Regular-31" transform="translate(0 0.921875)"/>
       <use xlink:href="#Roboto-Regular-2e" transform="translate(56.152344 0.921875)"/>
       <use xlink:href="#Roboto-Regular-30" transform="translate(82.470703 0.921875)"/>
      </g>
     </g>
    </g>
    <g id="ytick_6">
     <g id="line2d_23">
      <path d="M 60.364751 82.094804 
L 1141.2 82.094804 
" clip-path="url(#p78fb9f808d)" style="fill: none; stroke: #ffffff; stroke-linecap: round"/>
     </g>
     <g id="line2d_24"/>
     <g id="text_13">
      <!-- $\mathdefault{1.5}$ -->
      <g style="fill: #262626" transform="translate(39.464751 85.844804)scale(0.1 -0.1)">
       <use xlink:href="#Roboto-Regular-31" transform="translate(0 0.5625)"/>
       <use xlink:href="#Roboto-Regular-2e" transform="translate(56.152344 0.5625)"/>
       <use xlink:href="#Roboto-Regular-35" transform="translate(82.470703 0.5625)"/>
      </g>
     </g>
    </g>
    <g id="text_14">
     <!-- (ﺖﻟﻭ) ﻩﺯﺍﺪﻧﺍ -->
     <g style="fill: #056385" transform="translate(20.306313 209.384531)rotate(-90)scale(0.14 -0.14)">
      <defs>
       <path id="BNazanin-fe96" d="M 4803 3 
L 4634 3 
Q 4353 3 4175 131 
Q 3972 275 3969 544 
Q 3303 -72 1916 -72 
Q 484 -72 484 797 
Q 484 1091 706 1406 
Q 747 1466 794 1466 
Q 838 1466 838 1409 
Q 838 1384 822 1347 
Q 734 1147 734 988 
Q 734 391 2034 391 
Q 3550 391 4047 1050 
Q 4147 1181 4200 1181 
Q 4238 1181 4238 1106 
Q 4238 1053 4216 947 
Q 4194 841 4194 788 
Q 4194 466 4634 466 
L 4803 466 
L 4803 3 
z
M 3003 2325 
L 2694 2019 
L 2384 2328 
L 2691 2638 
L 3003 2325 
z
M 2319 2325 
L 2009 2019 
L 1697 2328 
L 2006 2638 
L 2319 2325 
z
" transform="scale(0.015625)"/>
       <path id="BNazanin-fedf" d="M 1000 3178 
Q 1034 3097 1025 3081 
Q 1019 3072 959 3072 
L 831 3072 
Q 872 2272 856 809 
Q 853 456 684 241 
Q 497 3 153 3 
L -81 3 
L -81 466 
L 131 466 
Q 603 466 588 825 
Q 534 2113 453 3434 
L 719 3688 
Q 781 3747 794 3750 
Q 806 3738 825 3666 
Q 872 3484 1000 3178 
z
" transform="scale(0.015625)"/>
       <path id="BNazanin-feed" d="M 2056 163 
Q 2056 -731 1441 -1369 
Q 1247 -1569 1194 -1569 
Q 853 -1569 416 -1500 
Q 263 -1475 263 -1453 
Q 263 -1428 425 -1381 
Q 909 -1241 1328 -881 
Q 1503 -731 1647 -528 
Q 1828 -275 1828 -103 
L 1828 28 
L 1306 9 
Q 753 -9 753 469 
Q 753 766 925 1106 
Q 1122 1494 1375 1494 
Q 1750 1494 1931 978 
Q 2056 622 2056 163 
z
M 1769 494 
Q 1769 688 1638 859 
Q 1497 1047 1309 1047 
Q 1184 1047 1092 953 
Q 1000 859 1000 734 
Q 1000 459 1394 459 
Q 1541 459 1769 494 
z
" transform="scale(0.015625)"/>
       <path id="BNazanin-fee9" d="M 2000 844 
Q 2000 434 1747 206 
Q 1503 -9 1091 -9 
Q 838 -9 666 144 
Q 484 303 484 553 
Q 484 831 722 1244 
Q 928 1600 1178 1850 
Q 2000 1422 2000 844 
z
M 1772 681 
Q 1772 847 1506 1097 
Q 1269 1319 1084 1388 
Q 772 991 772 753 
Q 772 613 919 525 
Q 1044 450 1194 450 
Q 1453 450 1631 547 
Q 1772 622 1772 681 
z
" transform="scale(0.015625)"/>
       <path id="BNazanin-fe8d" d="M 934 497 
Q 934 253 834 50 
Q 775 -72 753 -72 
Q 728 -72 728 81 
Q 728 775 484 3469 
L 816 3778 
Q 859 3819 875 3822 
Q 891 3822 894 3753 
Q 934 2963 934 497 
z
M 934 497 
Q 934 253 834 50 
Q 775 -72 753 -72 
Q 728 -72 728 81 
Q 728 775 484 3469 
L 816 3778 
Q 859 3819 875 3822 
Q 891 3822 894 3753 
Q 934 2963 934 497 
z
" transform="scale(0.015625)"/>
       <path id="BNazanin-feaa" d="M 3116 3 
L 2938 3 
Q 2713 3 2556 147 
Q 2459 238 2322 466 
Q 2178 209 1988 106 
Q 1756 -22 1325 -22 
Q 484 -22 484 581 
Q 484 784 609 1000 
Q 650 1072 691 1072 
Q 728 1072 728 1009 
Q 728 975 718 908 
Q 709 841 709 806 
Q 709 447 1319 447 
Q 2178 447 2178 781 
Q 2178 963 1681 2084 
L 1859 2394 
Q 1894 2453 1906 2456 
Q 1925 2444 1953 2378 
Q 2153 1906 2500 953 
Q 2678 466 3003 466 
L 3116 466 
L 3116 3 
z
" transform="scale(0.015625)"/>
      </defs>
      <use xlink:href="#BNazanin-28"/>
      <use xlink:href="#BNazanin-fe96" x="28.125"/>
      <use xlink:href="#BNazanin-fedf" x="101.904297"/>
      <use xlink:href="#BNazanin-feed" x="117.919922"/>
      <use xlink:href="#BNazanin-29" x="150.097656"/>
      <use xlink:href="#BNazanin-20" x="178.222656"/>
      <use xlink:href="#BNazanin-fee9" x="202.636719"/>
      <use xlink:href="#BNazanin-feaf" x="233.935547"/>
      <use xlink:href="#BNazanin-fe8d" x="265.527344"/>
      <use xlink:href="#BNazanin-feaa" x="280.224609"/>
      <use xlink:href="#BNazanin-fee7" x="327.636719"/>
      <use xlink:href="#BNazanin-fe8d" x="343.896484"/>
     </g>
    </g>
    <g id="text_15">
     <!-- $\times\mathdefault{10^{−5}}\mathdefault{}$ -->
     <g style="fill: #262626" transform="translate(60.364751 73.8575)scale(0.1 -0.1)">
      <defs>
       <path id="DejaVuSans-d7" d="M 4488 3438 
L 3059 2003 
L 4488 575 
L 4116 197 
L 2681 1631 
L 1247 197 
L 878 575 
L 2303 2003 
L 878 3438 
L 1247 3816 
L 2681 2381 
L 4116 3816 
L 4488 3438 
z
" transform="scale(0.015625)"/>
      </defs>
      <use xlink:href="#DejaVuSans-d7" transform="translate(0 0.254688)"/>
      <use xlink:href="#Roboto-Regular-31" transform="translate(83.789062 0.254688)"/>
      <use xlink:href="#Roboto-Regular-30" transform="translate(139.941406 0.254688)"/>
      <use xlink:href="#Roboto-Regular-2212" transform="translate(197.018242 37.234375)scale(0.7)"/>
      <use xlink:href="#Roboto-Regular-35" transform="translate(237.008477 37.234375)scale(0.7)"/>
     </g>
    </g>
   </g>
   <g id="line2d_25">
    <path d="M 109.493626 196.892426 
L 124.232288 197.083143 
L 134.058063 196.984141 
L 143.883838 196.573742 
L 153.709613 195.764965 
L 158.622501 195.192631 
L 163.535388 194.50319 
L 168.448276 193.696111 
L 178.274051 191.741245 
L 188.099826 189.382171 
L 197.925601 186.720703 
L 222.490038 179.805468 
L 227.402926 178.583445 
L 232.315813 177.483063 
L 237.228701 176.534892 
L 242.141588 175.769393 
L 247.054476 175.21645 
L 251.967363 174.904857 
L 256.880251 174.861832 
L 261.793138 175.112502 
L 266.706026 175.679433 
L 271.618913 176.582162 
L 276.531801 177.836748 
L 281.444688 179.455382 
L 286.357576 181.446018 
L 291.270463 183.812056 
L 296.183351 186.552084 
L 301.096238 189.659674 
L 306.009126 193.123244 
L 310.922013 196.925988 
L 315.834901 201.04587 
L 320.747788 205.455704 
L 325.660676 210.12329 
L 330.573563 215.011637 
L 340.399338 225.280485 
L 360.050888 246.389364 
L 364.963776 251.462211 
L 369.876663 256.335709 
L 374.789551 260.950213 
L 379.702438 265.246737 
L 384.615326 269.167699 
L 389.528213 272.657643 
L 394.441101 275.66398 
L 399.353988 278.137696 
L 404.266876 280.034006 
L 409.179763 281.313039 
L 414.092651 281.940398 
L 419.005538 281.887714 
L 423.918426 281.133131 
L 428.831313 279.661672 
L 433.744201 277.465628 
L 438.657088 274.544749 
L 443.569976 270.906425 
L 448.482863 266.56575 
L 453.395751 261.545502 
L 458.308638 255.876024 
L 463.221526 249.595001 
L 468.134413 242.74717 
L 473.047301 235.383922 
L 477.960188 227.562822 
L 482.873076 219.347064 
L 487.785963 210.804829 
L 497.611738 193.034378 
L 517.263288 156.955929 
L 522.176176 148.297797 
L 527.089063 139.944947 
L 532.001951 131.974206 
L 536.914838 124.458995 
L 541.827726 117.468532 
L 546.740613 111.067044 
L 551.653501 105.313059 
L 556.566388 100.258774 
L 561.479276 95.949459 
L 566.392163 92.422973 
L 571.305051 89.709375 
L 576.217938 87.830591 
L 581.130826 86.800202 
L 586.043713 86.623352 
L 590.9566 87.296695 
L 595.869488 88.808509 
L 600.782375 91.138863 
L 605.695263 94.259922 
L 610.60815 98.136269 
L 615.521038 102.725426 
L 620.433925 107.978351 
L 625.346813 113.84007 
L 630.2597 120.250373 
L 635.172588 127.144514 
L 640.085475 134.454044 
L 644.998363 142.107586 
L 654.824138 158.151837 
L 674.475688 191.106232 
L 679.388575 199.10521 
L 684.301463 206.87486 
L 689.21435 214.355344 
L 694.127238 221.491782 
L 699.040125 228.23478 
L 703.953013 234.540885 
L 708.8659 240.372949 
L 713.778788 245.700411 
L 718.691675 250.499493 
L 723.604563 254.753287 
L 728.51745 258.451779 
L 733.430338 261.591763 
L 738.343225 264.176669 
L 743.256113 266.216317 
L 748.169 267.726579 
L 753.081888 268.728995 
L 757.994775 269.250282 
L 762.907663 269.321819 
L 767.82055 268.979063 
L 772.733438 268.260931 
L 777.646325 267.209151 
L 782.559213 265.867575 
L 787.4721 264.281512 
L 792.384988 262.497014 
L 802.210763 258.516643 
L 821.862313 250.129678 
L 826.7752 248.171752 
L 831.688088 246.334731 
L 836.600975 244.644504 
L 841.513863 243.122596 
L 846.42675 241.785997 
L 851.339638 240.647036 
L 856.252525 239.713365 
L 861.165413 238.987976 
L 866.0783 238.469322 
L 870.991188 238.151498 
L 875.904075 238.024479 
L 880.816963 238.074419 
L 885.72985 238.284024 
L 890.642738 238.632946 
L 900.468513 239.654817 
L 929.945838 243.37017 
L 934.858725 243.794394 
L 939.771613 244.095187 
L 944.6845 244.251477 
L 949.597388 244.244933 
L 954.510275 244.060261 
L 959.423163 243.685508 
L 964.33605 243.112239 
L 969.248938 242.335719 
L 974.161825 241.354975 
L 979.074713 240.172849 
L 983.9876 238.795939 
L 988.900488 237.234512 
L 993.813375 235.502353 
L 998.726263 233.61654 
L 1008.552038 229.467131 
L 1018.377813 224.977685 
L 1033.116475 218.098356 
L 1042.94225 213.767559 
L 1047.855138 211.76924 
L 1052.768025 209.920505 
L 1057.680913 208.248038 
L 1062.5938 206.776451 
L 1067.506688 205.527913 
L 1072.419575 204.52181 
L 1077.332463 203.774449 
L 1082.24535 203.298809 
L 1087.158238 203.104349 
L 1092.071125 203.196855 
L 1092.071125 203.196855 
" clip-path="url(#p78fb9f808d)" style="fill: none; stroke: #000000; stroke-width: 1.2; stroke-linecap: round"/>
   </g>
   <g id="patch_3">
    <path d="M 60.364751 291.70625 
L 60.364751 76.8575 
" style="fill: none"/>
   </g>
   <g id="patch_4">
    <path d="M 1141.2 291.70625 
L 1141.2 76.8575 
" style="fill: none"/>
   </g>
   <g id="patch_5">
    <path d="M 60.364751 291.70625 
L 1141.2 291.70625 
" style="fill: none"/>
   </g>
   <g id="patch_6">
    <path d="M 60.364751 76.8575 
L 1141.2 76.8575 
" style="fill: none"/>
   </g>
   <g id="text_16">
    <!-- Sample 325, $\it{Pediatric}$ $\it{and}$ $\it{adults}$ $\it{ERG}$ Dataset -->
    <g style="fill: #262626" transform="translate(968.48 290.02625)scale(0.08 -0.08)">
     <defs>
      <path id="Roboto-Regular-53" d="M 1869 2028 
Q 1097 2250 745 2573 
Q 394 2897 394 3372 
Q 394 3909 823 4261 
Q 1253 4613 1941 4613 
Q 2409 4613 2776 4431 
Q 3144 4250 3345 3931 
Q 3547 3613 3547 3234 
L 2944 3234 
Q 2944 3647 2681 3883 
Q 2419 4119 1941 4119 
Q 1497 4119 1248 3923 
Q 1000 3728 1000 3381 
Q 1000 3103 1236 2911 
Q 1472 2719 2039 2559 
Q 2606 2400 2926 2208 
Q 3247 2016 3401 1759 
Q 3556 1503 3556 1156 
Q 3556 603 3125 270 
Q 2694 -63 1972 -63 
Q 1503 -63 1097 117 
Q 691 297 470 609 
Q 250 922 250 1319 
L 853 1319 
Q 853 906 1158 667 
Q 1463 428 1972 428 
Q 2447 428 2700 622 
Q 2953 816 2953 1150 
Q 2953 1484 2718 1667 
Q 2484 1850 1869 2028 
z
" transform="scale(0.015625)"/>
      <path id="Roboto-Regular-61" d="M 2525 0 
Q 2475 100 2444 356 
Q 2041 -63 1481 -63 
Q 981 -63 661 220 
Q 341 503 341 938 
Q 341 1466 742 1758 
Q 1144 2050 1872 2050 
L 2434 2050 
L 2434 2316 
Q 2434 2619 2253 2798 
Q 2072 2978 1719 2978 
Q 1409 2978 1200 2822 
Q 991 2666 991 2444 
L 409 2444 
Q 409 2697 589 2933 
Q 769 3169 1076 3306 
Q 1384 3444 1753 3444 
Q 2338 3444 2669 3151 
Q 3000 2859 3013 2347 
L 3013 791 
Q 3013 325 3131 50 
L 3131 0 
L 2525 0 
z
M 1566 441 
Q 1838 441 2081 581 
Q 2325 722 2434 947 
L 2434 1641 
L 1981 1641 
Q 919 1641 919 1019 
Q 919 747 1100 594 
Q 1281 441 1566 441 
z
" transform="scale(0.015625)"/>
      <path id="Roboto-Regular-6d" d="M 981 3381 
L 997 3006 
Q 1369 3444 2000 3444 
Q 2709 3444 2966 2900 
Q 3134 3144 3404 3294 
Q 3675 3444 4044 3444 
Q 5156 3444 5175 2266 
L 5175 0 
L 4597 0 
L 4597 2231 
Q 4597 2594 4431 2773 
Q 4266 2953 3875 2953 
Q 3553 2953 3340 2761 
Q 3128 2569 3094 2244 
L 3094 0 
L 2513 0 
L 2513 2216 
Q 2513 2953 1791 2953 
Q 1222 2953 1013 2469 
L 1013 0 
L 434 0 
L 434 3381 
L 981 3381 
z
" transform="scale(0.015625)"/>
      <path id="Roboto-Regular-70" d="M 3294 1653 
Q 3294 881 2941 409 
Q 2588 -63 1984 -63 
Q 1369 -63 1016 328 
L 1016 -1300 
L 438 -1300 
L 438 3381 
L 966 3381 
L 994 3006 
Q 1347 3444 1975 3444 
Q 2584 3444 2939 2984 
Q 3294 2525 3294 1706 
L 3294 1653 
z
M 2716 1719 
Q 2716 2291 2472 2622 
Q 2228 2953 1803 2953 
Q 1278 2953 1016 2488 
L 1016 872 
Q 1275 409 1809 409 
Q 2225 409 2470 739 
Q 2716 1069 2716 1719 
z
" transform="scale(0.015625)"/>
      <path id="Roboto-Regular-6c" d="M 1066 0 
L 488 0 
L 488 4800 
L 1066 4800 
L 1066 0 
z
" transform="scale(0.015625)"/>
      <path id="Roboto-Regular-65" d="M 1841 -63 
Q 1153 -63 722 389 
Q 291 841 291 1597 
L 291 1703 
Q 291 2206 483 2601 
Q 675 2997 1020 3220 
Q 1366 3444 1769 3444 
Q 2428 3444 2793 3009 
Q 3159 2575 3159 1766 
L 3159 1525 
L 869 1525 
Q 881 1025 1161 717 
Q 1441 409 1872 409 
Q 2178 409 2390 534 
Q 2603 659 2763 866 
L 3116 591 
Q 2691 -63 1841 -63 
z
M 1769 2969 
Q 1419 2969 1181 2714 
Q 944 2459 888 2000 
L 2581 2000 
L 2581 2044 
Q 2556 2484 2343 2726 
Q 2131 2969 1769 2969 
z
" transform="scale(0.015625)"/>
      <path id="Roboto-Regular-20" transform="scale(0.015625)"/>
      <path id="Roboto-Regular-33" d="M 1219 2556 
L 1653 2556 
Q 2063 2563 2297 2772 
Q 2531 2981 2531 3338 
Q 2531 4138 1734 4138 
Q 1359 4138 1136 3923 
Q 913 3709 913 3356 
L 334 3356 
Q 334 3897 729 4255 
Q 1125 4613 1734 4613 
Q 2378 4613 2743 4272 
Q 3109 3931 3109 3325 
Q 3109 3028 2917 2750 
Q 2725 2472 2394 2334 
Q 2769 2216 2973 1941 
Q 3178 1666 3178 1269 
Q 3178 656 2778 296 
Q 2378 -63 1737 -63 
Q 1097 -63 695 284 
Q 294 631 294 1200 
L 875 1200 
Q 875 841 1109 625 
Q 1344 409 1738 409 
Q 2156 409 2378 628 
Q 2600 847 2600 1256 
Q 2600 1653 2356 1865 
Q 2113 2078 1653 2084 
L 1219 2084 
L 1219 2556 
z
" transform="scale(0.015625)"/>
      <path id="Roboto-Regular-2c" d="M 419 -906 
L 91 -681 
Q 384 -272 397 163 
L 397 684 
L 963 684 
L 963 231 
Q 963 -84 808 -400 
Q 653 -716 419 -906 
z
" transform="scale(0.015625)"/>
      <path id="DejaVuSans-Oblique-50" d="M 1081 4666 
L 2541 4666 
Q 3178 4666 3512 4369 
Q 3847 4072 3847 3500 
Q 3847 2731 3353 2303 
Q 2859 1875 1966 1875 
L 1172 1875 
L 806 0 
L 172 0 
L 1081 4666 
z
M 1613 4147 
L 1275 2394 
L 2069 2394 
Q 2606 2394 2893 2669 
Q 3181 2944 3181 3456 
Q 3181 3784 2986 3965 
Q 2791 4147 2438 4147 
L 1613 4147 
z
" transform="scale(0.015625)"/>
      <path id="DejaVuSans-Oblique-65" d="M 3078 2063 
Q 3088 2113 3092 2166 
Q 3097 2219 3097 2272 
Q 3097 2653 2873 2875 
Q 2650 3097 2266 3097 
Q 1838 3097 1509 2826 
Q 1181 2556 1013 2059 
L 3078 2063 
z
M 3578 1613 
L 903 1613 
Q 884 1494 878 1425 
Q 872 1356 872 1306 
Q 872 872 1139 634 
Q 1406 397 1894 397 
Q 2269 397 2603 481 
Q 2938 566 3225 728 
L 3116 159 
Q 2806 34 2476 -28 
Q 2147 -91 1806 -91 
Q 1078 -91 686 257 
Q 294 606 294 1247 
Q 294 1794 489 2264 
Q 684 2734 1063 3103 
Q 1306 3334 1642 3459 
Q 1978 3584 2356 3584 
Q 2950 3584 3301 3228 
Q 3653 2872 3653 2272 
Q 3653 2128 3634 1964 
Q 3616 1800 3578 1613 
z
" transform="scale(0.015625)"/>
      <path id="DejaVuSans-Oblique-64" d="M 2675 525 
Q 2444 222 2128 65 
Q 1813 -91 1428 -91 
Q 903 -91 598 267 
Q 294 625 294 1247 
Q 294 1766 478 2236 
Q 663 2706 1013 3078 
Q 1244 3325 1534 3454 
Q 1825 3584 2144 3584 
Q 2481 3584 2739 3421 
Q 2997 3259 3138 2956 
L 3513 4863 
L 4091 4863 
L 3144 0 
L 2566 0 
L 2675 525 
z
M 891 1350 
Q 891 897 1095 644 
Q 1300 391 1663 391 
Q 1931 391 2161 520 
Q 2391 650 2566 903 
Q 2750 1166 2856 1509 
Q 2963 1853 2963 2188 
Q 2963 2622 2758 2865 
Q 2553 3109 2194 3109 
Q 1922 3109 1687 2981 
Q 1453 2853 1288 2613 
Q 1106 2353 998 2009 
Q 891 1666 891 1350 
z
" transform="scale(0.015625)"/>
      <path id="DejaVuSans-Oblique-69" d="M 1172 4863 
L 1747 4863 
L 1606 4134 
L 1031 4134 
L 1172 4863 
z
M 909 3500 
L 1484 3500 
L 800 0 
L 225 0 
L 909 3500 
z
" transform="scale(0.015625)"/>
      <path id="DejaVuSans-Oblique-61" d="M 3438 1997 
L 3047 0 
L 2472 0 
L 2578 531 
Q 2325 219 2001 64 
Q 1678 -91 1281 -91 
Q 834 -91 548 182 
Q 263 456 263 884 
Q 263 1497 752 1853 
Q 1241 2209 2100 2209 
L 2900 2209 
L 2931 2363 
Q 2938 2388 2941 2417 
Q 2944 2447 2944 2509 
Q 2944 2788 2717 2942 
Q 2491 3097 2081 3097 
Q 1800 3097 1504 3025 
Q 1209 2953 897 2809 
L 997 3341 
Q 1322 3463 1633 3523 
Q 1944 3584 2234 3584 
Q 2853 3584 3176 3315 
Q 3500 3047 3500 2534 
Q 3500 2431 3484 2292 
Q 3469 2153 3438 1997 
z
M 2816 1759 
L 2241 1759 
Q 1534 1759 1195 1570 
Q 856 1381 856 984 
Q 856 709 1029 553 
Q 1203 397 1509 397 
Q 1978 397 2328 733 
Q 2678 1069 2791 1631 
L 2816 1759 
z
" transform="scale(0.015625)"/>
      <path id="DejaVuSans-Oblique-74" d="M 2706 3500 
L 2619 3053 
L 1472 3053 
L 1100 1153 
Q 1081 1047 1072 975 
Q 1063 903 1063 863 
Q 1063 663 1183 572 
Q 1303 481 1569 481 
L 2150 481 
L 2053 0 
L 1503 0 
Q 991 0 739 200 
Q 488 400 488 806 
Q 488 878 497 964 
Q 506 1050 525 1153 
L 897 3053 
L 409 3053 
L 500 3500 
L 978 3500 
L 1172 4494 
L 1747 4494 
L 1556 3500 
L 2706 3500 
z
" transform="scale(0.015625)"/>
      <path id="DejaVuSans-Oblique-72" d="M 2853 2969 
Q 2766 3016 2653 3041 
Q 2541 3066 2413 3066 
Q 1953 3066 1609 2717 
Q 1266 2369 1153 1784 
L 800 0 
L 225 0 
L 909 3500 
L 1484 3500 
L 1375 2956 
Q 1603 3259 1920 3421 
Q 2238 3584 2597 3584 
Q 2691 3584 2781 3573 
Q 2872 3563 2963 3538 
L 2853 2969 
z
" transform="scale(0.015625)"/>
      <path id="DejaVuSans-Oblique-63" d="M 3431 3366 
L 3316 2797 
Q 3109 2947 2876 3022 
Q 2644 3097 2394 3097 
Q 2119 3097 1870 3000 
Q 1622 2903 1453 2725 
Q 1184 2453 1037 2087 
Q 891 1722 891 1331 
Q 891 859 1127 628 
Q 1363 397 1844 397 
Q 2081 397 2348 469 
Q 2616 541 2906 684 
L 2797 116 
Q 2547 13 2283 -39 
Q 2019 -91 1741 -91 
Q 1044 -91 669 257 
Q 294 606 294 1253 
Q 294 1797 489 2255 
Q 684 2713 1069 3078 
Q 1331 3328 1684 3456 
Q 2038 3584 2456 3584 
Q 2700 3584 2940 3529 
Q 3181 3475 3431 3366 
z
" transform="scale(0.015625)"/>
      <path id="DejaVuSans-Oblique-6e" d="M 3566 2113 
L 3156 0 
L 2578 0 
L 2988 2091 
Q 3016 2238 3031 2350 
Q 3047 2463 3047 2528 
Q 3047 2791 2881 2937 
Q 2716 3084 2419 3084 
Q 1956 3084 1622 2776 
Q 1288 2469 1184 1941 
L 800 0 
L 225 0 
L 903 3500 
L 1478 3500 
L 1363 2950 
Q 1603 3253 1940 3418 
Q 2278 3584 2650 3584 
Q 3113 3584 3367 3334 
Q 3622 3084 3622 2631 
Q 3622 2519 3608 2391 
Q 3594 2263 3566 2113 
z
" transform="scale(0.015625)"/>
      <path id="DejaVuSans-Oblique-75" d="M 428 1388 
L 838 3500 
L 1416 3500 
L 1006 1409 
Q 975 1256 961 1147 
Q 947 1038 947 966 
Q 947 700 1109 554 
Q 1272 409 1569 409 
Q 2031 409 2368 721 
Q 2706 1034 2809 1563 
L 3194 3500 
L 3769 3500 
L 3091 0 
L 2516 0 
L 2631 550 
Q 2388 244 2052 76 
Q 1716 -91 1338 -91 
Q 878 -91 622 161 
Q 366 413 366 863 
Q 366 956 381 1097 
Q 397 1238 428 1388 
z
" transform="scale(0.015625)"/>
      <path id="DejaVuSans-Oblique-6c" d="M 1172 4863 
L 1747 4863 
L 800 0 
L 225 0 
L 1172 4863 
z
" transform="scale(0.015625)"/>
      <path id="DejaVuSans-Oblique-73" d="M 3200 3397 
L 3091 2853 
Q 2863 2978 2609 3040 
Q 2356 3103 2088 3103 
Q 1634 3103 1373 2948 
Q 1113 2794 1113 2528 
Q 1113 2219 1719 2053 
Q 1766 2041 1788 2034 
L 1972 1978 
Q 2547 1819 2739 1644 
Q 2931 1469 2931 1166 
Q 2931 609 2489 259 
Q 2047 -91 1331 -91 
Q 1053 -91 747 -37 
Q 441 16 72 128 
L 184 722 
Q 500 559 806 475 
Q 1113 391 1394 391 
Q 1816 391 2080 572 
Q 2344 753 2344 1031 
Q 2344 1331 1650 1516 
L 1591 1531 
L 1394 1581 
Q 956 1697 753 1886 
Q 550 2075 550 2369 
Q 550 2928 970 3256 
Q 1391 3584 2113 3584 
Q 2397 3584 2667 3537 
Q 2938 3491 3200 3397 
z
" transform="scale(0.015625)"/>
      <path id="DejaVuSans-Oblique-45" d="M 1081 4666 
L 4031 4666 
L 3928 4134 
L 1606 4134 
L 1338 2753 
L 3566 2753 
L 3463 2222 
L 1234 2222 
L 909 531 
L 3284 531 
L 3181 0 
L 172 0 
L 1081 4666 
z
" transform="scale(0.015625)"/>
      <path id="DejaVuSans-Oblique-52" d="M 1613 4147 
L 1294 2491 
L 2106 2491 
Q 2584 2491 2879 2755 
Q 3175 3019 3175 3444 
Q 3175 3784 2976 3965 
Q 2778 4147 2406 4147 
L 1613 4147 
z
M 2772 2241 
Q 2972 2194 3105 2009 
Q 3238 1825 3413 1275 
L 3809 0 
L 3144 0 
L 2778 1197 
Q 2638 1659 2453 1815 
Q 2269 1972 1888 1972 
L 1191 1972 
L 806 0 
L 172 0 
L 1081 4666 
L 2503 4666 
Q 3150 4666 3495 4373 
Q 3841 4081 3841 3531 
Q 3841 3044 3547 2687 
Q 3253 2331 2772 2241 
z
" transform="scale(0.015625)"/>
      <path id="DejaVuSans-Oblique-47" d="M 3494 697 
L 3738 1919 
L 2700 1919 
L 2797 2438 
L 4453 2438 
L 4050 384 
Q 3634 156 3143 32 
Q 2653 -91 2156 -91 
Q 1278 -91 783 396 
Q 288 884 288 1753 
Q 288 2475 589 3126 
Q 891 3778 1422 4213 
Q 1756 4484 2153 4617 
Q 2550 4750 3034 4750 
Q 3472 4750 3873 4639 
Q 4275 4528 4641 4306 
L 4513 3634 
Q 4231 3928 3853 4083 
Q 3475 4238 3047 4238 
Q 2550 4238 2172 4048 
Q 1794 3859 1497 3463 
Q 1244 3125 1098 2667 
Q 953 2209 953 1734 
Q 953 1081 1287 751 
Q 1622 422 2284 422 
Q 2616 422 2925 492 
Q 3234 563 3494 697 
z
" transform="scale(0.015625)"/>
      <path id="Roboto-Regular-44" d="M 528 0 
L 528 4550 
L 1813 4550 
Q 2406 4550 2862 4287 
Q 3319 4025 3567 3540 
Q 3816 3056 3819 2428 
L 3819 2138 
Q 3819 1494 3570 1009 
Q 3322 525 2861 265 
Q 2400 6 1788 0 
L 528 0 
z
M 1128 4056 
L 1128 491 
L 1759 491 
Q 2453 491 2839 922 
Q 3225 1353 3225 2150 
L 3225 2416 
Q 3225 3191 2861 3620 
Q 2497 4050 1828 4056 
L 1128 4056 
z
" transform="scale(0.015625)"/>
      <path id="Roboto-Regular-74" d="M 1222 4200 
L 1222 3381 
L 1853 3381 
L 1853 2934 
L 1222 2934 
L 1222 838 
Q 1222 634 1306 532 
Q 1391 431 1594 431 
Q 1694 431 1869 469 
L 1869 0 
Q 1641 -63 1425 -63 
Q 1038 -63 841 171 
Q 644 406 644 838 
L 644 2934 
L 28 2934 
L 28 3381 
L 644 3381 
L 644 4200 
L 1222 4200 
z
" transform="scale(0.015625)"/>
      <path id="Roboto-Regular-73" d="M 2406 897 
Q 2406 1131 2229 1261 
Q 2053 1391 1614 1484 
Q 1175 1578 917 1709 
Q 659 1841 536 2022 
Q 413 2203 413 2453 
Q 413 2869 764 3156 
Q 1116 3444 1663 3444 
Q 2238 3444 2595 3147 
Q 2953 2850 2953 2388 
L 2372 2388 
Q 2372 2625 2170 2797 
Q 1969 2969 1663 2969 
Q 1347 2969 1169 2831 
Q 991 2694 991 2472 
Q 991 2263 1156 2156 
Q 1322 2050 1755 1953 
Q 2188 1856 2456 1722 
Q 2725 1588 2854 1398 
Q 2984 1209 2984 938 
Q 2984 484 2621 210 
Q 2259 -63 1681 -63 
Q 1275 -63 962 81 
Q 650 225 473 483 
Q 297 741 297 1041 
L 875 1041 
Q 891 750 1108 579 
Q 1325 409 1681 409 
Q 2009 409 2207 542 
Q 2406 675 2406 897 
z
" transform="scale(0.015625)"/>
     </defs>
     <use xlink:href="#Roboto-Regular-53" transform="translate(0 0.015625)"/>
     <use xlink:href="#Roboto-Regular-61" transform="translate(59.326172 0.015625)"/>
     <use xlink:href="#Roboto-Regular-6d" transform="translate(113.720703 0.015625)"/>
     <use xlink:href="#Roboto-Regular-70" transform="translate(201.367188 0.015625)"/>
     <use xlink:href="#Roboto-Regular-6c" transform="translate(257.470703 0.015625)"/>
     <use xlink:href="#Roboto-Regular-65" transform="translate(281.738281 0.015625)"/>
     <use xlink:href="#Roboto-Regular-20" transform="translate(334.716797 0.015625)"/>
     <use xlink:href="#Roboto-Regular-33" transform="translate(359.472656 0.015625)"/>
     <use xlink:href="#Roboto-Regular-32" transform="translate(415.625 0.015625)"/>
     <use xlink:href="#Roboto-Regular-35" transform="translate(471.777344 0.015625)"/>
     <use xlink:href="#Roboto-Regular-2c" transform="translate(527.929688 0.015625)"/>
     <use xlink:href="#Roboto-Regular-20" transform="translate(547.558594 0.015625)"/>
     <use xlink:href="#DejaVuSans-Oblique-50" transform="translate(572.314453 0.015625)"/>
     <use xlink:href="#DejaVuSans-Oblique-65" transform="translate(632.617188 0.015625)"/>
     <use xlink:href="#DejaVuSans-Oblique-64" transform="translate(694.140625 0.015625)"/>
     <use xlink:href="#DejaVuSans-Oblique-69" transform="translate(757.617188 0.015625)"/>
     <use xlink:href="#DejaVuSans-Oblique-61" transform="translate(785.400391 0.015625)"/>
     <use xlink:href="#DejaVuSans-Oblique-74" transform="translate(846.679688 0.015625)"/>
     <use xlink:href="#DejaVuSans-Oblique-72" transform="translate(885.888672 0.015625)"/>
     <use xlink:href="#DejaVuSans-Oblique-69" transform="translate(927.001953 0.015625)"/>
     <use xlink:href="#DejaVuSans-Oblique-63" transform="translate(954.785156 0.015625)"/>
     <use xlink:href="#Roboto-Regular-20" transform="translate(1009.765625 0.015625)"/>
     <use xlink:href="#DejaVuSans-Oblique-61" transform="translate(1034.521484 0.015625)"/>
     <use xlink:href="#DejaVuSans-Oblique-6e" transform="translate(1095.800781 0.015625)"/>
     <use xlink:href="#DejaVuSans-Oblique-64" transform="translate(1159.179688 0.015625)"/>
     <use xlink:href="#Roboto-Regular-20" transform="translate(1222.65625 0.015625)"/>
     <use xlink:href="#DejaVuSans-Oblique-61" transform="translate(1247.412109 0.015625)"/>
     <use xlink:href="#DejaVuSans-Oblique-64" transform="translate(1308.691406 0.015625)"/>
     <use xlink:href="#DejaVuSans-Oblique-75" transform="translate(1372.167969 0.015625)"/>
     <use xlink:href="#DejaVuSans-Oblique-6c" transform="translate(1435.546875 0.015625)"/>
     <use xlink:href="#DejaVuSans-Oblique-74" transform="translate(1463.330078 0.015625)"/>
     <use xlink:href="#DejaVuSans-Oblique-73" transform="translate(1502.539062 0.015625)"/>
     <use xlink:href="#Roboto-Regular-20" transform="translate(1554.638672 0.015625)"/>
     <use xlink:href="#DejaVuSans-Oblique-45" transform="translate(1579.394531 0.015625)"/>
     <use xlink:href="#DejaVuSans-Oblique-52" transform="translate(1642.578125 0.015625)"/>
     <use xlink:href="#DejaVuSans-Oblique-47" transform="translate(1712.060547 0.015625)"/>
     <use xlink:href="#Roboto-Regular-20" transform="translate(1789.550781 0.015625)"/>
     <use xlink:href="#Roboto-Regular-44" transform="translate(1814.306641 0.015625)"/>
     <use xlink:href="#Roboto-Regular-61" transform="translate(1879.882812 0.015625)"/>
     <use xlink:href="#Roboto-Regular-74" transform="translate(1934.277344 0.015625)"/>
     <use xlink:href="#Roboto-Regular-61" transform="translate(1966.943359 0.015625)"/>
     <use xlink:href="#Roboto-Regular-73" transform="translate(2021.337891 0.015625)"/>
     <use xlink:href="#Roboto-Regular-65" transform="translate(2072.900391 0.015625)"/>
     <use xlink:href="#Roboto-Regular-74" transform="translate(2125.878906 0.015625)"/>
    </g>
   </g>
   <g id="text_17">
    <!-- Healthy Photopic Response -->
    <g style="fill: #2d1754" transform="translate(502.052375 56.8575)scale(0.16 -0.16)">
     <defs>
      <path id="Roboto-Medium-48" d="M 4075 0 
L 3288 0 
L 3288 2022 
L 1253 2022 
L 1253 0 
L 463 0 
L 463 4550 
L 1253 4550 
L 1253 2656 
L 3288 2656 
L 3288 4550 
L 4075 4550 
L 4075 0 
z
" transform="scale(0.015625)"/>
      <path id="Roboto-Medium-65" d="M 1878 -63 
Q 1156 -63 707 392 
Q 259 847 259 1603 
L 259 1697 
Q 259 2203 454 2601 
Q 650 3000 1003 3222 
Q 1356 3444 1791 3444 
Q 2481 3444 2857 3003 
Q 3234 2563 3234 1756 
L 3234 1450 
L 1025 1450 
Q 1059 1031 1304 787 
Q 1550 544 1922 544 
Q 2444 544 2772 966 
L 3181 575 
Q 2978 272 2639 104 
Q 2300 -63 1878 -63 
z
M 1788 2834 
Q 1475 2834 1283 2615 
Q 1091 2397 1038 2006 
L 2484 2006 
L 2484 2063 
Q 2459 2444 2281 2639 
Q 2103 2834 1788 2834 
z
" transform="scale(0.015625)"/>
      <path id="Roboto-Medium-61" d="M 2409 0 
Q 2359 97 2322 316 
Q 1959 -63 1434 -63 
Q 925 -63 603 228 
Q 281 519 281 947 
Q 281 1488 682 1777 
Q 1084 2066 1831 2066 
L 2297 2066 
L 2297 2288 
Q 2297 2550 2150 2708 
Q 2003 2866 1703 2866 
Q 1444 2866 1278 2736 
Q 1113 2606 1113 2406 
L 353 2406 
Q 353 2684 537 2926 
Q 722 3169 1039 3306 
Q 1356 3444 1747 3444 
Q 2341 3444 2694 3145 
Q 3047 2847 3056 2306 
L 3056 781 
Q 3056 325 3184 53 
L 3184 0 
L 2409 0 
z
M 1575 547 
Q 1800 547 1998 656 
Q 2197 766 2297 950 
L 2297 1588 
L 1888 1588 
Q 1466 1588 1253 1441 
Q 1041 1294 1041 1025 
Q 1041 806 1186 676 
Q 1331 547 1575 547 
z
" transform="scale(0.015625)"/>
      <path id="Roboto-Medium-6c" d="M 1197 0 
L 438 0 
L 438 4800 
L 1197 4800 
L 1197 0 
z
" transform="scale(0.015625)"/>
      <path id="Roboto-Medium-74" d="M 1341 4203 
L 1341 3381 
L 1938 3381 
L 1938 2819 
L 1341 2819 
L 1341 931 
Q 1341 738 1417 652 
Q 1494 566 1691 566 
Q 1822 566 1956 597 
L 1956 9 
Q 1697 -63 1456 -63 
Q 581 -63 581 903 
L 581 2819 
L 25 2819 
L 25 3381 
L 581 3381 
L 581 4203 
L 1341 4203 
z
" transform="scale(0.015625)"/>
      <path id="Roboto-Medium-68" d="M 1138 3013 
Q 1509 3444 2078 3444 
Q 3159 3444 3175 2209 
L 3175 0 
L 2416 0 
L 2416 2181 
Q 2416 2531 2264 2676 
Q 2113 2822 1819 2822 
Q 1363 2822 1138 2416 
L 1138 0 
L 378 0 
L 378 4800 
L 1138 4800 
L 1138 3013 
z
" transform="scale(0.015625)"/>
      <path id="Roboto-Medium-79" d="M 1572 1088 
L 2259 3381 
L 3069 3381 
L 1725 -513 
Q 1416 -1366 675 -1366 
Q 509 -1366 309 -1309 
L 309 -722 
L 453 -731 
Q 741 -731 886 -626 
Q 1031 -522 1116 -275 
L 1225 16 
L 38 3381 
L 856 3381 
L 1572 1088 
z
" transform="scale(0.015625)"/>
      <path id="Roboto-Medium-20" transform="scale(0.015625)"/>
      <path id="Roboto-Medium-50" d="M 1253 1691 
L 1253 0 
L 463 0 
L 463 4550 
L 2203 4550 
Q 2966 4550 3414 4153 
Q 3863 3756 3863 3103 
Q 3863 2434 3423 2062 
Q 2984 1691 2194 1691 
L 1253 1691 
z
M 1253 2325 
L 2203 2325 
Q 2625 2325 2847 2523 
Q 3069 2722 3069 3097 
Q 3069 3466 2844 3686 
Q 2619 3906 2225 3913 
L 1253 3913 
L 1253 2325 
z
" transform="scale(0.015625)"/>
      <path id="Roboto-Medium-6f" d="M 247 1722 
Q 247 2219 444 2617 
Q 641 3016 997 3230 
Q 1353 3444 1816 3444 
Q 2500 3444 2926 3003 
Q 3353 2563 3388 1834 
L 3391 1656 
Q 3391 1156 3198 762 
Q 3006 369 2648 153 
Q 2291 -63 1822 -63 
Q 1106 -63 676 414 
Q 247 891 247 1684 
L 247 1722 
z
M 1006 1656 
Q 1006 1134 1222 839 
Q 1438 544 1822 544 
Q 2206 544 2420 844 
Q 2634 1144 2634 1722 
Q 2634 2234 2414 2534 
Q 2194 2834 1816 2834 
Q 1444 2834 1225 2539 
Q 1006 2244 1006 1656 
z
" transform="scale(0.015625)"/>
      <path id="Roboto-Medium-70" d="M 3350 1656 
Q 3350 872 2994 404 
Q 2638 -63 2038 -63 
Q 1481 -63 1147 303 
L 1147 -1300 
L 388 -1300 
L 388 3381 
L 1088 3381 
L 1119 3038 
Q 1453 3444 2028 3444 
Q 2647 3444 2998 2983 
Q 3350 2522 3350 1703 
L 3350 1656 
z
M 2594 1722 
Q 2594 2228 2392 2525 
Q 2191 2822 1816 2822 
Q 1350 2822 1147 2438 
L 1147 938 
Q 1353 544 1822 544 
Q 2184 544 2389 836 
Q 2594 1128 2594 1722 
z
" transform="scale(0.015625)"/>
      <path id="Roboto-Medium-69" d="M 1197 0 
L 438 0 
L 438 3381 
L 1197 3381 
L 1197 0 
z
M 391 4259 
Q 391 4434 502 4550 
Q 613 4666 819 4666 
Q 1025 4666 1137 4550 
Q 1250 4434 1250 4259 
Q 1250 4088 1137 3973 
Q 1025 3859 819 3859 
Q 613 3859 502 3973 
Q 391 4088 391 4259 
z
" transform="scale(0.015625)"/>
      <path id="Roboto-Medium-63" d="M 1778 544 
Q 2063 544 2250 709 
Q 2438 875 2450 1119 
L 3166 1119 
Q 3153 803 2968 529 
Q 2784 256 2468 96 
Q 2153 -63 1788 -63 
Q 1078 -63 662 396 
Q 247 856 247 1666 
L 247 1744 
Q 247 2516 659 2980 
Q 1072 3444 1784 3444 
Q 2388 3444 2767 3092 
Q 3147 2741 3166 2169 
L 2450 2169 
Q 2438 2459 2252 2646 
Q 2066 2834 1778 2834 
Q 1409 2834 1209 2567 
Q 1009 2300 1006 1756 
L 1006 1634 
Q 1006 1084 1204 814 
Q 1403 544 1778 544 
z
" transform="scale(0.015625)"/>
      <path id="Roboto-Medium-52" d="M 2134 1753 
L 1253 1753 
L 1253 0 
L 463 0 
L 463 4550 
L 2063 4550 
Q 2850 4550 3278 4197 
Q 3706 3844 3706 3175 
Q 3706 2719 3486 2411 
Q 3266 2103 2872 1938 
L 3894 41 
L 3894 0 
L 3047 0 
L 2134 1753 
z
M 1253 2388 
L 2066 2388 
Q 2466 2388 2691 2589 
Q 2916 2791 2916 3141 
Q 2916 3506 2708 3706 
Q 2500 3906 2088 3913 
L 1253 3913 
L 1253 2388 
z
" transform="scale(0.015625)"/>
      <path id="Roboto-Medium-73" d="M 2284 919 
Q 2284 1122 2117 1228 
Q 1950 1334 1562 1415 
Q 1175 1497 916 1622 
Q 347 1897 347 2419 
Q 347 2856 715 3150 
Q 1084 3444 1653 3444 
Q 2259 3444 2632 3144 
Q 3006 2844 3006 2366 
L 2247 2366 
Q 2247 2584 2084 2729 
Q 1922 2875 1653 2875 
Q 1403 2875 1245 2759 
Q 1088 2644 1088 2450 
Q 1088 2275 1234 2178 
Q 1381 2081 1828 1982 
Q 2275 1884 2529 1748 
Q 2784 1613 2907 1422 
Q 3031 1231 3031 959 
Q 3031 503 2653 220 
Q 2275 -63 1663 -63 
Q 1247 -63 922 87 
Q 597 238 415 500 
Q 234 763 234 1066 
L 972 1066 
Q 988 797 1175 651 
Q 1363 506 1672 506 
Q 1972 506 2128 620 
Q 2284 734 2284 919 
z
" transform="scale(0.015625)"/>
      <path id="Roboto-Medium-6e" d="M 1094 3381 
L 1116 2991 
Q 1491 3444 2100 3444 
Q 3156 3444 3175 2234 
L 3175 0 
L 2416 0 
L 2416 2191 
Q 2416 2513 2277 2667 
Q 2138 2822 1822 2822 
Q 1363 2822 1138 2406 
L 1138 0 
L 378 0 
L 378 3381 
L 1094 3381 
z
" transform="scale(0.015625)"/>
     </defs>
     <use xlink:href="#Roboto-Medium-48"/>
     <use xlink:href="#Roboto-Medium-65" x="71.044922"/>
     <use xlink:href="#Roboto-Medium-61" x="124.707031"/>
     <use xlink:href="#Roboto-Medium-6c" x="178.808594"/>
     <use xlink:href="#Roboto-Medium-74" x="204.345703"/>
     <use xlink:href="#Roboto-Medium-68" x="237.597656"/>
     <use xlink:href="#Roboto-Medium-79" x="293.115234"/>
     <use xlink:href="#Roboto-Medium-20" x="341.796875"/>
     <use xlink:href="#Roboto-Medium-50" x="366.699219"/>
     <use xlink:href="#Roboto-Medium-68" x="430.615234"/>
     <use xlink:href="#Roboto-Medium-6f" x="486.132812"/>
     <use xlink:href="#Roboto-Medium-74" x="543.066406"/>
     <use xlink:href="#Roboto-Medium-6f" x="576.318359"/>
     <use xlink:href="#Roboto-Medium-70" x="633.251953"/>
     <use xlink:href="#Roboto-Medium-69" x="689.550781"/>
     <use xlink:href="#Roboto-Medium-63" x="715.087891"/>
     <use xlink:href="#Roboto-Medium-20" x="767.431641"/>
     <use xlink:href="#Roboto-Medium-52" x="792.333984"/>
     <use xlink:href="#Roboto-Medium-65" x="854.736328"/>
     <use xlink:href="#Roboto-Medium-73" x="908.398438"/>
     <use xlink:href="#Roboto-Medium-70" x="960.009766"/>
     <use xlink:href="#Roboto-Medium-6f" x="1016.308594"/>
     <use xlink:href="#Roboto-Medium-6e" x="1073.242188"/>
     <use xlink:href="#Roboto-Medium-73" x="1128.857422"/>
     <use xlink:href="#Roboto-Medium-65" x="1180.46875"/>
    </g>
   </g>
  </g>
  <g id="axes_2">
   <g id="patch_7">
    <path d="M 60.364751 593.0375 
L 1141.2 593.0375 
L 1141.2 378.18875 
L 60.364751 378.18875 
z
" style="fill: #eaeaf2"/>
   </g>
   <g id="matplotlib.axis_3">
    <g id="xtick_7">
     <g id="line2d_26">
      <path d="M 107.528471 593.0375 
L 107.528471 378.18875 
" clip-path="url(#p37af00a02a)" style="fill: none; stroke: #ffffff; stroke-linecap: round"/>
     </g>
     <g id="line2d_27"/>
     <g id="text_18">
      <!-- 0 -->
      <g style="fill: #262626" transform="translate(104.720658 607.5375)scale(0.1 -0.1)">
       <use xlink:href="#Roboto-Regular-30"/>
      </g>
     </g>
    </g>
    <g id="xtick_8">
     <g id="line2d_28">
      <path d="M 304.043971 593.0375 
L 304.043971 378.18875 
" clip-path="url(#p37af00a02a)" style="fill: none; stroke: #ffffff; stroke-linecap: round"/>
     </g>
     <g id="line2d_29"/>
     <g id="text_19">
      <!-- 50 -->
      <g style="fill: #262626" transform="translate(298.428346 607.5375)scale(0.1 -0.1)">
       <use xlink:href="#Roboto-Regular-35"/>
       <use xlink:href="#Roboto-Regular-30" x="56.152344"/>
      </g>
     </g>
    </g>
    <g id="xtick_9">
     <g id="line2d_30">
      <path d="M 500.559471 593.0375 
L 500.559471 378.18875 
" clip-path="url(#p37af00a02a)" style="fill: none; stroke: #ffffff; stroke-linecap: round"/>
     </g>
     <g id="line2d_31"/>
     <g id="text_20">
      <!-- 100 -->
      <g style="fill: #262626" transform="translate(492.136033 607.5375)scale(0.1 -0.1)">
       <use xlink:href="#Roboto-Regular-31"/>
       <use xlink:href="#Roboto-Regular-30" x="56.152344"/>
       <use xlink:href="#Roboto-Regular-30" x="112.304688"/>
      </g>
     </g>
    </g>
    <g id="xtick_10">
     <g id="line2d_32">
      <path d="M 697.07497 593.0375 
L 697.07497 378.18875 
" clip-path="url(#p37af00a02a)" style="fill: none; stroke: #ffffff; stroke-linecap: round"/>
     </g>
     <g id="line2d_33"/>
     <g id="text_21">
      <!-- 150 -->
      <g style="fill: #262626" transform="translate(688.651533 607.5375)scale(0.1 -0.1)">
       <use xlink:href="#Roboto-Regular-31"/>
       <use xlink:href="#Roboto-Regular-35" x="56.152344"/>
       <use xlink:href="#Roboto-Regular-30" x="112.304688"/>
      </g>
     </g>
    </g>
    <g id="xtick_11">
     <g id="line2d_34">
      <path d="M 893.59047 593.0375 
L 893.59047 378.18875 
" clip-path="url(#p37af00a02a)" style="fill: none; stroke: #ffffff; stroke-linecap: round"/>
     </g>
     <g id="line2d_35"/>
     <g id="text_22">
      <!-- 200 -->
      <g style="fill: #262626" transform="translate(885.167033 607.5375)scale(0.1 -0.1)">
       <use xlink:href="#Roboto-Regular-32"/>
       <use xlink:href="#Roboto-Regular-30" x="56.152344"/>
       <use xlink:href="#Roboto-Regular-30" x="112.304688"/>
      </g>
     </g>
    </g>
    <g id="xtick_12">
     <g id="line2d_36">
      <path d="M 1090.10597 593.0375 
L 1090.10597 378.18875 
" clip-path="url(#p37af00a02a)" style="fill: none; stroke: #ffffff; stroke-linecap: round"/>
     </g>
     <g id="line2d_37"/>
     <g id="text_23">
      <!-- 250 -->
      <g style="fill: #262626" transform="translate(1081.682533 607.5375)scale(0.1 -0.1)">
       <use xlink:href="#Roboto-Regular-32"/>
       <use xlink:href="#Roboto-Regular-35" x="56.152344"/>
       <use xlink:href="#Roboto-Regular-30" x="112.304688"/>
      </g>
     </g>
    </g>
    <g id="text_24">
     <!-- (ﻪﯿﻧﺎﺛ ﯽﻠﯿﻣ) ﻥﺎﻣﺯ -->
     <g style="fill: #056385" transform="translate(563.773157 632.855)scale(0.14 -0.14)">
      <use xlink:href="#BNazanin-28"/>
      <use xlink:href="#BNazanin-feea" x="28.125"/>
      <use xlink:href="#BNazanin-fbff" x="69.628906"/>
      <use xlink:href="#BNazanin-fee7" x="100.390625"/>
      <use xlink:href="#BNazanin-fe8e" x="116.650391"/>
      <use xlink:href="#BNazanin-fe9b" x="140.087891"/>
      <use xlink:href="#BNazanin-20" x="161.230469"/>
      <use xlink:href="#BNazanin-fbfd" x="185.644531"/>
      <use xlink:href="#BNazanin-fee0" x="247.998047"/>
      <use xlink:href="#BNazanin-fbff" x="271.09375"/>
      <use xlink:href="#BNazanin-fee3" x="301.855469"/>
      <use xlink:href="#BNazanin-29" x="334.179688"/>
      <use xlink:href="#BNazanin-20" x="362.304688"/>
      <use xlink:href="#BNazanin-fee5" x="386.71875"/>
      <use xlink:href="#BNazanin-fe8e" x="441.308594"/>
      <use xlink:href="#BNazanin-fee3" x="464.746094"/>
      <use xlink:href="#BNazanin-feaf" x="497.070312"/>
     </g>
    </g>
   </g>
   <g id="matplotlib.axis_4">
    <g id="ytick_7">
     <g id="line2d_38">
      <path d="M 60.364751 552.502151 
L 1141.2 552.502151 
" clip-path="url(#p37af00a02a)" style="fill: none; stroke: #ffffff; stroke-linecap: round"/>
     </g>
     <g id="line2d_39"/>
     <g id="text_25">
      <!-- $\mathdefault{−0.5}$ -->
      <g style="fill: #262626" transform="translate(33.764751 556.252151)scale(0.1 -0.1)">
       <use xlink:href="#Roboto-Regular-2212" transform="translate(0 0.921875)"/>
       <use xlink:href="#Roboto-Regular-30" transform="translate(57.128906 0.921875)"/>
       <use xlink:href="#Roboto-Regular-2e" transform="translate(113.28125 0.921875)"/>
       <use xlink:href="#Roboto-Regular-35" transform="translate(139.599609 0.921875)"/>
      </g>
     </g>
    </g>
    <g id="ytick_8">
     <g id="line2d_40">
      <path d="M 60.364751 507.363354 
L 1141.2 507.363354 
" clip-path="url(#p37af00a02a)" style="fill: none; stroke: #ffffff; stroke-linecap: round"/>
     </g>
     <g id="line2d_41"/>
     <g id="text_26">
      <!-- $\mathdefault{0.0}$ -->
      <g style="fill: #262626" transform="translate(39.464751 511.113354)scale(0.1 -0.1)">
       <use xlink:href="#Roboto-Regular-30" transform="translate(0 0.921875)"/>
       <use xlink:href="#Roboto-Regular-2e" transform="translate(56.152344 0.921875)"/>
       <use xlink:href="#Roboto-Regular-30" transform="translate(82.470703 0.921875)"/>
      </g>
     </g>
    </g>
    <g id="ytick_9">
     <g id="line2d_42">
      <path d="M 60.364751 462.224557 
L 1141.2 462.224557 
" clip-path="url(#p37af00a02a)" style="fill: none; stroke: #ffffff; stroke-linecap: round"/>
     </g>
     <g id="line2d_43"/>
     <g id="text_27">
      <!-- $\mathdefault{0.5}$ -->
      <g style="fill: #262626" transform="translate(39.464751 465.974557)scale(0.1 -0.1)">
       <use xlink:href="#Roboto-Regular-30" transform="translate(0 0.921875)"/>
       <use xlink:href="#Roboto-Regular-2e" transform="translate(56.152344 0.921875)"/>
       <use xlink:href="#Roboto-Regular-35" transform="translate(82.470703 0.921875)"/>
      </g>
     </g>
    </g>
    <g id="ytick_10">
     <g id="line2d_44">
      <path d="M 60.364751 417.085759 
L 1141.2 417.085759 
" clip-path="url(#p37af00a02a)" style="fill: none; stroke: #ffffff; stroke-linecap: round"/>
     </g>
     <g id="line2d_45"/>
     <g id="text_28">
      <!-- $\mathdefault{1.0}$ -->
      <g style="fill: #262626" transform="translate(39.464751 420.835759)scale(0.1 -0.1)">
       <use xlink:href="#Roboto-Regular-31" transform="translate(0 0.921875)"/>
       <use xlink:href="#Roboto-Regular-2e" transform="translate(56.152344 0.921875)"/>
       <use xlink:href="#Roboto-Regular-30" transform="translate(82.470703 0.921875)"/>
      </g>
     </g>
    </g>
    <g id="text_29">
     <!-- (ﺖﻟﻭ) ﻩﺯﺍﺪﻧﺍ -->
     <g style="fill: #056385" transform="translate(20.306313 510.715781)rotate(-90)scale(0.14 -0.14)">
      <use xlink:href="#BNazanin-28"/>
      <use xlink:href="#BNazanin-fe96" x="28.125"/>
      <use xlink:href="#BNazanin-fedf" x="101.904297"/>
      <use xlink:href="#BNazanin-feed" x="117.919922"/>
      <use xlink:href="#BNazanin-29" x="150.097656"/>
      <use xlink:href="#BNazanin-20" x="178.222656"/>
      <use xlink:href="#BNazanin-fee9" x="202.636719"/>
      <use xlink:href="#BNazanin-feaf" x="233.935547"/>
      <use xlink:href="#BNazanin-fe8d" x="265.527344"/>
      <use xlink:href="#BNazanin-feaa" x="280.224609"/>
      <use xlink:href="#BNazanin-fee7" x="327.636719"/>
      <use xlink:href="#BNazanin-fe8d" x="343.896484"/>
     </g>
    </g>
    <g id="text_30">
     <!-- $\times\mathdefault{10^{−5}}\mathdefault{}$ -->
     <g style="fill: #262626" transform="translate(60.364751 375.18875)scale(0.1 -0.1)">
      <use xlink:href="#DejaVuSans-d7" transform="translate(0 0.254688)"/>
      <use xlink:href="#Roboto-Regular-31" transform="translate(83.789062 0.254688)"/>
      <use xlink:href="#Roboto-Regular-30" transform="translate(139.941406 0.254688)"/>
      <use xlink:href="#Roboto-Regular-2212" transform="translate(197.018242 37.234375)scale(0.7)"/>
      <use xlink:href="#Roboto-Regular-35" transform="translate(237.008477 37.234375)scale(0.7)"/>
     </g>
    </g>
   </g>
   <g id="line2d_46">
    <path d="M 109.493626 491.815177 
L 117.354246 494.373013 
L 125.214866 497.193761 
L 138.970951 502.420435 
L 152.727036 507.577018 
L 162.552811 510.963276 
L 170.413431 513.42277 
L 178.274051 515.598278 
L 186.134671 517.52705 
L 193.995291 519.211337 
L 201.855911 520.613071 
L 211.681686 522.127402 
L 221.507461 523.441955 
L 237.228701 525.253454 
L 249.019631 526.384819 
L 256.880251 526.969478 
L 264.740871 527.333158 
L 270.636336 527.422871 
L 276.531801 527.296633 
L 282.427266 526.912245 
L 286.357576 526.48613 
L 290.287886 525.905086 
L 294.218196 525.152772 
L 298.148506 524.213187 
L 302.078816 523.070972 
L 306.009126 521.711754 
L 309.939436 520.122463 
L 313.869746 518.291647 
L 317.800056 516.209774 
L 321.730366 513.86951 
L 325.660676 511.265974 
L 329.590986 508.396956 
L 333.521296 505.263101 
L 337.451606 501.868057 
L 341.381916 498.218567 
L 345.312226 494.324529 
L 349.242536 490.198989 
L 355.138001 483.612777 
L 361.033466 476.609787 
L 366.928931 469.271033 
L 374.789551 459.126361 
L 394.441101 433.553772 
L 400.336566 426.292386 
L 406.232031 419.421558 
L 410.162341 415.109692 
L 414.092651 411.046226 
L 418.022961 407.257152 
L 421.953271 403.765798 
L 425.883581 400.592519 
L 429.813891 397.754442 
L 433.744201 395.265327 
L 437.674511 393.135389 
L 441.604821 391.371214 
L 445.535131 389.975789 
L 449.465441 388.948434 
L 453.395751 388.284984 
L 457.326061 387.97783 
L 461.256371 388.01615 
L 465.186681 388.38614 
L 469.116991 389.071249 
L 473.047301 390.05251 
L 476.977611 391.308862 
L 480.907921 392.817537 
L 484.838231 394.554395 
L 488.768541 396.494378 
L 494.664006 399.729082 
L 500.559471 403.2764 
L 508.420091 408.346917 
L 520.211021 416.313898 
L 533.967106 425.56702 
L 543.792881 431.87562 
L 551.653501 436.676843 
L 561.479276 442.380307 
L 573.270206 448.900144 
L 594.88691 460.721199 
L 604.712685 466.404411 
L 612.573305 471.20935 
L 620.433925 476.277927 
L 628.294545 481.611725 
L 638.12032 488.606262 
L 649.91125 497.316318 
L 665.63249 508.93787 
L 673.49311 514.493842 
L 679.388575 518.451928 
L 685.28404 522.179102 
L 691.179505 525.634104 
L 697.07497 528.782501 
L 702.970435 531.598132 
L 708.8659 534.064218 
L 712.79621 535.510373 
L 716.72652 536.798629 
L 722.621985 538.441447 
L 728.51745 539.753315 
L 734.412915 540.761782 
L 740.30838 541.50327 
L 746.203845 542.021808 
L 754.064465 542.453642 
L 765.855395 542.81194 
L 777.646325 543.226035 
L 785.506945 543.742586 
L 791.40241 544.332213 
L 797.297875 545.134332 
L 803.19334 546.174517 
L 809.088805 547.468462 
L 814.98427 549.021466 
L 820.879735 550.828251 
L 826.7752 552.873151 
L 832.670665 555.1306 
L 840.531285 558.410175 
L 850.35706 562.79372 
L 866.0783 569.878285 
L 873.93892 573.159896 
L 879.834385 575.394615 
L 885.72985 577.37593 
L 891.625315 579.056242 
L 895.555625 579.988797 
L 899.485935 580.759215 
L 903.416245 581.359138 
L 907.346555 581.782095 
L 911.276865 582.02358 
L 915.207175 582.081121 
L 919.137485 581.954348 
L 923.067795 581.644985 
L 926.998105 581.156875 
L 930.928415 580.495947 
L 934.858725 579.670607 
L 940.75419 578.143442 
L 946.649655 576.303227 
L 952.54512 574.205049 
L 960.40574 571.124575 
L 970.231515 566.984629 
L 980.05729 562.884099 
L 987.91791 559.837129 
L 993.813375 557.783999 
L 999.70884 555.999752 
L 1005.604305 554.537082 
L 1009.534615 553.761643 
L 1013.464925 553.168814 
L 1017.395235 552.780214 
L 1021.325545 552.60581 
L 1025.255855 552.647094 
L 1029.186165 552.907697 
L 1033.116475 553.388393 
L 1037.046785 554.096976 
L 1040.977095 555.034231 
L 1044.907405 556.192047 
L 1048.837715 557.559572 
L 1052.768025 559.135069 
L 1056.698335 560.906166 
L 1060.628645 562.86136 
L 1064.558955 564.993083 
L 1070.45442 568.487286 
L 1076.349885 572.276503 
L 1084.210505 577.66305 
L 1092.071125 583.271648 
L 1092.071125 583.271648 
" clip-path="url(#p37af00a02a)" style="fill: none; stroke: #000000; stroke-width: 1.2; stroke-linecap: round"/>
   </g>
   <g id="patch_8">
    <path d="M 60.364751 593.0375 
L 60.364751 378.18875 
" style="fill: none"/>
   </g>
   <g id="patch_9">
    <path d="M 1141.2 593.0375 
L 1141.2 378.18875 
" style="fill: none"/>
   </g>
   <g id="patch_10">
    <path d="M 60.364751 593.0375 
L 1141.2 593.0375 
" style="fill: none"/>
   </g>
   <g id="patch_11">
    <path d="M 60.364751 378.18875 
L 1141.2 378.18875 
" style="fill: none"/>
   </g>
   <g id="text_31">
    <!-- Sample 325, $\it{Pediatric}$ $\it{and}$ $\it{adults}$ $\it{ERG}$ Dataset -->
    <g style="fill: #262626" transform="translate(968.48 591.3575)scale(0.08 -0.08)">
     <use xlink:href="#Roboto-Regular-53" transform="translate(0 0.015625)"/>
     <use xlink:href="#Roboto-Regular-61" transform="translate(59.326172 0.015625)"/>
     <use xlink:href="#Roboto-Regular-6d" transform="translate(113.720703 0.015625)"/>
     <use xlink:href="#Roboto-Regular-70" transform="translate(201.367188 0.015625)"/>
     <use xlink:href="#Roboto-Regular-6c" transform="translate(257.470703 0.015625)"/>
     <use xlink:href="#Roboto-Regular-65" transform="translate(281.738281 0.015625)"/>
     <use xlink:href="#Roboto-Regular-20" transform="translate(334.716797 0.015625)"/>
     <use xlink:href="#Roboto-Regular-33" transform="translate(359.472656 0.015625)"/>
     <use xlink:href="#Roboto-Regular-32" transform="translate(415.625 0.015625)"/>
     <use xlink:href="#Roboto-Regular-35" transform="translate(471.777344 0.015625)"/>
     <use xlink:href="#Roboto-Regular-2c" transform="translate(527.929688 0.015625)"/>
     <use xlink:href="#Roboto-Regular-20" transform="translate(547.558594 0.015625)"/>
     <use xlink:href="#DejaVuSans-Oblique-50" transform="translate(572.314453 0.015625)"/>
     <use xlink:href="#DejaVuSans-Oblique-65" transform="translate(632.617188 0.015625)"/>
     <use xlink:href="#DejaVuSans-Oblique-64" transform="translate(694.140625 0.015625)"/>
     <use xlink:href="#DejaVuSans-Oblique-69" transform="translate(757.617188 0.015625)"/>
     <use xlink:href="#DejaVuSans-Oblique-61" transform="translate(785.400391 0.015625)"/>
     <use xlink:href="#DejaVuSans-Oblique-74" transform="translate(846.679688 0.015625)"/>
     <use xlink:href="#DejaVuSans-Oblique-72" transform="translate(885.888672 0.015625)"/>
     <use xlink:href="#DejaVuSans-Oblique-69" transform="translate(927.001953 0.015625)"/>
     <use xlink:href="#DejaVuSans-Oblique-63" transform="translate(954.785156 0.015625)"/>
     <use xlink:href="#Roboto-Regular-20" transform="translate(1009.765625 0.015625)"/>
     <use xlink:href="#DejaVuSans-Oblique-61" transform="translate(1034.521484 0.015625)"/>
     <use xlink:href="#DejaVuSans-Oblique-6e" transform="translate(1095.800781 0.015625)"/>
     <use xlink:href="#DejaVuSans-Oblique-64" transform="translate(1159.179688 0.015625)"/>
     <use xlink:href="#Roboto-Regular-20" transform="translate(1222.65625 0.015625)"/>
     <use xlink:href="#DejaVuSans-Oblique-61" transform="translate(1247.412109 0.015625)"/>
     <use xlink:href="#DejaVuSans-Oblique-64" transform="translate(1308.691406 0.015625)"/>
     <use xlink:href="#DejaVuSans-Oblique-75" transform="translate(1372.167969 0.015625)"/>
     <use xlink:href="#DejaVuSans-Oblique-6c" transform="translate(1435.546875 0.015625)"/>
     <use xlink:href="#DejaVuSans-Oblique-74" transform="translate(1463.330078 0.015625)"/>
     <use xlink:href="#DejaVuSans-Oblique-73" transform="translate(1502.539062 0.015625)"/>
     <use xlink:href="#Roboto-Regular-20" transform="translate(1554.638672 0.015625)"/>
     <use xlink:href="#DejaVuSans-Oblique-45" transform="translate(1579.394531 0.015625)"/>
     <use xlink:href="#DejaVuSans-Oblique-52" transform="translate(1642.578125 0.015625)"/>
     <use xlink:href="#DejaVuSans-Oblique-47" transform="translate(1712.060547 0.015625)"/>
     <use xlink:href="#Roboto-Regular-20" transform="translate(1789.550781 0.015625)"/>
     <use xlink:href="#Roboto-Regular-44" transform="translate(1814.306641 0.015625)"/>
     <use xlink:href="#Roboto-Regular-61" transform="translate(1879.882812 0.015625)"/>
     <use xlink:href="#Roboto-Regular-74" transform="translate(1934.277344 0.015625)"/>
     <use xlink:href="#Roboto-Regular-61" transform="translate(1966.943359 0.015625)"/>
     <use xlink:href="#Roboto-Regular-73" transform="translate(2021.337891 0.015625)"/>
     <use xlink:href="#Roboto-Regular-65" transform="translate(2072.900391 0.015625)"/>
     <use xlink:href="#Roboto-Regular-74" transform="translate(2125.878906 0.015625)"/>
    </g>
   </g>
   <g id="text_32">
    <!-- Healthy Scotopic Response -->
    <g style="fill: #2d1754" transform="translate(502.591125 358.18875)scale(0.16 -0.16)">
     <defs>
      <path id="Roboto-Medium-53" d="M 2841 1172 
Q 2841 1472 2630 1634 
Q 2419 1797 1869 1962 
Q 1319 2128 994 2331 
Q 372 2722 372 3350 
Q 372 3900 820 4256 
Q 1269 4613 1984 4613 
Q 2459 4613 2831 4438 
Q 3203 4263 3415 3939 
Q 3628 3616 3628 3222 
L 2841 3222 
Q 2841 3578 2617 3779 
Q 2394 3981 1978 3981 
Q 1591 3981 1377 3815 
Q 1163 3650 1163 3353 
Q 1163 3103 1394 2936 
Q 1625 2769 2156 2611 
Q 2688 2453 3009 2251 
Q 3331 2050 3481 1789 
Q 3631 1528 3631 1178 
Q 3631 609 3195 273 
Q 2759 -63 2013 -63 
Q 1519 -63 1105 120 
Q 691 303 461 625 
Q 231 947 231 1375 
L 1022 1375 
Q 1022 988 1278 775 
Q 1534 563 2013 563 
Q 2425 563 2633 730 
Q 2841 897 2841 1172 
z
" transform="scale(0.015625)"/>
     </defs>
     <use xlink:href="#Roboto-Medium-48"/>
     <use xlink:href="#Roboto-Medium-65" x="71.044922"/>
     <use xlink:href="#Roboto-Medium-61" x="124.707031"/>
     <use xlink:href="#Roboto-Medium-6c" x="178.808594"/>
     <use xlink:href="#Roboto-Medium-74" x="204.345703"/>
     <use xlink:href="#Roboto-Medium-68" x="237.597656"/>
     <use xlink:href="#Roboto-Medium-79" x="293.115234"/>
     <use xlink:href="#Roboto-Medium-20" x="341.796875"/>
     <use xlink:href="#Roboto-Medium-53" x="366.699219"/>
     <use xlink:href="#Roboto-Medium-63" x="427.050781"/>
     <use xlink:href="#Roboto-Medium-6f" x="479.394531"/>
     <use xlink:href="#Roboto-Medium-74" x="536.328125"/>
     <use xlink:href="#Roboto-Medium-6f" x="569.580078"/>
     <use xlink:href="#Roboto-Medium-70" x="626.513672"/>
     <use xlink:href="#Roboto-Medium-69" x="682.8125"/>
     <use xlink:href="#Roboto-Medium-63" x="708.349609"/>
     <use xlink:href="#Roboto-Medium-20" x="760.693359"/>
     <use xlink:href="#Roboto-Medium-52" x="785.595703"/>
     <use xlink:href="#Roboto-Medium-65" x="847.998047"/>
     <use xlink:href="#Roboto-Medium-73" x="901.660156"/>
     <use xlink:href="#Roboto-Medium-70" x="953.271484"/>
     <use xlink:href="#Roboto-Medium-6f" x="1009.570312"/>
     <use xlink:href="#Roboto-Medium-6e" x="1066.503906"/>
     <use xlink:href="#Roboto-Medium-73" x="1122.119141"/>
     <use xlink:href="#Roboto-Medium-65" x="1173.730469"/>
    </g>
   </g>
  </g>
  <g id="line2d_47">
   <path d="M 0 341.26875 
L 1152 341.26875 
" style="fill: none; stroke-dasharray: 1.2,1.98; stroke-dashoffset: 0; stroke: #000000; stroke-width: 1.2"/>
  </g>
  <g id="text_33">
   <!--           ﻢﻟﺎﺳ ﺩﺮﻓ ﺭﺩ $\mathrm{ERG}$ ﺦﺳﺎﭘ ﻭﺩ ﻪﺴﯾﺎﻘﻣ -->
   <g transform="translate(441.3 15)scale(0.2 -0.2)">
    <defs>
     <path id="BNazanin-fee2" d="M 3303 3 
L 3113 3 
Q 2747 3 2553 166 
Q 2578 81 2578 -53 
Q 2578 -678 2163 -678 
Q 1822 -678 1619 -303 
Q 1453 3 1453 378 
Q 1453 459 1463 534 
Q 1403 544 1341 544 
Q 950 544 772 341 
Q 897 -631 897 -1106 
Q 897 -1338 775 -1663 
Q 731 -1778 709 -1778 
Q 688 -1778 672 -1625 
L 484 231 
Q 472 350 619 559 
Q 750 744 869 831 
Q 953 894 1172 941 
Q 1366 984 1497 984 
Q 1531 984 1559 981 
L 1619 1238 
Q 1638 1316 1656 1316 
Q 1675 1309 1719 1272 
Q 2200 841 2416 697 
Q 2766 466 3069 466 
L 3303 466 
L 3303 3 
z
M 2397 28 
Q 2397 194 2150 419 
Q 2109 456 1700 809 
Q 1684 691 1684 581 
Q 1684 303 1784 91 
Q 1913 -184 2163 -184 
Q 2397 -184 2397 28 
z
" transform="scale(0.015625)"/>
     <path id="BNazanin-feb3" d="M 3234 856 
Q 3234 500 3069 269 
Q 2881 3 2541 3 
Q 2141 3 1966 331 
Q 1744 3 1403 3 
Q 966 3 819 331 
Q 591 3 197 3 
L -81 3 
L -81 466 
L 238 466 
Q 672 466 750 934 
Q 769 1050 825 1050 
Q 875 1050 888 931 
Q 934 466 1391 466 
Q 1659 466 1772 603 
Q 1850 700 1884 931 
Q 1900 1044 1950 1044 
Q 2003 1044 2019 934 
Q 2081 466 2500 466 
Q 2956 466 2956 681 
Q 2956 853 2731 1138 
L 2913 1478 
Q 2956 1559 2975 1559 
Q 2994 1559 3044 1469 
Q 3234 1122 3234 856 
z
" transform="scale(0.015625)"/>
     <path id="BNazanin-fea9" d="M 2438 838 
Q 2438 3 1331 3 
Q 919 3 728 116 
Q 481 259 481 638 
Q 481 816 578 1000 
Q 622 1084 659 1084 
Q 706 1084 694 981 
Q 684 906 684 856 
Q 684 606 909 519 
Q 1047 466 1353 466 
Q 2228 466 2228 738 
Q 2228 1166 1206 1906 
L 1325 2313 
Q 1344 2372 1359 2372 
Q 1378 2372 1438 2325 
Q 2438 1522 2438 838 
z
" transform="scale(0.015625)"/>
     <path id="BNazanin-feae" d="M 2488 3 
L 2319 3 
Q 2100 3 1988 78 
Q 1994 16 1994 -47 
Q 1994 -609 1628 -1131 
Q 1313 -1581 1113 -1581 
Q 656 -1581 325 -1534 
Q 216 -1519 216 -1481 
Q 216 -1444 328 -1422 
Q 797 -1325 1272 -925 
Q 1778 -497 1778 -103 
Q 1778 159 1359 566 
L 1544 941 
Q 1566 988 1581 991 
Q 1600 984 1634 938 
Q 1819 694 1919 613 
Q 2106 466 2363 466 
L 2488 466 
L 2488 3 
z
" transform="scale(0.015625)"/>
     <path id="BNazanin-fed3" d="M 1631 1134 
L 1631 972 
Q 1631 578 1513 406 
Q 1234 3 481 3 
L -81 3 
L -81 466 
L 316 466 
Q 1341 466 1431 800 
Q 1441 834 1441 881 
Q 1441 975 1406 1034 
Q 1150 981 875 981 
Q 316 981 313 1447 
Q 309 1769 466 2078 
Q 653 2450 947 2450 
Q 1206 2450 1406 2116 
Q 1631 1738 1631 1134 
z
M 1328 1481 
Q 1328 1672 1195 1828 
Q 1063 1984 875 1984 
Q 741 1984 653 1900 
Q 566 1816 563 1684 
Q 559 1434 947 1428 
Q 1116 1425 1328 1481 
z
M 1166 3328 
L 844 3003 
L 516 3331 
L 841 3656 
L 1166 3328 
z
" transform="scale(0.015625)"/>
     <path id="BNazanin-fead" d="M 2016 -34 
Q 2016 -619 1644 -1138 
Q 1325 -1581 1113 -1581 
Q 656 -1581 325 -1534 
Q 216 -1519 216 -1481 
Q 216 -1444 328 -1422 
Q 797 -1325 1272 -925 
Q 1778 -497 1778 -103 
Q 1778 159 1359 566 
L 1541 944 
Q 1566 994 1578 997 
Q 1597 991 1631 947 
Q 1775 772 1891 481 
Q 2016 175 2016 -34 
z
" transform="scale(0.015625)"/>
     <path id="DejaVuSans-45" d="M 628 4666 
L 3578 4666 
L 3578 4134 
L 1259 4134 
L 1259 2753 
L 3481 2753 
L 3481 2222 
L 1259 2222 
L 1259 531 
L 3634 531 
L 3634 0 
L 628 0 
L 628 4666 
z
" transform="scale(0.015625)"/>
     <path id="DejaVuSans-52" d="M 2841 2188 
Q 3044 2119 3236 1894 
Q 3428 1669 3622 1275 
L 4263 0 
L 3584 0 
L 2988 1197 
Q 2756 1666 2539 1819 
Q 2322 1972 1947 1972 
L 1259 1972 
L 1259 0 
L 628 0 
L 628 4666 
L 2053 4666 
Q 2853 4666 3247 4331 
Q 3641 3997 3641 3322 
Q 3641 2881 3436 2590 
Q 3231 2300 2841 2188 
z
M 1259 4147 
L 1259 2491 
L 2053 2491 
Q 2509 2491 2742 2702 
Q 2975 2913 2975 3322 
Q 2975 3731 2742 3939 
Q 2509 4147 2053 4147 
L 1259 4147 
z
" transform="scale(0.015625)"/>
     <path id="DejaVuSans-47" d="M 3809 666 
L 3809 1919 
L 2778 1919 
L 2778 2438 
L 4434 2438 
L 4434 434 
Q 4069 175 3628 42 
Q 3188 -91 2688 -91 
Q 1594 -91 976 548 
Q 359 1188 359 2328 
Q 359 3472 976 4111 
Q 1594 4750 2688 4750 
Q 3144 4750 3555 4637 
Q 3966 4525 4313 4306 
L 4313 3634 
Q 3963 3931 3569 4081 
Q 3175 4231 2741 4231 
Q 1884 4231 1454 3753 
Q 1025 3275 1025 2328 
Q 1025 1384 1454 906 
Q 1884 428 2741 428 
Q 3075 428 3337 486 
Q 3600 544 3809 666 
z
" transform="scale(0.015625)"/>
     <path id="BNazanin-fea6" d="M 3663 3 
L 3275 3 
Q 2472 3 2472 725 
Q 2472 875 2509 1050 
Q 1878 922 1384 603 
Q 747 191 747 -347 
Q 747 -875 1275 -1141 
Q 1691 -1350 2269 -1350 
Q 2891 -1350 3363 -1222 
Q 3409 -1209 3441 -1209 
Q 3488 -1209 3488 -1234 
Q 3488 -1266 3425 -1322 
Q 3125 -1594 2797 -1694 
Q 2513 -1781 2066 -1781 
Q 1200 -1781 794 -1366 
Q 484 -1050 484 -566 
Q 484 597 2009 1200 
Q 1369 1309 1091 1309 
Q 953 1309 718 1148 
Q 484 988 522 988 
Q 475 988 488 1088 
Q 509 1269 631 1450 
Q 834 1753 1191 1753 
Q 1478 1753 2047 1653 
Q 2616 1553 2906 1553 
L 3200 1553 
Q 3313 1553 3313 1525 
Q 3313 1503 3288 1434 
L 3178 1128 
Q 3006 1119 2672 1081 
Q 2659 991 2659 922 
Q 2659 466 3294 466 
L 3663 466 
L 3663 3 
z
M 2291 2822 
L 1966 2497 
L 1638 2825 
L 1963 3150 
L 2291 2822 
z
" transform="scale(0.015625)"/>
     <path id="BNazanin-fb58" d="M 1038 797 
Q 1038 3 247 3 
L -81 3 
L -81 466 
L 191 466 
Q 788 466 788 681 
Q 788 831 516 1178 
L 678 1572 
Q 703 1631 719 1631 
Q 734 1631 784 1559 
Q 1038 1188 1038 797 
z
M 447 -1409 
L 738 -1119 
L 1031 -1413 
L 741 -1703 
L 447 -1409 
z
M 84 -784 
L 381 -494 
L 675 -788 
L 381 -1078 
L 84 -784 
z
M 797 -784 
L 1091 -494 
L 1388 -788 
L 1094 -1078 
L 797 -784 
z
" transform="scale(0.015625)"/>
     <path id="BNazanin-feb4" d="M 3772 3 
L 3550 3 
Q 3147 3 2984 331 
Q 2841 3 2453 3 
Q 2116 3 1934 331 
Q 1766 3 1403 3 
Q 966 3 819 331 
Q 591 3 197 3 
L -81 3 
L -81 466 
L 238 466 
Q 672 466 750 934 
Q 769 1050 825 1050 
Q 875 1050 888 931 
Q 934 466 1391 466 
Q 1834 466 1884 931 
Q 1897 1050 1947 1050 
Q 2003 1050 2019 934 
Q 2081 466 2438 466 
Q 2881 466 2931 931 
Q 2944 1050 2994 1050 
Q 3050 1050 3066 934 
Q 3125 466 3541 466 
L 3772 466 
L 3772 3 
z
" transform="scale(0.015625)"/>
     <path id="BNazanin-fbfe" d="M 1038 797 
Q 1038 3 247 3 
L -81 3 
L -81 466 
L 191 466 
Q 788 466 788 681 
Q 788 831 516 1178 
L 678 1572 
Q 703 1631 719 1631 
Q 734 1631 784 1559 
Q 1038 1188 1038 797 
z
M 1406 -878 
L 1097 -1188 
L 788 -875 
L 1097 -566 
L 1406 -878 
z
M 722 -878 
L 413 -1188 
L 103 -875 
L 409 -566 
L 722 -878 
z
" transform="scale(0.015625)"/>
     <path id="BNazanin-fed8" d="M 2247 3 
L 2041 3 
Q 1847 3 1578 75 
Q 1291 150 1150 253 
Q 784 3 209 3 
L -81 3 
L -81 466 
L 106 466 
Q 563 466 722 534 
Q 497 709 497 991 
Q 497 1238 703 1572 
Q 944 1959 1234 1959 
Q 1519 1959 1672 1650 
Q 1791 1409 1791 1091 
Q 1791 759 1519 541 
Q 1669 466 2088 466 
L 2247 466 
L 2247 3 
z
M 1559 1031 
Q 1559 1172 1437 1334 
Q 1316 1497 1178 1497 
Q 1050 1497 897 1358 
Q 744 1219 744 1091 
Q 744 950 891 819 
Q 1025 697 1172 669 
Q 1300 691 1413 775 
Q 1559 884 1559 1031 
z
M 1759 2969 
L 1450 2663 
L 1141 2972 
L 1447 3281 
L 1759 2969 
z
M 1075 2969 
L 766 2663 
L 453 2972 
L 763 3281 
L 1075 2969 
z
" transform="scale(0.015625)"/>
    </defs>
    <use xlink:href="#BNazanin-20" transform="translate(0 0.78125)"/>
    <use xlink:href="#BNazanin-20" transform="translate(24.414062 0.78125)"/>
    <use xlink:href="#BNazanin-20" transform="translate(48.828125 0.78125)"/>
    <use xlink:href="#BNazanin-20" transform="translate(73.242188 0.78125)"/>
    <use xlink:href="#BNazanin-20" transform="translate(97.65625 0.78125)"/>
    <use xlink:href="#BNazanin-20" transform="translate(122.070312 0.78125)"/>
    <use xlink:href="#BNazanin-20" transform="translate(146.484375 0.78125)"/>
    <use xlink:href="#BNazanin-20" transform="translate(170.898438 0.78125)"/>
    <use xlink:href="#BNazanin-20" transform="translate(195.3125 0.78125)"/>
    <use xlink:href="#BNazanin-20" transform="translate(219.726562 0.78125)"/>
    <use xlink:href="#BNazanin-fee2" transform="translate(244.140625 0.78125)"/>
    <use xlink:href="#BNazanin-fedf" transform="translate(294.482422 0.78125)"/>
    <use xlink:href="#BNazanin-fe8e" transform="translate(310.498047 0.78125)"/>
    <use xlink:href="#BNazanin-feb3" transform="translate(333.935547 0.78125)"/>
    <use xlink:href="#BNazanin-20" transform="translate(384.765625 0.78125)"/>
    <use xlink:href="#BNazanin-fea9" transform="translate(409.179688 0.78125)"/>
    <use xlink:href="#BNazanin-feae" transform="translate(447.363281 0.78125)"/>
    <use xlink:href="#BNazanin-fed3" transform="translate(484.960938 0.78125)"/>
    <use xlink:href="#BNazanin-20" transform="translate(510.400391 0.78125)"/>
    <use xlink:href="#BNazanin-fead" transform="translate(534.814453 0.78125)"/>
    <use xlink:href="#BNazanin-fea9" transform="translate(566.40625 0.78125)"/>
    <use xlink:href="#BNazanin-20" transform="translate(604.589844 0.78125)"/>
    <use xlink:href="#DejaVuSans-45" transform="translate(629.003906 0.78125)"/>
    <use xlink:href="#DejaVuSans-52" transform="translate(692.1875 0.78125)"/>
    <use xlink:href="#DejaVuSans-47" transform="translate(761.669922 0.78125)"/>
    <use xlink:href="#BNazanin-20" transform="translate(839.160156 0.78125)"/>
    <use xlink:href="#BNazanin-fea6" transform="translate(863.574219 0.78125)"/>
    <use xlink:href="#BNazanin-feb3" transform="translate(919.482422 0.78125)"/>
    <use xlink:href="#BNazanin-fe8e" transform="translate(970.3125 0.78125)"/>
    <use xlink:href="#BNazanin-fb58" transform="translate(993.75 0.78125)"/>
    <use xlink:href="#BNazanin-20" transform="translate(1016.210938 0.78125)"/>
    <use xlink:href="#BNazanin-feed" transform="translate(1040.625 0.78125)"/>
    <use xlink:href="#BNazanin-fea9" transform="translate(1072.802734 0.78125)"/>
    <use xlink:href="#BNazanin-20" transform="translate(1110.986328 0.78125)"/>
    <use xlink:href="#BNazanin-feea" transform="translate(1135.400391 0.78125)"/>
    <use xlink:href="#BNazanin-feb4" transform="translate(1176.904297 0.78125)"/>
    <use xlink:href="#BNazanin-fbfe" transform="translate(1234.521484 0.78125)"/>
    <use xlink:href="#BNazanin-fe8e" transform="translate(1256.738281 0.78125)"/>
    <use xlink:href="#BNazanin-fed8" transform="translate(1280.175781 0.78125)"/>
    <use xlink:href="#BNazanin-fee3" transform="translate(1313.964844 0.78125)"/>
   </g>
  </g>
 </g>
 <defs>
  <clipPath id="p78fb9f808d">
   <rect x="60.364751" y="76.8575" width="1080.835249" height="214.84875"/>
  </clipPath>
  <clipPath id="p37af00a02a">
   <rect x="60.364751" y="378.18875" width="1080.835249" height="214.84875"/>
  </clipPath>
 </defs>
</svg>
