<?xml version="1.0" encoding="utf-8" standalone="no"?>
<!DOCTYPE svg PUBLIC "-//W3C//DTD SVG 1.1//EN"
  "http://www.w3.org/Graphics/SVG/1.1/DTD/svg11.dtd">
<svg xmlns:xlink="http://www.w3.org/1999/xlink" width="1152pt" height="648pt" viewBox="0 0 1152 648" xmlns="http://www.w3.org/2000/svg" version="1.1">
 <metadata>
  <rdf:RDF xmlns:dc="http://purl.org/dc/elements/1.1/" xmlns:cc="http://creativecommons.org/ns#" xmlns:rdf="http://www.w3.org/1999/02/22-rdf-syntax-ns#">
   <cc:Work>
    <dc:type rdf:resource="http://purl.org/dc/dcmitype/StillImage"/>
    <dc:date>2022-08-24T13:51:53.709871</dc:date>
    <dc:format>image/svg+xml</dc:format>
    <dc:creator>
     <cc:Agent>
      <dc:title>Matplotlib v3.5.3, https://matplotlib.org/</dc:title>
     </cc:Agent>
    </dc:creator>
   </cc:Work>
  </rdf:RDF>
 </metadata>
 <defs>
  <style type="text/css">*{stroke-linejoin: round; stroke-linecap: butt}</style>
 </defs>
 <g id="figure_1">
  <g id="patch_1">
   <path d="M 0 648 
L 1152 648 
L 1152 0 
L 0 0 
z
" style="fill: #ffffff"/>
  </g>
  <g id="axes_1">
   <g id="patch_2">
    <path d="M 65.322002 597.28375 
L 1141.2 597.28375 
L 1141.2 31.6 
L 65.322002 31.6 
z
" style="fill: #fceab1"/>
   </g>
   <g id="matplotlib.axis_1">
    <g id="xtick_1">
     <g id="line2d_1">
      <path d="M 109.335193 597.28375 
L 109.335193 31.6 
" clip-path="url(#pd501bfa1d0)" style="fill: none; stroke: #ffffff; stroke-linecap: round"/>
     </g>
     <g id="line2d_2"/>
     <g id="text_1">
      <!-- 0 -->
      <g style="fill: #262626" transform="translate(106.153943 611.882187)scale(0.1 -0.1)">
       <defs>
        <path id="DejaVuSans-30" d="M 2034 4250 
Q 1547 4250 1301 3770 
Q 1056 3291 1056 2328 
Q 1056 1369 1301 889 
Q 1547 409 2034 409 
Q 2525 409 2770 889 
Q 3016 1369 3016 2328 
Q 3016 3291 2770 3770 
Q 2525 4250 2034 4250 
z
M 2034 4750 
Q 2819 4750 3233 4129 
Q 3647 3509 3647 2328 
Q 3647 1150 3233 529 
Q 2819 -91 2034 -91 
Q 1250 -91 836 529 
Q 422 1150 422 2328 
Q 422 3509 836 4129 
Q 1250 4750 2034 4750 
z
" transform="scale(0.015625)"/>
       </defs>
       <use xlink:href="#DejaVuSans-30"/>
      </g>
     </g>
    </g>
    <g id="xtick_2">
     <g id="line2d_3">
      <path d="M 304.949374 597.28375 
L 304.949374 31.6 
" clip-path="url(#pd501bfa1d0)" style="fill: none; stroke: #ffffff; stroke-linecap: round"/>
     </g>
     <g id="line2d_4"/>
     <g id="text_2">
      <!-- 20 -->
      <g style="fill: #262626" transform="translate(298.586874 611.882187)scale(0.1 -0.1)">
       <defs>
        <path id="DejaVuSans-32" d="M 1228 531 
L 3431 531 
L 3431 0 
L 469 0 
L 469 531 
Q 828 903 1448 1529 
Q 2069 2156 2228 2338 
Q 2531 2678 2651 2914 
Q 2772 3150 2772 3378 
Q 2772 3750 2511 3984 
Q 2250 4219 1831 4219 
Q 1534 4219 1204 4116 
Q 875 4013 500 3803 
L 500 4441 
Q 881 4594 1212 4672 
Q 1544 4750 1819 4750 
Q 2544 4750 2975 4387 
Q 3406 4025 3406 3419 
Q 3406 3131 3298 2873 
Q 3191 2616 2906 2266 
Q 2828 2175 2409 1742 
Q 1991 1309 1228 531 
z
" transform="scale(0.015625)"/>
       </defs>
       <use xlink:href="#DejaVuSans-32"/>
       <use xlink:href="#DejaVuSans-30" x="63.623047"/>
      </g>
     </g>
    </g>
    <g id="xtick_3">
     <g id="line2d_5">
      <path d="M 500.563556 597.28375 
L 500.563556 31.6 
" clip-path="url(#pd501bfa1d0)" style="fill: none; stroke: #ffffff; stroke-linecap: round"/>
     </g>
     <g id="line2d_6"/>
     <g id="text_3">
      <!-- 40 -->
      <g style="fill: #262626" transform="translate(494.201056 611.882187)scale(0.1 -0.1)">
       <defs>
        <path id="DejaVuSans-34" d="M 2419 4116 
L 825 1625 
L 2419 1625 
L 2419 4116 
z
M 2253 4666 
L 3047 4666 
L 3047 1625 
L 3713 1625 
L 3713 1100 
L 3047 1100 
L 3047 0 
L 2419 0 
L 2419 1100 
L 313 1100 
L 313 1709 
L 2253 4666 
z
" transform="scale(0.015625)"/>
       </defs>
       <use xlink:href="#DejaVuSans-34"/>
       <use xlink:href="#DejaVuSans-30" x="63.623047"/>
      </g>
     </g>
    </g>
    <g id="xtick_4">
     <g id="line2d_7">
      <path d="M 696.177737 597.28375 
L 696.177737 31.6 
" clip-path="url(#pd501bfa1d0)" style="fill: none; stroke: #ffffff; stroke-linecap: round"/>
     </g>
     <g id="line2d_8"/>
     <g id="text_4">
      <!-- 60 -->
      <g style="fill: #262626" transform="translate(689.815237 611.882187)scale(0.1 -0.1)">
       <defs>
        <path id="DejaVuSans-36" d="M 2113 2584 
Q 1688 2584 1439 2293 
Q 1191 2003 1191 1497 
Q 1191 994 1439 701 
Q 1688 409 2113 409 
Q 2538 409 2786 701 
Q 3034 994 3034 1497 
Q 3034 2003 2786 2293 
Q 2538 2584 2113 2584 
z
M 3366 4563 
L 3366 3988 
Q 3128 4100 2886 4159 
Q 2644 4219 2406 4219 
Q 1781 4219 1451 3797 
Q 1122 3375 1075 2522 
Q 1259 2794 1537 2939 
Q 1816 3084 2150 3084 
Q 2853 3084 3261 2657 
Q 3669 2231 3669 1497 
Q 3669 778 3244 343 
Q 2819 -91 2113 -91 
Q 1303 -91 875 529 
Q 447 1150 447 2328 
Q 447 3434 972 4092 
Q 1497 4750 2381 4750 
Q 2619 4750 2861 4703 
Q 3103 4656 3366 4563 
z
" transform="scale(0.015625)"/>
       </defs>
       <use xlink:href="#DejaVuSans-36"/>
       <use xlink:href="#DejaVuSans-30" x="63.623047"/>
      </g>
     </g>
    </g>
    <g id="xtick_5">
     <g id="line2d_9">
      <path d="M 891.791919 597.28375 
L 891.791919 31.6 
" clip-path="url(#pd501bfa1d0)" style="fill: none; stroke: #ffffff; stroke-linecap: round"/>
     </g>
     <g id="line2d_10"/>
     <g id="text_5">
      <!-- 80 -->
      <g style="fill: #262626" transform="translate(885.429419 611.882187)scale(0.1 -0.1)">
       <defs>
        <path id="DejaVuSans-38" d="M 2034 2216 
Q 1584 2216 1326 1975 
Q 1069 1734 1069 1313 
Q 1069 891 1326 650 
Q 1584 409 2034 409 
Q 2484 409 2743 651 
Q 3003 894 3003 1313 
Q 3003 1734 2745 1975 
Q 2488 2216 2034 2216 
z
M 1403 2484 
Q 997 2584 770 2862 
Q 544 3141 544 3541 
Q 544 4100 942 4425 
Q 1341 4750 2034 4750 
Q 2731 4750 3128 4425 
Q 3525 4100 3525 3541 
Q 3525 3141 3298 2862 
Q 3072 2584 2669 2484 
Q 3125 2378 3379 2068 
Q 3634 1759 3634 1313 
Q 3634 634 3220 271 
Q 2806 -91 2034 -91 
Q 1263 -91 848 271 
Q 434 634 434 1313 
Q 434 1759 690 2068 
Q 947 2378 1403 2484 
z
M 1172 3481 
Q 1172 3119 1398 2916 
Q 1625 2713 2034 2713 
Q 2441 2713 2670 2916 
Q 2900 3119 2900 3481 
Q 2900 3844 2670 4047 
Q 2441 4250 2034 4250 
Q 1625 4250 1398 4047 
Q 1172 3844 1172 3481 
z
" transform="scale(0.015625)"/>
       </defs>
       <use xlink:href="#DejaVuSans-38"/>
       <use xlink:href="#DejaVuSans-30" x="63.623047"/>
      </g>
     </g>
    </g>
    <g id="xtick_6">
     <g id="line2d_11">
      <path d="M 1087.4061 597.28375 
L 1087.4061 31.6 
" clip-path="url(#pd501bfa1d0)" style="fill: none; stroke: #ffffff; stroke-linecap: round"/>
     </g>
     <g id="line2d_12"/>
     <g id="text_6">
      <!-- 100 -->
      <g style="fill: #262626" transform="translate(1077.86235 611.882187)scale(0.1 -0.1)">
       <defs>
        <path id="DejaVuSans-31" d="M 794 531 
L 1825 531 
L 1825 4091 
L 703 3866 
L 703 4441 
L 1819 4666 
L 2450 4666 
L 2450 531 
L 3481 531 
L 3481 0 
L 794 0 
L 794 531 
z
" transform="scale(0.015625)"/>
       </defs>
       <use xlink:href="#DejaVuSans-31"/>
       <use xlink:href="#DejaVuSans-30" x="63.623047"/>
       <use xlink:href="#DejaVuSans-30" x="127.246094"/>
      </g>
     </g>
    </g>
    <g id="text_7">
     <!-- (ﻪﯿﻧﺎﺛ ﯽﻠﯿﻣ) ﻥﺎﻣﺯ -->
     <g style="fill: #008000" transform="translate(563.608267 632.84)scale(0.15 -0.15)">
      <defs>
       <path id="BNazanin-28" d="M 1791 3238 
Q 1747 3166 1569 2913 
Q 934 2009 934 1275 
Q 934 675 1256 81 
Q 1363 -116 1775 -675 
Q 1794 -700 1794 -728 
Q 1794 -800 1697 -800 
Q 1613 -800 1331 -525 
Q 991 -194 775 203 
Q 488 731 488 1259 
Q 488 1863 831 2422 
Q 1147 2931 1681 3297 
Q 1722 3325 1756 3309 
Q 1791 3294 1791 3238 
z
" transform="scale(0.015625)"/>
       <path id="BNazanin-feea" d="M 2738 3 
L 2441 3 
Q 1928 3 1791 641 
Q 1509 363 1466 363 
L 1113 363 
Q 925 363 741 419 
Q 484 497 484 638 
Q 484 1088 803 1369 
Q 1016 1556 1538 1763 
L 1459 2147 
L 1728 2450 
Q 1744 2400 2000 1141 
Q 2078 756 2144 641 
Q 2244 466 2459 466 
L 2738 466 
L 2738 3 
z
M 1741 819 
L 1606 1453 
Q 1403 1394 1122 1256 
Q 738 1069 738 959 
Q 738 869 1031 819 
Q 1238 784 1397 784 
Q 1594 784 1741 819 
z
" transform="scale(0.015625)"/>
       <path id="BNazanin-fbff" d="M 2050 3 
L 1744 3 
Q 1191 3 1003 366 
Q 797 3 178 3 
L -81 3 
L -81 466 
L 275 466 
Q 859 466 913 919 
Q 934 1100 1003 1100 
Q 1072 1100 1091 913 
Q 1131 466 1697 466 
L 2050 466 
L 2050 3 
z
M 1419 -878 
L 1109 -1188 
L 797 -875 
L 1106 -566 
L 1419 -878 
z
M 731 -878 
L 425 -1188 
L 113 -875 
L 422 -566 
L 731 -878 
z
" transform="scale(0.015625)"/>
       <path id="BNazanin-fee7" d="M 1038 797 
Q 1038 3 247 3 
L -81 3 
L -81 466 
L 191 466 
Q 788 466 788 681 
Q 788 831 516 1178 
L 678 1572 
Q 703 1631 719 1631 
Q 734 1631 784 1559 
Q 1038 1188 1038 797 
z
M 1006 2619 
L 681 2294 
L 356 2622 
L 681 2947 
L 1006 2619 
z
" transform="scale(0.015625)"/>
       <path id="BNazanin-fe8e" d="M 1584 3 
L 1313 3 
Q 866 3 694 369 
Q 572 625 575 1134 
L 578 1897 
Q 581 2450 484 3453 
L 731 3716 
Q 800 3788 813 3706 
Q 897 3184 897 2128 
L 897 963 
Q 897 466 1375 466 
L 1584 466 
L 1584 3 
z
" transform="scale(0.015625)"/>
       <path id="BNazanin-fe9b" d="M 1038 797 
Q 1038 3 247 3 
L -81 3 
L -81 466 
L 191 466 
Q 788 466 788 681 
Q 788 831 516 1178 
L 678 1572 
Q 703 1631 719 1631 
Q 734 1631 784 1559 
Q 1038 1188 1038 797 
z
M 953 3100 
L 659 2806 
L 366 3103 
L 659 3394 
L 953 3100 
z
M 1313 2475 
L 1019 2184 
L 725 2478 
L 1016 2769 
L 1313 2475 
z
M 600 2475 
L 309 2184 
L 13 2478 
L 306 2769 
L 600 2475 
z
" transform="scale(0.015625)"/>
       <path id="BNazanin-20" transform="scale(0.015625)"/>
       <path id="BNazanin-fbfd" d="M 4075 3 
L 3163 3 
Q 2994 3 2838 -50 
Q 2622 -122 2622 -253 
Q 2622 -284 3198 -412 
Q 3775 -541 3775 -666 
Q 3775 -1138 3503 -1369 
Q 3044 -1763 1884 -1763 
Q 484 -1763 484 -728 
Q 484 -494 584 -208 
Q 684 78 828 266 
Q 884 341 931 344 
Q 978 347 978 294 
Q 978 247 941 175 
Q 759 -169 759 -538 
Q 759 -947 1147 -1144 
Q 1444 -1294 1900 -1294 
Q 2384 -1294 2788 -1244 
Q 3513 -1153 3513 -934 
Q 3513 -844 3197 -791 
Q 2694 -706 2616 -684 
Q 2300 -597 2300 -416 
Q 2300 -272 2453 -56 
Q 2581 122 2722 238 
Q 3003 466 3522 466 
L 4075 466 
L 4075 3 
z
" transform="scale(0.015625)"/>
       <path id="BNazanin-fee0" d="M 1559 3 
L 1397 3 
Q 878 3 681 384 
Q 628 213 438 103 
Q 266 3 72 3 
L -81 3 
L -81 466 
L 78 466 
Q 575 466 575 881 
L 575 2266 
Q 575 3056 541 3478 
L 881 3766 
L 881 1075 
Q 881 466 1400 466 
L 1559 466 
L 1559 3 
z
" transform="scale(0.015625)"/>
       <path id="BNazanin-fee3" d="M 2066 797 
Q 2091 500 1997 297 
Q 1853 -13 1678 -13 
Q 1359 -13 772 397 
Q 591 181 519 125 
Q 363 3 134 3 
L -81 3 
L -81 466 
L 203 466 
Q 472 466 675 741 
Q 775 884 1034 1250 
Q 1231 1525 1438 1525 
Q 1728 1525 1913 1231 
Q 2047 1016 2066 797 
z
M 1828 503 
Q 1828 678 1697 884 
Q 1550 1116 1375 1116 
Q 1197 1116 956 750 
Q 1056 641 1322 520 
Q 1588 400 1734 400 
Q 1828 400 1828 503 
z
" transform="scale(0.015625)"/>
       <path id="BNazanin-29" d="M 488 -728 
Q 519 -672 709 -403 
Q 1347 497 1347 1238 
Q 1347 1841 1025 2428 
Q 919 2622 503 3184 
Q 484 3209 484 3238 
Q 484 3313 584 3313 
Q 669 3313 947 3038 
Q 1288 2700 1503 2306 
Q 1791 1778 1791 1250 
Q 1791 638 1450 88 
Q 1138 -419 597 -788 
Q 559 -813 525 -797 
Q 488 -781 488 -728 
z
" transform="scale(0.015625)"/>
       <path id="BNazanin-fee5" d="M 3453 59 
Q 3488 -150 3488 -291 
Q 3488 -516 3413 -728 
Q 3256 -1175 2709 -1422 
Q 2253 -1628 1716 -1628 
Q 1191 -1628 853 -1369 
Q 484 -1081 484 -569 
Q 484 -297 619 13 
Q 716 234 819 359 
Q 869 419 909 419 
Q 947 419 947 375 
Q 947 347 928 309 
Q 750 -56 750 -359 
Q 750 -656 947 -872 
Q 1206 -1156 1731 -1156 
Q 2325 -1156 2781 -944 
Q 3156 -769 3250 -563 
Q 3281 -494 3281 -391 
Q 3281 -231 3200 0 
Q 3131 194 2825 628 
L 2988 953 
Q 3025 1025 3044 1025 
Q 3063 1025 3100 966 
Q 3375 538 3453 59 
z
M 2275 1791 
L 1950 1466 
L 1622 1794 
L 1947 2119 
L 2275 1791 
z
" transform="scale(0.015625)"/>
       <path id="BNazanin-feaf" d="M 2016 -34 
Q 2016 -619 1644 -1138 
Q 1325 -1581 1113 -1581 
Q 656 -1581 325 -1534 
Q 216 -1519 216 -1481 
Q 216 -1444 328 -1422 
Q 797 -1325 1272 -925 
Q 1778 -497 1778 -103 
Q 1778 159 1359 566 
L 1541 944 
Q 1566 994 1578 997 
Q 1597 991 1631 947 
Q 1775 772 1891 481 
Q 2016 175 2016 -34 
z
M 1722 2113 
L 1397 1788 
L 1072 2116 
L 1397 2438 
L 1722 2113 
z
" transform="scale(0.015625)"/>
      </defs>
      <use xlink:href="#BNazanin-28"/>
      <use xlink:href="#BNazanin-feea" x="28.125"/>
      <use xlink:href="#BNazanin-fbff" x="69.628906"/>
      <use xlink:href="#BNazanin-fee7" x="100.390625"/>
      <use xlink:href="#BNazanin-fe8e" x="116.650391"/>
      <use xlink:href="#BNazanin-fe9b" x="140.087891"/>
      <use xlink:href="#BNazanin-20" x="161.230469"/>
      <use xlink:href="#BNazanin-fbfd" x="185.644531"/>
      <use xlink:href="#BNazanin-fee0" x="247.998047"/>
      <use xlink:href="#BNazanin-fbff" x="271.09375"/>
      <use xlink:href="#BNazanin-fee3" x="301.855469"/>
      <use xlink:href="#BNazanin-29" x="334.179688"/>
      <use xlink:href="#BNazanin-20" x="362.304688"/>
      <use xlink:href="#BNazanin-fee5" x="386.71875"/>
      <use xlink:href="#BNazanin-fe8e" x="441.308594"/>
      <use xlink:href="#BNazanin-fee3" x="464.746094"/>
      <use xlink:href="#BNazanin-feaf" x="497.070312"/>
     </g>
    </g>
   </g>
   <g id="matplotlib.axis_2">
    <g id="ytick_1">
     <g id="line2d_13">
      <path d="M 65.322002 594.479687 
L 1141.2 594.479687 
" clip-path="url(#pd501bfa1d0)" style="fill: none; stroke: #ffffff; stroke-linecap: round"/>
     </g>
     <g id="line2d_14"/>
     <g id="text_8">
      <!-- $\mathdefault{−1.0}$ -->
      <g style="fill: #262626" transform="translate(34.022002 598.278906)scale(0.1 -0.1)">
       <defs>
        <path id="DejaVuSans-2212" d="M 678 2272 
L 4684 2272 
L 4684 1741 
L 678 1741 
L 678 2272 
z
" transform="scale(0.015625)"/>
        <path id="DejaVuSans-2e" d="M 684 794 
L 1344 794 
L 1344 0 
L 684 0 
L 684 794 
z
" transform="scale(0.015625)"/>
       </defs>
       <use xlink:href="#DejaVuSans-2212" transform="translate(0 0.78125)"/>
       <use xlink:href="#DejaVuSans-31" transform="translate(83.789062 0.78125)"/>
       <use xlink:href="#DejaVuSans-2e" transform="translate(147.412109 0.78125)"/>
       <use xlink:href="#DejaVuSans-30" transform="translate(179.199219 0.78125)"/>
      </g>
     </g>
    </g>
    <g id="ytick_2">
     <g id="line2d_15">
      <path d="M 65.322002 484.66165 
L 1141.2 484.66165 
" clip-path="url(#pd501bfa1d0)" style="fill: none; stroke: #ffffff; stroke-linecap: round"/>
     </g>
     <g id="line2d_16"/>
     <g id="text_9">
      <!-- $\mathdefault{−0.5}$ -->
      <g style="fill: #262626" transform="translate(34.022002 488.460869)scale(0.1 -0.1)">
       <defs>
        <path id="DejaVuSans-35" d="M 691 4666 
L 3169 4666 
L 3169 4134 
L 1269 4134 
L 1269 2991 
Q 1406 3038 1543 3061 
Q 1681 3084 1819 3084 
Q 2600 3084 3056 2656 
Q 3513 2228 3513 1497 
Q 3513 744 3044 326 
Q 2575 -91 1722 -91 
Q 1428 -91 1123 -41 
Q 819 9 494 109 
L 494 744 
Q 775 591 1075 516 
Q 1375 441 1709 441 
Q 2250 441 2565 725 
Q 2881 1009 2881 1497 
Q 2881 1984 2565 2268 
Q 2250 2553 1709 2553 
Q 1456 2553 1204 2497 
Q 953 2441 691 2322 
L 691 4666 
z
" transform="scale(0.015625)"/>
       </defs>
       <use xlink:href="#DejaVuSans-2212" transform="translate(0 0.78125)"/>
       <use xlink:href="#DejaVuSans-30" transform="translate(83.789062 0.78125)"/>
       <use xlink:href="#DejaVuSans-2e" transform="translate(147.412109 0.78125)"/>
       <use xlink:href="#DejaVuSans-35" transform="translate(179.199219 0.78125)"/>
      </g>
     </g>
    </g>
    <g id="ytick_3">
     <g id="line2d_17">
      <path d="M 65.322002 374.843613 
L 1141.2 374.843613 
" clip-path="url(#pd501bfa1d0)" style="fill: none; stroke: #ffffff; stroke-linecap: round"/>
     </g>
     <g id="line2d_18"/>
     <g id="text_10">
      <!-- $\mathdefault{0.0}$ -->
      <g style="fill: #262626" transform="translate(42.322002 378.642832)scale(0.1 -0.1)">
       <use xlink:href="#DejaVuSans-30" transform="translate(0 0.78125)"/>
       <use xlink:href="#DejaVuSans-2e" transform="translate(63.623047 0.78125)"/>
       <use xlink:href="#DejaVuSans-30" transform="translate(95.410156 0.78125)"/>
      </g>
     </g>
    </g>
    <g id="ytick_4">
     <g id="line2d_19">
      <path d="M 65.322002 265.025577 
L 1141.2 265.025577 
" clip-path="url(#pd501bfa1d0)" style="fill: none; stroke: #ffffff; stroke-linecap: round"/>
     </g>
     <g id="line2d_20"/>
     <g id="text_11">
      <!-- $\mathdefault{0.5}$ -->
      <g style="fill: #262626" transform="translate(42.322002 268.824796)scale(0.1 -0.1)">
       <use xlink:href="#DejaVuSans-30" transform="translate(0 0.78125)"/>
       <use xlink:href="#DejaVuSans-2e" transform="translate(63.623047 0.78125)"/>
       <use xlink:href="#DejaVuSans-35" transform="translate(95.410156 0.78125)"/>
      </g>
     </g>
    </g>
    <g id="ytick_5">
     <g id="line2d_21">
      <path d="M 65.322002 155.20754 
L 1141.2 155.20754 
" clip-path="url(#pd501bfa1d0)" style="fill: none; stroke: #ffffff; stroke-linecap: round"/>
     </g>
     <g id="line2d_22"/>
     <g id="text_12">
      <!-- $\mathdefault{1.0}$ -->
      <g style="fill: #262626" transform="translate(42.322002 159.006759)scale(0.1 -0.1)">
       <use xlink:href="#DejaVuSans-31" transform="translate(0 0.78125)"/>
       <use xlink:href="#DejaVuSans-2e" transform="translate(63.623047 0.78125)"/>
       <use xlink:href="#DejaVuSans-30" transform="translate(95.410156 0.78125)"/>
      </g>
     </g>
    </g>
    <g id="ytick_6">
     <g id="line2d_23">
      <path d="M 65.322002 45.389503 
L 1141.2 45.389503 
" clip-path="url(#pd501bfa1d0)" style="fill: none; stroke: #ffffff; stroke-linecap: round"/>
     </g>
     <g id="line2d_24"/>
     <g id="text_13">
      <!-- $\mathdefault{1.5}$ -->
      <g style="fill: #262626" transform="translate(42.322002 49.188722)scale(0.1 -0.1)">
       <use xlink:href="#DejaVuSans-31" transform="translate(0 0.09375)"/>
       <use xlink:href="#DejaVuSans-2e" transform="translate(63.623047 0.09375)"/>
       <use xlink:href="#DejaVuSans-35" transform="translate(95.410156 0.09375)"/>
      </g>
     </g>
    </g>
    <g id="text_14">
     <!-- (ﺖﻟﻭ) ﻩﺯﺍﺪﻧﺍ -->
     <g style="fill: #008000" transform="translate(20.316533 341.337578)rotate(-90)scale(0.15 -0.15)">
      <defs>
       <path id="BNazanin-fe96" d="M 4803 3 
L 4634 3 
Q 4353 3 4175 131 
Q 3972 275 3969 544 
Q 3303 -72 1916 -72 
Q 484 -72 484 797 
Q 484 1091 706 1406 
Q 747 1466 794 1466 
Q 838 1466 838 1409 
Q 838 1384 822 1347 
Q 734 1147 734 988 
Q 734 391 2034 391 
Q 3550 391 4047 1050 
Q 4147 1181 4200 1181 
Q 4238 1181 4238 1106 
Q 4238 1053 4216 947 
Q 4194 841 4194 788 
Q 4194 466 4634 466 
L 4803 466 
L 4803 3 
z
M 3003 2325 
L 2694 2019 
L 2384 2328 
L 2691 2638 
L 3003 2325 
z
M 2319 2325 
L 2009 2019 
L 1697 2328 
L 2006 2638 
L 2319 2325 
z
" transform="scale(0.015625)"/>
       <path id="BNazanin-fedf" d="M 1000 3178 
Q 1034 3097 1025 3081 
Q 1019 3072 959 3072 
L 831 3072 
Q 872 2272 856 809 
Q 853 456 684 241 
Q 497 3 153 3 
L -81 3 
L -81 466 
L 131 466 
Q 603 466 588 825 
Q 534 2113 453 3434 
L 719 3688 
Q 781 3747 794 3750 
Q 806 3738 825 3666 
Q 872 3484 1000 3178 
z
" transform="scale(0.015625)"/>
       <path id="BNazanin-feed" d="M 2056 163 
Q 2056 -731 1441 -1369 
Q 1247 -1569 1194 -1569 
Q 853 -1569 416 -1500 
Q 263 -1475 263 -1453 
Q 263 -1428 425 -1381 
Q 909 -1241 1328 -881 
Q 1503 -731 1647 -528 
Q 1828 -275 1828 -103 
L 1828 28 
L 1306 9 
Q 753 -9 753 469 
Q 753 766 925 1106 
Q 1122 1494 1375 1494 
Q 1750 1494 1931 978 
Q 2056 622 2056 163 
z
M 1769 494 
Q 1769 688 1638 859 
Q 1497 1047 1309 1047 
Q 1184 1047 1092 953 
Q 1000 859 1000 734 
Q 1000 459 1394 459 
Q 1541 459 1769 494 
z
" transform="scale(0.015625)"/>
       <path id="BNazanin-fee9" d="M 2000 844 
Q 2000 434 1747 206 
Q 1503 -9 1091 -9 
Q 838 -9 666 144 
Q 484 303 484 553 
Q 484 831 722 1244 
Q 928 1600 1178 1850 
Q 2000 1422 2000 844 
z
M 1772 681 
Q 1772 847 1506 1097 
Q 1269 1319 1084 1388 
Q 772 991 772 753 
Q 772 613 919 525 
Q 1044 450 1194 450 
Q 1453 450 1631 547 
Q 1772 622 1772 681 
z
" transform="scale(0.015625)"/>
       <path id="BNazanin-fe8d" d="M 934 497 
Q 934 253 834 50 
Q 775 -72 753 -72 
Q 728 -72 728 81 
Q 728 775 484 3469 
L 816 3778 
Q 859 3819 875 3822 
Q 891 3822 894 3753 
Q 934 2963 934 497 
z
M 934 497 
Q 934 253 834 50 
Q 775 -72 753 -72 
Q 728 -72 728 81 
Q 728 775 484 3469 
L 816 3778 
Q 859 3819 875 3822 
Q 891 3822 894 3753 
Q 934 2963 934 497 
z
" transform="scale(0.015625)"/>
       <path id="BNazanin-feaa" d="M 3116 3 
L 2938 3 
Q 2713 3 2556 147 
Q 2459 238 2322 466 
Q 2178 209 1988 106 
Q 1756 -22 1325 -22 
Q 484 -22 484 581 
Q 484 784 609 1000 
Q 650 1072 691 1072 
Q 728 1072 728 1009 
Q 728 975 718 908 
Q 709 841 709 806 
Q 709 447 1319 447 
Q 2178 447 2178 781 
Q 2178 963 1681 2084 
L 1859 2394 
Q 1894 2453 1906 2456 
Q 1925 2444 1953 2378 
Q 2153 1906 2500 953 
Q 2678 466 3003 466 
L 3116 466 
L 3116 3 
z
" transform="scale(0.015625)"/>
      </defs>
      <use xlink:href="#BNazanin-28"/>
      <use xlink:href="#BNazanin-fe96" x="28.125"/>
      <use xlink:href="#BNazanin-fedf" x="101.904297"/>
      <use xlink:href="#BNazanin-feed" x="117.919922"/>
      <use xlink:href="#BNazanin-29" x="150.097656"/>
      <use xlink:href="#BNazanin-20" x="178.222656"/>
      <use xlink:href="#BNazanin-fee9" x="202.636719"/>
      <use xlink:href="#BNazanin-feaf" x="233.935547"/>
      <use xlink:href="#BNazanin-fe8d" x="265.527344"/>
      <use xlink:href="#BNazanin-feaa" x="280.224609"/>
      <use xlink:href="#BNazanin-fee7" x="327.636719"/>
      <use xlink:href="#BNazanin-fe8d" x="343.896484"/>
     </g>
    </g>
    <g id="text_15">
     <!-- $\times\mathdefault{10^{−5}}\mathdefault{}$ -->
     <g style="fill: #262626" transform="translate(65.322002 28.6)scale(0.1 -0.1)">
      <defs>
       <path id="DejaVuSans-d7" d="M 4488 3438 
L 3059 2003 
L 4488 575 
L 4116 197 
L 2681 1631 
L 1247 197 
L 878 575 
L 2303 2003 
L 878 3438 
L 1247 3816 
L 2681 2381 
L 4116 3816 
L 4488 3438 
z
" transform="scale(0.015625)"/>
      </defs>
      <use xlink:href="#DejaVuSans-d7" transform="translate(0 0.684375)"/>
      <use xlink:href="#DejaVuSans-31" transform="translate(83.789062 0.684375)"/>
      <use xlink:href="#DejaVuSans-30" transform="translate(147.412109 0.684375)"/>
      <use xlink:href="#DejaVuSans-2212" transform="translate(211.992188 38.965625)scale(0.7)"/>
      <use xlink:href="#DejaVuSans-35" transform="translate(270.644531 38.965625)scale(0.7)"/>
     </g>
    </g>
   </g>
   <g id="line2d_25">
    <path d="M 114.225547 298.110263 
L 119.115902 300.560163 
L 124.006256 303.154498 
L 128.896611 305.888209 
L 138.67732 311.749923 
L 148.458029 318.090472 
L 158.238738 324.84406 
L 168.019447 331.934824 
L 177.800156 339.277875 
L 197.361574 354.344043 
L 212.032638 365.575772 
L 221.813347 372.832218 
L 231.594056 379.778353 
L 241.374765 386.308701 
L 246.26512 389.385977 
L 251.155474 392.321571 
L 256.045829 395.103677 
L 260.936183 397.720958 
L 265.826538 400.162608 
L 270.716892 402.418401 
L 275.607247 404.478736 
L 280.497602 406.334704 
L 285.387956 407.978114 
L 290.278311 409.401548 
L 295.168665 410.598402 
L 300.05902 411.562911 
L 304.949374 412.290197 
L 309.839729 412.77628 
L 314.730083 413.018124 
L 319.620438 413.013642 
L 324.510792 412.761715 
L 329.401147 412.262211 
L 334.291501 411.515985 
L 339.181856 410.524894 
L 344.072211 409.291781 
L 348.962565 407.820475 
L 353.85292 406.115786 
L 358.743274 404.183486 
L 363.633629 402.030287 
L 368.523983 399.66382 
L 373.414338 397.09261 
L 378.304692 394.326036 
L 383.195047 391.374302 
L 388.085401 388.248392 
L 392.975756 384.960033 
L 397.86611 381.521636 
L 407.64682 374.247532 
L 417.427529 366.537199 
L 427.208238 358.509262 
L 446.769656 342.000522 
L 461.440719 329.72742 
L 471.221428 321.836002 
L 481.002138 314.320467 
L 490.782847 307.296856 
L 495.673201 304.003584 
L 500.563556 300.872969 
L 505.45391 297.916912 
L 510.344265 295.146566 
L 515.234619 292.572321 
L 520.124974 290.203747 
L 525.015328 288.049549 
L 529.905683 286.117561 
L 534.796037 284.414695 
L 539.686392 282.946895 
L 544.576747 281.719163 
L 549.467101 280.735515 
L 554.357456 279.998978 
L 559.24781 279.511579 
L 564.138165 279.274327 
L 569.028519 279.287251 
L 573.918874 279.549383 
L 578.809228 280.058776 
L 583.699583 280.812502 
L 588.589937 281.806707 
L 593.480292 283.036606 
L 598.370646 284.496536 
L 603.261001 286.179975 
L 608.151356 288.079573 
L 613.04171 290.187198 
L 617.932065 292.494001 
L 622.822419 294.99042 
L 627.712774 297.666281 
L 632.603128 300.510798 
L 637.493483 303.512684 
L 642.383837 306.660153 
L 652.164546 313.342762 
L 661.945255 320.457258 
L 671.725964 327.898652 
L 686.397028 339.440521 
L 710.848801 358.818992 
L 720.62951 366.33316 
L 730.410219 373.578911 
L 740.190928 380.479624 
L 749.971637 386.969036 
L 759.752346 392.992237 
L 764.642701 395.815141 
L 769.533055 398.506416 
L 774.42341 401.062677 
L 779.313764 403.481348 
L 784.204119 405.760652 
L 789.094473 407.899614 
L 793.984828 409.898051 
L 798.875182 411.756556 
L 803.765537 413.476489 
L 808.655892 415.059959 
L 813.546246 416.509791 
L 818.436601 417.829509 
L 823.326955 419.023302 
L 828.21731 420.095992 
L 837.998019 421.900299 
L 847.778728 423.292217 
L 857.559437 424.329085 
L 867.340146 425.074322 
L 877.120855 425.595834 
L 891.791919 426.113772 
L 916.243691 426.867827 
L 926.0244 427.331495 
L 935.805109 427.981742 
L 945.585819 428.873127 
L 955.366528 430.052816 
L 965.147237 431.55965 
L 974.927946 433.423411 
L 984.708655 435.664334 
L 994.489364 438.292783 
L 1004.270073 441.309191 
L 1014.050782 444.704195 
L 1023.831491 448.459009 
L 1033.6122 452.545964 
L 1043.392909 456.929266 
L 1053.173618 461.565875 
L 1062.954327 466.406587 
L 1077.625391 473.930606 
L 1092.296455 481.593317 
L 1092.296455 481.593317 
" clip-path="url(#pd501bfa1d0)" style="fill: none; stroke: #bd0016; stroke-width: 2; stroke-linecap: round"/>
   </g>
   <g id="line2d_26">
    <path d="M 114.225547 347.644693 
L 124.006256 348.058653 
L 128.896611 348.146839 
L 133.786965 348.101991 
L 138.67732 347.886172 
L 143.567675 347.464424 
L 148.458029 346.805617 
L 153.348384 345.883245 
L 158.238738 344.676156 
L 163.129093 343.169235 
L 168.019447 341.353978 
L 172.909802 339.22899 
L 177.800156 336.800361 
L 182.690511 334.081944 
L 187.580865 331.095487 
L 192.47122 327.870646 
L 197.361574 324.444879 
L 207.142284 317.177609 
L 221.813347 306.114065 
L 226.703702 302.655768 
L 231.594056 299.438253 
L 236.484411 296.541015 
L 241.374765 294.044537 
L 246.26512 292.029025 
L 251.155474 290.57316 
L 256.045829 289.752754 
L 260.936183 289.639472 
L 265.826538 290.299471 
L 270.716892 291.792167 
L 275.607247 294.168996 
L 280.497602 297.472246 
L 285.387956 301.73401 
L 290.278311 306.975236 
L 295.168665 313.20487 
L 300.05902 320.419199 
L 304.949374 328.601295 
L 309.839729 337.720665 
L 314.730083 347.733058 
L 319.620438 358.580458 
L 324.510792 370.191283 
L 329.401147 382.480757 
L 334.291501 395.351478 
L 339.181856 408.694193 
L 348.962565 436.305137 
L 358.743274 464.24262 
L 363.633629 477.967133 
L 368.523983 491.323631 
L 373.414338 504.155256 
L 378.304692 516.304968 
L 383.195047 527.617454 
L 388.085401 537.94111 
L 392.975756 547.129921 
L 397.86611 555.045425 
L 402.756465 561.55857 
L 407.64682 566.551437 
L 412.537174 569.919055 
L 417.427529 571.570852 
L 422.317883 571.43214 
L 427.208238 569.445369 
L 432.098592 565.571105 
L 436.988947 559.789055 
L 441.879301 552.098557 
L 446.769656 542.51907 
L 451.66001 531.090334 
L 456.550365 517.872328 
L 461.440719 502.944934 
L 466.331074 486.407381 
L 471.221428 468.377458 
L 476.111783 448.990469 
L 481.002138 428.397988 
L 485.892492 406.766395 
L 490.782847 384.275208 
L 500.563556 337.486687 
L 515.234619 265.885477 
L 520.124974 242.494313 
L 525.015328 219.697978 
L 529.905683 197.705428 
L 534.796037 176.718949 
L 539.686392 156.931855 
L 544.576747 138.526387 
L 549.467101 121.671659 
L 554.357456 106.521765 
L 559.24781 93.214137 
L 564.138165 81.867971 
L 569.028519 72.582947 
L 573.918874 65.438208 
L 578.809228 60.491485 
L 583.699583 57.778533 
L 588.589937 57.312898 
L 593.480292 59.085769 
L 598.370646 63.066283 
L 603.261001 69.201965 
L 608.151356 77.419524 
L 613.04171 87.625711 
L 617.932065 99.708684 
L 622.822419 113.539318 
L 627.712774 128.972868 
L 632.603128 145.850808 
L 637.493483 164.002664 
L 642.383837 183.248214 
L 647.274192 203.399525 
L 652.164546 224.263303 
L 661.945255 267.341502 
L 676.616319 332.409993 
L 681.506674 353.470817 
L 686.397028 373.927837 
L 691.287383 393.623499 
L 696.177737 412.413307 
L 701.068092 430.167213 
L 705.958446 446.770805 
L 710.848801 462.126276 
L 715.739155 476.153162 
L 720.62951 488.788854 
L 725.519864 499.988837 
L 730.410219 509.726742 
L 735.300573 517.99413 
L 740.190928 524.80003 
L 745.081283 530.1703 
L 749.971637 534.146729 
L 754.861992 536.78603 
L 759.752346 538.158546 
L 764.642701 538.346898 
L 769.533055 537.444442 
L 774.42341 535.553644 
L 779.313764 532.784371 
L 784.204119 529.252083 
L 789.094473 525.076075 
L 793.984828 520.377601 
L 798.875182 515.278123 
L 808.655892 504.352447 
L 818.436601 493.209655 
L 823.326955 487.815155 
L 828.21731 482.660054 
L 833.107664 477.823287 
L 837.998019 473.373022 
L 842.888373 469.365929 
L 847.778728 465.846746 
L 852.669082 462.847931 
L 857.559437 460.389631 
L 862.449791 458.479726 
L 867.340146 457.114142 
L 872.2305 456.277331 
L 877.120855 455.942896 
L 882.01121 456.074387 
L 886.901564 456.626263 
L 891.791919 457.544954 
L 896.682273 458.770034 
L 901.572628 460.235478 
L 911.353337 463.603515 
L 921.134046 467.060814 
L 926.0244 468.637532 
L 930.914755 470.017779 
L 935.805109 471.134735 
L 940.695464 471.926705 
L 945.585819 472.338206 
L 950.476173 472.320977 
L 955.366528 471.834747 
L 960.256882 470.848043 
L 965.147237 469.338662 
L 970.037591 467.294131 
L 974.927946 464.711891 
L 979.8183 461.599424 
L 984.708655 457.974104 
L 989.599009 453.862963 
L 994.489364 449.302291 
L 999.379718 444.337061 
L 1004.270073 439.020226 
L 1009.160428 433.411919 
L 1018.941137 421.591479 
L 1033.6122 403.478621 
L 1038.502555 397.656571 
L 1043.392909 392.075896 
L 1048.283264 386.814442 
L 1053.173618 381.946836 
L 1058.063973 377.54333 
L 1062.954327 373.66873 
L 1067.844682 370.381407 
L 1072.735036 367.732399 
L 1077.625391 365.764641 
L 1082.515746 364.512312 
L 1087.4061 364.000308 
L 1092.296455 364.243872 
L 1092.296455 364.243872 
" clip-path="url(#pd501bfa1d0)" style="fill: none; stroke: #000000; stroke-width: 2; stroke-linecap: round"/>
   </g>
   <g id="patch_3">
    <path d="M 65.322002 597.28375 
L 65.322002 31.6 
" style="fill: none"/>
   </g>
   <g id="patch_4">
    <path d="M 1141.2 597.28375 
L 1141.2 31.6 
" style="fill: none"/>
   </g>
   <g id="patch_5">
    <path d="M 65.322002 597.28375 
L 1141.2 597.28375 
" style="fill: none"/>
   </g>
   <g id="patch_6">
    <path d="M 65.322002 31.6 
L 1141.2 31.6 
" style="fill: none"/>
   </g>
   <g id="text_16">
    <!-- Samples 319 and 325, $\it{Pediatric}$ $\it{and}$ $\it{adults}$ $\it{ERG}$ Dataset -->
    <g style="fill: #262626" transform="translate(933.6 595.60375)scale(0.08 -0.08)">
     <defs>
      <path id="Roboto-Regular-53" d="M 1869 2028 
Q 1097 2250 745 2573 
Q 394 2897 394 3372 
Q 394 3909 823 4261 
Q 1253 4613 1941 4613 
Q 2409 4613 2776 4431 
Q 3144 4250 3345 3931 
Q 3547 3613 3547 3234 
L 2944 3234 
Q 2944 3647 2681 3883 
Q 2419 4119 1941 4119 
Q 1497 4119 1248 3923 
Q 1000 3728 1000 3381 
Q 1000 3103 1236 2911 
Q 1472 2719 2039 2559 
Q 2606 2400 2926 2208 
Q 3247 2016 3401 1759 
Q 3556 1503 3556 1156 
Q 3556 603 3125 270 
Q 2694 -63 1972 -63 
Q 1503 -63 1097 117 
Q 691 297 470 609 
Q 250 922 250 1319 
L 853 1319 
Q 853 906 1158 667 
Q 1463 428 1972 428 
Q 2447 428 2700 622 
Q 2953 816 2953 1150 
Q 2953 1484 2718 1667 
Q 2484 1850 1869 2028 
z
" transform="scale(0.015625)"/>
      <path id="Roboto-Regular-61" d="M 2525 0 
Q 2475 100 2444 356 
Q 2041 -63 1481 -63 
Q 981 -63 661 220 
Q 341 503 341 938 
Q 341 1466 742 1758 
Q 1144 2050 1872 2050 
L 2434 2050 
L 2434 2316 
Q 2434 2619 2253 2798 
Q 2072 2978 1719 2978 
Q 1409 2978 1200 2822 
Q 991 2666 991 2444 
L 409 2444 
Q 409 2697 589 2933 
Q 769 3169 1076 3306 
Q 1384 3444 1753 3444 
Q 2338 3444 2669 3151 
Q 3000 2859 3013 2347 
L 3013 791 
Q 3013 325 3131 50 
L 3131 0 
L 2525 0 
z
M 1566 441 
Q 1838 441 2081 581 
Q 2325 722 2434 947 
L 2434 1641 
L 1981 1641 
Q 919 1641 919 1019 
Q 919 747 1100 594 
Q 1281 441 1566 441 
z
" transform="scale(0.015625)"/>
      <path id="Roboto-Regular-6d" d="M 981 3381 
L 997 3006 
Q 1369 3444 2000 3444 
Q 2709 3444 2966 2900 
Q 3134 3144 3404 3294 
Q 3675 3444 4044 3444 
Q 5156 3444 5175 2266 
L 5175 0 
L 4597 0 
L 4597 2231 
Q 4597 2594 4431 2773 
Q 4266 2953 3875 2953 
Q 3553 2953 3340 2761 
Q 3128 2569 3094 2244 
L 3094 0 
L 2513 0 
L 2513 2216 
Q 2513 2953 1791 2953 
Q 1222 2953 1013 2469 
L 1013 0 
L 434 0 
L 434 3381 
L 981 3381 
z
" transform="scale(0.015625)"/>
      <path id="Roboto-Regular-70" d="M 3294 1653 
Q 3294 881 2941 409 
Q 2588 -63 1984 -63 
Q 1369 -63 1016 328 
L 1016 -1300 
L 438 -1300 
L 438 3381 
L 966 3381 
L 994 3006 
Q 1347 3444 1975 3444 
Q 2584 3444 2939 2984 
Q 3294 2525 3294 1706 
L 3294 1653 
z
M 2716 1719 
Q 2716 2291 2472 2622 
Q 2228 2953 1803 2953 
Q 1278 2953 1016 2488 
L 1016 872 
Q 1275 409 1809 409 
Q 2225 409 2470 739 
Q 2716 1069 2716 1719 
z
" transform="scale(0.015625)"/>
      <path id="Roboto-Regular-6c" d="M 1066 0 
L 488 0 
L 488 4800 
L 1066 4800 
L 1066 0 
z
" transform="scale(0.015625)"/>
      <path id="Roboto-Regular-65" d="M 1841 -63 
Q 1153 -63 722 389 
Q 291 841 291 1597 
L 291 1703 
Q 291 2206 483 2601 
Q 675 2997 1020 3220 
Q 1366 3444 1769 3444 
Q 2428 3444 2793 3009 
Q 3159 2575 3159 1766 
L 3159 1525 
L 869 1525 
Q 881 1025 1161 717 
Q 1441 409 1872 409 
Q 2178 409 2390 534 
Q 2603 659 2763 866 
L 3116 591 
Q 2691 -63 1841 -63 
z
M 1769 2969 
Q 1419 2969 1181 2714 
Q 944 2459 888 2000 
L 2581 2000 
L 2581 2044 
Q 2556 2484 2343 2726 
Q 2131 2969 1769 2969 
z
" transform="scale(0.015625)"/>
      <path id="Roboto-Regular-73" d="M 2406 897 
Q 2406 1131 2229 1261 
Q 2053 1391 1614 1484 
Q 1175 1578 917 1709 
Q 659 1841 536 2022 
Q 413 2203 413 2453 
Q 413 2869 764 3156 
Q 1116 3444 1663 3444 
Q 2238 3444 2595 3147 
Q 2953 2850 2953 2388 
L 2372 2388 
Q 2372 2625 2170 2797 
Q 1969 2969 1663 2969 
Q 1347 2969 1169 2831 
Q 991 2694 991 2472 
Q 991 2263 1156 2156 
Q 1322 2050 1755 1953 
Q 2188 1856 2456 1722 
Q 2725 1588 2854 1398 
Q 2984 1209 2984 938 
Q 2984 484 2621 210 
Q 2259 -63 1681 -63 
Q 1275 -63 962 81 
Q 650 225 473 483 
Q 297 741 297 1041 
L 875 1041 
Q 891 750 1108 579 
Q 1325 409 1681 409 
Q 2009 409 2207 542 
Q 2406 675 2406 897 
z
" transform="scale(0.015625)"/>
      <path id="Roboto-Regular-20" transform="scale(0.015625)"/>
      <path id="Roboto-Regular-33" d="M 1219 2556 
L 1653 2556 
Q 2063 2563 2297 2772 
Q 2531 2981 2531 3338 
Q 2531 4138 1734 4138 
Q 1359 4138 1136 3923 
Q 913 3709 913 3356 
L 334 3356 
Q 334 3897 729 4255 
Q 1125 4613 1734 4613 
Q 2378 4613 2743 4272 
Q 3109 3931 3109 3325 
Q 3109 3028 2917 2750 
Q 2725 2472 2394 2334 
Q 2769 2216 2973 1941 
Q 3178 1666 3178 1269 
Q 3178 656 2778 296 
Q 2378 -63 1737 -63 
Q 1097 -63 695 284 
Q 294 631 294 1200 
L 875 1200 
Q 875 841 1109 625 
Q 1344 409 1738 409 
Q 2156 409 2378 628 
Q 2600 847 2600 1256 
Q 2600 1653 2356 1865 
Q 2113 2078 1653 2084 
L 1219 2084 
L 1219 2556 
z
" transform="scale(0.015625)"/>
      <path id="Roboto-Regular-31" d="M 2278 0 
L 1697 0 
L 1697 3853 
L 531 3425 
L 531 3950 
L 2188 4572 
L 2278 4572 
L 2278 0 
z
" transform="scale(0.015625)"/>
      <path id="Roboto-Regular-39" d="M 2594 2000 
Q 2413 1784 2161 1653 
Q 1909 1522 1609 1522 
Q 1216 1522 923 1715 
Q 631 1909 472 2261 
Q 313 2613 313 3038 
Q 313 3494 486 3859 
Q 659 4225 978 4419 
Q 1297 4613 1722 4613 
Q 2397 4613 2786 4108 
Q 3175 3603 3175 2731 
L 3175 2563 
Q 3175 1234 2650 623 
Q 2125 13 1066 -3 
L 953 -3 
L 953 484 
L 1075 484 
Q 1791 497 2175 858 
Q 2559 1219 2594 2000 
z
M 1703 2000 
Q 1994 2000 2239 2178 
Q 2484 2356 2597 2619 
L 2597 2850 
Q 2597 3419 2350 3775 
Q 2103 4131 1725 4131 
Q 1344 4131 1112 3839 
Q 881 3547 881 3069 
Q 881 2603 1104 2301 
Q 1328 2000 1703 2000 
z
" transform="scale(0.015625)"/>
      <path id="Roboto-Regular-6e" d="M 984 3381 
L 1003 2956 
Q 1391 3444 2016 3444 
Q 3088 3444 3097 2234 
L 3097 0 
L 2519 0 
L 2519 2238 
Q 2516 2603 2352 2778 
Q 2188 2953 1841 2953 
Q 1559 2953 1346 2803 
Q 1134 2653 1016 2409 
L 1016 0 
L 438 0 
L 438 3381 
L 984 3381 
z
" transform="scale(0.015625)"/>
      <path id="Roboto-Regular-64" d="M 297 1719 
Q 297 2497 665 2970 
Q 1034 3444 1631 3444 
Q 2225 3444 2572 3038 
L 2572 4800 
L 3150 4800 
L 3150 0 
L 2619 0 
L 2591 363 
Q 2244 -63 1625 -63 
Q 1038 -63 667 418 
Q 297 900 297 1675 
L 297 1719 
z
M 875 1653 
Q 875 1078 1112 753 
Q 1350 428 1769 428 
Q 2319 428 2572 922 
L 2572 2475 
Q 2313 2953 1775 2953 
Q 1350 2953 1112 2625 
Q 875 2297 875 1653 
z
" transform="scale(0.015625)"/>
      <path id="Roboto-Regular-32" d="M 3359 0 
L 378 0 
L 378 416 
L 1953 2166 
Q 2303 2563 2436 2811 
Q 2569 3059 2569 3325 
Q 2569 3681 2353 3909 
Q 2138 4138 1778 4138 
Q 1347 4138 1108 3892 
Q 869 3647 869 3209 
L 291 3209 
Q 291 3838 695 4225 
Q 1100 4613 1778 4613 
Q 2413 4613 2781 4280 
Q 3150 3947 3150 3394 
Q 3150 2722 2294 1794 
L 1075 472 
L 3359 472 
L 3359 0 
z
" transform="scale(0.015625)"/>
      <path id="Roboto-Regular-35" d="M 644 2281 
L 875 4550 
L 3206 4550 
L 3206 4016 
L 1366 4016 
L 1228 2775 
Q 1563 2972 1988 2972 
Q 2609 2972 2975 2561 
Q 3341 2150 3341 1450 
Q 3341 747 2961 342 
Q 2581 -63 1900 -63 
Q 1297 -63 915 271 
Q 534 606 481 1197 
L 1028 1197 
Q 1081 806 1306 607 
Q 1531 409 1900 409 
Q 2303 409 2533 684 
Q 2763 959 2763 1444 
Q 2763 1900 2514 2176 
Q 2266 2453 1853 2453 
Q 1475 2453 1259 2288 
L 1106 2163 
L 644 2281 
z
" transform="scale(0.015625)"/>
      <path id="Roboto-Regular-2c" d="M 419 -906 
L 91 -681 
Q 384 -272 397 163 
L 397 684 
L 963 684 
L 963 231 
Q 963 -84 808 -400 
Q 653 -716 419 -906 
z
" transform="scale(0.015625)"/>
      <path id="DejaVuSans-Oblique-50" d="M 1081 4666 
L 2541 4666 
Q 3178 4666 3512 4369 
Q 3847 4072 3847 3500 
Q 3847 2731 3353 2303 
Q 2859 1875 1966 1875 
L 1172 1875 
L 806 0 
L 172 0 
L 1081 4666 
z
M 1613 4147 
L 1275 2394 
L 2069 2394 
Q 2606 2394 2893 2669 
Q 3181 2944 3181 3456 
Q 3181 3784 2986 3965 
Q 2791 4147 2438 4147 
L 1613 4147 
z
" transform="scale(0.015625)"/>
      <path id="DejaVuSans-Oblique-65" d="M 3078 2063 
Q 3088 2113 3092 2166 
Q 3097 2219 3097 2272 
Q 3097 2653 2873 2875 
Q 2650 3097 2266 3097 
Q 1838 3097 1509 2826 
Q 1181 2556 1013 2059 
L 3078 2063 
z
M 3578 1613 
L 903 1613 
Q 884 1494 878 1425 
Q 872 1356 872 1306 
Q 872 872 1139 634 
Q 1406 397 1894 397 
Q 2269 397 2603 481 
Q 2938 566 3225 728 
L 3116 159 
Q 2806 34 2476 -28 
Q 2147 -91 1806 -91 
Q 1078 -91 686 257 
Q 294 606 294 1247 
Q 294 1794 489 2264 
Q 684 2734 1063 3103 
Q 1306 3334 1642 3459 
Q 1978 3584 2356 3584 
Q 2950 3584 3301 3228 
Q 3653 2872 3653 2272 
Q 3653 2128 3634 1964 
Q 3616 1800 3578 1613 
z
" transform="scale(0.015625)"/>
      <path id="DejaVuSans-Oblique-64" d="M 2675 525 
Q 2444 222 2128 65 
Q 1813 -91 1428 -91 
Q 903 -91 598 267 
Q 294 625 294 1247 
Q 294 1766 478 2236 
Q 663 2706 1013 3078 
Q 1244 3325 1534 3454 
Q 1825 3584 2144 3584 
Q 2481 3584 2739 3421 
Q 2997 3259 3138 2956 
L 3513 4863 
L 4091 4863 
L 3144 0 
L 2566 0 
L 2675 525 
z
M 891 1350 
Q 891 897 1095 644 
Q 1300 391 1663 391 
Q 1931 391 2161 520 
Q 2391 650 2566 903 
Q 2750 1166 2856 1509 
Q 2963 1853 2963 2188 
Q 2963 2622 2758 2865 
Q 2553 3109 2194 3109 
Q 1922 3109 1687 2981 
Q 1453 2853 1288 2613 
Q 1106 2353 998 2009 
Q 891 1666 891 1350 
z
" transform="scale(0.015625)"/>
      <path id="DejaVuSans-Oblique-69" d="M 1172 4863 
L 1747 4863 
L 1606 4134 
L 1031 4134 
L 1172 4863 
z
M 909 3500 
L 1484 3500 
L 800 0 
L 225 0 
L 909 3500 
z
" transform="scale(0.015625)"/>
      <path id="DejaVuSans-Oblique-61" d="M 3438 1997 
L 3047 0 
L 2472 0 
L 2578 531 
Q 2325 219 2001 64 
Q 1678 -91 1281 -91 
Q 834 -91 548 182 
Q 263 456 263 884 
Q 263 1497 752 1853 
Q 1241 2209 2100 2209 
L 2900 2209 
L 2931 2363 
Q 2938 2388 2941 2417 
Q 2944 2447 2944 2509 
Q 2944 2788 2717 2942 
Q 2491 3097 2081 3097 
Q 1800 3097 1504 3025 
Q 1209 2953 897 2809 
L 997 3341 
Q 1322 3463 1633 3523 
Q 1944 3584 2234 3584 
Q 2853 3584 3176 3315 
Q 3500 3047 3500 2534 
Q 3500 2431 3484 2292 
Q 3469 2153 3438 1997 
z
M 2816 1759 
L 2241 1759 
Q 1534 1759 1195 1570 
Q 856 1381 856 984 
Q 856 709 1029 553 
Q 1203 397 1509 397 
Q 1978 397 2328 733 
Q 2678 1069 2791 1631 
L 2816 1759 
z
" transform="scale(0.015625)"/>
      <path id="DejaVuSans-Oblique-74" d="M 2706 3500 
L 2619 3053 
L 1472 3053 
L 1100 1153 
Q 1081 1047 1072 975 
Q 1063 903 1063 863 
Q 1063 663 1183 572 
Q 1303 481 1569 481 
L 2150 481 
L 2053 0 
L 1503 0 
Q 991 0 739 200 
Q 488 400 488 806 
Q 488 878 497 964 
Q 506 1050 525 1153 
L 897 3053 
L 409 3053 
L 500 3500 
L 978 3500 
L 1172 4494 
L 1747 4494 
L 1556 3500 
L 2706 3500 
z
" transform="scale(0.015625)"/>
      <path id="DejaVuSans-Oblique-72" d="M 2853 2969 
Q 2766 3016 2653 3041 
Q 2541 3066 2413 3066 
Q 1953 3066 1609 2717 
Q 1266 2369 1153 1784 
L 800 0 
L 225 0 
L 909 3500 
L 1484 3500 
L 1375 2956 
Q 1603 3259 1920 3421 
Q 2238 3584 2597 3584 
Q 2691 3584 2781 3573 
Q 2872 3563 2963 3538 
L 2853 2969 
z
" transform="scale(0.015625)"/>
      <path id="DejaVuSans-Oblique-63" d="M 3431 3366 
L 3316 2797 
Q 3109 2947 2876 3022 
Q 2644 3097 2394 3097 
Q 2119 3097 1870 3000 
Q 1622 2903 1453 2725 
Q 1184 2453 1037 2087 
Q 891 1722 891 1331 
Q 891 859 1127 628 
Q 1363 397 1844 397 
Q 2081 397 2348 469 
Q 2616 541 2906 684 
L 2797 116 
Q 2547 13 2283 -39 
Q 2019 -91 1741 -91 
Q 1044 -91 669 257 
Q 294 606 294 1253 
Q 294 1797 489 2255 
Q 684 2713 1069 3078 
Q 1331 3328 1684 3456 
Q 2038 3584 2456 3584 
Q 2700 3584 2940 3529 
Q 3181 3475 3431 3366 
z
" transform="scale(0.015625)"/>
      <path id="DejaVuSans-Oblique-6e" d="M 3566 2113 
L 3156 0 
L 2578 0 
L 2988 2091 
Q 3016 2238 3031 2350 
Q 3047 2463 3047 2528 
Q 3047 2791 2881 2937 
Q 2716 3084 2419 3084 
Q 1956 3084 1622 2776 
Q 1288 2469 1184 1941 
L 800 0 
L 225 0 
L 903 3500 
L 1478 3500 
L 1363 2950 
Q 1603 3253 1940 3418 
Q 2278 3584 2650 3584 
Q 3113 3584 3367 3334 
Q 3622 3084 3622 2631 
Q 3622 2519 3608 2391 
Q 3594 2263 3566 2113 
z
" transform="scale(0.015625)"/>
      <path id="DejaVuSans-Oblique-75" d="M 428 1388 
L 838 3500 
L 1416 3500 
L 1006 1409 
Q 975 1256 961 1147 
Q 947 1038 947 966 
Q 947 700 1109 554 
Q 1272 409 1569 409 
Q 2031 409 2368 721 
Q 2706 1034 2809 1563 
L 3194 3500 
L 3769 3500 
L 3091 0 
L 2516 0 
L 2631 550 
Q 2388 244 2052 76 
Q 1716 -91 1338 -91 
Q 878 -91 622 161 
Q 366 413 366 863 
Q 366 956 381 1097 
Q 397 1238 428 1388 
z
" transform="scale(0.015625)"/>
      <path id="DejaVuSans-Oblique-6c" d="M 1172 4863 
L 1747 4863 
L 800 0 
L 225 0 
L 1172 4863 
z
" transform="scale(0.015625)"/>
      <path id="DejaVuSans-Oblique-73" d="M 3200 3397 
L 3091 2853 
Q 2863 2978 2609 3040 
Q 2356 3103 2088 3103 
Q 1634 3103 1373 2948 
Q 1113 2794 1113 2528 
Q 1113 2219 1719 2053 
Q 1766 2041 1788 2034 
L 1972 1978 
Q 2547 1819 2739 1644 
Q 2931 1469 2931 1166 
Q 2931 609 2489 259 
Q 2047 -91 1331 -91 
Q 1053 -91 747 -37 
Q 441 16 72 128 
L 184 722 
Q 500 559 806 475 
Q 1113 391 1394 391 
Q 1816 391 2080 572 
Q 2344 753 2344 1031 
Q 2344 1331 1650 1516 
L 1591 1531 
L 1394 1581 
Q 956 1697 753 1886 
Q 550 2075 550 2369 
Q 550 2928 970 3256 
Q 1391 3584 2113 3584 
Q 2397 3584 2667 3537 
Q 2938 3491 3200 3397 
z
" transform="scale(0.015625)"/>
      <path id="DejaVuSans-Oblique-45" d="M 1081 4666 
L 4031 4666 
L 3928 4134 
L 1606 4134 
L 1338 2753 
L 3566 2753 
L 3463 2222 
L 1234 2222 
L 909 531 
L 3284 531 
L 3181 0 
L 172 0 
L 1081 4666 
z
" transform="scale(0.015625)"/>
      <path id="DejaVuSans-Oblique-52" d="M 1613 4147 
L 1294 2491 
L 2106 2491 
Q 2584 2491 2879 2755 
Q 3175 3019 3175 3444 
Q 3175 3784 2976 3965 
Q 2778 4147 2406 4147 
L 1613 4147 
z
M 2772 2241 
Q 2972 2194 3105 2009 
Q 3238 1825 3413 1275 
L 3809 0 
L 3144 0 
L 2778 1197 
Q 2638 1659 2453 1815 
Q 2269 1972 1888 1972 
L 1191 1972 
L 806 0 
L 172 0 
L 1081 4666 
L 2503 4666 
Q 3150 4666 3495 4373 
Q 3841 4081 3841 3531 
Q 3841 3044 3547 2687 
Q 3253 2331 2772 2241 
z
" transform="scale(0.015625)"/>
      <path id="DejaVuSans-Oblique-47" d="M 3494 697 
L 3738 1919 
L 2700 1919 
L 2797 2438 
L 4453 2438 
L 4050 384 
Q 3634 156 3143 32 
Q 2653 -91 2156 -91 
Q 1278 -91 783 396 
Q 288 884 288 1753 
Q 288 2475 589 3126 
Q 891 3778 1422 4213 
Q 1756 4484 2153 4617 
Q 2550 4750 3034 4750 
Q 3472 4750 3873 4639 
Q 4275 4528 4641 4306 
L 4513 3634 
Q 4231 3928 3853 4083 
Q 3475 4238 3047 4238 
Q 2550 4238 2172 4048 
Q 1794 3859 1497 3463 
Q 1244 3125 1098 2667 
Q 953 2209 953 1734 
Q 953 1081 1287 751 
Q 1622 422 2284 422 
Q 2616 422 2925 492 
Q 3234 563 3494 697 
z
" transform="scale(0.015625)"/>
      <path id="Roboto-Regular-44" d="M 528 0 
L 528 4550 
L 1813 4550 
Q 2406 4550 2862 4287 
Q 3319 4025 3567 3540 
Q 3816 3056 3819 2428 
L 3819 2138 
Q 3819 1494 3570 1009 
Q 3322 525 2861 265 
Q 2400 6 1788 0 
L 528 0 
z
M 1128 4056 
L 1128 491 
L 1759 491 
Q 2453 491 2839 922 
Q 3225 1353 3225 2150 
L 3225 2416 
Q 3225 3191 2861 3620 
Q 2497 4050 1828 4056 
L 1128 4056 
z
" transform="scale(0.015625)"/>
      <path id="Roboto-Regular-74" d="M 1222 4200 
L 1222 3381 
L 1853 3381 
L 1853 2934 
L 1222 2934 
L 1222 838 
Q 1222 634 1306 532 
Q 1391 431 1594 431 
Q 1694 431 1869 469 
L 1869 0 
Q 1641 -63 1425 -63 
Q 1038 -63 841 171 
Q 644 406 644 838 
L 644 2934 
L 28 2934 
L 28 3381 
L 644 3381 
L 644 4200 
L 1222 4200 
z
" transform="scale(0.015625)"/>
     </defs>
     <use xlink:href="#Roboto-Regular-53" transform="translate(0 0.015625)"/>
     <use xlink:href="#Roboto-Regular-61" transform="translate(59.326172 0.015625)"/>
     <use xlink:href="#Roboto-Regular-6d" transform="translate(113.720703 0.015625)"/>
     <use xlink:href="#Roboto-Regular-70" transform="translate(201.367188 0.015625)"/>
     <use xlink:href="#Roboto-Regular-6c" transform="translate(257.470703 0.015625)"/>
     <use xlink:href="#Roboto-Regular-65" transform="translate(281.738281 0.015625)"/>
     <use xlink:href="#Roboto-Regular-73" transform="translate(334.716797 0.015625)"/>
     <use xlink:href="#Roboto-Regular-20" transform="translate(386.279297 0.015625)"/>
     <use xlink:href="#Roboto-Regular-33" transform="translate(411.035156 0.015625)"/>
     <use xlink:href="#Roboto-Regular-31" transform="translate(467.1875 0.015625)"/>
     <use xlink:href="#Roboto-Regular-39" transform="translate(523.339844 0.015625)"/>
     <use xlink:href="#Roboto-Regular-20" transform="translate(579.492188 0.015625)"/>
     <use xlink:href="#Roboto-Regular-61" transform="translate(604.248047 0.015625)"/>
     <use xlink:href="#Roboto-Regular-6e" transform="translate(658.642578 0.015625)"/>
     <use xlink:href="#Roboto-Regular-64" transform="translate(713.818359 0.015625)"/>
     <use xlink:href="#Roboto-Regular-20" transform="translate(770.214844 0.015625)"/>
     <use xlink:href="#Roboto-Regular-33" transform="translate(794.970703 0.015625)"/>
     <use xlink:href="#Roboto-Regular-32" transform="translate(851.123047 0.015625)"/>
     <use xlink:href="#Roboto-Regular-35" transform="translate(907.275391 0.015625)"/>
     <use xlink:href="#Roboto-Regular-2c" transform="translate(963.427734 0.015625)"/>
     <use xlink:href="#Roboto-Regular-20" transform="translate(983.056641 0.015625)"/>
     <use xlink:href="#DejaVuSans-Oblique-50" transform="translate(1007.8125 0.015625)"/>
     <use xlink:href="#DejaVuSans-Oblique-65" transform="translate(1068.115234 0.015625)"/>
     <use xlink:href="#DejaVuSans-Oblique-64" transform="translate(1129.638672 0.015625)"/>
     <use xlink:href="#DejaVuSans-Oblique-69" transform="translate(1193.115234 0.015625)"/>
     <use xlink:href="#DejaVuSans-Oblique-61" transform="translate(1220.898438 0.015625)"/>
     <use xlink:href="#DejaVuSans-Oblique-74" transform="translate(1282.177734 0.015625)"/>
     <use xlink:href="#DejaVuSans-Oblique-72" transform="translate(1321.386719 0.015625)"/>
     <use xlink:href="#DejaVuSans-Oblique-69" transform="translate(1362.5 0.015625)"/>
     <use xlink:href="#DejaVuSans-Oblique-63" transform="translate(1390.283203 0.015625)"/>
     <use xlink:href="#Roboto-Regular-20" transform="translate(1445.263672 0.015625)"/>
     <use xlink:href="#DejaVuSans-Oblique-61" transform="translate(1470.019531 0.015625)"/>
     <use xlink:href="#DejaVuSans-Oblique-6e" transform="translate(1531.298828 0.015625)"/>
     <use xlink:href="#DejaVuSans-Oblique-64" transform="translate(1594.677734 0.015625)"/>
     <use xlink:href="#Roboto-Regular-20" transform="translate(1658.154297 0.015625)"/>
     <use xlink:href="#DejaVuSans-Oblique-61" transform="translate(1682.910156 0.015625)"/>
     <use xlink:href="#DejaVuSans-Oblique-64" transform="translate(1744.189453 0.015625)"/>
     <use xlink:href="#DejaVuSans-Oblique-75" transform="translate(1807.666016 0.015625)"/>
     <use xlink:href="#DejaVuSans-Oblique-6c" transform="translate(1871.044922 0.015625)"/>
     <use xlink:href="#DejaVuSans-Oblique-74" transform="translate(1898.828125 0.015625)"/>
     <use xlink:href="#DejaVuSans-Oblique-73" transform="translate(1938.037109 0.015625)"/>
     <use xlink:href="#Roboto-Regular-20" transform="translate(1990.136719 0.015625)"/>
     <use xlink:href="#DejaVuSans-Oblique-45" transform="translate(2014.892578 0.015625)"/>
     <use xlink:href="#DejaVuSans-Oblique-52" transform="translate(2078.076172 0.015625)"/>
     <use xlink:href="#DejaVuSans-Oblique-47" transform="translate(2147.558594 0.015625)"/>
     <use xlink:href="#Roboto-Regular-20" transform="translate(2225.048828 0.015625)"/>
     <use xlink:href="#Roboto-Regular-44" transform="translate(2249.804688 0.015625)"/>
     <use xlink:href="#Roboto-Regular-61" transform="translate(2315.380859 0.015625)"/>
     <use xlink:href="#Roboto-Regular-74" transform="translate(2369.775391 0.015625)"/>
     <use xlink:href="#Roboto-Regular-61" transform="translate(2402.441406 0.015625)"/>
     <use xlink:href="#Roboto-Regular-73" transform="translate(2456.835938 0.015625)"/>
     <use xlink:href="#Roboto-Regular-65" transform="translate(2508.398438 0.015625)"/>
     <use xlink:href="#Roboto-Regular-74" transform="translate(2561.376953 0.015625)"/>
    </g>
   </g>
   <g id="text_17">
    <!-- Photopic Response, Healthy and Unhealthy -->
    <g style="fill: #2d1754" transform="translate(459.325454 21.6)scale(0.15 -0.15)">
     <defs>
      <path id="Roboto-Medium-50" d="M 1253 1691 
L 1253 0 
L 463 0 
L 463 4550 
L 2203 4550 
Q 2966 4550 3414 4153 
Q 3863 3756 3863 3103 
Q 3863 2434 3423 2062 
Q 2984 1691 2194 1691 
L 1253 1691 
z
M 1253 2325 
L 2203 2325 
Q 2625 2325 2847 2523 
Q 3069 2722 3069 3097 
Q 3069 3466 2844 3686 
Q 2619 3906 2225 3913 
L 1253 3913 
L 1253 2325 
z
" transform="scale(0.015625)"/>
      <path id="Roboto-Medium-68" d="M 1138 3013 
Q 1509 3444 2078 3444 
Q 3159 3444 3175 2209 
L 3175 0 
L 2416 0 
L 2416 2181 
Q 2416 2531 2264 2676 
Q 2113 2822 1819 2822 
Q 1363 2822 1138 2416 
L 1138 0 
L 378 0 
L 378 4800 
L 1138 4800 
L 1138 3013 
z
" transform="scale(0.015625)"/>
      <path id="Roboto-Medium-6f" d="M 247 1722 
Q 247 2219 444 2617 
Q 641 3016 997 3230 
Q 1353 3444 1816 3444 
Q 2500 3444 2926 3003 
Q 3353 2563 3388 1834 
L 3391 1656 
Q 3391 1156 3198 762 
Q 3006 369 2648 153 
Q 2291 -63 1822 -63 
Q 1106 -63 676 414 
Q 247 891 247 1684 
L 247 1722 
z
M 1006 1656 
Q 1006 1134 1222 839 
Q 1438 544 1822 544 
Q 2206 544 2420 844 
Q 2634 1144 2634 1722 
Q 2634 2234 2414 2534 
Q 2194 2834 1816 2834 
Q 1444 2834 1225 2539 
Q 1006 2244 1006 1656 
z
" transform="scale(0.015625)"/>
      <path id="Roboto-Medium-74" d="M 1341 4203 
L 1341 3381 
L 1938 3381 
L 1938 2819 
L 1341 2819 
L 1341 931 
Q 1341 738 1417 652 
Q 1494 566 1691 566 
Q 1822 566 1956 597 
L 1956 9 
Q 1697 -63 1456 -63 
Q 581 -63 581 903 
L 581 2819 
L 25 2819 
L 25 3381 
L 581 3381 
L 581 4203 
L 1341 4203 
z
" transform="scale(0.015625)"/>
      <path id="Roboto-Medium-70" d="M 3350 1656 
Q 3350 872 2994 404 
Q 2638 -63 2038 -63 
Q 1481 -63 1147 303 
L 1147 -1300 
L 388 -1300 
L 388 3381 
L 1088 3381 
L 1119 3038 
Q 1453 3444 2028 3444 
Q 2647 3444 2998 2983 
Q 3350 2522 3350 1703 
L 3350 1656 
z
M 2594 1722 
Q 2594 2228 2392 2525 
Q 2191 2822 1816 2822 
Q 1350 2822 1147 2438 
L 1147 938 
Q 1353 544 1822 544 
Q 2184 544 2389 836 
Q 2594 1128 2594 1722 
z
" transform="scale(0.015625)"/>
      <path id="Roboto-Medium-69" d="M 1197 0 
L 438 0 
L 438 3381 
L 1197 3381 
L 1197 0 
z
M 391 4259 
Q 391 4434 502 4550 
Q 613 4666 819 4666 
Q 1025 4666 1137 4550 
Q 1250 4434 1250 4259 
Q 1250 4088 1137 3973 
Q 1025 3859 819 3859 
Q 613 3859 502 3973 
Q 391 4088 391 4259 
z
" transform="scale(0.015625)"/>
      <path id="Roboto-Medium-63" d="M 1778 544 
Q 2063 544 2250 709 
Q 2438 875 2450 1119 
L 3166 1119 
Q 3153 803 2968 529 
Q 2784 256 2468 96 
Q 2153 -63 1788 -63 
Q 1078 -63 662 396 
Q 247 856 247 1666 
L 247 1744 
Q 247 2516 659 2980 
Q 1072 3444 1784 3444 
Q 2388 3444 2767 3092 
Q 3147 2741 3166 2169 
L 2450 2169 
Q 2438 2459 2252 2646 
Q 2066 2834 1778 2834 
Q 1409 2834 1209 2567 
Q 1009 2300 1006 1756 
L 1006 1634 
Q 1006 1084 1204 814 
Q 1403 544 1778 544 
z
" transform="scale(0.015625)"/>
      <path id="Roboto-Medium-20" transform="scale(0.015625)"/>
      <path id="Roboto-Medium-52" d="M 2134 1753 
L 1253 1753 
L 1253 0 
L 463 0 
L 463 4550 
L 2063 4550 
Q 2850 4550 3278 4197 
Q 3706 3844 3706 3175 
Q 3706 2719 3486 2411 
Q 3266 2103 2872 1938 
L 3894 41 
L 3894 0 
L 3047 0 
L 2134 1753 
z
M 1253 2388 
L 2066 2388 
Q 2466 2388 2691 2589 
Q 2916 2791 2916 3141 
Q 2916 3506 2708 3706 
Q 2500 3906 2088 3913 
L 1253 3913 
L 1253 2388 
z
" transform="scale(0.015625)"/>
      <path id="Roboto-Medium-65" d="M 1878 -63 
Q 1156 -63 707 392 
Q 259 847 259 1603 
L 259 1697 
Q 259 2203 454 2601 
Q 650 3000 1003 3222 
Q 1356 3444 1791 3444 
Q 2481 3444 2857 3003 
Q 3234 2563 3234 1756 
L 3234 1450 
L 1025 1450 
Q 1059 1031 1304 787 
Q 1550 544 1922 544 
Q 2444 544 2772 966 
L 3181 575 
Q 2978 272 2639 104 
Q 2300 -63 1878 -63 
z
M 1788 2834 
Q 1475 2834 1283 2615 
Q 1091 2397 1038 2006 
L 2484 2006 
L 2484 2063 
Q 2459 2444 2281 2639 
Q 2103 2834 1788 2834 
z
" transform="scale(0.015625)"/>
      <path id="Roboto-Medium-73" d="M 2284 919 
Q 2284 1122 2117 1228 
Q 1950 1334 1562 1415 
Q 1175 1497 916 1622 
Q 347 1897 347 2419 
Q 347 2856 715 3150 
Q 1084 3444 1653 3444 
Q 2259 3444 2632 3144 
Q 3006 2844 3006 2366 
L 2247 2366 
Q 2247 2584 2084 2729 
Q 1922 2875 1653 2875 
Q 1403 2875 1245 2759 
Q 1088 2644 1088 2450 
Q 1088 2275 1234 2178 
Q 1381 2081 1828 1982 
Q 2275 1884 2529 1748 
Q 2784 1613 2907 1422 
Q 3031 1231 3031 959 
Q 3031 503 2653 220 
Q 2275 -63 1663 -63 
Q 1247 -63 922 87 
Q 597 238 415 500 
Q 234 763 234 1066 
L 972 1066 
Q 988 797 1175 651 
Q 1363 506 1672 506 
Q 1972 506 2128 620 
Q 2284 734 2284 919 
z
" transform="scale(0.015625)"/>
      <path id="Roboto-Medium-6e" d="M 1094 3381 
L 1116 2991 
Q 1491 3444 2100 3444 
Q 3156 3444 3175 2234 
L 3175 0 
L 2416 0 
L 2416 2191 
Q 2416 2513 2277 2667 
Q 2138 2822 1822 2822 
Q 1363 2822 1138 2406 
L 1138 0 
L 378 0 
L 378 3381 
L 1094 3381 
z
" transform="scale(0.015625)"/>
      <path id="Roboto-Medium-2c" d="M 497 -1025 
L 88 -781 
Q 269 -497 336 -286 
Q 403 -75 406 144 
L 406 734 
L 1091 734 
L 1088 188 
Q 1084 -144 920 -476 
Q 756 -809 497 -1025 
z
" transform="scale(0.015625)"/>
      <path id="Roboto-Medium-48" d="M 4075 0 
L 3288 0 
L 3288 2022 
L 1253 2022 
L 1253 0 
L 463 0 
L 463 4550 
L 1253 4550 
L 1253 2656 
L 3288 2656 
L 3288 4550 
L 4075 4550 
L 4075 0 
z
" transform="scale(0.015625)"/>
      <path id="Roboto-Medium-61" d="M 2409 0 
Q 2359 97 2322 316 
Q 1959 -63 1434 -63 
Q 925 -63 603 228 
Q 281 519 281 947 
Q 281 1488 682 1777 
Q 1084 2066 1831 2066 
L 2297 2066 
L 2297 2288 
Q 2297 2550 2150 2708 
Q 2003 2866 1703 2866 
Q 1444 2866 1278 2736 
Q 1113 2606 1113 2406 
L 353 2406 
Q 353 2684 537 2926 
Q 722 3169 1039 3306 
Q 1356 3444 1747 3444 
Q 2341 3444 2694 3145 
Q 3047 2847 3056 2306 
L 3056 781 
Q 3056 325 3184 53 
L 3184 0 
L 2409 0 
z
M 1575 547 
Q 1800 547 1998 656 
Q 2197 766 2297 950 
L 2297 1588 
L 1888 1588 
Q 1466 1588 1253 1441 
Q 1041 1294 1041 1025 
Q 1041 806 1186 676 
Q 1331 547 1575 547 
z
" transform="scale(0.015625)"/>
      <path id="Roboto-Medium-6c" d="M 1197 0 
L 438 0 
L 438 4800 
L 1197 4800 
L 1197 0 
z
" transform="scale(0.015625)"/>
      <path id="Roboto-Medium-79" d="M 1572 1088 
L 2259 3381 
L 3069 3381 
L 1725 -513 
Q 1416 -1366 675 -1366 
Q 509 -1366 309 -1309 
L 309 -722 
L 453 -731 
Q 741 -731 886 -626 
Q 1031 -522 1116 -275 
L 1225 16 
L 38 3381 
L 856 3381 
L 1572 1088 
z
" transform="scale(0.015625)"/>
      <path id="Roboto-Medium-64" d="M 247 1716 
Q 247 2497 609 2970 
Q 972 3444 1581 3444 
Q 2119 3444 2450 3069 
L 2450 4800 
L 3209 4800 
L 3209 0 
L 2522 0 
L 2484 350 
Q 2144 -63 1575 -63 
Q 981 -63 614 415 
Q 247 894 247 1716 
z
M 1006 1650 
Q 1006 1134 1204 845 
Q 1403 556 1769 556 
Q 2234 556 2450 972 
L 2450 2416 
Q 2241 2822 1775 2822 
Q 1406 2822 1206 2530 
Q 1006 2238 1006 1650 
z
" transform="scale(0.015625)"/>
      <path id="Roboto-Medium-55" d="M 3791 4550 
L 3791 1509 
Q 3791 784 3327 360 
Q 2863 -63 2091 -63 
Q 1309 -63 850 354 
Q 391 772 391 1513 
L 391 4550 
L 1178 4550 
L 1178 1506 
Q 1178 1050 1409 809 
Q 1641 569 2091 569 
Q 3003 569 3003 1531 
L 3003 4550 
L 3791 4550 
z
" transform="scale(0.015625)"/>
     </defs>
     <use xlink:href="#Roboto-Medium-50"/>
     <use xlink:href="#Roboto-Medium-68" x="63.916016"/>
     <use xlink:href="#Roboto-Medium-6f" x="119.433594"/>
     <use xlink:href="#Roboto-Medium-74" x="176.367188"/>
     <use xlink:href="#Roboto-Medium-6f" x="209.619141"/>
     <use xlink:href="#Roboto-Medium-70" x="266.552734"/>
     <use xlink:href="#Roboto-Medium-69" x="322.851562"/>
     <use xlink:href="#Roboto-Medium-63" x="348.388672"/>
     <use xlink:href="#Roboto-Medium-20" x="400.732422"/>
     <use xlink:href="#Roboto-Medium-52" x="425.634766"/>
     <use xlink:href="#Roboto-Medium-65" x="488.037109"/>
     <use xlink:href="#Roboto-Medium-73" x="541.699219"/>
     <use xlink:href="#Roboto-Medium-70" x="593.310547"/>
     <use xlink:href="#Roboto-Medium-6f" x="649.609375"/>
     <use xlink:href="#Roboto-Medium-6e" x="706.542969"/>
     <use xlink:href="#Roboto-Medium-73" x="762.158203"/>
     <use xlink:href="#Roboto-Medium-65" x="813.769531"/>
     <use xlink:href="#Roboto-Medium-2c" x="867.431641"/>
     <use xlink:href="#Roboto-Medium-20" x="889.404297"/>
     <use xlink:href="#Roboto-Medium-48" x="914.306641"/>
     <use xlink:href="#Roboto-Medium-65" x="985.351562"/>
     <use xlink:href="#Roboto-Medium-61" x="1039.013672"/>
     <use xlink:href="#Roboto-Medium-6c" x="1093.115234"/>
     <use xlink:href="#Roboto-Medium-74" x="1118.652344"/>
     <use xlink:href="#Roboto-Medium-68" x="1151.904297"/>
     <use xlink:href="#Roboto-Medium-79" x="1207.421875"/>
     <use xlink:href="#Roboto-Medium-20" x="1256.103516"/>
     <use xlink:href="#Roboto-Medium-61" x="1281.005859"/>
     <use xlink:href="#Roboto-Medium-6e" x="1335.107422"/>
     <use xlink:href="#Roboto-Medium-64" x="1390.722656"/>
     <use xlink:href="#Roboto-Medium-20" x="1447.167969"/>
     <use xlink:href="#Roboto-Medium-55" x="1472.070312"/>
     <use xlink:href="#Roboto-Medium-6e" x="1537.255859"/>
     <use xlink:href="#Roboto-Medium-68" x="1592.871094"/>
     <use xlink:href="#Roboto-Medium-65" x="1648.388672"/>
     <use xlink:href="#Roboto-Medium-61" x="1702.050781"/>
     <use xlink:href="#Roboto-Medium-6c" x="1756.152344"/>
     <use xlink:href="#Roboto-Medium-74" x="1781.689453"/>
     <use xlink:href="#Roboto-Medium-68" x="1814.941406"/>
     <use xlink:href="#Roboto-Medium-79" x="1870.458984"/>
    </g>
   </g>
   <g id="legend_1">
    <g id="patch_7">
     <path d="M 1087.520313 68.848438 
L 1134.2 68.848438 
Q 1136.2 68.848438 1136.2 66.848438 
L 1136.2 38.6 
Q 1136.2 36.6 1134.2 36.6 
L 1087.520313 36.6 
Q 1085.520313 36.6 1085.520313 38.6 
L 1085.520313 66.848438 
Q 1085.520313 68.848438 1087.520313 68.848438 
z
" style="fill: #ffffff; stroke: #cccccc; stroke-width: 0.3; stroke-linejoin: miter"/>
    </g>
    <g id="line2d_27">
     <path d="M 1089.520313 44.1 
L 1099.520313 44.1 
L 1109.520313 44.1 
" style="fill: none; stroke: #bd0016; stroke-width: 2; stroke-linecap: round"/>
    </g>
    <g id="text_18">
     <!-- ﺭﺎﻤﯿﺑ -->
     <g style="fill: #262626" transform="translate(1117.520313 47.6)scale(0.1 -0.1)">
      <defs>
       <path id="BNazanin-fead" d="M 2016 -34 
Q 2016 -619 1644 -1138 
Q 1325 -1581 1113 -1581 
Q 656 -1581 325 -1534 
Q 216 -1519 216 -1481 
Q 216 -1444 328 -1422 
Q 797 -1325 1272 -925 
Q 1778 -497 1778 -103 
Q 1778 159 1359 566 
L 1541 944 
Q 1566 994 1578 997 
Q 1597 991 1631 947 
Q 1775 772 1891 481 
Q 2016 175 2016 -34 
z
" transform="scale(0.015625)"/>
       <path id="BNazanin-fee4" d="M 2947 3 
L 2688 3 
Q 2406 3 2109 334 
Q 1944 -159 1734 -159 
Q 1541 -159 1194 38 
Q 884 213 759 353 
Q 478 3 163 3 
L -81 3 
L -81 466 
L 175 466 
Q 450 466 706 697 
Q 866 878 1094 1125 
Q 1306 1356 1491 1356 
Q 1719 1356 1906 1125 
Q 2000 1006 2247 697 
Q 2438 466 2688 466 
L 2947 466 
L 2947 3 
z
M 1869 334 
Q 1888 516 1766 725 
Q 1628 963 1425 963 
Q 1219 963 981 656 
Q 1047 572 1322 428 
Q 1619 272 1800 266 
Q 1863 263 1869 334 
z
" transform="scale(0.015625)"/>
       <path id="BNazanin-fe91" d="M 1038 797 
Q 1038 3 247 3 
L -81 3 
L -81 466 
L 191 466 
Q 788 466 788 681 
Q 788 831 516 1178 
L 678 1572 
Q 703 1631 719 1631 
Q 734 1631 784 1559 
Q 1038 1188 1038 797 
z
M 909 -878 
L 584 -1203 
L 256 -875 
L 581 -550 
L 909 -878 
z
" transform="scale(0.015625)"/>
      </defs>
      <use xlink:href="#BNazanin-fead"/>
      <use xlink:href="#BNazanin-fe8e" x="31.591797"/>
      <use xlink:href="#BNazanin-fee4" x="55.029297"/>
      <use xlink:href="#BNazanin-fbff" x="99.755859"/>
      <use xlink:href="#BNazanin-fe91" x="130.517578"/>
     </g>
    </g>
    <g id="line2d_28">
     <path d="M 1089.520313 58.570312 
L 1099.520313 58.570312 
L 1109.520313 58.570312 
" style="fill: none; stroke: #000000; stroke-width: 2; stroke-linecap: round"/>
    </g>
    <g id="text_19">
     <!-- ﻢﻟﺎﺳ -->
     <g style="fill: #262626" transform="translate(1117.520313 62.070312)scale(0.1 -0.1)">
      <defs>
       <path id="BNazanin-fee2" d="M 3303 3 
L 3113 3 
Q 2747 3 2553 166 
Q 2578 81 2578 -53 
Q 2578 -678 2163 -678 
Q 1822 -678 1619 -303 
Q 1453 3 1453 378 
Q 1453 459 1463 534 
Q 1403 544 1341 544 
Q 950 544 772 341 
Q 897 -631 897 -1106 
Q 897 -1338 775 -1663 
Q 731 -1778 709 -1778 
Q 688 -1778 672 -1625 
L 484 231 
Q 472 350 619 559 
Q 750 744 869 831 
Q 953 894 1172 941 
Q 1366 984 1497 984 
Q 1531 984 1559 981 
L 1619 1238 
Q 1638 1316 1656 1316 
Q 1675 1309 1719 1272 
Q 2200 841 2416 697 
Q 2766 466 3069 466 
L 3303 466 
L 3303 3 
z
M 2397 28 
Q 2397 194 2150 419 
Q 2109 456 1700 809 
Q 1684 691 1684 581 
Q 1684 303 1784 91 
Q 1913 -184 2163 -184 
Q 2397 -184 2397 28 
z
" transform="scale(0.015625)"/>
       <path id="BNazanin-feb3" d="M 3234 856 
Q 3234 500 3069 269 
Q 2881 3 2541 3 
Q 2141 3 1966 331 
Q 1744 3 1403 3 
Q 966 3 819 331 
Q 591 3 197 3 
L -81 3 
L -81 466 
L 238 466 
Q 672 466 750 934 
Q 769 1050 825 1050 
Q 875 1050 888 931 
Q 934 466 1391 466 
Q 1659 466 1772 603 
Q 1850 700 1884 931 
Q 1900 1044 1950 1044 
Q 2003 1044 2019 934 
Q 2081 466 2500 466 
Q 2956 466 2956 681 
Q 2956 853 2731 1138 
L 2913 1478 
Q 2956 1559 2975 1559 
Q 2994 1559 3044 1469 
Q 3234 1122 3234 856 
z
" transform="scale(0.015625)"/>
      </defs>
      <use xlink:href="#BNazanin-fee2"/>
      <use xlink:href="#BNazanin-fedf" x="50.341797"/>
      <use xlink:href="#BNazanin-fe8e" x="66.357422"/>
      <use xlink:href="#BNazanin-feb3" x="89.794922"/>
     </g>
    </g>
   </g>
  </g>
 </g>
 <defs>
  <clipPath id="pd501bfa1d0">
   <rect x="65.322002" y="31.6" width="1075.877998" height="565.68375"/>
  </clipPath>
 </defs>
</svg>
