<?xml version="1.0" encoding="utf-8" standalone="no"?>
<!DOCTYPE svg PUBLIC "-//W3C//DTD SVG 1.1//EN"
  "http://www.w3.org/Graphics/SVG/1.1/DTD/svg11.dtd">
<svg xmlns:xlink="http://www.w3.org/1999/xlink" width="1152pt" height="648pt" viewBox="0 0 1152 648" xmlns="http://www.w3.org/2000/svg" version="1.1">
 <metadata>
  <rdf:RDF xmlns:dc="http://purl.org/dc/elements/1.1/" xmlns:cc="http://creativecommons.org/ns#" xmlns:rdf="http://www.w3.org/1999/02/22-rdf-syntax-ns#">
   <cc:Work>
    <dc:type rdf:resource="http://purl.org/dc/dcmitype/StillImage"/>
    <dc:date>2022-08-24T18:19:40.097031</dc:date>
    <dc:format>image/svg+xml</dc:format>
    <dc:creator>
     <cc:Agent>
      <dc:title>Matplotlib v3.5.3, https://matplotlib.org/</dc:title>
     </cc:Agent>
    </dc:creator>
   </cc:Work>
  </rdf:RDF>
 </metadata>
 <defs>
  <style type="text/css">*{stroke-linejoin: round; stroke-linecap: butt}</style>
 </defs>
 <g id="figure_1">
  <g id="patch_1">
   <path d="M 0 648 
L 1152 648 
L 1152 0 
L 0 0 
z
" style="fill: #ffffff"/>
  </g>
  <g id="axes_1">
   <g id="patch_2">
    <path d="M 60.364751 289.428125 
L 1141.2 289.428125 
L 1141.2 74.41625 
L 60.364751 74.41625 
z
" style="fill: #eaeaf2"/>
   </g>
   <g id="matplotlib.axis_1">
    <g id="xtick_1">
     <g id="line2d_1">
      <path d="M 109.493626 289.428125 
L 109.493626 74.41625 
" clip-path="url(#p6b8fa9ae39)" style="fill: none; stroke: #ffffff; stroke-linecap: round"/>
     </g>
     <g id="line2d_2"/>
     <g id="text_1">
      <!-- 100 -->
      <g style="fill: #262626" transform="translate(101.070188 303.928125)scale(0.1 -0.1)">
       <defs>
        <path id="Roboto-Regular-31" d="M 2278 0 
L 1697 0 
L 1697 3853 
L 531 3425 
L 531 3950 
L 2188 4572 
L 2278 4572 
L 2278 0 
z
" transform="scale(0.015625)"/>
        <path id="Roboto-Regular-30" d="M 3231 1941 
Q 3231 925 2884 431 
Q 2538 -63 1800 -63 
Q 1072 -63 722 420 
Q 372 903 359 1863 
L 359 2634 
Q 359 3638 706 4125 
Q 1053 4613 1794 4613 
Q 2528 4613 2875 4142 
Q 3222 3672 3231 2691 
L 3231 1941 
z
M 2653 2731 
Q 2653 3466 2447 3802 
Q 2241 4138 1794 4138 
Q 1350 4138 1147 3803 
Q 944 3469 938 2775 
L 938 1850 
Q 938 1113 1152 761 
Q 1366 409 1800 409 
Q 2228 409 2436 740 
Q 2644 1072 2653 1784 
L 2653 2731 
z
" transform="scale(0.015625)"/>
       </defs>
       <use xlink:href="#Roboto-Regular-31"/>
       <use xlink:href="#Roboto-Regular-30" x="56.152344"/>
       <use xlink:href="#Roboto-Regular-30" x="112.304688"/>
      </g>
     </g>
    </g>
    <g id="xtick_2">
     <g id="line2d_3">
      <path d="M 306.087763 289.428125 
L 306.087763 74.41625 
" clip-path="url(#p6b8fa9ae39)" style="fill: none; stroke: #ffffff; stroke-linecap: round"/>
     </g>
     <g id="line2d_4"/>
     <g id="text_2">
      <!-- 102 -->
      <g style="fill: #262626" transform="translate(297.664326 303.928125)scale(0.1 -0.1)">
       <defs>
        <path id="Roboto-Regular-32" d="M 3359 0 
L 378 0 
L 378 416 
L 1953 2166 
Q 2303 2563 2436 2811 
Q 2569 3059 2569 3325 
Q 2569 3681 2353 3909 
Q 2138 4138 1778 4138 
Q 1347 4138 1108 3892 
Q 869 3647 869 3209 
L 291 3209 
Q 291 3838 695 4225 
Q 1100 4613 1778 4613 
Q 2413 4613 2781 4280 
Q 3150 3947 3150 3394 
Q 3150 2722 2294 1794 
L 1075 472 
L 3359 472 
L 3359 0 
z
" transform="scale(0.015625)"/>
       </defs>
       <use xlink:href="#Roboto-Regular-31"/>
       <use xlink:href="#Roboto-Regular-30" x="56.152344"/>
       <use xlink:href="#Roboto-Regular-32" x="112.304688"/>
      </g>
     </g>
    </g>
    <g id="xtick_3">
     <g id="line2d_5">
      <path d="M 502.681901 289.428125 
L 502.681901 74.41625 
" clip-path="url(#p6b8fa9ae39)" style="fill: none; stroke: #ffffff; stroke-linecap: round"/>
     </g>
     <g id="line2d_6"/>
     <g id="text_3">
      <!-- 104 -->
      <g style="fill: #262626" transform="translate(494.258463 303.928125)scale(0.1 -0.1)">
       <defs>
        <path id="Roboto-Regular-34" d="M 2819 1528 
L 3450 1528 
L 3450 1056 
L 2819 1056 
L 2819 0 
L 2238 0 
L 2238 1056 
L 166 1056 
L 166 1397 
L 2203 4550 
L 2819 4550 
L 2819 1528 
z
M 822 1528 
L 2238 1528 
L 2238 3759 
L 2169 3634 
L 822 1528 
z
" transform="scale(0.015625)"/>
       </defs>
       <use xlink:href="#Roboto-Regular-31"/>
       <use xlink:href="#Roboto-Regular-30" x="56.152344"/>
       <use xlink:href="#Roboto-Regular-34" x="112.304688"/>
      </g>
     </g>
    </g>
    <g id="xtick_4">
     <g id="line2d_7">
      <path d="M 699.276038 289.428125 
L 699.276038 74.41625 
" clip-path="url(#p6b8fa9ae39)" style="fill: none; stroke: #ffffff; stroke-linecap: round"/>
     </g>
     <g id="line2d_8"/>
     <g id="text_4">
      <!-- 106 -->
      <g style="fill: #262626" transform="translate(690.852601 303.928125)scale(0.1 -0.1)">
       <defs>
        <path id="Roboto-Regular-36" d="M 2647 4553 
L 2647 4063 
L 2541 4063 
Q 1866 4050 1466 3662 
Q 1066 3275 1003 2572 
Q 1363 2984 1984 2984 
Q 2578 2984 2933 2565 
Q 3288 2147 3288 1484 
Q 3288 781 2905 359 
Q 2522 -63 1878 -63 
Q 1225 -63 819 439 
Q 413 941 413 1731 
L 413 1953 
Q 413 3209 948 3873 
Q 1484 4538 2544 4553 
L 2647 4553 
z
M 1888 2503 
Q 1591 2503 1341 2325 
Q 1091 2147 994 1878 
L 994 1666 
Q 994 1103 1247 759 
Q 1500 416 1878 416 
Q 2269 416 2492 703 
Q 2716 991 2716 1456 
Q 2716 1925 2489 2214 
Q 2263 2503 1888 2503 
z
" transform="scale(0.015625)"/>
       </defs>
       <use xlink:href="#Roboto-Regular-31"/>
       <use xlink:href="#Roboto-Regular-30" x="56.152344"/>
       <use xlink:href="#Roboto-Regular-36" x="112.304688"/>
      </g>
     </g>
    </g>
    <g id="xtick_5">
     <g id="line2d_9">
      <path d="M 895.870176 289.428125 
L 895.870176 74.41625 
" clip-path="url(#p6b8fa9ae39)" style="fill: none; stroke: #ffffff; stroke-linecap: round"/>
     </g>
     <g id="line2d_10"/>
     <g id="text_5">
      <!-- 108 -->
      <g style="fill: #262626" transform="translate(887.446738 303.928125)scale(0.1 -0.1)">
       <defs>
        <path id="Roboto-Regular-38" d="M 3138 3363 
Q 3138 3022 2958 2756 
Q 2778 2491 2472 2341 
Q 2828 2188 3036 1894 
Q 3244 1600 3244 1228 
Q 3244 638 2845 287 
Q 2447 -63 1797 -63 
Q 1141 -63 745 289 
Q 350 641 350 1228 
Q 350 1597 551 1894 
Q 753 2191 1109 2344 
Q 806 2494 631 2759 
Q 456 3025 456 3363 
Q 456 3938 825 4275 
Q 1194 4613 1797 4613 
Q 2397 4613 2767 4275 
Q 3138 3938 3138 3363 
z
M 2666 1241 
Q 2666 1622 2423 1862 
Q 2181 2103 1790 2103 
Q 1400 2103 1164 1865 
Q 928 1628 928 1240 
Q 928 853 1158 631 
Q 1388 409 1797 409 
Q 2203 409 2434 632 
Q 2666 856 2666 1241 
z
M 1797 4138 
Q 1456 4138 1245 3927 
Q 1034 3716 1034 3353 
Q 1034 3006 1242 2792 
Q 1450 2578 1797 2578 
Q 2144 2578 2351 2792 
Q 2559 3006 2559 3353 
Q 2559 3700 2343 3919 
Q 2128 4138 1797 4138 
z
" transform="scale(0.015625)"/>
       </defs>
       <use xlink:href="#Roboto-Regular-31"/>
       <use xlink:href="#Roboto-Regular-30" x="56.152344"/>
       <use xlink:href="#Roboto-Regular-38" x="112.304688"/>
      </g>
     </g>
    </g>
    <g id="xtick_6">
     <g id="line2d_11">
      <path d="M 1092.464313 289.428125 
L 1092.464313 74.41625 
" clip-path="url(#p6b8fa9ae39)" style="fill: none; stroke: #ffffff; stroke-linecap: round"/>
     </g>
     <g id="line2d_12"/>
     <g id="text_6">
      <!-- 110 -->
      <g style="fill: #262626" transform="translate(1084.040876 303.928125)scale(0.1 -0.1)">
       <use xlink:href="#Roboto-Regular-31"/>
       <use xlink:href="#Roboto-Regular-31" x="56.152344"/>
       <use xlink:href="#Roboto-Regular-30" x="112.304688"/>
      </g>
     </g>
    </g>
    <g id="text_7">
     <!-- (ﻪﯿﻧﺎﺛ) ﻥﺎﻣﺯ -->
     <g style="fill: #056385" transform="translate(575.880969 329.245625)scale(0.14 -0.14)">
      <defs>
       <path id="BNazanin-28" d="M 1791 3238 
Q 1747 3166 1569 2913 
Q 934 2009 934 1275 
Q 934 675 1256 81 
Q 1363 -116 1775 -675 
Q 1794 -700 1794 -728 
Q 1794 -800 1697 -800 
Q 1613 -800 1331 -525 
Q 991 -194 775 203 
Q 488 731 488 1259 
Q 488 1863 831 2422 
Q 1147 2931 1681 3297 
Q 1722 3325 1756 3309 
Q 1791 3294 1791 3238 
z
" transform="scale(0.015625)"/>
       <path id="BNazanin-feea" d="M 2738 3 
L 2441 3 
Q 1928 3 1791 641 
Q 1509 363 1466 363 
L 1113 363 
Q 925 363 741 419 
Q 484 497 484 638 
Q 484 1088 803 1369 
Q 1016 1556 1538 1763 
L 1459 2147 
L 1728 2450 
Q 1744 2400 2000 1141 
Q 2078 756 2144 641 
Q 2244 466 2459 466 
L 2738 466 
L 2738 3 
z
M 1741 819 
L 1606 1453 
Q 1403 1394 1122 1256 
Q 738 1069 738 959 
Q 738 869 1031 819 
Q 1238 784 1397 784 
Q 1594 784 1741 819 
z
" transform="scale(0.015625)"/>
       <path id="BNazanin-fbff" d="M 2050 3 
L 1744 3 
Q 1191 3 1003 366 
Q 797 3 178 3 
L -81 3 
L -81 466 
L 275 466 
Q 859 466 913 919 
Q 934 1100 1003 1100 
Q 1072 1100 1091 913 
Q 1131 466 1697 466 
L 2050 466 
L 2050 3 
z
M 1419 -878 
L 1109 -1188 
L 797 -875 
L 1106 -566 
L 1419 -878 
z
M 731 -878 
L 425 -1188 
L 113 -875 
L 422 -566 
L 731 -878 
z
" transform="scale(0.015625)"/>
       <path id="BNazanin-fee7" d="M 1038 797 
Q 1038 3 247 3 
L -81 3 
L -81 466 
L 191 466 
Q 788 466 788 681 
Q 788 831 516 1178 
L 678 1572 
Q 703 1631 719 1631 
Q 734 1631 784 1559 
Q 1038 1188 1038 797 
z
M 1006 2619 
L 681 2294 
L 356 2622 
L 681 2947 
L 1006 2619 
z
" transform="scale(0.015625)"/>
       <path id="BNazanin-fe8e" d="M 1584 3 
L 1313 3 
Q 866 3 694 369 
Q 572 625 575 1134 
L 578 1897 
Q 581 2450 484 3453 
L 731 3716 
Q 800 3788 813 3706 
Q 897 3184 897 2128 
L 897 963 
Q 897 466 1375 466 
L 1584 466 
L 1584 3 
z
" transform="scale(0.015625)"/>
       <path id="BNazanin-fe9b" d="M 1038 797 
Q 1038 3 247 3 
L -81 3 
L -81 466 
L 191 466 
Q 788 466 788 681 
Q 788 831 516 1178 
L 678 1572 
Q 703 1631 719 1631 
Q 734 1631 784 1559 
Q 1038 1188 1038 797 
z
M 953 3100 
L 659 2806 
L 366 3103 
L 659 3394 
L 953 3100 
z
M 1313 2475 
L 1019 2184 
L 725 2478 
L 1016 2769 
L 1313 2475 
z
M 600 2475 
L 309 2184 
L 13 2478 
L 306 2769 
L 600 2475 
z
" transform="scale(0.015625)"/>
       <path id="BNazanin-29" d="M 488 -728 
Q 519 -672 709 -403 
Q 1347 497 1347 1238 
Q 1347 1841 1025 2428 
Q 919 2622 503 3184 
Q 484 3209 484 3238 
Q 484 3313 584 3313 
Q 669 3313 947 3038 
Q 1288 2700 1503 2306 
Q 1791 1778 1791 1250 
Q 1791 638 1450 88 
Q 1138 -419 597 -788 
Q 559 -813 525 -797 
Q 488 -781 488 -728 
z
" transform="scale(0.015625)"/>
       <path id="BNazanin-20" transform="scale(0.015625)"/>
       <path id="BNazanin-fee5" d="M 3453 59 
Q 3488 -150 3488 -291 
Q 3488 -516 3413 -728 
Q 3256 -1175 2709 -1422 
Q 2253 -1628 1716 -1628 
Q 1191 -1628 853 -1369 
Q 484 -1081 484 -569 
Q 484 -297 619 13 
Q 716 234 819 359 
Q 869 419 909 419 
Q 947 419 947 375 
Q 947 347 928 309 
Q 750 -56 750 -359 
Q 750 -656 947 -872 
Q 1206 -1156 1731 -1156 
Q 2325 -1156 2781 -944 
Q 3156 -769 3250 -563 
Q 3281 -494 3281 -391 
Q 3281 -231 3200 0 
Q 3131 194 2825 628 
L 2988 953 
Q 3025 1025 3044 1025 
Q 3063 1025 3100 966 
Q 3375 538 3453 59 
z
M 2275 1791 
L 1950 1466 
L 1622 1794 
L 1947 2119 
L 2275 1791 
z
" transform="scale(0.015625)"/>
       <path id="BNazanin-fee3" d="M 2066 797 
Q 2091 500 1997 297 
Q 1853 -13 1678 -13 
Q 1359 -13 772 397 
Q 591 181 519 125 
Q 363 3 134 3 
L -81 3 
L -81 466 
L 203 466 
Q 472 466 675 741 
Q 775 884 1034 1250 
Q 1231 1525 1438 1525 
Q 1728 1525 1913 1231 
Q 2047 1016 2066 797 
z
M 1828 503 
Q 1828 678 1697 884 
Q 1550 1116 1375 1116 
Q 1197 1116 956 750 
Q 1056 641 1322 520 
Q 1588 400 1734 400 
Q 1828 400 1828 503 
z
" transform="scale(0.015625)"/>
       <path id="BNazanin-feaf" d="M 2016 -34 
Q 2016 -619 1644 -1138 
Q 1325 -1581 1113 -1581 
Q 656 -1581 325 -1534 
Q 216 -1519 216 -1481 
Q 216 -1444 328 -1422 
Q 797 -1325 1272 -925 
Q 1778 -497 1778 -103 
Q 1778 159 1359 566 
L 1541 944 
Q 1566 994 1578 997 
Q 1597 991 1631 947 
Q 1775 772 1891 481 
Q 2016 175 2016 -34 
z
M 1722 2113 
L 1397 1788 
L 1072 2116 
L 1397 2438 
L 1722 2113 
z
" transform="scale(0.015625)"/>
      </defs>
      <use xlink:href="#BNazanin-28"/>
      <use xlink:href="#BNazanin-feea" x="28.125"/>
      <use xlink:href="#BNazanin-fbff" x="69.628906"/>
      <use xlink:href="#BNazanin-fee7" x="100.390625"/>
      <use xlink:href="#BNazanin-fe8e" x="116.650391"/>
      <use xlink:href="#BNazanin-fe9b" x="140.087891"/>
      <use xlink:href="#BNazanin-29" x="161.230469"/>
      <use xlink:href="#BNazanin-20" x="189.355469"/>
      <use xlink:href="#BNazanin-fee5" x="213.769531"/>
      <use xlink:href="#BNazanin-fe8e" x="268.359375"/>
      <use xlink:href="#BNazanin-fee3" x="291.796875"/>
      <use xlink:href="#BNazanin-feaf" x="324.121094"/>
     </g>
    </g>
   </g>
   <g id="matplotlib.axis_2">
    <g id="ytick_1">
     <g id="line2d_13">
      <path d="M 60.364751 265.874283 
L 1141.2 265.874283 
" clip-path="url(#p6b8fa9ae39)" style="fill: none; stroke: #ffffff; stroke-linecap: round"/>
     </g>
     <g id="line2d_14"/>
     <g id="text_8">
      <!-- $\mathdefault{−1.0}$ -->
      <g style="fill: #262626" transform="translate(33.764751 269.624283)scale(0.1 -0.1)">
       <defs>
        <path id="Roboto-Regular-2212" d="M 3134 2034 
L 525 2034 
L 525 2506 
L 3134 2506 
L 3134 2034 
z
" transform="scale(0.015625)"/>
        <path id="Roboto-Regular-2e" d="M 450 303 
Q 450 453 539 553 
Q 628 653 806 653 
Q 984 653 1076 553 
Q 1169 453 1169 303 
Q 1169 159 1076 62 
Q 984 -34 806 -34 
Q 628 -34 539 62 
Q 450 159 450 303 
z
" transform="scale(0.015625)"/>
       </defs>
       <use xlink:href="#Roboto-Regular-2212" transform="translate(0 0.921875)"/>
       <use xlink:href="#Roboto-Regular-31" transform="translate(57.128906 0.921875)"/>
       <use xlink:href="#Roboto-Regular-2e" transform="translate(113.28125 0.921875)"/>
       <use xlink:href="#Roboto-Regular-30" transform="translate(139.599609 0.921875)"/>
      </g>
     </g>
    </g>
    <g id="ytick_2">
     <g id="line2d_15">
      <path d="M 60.364751 222.234038 
L 1141.2 222.234038 
" clip-path="url(#p6b8fa9ae39)" style="fill: none; stroke: #ffffff; stroke-linecap: round"/>
     </g>
     <g id="line2d_16"/>
     <g id="text_9">
      <!-- $\mathdefault{−0.5}$ -->
      <g style="fill: #262626" transform="translate(33.764751 225.984038)scale(0.1 -0.1)">
       <defs>
        <path id="Roboto-Regular-35" d="M 644 2281 
L 875 4550 
L 3206 4550 
L 3206 4016 
L 1366 4016 
L 1228 2775 
Q 1563 2972 1988 2972 
Q 2609 2972 2975 2561 
Q 3341 2150 3341 1450 
Q 3341 747 2961 342 
Q 2581 -63 1900 -63 
Q 1297 -63 915 271 
Q 534 606 481 1197 
L 1028 1197 
Q 1081 806 1306 607 
Q 1531 409 1900 409 
Q 2303 409 2533 684 
Q 2763 959 2763 1444 
Q 2763 1900 2514 2176 
Q 2266 2453 1853 2453 
Q 1475 2453 1259 2288 
L 1106 2163 
L 644 2281 
z
" transform="scale(0.015625)"/>
       </defs>
       <use xlink:href="#Roboto-Regular-2212" transform="translate(0 0.921875)"/>
       <use xlink:href="#Roboto-Regular-30" transform="translate(57.128906 0.921875)"/>
       <use xlink:href="#Roboto-Regular-2e" transform="translate(113.28125 0.921875)"/>
       <use xlink:href="#Roboto-Regular-35" transform="translate(139.599609 0.921875)"/>
      </g>
     </g>
    </g>
    <g id="ytick_3">
     <g id="line2d_17">
      <path d="M 60.364751 178.593794 
L 1141.2 178.593794 
" clip-path="url(#p6b8fa9ae39)" style="fill: none; stroke: #ffffff; stroke-linecap: round"/>
     </g>
     <g id="line2d_18"/>
     <g id="text_10">
      <!-- $\mathdefault{0.0}$ -->
      <g style="fill: #262626" transform="translate(39.464751 182.343794)scale(0.1 -0.1)">
       <use xlink:href="#Roboto-Regular-30" transform="translate(0 0.921875)"/>
       <use xlink:href="#Roboto-Regular-2e" transform="translate(56.152344 0.921875)"/>
       <use xlink:href="#Roboto-Regular-30" transform="translate(82.470703 0.921875)"/>
      </g>
     </g>
    </g>
    <g id="ytick_4">
     <g id="line2d_19">
      <path d="M 60.364751 134.953549 
L 1141.2 134.953549 
" clip-path="url(#p6b8fa9ae39)" style="fill: none; stroke: #ffffff; stroke-linecap: round"/>
     </g>
     <g id="line2d_20"/>
     <g id="text_11">
      <!-- $\mathdefault{0.5}$ -->
      <g style="fill: #262626" transform="translate(39.464751 138.703549)scale(0.1 -0.1)">
       <use xlink:href="#Roboto-Regular-30" transform="translate(0 0.921875)"/>
       <use xlink:href="#Roboto-Regular-2e" transform="translate(56.152344 0.921875)"/>
       <use xlink:href="#Roboto-Regular-35" transform="translate(82.470703 0.921875)"/>
      </g>
     </g>
    </g>
    <g id="ytick_5">
     <g id="line2d_21">
      <path d="M 60.364751 91.313305 
L 1141.2 91.313305 
" clip-path="url(#p6b8fa9ae39)" style="fill: none; stroke: #ffffff; stroke-linecap: round"/>
     </g>
     <g id="line2d_22"/>
     <g id="text_12">
      <!-- $\mathdefault{1.0}$ -->
      <g style="fill: #262626" transform="translate(39.464751 95.063305)scale(0.1 -0.1)">
       <use xlink:href="#Roboto-Regular-31" transform="translate(0 0.921875)"/>
       <use xlink:href="#Roboto-Regular-2e" transform="translate(56.152344 0.921875)"/>
       <use xlink:href="#Roboto-Regular-30" transform="translate(82.470703 0.921875)"/>
      </g>
     </g>
    </g>
    <g id="text_13">
     <!-- (ﺖﻟﻭ) ﻩﺯﺍﺪﻧﺍ -->
     <g style="fill: #056385" transform="translate(20.306313 207.024844)rotate(-90)scale(0.14 -0.14)">
      <defs>
       <path id="BNazanin-fe96" d="M 4803 3 
L 4634 3 
Q 4353 3 4175 131 
Q 3972 275 3969 544 
Q 3303 -72 1916 -72 
Q 484 -72 484 797 
Q 484 1091 706 1406 
Q 747 1466 794 1466 
Q 838 1466 838 1409 
Q 838 1384 822 1347 
Q 734 1147 734 988 
Q 734 391 2034 391 
Q 3550 391 4047 1050 
Q 4147 1181 4200 1181 
Q 4238 1181 4238 1106 
Q 4238 1053 4216 947 
Q 4194 841 4194 788 
Q 4194 466 4634 466 
L 4803 466 
L 4803 3 
z
M 3003 2325 
L 2694 2019 
L 2384 2328 
L 2691 2638 
L 3003 2325 
z
M 2319 2325 
L 2009 2019 
L 1697 2328 
L 2006 2638 
L 2319 2325 
z
" transform="scale(0.015625)"/>
       <path id="BNazanin-fedf" d="M 1000 3178 
Q 1034 3097 1025 3081 
Q 1019 3072 959 3072 
L 831 3072 
Q 872 2272 856 809 
Q 853 456 684 241 
Q 497 3 153 3 
L -81 3 
L -81 466 
L 131 466 
Q 603 466 588 825 
Q 534 2113 453 3434 
L 719 3688 
Q 781 3747 794 3750 
Q 806 3738 825 3666 
Q 872 3484 1000 3178 
z
" transform="scale(0.015625)"/>
       <path id="BNazanin-feed" d="M 2056 163 
Q 2056 -731 1441 -1369 
Q 1247 -1569 1194 -1569 
Q 853 -1569 416 -1500 
Q 263 -1475 263 -1453 
Q 263 -1428 425 -1381 
Q 909 -1241 1328 -881 
Q 1503 -731 1647 -528 
Q 1828 -275 1828 -103 
L 1828 28 
L 1306 9 
Q 753 -9 753 469 
Q 753 766 925 1106 
Q 1122 1494 1375 1494 
Q 1750 1494 1931 978 
Q 2056 622 2056 163 
z
M 1769 494 
Q 1769 688 1638 859 
Q 1497 1047 1309 1047 
Q 1184 1047 1092 953 
Q 1000 859 1000 734 
Q 1000 459 1394 459 
Q 1541 459 1769 494 
z
" transform="scale(0.015625)"/>
       <path id="BNazanin-fee9" d="M 2000 844 
Q 2000 434 1747 206 
Q 1503 -9 1091 -9 
Q 838 -9 666 144 
Q 484 303 484 553 
Q 484 831 722 1244 
Q 928 1600 1178 1850 
Q 2000 1422 2000 844 
z
M 1772 681 
Q 1772 847 1506 1097 
Q 1269 1319 1084 1388 
Q 772 991 772 753 
Q 772 613 919 525 
Q 1044 450 1194 450 
Q 1453 450 1631 547 
Q 1772 622 1772 681 
z
" transform="scale(0.015625)"/>
       <path id="BNazanin-fe8d" d="M 934 497 
Q 934 253 834 50 
Q 775 -72 753 -72 
Q 728 -72 728 81 
Q 728 775 484 3469 
L 816 3778 
Q 859 3819 875 3822 
Q 891 3822 894 3753 
Q 934 2963 934 497 
z
M 934 497 
Q 934 253 834 50 
Q 775 -72 753 -72 
Q 728 -72 728 81 
Q 728 775 484 3469 
L 816 3778 
Q 859 3819 875 3822 
Q 891 3822 894 3753 
Q 934 2963 934 497 
z
" transform="scale(0.015625)"/>
       <path id="BNazanin-feaa" d="M 3116 3 
L 2938 3 
Q 2713 3 2556 147 
Q 2459 238 2322 466 
Q 2178 209 1988 106 
Q 1756 -22 1325 -22 
Q 484 -22 484 581 
Q 484 784 609 1000 
Q 650 1072 691 1072 
Q 728 1072 728 1009 
Q 728 975 718 908 
Q 709 841 709 806 
Q 709 447 1319 447 
Q 2178 447 2178 781 
Q 2178 963 1681 2084 
L 1859 2394 
Q 1894 2453 1906 2456 
Q 1925 2444 1953 2378 
Q 2153 1906 2500 953 
Q 2678 466 3003 466 
L 3116 466 
L 3116 3 
z
" transform="scale(0.015625)"/>
      </defs>
      <use xlink:href="#BNazanin-28"/>
      <use xlink:href="#BNazanin-fe96" x="28.125"/>
      <use xlink:href="#BNazanin-fedf" x="101.904297"/>
      <use xlink:href="#BNazanin-feed" x="117.919922"/>
      <use xlink:href="#BNazanin-29" x="150.097656"/>
      <use xlink:href="#BNazanin-20" x="178.222656"/>
      <use xlink:href="#BNazanin-fee9" x="202.636719"/>
      <use xlink:href="#BNazanin-feaf" x="233.935547"/>
      <use xlink:href="#BNazanin-fe8d" x="265.527344"/>
      <use xlink:href="#BNazanin-feaa" x="280.224609"/>
      <use xlink:href="#BNazanin-fee7" x="327.636719"/>
      <use xlink:href="#BNazanin-fe8d" x="343.896484"/>
     </g>
    </g>
    <g id="text_14">
     <!-- $\times\mathdefault{10^{−6}}\mathdefault{}$ -->
     <g style="fill: #262626" transform="translate(60.364751 71.41625)scale(0.1 -0.1)">
      <defs>
       <path id="DejaVuSans-d7" d="M 4488 3438 
L 3059 2003 
L 4488 575 
L 4116 197 
L 2681 1631 
L 1247 197 
L 878 575 
L 2303 2003 
L 878 3438 
L 1247 3816 
L 2681 2381 
L 4116 3816 
L 4488 3438 
z
" transform="scale(0.015625)"/>
      </defs>
      <use xlink:href="#DejaVuSans-d7" transform="translate(0 0.221875)"/>
      <use xlink:href="#Roboto-Regular-31" transform="translate(83.789062 0.221875)"/>
      <use xlink:href="#Roboto-Regular-30" transform="translate(139.941406 0.221875)"/>
      <use xlink:href="#Roboto-Regular-2212" transform="translate(197.018242 37.201563)scale(0.7)"/>
      <use xlink:href="#Roboto-Regular-36" transform="translate(237.008477 37.201563)scale(0.7)"/>
     </g>
    </g>
   </g>
   <g id="patch_3">
    <path d="M 554.779347 289.428125 
L 554.779347 74.41625 
L 603.927882 74.41625 
L 603.927882 289.428125 
z
" clip-path="url(#p6b8fa9ae39)" style="fill: #b2d9d5; opacity: 0.4; stroke: #b2d9d5; stroke-width: 0.3; stroke-linejoin: miter"/>
   </g>
   <g id="line2d_23">
    <path d="M 109.493626 158.676418 
L 111.852756 158.645695 
L 113.425509 158.805669 
L 114.998262 159.192679 
L 116.571015 159.85999 
L 118.143768 160.829304 
L 119.716521 162.076547 
L 122.468839 164.649754 
L 124.43478 166.385581 
L 125.614345 167.195818 
L 126.79391 167.731916 
L 127.580287 167.905618 
L 128.366663 167.918588 
L 129.15304 167.766892 
L 130.332605 167.241184 
L 131.512169 166.40173 
L 133.084922 164.941545 
L 136.230429 161.893367 
L 137.409993 161.067935 
L 138.589558 160.551291 
L 139.375935 160.396475 
L 140.5555 160.443803 
L 141.735064 160.782598 
L 143.307818 161.533362 
L 145.666947 162.721933 
L 146.846512 163.084239 
L 148.026077 163.175078 
L 149.205642 162.961957 
L 150.385207 162.46613 
L 151.95796 161.497787 
L 154.317089 159.978532 
L 155.496654 159.480055 
L 156.283031 159.319757 
L 157.069407 159.319829 
L 157.855784 159.487508 
L 159.035349 160.040261 
L 160.214913 160.894113 
L 164.539984 164.47937 
L 165.326361 164.816739 
L 166.112738 164.962692 
L 166.899114 164.896526 
L 167.685491 164.608491 
L 168.471867 164.100158 
L 169.651432 162.954984 
L 170.830997 161.428982 
L 172.796938 158.39114 
L 174.76288 155.369518 
L 175.942444 153.875874 
L 177.122009 152.794416 
L 177.908386 152.355709 
L 178.694762 152.16815 
L 179.481139 152.242882 
L 180.267515 152.581052 
L 181.053892 153.173798 
L 181.840269 154.002772 
L 183.019833 155.628616 
L 184.592586 158.320316 
L 189.310846 166.914864 
L 190.883599 169.08371 
L 192.063164 170.342049 
L 193.242728 171.28245 
L 194.422293 171.925904 
L 195.601858 172.305076 
L 196.781423 172.455535 
L 197.960988 172.409178 
L 199.533741 172.083426 
L 201.106494 171.493352 
L 202.679247 170.671038 
L 204.645188 169.368291 
L 207.004318 167.506952 
L 212.902142 162.640835 
L 214.081707 161.995393 
L 214.868084 161.731678 
L 215.65446 161.645951 
L 216.440837 161.780766 
L 217.227213 162.180922 
L 218.01359 162.891571 
L 218.799966 163.955918 
L 219.586343 165.412614 
L 220.372719 167.292983 
L 221.159096 169.618284 
L 222.338661 173.95553 
L 223.518226 179.276092 
L 225.090979 187.686895 
L 227.450108 202.03268 
L 229.809238 216.264924 
L 231.381991 224.433689 
L 232.561556 229.452468 
L 233.741121 233.37695 
L 234.527497 235.373517 
L 235.313874 236.897136 
L 236.10025 237.989567 
L 236.886627 238.709351 
L 237.673004 239.128137 
L 238.45938 239.3263 
L 240.032133 239.39659 
L 241.211698 239.474947 
L 242.391263 239.814358 
L 243.177639 240.253119 
L 243.964016 240.881068 
L 245.143581 242.157548 
L 246.716334 244.295103 
L 248.682275 246.962675 
L 249.468652 247.778468 
L 250.255028 248.331602 
L 251.041405 248.551653 
L 251.827781 248.380408 
L 252.614158 247.775209 
L 253.400535 246.711208 
L 254.186911 245.182431 
L 254.973288 243.20164 
L 256.152852 239.453319 
L 257.332417 234.922911 
L 259.298359 226.236531 
L 262.837053 210.180032 
L 264.409806 203.999921 
L 265.982559 198.774216 
L 267.162124 195.507333 
L 268.341689 192.75778 
L 269.521254 190.449232 
L 271.094007 187.889297 
L 273.059948 185.197996 
L 275.812266 181.834136 
L 278.171396 179.255771 
L 279.744149 177.87602 
L 280.923714 177.12646 
L 282.103279 176.678358 
L 283.282843 176.553837 
L 284.462408 176.736251 
L 285.641973 177.163048 
L 288.787479 178.513253 
L 289.573856 178.607164 
L 290.360232 178.47815 
L 291.146609 178.062845 
L 291.932986 177.302716 
L 292.719362 176.147709 
L 293.505739 174.559882 
L 294.292115 172.516803 
L 295.47168 168.595326 
L 296.651245 163.719334 
L 298.223998 156.063713 
L 302.155881 136.023417 
L 303.335445 131.336201 
L 304.121822 128.861342 
L 304.908199 126.978312 
L 305.694575 125.720569 
L 306.087763 125.329378 
L 306.480952 125.09502 
L 306.87414 125.014264 
L 307.267328 125.082344 
L 307.660517 125.293053 
L 308.446893 126.111002 
L 309.23327 127.394238 
L 310.412834 129.995684 
L 311.985588 134.20672 
L 314.344717 140.558533 
L 315.524282 143.190081 
L 316.703847 145.248077 
L 317.490223 146.272594 
L 318.2766 147.022445 
L 319.062976 147.516482 
L 319.849353 147.785423 
L 320.63573 147.869394 
L 321.815294 147.75245 
L 324.567612 147.254284 
L 325.747177 147.344297 
L 326.533554 147.606104 
L 327.31993 148.061041 
L 328.106307 148.72588 
L 328.892683 149.607505 
L 330.072248 151.326751 
L 331.251813 153.472683 
L 332.824566 156.827449 
L 336.756449 165.609388 
L 337.936014 167.758935 
L 339.115579 169.485882 
L 340.295143 170.736548 
L 341.08152 171.298371 
L 341.867896 171.648892 
L 342.654273 171.801014 
L 343.44065 171.772909 
L 344.620214 171.441506 
L 345.799779 170.836425 
L 347.372532 169.744634 
L 350.12485 167.480911 
L 357.595427 161.253214 
L 359.561369 159.915677 
L 361.134122 159.141424 
L 362.313687 158.78342 
L 363.493252 158.626606 
L 365.066005 158.694703 
L 367.425134 159.132288 
L 369.391076 159.433268 
L 370.963829 159.439569 
L 373.322958 159.120348 
L 374.502523 159.035584 
L 375.2889 159.131313 
L 376.075276 159.431817 
L 376.861653 160.014756 
L 377.648029 160.958914 
L 378.434406 162.339298 
L 379.220783 164.221986 
L 380.007159 166.659083 
L 380.793536 169.68416 
L 381.9731 175.342259 
L 383.152665 182.275219 
L 384.725418 193.142768 
L 389.836866 230.724933 
L 391.016431 237.294453 
L 391.802807 240.83782 
L 392.589184 243.64346 
L 393.37556 245.678961 
L 394.161937 246.93521 
L 394.555125 247.274345 
L 394.948314 247.425135 
L 395.341502 247.392309 
L 395.73469 247.181682 
L 396.127878 246.800068 
L 396.914255 245.555523 
L 397.700631 243.729308 
L 398.487008 241.401463 
L 399.666573 237.158405 
L 401.239326 230.56508 
L 405.564397 211.814176 
L 407.13715 206.126937 
L 408.709903 201.405977 
L 409.889468 198.513922 
L 411.069033 196.142922 
L 412.248598 194.234017 
L 413.428162 192.71235 
L 414.607727 191.495133 
L 416.18048 190.201042 
L 418.932798 188.336407 
L 421.291928 186.662891 
L 423.257869 184.996603 
L 425.223811 183.023387 
L 427.58294 180.292313 
L 435.446706 170.759197 
L 437.019459 169.337869 
L 438.592212 168.23519 
L 439.771777 167.636656 
L 440.951342 167.23764 
L 442.130907 167.033043 
L 443.310471 167.012753 
L 444.883224 167.252686 
L 446.455978 167.779834 
L 448.028731 168.590335 
L 449.601484 169.696722 
L 451.174237 171.116245 
L 452.74699 172.848622 
L 454.712931 175.375938 
L 457.858438 179.525562 
L 459.038002 180.732348 
L 459.824379 181.306594 
L 460.610755 181.638618 
L 461.397132 181.680853 
L 462.183509 181.390687 
L 462.969885 180.73327 
L 463.756262 179.684162 
L 464.542638 178.231629 
L 465.329015 176.378396 
L 466.50858 172.891545 
L 467.688144 168.675939 
L 469.654086 160.606596 
L 472.013215 150.815807 
L 473.19278 146.599483 
L 474.372345 143.220589 
L 475.158722 141.549562 
L 475.945098 140.406201 
L 476.731475 139.826941 
L 477.124663 139.755788 
L 477.517851 139.831904 
L 477.91104 140.055199 
L 478.697416 140.93785 
L 479.483793 142.382934 
L 480.270169 144.354766 
L 481.449734 148.189842 
L 482.629299 152.886223 
L 484.59524 161.932802 
L 487.740746 176.732139 
L 489.3135 182.965264 
L 490.493064 186.707019 
L 491.279441 188.665107 
L 492.065817 190.14965 
L 492.852194 191.131893 
L 493.638571 191.591548 
L 494.031759 191.621439 
L 494.424947 191.51704 
L 494.818135 191.278327 
L 495.604512 190.400861 
L 496.390888 189.001129 
L 497.177265 187.101737 
L 498.35683 183.392815 
L 499.536395 178.801877 
L 501.109148 171.703491 
L 504.647842 155.212207 
L 505.827407 150.809321 
L 506.613784 148.478813 
L 507.40016 146.73544 
L 508.186537 145.653251 
L 508.579725 145.379032 
L 508.972913 145.290708 
L 509.366102 145.392859 
L 509.75929 145.688907 
L 510.152478 146.181091 
L 510.938855 147.756895 
L 511.725231 150.114502 
L 512.511608 153.229622 
L 513.691173 159.22639 
L 514.870737 166.620374 
L 516.443491 178.16108 
L 519.588997 203.840752 
L 521.554938 218.978018 
L 522.734503 226.82882 
L 523.914068 233.371087 
L 524.700444 236.885549 
L 525.486821 239.66183 
L 526.273197 241.668119 
L 527.059574 242.891348 
L 527.452762 243.210423 
L 527.84595 243.337412 
L 528.239139 243.275954 
L 528.632327 243.030797 
L 529.025515 242.607757 
L 529.811892 241.256335 
L 530.598268 239.287551 
L 531.384645 236.780526 
L 532.56421 232.209703 
L 534.530151 223.269203 
L 537.282469 210.634158 
L 538.855222 204.609665 
L 540.034787 200.998854 
L 541.214352 198.234895 
L 542.000728 196.847949 
L 542.787105 195.790993 
L 543.573481 195.018905 
L 544.359858 194.47643 
L 545.539423 193.958283 
L 549.078117 192.717203 
L 550.257682 191.983276 
L 551.830435 190.724362 
L 554.189565 188.824267 
L 555.36913 188.239627 
L 556.155506 188.093263 
L 556.941883 188.174751 
L 557.728259 188.490733 
L 558.514636 189.024332 
L 559.694201 190.132623 
L 561.660142 192.107488 
L 562.446519 192.609095 
L 563.232895 192.744935 
L 563.626084 192.632184 
L 564.019272 192.376342 
L 564.41246 191.961231 
L 565.198837 190.593462 
L 565.985213 188.42275 
L 566.77159 185.369298 
L 567.557966 181.385885 
L 568.344343 176.462696 
L 569.523908 167.394479 
L 570.703472 156.569789 
L 572.669414 136.002039 
L 575.028543 111.194161 
L 576.208108 100.597745 
L 577.387673 92.208086 
L 578.17405 88.142296 
L 578.960426 85.456104 
L 579.353615 84.659171 
L 579.746803 84.235863 
L 580.139991 84.189517 
L 580.533179 84.520378 
L 580.926368 85.225598 
L 581.319556 86.299263 
L 582.105932 89.513322 
L 582.892309 94.05694 
L 583.678686 99.782389 
L 584.85825 110.176491 
L 586.824192 130.453565 
L 589.183321 155.083232 
L 590.756074 169.043646 
L 591.935639 177.388373 
L 592.722016 181.801963 
L 593.508392 185.278203 
L 594.294769 187.847431 
L 595.081146 189.576325 
L 595.867522 190.56243 
L 596.26071 190.814226 
L 596.653899 190.927439 
L 597.440275 190.809628 
L 598.226652 190.35588 
L 601.372158 187.993167 
L 602.158534 187.846645 
L 602.944911 188.035441 
L 603.731288 188.593953 
L 604.517664 189.530652 
L 605.304041 190.829714 
L 606.483605 193.370674 
L 608.056359 197.535365 
L 610.808676 205.141416 
L 611.988241 207.793541 
L 612.774618 209.17897 
L 613.560994 210.196491 
L 614.347371 210.808658 
L 615.133748 210.99262 
L 615.920124 210.740088 
L 616.706501 210.056634 
L 617.492877 208.960448 
L 618.279254 207.480634 
L 619.458819 204.626714 
L 620.638383 201.151427 
L 622.604325 194.450487 
L 626.929396 179.190749 
L 628.502149 174.531081 
L 629.681714 171.613805 
L 630.861279 169.287184 
L 631.647655 168.097243 
L 632.434032 167.212312 
L 633.220408 166.639519 
L 634.006785 166.378945 
L 634.793161 166.422666 
L 635.579538 166.75398 
L 636.365914 167.346952 
L 637.545479 168.647552 
L 639.118232 170.897485 
L 641.477362 174.4135 
L 642.656927 175.766352 
L 643.443303 176.380116 
L 644.22968 176.705185 
L 645.016056 176.702859 
L 645.802433 176.346564 
L 646.58881 175.62345 
L 647.375186 174.535553 
L 648.161563 173.100481 
L 649.341127 170.373971 
L 650.913881 165.958898 
L 654.059387 156.839966 
L 655.238952 154.263513 
L 656.025328 153.035099 
L 656.811705 152.276257 
L 657.204893 152.088761 
L 657.598081 152.035282 
L 657.991269 152.118766 
L 658.384458 152.340815 
L 659.170834 153.200144 
L 659.957211 154.59859 
L 660.743587 156.500009 
L 661.923152 160.167847 
L 663.495905 166.160156 
L 667.0346 180.41169 
L 668.214165 184.247093 
L 669.393729 187.213639 
L 670.180106 188.641979 
L 670.966483 189.610728 
L 671.752859 190.123007 
L 672.539236 190.198881 
L 673.325612 189.873547 
L 674.111989 189.194933 
L 674.898365 188.220873 
L 676.07793 186.348351 
L 680.796189 178.122858 
L 681.975754 176.793602 
L 682.762131 176.190366 
L 683.548507 175.828695 
L 684.334884 175.712353 
L 685.12126 175.83777 
L 685.907637 176.194965 
L 686.694014 176.768456 
L 687.873578 177.989073 
L 689.053143 179.566097 
L 690.625896 182.049401 
L 694.557779 188.467087 
L 695.737344 189.977107 
L 696.916909 191.123962 
L 697.703285 191.657334 
L 698.489662 191.995181 
L 699.276038 192.136915 
L 700.062415 192.089534 
L 700.848791 191.867224 
L 702.028356 191.252171 
L 703.601109 190.051285 
L 707.92618 186.416233 
L 709.105745 185.748915 
L 710.28531 185.314039 
L 711.464875 185.114776 
L 712.64444 185.126079 
L 714.217193 185.377887 
L 717.362699 185.980646 
L 718.542264 185.957531 
L 719.721829 185.664534 
L 720.901393 185.04181 
L 722.080958 184.060605 
L 723.260523 182.729588 
L 724.833276 180.499442 
L 729.944724 172.553738 
L 731.124289 171.27526 
L 732.303853 170.379295 
L 733.09023 170.000894 
L 734.269795 169.738498 
L 735.44936 169.778332 
L 737.022113 170.117859 
L 738.988054 170.577839 
L 740.167619 170.656104 
L 741.347184 170.474691 
L 742.526749 169.988371 
L 743.706313 169.197083 
L 744.885878 168.143289 
L 746.85182 166.019381 
L 749.604138 163.024157 
L 751.176891 161.646123 
L 752.749644 160.609655 
L 754.322397 159.87035 
L 759.433844 157.841131 
L 761.006598 156.825495 
L 762.579351 155.515399 
L 764.152104 153.934611 
L 766.511233 151.190128 
L 772.015869 144.53439 
L 773.588622 143.043595 
L 774.768187 142.204567 
L 775.947752 141.689269 
L 776.734129 141.567843 
L 777.520505 141.655918 
L 778.306882 141.981729 
L 779.093258 142.573368 
L 779.879635 143.457562 
L 780.666011 144.658162 
L 781.452388 146.194447 
L 782.631953 149.154387 
L 783.811517 152.904709 
L 784.991082 157.402139 
L 786.563835 164.380599 
L 788.922965 176.12255 
L 791.675283 189.639969 
L 793.248036 196.265512 
L 794.427601 200.402978 
L 795.607166 203.712532 
L 796.393542 205.432444 
L 797.179919 206.75817 
L 797.966295 207.694857 
L 798.752672 208.255183 
L 799.539048 208.458642 
L 800.325425 208.331034 
L 801.111802 207.904168 
L 801.898178 207.215786 
L 803.077743 205.790245 
L 804.650496 203.434191 
L 806.616437 200.471378 
L 807.796002 199.120623 
L 808.582379 198.559394 
L 809.368755 198.358817 
L 809.761944 198.416352 
L 810.155132 198.590258 
L 810.941508 199.316987 
L 811.727885 200.590831 
L 812.514262 202.44892 
L 813.300638 204.910787 
L 814.087015 207.976061 
L 815.266579 213.651762 
L 816.446144 220.466074 
L 818.018897 230.849449 
L 821.95078 257.775364 
L 823.130345 264.549225 
L 824.30991 270.187143 
L 825.489475 274.530223 
L 826.275851 276.673814 
L 827.062228 278.220674 
L 827.848604 279.193109 
L 828.634981 279.626491 
L 829.028169 279.654858 
L 829.814546 279.366452 
L 830.600922 278.662842 
L 831.387299 277.599178 
L 832.566864 275.446077 
L 833.746428 272.771164 
L 835.319181 268.631931 
L 837.678311 261.66179 
L 840.430629 252.839063 
L 843.182947 243.274517 
L 845.148888 235.700216 
L 847.11483 227.173517 
L 849.080771 217.445076 
L 851.046712 206.452571 
L 853.405842 191.910936 
L 858.51729 159.751979 
L 860.483231 149.010337 
L 862.055984 141.565682 
L 863.628737 135.215571 
L 865.20149 129.897917 
L 866.774243 125.447272 
L 868.346997 121.632547 
L 870.706126 116.576413 
L 874.638009 108.755871 
L 876.60395 105.309727 
L 877.783515 103.64149 
L 878.569892 102.77762 
L 879.356268 102.158502 
L 880.142645 101.820127 
L 880.929021 101.792805 
L 881.715398 102.0991 
L 882.501774 102.752136 
L 883.288151 103.754354 
L 884.074528 105.096824 
L 885.254092 107.700853 
L 886.433657 110.908053 
L 888.00641 115.842419 
L 891.938293 128.642316 
L 893.511046 132.91444 
L 895.083799 136.417716 
L 896.656552 139.256877 
L 900.195247 145.096899 
L 901.374812 147.608787 
L 902.554377 150.714771 
L 903.733941 154.512842 
L 904.913506 159.00417 
L 906.486259 165.865084 
L 910.024954 181.70231 
L 911.204519 185.741527 
L 911.990895 187.748065 
L 912.777272 189.09478 
L 913.17046 189.497898 
L 913.563648 189.712071 
L 913.956836 189.733076 
L 914.350025 189.558727 
L 914.743213 189.188962 
L 915.52959 187.873903 
L 916.315966 185.831473 
L 917.102343 183.139943 
L 918.281908 178.134565 
L 922.606979 157.9012 
L 923.393355 155.311905 
L 924.179732 153.37736 
L 924.966108 152.161248 
L 925.359296 151.83205 
L 925.752485 151.68893 
L 926.145673 151.729028 
L 926.538861 151.947192 
L 926.93205 152.336101 
L 927.718426 153.587006 
L 928.504803 155.386509 
L 929.684367 158.854447 
L 934.009439 172.90827 
L 935.189003 175.645346 
L 936.368568 177.664181 
L 937.154945 178.651326 
L 938.33451 179.72466 
L 940.300451 181.009531 
L 941.480016 181.862998 
L 942.659581 182.996898 
L 943.839145 184.488249 
L 945.411898 186.972993 
L 948.557405 192.210375 
L 949.73697 193.586802 
L 950.523346 194.160494 
L 951.309723 194.412397 
L 952.096099 194.321917 
L 952.882476 193.887489 
L 953.668852 193.126771 
L 954.455229 192.075559 
L 955.634794 190.070727 
L 959.959865 182.009879 
L 960.746241 181.041279 
L 961.532618 180.357629 
L 962.318994 179.98182 
L 963.105371 179.919854 
L 963.891747 180.161017 
L 964.678124 180.678947 
L 965.464501 181.433532 
L 966.644065 182.894651 
L 970.18276 187.685282 
L 971.362325 188.75047 
L 972.148701 189.183205 
L 972.935078 189.367671 
L 973.721454 189.295534 
L 974.507831 188.971 
L 975.294207 188.410078 
L 976.473772 187.186243 
L 978.046525 185.046886 
L 981.192032 180.512924 
L 982.371596 179.256154 
L 983.157973 178.67553 
L 983.944349 178.339881 
L 984.730726 178.272644 
L 985.517103 178.486694 
L 986.303479 178.983209 
L 987.089856 179.750892 
L 988.26942 181.354648 
L 989.448985 183.377515 
L 992.98768 189.872228 
L 993.774056 190.93489 
L 994.560433 191.705268 
L 995.346809 192.126103 
L 996.133186 192.153309 
L 996.919563 191.75876 
L 997.705939 190.93239 
L 998.492316 189.683425 
L 999.278692 188.040641 
L 1000.458257 184.946706 
L 1002.03101 180.020277 
L 1004.783328 171.213548 
L 1005.962893 168.168767 
L 1006.749269 166.573215 
L 1007.535646 165.385655 
L 1008.322022 164.638472 
L 1009.108399 164.346284 
L 1009.501587 164.370709 
L 1010.287964 164.751888 
L 1011.07434 165.554871 
L 1011.860717 166.74489 
L 1012.647094 168.279718 
L 1013.826658 171.127081 
L 1015.399411 175.700109 
L 1017.365353 182.221206 
L 1020.904047 194.935154 
L 1023.656365 204.606752 
L 1025.229118 209.505294 
L 1026.408683 212.652792 
L 1027.588248 215.227656 
L 1028.767813 217.164122 
L 1029.554189 218.094784 
L 1030.340566 218.753107 
L 1031.126942 219.168304 
L 1031.913319 219.382157 
L 1033.092884 219.441094 
L 1035.845202 219.401143 
L 1037.024767 219.736783 
L 1038.204331 220.428681 
L 1039.383896 221.455442 
L 1042.529402 224.557313 
L 1043.315779 224.964856 
L 1044.102155 225.023215 
L 1044.495344 224.889543 
L 1044.888532 224.631288 
L 1045.674909 223.697835 
L 1046.461285 222.14744 
L 1047.247662 219.925725 
L 1048.034038 217.003495 
L 1048.820415 213.379501 
L 1049.99998 206.696615 
L 1051.179544 198.71726 
L 1053.145486 183.498747 
L 1056.290992 158.855985 
L 1057.470557 151.003136 
L 1058.650122 144.453894 
L 1059.829686 139.401676 
L 1060.616063 136.902118 
L 1061.40244 135.086772 
L 1062.188816 133.921027 
L 1062.975193 133.351168 
L 1063.368381 133.268679 
L 1063.761569 133.308462 
L 1064.547946 133.713768 
L 1065.334322 134.482375 
L 1066.513887 136.130337 
L 1068.08664 138.842466 
L 1071.232146 144.385491 
L 1073.591276 148.019735 
L 1076.736782 152.823242 
L 1078.702724 156.305875 
L 1081.455042 161.773348 
L 1083.420983 165.542655 
L 1084.993736 168.045431 
L 1086.173301 169.469016 
L 1087.352866 170.449351 
L 1088.139242 170.857269 
L 1088.925619 171.083387 
L 1090.105184 171.131732 
L 1091.284748 170.920768 
L 1092.071125 170.691565 
L 1092.071125 170.691565 
" clip-path="url(#p6b8fa9ae39)" style="fill: none; stroke: #000000; stroke-width: 1.2; stroke-linecap: round"/>
   </g>
   <g id="patch_4">
    <path d="M 60.364751 289.428125 
L 60.364751 74.41625 
" style="fill: none"/>
   </g>
   <g id="patch_5">
    <path d="M 1141.2 289.428125 
L 1141.2 74.41625 
" style="fill: none"/>
   </g>
   <g id="patch_6">
    <path d="M 60.364751 289.428125 
L 1141.2 289.428125 
" style="fill: none"/>
   </g>
   <g id="patch_7">
    <path d="M 60.364751 74.41625 
L 1141.2 74.41625 
" style="fill: none"/>
   </g>
   <g id="text_15">
    <!-- KNTU BSP Lab: Author, 24M -->
    <g style="fill: #262626" transform="translate(1041.28375 287.803125)scale(0.08 -0.08)">
     <defs>
      <path id="Roboto-Regular-4b" d="M 1684 2116 
L 1128 1538 
L 1128 0 
L 528 0 
L 528 4550 
L 1128 4550 
L 1128 2300 
L 3150 4550 
L 3875 4550 
L 2084 2541 
L 4016 0 
L 3297 0 
L 1684 2116 
z
" transform="scale(0.015625)"/>
      <path id="Roboto-Regular-4e" d="M 4025 0 
L 3422 0 
L 1131 3506 
L 1131 0 
L 528 0 
L 528 4550 
L 1131 4550 
L 3428 1028 
L 3428 4550 
L 4025 4550 
L 4025 0 
z
" transform="scale(0.015625)"/>
      <path id="Roboto-Regular-54" d="M 3672 4056 
L 2209 4056 
L 2209 0 
L 1613 0 
L 1613 4056 
L 153 4056 
L 153 4550 
L 3672 4550 
L 3672 4056 
z
" transform="scale(0.015625)"/>
      <path id="Roboto-Regular-55" d="M 3731 4550 
L 3731 1456 
Q 3728 813 3326 403 
Q 2925 -6 2238 -56 
L 2078 -63 
Q 1331 -63 887 340 
Q 444 744 438 1450 
L 438 4550 
L 1031 4550 
L 1031 1469 
Q 1031 975 1303 701 
Q 1575 428 2078 428 
Q 2588 428 2858 700 
Q 3128 972 3128 1466 
L 3128 4550 
L 3731 4550 
z
" transform="scale(0.015625)"/>
      <path id="Roboto-Regular-20" transform="scale(0.015625)"/>
      <path id="Roboto-Regular-42" d="M 528 0 
L 528 4550 
L 2016 4550 
Q 2756 4550 3129 4244 
Q 3503 3938 3503 3338 
Q 3503 3019 3322 2773 
Q 3141 2528 2828 2394 
Q 3197 2291 3411 2002 
Q 3625 1713 3625 1313 
Q 3625 700 3228 350 
Q 2831 0 2106 0 
L 528 0 
z
M 1128 2128 
L 1128 491 
L 2119 491 
Q 2538 491 2780 708 
Q 3022 925 3022 1306 
Q 3022 2128 2128 2128 
L 1128 2128 
z
M 1128 2609 
L 2034 2609 
Q 2428 2609 2664 2806 
Q 2900 3003 2900 3341 
Q 2900 3716 2681 3886 
Q 2463 4056 2016 4056 
L 1128 4056 
L 1128 2609 
z
" transform="scale(0.015625)"/>
      <path id="Roboto-Regular-53" d="M 1869 2028 
Q 1097 2250 745 2573 
Q 394 2897 394 3372 
Q 394 3909 823 4261 
Q 1253 4613 1941 4613 
Q 2409 4613 2776 4431 
Q 3144 4250 3345 3931 
Q 3547 3613 3547 3234 
L 2944 3234 
Q 2944 3647 2681 3883 
Q 2419 4119 1941 4119 
Q 1497 4119 1248 3923 
Q 1000 3728 1000 3381 
Q 1000 3103 1236 2911 
Q 1472 2719 2039 2559 
Q 2606 2400 2926 2208 
Q 3247 2016 3401 1759 
Q 3556 1503 3556 1156 
Q 3556 603 3125 270 
Q 2694 -63 1972 -63 
Q 1503 -63 1097 117 
Q 691 297 470 609 
Q 250 922 250 1319 
L 853 1319 
Q 853 906 1158 667 
Q 1463 428 1972 428 
Q 2447 428 2700 622 
Q 2953 816 2953 1150 
Q 2953 1484 2718 1667 
Q 2484 1850 1869 2028 
z
" transform="scale(0.015625)"/>
      <path id="Roboto-Regular-50" d="M 1128 1781 
L 1128 0 
L 528 0 
L 528 4550 
L 2206 4550 
Q 2953 4550 3376 4169 
Q 3800 3788 3800 3159 
Q 3800 2497 3386 2139 
Q 2972 1781 2200 1781 
L 1128 1781 
z
M 1128 2272 
L 2206 2272 
Q 2688 2272 2944 2498 
Q 3200 2725 3200 3153 
Q 3200 3559 2944 3803 
Q 2688 4047 2241 4056 
L 1128 4056 
L 1128 2272 
z
" transform="scale(0.015625)"/>
      <path id="Roboto-Regular-4c" d="M 1131 491 
L 3288 491 
L 3288 0 
L 528 0 
L 528 4550 
L 1131 4550 
L 1131 491 
z
" transform="scale(0.015625)"/>
      <path id="Roboto-Regular-61" d="M 2525 0 
Q 2475 100 2444 356 
Q 2041 -63 1481 -63 
Q 981 -63 661 220 
Q 341 503 341 938 
Q 341 1466 742 1758 
Q 1144 2050 1872 2050 
L 2434 2050 
L 2434 2316 
Q 2434 2619 2253 2798 
Q 2072 2978 1719 2978 
Q 1409 2978 1200 2822 
Q 991 2666 991 2444 
L 409 2444 
Q 409 2697 589 2933 
Q 769 3169 1076 3306 
Q 1384 3444 1753 3444 
Q 2338 3444 2669 3151 
Q 3000 2859 3013 2347 
L 3013 791 
Q 3013 325 3131 50 
L 3131 0 
L 2525 0 
z
M 1566 441 
Q 1838 441 2081 581 
Q 2325 722 2434 947 
L 2434 1641 
L 1981 1641 
Q 919 1641 919 1019 
Q 919 747 1100 594 
Q 1281 441 1566 441 
z
" transform="scale(0.015625)"/>
      <path id="Roboto-Regular-62" d="M 3300 1653 
Q 3300 878 2944 407 
Q 2588 -63 1988 -63 
Q 1347 -63 997 391 
L 969 0 
L 438 0 
L 438 4800 
L 1016 4800 
L 1016 3009 
Q 1366 3444 1981 3444 
Q 2597 3444 2948 2978 
Q 3300 2513 3300 1703 
L 3300 1653 
z
M 2722 1719 
Q 2722 2309 2494 2631 
Q 2266 2953 1838 2953 
Q 1266 2953 1016 2422 
L 1016 959 
Q 1281 428 1844 428 
Q 2259 428 2490 750 
Q 2722 1072 2722 1719 
z
" transform="scale(0.015625)"/>
      <path id="Roboto-Regular-3a" d="M 418 303 
Q 418 453 507 553 
Q 596 653 774 653 
Q 952 653 1044 553 
Q 1137 453 1137 303 
Q 1137 159 1044 62 
Q 952 -34 774 -34 
Q 596 -34 507 62 
Q 418 159 418 303 
z
M 418 3055 
Q 418 3205 507 3305 
Q 596 3405 774 3405 
Q 952 3405 1044 3305 
Q 1137 3205 1137 3055 
Q 1137 2911 1044 2814 
Q 952 2718 774 2718 
Q 596 2718 507 2814 
Q 418 2911 418 3055 
z
" transform="scale(0.015625)"/>
      <path id="Roboto-Regular-41" d="M 3041 1188 
L 1134 1188 
L 706 0 
L 88 0 
L 1825 4550 
L 2350 4550 
L 4091 0 
L 3475 0 
L 3041 1188 
z
M 1316 1681 
L 2863 1681 
L 2088 3809 
L 1316 1681 
z
" transform="scale(0.015625)"/>
      <path id="Roboto-Regular-75" d="M 2525 334 
Q 2188 -63 1534 -63 
Q 994 -63 711 251 
Q 428 566 425 1181 
L 425 3381 
L 1003 3381 
L 1003 1197 
Q 1003 428 1628 428 
Q 2291 428 2509 922 
L 2509 3381 
L 3088 3381 
L 3088 0 
L 2538 0 
L 2525 334 
z
" transform="scale(0.015625)"/>
      <path id="Roboto-Regular-74" d="M 1222 4200 
L 1222 3381 
L 1853 3381 
L 1853 2934 
L 1222 2934 
L 1222 838 
Q 1222 634 1306 532 
Q 1391 431 1594 431 
Q 1694 431 1869 469 
L 1869 0 
Q 1641 -63 1425 -63 
Q 1038 -63 841 171 
Q 644 406 644 838 
L 644 2934 
L 28 2934 
L 28 3381 
L 644 3381 
L 644 4200 
L 1222 4200 
z
" transform="scale(0.015625)"/>
      <path id="Roboto-Regular-68" d="M 1016 2972 
Q 1400 3444 2016 3444 
Q 3088 3444 3097 2234 
L 3097 0 
L 2519 0 
L 2519 2238 
Q 2516 2603 2352 2778 
Q 2188 2953 1841 2953 
Q 1559 2953 1346 2803 
Q 1134 2653 1016 2409 
L 1016 0 
L 438 0 
L 438 4800 
L 1016 4800 
L 1016 2972 
z
" transform="scale(0.015625)"/>
      <path id="Roboto-Regular-6f" d="M 284 1722 
Q 284 2219 479 2616 
Q 675 3013 1023 3228 
Q 1372 3444 1819 3444 
Q 2509 3444 2936 2966 
Q 3363 2488 3363 1694 
L 3363 1653 
Q 3363 1159 3173 767 
Q 2984 375 2632 156 
Q 2281 -63 1825 -63 
Q 1138 -63 711 415 
Q 284 894 284 1681 
L 284 1722 
z
M 866 1653 
Q 866 1091 1127 750 
Q 1388 409 1825 409 
Q 2266 409 2525 754 
Q 2784 1100 2784 1722 
Q 2784 2278 2520 2623 
Q 2256 2969 1819 2969 
Q 1391 2969 1128 2628 
Q 866 2288 866 1653 
z
" transform="scale(0.015625)"/>
      <path id="Roboto-Regular-72" d="M 2072 2863 
Q 1941 2884 1788 2884 
Q 1219 2884 1016 2400 
L 1016 0 
L 438 0 
L 438 3381 
L 1000 3381 
L 1009 2991 
Q 1294 3444 1816 3444 
Q 1984 3444 2072 3400 
L 2072 2863 
z
" transform="scale(0.015625)"/>
      <path id="Roboto-Regular-2c" d="M 419 -906 
L 91 -681 
Q 384 -272 397 163 
L 397 684 
L 963 684 
L 963 231 
Q 963 -84 808 -400 
Q 653 -716 419 -906 
z
" transform="scale(0.015625)"/>
      <path id="Roboto-Regular-4d" d="M 1303 4550 
L 2791 838 
L 4278 4550 
L 5056 4550 
L 5056 0 
L 4456 0 
L 4456 1772 
L 4513 3684 
L 3019 0 
L 2559 0 
L 1069 3675 
L 1128 1772 
L 1128 0 
L 528 0 
L 528 4550 
L 1303 4550 
z
" transform="scale(0.015625)"/>
     </defs>
     <use xlink:href="#Roboto-Regular-4b"/>
     <use xlink:href="#Roboto-Regular-4e" x="62.695312"/>
     <use xlink:href="#Roboto-Regular-54" x="133.984375"/>
     <use xlink:href="#Roboto-Regular-55" x="193.652344"/>
     <use xlink:href="#Roboto-Regular-20" x="258.496094"/>
     <use xlink:href="#Roboto-Regular-42" x="283.251953"/>
     <use xlink:href="#Roboto-Regular-53" x="345.507812"/>
     <use xlink:href="#Roboto-Regular-50" x="404.833984"/>
     <use xlink:href="#Roboto-Regular-20" x="467.919922"/>
     <use xlink:href="#Roboto-Regular-4c" x="492.675781"/>
     <use xlink:href="#Roboto-Regular-61" x="546.484375"/>
     <use xlink:href="#Roboto-Regular-62" x="600.878906"/>
     <use xlink:href="#Roboto-Regular-3a" x="656.982422"/>
     <use xlink:href="#Roboto-Regular-20" x="681.201172"/>
     <use xlink:href="#Roboto-Regular-41" x="705.957031"/>
     <use xlink:href="#Roboto-Regular-75" x="771.191406"/>
     <use xlink:href="#Roboto-Regular-74" x="826.318359"/>
     <use xlink:href="#Roboto-Regular-68" x="858.984375"/>
     <use xlink:href="#Roboto-Regular-6f" x="914.0625"/>
     <use xlink:href="#Roboto-Regular-72" x="971.09375"/>
     <use xlink:href="#Roboto-Regular-2c" x="1004.931641"/>
     <use xlink:href="#Roboto-Regular-20" x="1024.560547"/>
     <use xlink:href="#Roboto-Regular-32" x="1049.316406"/>
     <use xlink:href="#Roboto-Regular-34" x="1105.46875"/>
     <use xlink:href="#Roboto-Regular-4d" x="1161.621094"/>
    </g>
   </g>
   <g id="text_16">
    <!-- Fp1-F5 -->
    <g style="fill: #414242" transform="translate(572.641907 54.41625)scale(0.18 -0.18)">
     <defs>
      <path id="Roboto-Medium-46" d="M 3084 1928 
L 1253 1928 
L 1253 0 
L 463 0 
L 463 4550 
L 3353 4550 
L 3353 3913 
L 1253 3913 
L 1253 2559 
L 3084 2559 
L 3084 1928 
z
" transform="scale(0.015625)"/>
      <path id="Roboto-Medium-70" d="M 3350 1656 
Q 3350 872 2994 404 
Q 2638 -63 2038 -63 
Q 1481 -63 1147 303 
L 1147 -1300 
L 388 -1300 
L 388 3381 
L 1088 3381 
L 1119 3038 
Q 1453 3444 2028 3444 
Q 2647 3444 2998 2983 
Q 3350 2522 3350 1703 
L 3350 1656 
z
M 2594 1722 
Q 2594 2228 2392 2525 
Q 2191 2822 1816 2822 
Q 1350 2822 1147 2438 
L 1147 938 
Q 1353 544 1822 544 
Q 2184 544 2389 836 
Q 2594 1128 2594 1722 
z
" transform="scale(0.015625)"/>
      <path id="Roboto-Medium-31" d="M 2397 0 
L 1641 0 
L 1641 3653 
L 525 3272 
L 525 3913 
L 2300 4566 
L 2397 4566 
L 2397 0 
z
" transform="scale(0.015625)"/>
      <path id="Roboto-Medium-2d" d="M 1863 1628 
L 222 1628 
L 222 2241 
L 1863 2241 
L 1863 1628 
z
" transform="scale(0.015625)"/>
      <path id="Roboto-Medium-35" d="M 544 2256 
L 791 4550 
L 3234 4550 
L 3234 3894 
L 1422 3894 
L 1297 2806 
Q 1613 2988 2009 2988 
Q 2659 2988 3020 2572 
Q 3381 2156 3381 1453 
Q 3381 759 2981 348 
Q 2581 -63 1884 -63 
Q 1259 -63 848 292 
Q 438 647 403 1228 
L 1138 1228 
Q 1181 897 1375 720 
Q 1569 544 1881 544 
Q 2231 544 2426 794 
Q 2622 1044 2622 1475 
Q 2622 1891 2406 2133 
Q 2191 2375 1813 2375 
Q 1606 2375 1462 2320 
Q 1319 2266 1150 2106 
L 544 2256 
z
" transform="scale(0.015625)"/>
     </defs>
     <use xlink:href="#Roboto-Medium-46"/>
     <use xlink:href="#Roboto-Medium-70" x="54.931641"/>
     <use xlink:href="#Roboto-Medium-31" x="111.230469"/>
     <use xlink:href="#Roboto-Medium-2d" x="168.066406"/>
     <use xlink:href="#Roboto-Medium-46" x="200.878906"/>
     <use xlink:href="#Roboto-Medium-35" x="255.810547"/>
    </g>
   </g>
   <g id="legend_1">
    <g id="patch_8">
     <path d="M 1040.842187 97.194375 
L 1134.2 97.194375 
Q 1136.2 97.194375 1136.2 95.194375 
L 1136.2 81.41625 
Q 1136.2 79.41625 1134.2 79.41625 
L 1040.842187 79.41625 
Q 1038.842187 79.41625 1038.842187 81.41625 
L 1038.842187 95.194375 
Q 1038.842187 97.194375 1040.842187 97.194375 
z
" style="fill: #ffffff; stroke: #cccccc; stroke-width: 0.3; stroke-linejoin: miter"/>
    </g>
    <g id="patch_9">
     <path d="M 1042.842187 90.41625 
L 1062.842187 90.41625 
L 1062.842187 83.41625 
L 1042.842187 83.41625 
z
" style="fill: #b2d9d5; opacity: 0.4; stroke: #b2d9d5; stroke-width: 0.3; stroke-linejoin: miter"/>
    </g>
    <g id="text_17">
     <!-- ﭗﭼ ﻪﺑ ﻢﺸﭼ ﺖﮐﺮﺣ -->
     <g style="fill: #262626" transform="translate(1070.842187 90.41625)scale(0.1 -0.1)">
      <defs>
       <path id="BNazanin-fb57" d="M 4803 3 
L 4634 3 
Q 4353 3 4175 131 
Q 3972 275 3969 544 
Q 3303 -72 1916 -72 
Q 484 -72 484 797 
Q 484 1091 706 1406 
Q 747 1466 794 1466 
Q 838 1466 838 1409 
Q 838 1384 822 1347 
Q 734 1147 734 988 
Q 734 391 2034 391 
Q 3550 391 4047 1050 
Q 4147 1181 4200 1181 
Q 4238 1181 4238 1106 
Q 4238 1053 4216 947 
Q 4194 841 4194 788 
Q 4194 466 4634 466 
L 4803 466 
L 4803 3 
z
M 2097 -1409 
L 2391 -1119 
L 2684 -1413 
L 2391 -1703 
L 2097 -1409 
z
M 1738 -784 
L 2031 -494 
L 2325 -788 
L 2034 -1078 
L 1738 -784 
z
M 2450 -784 
L 2741 -494 
L 3038 -788 
L 2744 -1078 
L 2450 -784 
z
" transform="scale(0.015625)"/>
       <path id="BNazanin-fb7c" d="M 3203 1166 
L 3028 853 
Q 2581 859 2403 794 
Q 2163 703 1678 463 
Q 1209 228 953 138 
Q 575 3 203 3 
L -81 3 
L -81 466 
L 219 466 
Q 775 466 1197 650 
L 2128 1056 
Q 1906 1106 1419 1288 
Q 1016 1438 897 1438 
Q 666 1438 425 1234 
Q 378 1194 341 1194 
Q 300 1194 300 1247 
Q 300 1269 313 1306 
Q 509 1884 984 1884 
Q 1153 1884 1444 1753 
Q 1931 1534 2169 1453 
Q 2578 1316 3144 1278 
Q 3244 1272 3244 1253 
Q 3244 1238 3203 1166 
z
M 1350 -1372 
L 1641 -1078 
L 1934 -1375 
L 1644 -1666 
L 1350 -1372 
z
M 988 -747 
L 1281 -453 
L 1578 -750 
L 1284 -1041 
L 988 -747 
z
M 1700 -747 
L 1994 -453 
L 2291 -750 
L 1997 -1041 
L 1700 -747 
z
" transform="scale(0.015625)"/>
       <path id="BNazanin-fe91" d="M 1038 797 
Q 1038 3 247 3 
L -81 3 
L -81 466 
L 191 466 
Q 788 466 788 681 
Q 788 831 516 1178 
L 678 1572 
Q 703 1631 719 1631 
Q 734 1631 784 1559 
Q 1038 1188 1038 797 
z
M 909 -878 
L 584 -1203 
L 256 -875 
L 581 -550 
L 909 -878 
z
" transform="scale(0.015625)"/>
       <path id="BNazanin-fee2" d="M 3303 3 
L 3113 3 
Q 2747 3 2553 166 
Q 2578 81 2578 -53 
Q 2578 -678 2163 -678 
Q 1822 -678 1619 -303 
Q 1453 3 1453 378 
Q 1453 459 1463 534 
Q 1403 544 1341 544 
Q 950 544 772 341 
Q 897 -631 897 -1106 
Q 897 -1338 775 -1663 
Q 731 -1778 709 -1778 
Q 688 -1778 672 -1625 
L 484 231 
Q 472 350 619 559 
Q 750 744 869 831 
Q 953 894 1172 941 
Q 1366 984 1497 984 
Q 1531 984 1559 981 
L 1619 1238 
Q 1638 1316 1656 1316 
Q 1675 1309 1719 1272 
Q 2200 841 2416 697 
Q 2766 466 3069 466 
L 3303 466 
L 3303 3 
z
M 2397 28 
Q 2397 194 2150 419 
Q 2109 456 1700 809 
Q 1684 691 1684 581 
Q 1684 303 1784 91 
Q 1913 -184 2163 -184 
Q 2397 -184 2397 28 
z
" transform="scale(0.015625)"/>
       <path id="BNazanin-feb8" d="M 3772 3 
L 3550 3 
Q 3147 3 2984 331 
Q 2841 3 2453 3 
Q 2116 3 1934 331 
Q 1766 3 1403 3 
Q 966 3 819 331 
Q 591 3 197 3 
L -81 3 
L -81 466 
L 238 466 
Q 672 466 750 934 
Q 769 1050 825 1050 
Q 875 1050 888 931 
Q 934 466 1391 466 
Q 1834 466 1884 931 
Q 1897 1050 1947 1050 
Q 2003 1050 2019 934 
Q 2081 466 2438 466 
Q 2881 466 2931 931 
Q 2944 1050 2994 1050 
Q 3050 1050 3066 934 
Q 3125 466 3541 466 
L 3772 466 
L 3772 3 
z
M 2263 2638 
L 1972 2344 
L 1675 2641 
L 1969 2931 
L 2263 2638 
z
M 2622 2013 
L 2328 1722 
L 2034 2016 
L 2325 2306 
L 2622 2013 
z
M 1909 2013 
L 1619 1722 
L 1322 2016 
L 1616 2306 
L 1909 2013 
z
" transform="scale(0.015625)"/>
       <path id="BNazanin-fb90" d="M 2559 3703 
Q 2544 3600 2406 3244 
L 1397 2928 
Q 719 2709 478 2566 
Q 953 2094 1122 1878 
Q 1444 1466 1478 1097 
Q 1506 800 1391 519 
Q 1181 3 134 3 
L -81 3 
L -81 466 
L 144 466 
Q 616 466 822 509 
Q 1253 600 1253 894 
Q 1253 1294 597 1888 
L 541 1800 
Q 478 1850 325 2050 
Q 159 2259 159 2306 
Q 159 2419 203 2609 
Q 253 2822 309 2888 
Q 347 2931 1134 3225 
Q 2019 3556 2559 3703 
z
" transform="scale(0.015625)"/>
       <path id="BNazanin-feae" d="M 2488 3 
L 2319 3 
Q 2100 3 1988 78 
Q 1994 16 1994 -47 
Q 1994 -609 1628 -1131 
Q 1313 -1581 1113 -1581 
Q 656 -1581 325 -1534 
Q 216 -1519 216 -1481 
Q 216 -1444 328 -1422 
Q 797 -1325 1272 -925 
Q 1778 -497 1778 -103 
Q 1778 159 1359 566 
L 1544 941 
Q 1566 988 1581 991 
Q 1600 984 1634 938 
Q 1819 694 1919 613 
Q 2106 466 2363 466 
L 2488 466 
L 2488 3 
z
" transform="scale(0.015625)"/>
       <path id="BNazanin-fea3" d="M 3203 1166 
L 3028 853 
Q 2581 859 2403 794 
Q 2163 703 1678 463 
Q 1209 228 953 138 
Q 575 3 203 3 
L -81 3 
L -81 466 
L 219 466 
Q 775 466 1197 650 
L 2128 1056 
Q 1906 1106 1419 1288 
Q 1016 1438 897 1438 
Q 666 1438 425 1234 
Q 378 1194 341 1194 
Q 300 1194 300 1247 
Q 300 1269 313 1306 
Q 509 1884 984 1884 
Q 1153 1884 1444 1753 
Q 1931 1534 2169 1453 
Q 2578 1316 3144 1278 
Q 3244 1272 3244 1253 
Q 3244 1238 3203 1166 
z
" transform="scale(0.015625)"/>
      </defs>
      <use xlink:href="#BNazanin-fb57"/>
      <use xlink:href="#BNazanin-fb7c" x="73.779297"/>
      <use xlink:href="#BNazanin-20" x="124.462891"/>
      <use xlink:href="#BNazanin-feea" x="148.876953"/>
      <use xlink:href="#BNazanin-fe91" x="190.380859"/>
      <use xlink:href="#BNazanin-20" x="206.640625"/>
      <use xlink:href="#BNazanin-fee2" x="231.054688"/>
      <use xlink:href="#BNazanin-feb8" x="281.396484"/>
      <use xlink:href="#BNazanin-fb7c" x="339.013672"/>
      <use xlink:href="#BNazanin-20" x="389.697266"/>
      <use xlink:href="#BNazanin-fe96" x="414.111328"/>
      <use xlink:href="#BNazanin-fb90" x="487.890625"/>
      <use xlink:href="#BNazanin-feae" x="525.244141"/>
      <use xlink:href="#BNazanin-fea3" x="562.841797"/>
     </g>
    </g>
   </g>
  </g>
  <g id="axes_2">
   <g id="patch_10">
    <path d="M 60.364751 593.06 
L 1141.2 593.06 
L 1141.2 378.048125 
L 60.364751 378.048125 
z
" style="fill: #eaeaf2"/>
   </g>
   <g id="matplotlib.axis_3">
    <g id="xtick_7">
     <g id="line2d_24">
      <path d="M 109.493626 593.06 
L 109.493626 378.048125 
" clip-path="url(#p148497d6a4)" style="fill: none; stroke: #ffffff; stroke-linecap: round"/>
     </g>
     <g id="line2d_25"/>
     <g id="text_18">
      <!-- 100 -->
      <g style="fill: #262626" transform="translate(101.070188 607.56)scale(0.1 -0.1)">
       <use xlink:href="#Roboto-Regular-31"/>
       <use xlink:href="#Roboto-Regular-30" x="56.152344"/>
       <use xlink:href="#Roboto-Regular-30" x="112.304688"/>
      </g>
     </g>
    </g>
    <g id="xtick_8">
     <g id="line2d_26">
      <path d="M 306.087763 593.06 
L 306.087763 378.048125 
" clip-path="url(#p148497d6a4)" style="fill: none; stroke: #ffffff; stroke-linecap: round"/>
     </g>
     <g id="line2d_27"/>
     <g id="text_19">
      <!-- 102 -->
      <g style="fill: #262626" transform="translate(297.664326 607.56)scale(0.1 -0.1)">
       <use xlink:href="#Roboto-Regular-31"/>
       <use xlink:href="#Roboto-Regular-30" x="56.152344"/>
       <use xlink:href="#Roboto-Regular-32" x="112.304688"/>
      </g>
     </g>
    </g>
    <g id="xtick_9">
     <g id="line2d_28">
      <path d="M 502.681901 593.06 
L 502.681901 378.048125 
" clip-path="url(#p148497d6a4)" style="fill: none; stroke: #ffffff; stroke-linecap: round"/>
     </g>
     <g id="line2d_29"/>
     <g id="text_20">
      <!-- 104 -->
      <g style="fill: #262626" transform="translate(494.258463 607.56)scale(0.1 -0.1)">
       <use xlink:href="#Roboto-Regular-31"/>
       <use xlink:href="#Roboto-Regular-30" x="56.152344"/>
       <use xlink:href="#Roboto-Regular-34" x="112.304688"/>
      </g>
     </g>
    </g>
    <g id="xtick_10">
     <g id="line2d_30">
      <path d="M 699.276038 593.06 
L 699.276038 378.048125 
" clip-path="url(#p148497d6a4)" style="fill: none; stroke: #ffffff; stroke-linecap: round"/>
     </g>
     <g id="line2d_31"/>
     <g id="text_21">
      <!-- 106 -->
      <g style="fill: #262626" transform="translate(690.852601 607.56)scale(0.1 -0.1)">
       <use xlink:href="#Roboto-Regular-31"/>
       <use xlink:href="#Roboto-Regular-30" x="56.152344"/>
       <use xlink:href="#Roboto-Regular-36" x="112.304688"/>
      </g>
     </g>
    </g>
    <g id="xtick_11">
     <g id="line2d_32">
      <path d="M 895.870176 593.06 
L 895.870176 378.048125 
" clip-path="url(#p148497d6a4)" style="fill: none; stroke: #ffffff; stroke-linecap: round"/>
     </g>
     <g id="line2d_33"/>
     <g id="text_22">
      <!-- 108 -->
      <g style="fill: #262626" transform="translate(887.446738 607.56)scale(0.1 -0.1)">
       <use xlink:href="#Roboto-Regular-31"/>
       <use xlink:href="#Roboto-Regular-30" x="56.152344"/>
       <use xlink:href="#Roboto-Regular-38" x="112.304688"/>
      </g>
     </g>
    </g>
    <g id="xtick_12">
     <g id="line2d_34">
      <path d="M 1092.464313 593.06 
L 1092.464313 378.048125 
" clip-path="url(#p148497d6a4)" style="fill: none; stroke: #ffffff; stroke-linecap: round"/>
     </g>
     <g id="line2d_35"/>
     <g id="text_23">
      <!-- 110 -->
      <g style="fill: #262626" transform="translate(1084.040876 607.56)scale(0.1 -0.1)">
       <use xlink:href="#Roboto-Regular-31"/>
       <use xlink:href="#Roboto-Regular-31" x="56.152344"/>
       <use xlink:href="#Roboto-Regular-30" x="112.304688"/>
      </g>
     </g>
    </g>
    <g id="text_24">
     <!-- (ﻪﯿﻧﺎﺛ) ﻥﺎﻣﺯ -->
     <g style="fill: #056385" transform="translate(575.880969 632.8775)scale(0.14 -0.14)">
      <use xlink:href="#BNazanin-28"/>
      <use xlink:href="#BNazanin-feea" x="28.125"/>
      <use xlink:href="#BNazanin-fbff" x="69.628906"/>
      <use xlink:href="#BNazanin-fee7" x="100.390625"/>
      <use xlink:href="#BNazanin-fe8e" x="116.650391"/>
      <use xlink:href="#BNazanin-fe9b" x="140.087891"/>
      <use xlink:href="#BNazanin-29" x="161.230469"/>
      <use xlink:href="#BNazanin-20" x="189.355469"/>
      <use xlink:href="#BNazanin-fee5" x="213.769531"/>
      <use xlink:href="#BNazanin-fe8e" x="268.359375"/>
      <use xlink:href="#BNazanin-fee3" x="291.796875"/>
      <use xlink:href="#BNazanin-feaf" x="324.121094"/>
     </g>
    </g>
   </g>
   <g id="matplotlib.axis_4">
    <g id="ytick_6">
     <g id="line2d_36">
      <path d="M 60.364751 565.307483 
L 1141.2 565.307483 
" clip-path="url(#p148497d6a4)" style="fill: none; stroke: #ffffff; stroke-linecap: round"/>
     </g>
     <g id="line2d_37"/>
     <g id="text_25">
      <!-- $\mathdefault{−2.0}$ -->
      <g style="fill: #262626" transform="translate(33.764751 569.057483)scale(0.1 -0.1)">
       <use xlink:href="#Roboto-Regular-2212" transform="translate(0 0.921875)"/>
       <use xlink:href="#Roboto-Regular-32" transform="translate(57.128906 0.921875)"/>
       <use xlink:href="#Roboto-Regular-2e" transform="translate(113.28125 0.921875)"/>
       <use xlink:href="#Roboto-Regular-30" transform="translate(139.599609 0.921875)"/>
      </g>
     </g>
    </g>
    <g id="ytick_7">
     <g id="line2d_38">
      <path d="M 60.364751 533.688102 
L 1141.2 533.688102 
" clip-path="url(#p148497d6a4)" style="fill: none; stroke: #ffffff; stroke-linecap: round"/>
     </g>
     <g id="line2d_39"/>
     <g id="text_26">
      <!-- $\mathdefault{−1.5}$ -->
      <g style="fill: #262626" transform="translate(33.764751 537.438102)scale(0.1 -0.1)">
       <use xlink:href="#Roboto-Regular-2212" transform="translate(0 0.5625)"/>
       <use xlink:href="#Roboto-Regular-31" transform="translate(57.128906 0.5625)"/>
       <use xlink:href="#Roboto-Regular-2e" transform="translate(113.28125 0.5625)"/>
       <use xlink:href="#Roboto-Regular-35" transform="translate(139.599609 0.5625)"/>
      </g>
     </g>
    </g>
    <g id="ytick_8">
     <g id="line2d_40">
      <path d="M 60.364751 502.06872 
L 1141.2 502.06872 
" clip-path="url(#p148497d6a4)" style="fill: none; stroke: #ffffff; stroke-linecap: round"/>
     </g>
     <g id="line2d_41"/>
     <g id="text_27">
      <!-- $\mathdefault{−1.0}$ -->
      <g style="fill: #262626" transform="translate(33.764751 505.81872)scale(0.1 -0.1)">
       <use xlink:href="#Roboto-Regular-2212" transform="translate(0 0.921875)"/>
       <use xlink:href="#Roboto-Regular-31" transform="translate(57.128906 0.921875)"/>
       <use xlink:href="#Roboto-Regular-2e" transform="translate(113.28125 0.921875)"/>
       <use xlink:href="#Roboto-Regular-30" transform="translate(139.599609 0.921875)"/>
      </g>
     </g>
    </g>
    <g id="ytick_9">
     <g id="line2d_42">
      <path d="M 60.364751 470.449338 
L 1141.2 470.449338 
" clip-path="url(#p148497d6a4)" style="fill: none; stroke: #ffffff; stroke-linecap: round"/>
     </g>
     <g id="line2d_43"/>
     <g id="text_28">
      <!-- $\mathdefault{−0.5}$ -->
      <g style="fill: #262626" transform="translate(33.764751 474.199338)scale(0.1 -0.1)">
       <use xlink:href="#Roboto-Regular-2212" transform="translate(0 0.921875)"/>
       <use xlink:href="#Roboto-Regular-30" transform="translate(57.128906 0.921875)"/>
       <use xlink:href="#Roboto-Regular-2e" transform="translate(113.28125 0.921875)"/>
       <use xlink:href="#Roboto-Regular-35" transform="translate(139.599609 0.921875)"/>
      </g>
     </g>
    </g>
    <g id="ytick_10">
     <g id="line2d_44">
      <path d="M 60.364751 438.829956 
L 1141.2 438.829956 
" clip-path="url(#p148497d6a4)" style="fill: none; stroke: #ffffff; stroke-linecap: round"/>
     </g>
     <g id="line2d_45"/>
     <g id="text_29">
      <!-- $\mathdefault{0.0}$ -->
      <g style="fill: #262626" transform="translate(39.464751 442.579956)scale(0.1 -0.1)">
       <use xlink:href="#Roboto-Regular-30" transform="translate(0 0.921875)"/>
       <use xlink:href="#Roboto-Regular-2e" transform="translate(56.152344 0.921875)"/>
       <use xlink:href="#Roboto-Regular-30" transform="translate(82.470703 0.921875)"/>
      </g>
     </g>
    </g>
    <g id="ytick_11">
     <g id="line2d_46">
      <path d="M 60.364751 407.210574 
L 1141.2 407.210574 
" clip-path="url(#p148497d6a4)" style="fill: none; stroke: #ffffff; stroke-linecap: round"/>
     </g>
     <g id="line2d_47"/>
     <g id="text_30">
      <!-- $\mathdefault{0.5}$ -->
      <g style="fill: #262626" transform="translate(39.464751 410.960574)scale(0.1 -0.1)">
       <use xlink:href="#Roboto-Regular-30" transform="translate(0 0.921875)"/>
       <use xlink:href="#Roboto-Regular-2e" transform="translate(56.152344 0.921875)"/>
       <use xlink:href="#Roboto-Regular-35" transform="translate(82.470703 0.921875)"/>
      </g>
     </g>
    </g>
    <g id="text_31">
     <!-- (ﺖﻟﻭ) ﻩﺯﺍﺪﻧﺍ -->
     <g style="fill: #056385" transform="translate(20.306313 510.656719)rotate(-90)scale(0.14 -0.14)">
      <use xlink:href="#BNazanin-28"/>
      <use xlink:href="#BNazanin-fe96" x="28.125"/>
      <use xlink:href="#BNazanin-fedf" x="101.904297"/>
      <use xlink:href="#BNazanin-feed" x="117.919922"/>
      <use xlink:href="#BNazanin-29" x="150.097656"/>
      <use xlink:href="#BNazanin-20" x="178.222656"/>
      <use xlink:href="#BNazanin-fee9" x="202.636719"/>
      <use xlink:href="#BNazanin-feaf" x="233.935547"/>
      <use xlink:href="#BNazanin-fe8d" x="265.527344"/>
      <use xlink:href="#BNazanin-feaa" x="280.224609"/>
      <use xlink:href="#BNazanin-fee7" x="327.636719"/>
      <use xlink:href="#BNazanin-fe8d" x="343.896484"/>
     </g>
    </g>
    <g id="text_32">
     <!-- $\times\mathdefault{10^{−6}}\mathdefault{}$ -->
     <g style="fill: #262626" transform="translate(60.364751 375.048125)scale(0.1 -0.1)">
      <use xlink:href="#DejaVuSans-d7" transform="translate(0 0.221875)"/>
      <use xlink:href="#Roboto-Regular-31" transform="translate(83.789062 0.221875)"/>
      <use xlink:href="#Roboto-Regular-30" transform="translate(139.941406 0.221875)"/>
      <use xlink:href="#Roboto-Regular-2212" transform="translate(197.018242 37.201563)scale(0.7)"/>
      <use xlink:href="#Roboto-Regular-36" transform="translate(237.008477 37.201563)scale(0.7)"/>
     </g>
    </g>
   </g>
   <g id="patch_11">
    <path d="M 546.915582 593.06 
L 546.915582 378.048125 
L 608.842735 378.048125 
L 608.842735 593.06 
z
" clip-path="url(#p148497d6a4)" style="fill: #b2d9d5; opacity: 0.4; stroke: #b2d9d5; stroke-width: 0.3; stroke-linejoin: miter"/>
   </g>
   <g id="line2d_48">
    <path d="M 109.493626 439.699949 
L 115.39145 439.64886 
L 117.357391 439.904605 
L 118.930145 440.320386 
L 120.502898 440.94909 
L 122.468839 441.997264 
L 126.400722 444.219336 
L 127.580287 444.631056 
L 128.759851 444.801627 
L 129.939416 444.684106 
L 131.118981 444.260809 
L 132.298546 443.54989 
L 133.871299 442.255179 
L 137.803182 438.764215 
L 138.982747 438.092072 
L 140.162311 437.73622 
L 140.948688 437.690375 
L 141.735064 437.797653 
L 142.914629 438.226308 
L 144.094194 438.927152 
L 145.666947 440.151728 
L 149.59883 443.37656 
L 151.171583 444.286647 
L 152.351148 444.745516 
L 153.530713 445.015697 
L 155.103466 445.128509 
L 157.069407 445.015314 
L 161.00129 444.736497 
L 163.36042 444.862049 
L 166.505926 445.319473 
L 170.437809 445.859377 
L 174.369691 446.105266 
L 178.694762 446.427498 
L 188.131281 447.396738 
L 190.490411 447.322337 
L 192.84954 447.032868 
L 195.20867 446.504275 
L 197.5678 445.728222 
L 200.320117 444.559187 
L 205.431565 442.285475 
L 207.397506 441.71174 
L 208.970259 441.491484 
L 210.543013 441.512444 
L 212.115766 441.757816 
L 214.868084 442.488481 
L 216.834025 442.893556 
L 218.01359 442.926753 
L 219.193155 442.71639 
L 220.372719 442.208736 
L 221.552284 441.373732 
L 222.731849 440.210672 
L 223.911414 438.750523 
L 225.484167 436.450991 
L 229.809238 429.828748 
L 230.988803 428.429767 
L 232.168368 427.357462 
L 233.347933 426.647218 
L 234.527497 426.299907 
L 235.707062 426.282311 
L 236.886627 426.531469 
L 238.45938 427.130014 
L 241.211698 428.271596 
L 242.784451 428.638772 
L 243.964016 428.684249 
L 245.143581 428.518954 
L 246.323146 428.160262 
L 247.895899 427.451737 
L 253.400535 424.676584 
L 255.366476 424.088147 
L 257.332417 423.751899 
L 260.084735 423.55362 
L 262.837053 423.560064 
L 264.802995 423.750733 
L 266.375748 424.102801 
L 267.948501 424.70761 
L 269.521254 425.619928 
L 271.094007 426.860688 
L 272.66676 428.403019 
L 275.02589 431.094693 
L 277.778208 434.24778 
L 279.350961 435.743408 
L 280.530526 436.609937 
L 281.71009 437.212655 
L 282.889655 437.532991 
L 284.06922 437.575867 
L 285.248785 437.370687 
L 286.821538 436.805573 
L 290.753421 435.157223 
L 291.932986 434.990243 
L 292.719362 435.04693 
L 293.505739 435.262195 
L 294.292115 435.651307 
L 295.078492 436.223739 
L 296.258057 437.430794 
L 297.437621 439.036162 
L 299.010374 441.69671 
L 301.369504 446.330168 
L 303.728634 450.842308 
L 304.908199 452.738582 
L 306.087763 454.261831 
L 307.267328 455.349444 
L 308.053705 455.817389 
L 308.840081 456.079202 
L 309.626458 456.14187 
L 310.412834 456.018181 
L 311.592399 455.523008 
L 312.771964 454.724065 
L 314.344717 453.33515 
L 319.456165 448.468655 
L 321.028918 447.358864 
L 322.601671 446.525279 
L 324.174424 445.948373 
L 326.140365 445.510449 
L 328.892683 445.197833 
L 335.576884 444.536409 
L 339.508767 444.162791 
L 341.867896 444.129148 
L 344.227026 444.334769 
L 346.192967 444.73263 
L 348.158909 445.356053 
L 350.12485 446.195409 
L 352.877168 447.638859 
L 357.202239 449.940693 
L 359.168181 450.698887 
L 360.740934 451.07775 
L 362.313687 451.232012 
L 363.88644 451.17081 
L 365.852381 450.840707 
L 368.211511 450.173909 
L 370.570641 449.268598 
L 372.536582 448.259978 
L 374.109335 447.173827 
L 375.2889 446.124406 
L 376.468465 444.821097 
L 377.648029 443.224354 
L 378.827594 441.309401 
L 380.400347 438.258454 
L 381.9731 434.702057 
L 384.725418 427.760304 
L 387.084548 421.94446 
L 388.657301 418.619662 
L 389.836866 416.578369 
L 391.016431 414.994471 
L 391.802807 414.20838 
L 392.589184 413.640188 
L 393.37556 413.285212 
L 394.161937 413.133822 
L 394.948314 413.172313 
L 395.73469 413.383894 
L 396.914255 413.984222 
L 398.09382 414.864008 
L 399.666573 416.357799 
L 402.025702 419.010839 
L 409.103091 427.263746 
L 411.462221 429.59055 
L 413.821351 431.581169 
L 415.787292 432.974072 
L 417.753233 434.137552 
L 420.112363 435.264499 
L 422.471493 436.139419 
L 424.830622 436.790057 
L 427.189752 437.221427 
L 429.548882 437.438902 
L 432.694388 437.482173 
L 436.626271 437.543143 
L 438.592212 437.781176 
L 440.558153 438.248306 
L 442.524095 438.957646 
L 444.883224 440.056849 
L 448.815107 441.932111 
L 450.38786 442.455051 
L 451.960613 442.737182 
L 453.533367 442.742911 
L 455.10612 442.483307 
L 457.072061 441.891211 
L 459.824379 441.023146 
L 461.003944 440.831693 
L 462.183509 440.847292 
L 463.363073 441.121202 
L 464.542638 441.682118 
L 465.722203 442.53087 
L 466.901768 443.638249 
L 468.474521 445.413554 
L 472.013215 449.611194 
L 473.19278 450.717452 
L 474.372345 451.532468 
L 475.55191 451.999605 
L 476.338286 452.101796 
L 477.124663 452.033297 
L 477.91104 451.797045 
L 479.090604 451.145648 
L 480.270169 450.175425 
L 481.842922 448.480049 
L 483.808864 445.916887 
L 490.886253 436.168301 
L 492.459006 434.487044 
L 493.638571 433.46421 
L 494.818135 432.68564 
L 495.9977 432.180314 
L 497.177265 431.964802 
L 498.35683 432.038051 
L 499.536395 432.377738 
L 500.71596 432.939243 
L 502.681901 434.18505 
L 505.041031 435.714794 
L 506.613784 436.446765 
L 507.793348 436.733925 
L 508.972913 436.754522 
L 510.152478 436.497317 
L 511.332043 435.975009 
L 512.511608 435.220674 
L 514.084361 433.937919 
L 516.836679 431.304672 
L 519.982185 428.356037 
L 522.341315 426.439634 
L 525.486821 424.20081 
L 530.991457 420.563672 
L 532.957398 419.51728 
L 534.530151 418.936611 
L 536.102904 418.64345 
L 537.675657 418.621352 
L 541.214352 418.813565 
L 542.393917 418.569287 
L 543.180293 418.210749 
L 543.96667 417.656244 
L 544.753046 416.880053 
L 545.539423 415.867049 
L 546.718988 413.904483 
L 547.898553 411.474873 
L 551.830435 402.827022 
L 552.616812 401.793993 
L 553.01 401.473049 
L 553.403188 401.306552 
L 553.796377 401.312367 
L 554.189565 401.507965 
L 554.582753 401.910212 
L 554.975941 402.535159 
L 555.762318 404.512012 
L 556.548695 407.542731 
L 557.335071 411.705664 
L 558.121448 417.047891 
L 559.301012 427.287113 
L 560.480577 440.071649 
L 562.05333 460.488346 
L 564.019272 489.550028 
L 567.164778 536.067659 
L 568.737531 555.433219 
L 569.917096 567.014581 
L 570.703472 573.099084 
L 571.489849 577.78608 
L 572.276226 581.040913 
L 572.669414 582.130037 
L 573.062602 582.863765 
L 573.45579 583.247082 
L 573.848979 583.286733 
L 574.242167 582.991077 
L 574.635355 582.369944 
L 575.028543 581.434474 
L 575.81492 578.670703 
L 576.601297 574.809087 
L 577.387673 569.96975 
L 578.567238 561.153839 
L 580.139991 547.156411 
L 582.105932 527.375891 
L 588.396945 462.127362 
L 590.362886 444.336446 
L 591.935639 431.690144 
L 593.508392 420.659113 
L 595.081146 411.357187 
L 596.26071 405.536091 
L 597.440275 400.684457 
L 598.61984 396.754468 
L 599.799405 393.675904 
L 600.97897 391.362172 
L 601.765346 390.197301 
L 602.551723 389.300229 
L 603.338099 388.641733 
L 604.124476 388.193497 
L 604.910852 387.928673 
L 606.090417 387.821392 
L 607.269982 387.996787 
L 608.449547 388.39334 
L 610.0223 389.184965 
L 611.988241 390.493767 
L 613.954183 392.088773 
L 615.920124 393.948765 
L 617.886065 396.074992 
L 620.245195 398.972582 
L 622.997513 402.772751 
L 626.929396 408.674215 
L 630.46809 413.879496 
L 632.82722 416.935297 
L 634.793161 419.101604 
L 636.759103 420.915503 
L 639.118232 422.737791 
L 643.836492 426.218733 
L 645.802433 428.016033 
L 647.768374 430.164585 
L 649.734316 432.657722 
L 655.63214 440.544587 
L 656.811705 441.728712 
L 657.991269 442.632354 
L 659.170834 443.212534 
L 659.957211 443.407477 
L 660.743587 443.446969 
L 661.923152 443.223701 
L 663.102717 442.690393 
L 664.282282 441.897908 
L 665.855035 440.554764 
L 670.180106 436.600438 
L 671.752859 435.564716 
L 672.932424 435.042447 
L 674.111989 434.759747 
L 675.291554 434.71625 
L 676.471118 434.894846 
L 678.043872 435.422805 
L 680.009813 436.401821 
L 684.728072 438.943247 
L 686.694014 439.669962 
L 688.659955 440.106221 
L 690.625896 440.288828 
L 693.378214 440.291246 
L 696.916909 440.298716 
L 699.276038 440.512586 
L 702.028356 440.992333 
L 708.712557 442.270305 
L 718.542264 443.791877 
L 721.294582 444.174569 
L 723.260523 444.259811 
L 725.226465 444.124323 
L 727.192406 443.770207 
L 733.876607 442.272299 
L 735.44936 442.26002 
L 737.022113 442.484392 
L 738.594866 442.947901 
L 740.560807 443.816829 
L 743.313125 445.358263 
L 746.458631 447.089689 
L 748.424573 447.915371 
L 750.390514 448.46103 
L 752.356455 448.748652 
L 755.108773 448.887153 
L 764.152104 449.040387 
L 766.118045 448.724324 
L 768.083986 448.150457 
L 770.443116 447.196074 
L 778.306882 443.791124 
L 780.666011 442.702954 
L 782.631953 441.553729 
L 784.597894 440.096352 
L 786.563835 438.328313 
L 789.316153 435.500316 
L 792.854848 431.880278 
L 794.820789 430.182142 
L 796.393542 429.079129 
L 797.966295 428.230624 
L 799.539048 427.639192 
L 801.111802 427.290462 
L 802.684555 427.15802 
L 804.650496 427.244167 
L 807.009626 427.61778 
L 810.54832 428.474068 
L 816.839333 430.040158 
L 820.378027 430.683347 
L 824.703098 431.222754 
L 829.421357 431.811534 
L 831.780487 432.333876 
L 833.746428 432.991938 
L 835.71237 433.883739 
L 838.071499 435.218119 
L 842.789759 437.993728 
L 844.362512 438.670496 
L 845.935265 439.127793 
L 847.508018 439.354481 
L 849.080771 439.375587 
L 851.439901 439.146653 
L 855.764972 438.65945 
L 857.730913 438.686825 
L 859.696855 438.95614 
L 861.662796 439.470462 
L 864.021926 440.355421 
L 869.91975 442.801423 
L 871.492503 443.1841 
L 873.065256 443.341769 
L 874.638009 443.252542 
L 876.210762 442.927351 
L 878.176703 442.256347 
L 885.647281 439.347988 
L 887.613222 438.974996 
L 889.579163 438.838842 
L 891.545105 438.93704 
L 893.511046 439.263202 
L 895.476988 439.798935 
L 898.622494 440.940322 
L 901.374812 441.86439 
L 902.947565 442.163942 
L 904.12713 442.213365 
L 905.306694 442.085906 
L 906.486259 441.773244 
L 908.059012 441.086022 
L 910.024954 439.897519 
L 913.956836 437.348153 
L 915.52959 436.636927 
L 916.709154 436.312454 
L 917.888719 436.186269 
L 919.068284 436.257029 
L 920.641037 436.626915 
L 922.21379 437.244571 
L 924.57292 438.43583 
L 928.111614 440.243426 
L 930.077556 441.036837 
L 932.043497 441.612308 
L 934.009439 441.977407 
L 936.761756 442.229405 
L 941.873204 442.392098 
L 945.01871 442.343808 
L 947.37784 442.116109 
L 950.523346 441.558965 
L 953.668852 441.030947 
L 955.634794 440.925381 
L 957.600735 441.067271 
L 959.959865 441.501744 
L 963.498559 442.172206 
L 965.071312 442.246786 
L 966.644065 442.094447 
L 968.216818 441.704619 
L 970.18276 440.940802 
L 975.687396 438.50744 
L 977.260149 438.096982 
L 978.832902 437.898273 
L 980.405655 437.90527 
L 982.371596 438.149315 
L 985.517103 438.8224 
L 988.662609 439.438425 
L 991.414927 439.743907 
L 995.739998 440.179692 
L 997.705939 440.670585 
L 999.278692 441.279372 
L 1001.244634 442.274941 
L 1004.783328 444.152335 
L 1006.356081 444.67616 
L 1007.535646 444.820369 
L 1008.715211 444.706072 
L 1009.894776 444.314405 
L 1011.07434 443.649939 
L 1012.253905 442.740769 
L 1013.826658 441.234853 
L 1019.331294 435.578188 
L 1020.904047 434.44364 
L 1022.4768 433.645122 
L 1024.049553 433.151156 
L 1026.015495 432.840378 
L 1032.306507 432.142924 
L 1037.811143 431.144983 
L 1039.383896 431.1199 
L 1040.956649 431.317947 
L 1042.529402 431.759852 
L 1044.102155 432.4365 
L 1046.068097 433.55537 
L 1049.213603 435.695806 
L 1052.359109 437.787538 
L 1054.325051 438.8727 
L 1056.290992 439.719695 
L 1058.256933 440.323679 
L 1060.616063 440.77443 
L 1063.761569 441.08275 
L 1069.266205 441.570085 
L 1076.343594 442.393108 
L 1078.309535 442.356339 
L 1080.668665 442.067555 
L 1088.532431 440.76315 
L 1091.284748 440.74183 
L 1092.071125 440.770791 
L 1092.071125 440.770791 
" clip-path="url(#p148497d6a4)" style="fill: none; stroke: #000000; stroke-width: 1.2; stroke-linecap: round"/>
   </g>
   <g id="patch_12">
    <path d="M 60.364751 593.06 
L 60.364751 378.048125 
" style="fill: none"/>
   </g>
   <g id="patch_13">
    <path d="M 1141.2 593.06 
L 1141.2 378.048125 
" style="fill: none"/>
   </g>
   <g id="patch_14">
    <path d="M 60.364751 593.06 
L 1141.2 593.06 
" style="fill: none"/>
   </g>
   <g id="patch_15">
    <path d="M 60.364751 378.048125 
L 1141.2 378.048125 
" style="fill: none"/>
   </g>
   <g id="text_33">
    <!-- KNTU BSP Lab: Author, 24M -->
    <g style="fill: #262626" transform="translate(1041.28375 591.435)scale(0.08 -0.08)">
     <use xlink:href="#Roboto-Regular-4b"/>
     <use xlink:href="#Roboto-Regular-4e" x="62.695312"/>
     <use xlink:href="#Roboto-Regular-54" x="133.984375"/>
     <use xlink:href="#Roboto-Regular-55" x="193.652344"/>
     <use xlink:href="#Roboto-Regular-20" x="258.496094"/>
     <use xlink:href="#Roboto-Regular-42" x="283.251953"/>
     <use xlink:href="#Roboto-Regular-53" x="345.507812"/>
     <use xlink:href="#Roboto-Regular-50" x="404.833984"/>
     <use xlink:href="#Roboto-Regular-20" x="467.919922"/>
     <use xlink:href="#Roboto-Regular-4c" x="492.675781"/>
     <use xlink:href="#Roboto-Regular-61" x="546.484375"/>
     <use xlink:href="#Roboto-Regular-62" x="600.878906"/>
     <use xlink:href="#Roboto-Regular-3a" x="656.982422"/>
     <use xlink:href="#Roboto-Regular-20" x="681.201172"/>
     <use xlink:href="#Roboto-Regular-41" x="705.957031"/>
     <use xlink:href="#Roboto-Regular-75" x="771.191406"/>
     <use xlink:href="#Roboto-Regular-74" x="826.318359"/>
     <use xlink:href="#Roboto-Regular-68" x="858.984375"/>
     <use xlink:href="#Roboto-Regular-6f" x="914.0625"/>
     <use xlink:href="#Roboto-Regular-72" x="971.09375"/>
     <use xlink:href="#Roboto-Regular-2c" x="1004.931641"/>
     <use xlink:href="#Roboto-Regular-20" x="1024.560547"/>
     <use xlink:href="#Roboto-Regular-32" x="1049.316406"/>
     <use xlink:href="#Roboto-Regular-34" x="1105.46875"/>
     <use xlink:href="#Roboto-Regular-4d" x="1161.621094"/>
    </g>
   </g>
   <g id="text_34">
    <!-- F5-Fc5 -->
    <g style="fill: #414242" transform="translate(572.997688 358.048125)scale(0.18 -0.18)">
     <defs>
      <path id="Roboto-Medium-63" d="M 1778 544 
Q 2063 544 2250 709 
Q 2438 875 2450 1119 
L 3166 1119 
Q 3153 803 2968 529 
Q 2784 256 2468 96 
Q 2153 -63 1788 -63 
Q 1078 -63 662 396 
Q 247 856 247 1666 
L 247 1744 
Q 247 2516 659 2980 
Q 1072 3444 1784 3444 
Q 2388 3444 2767 3092 
Q 3147 2741 3166 2169 
L 2450 2169 
Q 2438 2459 2252 2646 
Q 2066 2834 1778 2834 
Q 1409 2834 1209 2567 
Q 1009 2300 1006 1756 
L 1006 1634 
Q 1006 1084 1204 814 
Q 1403 544 1778 544 
z
" transform="scale(0.015625)"/>
     </defs>
     <use xlink:href="#Roboto-Medium-46"/>
     <use xlink:href="#Roboto-Medium-35" x="54.931641"/>
     <use xlink:href="#Roboto-Medium-2d" x="111.767578"/>
     <use xlink:href="#Roboto-Medium-46" x="144.580078"/>
     <use xlink:href="#Roboto-Medium-63" x="199.511719"/>
     <use xlink:href="#Roboto-Medium-35" x="251.855469"/>
    </g>
   </g>
   <g id="legend_2">
    <g id="patch_16">
     <path d="M 1040.842187 400.82625 
L 1134.2 400.82625 
Q 1136.2 400.82625 1136.2 398.82625 
L 1136.2 385.048125 
Q 1136.2 383.048125 1134.2 383.048125 
L 1040.842187 383.048125 
Q 1038.842187 383.048125 1038.842187 385.048125 
L 1038.842187 398.82625 
Q 1038.842187 400.82625 1040.842187 400.82625 
z
" style="fill: #ffffff; stroke: #cccccc; stroke-width: 0.3; stroke-linejoin: miter"/>
    </g>
    <g id="patch_17">
     <path d="M 1042.842187 394.048125 
L 1062.842187 394.048125 
L 1062.842187 387.048125 
L 1042.842187 387.048125 
z
" style="fill: #b2d9d5; opacity: 0.4; stroke: #b2d9d5; stroke-width: 0.3; stroke-linejoin: miter"/>
    </g>
    <g id="text_35">
     <!-- ﭗﭼ ﻪﺑ ﻢﺸﭼ ﺖﮐﺮﺣ -->
     <g style="fill: #262626" transform="translate(1070.842187 394.048125)scale(0.1 -0.1)">
      <use xlink:href="#BNazanin-fb57"/>
      <use xlink:href="#BNazanin-fb7c" x="73.779297"/>
      <use xlink:href="#BNazanin-20" x="124.462891"/>
      <use xlink:href="#BNazanin-feea" x="148.876953"/>
      <use xlink:href="#BNazanin-fe91" x="190.380859"/>
      <use xlink:href="#BNazanin-20" x="206.640625"/>
      <use xlink:href="#BNazanin-fee2" x="231.054688"/>
      <use xlink:href="#BNazanin-feb8" x="281.396484"/>
      <use xlink:href="#BNazanin-fb7c" x="339.013672"/>
      <use xlink:href="#BNazanin-20" x="389.697266"/>
      <use xlink:href="#BNazanin-fe96" x="414.111328"/>
      <use xlink:href="#BNazanin-fb90" x="487.890625"/>
      <use xlink:href="#BNazanin-feae" x="525.244141"/>
      <use xlink:href="#BNazanin-fea3" x="562.841797"/>
     </g>
    </g>
   </g>
  </g>
  <g id="line2d_49">
   <path d="M 0 338.968125 
L 1152 338.968125 
" style="fill: none; stroke-dasharray: 1.2,1.98; stroke-dashoffset: 0; stroke: #000000; stroke-width: 1.2"/>
  </g>
  <g id="text_36">
   <!-- ﭗﭼ ﺖﻤﺳ ﻪﺑ ﻢﺸﭼ ﺖﮐﺮﺣ ﺭﺩ ﭗﭼ ﻩﺮﮐﻢﯿﻧ ﻩﺮﯿﺠﻧﺯ ﻭﺩ ﻪﺴﯾﺎﻘﻣ -->
   <g style="fill: #2d1754" transform="translate(386.803094 19.50125)scale(0.22 -0.22)">
    <defs>
     <path id="BNazanin-fee4" d="M 2947 3 
L 2688 3 
Q 2406 3 2109 334 
Q 1944 -159 1734 -159 
Q 1541 -159 1194 38 
Q 884 213 759 353 
Q 478 3 163 3 
L -81 3 
L -81 466 
L 175 466 
Q 450 466 706 697 
Q 866 878 1094 1125 
Q 1306 1356 1491 1356 
Q 1719 1356 1906 1125 
Q 2000 1006 2247 697 
Q 2438 466 2688 466 
L 2947 466 
L 2947 3 
z
M 1869 334 
Q 1888 516 1766 725 
Q 1628 963 1425 963 
Q 1219 963 981 656 
Q 1047 572 1322 428 
Q 1619 272 1800 266 
Q 1863 263 1869 334 
z
" transform="scale(0.015625)"/>
     <path id="BNazanin-feb3" d="M 3234 856 
Q 3234 500 3069 269 
Q 2881 3 2541 3 
Q 2141 3 1966 331 
Q 1744 3 1403 3 
Q 966 3 819 331 
Q 591 3 197 3 
L -81 3 
L -81 466 
L 238 466 
Q 672 466 750 934 
Q 769 1050 825 1050 
Q 875 1050 888 931 
Q 934 466 1391 466 
Q 1659 466 1772 603 
Q 1850 700 1884 931 
Q 1900 1044 1950 1044 
Q 2003 1044 2019 934 
Q 2081 466 2500 466 
Q 2956 466 2956 681 
Q 2956 853 2731 1138 
L 2913 1478 
Q 2956 1559 2975 1559 
Q 2994 1559 3044 1469 
Q 3234 1122 3234 856 
z
" transform="scale(0.015625)"/>
     <path id="BNazanin-fead" d="M 2016 -34 
Q 2016 -619 1644 -1138 
Q 1325 -1581 1113 -1581 
Q 656 -1581 325 -1534 
Q 216 -1519 216 -1481 
Q 216 -1444 328 -1422 
Q 797 -1325 1272 -925 
Q 1778 -497 1778 -103 
Q 1778 159 1359 566 
L 1541 944 
Q 1566 994 1578 997 
Q 1597 991 1631 947 
Q 1775 772 1891 481 
Q 2016 175 2016 -34 
z
" transform="scale(0.015625)"/>
     <path id="BNazanin-fea9" d="M 2438 838 
Q 2438 3 1331 3 
Q 919 3 728 116 
Q 481 259 481 638 
Q 481 816 578 1000 
Q 622 1084 659 1084 
Q 706 1084 694 981 
Q 684 906 684 856 
Q 684 606 909 519 
Q 1047 466 1353 466 
Q 2228 466 2228 738 
Q 2228 1166 1206 1906 
L 1325 2313 
Q 1344 2372 1359 2372 
Q 1378 2372 1438 2325 
Q 2438 1522 2438 838 
z
" transform="scale(0.015625)"/>
     <path id="BNazanin-fea0" d="M 3606 3 
L 3200 3 
Q 2413 3 2413 784 
Q 2413 875 2422 991 
Q 2150 859 1666 559 
Q 1209 275 969 172 
Q 581 3 203 3 
L -81 3 
L -81 466 
L 219 466 
Q 719 466 1209 716 
Q 1453 844 2088 1172 
Q 1950 1200 1388 1347 
Q 978 1453 897 1453 
Q 681 1453 425 1234 
Q 378 1194 341 1194 
Q 300 1194 300 1247 
Q 300 1269 313 1306 
Q 513 1900 984 1900 
Q 1163 1900 1447 1803 
Q 1881 1656 2169 1591 
Q 2559 1503 3134 1516 
Q 3225 1519 3238 1503 
Q 3250 1488 3222 1416 
L 3088 1069 
Q 2713 1072 2622 1025 
Q 2622 756 2684 656 
Q 2803 466 3216 466 
L 3606 466 
L 3606 3 
z
M 2075 -813 
L 1750 -1138 
L 1422 -809 
L 1747 -484 
L 2075 -813 
z
" transform="scale(0.015625)"/>
     <path id="BNazanin-feb4" d="M 3772 3 
L 3550 3 
Q 3147 3 2984 331 
Q 2841 3 2453 3 
Q 2116 3 1934 331 
Q 1766 3 1403 3 
Q 966 3 819 331 
Q 591 3 197 3 
L -81 3 
L -81 466 
L 238 466 
Q 672 466 750 934 
Q 769 1050 825 1050 
Q 875 1050 888 931 
Q 934 466 1391 466 
Q 1834 466 1884 931 
Q 1897 1050 1947 1050 
Q 2003 1050 2019 934 
Q 2081 466 2438 466 
Q 2881 466 2931 931 
Q 2944 1050 2994 1050 
Q 3050 1050 3066 934 
Q 3125 466 3541 466 
L 3772 466 
L 3772 3 
z
" transform="scale(0.015625)"/>
     <path id="BNazanin-fbfe" d="M 1038 797 
Q 1038 3 247 3 
L -81 3 
L -81 466 
L 191 466 
Q 788 466 788 681 
Q 788 831 516 1178 
L 678 1572 
Q 703 1631 719 1631 
Q 734 1631 784 1559 
Q 1038 1188 1038 797 
z
M 1406 -878 
L 1097 -1188 
L 788 -875 
L 1097 -566 
L 1406 -878 
z
M 722 -878 
L 413 -1188 
L 103 -875 
L 409 -566 
L 722 -878 
z
" transform="scale(0.015625)"/>
     <path id="BNazanin-fed8" d="M 2247 3 
L 2041 3 
Q 1847 3 1578 75 
Q 1291 150 1150 253 
Q 784 3 209 3 
L -81 3 
L -81 466 
L 106 466 
Q 563 466 722 534 
Q 497 709 497 991 
Q 497 1238 703 1572 
Q 944 1959 1234 1959 
Q 1519 1959 1672 1650 
Q 1791 1409 1791 1091 
Q 1791 759 1519 541 
Q 1669 466 2088 466 
L 2247 466 
L 2247 3 
z
M 1559 1031 
Q 1559 1172 1437 1334 
Q 1316 1497 1178 1497 
Q 1050 1497 897 1358 
Q 744 1219 744 1091 
Q 744 950 891 819 
Q 1025 697 1172 669 
Q 1300 691 1413 775 
Q 1559 884 1559 1031 
z
M 1759 2969 
L 1450 2663 
L 1141 2972 
L 1447 3281 
L 1759 2969 
z
M 1075 2969 
L 766 2663 
L 453 2972 
L 763 3281 
L 1075 2969 
z
" transform="scale(0.015625)"/>
    </defs>
    <use xlink:href="#BNazanin-fb57"/>
    <use xlink:href="#BNazanin-fb7c" x="73.779297"/>
    <use xlink:href="#BNazanin-20" x="124.462891"/>
    <use xlink:href="#BNazanin-fe96" x="148.876953"/>
    <use xlink:href="#BNazanin-fee4" x="222.65625"/>
    <use xlink:href="#BNazanin-feb3" x="267.382812"/>
    <use xlink:href="#BNazanin-20" x="318.212891"/>
    <use xlink:href="#BNazanin-feea" x="342.626953"/>
    <use xlink:href="#BNazanin-fe91" x="384.130859"/>
    <use xlink:href="#BNazanin-20" x="400.390625"/>
    <use xlink:href="#BNazanin-fee2" x="424.804688"/>
    <use xlink:href="#BNazanin-feb8" x="475.146484"/>
    <use xlink:href="#BNazanin-fb7c" x="532.763672"/>
    <use xlink:href="#BNazanin-20" x="583.447266"/>
    <use xlink:href="#BNazanin-fe96" x="607.861328"/>
    <use xlink:href="#BNazanin-fb90" x="681.640625"/>
    <use xlink:href="#BNazanin-feae" x="718.994141"/>
    <use xlink:href="#BNazanin-fea3" x="756.591797"/>
    <use xlink:href="#BNazanin-20" x="807.275391"/>
    <use xlink:href="#BNazanin-fead" x="831.689453"/>
    <use xlink:href="#BNazanin-fea9" x="863.28125"/>
    <use xlink:href="#BNazanin-20" x="901.464844"/>
    <use xlink:href="#BNazanin-fb57" x="925.878906"/>
    <use xlink:href="#BNazanin-fb7c" x="999.658203"/>
    <use xlink:href="#BNazanin-20" x="1050.341797"/>
    <use xlink:href="#BNazanin-fee9" x="1074.755859"/>
    <use xlink:href="#BNazanin-feae" x="1106.054688"/>
    <use xlink:href="#BNazanin-fb90" x="1143.652344"/>
    <use xlink:href="#BNazanin-fee2" x="1181.005859"/>
    <use xlink:href="#BNazanin-fbff" x="1231.347656"/>
    <use xlink:href="#BNazanin-fee7" x="1262.109375"/>
    <use xlink:href="#BNazanin-20" x="1278.369141"/>
    <use xlink:href="#BNazanin-fee9" x="1302.783203"/>
    <use xlink:href="#BNazanin-feae" x="1334.082031"/>
    <use xlink:href="#BNazanin-fbff" x="1371.679688"/>
    <use xlink:href="#BNazanin-fea0" x="1402.441406"/>
    <use xlink:href="#BNazanin-fee7" x="1457.080078"/>
    <use xlink:href="#BNazanin-feaf" x="1473.339844"/>
    <use xlink:href="#BNazanin-20" x="1504.931641"/>
    <use xlink:href="#BNazanin-feed" x="1529.345703"/>
    <use xlink:href="#BNazanin-fea9" x="1561.523438"/>
    <use xlink:href="#BNazanin-20" x="1599.707031"/>
    <use xlink:href="#BNazanin-feea" x="1624.121094"/>
    <use xlink:href="#BNazanin-feb4" x="1665.625"/>
    <use xlink:href="#BNazanin-fbfe" x="1723.242188"/>
    <use xlink:href="#BNazanin-fe8e" x="1745.458984"/>
    <use xlink:href="#BNazanin-fed8" x="1768.896484"/>
    <use xlink:href="#BNazanin-fee3" x="1802.685547"/>
   </g>
  </g>
 </g>
 <defs>
  <clipPath id="p6b8fa9ae39">
   <rect x="60.364751" y="74.41625" width="1080.835249" height="215.011875"/>
  </clipPath>
  <clipPath id="p148497d6a4">
   <rect x="60.364751" y="378.048125" width="1080.835249" height="215.011875"/>
  </clipPath>
 </defs>
</svg>
