<?xml version="1.0" encoding="utf-8" standalone="no"?>
<!DOCTYPE svg PUBLIC "-//W3C//DTD SVG 1.1//EN"
  "http://www.w3.org/Graphics/SVG/1.1/DTD/svg11.dtd">
<svg xmlns:xlink="http://www.w3.org/1999/xlink" width="432pt" height="432pt" viewBox="0 0 432 432" xmlns="http://www.w3.org/2000/svg" version="1.1">
 <metadata>
  <rdf:RDF xmlns:dc="http://purl.org/dc/elements/1.1/" xmlns:cc="http://creativecommons.org/ns#" xmlns:rdf="http://www.w3.org/1999/02/22-rdf-syntax-ns#">
   <cc:Work>
    <dc:type rdf:resource="http://purl.org/dc/dcmitype/StillImage"/>
    <dc:date>2022-08-18T22:00:12.357881</dc:date>
    <dc:format>image/svg+xml</dc:format>
    <dc:creator>
     <cc:Agent>
      <dc:title>Matplotlib v3.5.2, https://matplotlib.org/</dc:title>
     </cc:Agent>
    </dc:creator>
   </cc:Work>
  </rdf:RDF>
 </metadata>
 <defs>
  <style type="text/css">*{stroke-linejoin: round; stroke-linecap: butt}</style>
 </defs>
 <g id="figure_1">
  <g id="patch_1">
   <path d="M 0 432 
L 432 432 
L 432 0 
L 0 0 
z
" style="fill: #ffffff"/>
  </g>
  <g id="axes_1">
   <g id="patch_2">
    <path d="M 54 384.48 
L 388.8 384.48 
L 388.8 51.84 
L 54 51.84 
z
" style="fill: #ffffff"/>
   </g>
   <g id="patch_3">
    <path d="M 54 53.590737 
L 150.232483 53.590737 
L 150.232483 67.596632 
L 54 67.596632 
z
" clip-path="url(#p870e111e6f)" style="fill: #a82b37"/>
   </g>
   <g id="patch_4">
    <path d="M 54 71.098105 
L 158.193219 71.098105 
L 158.193219 85.104 
L 54 85.104 
z
" clip-path="url(#p870e111e6f)" style="fill: #c0433d"/>
   </g>
   <g id="patch_5">
    <path d="M 54 88.605474 
L 332.061469 88.605474 
L 332.061469 102.611368 
L 54 102.611368 
z
" clip-path="url(#p870e111e6f)" style="fill: #cf5e4b"/>
   </g>
   <g id="patch_6">
    <path d="M 54 106.112842 
L 137.442938 106.112842 
L 137.442938 120.118737 
L 54 120.118737 
z
" clip-path="url(#p870e111e6f)" style="fill: #de7959"/>
   </g>
   <g id="patch_7">
    <path d="M 54 123.620211 
L 188.280976 123.620211 
L 188.280976 137.626105 
L 54 137.626105 
z
" clip-path="url(#p870e111e6f)" style="fill: #e49467"/>
   </g>
   <g id="patch_8">
    <path d="M 54 141.127579 
L 372.857143 141.127579 
L 372.857143 155.133474 
L 54 155.133474 
z
" clip-path="url(#p870e111e6f)" style="fill: #e9ad74"/>
   </g>
   <g id="patch_9">
    <path d="M 54 158.634947 
L 354.134075 158.634947 
L 354.134075 172.640842 
L 54 172.640842 
z
" clip-path="url(#p870e111e6f)" style="fill: #edc387"/>
   </g>
   <g id="patch_10">
    <path d="M 54 176.142316 
L 366.212153 176.142316 
L 366.212153 190.148211 
L 54 190.148211 
z
" clip-path="url(#p870e111e6f)" style="fill: #f0d999"/>
   </g>
   <g id="patch_11">
    <path d="M 54 193.649684 
L 222.339765 193.649684 
L 222.339765 207.655579 
L 54 207.655579 
z
" clip-path="url(#p870e111e6f)" style="fill: #f3e8b1"/>
   </g>
   <g id="patch_12">
    <path d="M 54 211.157053 
L 250.825592 211.157053 
L 250.825592 225.162947 
L 54 225.162947 
z
" clip-path="url(#p870e111e6f)" style="fill: #f6f7c6"/>
   </g>
   <g id="patch_13">
    <path d="M 54 228.664421 
L 144.286477 228.664421 
L 144.286477 242.670316 
L 54 242.670316 
z
" clip-path="url(#p870e111e6f)" style="fill: #e5edb0"/>
   </g>
   <g id="patch_14">
    <path d="M 54 246.171789 
L 108.823441 246.171789 
L 108.823441 260.177684 
L 54 260.177684 
z
" clip-path="url(#p870e111e6f)" style="fill: #d2e398"/>
   </g>
   <g id="patch_15">
    <path d="M 54 263.679158 
L 126.28501 263.679158 
L 126.28501 277.685053 
L 54 277.685053 
z
" clip-path="url(#p870e111e6f)" style="fill: #bbd787"/>
   </g>
   <g id="patch_16">
    <path d="M 54 281.186526 
L 282.065282 281.186526 
L 282.065282 295.192421 
L 54 295.192421 
z
" clip-path="url(#p870e111e6f)" style="fill: #a4cb78"/>
   </g>
   <g id="patch_17">
    <path d="M 54 298.693895 
L 146.978132 298.693895 
L 146.978132 312.699789 
L 54 312.699789 
z
" clip-path="url(#p870e111e6f)" style="fill: #89be73"/>
   </g>
   <g id="patch_18">
    <path d="M 54 316.201263 
L 244.721847 316.201263 
L 244.721847 330.207158 
L 54 330.207158 
z
" clip-path="url(#p870e111e6f)" style="fill: #70b26e"/>
   </g>
   <g id="patch_19">
    <path d="M 54 333.708632 
L 252.836599 333.708632 
L 252.836599 347.714526 
L 54 347.714526 
z
" clip-path="url(#p870e111e6f)" style="fill: #4d9d60"/>
   </g>
   <g id="patch_20">
    <path d="M 54 351.216 
L 176.710493 351.216 
L 176.710493 365.221895 
L 54 365.221895 
z
" clip-path="url(#p870e111e6f)" style="fill: #298752"/>
   </g>
   <g id="patch_21">
    <path d="M 54 368.723368 
L 161.068684 368.723368 
L 161.068684 382.729263 
L 54 382.729263 
z
" clip-path="url(#p870e111e6f)" style="fill: #1b7043"/>
   </g>
   <g id="matplotlib.axis_1">
    <g id="xtick_1">
     <g id="line2d_1">
      <defs>
       <path id="m2fa6d50a6f" d="M 0 0 
L 0 3.5 
" style="stroke: #000000; stroke-width: 0.8"/>
      </defs>
      <g>
       <use xlink:href="#m2fa6d50a6f" x="54" y="384.48" style="stroke: #000000; stroke-width: 0.8"/>
      </g>
     </g>
     <g id="text_1">
      <!-- 0 -->
      <g transform="translate(51.954365 400.796299)rotate(-20)scale(0.1 -0.1)">
       <defs>
        <path id="DejaVuSans-30" d="M 2034 4250 
Q 1547 4250 1301 3770 
Q 1056 3291 1056 2328 
Q 1056 1369 1301 889 
Q 1547 409 2034 409 
Q 2525 409 2770 889 
Q 3016 1369 3016 2328 
Q 3016 3291 2770 3770 
Q 2525 4250 2034 4250 
z
M 2034 4750 
Q 2819 4750 3233 4129 
Q 3647 3509 3647 2328 
Q 3647 1150 3233 529 
Q 2819 -91 2034 -91 
Q 1250 -91 836 529 
Q 422 1150 422 2328 
Q 422 3509 836 4129 
Q 1250 4750 2034 4750 
z
" transform="scale(0.015625)"/>
       </defs>
       <use xlink:href="#DejaVuSans-30"/>
      </g>
     </g>
    </g>
    <g id="xtick_2">
     <g id="line2d_2">
      <g>
       <use xlink:href="#m2fa6d50a6f" x="120.464514" y="384.48" style="stroke: #000000; stroke-width: 0.8"/>
      </g>
     </g>
     <g id="text_2">
      <!-- 1 -->
      <g transform="translate(118.418878 400.796299)rotate(-20)scale(0.1 -0.1)">
       <defs>
        <path id="DejaVuSans-31" d="M 794 531 
L 1825 531 
L 1825 4091 
L 703 3866 
L 703 4441 
L 1819 4666 
L 2450 4666 
L 2450 531 
L 3481 531 
L 3481 0 
L 794 0 
L 794 531 
z
" transform="scale(0.015625)"/>
       </defs>
       <use xlink:href="#DejaVuSans-31"/>
      </g>
     </g>
    </g>
    <g id="xtick_3">
     <g id="line2d_3">
      <g>
       <use xlink:href="#m2fa6d50a6f" x="186.929027" y="384.48" style="stroke: #000000; stroke-width: 0.8"/>
      </g>
     </g>
     <g id="text_3">
      <!-- 2 -->
      <g transform="translate(184.883392 400.796299)rotate(-20)scale(0.1 -0.1)">
       <defs>
        <path id="DejaVuSans-32" d="M 1228 531 
L 3431 531 
L 3431 0 
L 469 0 
L 469 531 
Q 828 903 1448 1529 
Q 2069 2156 2228 2338 
Q 2531 2678 2651 2914 
Q 2772 3150 2772 3378 
Q 2772 3750 2511 3984 
Q 2250 4219 1831 4219 
Q 1534 4219 1204 4116 
Q 875 4013 500 3803 
L 500 4441 
Q 881 4594 1212 4672 
Q 1544 4750 1819 4750 
Q 2544 4750 2975 4387 
Q 3406 4025 3406 3419 
Q 3406 3131 3298 2873 
Q 3191 2616 2906 2266 
Q 2828 2175 2409 1742 
Q 1991 1309 1228 531 
z
" transform="scale(0.015625)"/>
       </defs>
       <use xlink:href="#DejaVuSans-32"/>
      </g>
     </g>
    </g>
    <g id="xtick_4">
     <g id="line2d_4">
      <g>
       <use xlink:href="#m2fa6d50a6f" x="253.393541" y="384.48" style="stroke: #000000; stroke-width: 0.8"/>
      </g>
     </g>
     <g id="text_4">
      <!-- 3 -->
      <g transform="translate(251.347905 400.796299)rotate(-20)scale(0.1 -0.1)">
       <defs>
        <path id="DejaVuSans-33" d="M 2597 2516 
Q 3050 2419 3304 2112 
Q 3559 1806 3559 1356 
Q 3559 666 3084 287 
Q 2609 -91 1734 -91 
Q 1441 -91 1130 -33 
Q 819 25 488 141 
L 488 750 
Q 750 597 1062 519 
Q 1375 441 1716 441 
Q 2309 441 2620 675 
Q 2931 909 2931 1356 
Q 2931 1769 2642 2001 
Q 2353 2234 1838 2234 
L 1294 2234 
L 1294 2753 
L 1863 2753 
Q 2328 2753 2575 2939 
Q 2822 3125 2822 3475 
Q 2822 3834 2567 4026 
Q 2313 4219 1838 4219 
Q 1578 4219 1281 4162 
Q 984 4106 628 3988 
L 628 4550 
Q 988 4650 1302 4700 
Q 1616 4750 1894 4750 
Q 2613 4750 3031 4423 
Q 3450 4097 3450 3541 
Q 3450 3153 3228 2886 
Q 3006 2619 2597 2516 
z
" transform="scale(0.015625)"/>
       </defs>
       <use xlink:href="#DejaVuSans-33"/>
      </g>
     </g>
    </g>
    <g id="xtick_5">
     <g id="line2d_5">
      <g>
       <use xlink:href="#m2fa6d50a6f" x="319.858054" y="384.48" style="stroke: #000000; stroke-width: 0.8"/>
      </g>
     </g>
     <g id="text_5">
      <!-- 4 -->
      <g transform="translate(317.812419 400.796299)rotate(-20)scale(0.1 -0.1)">
       <defs>
        <path id="DejaVuSans-34" d="M 2419 4116 
L 825 1625 
L 2419 1625 
L 2419 4116 
z
M 2253 4666 
L 3047 4666 
L 3047 1625 
L 3713 1625 
L 3713 1100 
L 3047 1100 
L 3047 0 
L 2419 0 
L 2419 1100 
L 313 1100 
L 313 1709 
L 2253 4666 
z
" transform="scale(0.015625)"/>
       </defs>
       <use xlink:href="#DejaVuSans-34"/>
      </g>
     </g>
    </g>
    <g id="xtick_6">
     <g id="line2d_6">
      <g>
       <use xlink:href="#m2fa6d50a6f" x="386.322568" y="384.48" style="stroke: #000000; stroke-width: 0.8"/>
      </g>
     </g>
     <g id="text_6">
      <!-- 5 -->
      <g transform="translate(384.276932 400.796299)rotate(-20)scale(0.1 -0.1)">
       <defs>
        <path id="DejaVuSans-35" d="M 691 4666 
L 3169 4666 
L 3169 4134 
L 1269 4134 
L 1269 2991 
Q 1406 3038 1543 3061 
Q 1681 3084 1819 3084 
Q 2600 3084 3056 2656 
Q 3513 2228 3513 1497 
Q 3513 744 3044 326 
Q 2575 -91 1722 -91 
Q 1428 -91 1123 -41 
Q 819 9 494 109 
L 494 744 
Q 775 591 1075 516 
Q 1375 441 1709 441 
Q 2250 441 2565 725 
Q 2881 1009 2881 1497 
Q 2881 1984 2565 2268 
Q 2250 2553 1709 2553 
Q 1456 2553 1204 2497 
Q 953 2441 691 2322 
L 691 4666 
z
" transform="scale(0.015625)"/>
       </defs>
       <use xlink:href="#DejaVuSans-35"/>
      </g>
     </g>
    </g>
    <g id="text_7">
     <!-- ﻦﯿﮕﻧﺎﯿﻣ ﺯﺎﯿﺘﻣﺍ -->
     <g transform="translate(187.34625 422.383066)scale(0.16 -0.16)">
      <defs>
       <path id="BNazanin-fee6" d="M 4041 3 
L 3841 3 
Q 3547 3 3453 59 
Q 3475 -103 3475 -275 
Q 3475 -550 3413 -728 
Q 3256 -1175 2709 -1422 
Q 2253 -1628 1716 -1628 
Q 1191 -1628 853 -1369 
Q 484 -1081 484 -569 
Q 484 -297 619 13 
Q 716 234 819 359 
Q 869 419 909 419 
Q 947 419 947 375 
Q 947 347 928 309 
Q 750 -56 750 -359 
Q 750 -656 947 -872 
Q 1206 -1156 1731 -1156 
Q 2325 -1156 2781 -944 
Q 3156 -769 3250 -563 
Q 3281 -497 3259 -297 
Q 3241 -103 3200 0 
Q 3122 200 2809 594 
L 2988 925 
Q 3025 997 3044 997 
Q 3063 997 3100 938 
Q 3406 466 3731 466 
L 4041 466 
L 4041 3 
z
M 2275 1791 
L 1950 1466 
L 1622 1794 
L 1947 2119 
L 2275 1791 
z
" transform="scale(0.015625)"/>
       <path id="BNazanin-fbff" d="M 2050 3 
L 1744 3 
Q 1191 3 1003 366 
Q 797 3 178 3 
L -81 3 
L -81 466 
L 275 466 
Q 859 466 913 919 
Q 934 1100 1003 1100 
Q 1072 1100 1091 913 
Q 1131 466 1697 466 
L 2050 466 
L 2050 3 
z
M 1419 -878 
L 1109 -1188 
L 797 -875 
L 1106 -566 
L 1419 -878 
z
M 731 -878 
L 425 -1188 
L 113 -875 
L 422 -566 
L 731 -878 
z
" transform="scale(0.015625)"/>
       <path id="BNazanin-fb95" d="M 2378 3853 
L 2297 3556 
L 338 2928 
L 422 3219 
L 2378 3853 
z
M 2788 3 
L 2556 3 
Q 2241 3 1922 284 
Q 1700 481 1394 909 
Q 1341 3 144 3 
L -81 3 
L -81 466 
L 81 466 
Q 1191 466 1191 913 
Q 1191 1253 666 1747 
Q 441 1959 141 2169 
Q 141 2425 266 2553 
Q 316 2603 2466 3256 
Q 2459 3178 2334 2825 
Q 1809 2688 559 2291 
Q 1184 1641 1650 1100 
Q 1922 784 2072 669 
Q 2334 466 2625 466 
L 2788 466 
L 2788 3 
z
" transform="scale(0.015625)"/>
       <path id="BNazanin-fee7" d="M 1038 797 
Q 1038 3 247 3 
L -81 3 
L -81 466 
L 191 466 
Q 788 466 788 681 
Q 788 831 516 1178 
L 678 1572 
Q 703 1631 719 1631 
Q 734 1631 784 1559 
Q 1038 1188 1038 797 
z
M 1006 2619 
L 681 2294 
L 356 2622 
L 681 2947 
L 1006 2619 
z
" transform="scale(0.015625)"/>
       <path id="BNazanin-fe8e" d="M 1584 3 
L 1313 3 
Q 866 3 694 369 
Q 572 625 575 1134 
L 578 1897 
Q 581 2450 484 3453 
L 731 3716 
Q 800 3788 813 3706 
Q 897 3184 897 2128 
L 897 963 
Q 897 466 1375 466 
L 1584 466 
L 1584 3 
z
" transform="scale(0.015625)"/>
       <path id="BNazanin-fee3" d="M 2066 797 
Q 2091 500 1997 297 
Q 1853 -13 1678 -13 
Q 1359 -13 772 397 
Q 591 181 519 125 
Q 363 3 134 3 
L -81 3 
L -81 466 
L 203 466 
Q 472 466 675 741 
Q 775 884 1034 1250 
Q 1231 1525 1438 1525 
Q 1728 1525 1913 1231 
Q 2047 1016 2066 797 
z
M 1828 503 
Q 1828 678 1697 884 
Q 1550 1116 1375 1116 
Q 1197 1116 956 750 
Q 1056 641 1322 520 
Q 1588 400 1734 400 
Q 1828 400 1828 503 
z
" transform="scale(0.015625)"/>
       <path id="BNazanin-20" transform="scale(0.015625)"/>
       <path id="BNazanin-feaf" d="M 2016 -34 
Q 2016 -619 1644 -1138 
Q 1325 -1581 1113 -1581 
Q 656 -1581 325 -1534 
Q 216 -1519 216 -1481 
Q 216 -1444 328 -1422 
Q 797 -1325 1272 -925 
Q 1778 -497 1778 -103 
Q 1778 159 1359 566 
L 1541 944 
Q 1566 994 1578 997 
Q 1597 991 1631 947 
Q 1775 772 1891 481 
Q 2016 175 2016 -34 
z
M 1722 2113 
L 1397 1788 
L 1072 2116 
L 1397 2438 
L 1722 2113 
z
" transform="scale(0.015625)"/>
       <path id="BNazanin-fe98" d="M 2050 3 
L 1744 3 
Q 1191 3 1003 366 
Q 797 3 178 3 
L -81 3 
L -81 466 
L 275 466 
Q 859 466 913 919 
Q 934 1100 1003 1100 
Q 1072 1100 1091 913 
Q 1131 466 1697 466 
L 2050 466 
L 2050 3 
z
M 1378 2325 
L 1072 2019 
L 759 2328 
L 1069 2638 
L 1378 2325 
z
M 694 2325 
L 384 2019 
L 75 2328 
L 381 2638 
L 694 2325 
z
" transform="scale(0.015625)"/>
       <path id="BNazanin-fe8d" d="M 934 497 
Q 934 253 834 50 
Q 775 -72 753 -72 
Q 728 -72 728 81 
Q 728 775 484 3469 
L 816 3778 
Q 859 3819 875 3822 
Q 891 3822 894 3753 
Q 934 2963 934 497 
z
" transform="scale(0.015625)"/>
      </defs>
      <use xlink:href="#BNazanin-fee6"/>
      <use xlink:href="#BNazanin-fbff" x="61.816406"/>
      <use xlink:href="#BNazanin-fb95" x="92.578125"/>
      <use xlink:href="#BNazanin-fee7" x="134.863281"/>
      <use xlink:href="#BNazanin-fe8e" x="151.123047"/>
      <use xlink:href="#BNazanin-fbff" x="174.560547"/>
      <use xlink:href="#BNazanin-fee3" x="205.322266"/>
      <use xlink:href="#BNazanin-20" x="237.646484"/>
      <use xlink:href="#BNazanin-feaf" x="262.060547"/>
      <use xlink:href="#BNazanin-fe8e" x="293.652344"/>
      <use xlink:href="#BNazanin-fbff" x="317.089844"/>
      <use xlink:href="#BNazanin-fe98" x="347.851562"/>
      <use xlink:href="#BNazanin-fee3" x="378.613281"/>
      <use xlink:href="#BNazanin-fe8d" x="410.9375"/>
     </g>
    </g>
   </g>
   <g id="matplotlib.axis_2">
    <g id="ytick_1">
     <g id="line2d_7">
      <defs>
       <path id="me7b2db2c6f" d="M 0 0 
L -3.5 0 
" style="stroke: #000000; stroke-width: 0.8"/>
      </defs>
      <g>
       <use xlink:href="#me7b2db2c6f" x="54" y="60.593684" style="stroke: #000000; stroke-width: 0.8"/>
      </g>
     </g>
     <g id="text_8">
      <!-- ch0 -->
      <g transform="translate(28.801562 64.392903)scale(0.1 -0.1)">
       <defs>
        <path id="DejaVuSans-63" d="M 3122 3366 
L 3122 2828 
Q 2878 2963 2633 3030 
Q 2388 3097 2138 3097 
Q 1578 3097 1268 2742 
Q 959 2388 959 1747 
Q 959 1106 1268 751 
Q 1578 397 2138 397 
Q 2388 397 2633 464 
Q 2878 531 3122 666 
L 3122 134 
Q 2881 22 2623 -34 
Q 2366 -91 2075 -91 
Q 1284 -91 818 406 
Q 353 903 353 1747 
Q 353 2603 823 3093 
Q 1294 3584 2113 3584 
Q 2378 3584 2631 3529 
Q 2884 3475 3122 3366 
z
" transform="scale(0.015625)"/>
        <path id="DejaVuSans-68" d="M 3513 2113 
L 3513 0 
L 2938 0 
L 2938 2094 
Q 2938 2591 2744 2837 
Q 2550 3084 2163 3084 
Q 1697 3084 1428 2787 
Q 1159 2491 1159 1978 
L 1159 0 
L 581 0 
L 581 4863 
L 1159 4863 
L 1159 2956 
Q 1366 3272 1645 3428 
Q 1925 3584 2291 3584 
Q 2894 3584 3203 3211 
Q 3513 2838 3513 2113 
z
" transform="scale(0.015625)"/>
       </defs>
       <use xlink:href="#DejaVuSans-63"/>
       <use xlink:href="#DejaVuSans-68" x="54.980469"/>
       <use xlink:href="#DejaVuSans-30" x="118.359375"/>
      </g>
     </g>
    </g>
    <g id="ytick_2">
     <g id="line2d_8">
      <g>
       <use xlink:href="#me7b2db2c6f" x="54" y="78.101053" style="stroke: #000000; stroke-width: 0.8"/>
      </g>
     </g>
     <g id="text_9">
      <!-- ch1 -->
      <g transform="translate(28.801562 81.900271)scale(0.1 -0.1)">
       <use xlink:href="#DejaVuSans-63"/>
       <use xlink:href="#DejaVuSans-68" x="54.980469"/>
       <use xlink:href="#DejaVuSans-31" x="118.359375"/>
      </g>
     </g>
    </g>
    <g id="ytick_3">
     <g id="line2d_9">
      <g>
       <use xlink:href="#me7b2db2c6f" x="54" y="95.608421" style="stroke: #000000; stroke-width: 0.8"/>
      </g>
     </g>
     <g id="text_10">
      <!-- ch2 -->
      <g transform="translate(28.801562 99.40764)scale(0.1 -0.1)">
       <use xlink:href="#DejaVuSans-63"/>
       <use xlink:href="#DejaVuSans-68" x="54.980469"/>
       <use xlink:href="#DejaVuSans-32" x="118.359375"/>
      </g>
     </g>
    </g>
    <g id="ytick_4">
     <g id="line2d_10">
      <g>
       <use xlink:href="#me7b2db2c6f" x="54" y="113.115789" style="stroke: #000000; stroke-width: 0.8"/>
      </g>
     </g>
     <g id="text_11">
      <!-- ch3 -->
      <g transform="translate(28.801562 116.915008)scale(0.1 -0.1)">
       <use xlink:href="#DejaVuSans-63"/>
       <use xlink:href="#DejaVuSans-68" x="54.980469"/>
       <use xlink:href="#DejaVuSans-33" x="118.359375"/>
      </g>
     </g>
    </g>
    <g id="ytick_5">
     <g id="line2d_11">
      <g>
       <use xlink:href="#me7b2db2c6f" x="54" y="130.623158" style="stroke: #000000; stroke-width: 0.8"/>
      </g>
     </g>
     <g id="text_12">
      <!-- ch4 -->
      <g transform="translate(28.801562 134.422377)scale(0.1 -0.1)">
       <use xlink:href="#DejaVuSans-63"/>
       <use xlink:href="#DejaVuSans-68" x="54.980469"/>
       <use xlink:href="#DejaVuSans-34" x="118.359375"/>
      </g>
     </g>
    </g>
    <g id="ytick_6">
     <g id="line2d_12">
      <g>
       <use xlink:href="#me7b2db2c6f" x="54" y="148.130526" style="stroke: #000000; stroke-width: 0.8"/>
      </g>
     </g>
     <g id="text_13">
      <!-- ch5 -->
      <g transform="translate(28.801562 151.929745)scale(0.1 -0.1)">
       <use xlink:href="#DejaVuSans-63"/>
       <use xlink:href="#DejaVuSans-68" x="54.980469"/>
       <use xlink:href="#DejaVuSans-35" x="118.359375"/>
      </g>
     </g>
    </g>
    <g id="ytick_7">
     <g id="line2d_13">
      <g>
       <use xlink:href="#me7b2db2c6f" x="54" y="165.637895" style="stroke: #000000; stroke-width: 0.8"/>
      </g>
     </g>
     <g id="text_14">
      <!-- ch6 -->
      <g transform="translate(28.801562 169.437113)scale(0.1 -0.1)">
       <defs>
        <path id="DejaVuSans-36" d="M 2113 2584 
Q 1688 2584 1439 2293 
Q 1191 2003 1191 1497 
Q 1191 994 1439 701 
Q 1688 409 2113 409 
Q 2538 409 2786 701 
Q 3034 994 3034 1497 
Q 3034 2003 2786 2293 
Q 2538 2584 2113 2584 
z
M 3366 4563 
L 3366 3988 
Q 3128 4100 2886 4159 
Q 2644 4219 2406 4219 
Q 1781 4219 1451 3797 
Q 1122 3375 1075 2522 
Q 1259 2794 1537 2939 
Q 1816 3084 2150 3084 
Q 2853 3084 3261 2657 
Q 3669 2231 3669 1497 
Q 3669 778 3244 343 
Q 2819 -91 2113 -91 
Q 1303 -91 875 529 
Q 447 1150 447 2328 
Q 447 3434 972 4092 
Q 1497 4750 2381 4750 
Q 2619 4750 2861 4703 
Q 3103 4656 3366 4563 
z
" transform="scale(0.015625)"/>
       </defs>
       <use xlink:href="#DejaVuSans-63"/>
       <use xlink:href="#DejaVuSans-68" x="54.980469"/>
       <use xlink:href="#DejaVuSans-36" x="118.359375"/>
      </g>
     </g>
    </g>
    <g id="ytick_8">
     <g id="line2d_14">
      <g>
       <use xlink:href="#me7b2db2c6f" x="54" y="183.145263" style="stroke: #000000; stroke-width: 0.8"/>
      </g>
     </g>
     <g id="text_15">
      <!-- ch7 -->
      <g transform="translate(28.801562 186.944482)scale(0.1 -0.1)">
       <defs>
        <path id="DejaVuSans-37" d="M 525 4666 
L 3525 4666 
L 3525 4397 
L 1831 0 
L 1172 0 
L 2766 4134 
L 525 4134 
L 525 4666 
z
" transform="scale(0.015625)"/>
       </defs>
       <use xlink:href="#DejaVuSans-63"/>
       <use xlink:href="#DejaVuSans-68" x="54.980469"/>
       <use xlink:href="#DejaVuSans-37" x="118.359375"/>
      </g>
     </g>
    </g>
    <g id="ytick_9">
     <g id="line2d_15">
      <g>
       <use xlink:href="#me7b2db2c6f" x="54" y="200.652632" style="stroke: #000000; stroke-width: 0.8"/>
      </g>
     </g>
     <g id="text_16">
      <!-- ch8 -->
      <g transform="translate(28.801562 204.45185)scale(0.1 -0.1)">
       <defs>
        <path id="DejaVuSans-38" d="M 2034 2216 
Q 1584 2216 1326 1975 
Q 1069 1734 1069 1313 
Q 1069 891 1326 650 
Q 1584 409 2034 409 
Q 2484 409 2743 651 
Q 3003 894 3003 1313 
Q 3003 1734 2745 1975 
Q 2488 2216 2034 2216 
z
M 1403 2484 
Q 997 2584 770 2862 
Q 544 3141 544 3541 
Q 544 4100 942 4425 
Q 1341 4750 2034 4750 
Q 2731 4750 3128 4425 
Q 3525 4100 3525 3541 
Q 3525 3141 3298 2862 
Q 3072 2584 2669 2484 
Q 3125 2378 3379 2068 
Q 3634 1759 3634 1313 
Q 3634 634 3220 271 
Q 2806 -91 2034 -91 
Q 1263 -91 848 271 
Q 434 634 434 1313 
Q 434 1759 690 2068 
Q 947 2378 1403 2484 
z
M 1172 3481 
Q 1172 3119 1398 2916 
Q 1625 2713 2034 2713 
Q 2441 2713 2670 2916 
Q 2900 3119 2900 3481 
Q 2900 3844 2670 4047 
Q 2441 4250 2034 4250 
Q 1625 4250 1398 4047 
Q 1172 3844 1172 3481 
z
" transform="scale(0.015625)"/>
       </defs>
       <use xlink:href="#DejaVuSans-63"/>
       <use xlink:href="#DejaVuSans-68" x="54.980469"/>
       <use xlink:href="#DejaVuSans-38" x="118.359375"/>
      </g>
     </g>
    </g>
    <g id="ytick_10">
     <g id="line2d_16">
      <g>
       <use xlink:href="#me7b2db2c6f" x="54" y="218.16" style="stroke: #000000; stroke-width: 0.8"/>
      </g>
     </g>
     <g id="text_17">
      <!-- ch9 -->
      <g transform="translate(28.801562 221.959219)scale(0.1 -0.1)">
       <defs>
        <path id="DejaVuSans-39" d="M 703 97 
L 703 672 
Q 941 559 1184 500 
Q 1428 441 1663 441 
Q 2288 441 2617 861 
Q 2947 1281 2994 2138 
Q 2813 1869 2534 1725 
Q 2256 1581 1919 1581 
Q 1219 1581 811 2004 
Q 403 2428 403 3163 
Q 403 3881 828 4315 
Q 1253 4750 1959 4750 
Q 2769 4750 3195 4129 
Q 3622 3509 3622 2328 
Q 3622 1225 3098 567 
Q 2575 -91 1691 -91 
Q 1453 -91 1209 -44 
Q 966 3 703 97 
z
M 1959 2075 
Q 2384 2075 2632 2365 
Q 2881 2656 2881 3163 
Q 2881 3666 2632 3958 
Q 2384 4250 1959 4250 
Q 1534 4250 1286 3958 
Q 1038 3666 1038 3163 
Q 1038 2656 1286 2365 
Q 1534 2075 1959 2075 
z
" transform="scale(0.015625)"/>
       </defs>
       <use xlink:href="#DejaVuSans-63"/>
       <use xlink:href="#DejaVuSans-68" x="54.980469"/>
       <use xlink:href="#DejaVuSans-39" x="118.359375"/>
      </g>
     </g>
    </g>
    <g id="ytick_11">
     <g id="line2d_17">
      <g>
       <use xlink:href="#me7b2db2c6f" x="54" y="235.667368" style="stroke: #000000; stroke-width: 0.8"/>
      </g>
     </g>
     <g id="text_18">
      <!-- ch10 -->
      <g transform="translate(22.439062 239.466587)scale(0.1 -0.1)">
       <use xlink:href="#DejaVuSans-63"/>
       <use xlink:href="#DejaVuSans-68" x="54.980469"/>
       <use xlink:href="#DejaVuSans-31" x="118.359375"/>
       <use xlink:href="#DejaVuSans-30" x="181.982422"/>
      </g>
     </g>
    </g>
    <g id="ytick_12">
     <g id="line2d_18">
      <g>
       <use xlink:href="#me7b2db2c6f" x="54" y="253.174737" style="stroke: #000000; stroke-width: 0.8"/>
      </g>
     </g>
     <g id="text_19">
      <!-- ch11 -->
      <g transform="translate(22.439062 256.973956)scale(0.1 -0.1)">
       <use xlink:href="#DejaVuSans-63"/>
       <use xlink:href="#DejaVuSans-68" x="54.980469"/>
       <use xlink:href="#DejaVuSans-31" x="118.359375"/>
       <use xlink:href="#DejaVuSans-31" x="181.982422"/>
      </g>
     </g>
    </g>
    <g id="ytick_13">
     <g id="line2d_19">
      <g>
       <use xlink:href="#me7b2db2c6f" x="54" y="270.682105" style="stroke: #000000; stroke-width: 0.8"/>
      </g>
     </g>
     <g id="text_20">
      <!-- ch12 -->
      <g transform="translate(22.439062 274.481324)scale(0.1 -0.1)">
       <use xlink:href="#DejaVuSans-63"/>
       <use xlink:href="#DejaVuSans-68" x="54.980469"/>
       <use xlink:href="#DejaVuSans-31" x="118.359375"/>
       <use xlink:href="#DejaVuSans-32" x="181.982422"/>
      </g>
     </g>
    </g>
    <g id="ytick_14">
     <g id="line2d_20">
      <g>
       <use xlink:href="#me7b2db2c6f" x="54" y="288.189474" style="stroke: #000000; stroke-width: 0.8"/>
      </g>
     </g>
     <g id="text_21">
      <!-- ch13 -->
      <g transform="translate(22.439062 291.988692)scale(0.1 -0.1)">
       <use xlink:href="#DejaVuSans-63"/>
       <use xlink:href="#DejaVuSans-68" x="54.980469"/>
       <use xlink:href="#DejaVuSans-31" x="118.359375"/>
       <use xlink:href="#DejaVuSans-33" x="181.982422"/>
      </g>
     </g>
    </g>
    <g id="ytick_15">
     <g id="line2d_21">
      <g>
       <use xlink:href="#me7b2db2c6f" x="54" y="305.696842" style="stroke: #000000; stroke-width: 0.8"/>
      </g>
     </g>
     <g id="text_22">
      <!-- ch14 -->
      <g transform="translate(22.439062 309.496061)scale(0.1 -0.1)">
       <use xlink:href="#DejaVuSans-63"/>
       <use xlink:href="#DejaVuSans-68" x="54.980469"/>
       <use xlink:href="#DejaVuSans-31" x="118.359375"/>
       <use xlink:href="#DejaVuSans-34" x="181.982422"/>
      </g>
     </g>
    </g>
    <g id="ytick_16">
     <g id="line2d_22">
      <g>
       <use xlink:href="#me7b2db2c6f" x="54" y="323.204211" style="stroke: #000000; stroke-width: 0.8"/>
      </g>
     </g>
     <g id="text_23">
      <!-- ch15 -->
      <g transform="translate(22.439062 327.003429)scale(0.1 -0.1)">
       <use xlink:href="#DejaVuSans-63"/>
       <use xlink:href="#DejaVuSans-68" x="54.980469"/>
       <use xlink:href="#DejaVuSans-31" x="118.359375"/>
       <use xlink:href="#DejaVuSans-35" x="181.982422"/>
      </g>
     </g>
    </g>
    <g id="ytick_17">
     <g id="line2d_23">
      <g>
       <use xlink:href="#me7b2db2c6f" x="54" y="340.711579" style="stroke: #000000; stroke-width: 0.8"/>
      </g>
     </g>
     <g id="text_24">
      <!-- ch16 -->
      <g transform="translate(22.439062 344.510798)scale(0.1 -0.1)">
       <use xlink:href="#DejaVuSans-63"/>
       <use xlink:href="#DejaVuSans-68" x="54.980469"/>
       <use xlink:href="#DejaVuSans-31" x="118.359375"/>
       <use xlink:href="#DejaVuSans-36" x="181.982422"/>
      </g>
     </g>
    </g>
    <g id="ytick_18">
     <g id="line2d_24">
      <g>
       <use xlink:href="#me7b2db2c6f" x="54" y="358.218947" style="stroke: #000000; stroke-width: 0.8"/>
      </g>
     </g>
     <g id="text_25">
      <!-- ch17 -->
      <g transform="translate(22.439062 362.018166)scale(0.1 -0.1)">
       <use xlink:href="#DejaVuSans-63"/>
       <use xlink:href="#DejaVuSans-68" x="54.980469"/>
       <use xlink:href="#DejaVuSans-31" x="118.359375"/>
       <use xlink:href="#DejaVuSans-37" x="181.982422"/>
      </g>
     </g>
    </g>
    <g id="ytick_19">
     <g id="line2d_25">
      <g>
       <use xlink:href="#me7b2db2c6f" x="54" y="375.726316" style="stroke: #000000; stroke-width: 0.8"/>
      </g>
     </g>
     <g id="text_26">
      <!-- ch18 -->
      <g transform="translate(22.439062 379.525535)scale(0.1 -0.1)">
       <use xlink:href="#DejaVuSans-63"/>
       <use xlink:href="#DejaVuSans-68" x="54.980469"/>
       <use xlink:href="#DejaVuSans-31" x="118.359375"/>
       <use xlink:href="#DejaVuSans-38" x="181.982422"/>
      </g>
     </g>
    </g>
   </g>
   <g id="line2d_26">
    <path clip-path="url(#p870e111e6f)" style="fill: none; stroke: #424242; stroke-width: 2.7; stroke-linecap: square"/>
   </g>
   <g id="line2d_27">
    <path clip-path="url(#p870e111e6f)" style="fill: none; stroke: #424242; stroke-width: 2.7; stroke-linecap: square"/>
   </g>
   <g id="line2d_28">
    <path clip-path="url(#p870e111e6f)" style="fill: none; stroke: #424242; stroke-width: 2.7; stroke-linecap: square"/>
   </g>
   <g id="line2d_29">
    <path clip-path="url(#p870e111e6f)" style="fill: none; stroke: #424242; stroke-width: 2.7; stroke-linecap: square"/>
   </g>
   <g id="line2d_30">
    <path clip-path="url(#p870e111e6f)" style="fill: none; stroke: #424242; stroke-width: 2.7; stroke-linecap: square"/>
   </g>
   <g id="line2d_31">
    <path clip-path="url(#p870e111e6f)" style="fill: none; stroke: #424242; stroke-width: 2.7; stroke-linecap: square"/>
   </g>
   <g id="line2d_32">
    <path clip-path="url(#p870e111e6f)" style="fill: none; stroke: #424242; stroke-width: 2.7; stroke-linecap: square"/>
   </g>
   <g id="line2d_33">
    <path clip-path="url(#p870e111e6f)" style="fill: none; stroke: #424242; stroke-width: 2.7; stroke-linecap: square"/>
   </g>
   <g id="line2d_34">
    <path clip-path="url(#p870e111e6f)" style="fill: none; stroke: #424242; stroke-width: 2.7; stroke-linecap: square"/>
   </g>
   <g id="line2d_35">
    <path clip-path="url(#p870e111e6f)" style="fill: none; stroke: #424242; stroke-width: 2.7; stroke-linecap: square"/>
   </g>
   <g id="line2d_36">
    <path clip-path="url(#p870e111e6f)" style="fill: none; stroke: #424242; stroke-width: 2.7; stroke-linecap: square"/>
   </g>
   <g id="line2d_37">
    <path clip-path="url(#p870e111e6f)" style="fill: none; stroke: #424242; stroke-width: 2.7; stroke-linecap: square"/>
   </g>
   <g id="line2d_38">
    <path clip-path="url(#p870e111e6f)" style="fill: none; stroke: #424242; stroke-width: 2.7; stroke-linecap: square"/>
   </g>
   <g id="line2d_39">
    <path clip-path="url(#p870e111e6f)" style="fill: none; stroke: #424242; stroke-width: 2.7; stroke-linecap: square"/>
   </g>
   <g id="line2d_40">
    <path clip-path="url(#p870e111e6f)" style="fill: none; stroke: #424242; stroke-width: 2.7; stroke-linecap: square"/>
   </g>
   <g id="line2d_41">
    <path clip-path="url(#p870e111e6f)" style="fill: none; stroke: #424242; stroke-width: 2.7; stroke-linecap: square"/>
   </g>
   <g id="line2d_42">
    <path clip-path="url(#p870e111e6f)" style="fill: none; stroke: #424242; stroke-width: 2.7; stroke-linecap: square"/>
   </g>
   <g id="line2d_43">
    <path clip-path="url(#p870e111e6f)" style="fill: none; stroke: #424242; stroke-width: 2.7; stroke-linecap: square"/>
   </g>
   <g id="line2d_44">
    <path clip-path="url(#p870e111e6f)" style="fill: none; stroke: #424242; stroke-width: 2.7; stroke-linecap: square"/>
   </g>
   <g id="patch_22">
    <path d="M 54 384.48 
L 54 51.84 
" style="fill: none; stroke: #000000; stroke-width: 0.8; stroke-linejoin: miter; stroke-linecap: square"/>
   </g>
   <g id="patch_23">
    <path d="M 388.8 384.48 
L 388.8 51.84 
" style="fill: none; stroke: #000000; stroke-width: 0.8; stroke-linejoin: miter; stroke-linecap: square"/>
   </g>
   <g id="patch_24">
    <path d="M 54 384.48 
L 388.8 384.48 
" style="fill: none; stroke: #000000; stroke-width: 0.8; stroke-linejoin: miter; stroke-linecap: square"/>
   </g>
   <g id="patch_25">
    <path d="M 54 51.84 
L 388.8 51.84 
" style="fill: none; stroke: #000000; stroke-width: 0.8; stroke-linejoin: miter; stroke-linecap: square"/>
   </g>
   <g id="text_27">
    <!-- ﻑﺍ ﻥﻮﻣﺯﺁ ،ﯽﮔﮋﯾﻭ ﻥﺍﻮﻨﻋ ﻪﺑﺎﻫﻝﺎﻧﺎﮐ -->
    <g transform="translate(139.83625 45.84)scale(0.16 -0.16)">
     <defs>
      <path id="BNazanin-fed1" d="M 4303 1134 
L 4303 1063 
Q 4303 641 4172 441 
Q 3850 -53 1950 -53 
Q 491 -53 484 766 
Q 481 1163 703 1491 
Q 750 1559 791 1559 
Q 822 1559 825 1500 
Q 816 1469 753 1234 
Q 728 1138 728 1028 
Q 728 616 1291 478 
Q 1572 409 2172 409 
Q 3897 409 4084 759 
Q 4113 813 4116 906 
Q 4119 984 4100 1034 
Q 3788 981 3547 981 
Q 2988 981 2984 1447 
Q 2981 1772 3134 2078 
Q 3322 2450 3616 2450 
Q 3881 2450 4078 2116 
Q 4303 1734 4303 1134 
z
M 3997 1481 
Q 3997 1672 3865 1828 
Q 3734 1984 3547 1984 
Q 3238 1984 3231 1684 
Q 3228 1434 3616 1428 
Q 3775 1425 3997 1481 
z
M 3809 3328 
L 3484 3003 
L 3156 3331 
L 3481 3656 
L 3809 3328 
z
" transform="scale(0.015625)"/>
      <path id="BNazanin-fee5" d="M 3453 59 
Q 3488 -150 3488 -291 
Q 3488 -516 3413 -728 
Q 3256 -1175 2709 -1422 
Q 2253 -1628 1716 -1628 
Q 1191 -1628 853 -1369 
Q 484 -1081 484 -569 
Q 484 -297 619 13 
Q 716 234 819 359 
Q 869 419 909 419 
Q 947 419 947 375 
Q 947 347 928 309 
Q 750 -56 750 -359 
Q 750 -656 947 -872 
Q 1206 -1156 1731 -1156 
Q 2325 -1156 2781 -944 
Q 3156 -769 3250 -563 
Q 3281 -494 3281 -391 
Q 3281 -231 3200 0 
Q 3131 194 2825 628 
L 2988 953 
Q 3025 1025 3044 1025 
Q 3063 1025 3100 966 
Q 3375 538 3453 59 
z
M 2275 1791 
L 1950 1466 
L 1622 1794 
L 1947 2119 
L 2275 1791 
z
" transform="scale(0.015625)"/>
      <path id="BNazanin-feee" d="M 2484 3 
L 2050 3 
Q 1994 -813 1422 -1388 
Q 1241 -1569 1194 -1569 
Q 866 -1569 416 -1500 
Q 269 -1478 269 -1453 
Q 269 -1428 425 -1381 
Q 919 -1238 1328 -881 
Q 1503 -728 1647 -528 
Q 1828 -275 1828 -103 
L 1828 3 
L 1328 3 
Q 753 3 753 469 
Q 753 766 925 1106 
Q 1122 1494 1375 1494 
Q 1684 1494 1872 1113 
Q 2009 834 2044 466 
L 2484 466 
L 2484 3 
z
M 1769 472 
Q 1769 653 1641 838 
Q 1497 1047 1309 1047 
Q 1188 1047 1091 948 
Q 994 850 994 728 
Q 994 456 1459 456 
Q 1581 456 1769 472 
z
" transform="scale(0.015625)"/>
      <path id="BNazanin-fe81" d="M 1350 497 
Q 1350 259 1247 50 
Q 1188 -72 1166 -72 
Q 1141 -72 1141 81 
Q 1141 775 897 3469 
L 1228 3778 
Q 1272 3819 1288 3822 
Q 1303 3822 1306 3753 
Q 1350 2994 1350 497 
z
M 1609 4284 
Q 1350 4072 966 4072 
Q 909 4072 796 4086 
Q 684 4100 628 4100 
Q 591 4100 520 4012 
Q 450 3925 422 3925 
Q 369 3925 369 4000 
Q 369 4050 438 4203 
Q 513 4372 569 4372 
Q 647 4372 801 4345 
Q 956 4319 1034 4319 
Q 1378 4319 1547 4366 
Q 1638 4391 1666 4391 
Q 1691 4391 1691 4375 
Q 1691 4350 1609 4284 
z
" transform="scale(0.015625)"/>
      <path id="BNazanin-60c" d="M 1297 322 
Q 1297 219 1209 119 
Q 1097 -9 916 -9 
Q 709 -9 594 144 
Q 488 284 488 497 
Q 488 1022 925 1256 
Q 984 1288 1069 1291 
Q 1156 1294 1156 1256 
Q 1144 1238 1063 1166 
Q 800 934 800 613 
Q 903 644 991 644 
Q 1297 644 1297 322 
z
" transform="scale(0.015625)"/>
      <path id="BNazanin-fbfd" d="M 4075 3 
L 3163 3 
Q 2994 3 2838 -50 
Q 2622 -122 2622 -253 
Q 2622 -284 3198 -412 
Q 3775 -541 3775 -666 
Q 3775 -1138 3503 -1369 
Q 3044 -1763 1884 -1763 
Q 484 -1763 484 -728 
Q 484 -494 584 -208 
Q 684 78 828 266 
Q 884 341 931 344 
Q 978 347 978 294 
Q 978 247 941 175 
Q 759 -169 759 -538 
Q 759 -947 1147 -1144 
Q 1444 -1294 1900 -1294 
Q 2384 -1294 2788 -1244 
Q 3513 -1153 3513 -934 
Q 3513 -844 3197 -791 
Q 2694 -706 2616 -684 
Q 2300 -597 2300 -416 
Q 2300 -272 2453 -56 
Q 2581 122 2722 238 
Q 3003 466 3522 466 
L 4075 466 
L 4075 3 
z
" transform="scale(0.015625)"/>
      <path id="BNazanin-fb94" d="M 2403 3841 
L 2322 3544 
L 363 2916 
L 447 3203 
L 2403 3841 
z
M 2488 3244 
Q 2472 3141 2363 2803 
Q 1638 2622 597 2266 
Q 1338 1559 1403 1091 
Q 1447 763 1328 500 
Q 1197 209 903 100 
Q 644 3 91 3 
L -81 3 
L -81 466 
L 56 466 
Q 1197 466 1197 859 
Q 1197 1178 572 1778 
L 519 1678 
Q 453 1731 303 1913 
Q 141 2109 141 2156 
Q 141 2359 291 2525 
Q 325 2563 1088 2816 
Q 1897 3084 2488 3244 
z
" transform="scale(0.015625)"/>
      <path id="BNazanin-fb8b" d="M 2488 3 
L 2319 3 
Q 2100 3 1988 78 
Q 1994 16 1994 -47 
Q 1994 -609 1628 -1131 
Q 1313 -1581 1113 -1581 
Q 656 -1581 325 -1534 
Q 216 -1519 216 -1481 
Q 216 -1444 328 -1422 
Q 797 -1325 1272 -925 
Q 1778 -497 1778 -103 
Q 1778 159 1359 566 
L 1544 941 
Q 1566 988 1581 991 
Q 1600 984 1634 938 
Q 1819 694 1919 613 
Q 2106 466 2363 466 
L 2488 466 
L 2488 3 
z
M 1559 2609 
L 1266 2319 
L 972 2613 
L 1263 2903 
L 1559 2609 
z
M 1919 1984 
L 1625 1694 
L 1328 1988 
L 1622 2278 
L 1919 1984 
z
M 1206 1984 
L 913 1694 
L 616 1988 
L 913 2278 
L 1206 1984 
z
" transform="scale(0.015625)"/>
      <path id="BNazanin-fbfe" d="M 1038 797 
Q 1038 3 247 3 
L -81 3 
L -81 466 
L 191 466 
Q 788 466 788 681 
Q 788 831 516 1178 
L 678 1572 
Q 703 1631 719 1631 
Q 734 1631 784 1559 
Q 1038 1188 1038 797 
z
M 1406 -878 
L 1097 -1188 
L 788 -875 
L 1097 -566 
L 1406 -878 
z
M 722 -878 
L 413 -1188 
L 103 -875 
L 409 -566 
L 722 -878 
z
" transform="scale(0.015625)"/>
      <path id="BNazanin-feed" d="M 2056 163 
Q 2056 -731 1441 -1369 
Q 1247 -1569 1194 -1569 
Q 853 -1569 416 -1500 
Q 263 -1475 263 -1453 
Q 263 -1428 425 -1381 
Q 909 -1241 1328 -881 
Q 1503 -731 1647 -528 
Q 1828 -275 1828 -103 
L 1828 28 
L 1306 9 
Q 753 -9 753 469 
Q 753 766 925 1106 
Q 1122 1494 1375 1494 
Q 1750 1494 1931 978 
Q 2056 622 2056 163 
z
M 1769 494 
Q 1769 688 1638 859 
Q 1497 1047 1309 1047 
Q 1184 1047 1092 953 
Q 1000 859 1000 734 
Q 1000 459 1394 459 
Q 1541 459 1769 494 
z
" transform="scale(0.015625)"/>
      <path id="BNazanin-fee8" d="M 2050 3 
L 1744 3 
Q 1191 3 1003 366 
Q 797 3 178 3 
L -81 3 
L -81 466 
L 275 466 
Q 859 466 913 919 
Q 934 1100 1003 1100 
Q 1072 1100 1091 913 
Q 1131 466 1697 466 
L 2050 466 
L 2050 3 
z
M 1256 2069 
L 931 1744 
L 603 2069 
L 928 2394 
L 1256 2069 
z
" transform="scale(0.015625)"/>
      <path id="BNazanin-fecb" d="M 2191 781 
L 2066 409 
L 975 122 
Q 525 3 134 3 
L -81 3 
L -81 466 
L 253 466 
Q 347 466 556 497 
Q 206 772 206 1041 
Q 206 1278 497 1644 
Q 834 2066 1213 2066 
Q 1603 2066 1859 1691 
Q 1944 1566 1944 1531 
Q 1944 1506 1903 1506 
Q 1853 1506 1722 1541 
Q 1422 1619 1216 1619 
Q 1041 1619 813 1509 
Q 550 1384 550 1228 
Q 550 1100 756 900 
Q 1009 656 1316 656 
Q 1413 656 2144 856 
Q 2200 872 2206 872 
Q 2209 863 2216 853 
Q 2209 841 2191 781 
z
" transform="scale(0.015625)"/>
      <path id="BNazanin-feea" d="M 2738 3 
L 2441 3 
Q 1928 3 1791 641 
Q 1509 363 1466 363 
L 1113 363 
Q 925 363 741 419 
Q 484 497 484 638 
Q 484 1088 803 1369 
Q 1016 1556 1538 1763 
L 1459 2147 
L 1728 2450 
Q 1744 2400 2000 1141 
Q 2078 756 2144 641 
Q 2244 466 2459 466 
L 2738 466 
L 2738 3 
z
M 1741 819 
L 1606 1453 
Q 1403 1394 1122 1256 
Q 738 1069 738 959 
Q 738 869 1031 819 
Q 1238 784 1397 784 
Q 1594 784 1741 819 
z
" transform="scale(0.015625)"/>
      <path id="BNazanin-fe91" d="M 1038 797 
Q 1038 3 247 3 
L -81 3 
L -81 466 
L 191 466 
Q 788 466 788 681 
Q 788 831 516 1178 
L 678 1572 
Q 703 1631 719 1631 
Q 734 1631 784 1559 
Q 1038 1188 1038 797 
z
M 909 -878 
L 584 -1203 
L 256 -875 
L 581 -550 
L 909 -878 
z
" transform="scale(0.015625)"/>
      <path id="BNazanin-feeb" d="M 2522 819 
Q 2522 597 2372 350 
Q 2194 59 1953 59 
Q 1766 59 1097 334 
Q 575 3 138 3 
L -81 3 
L -81 466 
L 153 466 
Q 419 466 628 522 
Q 381 697 381 997 
Q 381 1384 903 1784 
L 638 1916 
Q 753 2031 981 2269 
Q 1544 1997 1934 1691 
Q 2522 1228 2522 819 
z
M 2309 663 
Q 2309 825 2063 1063 
Q 1863 1256 1697 1341 
Q 1697 866 1422 634 
Q 1916 472 2066 472 
Q 2309 472 2309 663 
z
M 1469 1134 
Q 1469 1288 1400 1416 
Q 1319 1569 1178 1569 
Q 1022 1569 844 1434 
Q 656 1294 656 1144 
Q 656 881 1091 753 
Q 1228 784 1341 888 
Q 1469 1003 1469 1134 
z
" transform="scale(0.015625)"/>
      <path id="BNazanin-fedd" d="M 3419 3150 
Q 3447 3084 3438 3075 
Q 3431 3063 3363 3063 
L 3228 3063 
Q 3353 753 3309 -144 
Q 3241 -1559 1656 -1559 
Q 1144 -1559 838 -1344 
Q 484 -1097 484 -603 
Q 484 -103 759 284 
Q 794 331 831 331 
Q 881 331 881 272 
Q 881 247 869 216 
Q 738 -113 738 -334 
Q 738 -713 1016 -919 
Q 1263 -1103 1653 -1103 
Q 2231 -1103 2650 -888 
Q 3022 -697 3022 -494 
Q 3022 2106 2847 3406 
L 3125 3663 
Q 3175 3709 3191 3713 
Q 3206 3703 3225 3641 
Q 3275 3481 3419 3150 
z
" transform="scale(0.015625)"/>
      <path id="BNazanin-fb90" d="M 2559 3703 
Q 2544 3600 2406 3244 
L 1397 2928 
Q 719 2709 478 2566 
Q 953 2094 1122 1878 
Q 1444 1466 1478 1097 
Q 1506 800 1391 519 
Q 1181 3 134 3 
L -81 3 
L -81 466 
L 144 466 
Q 616 466 822 509 
Q 1253 600 1253 894 
Q 1253 1294 597 1888 
L 541 1800 
Q 478 1850 325 2050 
Q 159 2259 159 2306 
Q 159 2419 203 2609 
Q 253 2822 309 2888 
Q 347 2931 1134 3225 
Q 2019 3556 2559 3703 
z
" transform="scale(0.015625)"/>
     </defs>
     <use xlink:href="#BNazanin-fed1"/>
     <use xlink:href="#BNazanin-fe8d" x="67.333984"/>
     <use xlink:href="#BNazanin-20" x="82.03125"/>
     <use xlink:href="#BNazanin-fee5" x="106.445312"/>
     <use xlink:href="#BNazanin-feee" x="161.035156"/>
     <use xlink:href="#BNazanin-fee3" x="198.535156"/>
     <use xlink:href="#BNazanin-feaf" x="230.859375"/>
     <use xlink:href="#BNazanin-fe81" x="262.451172"/>
     <use xlink:href="#BNazanin-20" x="287.158203"/>
     <use xlink:href="#BNazanin-60c" x="311.572266"/>
     <use xlink:href="#BNazanin-fbfd" x="331.982422"/>
     <use xlink:href="#BNazanin-fb94" x="394.335938"/>
     <use xlink:href="#BNazanin-fb8b" x="431.689453"/>
     <use xlink:href="#BNazanin-fbfe" x="469.287109"/>
     <use xlink:href="#BNazanin-feed" x="491.503906"/>
     <use xlink:href="#BNazanin-20" x="523.681641"/>
     <use xlink:href="#BNazanin-fee5" x="548.095703"/>
     <use xlink:href="#BNazanin-fe8d" x="602.685547"/>
     <use xlink:href="#BNazanin-feee" x="617.382812"/>
     <use xlink:href="#BNazanin-fee8" x="654.882812"/>
     <use xlink:href="#BNazanin-fecb" x="685.644531"/>
     <use xlink:href="#BNazanin-20" x="720.117188"/>
     <use xlink:href="#BNazanin-feea" x="744.53125"/>
     <use xlink:href="#BNazanin-fe91" x="786.035156"/>
     <use xlink:href="#BNazanin-fe8e" x="802.294922"/>
     <use xlink:href="#BNazanin-feeb" x="825.732422"/>
     <use xlink:href="#BNazanin-fedd" x="865.185547"/>
     <use xlink:href="#BNazanin-fe8e" x="918.994141"/>
     <use xlink:href="#BNazanin-fee7" x="942.431641"/>
     <use xlink:href="#BNazanin-fe8e" x="958.691406"/>
     <use xlink:href="#BNazanin-fb90" x="982.128906"/>
    </g>
   </g>
  </g>
 </g>
 <defs>
  <clipPath id="p870e111e6f">
   <rect x="54" y="51.84" width="334.8" height="332.64"/>
  </clipPath>
 </defs>
</svg>
