<?xml version="1.0" encoding="utf-8" standalone="no"?>
<!DOCTYPE svg PUBLIC "-//W3C//DTD SVG 1.1//EN"
  "http://www.w3.org/Graphics/SVG/1.1/DTD/svg11.dtd">
<svg xmlns:xlink="http://www.w3.org/1999/xlink" width="1008pt" height="1512pt" viewBox="0 0 1008 1512" xmlns="http://www.w3.org/2000/svg" version="1.1">
 <metadata>
  <rdf:RDF xmlns:dc="http://purl.org/dc/elements/1.1/" xmlns:cc="http://creativecommons.org/ns#" xmlns:rdf="http://www.w3.org/1999/02/22-rdf-syntax-ns#">
   <cc:Work>
    <dc:type rdf:resource="http://purl.org/dc/dcmitype/StillImage"/>
    <dc:date>2022-08-18T22:05:42.173006</dc:date>
    <dc:format>image/svg+xml</dc:format>
    <dc:creator>
     <cc:Agent>
      <dc:title>Matplotlib v3.5.2, https://matplotlib.org/</dc:title>
     </cc:Agent>
    </dc:creator>
   </cc:Work>
  </rdf:RDF>
 </metadata>
 <defs>
  <style type="text/css">*{stroke-linejoin: round; stroke-linecap: butt}</style>
 </defs>
 <g id="figure_1">
  <g id="patch_1">
   <path d="M 0 1512 
L 1008 1512 
L 1008 0 
L 0 0 
z
" style="fill: #ffffff"/>
  </g>
  <g id="axes_1">
   <g id="patch_2">
    <path d="M 126 1345.68 
L 907.2 1345.68 
L 907.2 181.44 
L 126 181.44 
z
" style="fill: #ffffff"/>
   </g>
   <g id="patch_3">
    <path d="M 126 184.212 
L 179.47025 184.212 
L 179.47025 206.388 
L 126 206.388 
z
" clip-path="url(#p80ea00bdb9)" style="fill: #9a1e34"/>
   </g>
   <g id="patch_4">
    <path d="M 126 211.932 
L 144.112484 211.932 
L 144.112484 234.108 
L 126 234.108 
z
" clip-path="url(#p80ea00bdb9)" style="fill: #a62937"/>
   </g>
   <g id="patch_5">
    <path d="M 126 239.652 
L 253.717061 239.652 
L 253.717061 261.828 
L 126 261.828 
z
" clip-path="url(#p80ea00bdb9)" style="fill: #b2353a"/>
   </g>
   <g id="patch_6">
    <path d="M 126 267.372 
L 242.189954 267.372 
L 242.189954 289.548 
L 126 289.548 
z
" clip-path="url(#p80ea00bdb9)" style="fill: #bd403c"/>
   </g>
   <g id="patch_7">
    <path d="M 126 295.092 
L 155.342397 295.092 
L 155.342397 317.268 
L 126 317.268 
z
" clip-path="url(#p80ea00bdb9)" style="fill: #c54b41"/>
   </g>
   <g id="patch_8">
    <path d="M 126 322.812 
L 291.657418 322.812 
L 291.657418 344.988 
L 126 344.988 
z
" clip-path="url(#p80ea00bdb9)" style="fill: #cc5747"/>
   </g>
   <g id="patch_9">
    <path d="M 126 350.532 
L 249.086133 350.532 
L 249.086133 372.708 
L 126 372.708 
z
" clip-path="url(#p80ea00bdb9)" style="fill: #d3644e"/>
   </g>
   <g id="patch_10">
    <path d="M 126 378.252 
L 162.334525 378.252 
L 162.334525 400.428 
L 126 400.428 
z
" clip-path="url(#p80ea00bdb9)" style="fill: #d97055"/>
   </g>
   <g id="patch_11">
    <path d="M 126 405.972 
L 177.89351 405.972 
L 177.89351 428.148 
L 126 428.148 
z
" clip-path="url(#p80ea00bdb9)" style="fill: #df7d5b"/>
   </g>
   <g id="patch_12">
    <path d="M 126 433.692 
L 341.029416 433.692 
L 341.029416 455.868 
L 126 455.868 
z
" clip-path="url(#p80ea00bdb9)" style="fill: #e28962"/>
   </g>
   <g id="patch_13">
    <path d="M 126 461.412 
L 291.463398 461.412 
L 291.463398 483.588 
L 126 483.588 
z
" clip-path="url(#p80ea00bdb9)" style="fill: #e49668"/>
   </g>
   <g id="patch_14">
    <path d="M 126 489.132 
L 142.483793 489.132 
L 142.483793 511.308 
L 126 511.308 
z
" clip-path="url(#p80ea00bdb9)" style="fill: #e7a36f"/>
   </g>
   <g id="patch_15">
    <path d="M 126 516.852 
L 222.673395 516.852 
L 222.673395 539.028 
L 126 539.028 
z
" clip-path="url(#p80ea00bdb9)" style="fill: #eaaf75"/>
   </g>
   <g id="patch_16">
    <path d="M 126 544.572 
L 159.64198 544.572 
L 159.64198 566.748 
L 126 566.748 
z
" clip-path="url(#p80ea00bdb9)" style="fill: #ebb97e"/>
   </g>
   <g id="patch_17">
    <path d="M 126 572.292 
L 166.869857 572.292 
L 166.869857 594.468 
L 126 594.468 
z
" clip-path="url(#p80ea00bdb9)" style="fill: #edc387"/>
   </g>
   <g id="patch_18">
    <path d="M 126 600.012 
L 208.065384 600.012 
L 208.065384 622.188 
L 126 622.188 
z
" clip-path="url(#p80ea00bdb9)" style="fill: #eecd8f"/>
   </g>
   <g id="patch_19">
    <path d="M 126 627.732 
L 165.498533 627.732 
L 165.498533 649.908 
L 126 649.908 
z
" clip-path="url(#p80ea00bdb9)" style="fill: #efd798"/>
   </g>
   <g id="patch_20">
    <path d="M 126 655.452 
L 159.38838 655.452 
L 159.38838 677.628 
L 126 677.628 
z
" clip-path="url(#p80ea00bdb9)" style="fill: #f1dfa2"/>
   </g>
   <g id="patch_21">
    <path d="M 126 683.172 
L 205.486781 683.172 
L 205.486781 705.348 
L 126 705.348 
z
" clip-path="url(#p80ea00bdb9)" style="fill: #f3e6ad"/>
   </g>
   <g id="patch_22">
    <path d="M 126 710.892 
L 182.265702 710.892 
L 182.265702 733.068 
L 126 733.068 
z
" clip-path="url(#p80ea00bdb9)" style="fill: #f5edb8"/>
   </g>
   <g id="patch_23">
    <path d="M 126 738.612 
L 192.324627 738.612 
L 192.324627 760.788 
L 126 760.788 
z
" clip-path="url(#p80ea00bdb9)" style="fill: #f6f4c3"/>
   </g>
   <g id="patch_24">
    <path d="M 126 766.332 
L 870 766.332 
L 870 788.508 
L 126 788.508 
z
" clip-path="url(#p80ea00bdb9)" style="fill: #f3f5c2"/>
   </g>
   <g id="patch_25">
    <path d="M 126 794.052 
L 226.827528 794.052 
L 226.827528 816.228 
L 126 816.228 
z
" clip-path="url(#p80ea00bdb9)" style="fill: #ebf0b7"/>
   </g>
   <g id="patch_26">
    <path d="M 126 821.772 
L 349.965444 821.772 
L 349.965444 843.948 
L 126 843.948 
z
" clip-path="url(#p80ea00bdb9)" style="fill: #e2ebac"/>
   </g>
   <g id="patch_27">
    <path d="M 126 849.492 
L 298.379459 849.492 
L 298.379459 871.668 
L 126 871.668 
z
" clip-path="url(#p80ea00bdb9)" style="fill: #d9e7a1"/>
   </g>
   <g id="patch_28">
    <path d="M 126 877.212 
L 194.968106 877.212 
L 194.968106 899.388 
L 126 899.388 
z
" clip-path="url(#p80ea00bdb9)" style="fill: #d0e296"/>
   </g>
   <g id="patch_29">
    <path d="M 126 904.932 
L 207.871894 904.932 
L 207.871894 927.108 
L 126 927.108 
z
" clip-path="url(#p80ea00bdb9)" style="fill: #c6dc8f"/>
   </g>
   <g id="patch_30">
    <path d="M 126 932.652 
L 206.576505 932.652 
L 206.576505 954.828 
L 126 954.828 
z
" clip-path="url(#p80ea00bdb9)" style="fill: #bbd787"/>
   </g>
   <g id="patch_31">
    <path d="M 126 960.372 
L 196.644455 960.372 
L 196.644455 982.548 
L 126 982.548 
z
" clip-path="url(#p80ea00bdb9)" style="fill: #b0d180"/>
   </g>
   <g id="patch_32">
    <path d="M 126 988.092 
L 233.363216 988.092 
L 233.363216 1010.268 
L 126 1010.268 
z
" clip-path="url(#p80ea00bdb9)" style="fill: #a6cc78"/>
   </g>
   <g id="patch_33">
    <path d="M 126 1015.812 
L 201.007594 1015.812 
L 201.007594 1037.988 
L 126 1037.988 
z
" clip-path="url(#p80ea00bdb9)" style="fill: #9ac676"/>
   </g>
   <g id="patch_34">
    <path d="M 126 1043.532 
L 154.469711 1043.532 
L 154.469711 1065.708 
L 126 1065.708 
z
" clip-path="url(#p80ea00bdb9)" style="fill: #8dc074"/>
   </g>
   <g id="patch_35">
    <path d="M 126 1071.252 
L 336.751912 1071.252 
L 336.751912 1093.428 
L 126 1093.428 
z
" clip-path="url(#p80ea00bdb9)" style="fill: #81ba71"/>
   </g>
   <g id="patch_36">
    <path d="M 126 1098.972 
L 284.808293 1098.972 
L 284.808293 1121.148 
L 126 1121.148 
z
" clip-path="url(#p80ea00bdb9)" style="fill: #75b46f"/>
   </g>
   <g id="patch_37">
    <path d="M 126 1126.692 
L 260.72742 1126.692 
L 260.72742 1148.868 
L 126 1148.868 
z
" clip-path="url(#p80ea00bdb9)" style="fill: #66ac6a"/>
   </g>
   <g id="patch_38">
    <path d="M 126 1154.412 
L 151.809664 1154.412 
L 151.809664 1176.588 
L 126 1176.588 
z
" clip-path="url(#p80ea00bdb9)" style="fill: #55a263"/>
   </g>
   <g id="patch_39">
    <path d="M 126 1182.132 
L 195.411537 1182.132 
L 195.411537 1204.308 
L 126 1204.308 
z
" clip-path="url(#p80ea00bdb9)" style="fill: #44985d"/>
   </g>
   <g id="patch_40">
    <path d="M 126 1209.852 
L 285.720171 1209.852 
L 285.720171 1232.028 
L 126 1232.028 
z
" clip-path="url(#p80ea00bdb9)" style="fill: #348e56"/>
   </g>
   <g id="patch_41">
    <path d="M 126 1237.572 
L 260.727419 1237.572 
L 260.727419 1259.748 
L 126 1259.748 
z
" clip-path="url(#p80ea00bdb9)" style="fill: #278450"/>
   </g>
   <g id="patch_42">
    <path d="M 126 1265.292 
L 144.724757 1265.292 
L 144.724757 1287.468 
L 126 1287.468 
z
" clip-path="url(#p80ea00bdb9)" style="fill: #207949"/>
   </g>
   <g id="patch_43">
    <path d="M 126 1293.012 
L 151.616722 1293.012 
L 151.616722 1315.188 
L 126 1315.188 
z
" clip-path="url(#p80ea00bdb9)" style="fill: #196f42"/>
   </g>
   <g id="patch_44">
    <path d="M 126 1320.732 
L 328.207802 1320.732 
L 328.207802 1342.908 
L 126 1342.908 
z
" clip-path="url(#p80ea00bdb9)" style="fill: #13643c"/>
   </g>
   <g id="matplotlib.axis_1">
    <g id="xtick_1">
     <g id="line2d_1">
      <defs>
       <path id="m2422c24f42" d="M 0 0 
L 0 3.5 
" style="stroke: #000000; stroke-width: 0.8"/>
      </defs>
      <g>
       <use xlink:href="#m2422c24f42" x="126" y="1345.68" style="stroke: #000000; stroke-width: 0.8"/>
      </g>
     </g>
     <g id="text_1">
      <!-- 0 -->
      <g transform="translate(123.954365 1361.996299)rotate(-20)scale(0.1 -0.1)">
       <defs>
        <path id="DejaVuSans-30" d="M 2034 4250 
Q 1547 4250 1301 3770 
Q 1056 3291 1056 2328 
Q 1056 1369 1301 889 
Q 1547 409 2034 409 
Q 2525 409 2770 889 
Q 3016 1369 3016 2328 
Q 3016 3291 2770 3770 
Q 2525 4250 2034 4250 
z
M 2034 4750 
Q 2819 4750 3233 4129 
Q 3647 3509 3647 2328 
Q 3647 1150 3233 529 
Q 2819 -91 2034 -91 
Q 1250 -91 836 529 
Q 422 1150 422 2328 
Q 422 3509 836 4129 
Q 1250 4750 2034 4750 
z
" transform="scale(0.015625)"/>
       </defs>
       <use xlink:href="#DejaVuSans-30"/>
      </g>
     </g>
    </g>
    <g id="xtick_2">
     <g id="line2d_2">
      <g>
       <use xlink:href="#m2422c24f42" x="213.680023" y="1345.68" style="stroke: #000000; stroke-width: 0.8"/>
      </g>
     </g>
     <g id="text_2">
      <!-- 2 -->
      <g transform="translate(211.634388 1361.996299)rotate(-20)scale(0.1 -0.1)">
       <defs>
        <path id="DejaVuSans-32" d="M 1228 531 
L 3431 531 
L 3431 0 
L 469 0 
L 469 531 
Q 828 903 1448 1529 
Q 2069 2156 2228 2338 
Q 2531 2678 2651 2914 
Q 2772 3150 2772 3378 
Q 2772 3750 2511 3984 
Q 2250 4219 1831 4219 
Q 1534 4219 1204 4116 
Q 875 4013 500 3803 
L 500 4441 
Q 881 4594 1212 4672 
Q 1544 4750 1819 4750 
Q 2544 4750 2975 4387 
Q 3406 4025 3406 3419 
Q 3406 3131 3298 2873 
Q 3191 2616 2906 2266 
Q 2828 2175 2409 1742 
Q 1991 1309 1228 531 
z
" transform="scale(0.015625)"/>
       </defs>
       <use xlink:href="#DejaVuSans-32"/>
      </g>
     </g>
    </g>
    <g id="xtick_3">
     <g id="line2d_3">
      <g>
       <use xlink:href="#m2422c24f42" x="301.360046" y="1345.68" style="stroke: #000000; stroke-width: 0.8"/>
      </g>
     </g>
     <g id="text_3">
      <!-- 4 -->
      <g transform="translate(299.314411 1361.996299)rotate(-20)scale(0.1 -0.1)">
       <defs>
        <path id="DejaVuSans-34" d="M 2419 4116 
L 825 1625 
L 2419 1625 
L 2419 4116 
z
M 2253 4666 
L 3047 4666 
L 3047 1625 
L 3713 1625 
L 3713 1100 
L 3047 1100 
L 3047 0 
L 2419 0 
L 2419 1100 
L 313 1100 
L 313 1709 
L 2253 4666 
z
" transform="scale(0.015625)"/>
       </defs>
       <use xlink:href="#DejaVuSans-34"/>
      </g>
     </g>
    </g>
    <g id="xtick_4">
     <g id="line2d_4">
      <g>
       <use xlink:href="#m2422c24f42" x="389.040069" y="1345.68" style="stroke: #000000; stroke-width: 0.8"/>
      </g>
     </g>
     <g id="text_4">
      <!-- 6 -->
      <g transform="translate(386.994434 1361.996299)rotate(-20)scale(0.1 -0.1)">
       <defs>
        <path id="DejaVuSans-36" d="M 2113 2584 
Q 1688 2584 1439 2293 
Q 1191 2003 1191 1497 
Q 1191 994 1439 701 
Q 1688 409 2113 409 
Q 2538 409 2786 701 
Q 3034 994 3034 1497 
Q 3034 2003 2786 2293 
Q 2538 2584 2113 2584 
z
M 3366 4563 
L 3366 3988 
Q 3128 4100 2886 4159 
Q 2644 4219 2406 4219 
Q 1781 4219 1451 3797 
Q 1122 3375 1075 2522 
Q 1259 2794 1537 2939 
Q 1816 3084 2150 3084 
Q 2853 3084 3261 2657 
Q 3669 2231 3669 1497 
Q 3669 778 3244 343 
Q 2819 -91 2113 -91 
Q 1303 -91 875 529 
Q 447 1150 447 2328 
Q 447 3434 972 4092 
Q 1497 4750 2381 4750 
Q 2619 4750 2861 4703 
Q 3103 4656 3366 4563 
z
" transform="scale(0.015625)"/>
       </defs>
       <use xlink:href="#DejaVuSans-36"/>
      </g>
     </g>
    </g>
    <g id="xtick_5">
     <g id="line2d_5">
      <g>
       <use xlink:href="#m2422c24f42" x="476.720092" y="1345.68" style="stroke: #000000; stroke-width: 0.8"/>
      </g>
     </g>
     <g id="text_5">
      <!-- 8 -->
      <g transform="translate(474.674457 1361.996299)rotate(-20)scale(0.1 -0.1)">
       <defs>
        <path id="DejaVuSans-38" d="M 2034 2216 
Q 1584 2216 1326 1975 
Q 1069 1734 1069 1313 
Q 1069 891 1326 650 
Q 1584 409 2034 409 
Q 2484 409 2743 651 
Q 3003 894 3003 1313 
Q 3003 1734 2745 1975 
Q 2488 2216 2034 2216 
z
M 1403 2484 
Q 997 2584 770 2862 
Q 544 3141 544 3541 
Q 544 4100 942 4425 
Q 1341 4750 2034 4750 
Q 2731 4750 3128 4425 
Q 3525 4100 3525 3541 
Q 3525 3141 3298 2862 
Q 3072 2584 2669 2484 
Q 3125 2378 3379 2068 
Q 3634 1759 3634 1313 
Q 3634 634 3220 271 
Q 2806 -91 2034 -91 
Q 1263 -91 848 271 
Q 434 634 434 1313 
Q 434 1759 690 2068 
Q 947 2378 1403 2484 
z
M 1172 3481 
Q 1172 3119 1398 2916 
Q 1625 2713 2034 2713 
Q 2441 2713 2670 2916 
Q 2900 3119 2900 3481 
Q 2900 3844 2670 4047 
Q 2441 4250 2034 4250 
Q 1625 4250 1398 4047 
Q 1172 3844 1172 3481 
z
" transform="scale(0.015625)"/>
       </defs>
       <use xlink:href="#DejaVuSans-38"/>
      </g>
     </g>
    </g>
    <g id="xtick_6">
     <g id="line2d_6">
      <g>
       <use xlink:href="#m2422c24f42" x="564.400115" y="1345.68" style="stroke: #000000; stroke-width: 0.8"/>
      </g>
     </g>
     <g id="text_6">
      <!-- 10 -->
      <g transform="translate(559.365083 1364.172402)rotate(-20)scale(0.1 -0.1)">
       <defs>
        <path id="DejaVuSans-31" d="M 794 531 
L 1825 531 
L 1825 4091 
L 703 3866 
L 703 4441 
L 1819 4666 
L 2450 4666 
L 2450 531 
L 3481 531 
L 3481 0 
L 794 0 
L 794 531 
z
" transform="scale(0.015625)"/>
       </defs>
       <use xlink:href="#DejaVuSans-31"/>
       <use xlink:href="#DejaVuSans-30" x="63.623047"/>
      </g>
     </g>
    </g>
    <g id="xtick_7">
     <g id="line2d_7">
      <g>
       <use xlink:href="#m2422c24f42" x="652.080138" y="1345.68" style="stroke: #000000; stroke-width: 0.8"/>
      </g>
     </g>
     <g id="text_7">
      <!-- 12 -->
      <g transform="translate(647.045106 1364.172402)rotate(-20)scale(0.1 -0.1)">
       <use xlink:href="#DejaVuSans-31"/>
       <use xlink:href="#DejaVuSans-32" x="63.623047"/>
      </g>
     </g>
    </g>
    <g id="xtick_8">
     <g id="line2d_8">
      <g>
       <use xlink:href="#m2422c24f42" x="739.760161" y="1345.68" style="stroke: #000000; stroke-width: 0.8"/>
      </g>
     </g>
     <g id="text_8">
      <!-- 14 -->
      <g transform="translate(734.725129 1364.172402)rotate(-20)scale(0.1 -0.1)">
       <use xlink:href="#DejaVuSans-31"/>
       <use xlink:href="#DejaVuSans-34" x="63.623047"/>
      </g>
     </g>
    </g>
    <g id="xtick_9">
     <g id="line2d_9">
      <g>
       <use xlink:href="#m2422c24f42" x="827.440184" y="1345.68" style="stroke: #000000; stroke-width: 0.8"/>
      </g>
     </g>
     <g id="text_9">
      <!-- 16 -->
      <g transform="translate(822.405152 1364.172402)rotate(-20)scale(0.1 -0.1)">
       <use xlink:href="#DejaVuSans-31"/>
       <use xlink:href="#DejaVuSans-36" x="63.623047"/>
      </g>
     </g>
    </g>
    <g id="text_10">
     <!-- ﻦﯿﮕﻧﺎﯿﻣ ﺯﺎﯿﺘﻣﺍ -->
     <g transform="translate(482.54625 1385.759169)scale(0.16 -0.16)">
      <defs>
       <path id="BNazanin-fee6" d="M 4041 3 
L 3841 3 
Q 3547 3 3453 59 
Q 3475 -103 3475 -275 
Q 3475 -550 3413 -728 
Q 3256 -1175 2709 -1422 
Q 2253 -1628 1716 -1628 
Q 1191 -1628 853 -1369 
Q 484 -1081 484 -569 
Q 484 -297 619 13 
Q 716 234 819 359 
Q 869 419 909 419 
Q 947 419 947 375 
Q 947 347 928 309 
Q 750 -56 750 -359 
Q 750 -656 947 -872 
Q 1206 -1156 1731 -1156 
Q 2325 -1156 2781 -944 
Q 3156 -769 3250 -563 
Q 3281 -497 3259 -297 
Q 3241 -103 3200 0 
Q 3122 200 2809 594 
L 2988 925 
Q 3025 997 3044 997 
Q 3063 997 3100 938 
Q 3406 466 3731 466 
L 4041 466 
L 4041 3 
z
M 2275 1791 
L 1950 1466 
L 1622 1794 
L 1947 2119 
L 2275 1791 
z
" transform="scale(0.015625)"/>
       <path id="BNazanin-fbff" d="M 2050 3 
L 1744 3 
Q 1191 3 1003 366 
Q 797 3 178 3 
L -81 3 
L -81 466 
L 275 466 
Q 859 466 913 919 
Q 934 1100 1003 1100 
Q 1072 1100 1091 913 
Q 1131 466 1697 466 
L 2050 466 
L 2050 3 
z
M 1419 -878 
L 1109 -1188 
L 797 -875 
L 1106 -566 
L 1419 -878 
z
M 731 -878 
L 425 -1188 
L 113 -875 
L 422 -566 
L 731 -878 
z
" transform="scale(0.015625)"/>
       <path id="BNazanin-fb95" d="M 2378 3853 
L 2297 3556 
L 338 2928 
L 422 3219 
L 2378 3853 
z
M 2788 3 
L 2556 3 
Q 2241 3 1922 284 
Q 1700 481 1394 909 
Q 1341 3 144 3 
L -81 3 
L -81 466 
L 81 466 
Q 1191 466 1191 913 
Q 1191 1253 666 1747 
Q 441 1959 141 2169 
Q 141 2425 266 2553 
Q 316 2603 2466 3256 
Q 2459 3178 2334 2825 
Q 1809 2688 559 2291 
Q 1184 1641 1650 1100 
Q 1922 784 2072 669 
Q 2334 466 2625 466 
L 2788 466 
L 2788 3 
z
" transform="scale(0.015625)"/>
       <path id="BNazanin-fee7" d="M 1038 797 
Q 1038 3 247 3 
L -81 3 
L -81 466 
L 191 466 
Q 788 466 788 681 
Q 788 831 516 1178 
L 678 1572 
Q 703 1631 719 1631 
Q 734 1631 784 1559 
Q 1038 1188 1038 797 
z
M 1006 2619 
L 681 2294 
L 356 2622 
L 681 2947 
L 1006 2619 
z
" transform="scale(0.015625)"/>
       <path id="BNazanin-fe8e" d="M 1584 3 
L 1313 3 
Q 866 3 694 369 
Q 572 625 575 1134 
L 578 1897 
Q 581 2450 484 3453 
L 731 3716 
Q 800 3788 813 3706 
Q 897 3184 897 2128 
L 897 963 
Q 897 466 1375 466 
L 1584 466 
L 1584 3 
z
" transform="scale(0.015625)"/>
       <path id="BNazanin-fee3" d="M 2066 797 
Q 2091 500 1997 297 
Q 1853 -13 1678 -13 
Q 1359 -13 772 397 
Q 591 181 519 125 
Q 363 3 134 3 
L -81 3 
L -81 466 
L 203 466 
Q 472 466 675 741 
Q 775 884 1034 1250 
Q 1231 1525 1438 1525 
Q 1728 1525 1913 1231 
Q 2047 1016 2066 797 
z
M 1828 503 
Q 1828 678 1697 884 
Q 1550 1116 1375 1116 
Q 1197 1116 956 750 
Q 1056 641 1322 520 
Q 1588 400 1734 400 
Q 1828 400 1828 503 
z
" transform="scale(0.015625)"/>
       <path id="BNazanin-20" transform="scale(0.015625)"/>
       <path id="BNazanin-feaf" d="M 2016 -34 
Q 2016 -619 1644 -1138 
Q 1325 -1581 1113 -1581 
Q 656 -1581 325 -1534 
Q 216 -1519 216 -1481 
Q 216 -1444 328 -1422 
Q 797 -1325 1272 -925 
Q 1778 -497 1778 -103 
Q 1778 159 1359 566 
L 1541 944 
Q 1566 994 1578 997 
Q 1597 991 1631 947 
Q 1775 772 1891 481 
Q 2016 175 2016 -34 
z
M 1722 2113 
L 1397 1788 
L 1072 2116 
L 1397 2438 
L 1722 2113 
z
" transform="scale(0.015625)"/>
       <path id="BNazanin-fe98" d="M 2050 3 
L 1744 3 
Q 1191 3 1003 366 
Q 797 3 178 3 
L -81 3 
L -81 466 
L 275 466 
Q 859 466 913 919 
Q 934 1100 1003 1100 
Q 1072 1100 1091 913 
Q 1131 466 1697 466 
L 2050 466 
L 2050 3 
z
M 1378 2325 
L 1072 2019 
L 759 2328 
L 1069 2638 
L 1378 2325 
z
M 694 2325 
L 384 2019 
L 75 2328 
L 381 2638 
L 694 2325 
z
" transform="scale(0.015625)"/>
       <path id="BNazanin-fe8d" d="M 934 497 
Q 934 253 834 50 
Q 775 -72 753 -72 
Q 728 -72 728 81 
Q 728 775 484 3469 
L 816 3778 
Q 859 3819 875 3822 
Q 891 3822 894 3753 
Q 934 2963 934 497 
z
" transform="scale(0.015625)"/>
      </defs>
      <use xlink:href="#BNazanin-fee6"/>
      <use xlink:href="#BNazanin-fbff" x="61.816406"/>
      <use xlink:href="#BNazanin-fb95" x="92.578125"/>
      <use xlink:href="#BNazanin-fee7" x="134.863281"/>
      <use xlink:href="#BNazanin-fe8e" x="151.123047"/>
      <use xlink:href="#BNazanin-fbff" x="174.560547"/>
      <use xlink:href="#BNazanin-fee3" x="205.322266"/>
      <use xlink:href="#BNazanin-20" x="237.646484"/>
      <use xlink:href="#BNazanin-feaf" x="262.060547"/>
      <use xlink:href="#BNazanin-fe8e" x="293.652344"/>
      <use xlink:href="#BNazanin-fbff" x="317.089844"/>
      <use xlink:href="#BNazanin-fe98" x="347.851562"/>
      <use xlink:href="#BNazanin-fee3" x="378.613281"/>
      <use xlink:href="#BNazanin-fe8d" x="410.9375"/>
     </g>
    </g>
   </g>
   <g id="matplotlib.axis_2">
    <g id="ytick_1">
     <g id="line2d_10">
      <defs>
       <path id="m4b68066f4a" d="M 0 0 
L -3.5 0 
" style="stroke: #000000; stroke-width: 0.8"/>
      </defs>
      <g>
       <use xlink:href="#m4b68066f4a" x="126" y="195.3" style="stroke: #000000; stroke-width: 0.8"/>
      </g>
     </g>
     <g id="text_11">
      <!-- Median -->
      <g transform="translate(82.626563 199.099219)scale(0.1 -0.1)">
       <defs>
        <path id="DejaVuSans-4d" d="M 628 4666 
L 1569 4666 
L 2759 1491 
L 3956 4666 
L 4897 4666 
L 4897 0 
L 4281 0 
L 4281 4097 
L 3078 897 
L 2444 897 
L 1241 4097 
L 1241 0 
L 628 0 
L 628 4666 
z
" transform="scale(0.015625)"/>
        <path id="DejaVuSans-65" d="M 3597 1894 
L 3597 1613 
L 953 1613 
Q 991 1019 1311 708 
Q 1631 397 2203 397 
Q 2534 397 2845 478 
Q 3156 559 3463 722 
L 3463 178 
Q 3153 47 2828 -22 
Q 2503 -91 2169 -91 
Q 1331 -91 842 396 
Q 353 884 353 1716 
Q 353 2575 817 3079 
Q 1281 3584 2069 3584 
Q 2775 3584 3186 3129 
Q 3597 2675 3597 1894 
z
M 3022 2063 
Q 3016 2534 2758 2815 
Q 2500 3097 2075 3097 
Q 1594 3097 1305 2825 
Q 1016 2553 972 2059 
L 3022 2063 
z
" transform="scale(0.015625)"/>
        <path id="DejaVuSans-64" d="M 2906 2969 
L 2906 4863 
L 3481 4863 
L 3481 0 
L 2906 0 
L 2906 525 
Q 2725 213 2448 61 
Q 2172 -91 1784 -91 
Q 1150 -91 751 415 
Q 353 922 353 1747 
Q 353 2572 751 3078 
Q 1150 3584 1784 3584 
Q 2172 3584 2448 3432 
Q 2725 3281 2906 2969 
z
M 947 1747 
Q 947 1113 1208 752 
Q 1469 391 1925 391 
Q 2381 391 2643 752 
Q 2906 1113 2906 1747 
Q 2906 2381 2643 2742 
Q 2381 3103 1925 3103 
Q 1469 3103 1208 2742 
Q 947 2381 947 1747 
z
" transform="scale(0.015625)"/>
        <path id="DejaVuSans-69" d="M 603 3500 
L 1178 3500 
L 1178 0 
L 603 0 
L 603 3500 
z
M 603 4863 
L 1178 4863 
L 1178 4134 
L 603 4134 
L 603 4863 
z
" transform="scale(0.015625)"/>
        <path id="DejaVuSans-61" d="M 2194 1759 
Q 1497 1759 1228 1600 
Q 959 1441 959 1056 
Q 959 750 1161 570 
Q 1363 391 1709 391 
Q 2188 391 2477 730 
Q 2766 1069 2766 1631 
L 2766 1759 
L 2194 1759 
z
M 3341 1997 
L 3341 0 
L 2766 0 
L 2766 531 
Q 2569 213 2275 61 
Q 1981 -91 1556 -91 
Q 1019 -91 701 211 
Q 384 513 384 1019 
Q 384 1609 779 1909 
Q 1175 2209 1959 2209 
L 2766 2209 
L 2766 2266 
Q 2766 2663 2505 2880 
Q 2244 3097 1772 3097 
Q 1472 3097 1187 3025 
Q 903 2953 641 2809 
L 641 3341 
Q 956 3463 1253 3523 
Q 1550 3584 1831 3584 
Q 2591 3584 2966 3190 
Q 3341 2797 3341 1997 
z
" transform="scale(0.015625)"/>
        <path id="DejaVuSans-6e" d="M 3513 2113 
L 3513 0 
L 2938 0 
L 2938 2094 
Q 2938 2591 2744 2837 
Q 2550 3084 2163 3084 
Q 1697 3084 1428 2787 
Q 1159 2491 1159 1978 
L 1159 0 
L 581 0 
L 581 3500 
L 1159 3500 
L 1159 2956 
Q 1366 3272 1645 3428 
Q 1925 3584 2291 3584 
Q 2894 3584 3203 3211 
Q 3513 2838 3513 2113 
z
" transform="scale(0.015625)"/>
       </defs>
       <use xlink:href="#DejaVuSans-4d"/>
       <use xlink:href="#DejaVuSans-65" x="86.279297"/>
       <use xlink:href="#DejaVuSans-64" x="147.802734"/>
       <use xlink:href="#DejaVuSans-69" x="211.279297"/>
       <use xlink:href="#DejaVuSans-61" x="239.0625"/>
       <use xlink:href="#DejaVuSans-6e" x="300.341797"/>
      </g>
     </g>
    </g>
    <g id="ytick_2">
     <g id="line2d_11">
      <g>
       <use xlink:href="#m4b68066f4a" x="126" y="223.02" style="stroke: #000000; stroke-width: 0.8"/>
      </g>
     </g>
     <g id="text_12">
      <!-- Mean -->
      <g transform="translate(91.753125 226.819219)scale(0.1 -0.1)">
       <use xlink:href="#DejaVuSans-4d"/>
       <use xlink:href="#DejaVuSans-65" x="86.279297"/>
       <use xlink:href="#DejaVuSans-61" x="147.802734"/>
       <use xlink:href="#DejaVuSans-6e" x="209.082031"/>
      </g>
     </g>
    </g>
    <g id="ytick_3">
     <g id="line2d_12">
      <g>
       <use xlink:href="#m4b68066f4a" x="126" y="250.74" style="stroke: #000000; stroke-width: 0.8"/>
      </g>
     </g>
     <g id="text_13">
      <!-- Maximum -->
      <g transform="translate(69.728125 254.539219)scale(0.1 -0.1)">
       <defs>
        <path id="DejaVuSans-78" d="M 3513 3500 
L 2247 1797 
L 3578 0 
L 2900 0 
L 1881 1375 
L 863 0 
L 184 0 
L 1544 1831 
L 300 3500 
L 978 3500 
L 1906 2253 
L 2834 3500 
L 3513 3500 
z
" transform="scale(0.015625)"/>
        <path id="DejaVuSans-6d" d="M 3328 2828 
Q 3544 3216 3844 3400 
Q 4144 3584 4550 3584 
Q 5097 3584 5394 3201 
Q 5691 2819 5691 2113 
L 5691 0 
L 5113 0 
L 5113 2094 
Q 5113 2597 4934 2840 
Q 4756 3084 4391 3084 
Q 3944 3084 3684 2787 
Q 3425 2491 3425 1978 
L 3425 0 
L 2847 0 
L 2847 2094 
Q 2847 2600 2669 2842 
Q 2491 3084 2119 3084 
Q 1678 3084 1418 2786 
Q 1159 2488 1159 1978 
L 1159 0 
L 581 0 
L 581 3500 
L 1159 3500 
L 1159 2956 
Q 1356 3278 1631 3431 
Q 1906 3584 2284 3584 
Q 2666 3584 2933 3390 
Q 3200 3197 3328 2828 
z
" transform="scale(0.015625)"/>
        <path id="DejaVuSans-75" d="M 544 1381 
L 544 3500 
L 1119 3500 
L 1119 1403 
Q 1119 906 1312 657 
Q 1506 409 1894 409 
Q 2359 409 2629 706 
Q 2900 1003 2900 1516 
L 2900 3500 
L 3475 3500 
L 3475 0 
L 2900 0 
L 2900 538 
Q 2691 219 2414 64 
Q 2138 -91 1772 -91 
Q 1169 -91 856 284 
Q 544 659 544 1381 
z
M 1991 3584 
L 1991 3584 
z
" transform="scale(0.015625)"/>
       </defs>
       <use xlink:href="#DejaVuSans-4d"/>
       <use xlink:href="#DejaVuSans-61" x="86.279297"/>
       <use xlink:href="#DejaVuSans-78" x="147.558594"/>
       <use xlink:href="#DejaVuSans-69" x="206.738281"/>
       <use xlink:href="#DejaVuSans-6d" x="234.521484"/>
       <use xlink:href="#DejaVuSans-75" x="331.933594"/>
       <use xlink:href="#DejaVuSans-6d" x="395.3125"/>
      </g>
     </g>
    </g>
    <g id="ytick_4">
     <g id="line2d_13">
      <g>
       <use xlink:href="#m4b68066f4a" x="126" y="278.46" style="stroke: #000000; stroke-width: 0.8"/>
      </g>
     </g>
     <g id="text_14">
      <!-- Minimum -->
      <g transform="translate(72.659375 282.259219)scale(0.1 -0.1)">
       <use xlink:href="#DejaVuSans-4d"/>
       <use xlink:href="#DejaVuSans-69" x="86.279297"/>
       <use xlink:href="#DejaVuSans-6e" x="114.0625"/>
       <use xlink:href="#DejaVuSans-69" x="177.441406"/>
       <use xlink:href="#DejaVuSans-6d" x="205.224609"/>
       <use xlink:href="#DejaVuSans-75" x="302.636719"/>
       <use xlink:href="#DejaVuSans-6d" x="366.015625"/>
      </g>
     </g>
    </g>
    <g id="ytick_5">
     <g id="line2d_14">
      <g>
       <use xlink:href="#m4b68066f4a" x="126" y="306.18" style="stroke: #000000; stroke-width: 0.8"/>
      </g>
     </g>
     <g id="text_15">
      <!-- SAD -->
      <g transform="translate(97.923438 309.979219)scale(0.1 -0.1)">
       <defs>
        <path id="DejaVuSans-53" d="M 3425 4513 
L 3425 3897 
Q 3066 4069 2747 4153 
Q 2428 4238 2131 4238 
Q 1616 4238 1336 4038 
Q 1056 3838 1056 3469 
Q 1056 3159 1242 3001 
Q 1428 2844 1947 2747 
L 2328 2669 
Q 3034 2534 3370 2195 
Q 3706 1856 3706 1288 
Q 3706 609 3251 259 
Q 2797 -91 1919 -91 
Q 1588 -91 1214 -16 
Q 841 59 441 206 
L 441 856 
Q 825 641 1194 531 
Q 1563 422 1919 422 
Q 2459 422 2753 634 
Q 3047 847 3047 1241 
Q 3047 1584 2836 1778 
Q 2625 1972 2144 2069 
L 1759 2144 
Q 1053 2284 737 2584 
Q 422 2884 422 3419 
Q 422 4038 858 4394 
Q 1294 4750 2059 4750 
Q 2388 4750 2728 4690 
Q 3069 4631 3425 4513 
z
" transform="scale(0.015625)"/>
        <path id="DejaVuSans-41" d="M 2188 4044 
L 1331 1722 
L 3047 1722 
L 2188 4044 
z
M 1831 4666 
L 2547 4666 
L 4325 0 
L 3669 0 
L 3244 1197 
L 1141 1197 
L 716 0 
L 50 0 
L 1831 4666 
z
" transform="scale(0.015625)"/>
        <path id="DejaVuSans-44" d="M 1259 4147 
L 1259 519 
L 2022 519 
Q 2988 519 3436 956 
Q 3884 1394 3884 2338 
Q 3884 3275 3436 3711 
Q 2988 4147 2022 4147 
L 1259 4147 
z
M 628 4666 
L 1925 4666 
Q 3281 4666 3915 4102 
Q 4550 3538 4550 2338 
Q 4550 1131 3912 565 
Q 3275 0 1925 0 
L 628 0 
L 628 4666 
z
" transform="scale(0.015625)"/>
       </defs>
       <use xlink:href="#DejaVuSans-53"/>
       <use xlink:href="#DejaVuSans-41" x="65.351562"/>
       <use xlink:href="#DejaVuSans-44" x="133.759766"/>
      </g>
     </g>
    </g>
    <g id="ytick_6">
     <g id="line2d_15">
      <g>
       <use xlink:href="#m4b68066f4a" x="126" y="333.9" style="stroke: #000000; stroke-width: 0.8"/>
      </g>
     </g>
     <g id="text_16">
      <!-- RMS -->
      <g transform="translate(97.075 337.699219)scale(0.1 -0.1)">
       <defs>
        <path id="DejaVuSans-52" d="M 2841 2188 
Q 3044 2119 3236 1894 
Q 3428 1669 3622 1275 
L 4263 0 
L 3584 0 
L 2988 1197 
Q 2756 1666 2539 1819 
Q 2322 1972 1947 1972 
L 1259 1972 
L 1259 0 
L 628 0 
L 628 4666 
L 2053 4666 
Q 2853 4666 3247 4331 
Q 3641 3997 3641 3322 
Q 3641 2881 3436 2590 
Q 3231 2300 2841 2188 
z
M 1259 4147 
L 1259 2491 
L 2053 2491 
Q 2509 2491 2742 2702 
Q 2975 2913 2975 3322 
Q 2975 3731 2742 3939 
Q 2509 4147 2053 4147 
L 1259 4147 
z
" transform="scale(0.015625)"/>
       </defs>
       <use xlink:href="#DejaVuSans-52"/>
       <use xlink:href="#DejaVuSans-4d" x="69.482422"/>
       <use xlink:href="#DejaVuSans-53" x="155.761719"/>
      </g>
     </g>
    </g>
    <g id="ytick_7">
     <g id="line2d_16">
      <g>
       <use xlink:href="#m4b68066f4a" x="126" y="361.62" style="stroke: #000000; stroke-width: 0.8"/>
      </g>
     </g>
     <g id="text_17">
      <!-- PtP -->
      <g transform="translate(103.020313 365.419219)scale(0.1 -0.1)">
       <defs>
        <path id="DejaVuSans-50" d="M 1259 4147 
L 1259 2394 
L 2053 2394 
Q 2494 2394 2734 2622 
Q 2975 2850 2975 3272 
Q 2975 3691 2734 3919 
Q 2494 4147 2053 4147 
L 1259 4147 
z
M 628 4666 
L 2053 4666 
Q 2838 4666 3239 4311 
Q 3641 3956 3641 3272 
Q 3641 2581 3239 2228 
Q 2838 1875 2053 1875 
L 1259 1875 
L 1259 0 
L 628 0 
L 628 4666 
z
" transform="scale(0.015625)"/>
        <path id="DejaVuSans-74" d="M 1172 4494 
L 1172 3500 
L 2356 3500 
L 2356 3053 
L 1172 3053 
L 1172 1153 
Q 1172 725 1289 603 
Q 1406 481 1766 481 
L 2356 481 
L 2356 0 
L 1766 0 
Q 1100 0 847 248 
Q 594 497 594 1153 
L 594 3053 
L 172 3053 
L 172 3500 
L 594 3500 
L 594 4494 
L 1172 4494 
z
" transform="scale(0.015625)"/>
       </defs>
       <use xlink:href="#DejaVuSans-50"/>
       <use xlink:href="#DejaVuSans-74" x="60.302734"/>
       <use xlink:href="#DejaVuSans-50" x="99.511719"/>
      </g>
     </g>
    </g>
    <g id="ytick_8">
     <g id="line2d_17">
      <g>
       <use xlink:href="#m4b68066f4a" x="126" y="389.34" style="stroke: #000000; stroke-width: 0.8"/>
      </g>
     </g>
     <g id="text_18">
      <!-- Kurtosis -->
      <g transform="translate(79.257812 393.139219)scale(0.1 -0.1)">
       <defs>
        <path id="DejaVuSans-4b" d="M 628 4666 
L 1259 4666 
L 1259 2694 
L 3353 4666 
L 4166 4666 
L 1850 2491 
L 4331 0 
L 3500 0 
L 1259 2247 
L 1259 0 
L 628 0 
L 628 4666 
z
" transform="scale(0.015625)"/>
        <path id="DejaVuSans-72" d="M 2631 2963 
Q 2534 3019 2420 3045 
Q 2306 3072 2169 3072 
Q 1681 3072 1420 2755 
Q 1159 2438 1159 1844 
L 1159 0 
L 581 0 
L 581 3500 
L 1159 3500 
L 1159 2956 
Q 1341 3275 1631 3429 
Q 1922 3584 2338 3584 
Q 2397 3584 2469 3576 
Q 2541 3569 2628 3553 
L 2631 2963 
z
" transform="scale(0.015625)"/>
        <path id="DejaVuSans-6f" d="M 1959 3097 
Q 1497 3097 1228 2736 
Q 959 2375 959 1747 
Q 959 1119 1226 758 
Q 1494 397 1959 397 
Q 2419 397 2687 759 
Q 2956 1122 2956 1747 
Q 2956 2369 2687 2733 
Q 2419 3097 1959 3097 
z
M 1959 3584 
Q 2709 3584 3137 3096 
Q 3566 2609 3566 1747 
Q 3566 888 3137 398 
Q 2709 -91 1959 -91 
Q 1206 -91 779 398 
Q 353 888 353 1747 
Q 353 2609 779 3096 
Q 1206 3584 1959 3584 
z
" transform="scale(0.015625)"/>
        <path id="DejaVuSans-73" d="M 2834 3397 
L 2834 2853 
Q 2591 2978 2328 3040 
Q 2066 3103 1784 3103 
Q 1356 3103 1142 2972 
Q 928 2841 928 2578 
Q 928 2378 1081 2264 
Q 1234 2150 1697 2047 
L 1894 2003 
Q 2506 1872 2764 1633 
Q 3022 1394 3022 966 
Q 3022 478 2636 193 
Q 2250 -91 1575 -91 
Q 1294 -91 989 -36 
Q 684 19 347 128 
L 347 722 
Q 666 556 975 473 
Q 1284 391 1588 391 
Q 1994 391 2212 530 
Q 2431 669 2431 922 
Q 2431 1156 2273 1281 
Q 2116 1406 1581 1522 
L 1381 1569 
Q 847 1681 609 1914 
Q 372 2147 372 2553 
Q 372 3047 722 3315 
Q 1072 3584 1716 3584 
Q 2034 3584 2315 3537 
Q 2597 3491 2834 3397 
z
" transform="scale(0.015625)"/>
       </defs>
       <use xlink:href="#DejaVuSans-4b"/>
       <use xlink:href="#DejaVuSans-75" x="60.576172"/>
       <use xlink:href="#DejaVuSans-72" x="123.955078"/>
       <use xlink:href="#DejaVuSans-74" x="165.068359"/>
       <use xlink:href="#DejaVuSans-6f" x="204.277344"/>
       <use xlink:href="#DejaVuSans-73" x="265.458984"/>
       <use xlink:href="#DejaVuSans-69" x="317.558594"/>
       <use xlink:href="#DejaVuSans-73" x="345.341797"/>
      </g>
     </g>
    </g>
    <g id="ytick_9">
     <g id="line2d_18">
      <g>
       <use xlink:href="#m4b68066f4a" x="126" y="417.06" style="stroke: #000000; stroke-width: 0.8"/>
      </g>
     </g>
     <g id="text_19">
      <!-- Skewness -->
      <g transform="translate(69.982812 420.859219)scale(0.1 -0.1)">
       <defs>
        <path id="DejaVuSans-6b" d="M 581 4863 
L 1159 4863 
L 1159 1991 
L 2875 3500 
L 3609 3500 
L 1753 1863 
L 3688 0 
L 2938 0 
L 1159 1709 
L 1159 0 
L 581 0 
L 581 4863 
z
" transform="scale(0.015625)"/>
        <path id="DejaVuSans-77" d="M 269 3500 
L 844 3500 
L 1563 769 
L 2278 3500 
L 2956 3500 
L 3675 769 
L 4391 3500 
L 4966 3500 
L 4050 0 
L 3372 0 
L 2619 2869 
L 1863 0 
L 1184 0 
L 269 3500 
z
" transform="scale(0.015625)"/>
       </defs>
       <use xlink:href="#DejaVuSans-53"/>
       <use xlink:href="#DejaVuSans-6b" x="63.476562"/>
       <use xlink:href="#DejaVuSans-65" x="117.761719"/>
       <use xlink:href="#DejaVuSans-77" x="179.285156"/>
       <use xlink:href="#DejaVuSans-6e" x="261.072266"/>
       <use xlink:href="#DejaVuSans-65" x="324.451172"/>
       <use xlink:href="#DejaVuSans-73" x="385.974609"/>
       <use xlink:href="#DejaVuSans-73" x="438.074219"/>
      </g>
     </g>
    </g>
    <g id="ytick_10">
     <g id="line2d_19">
      <g>
       <use xlink:href="#m4b68066f4a" x="126" y="444.78" style="stroke: #000000; stroke-width: 0.8"/>
      </g>
     </g>
     <g id="text_20">
      <!-- Variance -->
      <g transform="translate(75.8 448.579219)scale(0.1 -0.1)">
       <defs>
        <path id="DejaVuSans-56" d="M 1831 0 
L 50 4666 
L 709 4666 
L 2188 738 
L 3669 4666 
L 4325 4666 
L 2547 0 
L 1831 0 
z
" transform="scale(0.015625)"/>
        <path id="DejaVuSans-63" d="M 3122 3366 
L 3122 2828 
Q 2878 2963 2633 3030 
Q 2388 3097 2138 3097 
Q 1578 3097 1268 2742 
Q 959 2388 959 1747 
Q 959 1106 1268 751 
Q 1578 397 2138 397 
Q 2388 397 2633 464 
Q 2878 531 3122 666 
L 3122 134 
Q 2881 22 2623 -34 
Q 2366 -91 2075 -91 
Q 1284 -91 818 406 
Q 353 903 353 1747 
Q 353 2603 823 3093 
Q 1294 3584 2113 3584 
Q 2378 3584 2631 3529 
Q 2884 3475 3122 3366 
z
" transform="scale(0.015625)"/>
       </defs>
       <use xlink:href="#DejaVuSans-56"/>
       <use xlink:href="#DejaVuSans-61" x="60.658203"/>
       <use xlink:href="#DejaVuSans-72" x="121.9375"/>
       <use xlink:href="#DejaVuSans-69" x="163.050781"/>
       <use xlink:href="#DejaVuSans-61" x="190.833984"/>
       <use xlink:href="#DejaVuSans-6e" x="252.113281"/>
       <use xlink:href="#DejaVuSans-63" x="315.492188"/>
       <use xlink:href="#DejaVuSans-65" x="370.472656"/>
      </g>
     </g>
    </g>
    <g id="ytick_11">
     <g id="line2d_20">
      <g>
       <use xlink:href="#m4b68066f4a" x="126" y="472.5" style="stroke: #000000; stroke-width: 0.8"/>
      </g>
     </g>
     <g id="text_21">
      <!-- Std -->
      <g transform="translate(102.382812 476.299219)scale(0.1 -0.1)">
       <use xlink:href="#DejaVuSans-53"/>
       <use xlink:href="#DejaVuSans-74" x="63.476562"/>
       <use xlink:href="#DejaVuSans-64" x="102.685547"/>
      </g>
     </g>
    </g>
    <g id="ytick_12">
     <g id="line2d_21">
      <g>
       <use xlink:href="#m4b68066f4a" x="126" y="500.22" style="stroke: #000000; stroke-width: 0.8"/>
      </g>
     </g>
     <g id="text_22">
      <!-- Zerocross -->
      <g transform="translate(70.070312 504.019219)scale(0.1 -0.1)">
       <defs>
        <path id="DejaVuSans-5a" d="M 359 4666 
L 4025 4666 
L 4025 4184 
L 1075 531 
L 4097 531 
L 4097 0 
L 288 0 
L 288 481 
L 3238 4134 
L 359 4134 
L 359 4666 
z
" transform="scale(0.015625)"/>
       </defs>
       <use xlink:href="#DejaVuSans-5a"/>
       <use xlink:href="#DejaVuSans-65" x="68.505859"/>
       <use xlink:href="#DejaVuSans-72" x="130.029297"/>
       <use xlink:href="#DejaVuSans-6f" x="168.892578"/>
       <use xlink:href="#DejaVuSans-63" x="230.074219"/>
       <use xlink:href="#DejaVuSans-72" x="285.054688"/>
       <use xlink:href="#DejaVuSans-6f" x="323.917969"/>
       <use xlink:href="#DejaVuSans-73" x="385.099609"/>
       <use xlink:href="#DejaVuSans-73" x="437.199219"/>
      </g>
     </g>
    </g>
    <g id="ytick_13">
     <g id="line2d_22">
      <g>
       <use xlink:href="#m4b68066f4a" x="126" y="527.94" style="stroke: #000000; stroke-width: 0.8"/>
      </g>
     </g>
     <g id="text_23">
      <!-- Hatd_fd -->
      <g transform="translate(80.214062 531.739219)scale(0.1 -0.1)">
       <defs>
        <path id="DejaVuSans-48" d="M 628 4666 
L 1259 4666 
L 1259 2753 
L 3553 2753 
L 3553 4666 
L 4184 4666 
L 4184 0 
L 3553 0 
L 3553 2222 
L 1259 2222 
L 1259 0 
L 628 0 
L 628 4666 
z
" transform="scale(0.015625)"/>
        <path id="DejaVuSans-5f" d="M 3263 -1063 
L 3263 -1509 
L -63 -1509 
L -63 -1063 
L 3263 -1063 
z
" transform="scale(0.015625)"/>
        <path id="DejaVuSans-66" d="M 2375 4863 
L 2375 4384 
L 1825 4384 
Q 1516 4384 1395 4259 
Q 1275 4134 1275 3809 
L 1275 3500 
L 2222 3500 
L 2222 3053 
L 1275 3053 
L 1275 0 
L 697 0 
L 697 3053 
L 147 3053 
L 147 3500 
L 697 3500 
L 697 3744 
Q 697 4328 969 4595 
Q 1241 4863 1831 4863 
L 2375 4863 
z
" transform="scale(0.015625)"/>
       </defs>
       <use xlink:href="#DejaVuSans-48"/>
       <use xlink:href="#DejaVuSans-61" x="75.195312"/>
       <use xlink:href="#DejaVuSans-74" x="136.474609"/>
       <use xlink:href="#DejaVuSans-64" x="175.683594"/>
       <use xlink:href="#DejaVuSans-5f" x="239.160156"/>
       <use xlink:href="#DejaVuSans-66" x="289.160156"/>
       <use xlink:href="#DejaVuSans-64" x="324.365234"/>
      </g>
     </g>
    </g>
    <g id="ytick_14">
     <g id="line2d_23">
      <g>
       <use xlink:href="#m4b68066f4a" x="126" y="555.66" style="stroke: #000000; stroke-width: 0.8"/>
      </g>
     </g>
     <g id="text_24">
      <!-- Hjorth0 -->
      <g transform="translate(81.851562 559.459219)scale(0.1 -0.1)">
       <defs>
        <path id="DejaVuSans-6a" d="M 603 3500 
L 1178 3500 
L 1178 -63 
Q 1178 -731 923 -1031 
Q 669 -1331 103 -1331 
L -116 -1331 
L -116 -844 
L 38 -844 
Q 366 -844 484 -692 
Q 603 -541 603 -63 
L 603 3500 
z
M 603 4863 
L 1178 4863 
L 1178 4134 
L 603 4134 
L 603 4863 
z
" transform="scale(0.015625)"/>
        <path id="DejaVuSans-68" d="M 3513 2113 
L 3513 0 
L 2938 0 
L 2938 2094 
Q 2938 2591 2744 2837 
Q 2550 3084 2163 3084 
Q 1697 3084 1428 2787 
Q 1159 2491 1159 1978 
L 1159 0 
L 581 0 
L 581 4863 
L 1159 4863 
L 1159 2956 
Q 1366 3272 1645 3428 
Q 1925 3584 2291 3584 
Q 2894 3584 3203 3211 
Q 3513 2838 3513 2113 
z
" transform="scale(0.015625)"/>
       </defs>
       <use xlink:href="#DejaVuSans-48"/>
       <use xlink:href="#DejaVuSans-6a" x="75.195312"/>
       <use xlink:href="#DejaVuSans-6f" x="102.978516"/>
       <use xlink:href="#DejaVuSans-72" x="164.160156"/>
       <use xlink:href="#DejaVuSans-74" x="205.273438"/>
       <use xlink:href="#DejaVuSans-68" x="244.482422"/>
       <use xlink:href="#DejaVuSans-30" x="307.861328"/>
      </g>
     </g>
    </g>
    <g id="ytick_15">
     <g id="line2d_24">
      <g>
       <use xlink:href="#m4b68066f4a" x="126" y="583.38" style="stroke: #000000; stroke-width: 0.8"/>
      </g>
     </g>
     <g id="text_25">
      <!-- Hjorth1 -->
      <g transform="translate(81.851562 587.179219)scale(0.1 -0.1)">
       <use xlink:href="#DejaVuSans-48"/>
       <use xlink:href="#DejaVuSans-6a" x="75.195312"/>
       <use xlink:href="#DejaVuSans-6f" x="102.978516"/>
       <use xlink:href="#DejaVuSans-72" x="164.160156"/>
       <use xlink:href="#DejaVuSans-74" x="205.273438"/>
       <use xlink:href="#DejaVuSans-68" x="244.482422"/>
       <use xlink:href="#DejaVuSans-31" x="307.861328"/>
      </g>
     </g>
    </g>
    <g id="ytick_16">
     <g id="line2d_25">
      <g>
       <use xlink:href="#m4b68066f4a" x="126" y="611.1" style="stroke: #000000; stroke-width: 0.8"/>
      </g>
     </g>
     <g id="text_26">
      <!-- Permutation Entropy -->
      <g transform="translate(15.935937 614.899219)scale(0.1 -0.1)">
       <defs>
        <path id="DejaVuSans-20" transform="scale(0.015625)"/>
        <path id="DejaVuSans-45" d="M 628 4666 
L 3578 4666 
L 3578 4134 
L 1259 4134 
L 1259 2753 
L 3481 2753 
L 3481 2222 
L 1259 2222 
L 1259 531 
L 3634 531 
L 3634 0 
L 628 0 
L 628 4666 
z
" transform="scale(0.015625)"/>
        <path id="DejaVuSans-70" d="M 1159 525 
L 1159 -1331 
L 581 -1331 
L 581 3500 
L 1159 3500 
L 1159 2969 
Q 1341 3281 1617 3432 
Q 1894 3584 2278 3584 
Q 2916 3584 3314 3078 
Q 3713 2572 3713 1747 
Q 3713 922 3314 415 
Q 2916 -91 2278 -91 
Q 1894 -91 1617 61 
Q 1341 213 1159 525 
z
M 3116 1747 
Q 3116 2381 2855 2742 
Q 2594 3103 2138 3103 
Q 1681 3103 1420 2742 
Q 1159 2381 1159 1747 
Q 1159 1113 1420 752 
Q 1681 391 2138 391 
Q 2594 391 2855 752 
Q 3116 1113 3116 1747 
z
" transform="scale(0.015625)"/>
        <path id="DejaVuSans-79" d="M 2059 -325 
Q 1816 -950 1584 -1140 
Q 1353 -1331 966 -1331 
L 506 -1331 
L 506 -850 
L 844 -850 
Q 1081 -850 1212 -737 
Q 1344 -625 1503 -206 
L 1606 56 
L 191 3500 
L 800 3500 
L 1894 763 
L 2988 3500 
L 3597 3500 
L 2059 -325 
z
" transform="scale(0.015625)"/>
       </defs>
       <use xlink:href="#DejaVuSans-50"/>
       <use xlink:href="#DejaVuSans-65" x="56.677734"/>
       <use xlink:href="#DejaVuSans-72" x="118.201172"/>
       <use xlink:href="#DejaVuSans-6d" x="157.564453"/>
       <use xlink:href="#DejaVuSans-75" x="254.976562"/>
       <use xlink:href="#DejaVuSans-74" x="318.355469"/>
       <use xlink:href="#DejaVuSans-61" x="357.564453"/>
       <use xlink:href="#DejaVuSans-74" x="418.84375"/>
       <use xlink:href="#DejaVuSans-69" x="458.052734"/>
       <use xlink:href="#DejaVuSans-6f" x="485.835938"/>
       <use xlink:href="#DejaVuSans-6e" x="547.017578"/>
       <use xlink:href="#DejaVuSans-20" x="610.396484"/>
       <use xlink:href="#DejaVuSans-45" x="642.183594"/>
       <use xlink:href="#DejaVuSans-6e" x="705.367188"/>
       <use xlink:href="#DejaVuSans-74" x="768.746094"/>
       <use xlink:href="#DejaVuSans-72" x="807.955078"/>
       <use xlink:href="#DejaVuSans-6f" x="846.818359"/>
       <use xlink:href="#DejaVuSans-70" x="908"/>
       <use xlink:href="#DejaVuSans-79" x="971.476562"/>
      </g>
     </g>
    </g>
    <g id="ytick_17">
     <g id="line2d_26">
      <g>
       <use xlink:href="#m4b68066f4a" x="126" y="638.82" style="stroke: #000000; stroke-width: 0.8"/>
      </g>
     </g>
     <g id="text_27">
      <!-- Spectral Entropy -->
      <g transform="translate(35.6875 642.619219)scale(0.1 -0.1)">
       <defs>
        <path id="DejaVuSans-6c" d="M 603 4863 
L 1178 4863 
L 1178 0 
L 603 0 
L 603 4863 
z
" transform="scale(0.015625)"/>
       </defs>
       <use xlink:href="#DejaVuSans-53"/>
       <use xlink:href="#DejaVuSans-70" x="63.476562"/>
       <use xlink:href="#DejaVuSans-65" x="126.953125"/>
       <use xlink:href="#DejaVuSans-63" x="188.476562"/>
       <use xlink:href="#DejaVuSans-74" x="243.457031"/>
       <use xlink:href="#DejaVuSans-72" x="282.666016"/>
       <use xlink:href="#DejaVuSans-61" x="323.779297"/>
       <use xlink:href="#DejaVuSans-6c" x="385.058594"/>
       <use xlink:href="#DejaVuSans-20" x="412.841797"/>
       <use xlink:href="#DejaVuSans-45" x="444.628906"/>
       <use xlink:href="#DejaVuSans-6e" x="507.8125"/>
       <use xlink:href="#DejaVuSans-74" x="571.191406"/>
       <use xlink:href="#DejaVuSans-72" x="610.400391"/>
       <use xlink:href="#DejaVuSans-6f" x="649.263672"/>
       <use xlink:href="#DejaVuSans-70" x="710.445312"/>
       <use xlink:href="#DejaVuSans-79" x="773.921875"/>
      </g>
     </g>
    </g>
    <g id="ytick_18">
     <g id="line2d_27">
      <g>
       <use xlink:href="#m4b68066f4a" x="126" y="666.54" style="stroke: #000000; stroke-width: 0.8"/>
      </g>
     </g>
     <g id="text_28">
      <!-- SVD Entropy -->
      <g transform="translate(56.084375 670.339219)scale(0.1 -0.1)">
       <use xlink:href="#DejaVuSans-53"/>
       <use xlink:href="#DejaVuSans-56" x="63.476562"/>
       <use xlink:href="#DejaVuSans-44" x="131.884766"/>
       <use xlink:href="#DejaVuSans-20" x="208.886719"/>
       <use xlink:href="#DejaVuSans-45" x="240.673828"/>
       <use xlink:href="#DejaVuSans-6e" x="303.857422"/>
       <use xlink:href="#DejaVuSans-74" x="367.236328"/>
       <use xlink:href="#DejaVuSans-72" x="406.445312"/>
       <use xlink:href="#DejaVuSans-6f" x="445.308594"/>
       <use xlink:href="#DejaVuSans-70" x="506.490234"/>
       <use xlink:href="#DejaVuSans-79" x="569.966797"/>
      </g>
     </g>
    </g>
    <g id="ytick_19">
     <g id="line2d_28">
      <g>
       <use xlink:href="#m4b68066f4a" x="126" y="694.26" style="stroke: #000000; stroke-width: 0.8"/>
      </g>
     </g>
     <g id="text_29">
      <!-- Petrosian_fd -->
      <g transform="translate(57.932812 698.059219)scale(0.1 -0.1)">
       <use xlink:href="#DejaVuSans-50"/>
       <use xlink:href="#DejaVuSans-65" x="56.677734"/>
       <use xlink:href="#DejaVuSans-74" x="118.201172"/>
       <use xlink:href="#DejaVuSans-72" x="157.410156"/>
       <use xlink:href="#DejaVuSans-6f" x="196.273438"/>
       <use xlink:href="#DejaVuSans-73" x="257.455078"/>
       <use xlink:href="#DejaVuSans-69" x="309.554688"/>
       <use xlink:href="#DejaVuSans-61" x="337.337891"/>
       <use xlink:href="#DejaVuSans-6e" x="398.617188"/>
       <use xlink:href="#DejaVuSans-5f" x="461.996094"/>
       <use xlink:href="#DejaVuSans-66" x="511.996094"/>
       <use xlink:href="#DejaVuSans-64" x="547.201172"/>
      </g>
     </g>
    </g>
    <g id="ytick_20">
     <g id="line2d_29">
      <g>
       <use xlink:href="#m4b68066f4a" x="126" y="721.98" style="stroke: #000000; stroke-width: 0.8"/>
      </g>
     </g>
     <g id="text_30">
      <!-- Higuchi_fd -->
      <g transform="translate(66.532813 725.779219)scale(0.1 -0.1)">
       <defs>
        <path id="DejaVuSans-67" d="M 2906 1791 
Q 2906 2416 2648 2759 
Q 2391 3103 1925 3103 
Q 1463 3103 1205 2759 
Q 947 2416 947 1791 
Q 947 1169 1205 825 
Q 1463 481 1925 481 
Q 2391 481 2648 825 
Q 2906 1169 2906 1791 
z
M 3481 434 
Q 3481 -459 3084 -895 
Q 2688 -1331 1869 -1331 
Q 1566 -1331 1297 -1286 
Q 1028 -1241 775 -1147 
L 775 -588 
Q 1028 -725 1275 -790 
Q 1522 -856 1778 -856 
Q 2344 -856 2625 -561 
Q 2906 -266 2906 331 
L 2906 616 
Q 2728 306 2450 153 
Q 2172 0 1784 0 
Q 1141 0 747 490 
Q 353 981 353 1791 
Q 353 2603 747 3093 
Q 1141 3584 1784 3584 
Q 2172 3584 2450 3431 
Q 2728 3278 2906 2969 
L 2906 3500 
L 3481 3500 
L 3481 434 
z
" transform="scale(0.015625)"/>
       </defs>
       <use xlink:href="#DejaVuSans-48"/>
       <use xlink:href="#DejaVuSans-69" x="75.195312"/>
       <use xlink:href="#DejaVuSans-67" x="102.978516"/>
       <use xlink:href="#DejaVuSans-75" x="166.455078"/>
       <use xlink:href="#DejaVuSans-63" x="229.833984"/>
       <use xlink:href="#DejaVuSans-68" x="284.814453"/>
       <use xlink:href="#DejaVuSans-69" x="348.193359"/>
       <use xlink:href="#DejaVuSans-5f" x="375.976562"/>
       <use xlink:href="#DejaVuSans-66" x="425.976562"/>
       <use xlink:href="#DejaVuSans-64" x="461.181641"/>
      </g>
     </g>
    </g>
    <g id="ytick_21">
     <g id="line2d_30">
      <g>
       <use xlink:href="#m4b68066f4a" x="126" y="749.7" style="stroke: #000000; stroke-width: 0.8"/>
      </g>
     </g>
     <g id="text_31">
      <!-- Detrended_fluctuation -->
      <g transform="translate(7.325 753.499219)scale(0.1 -0.1)">
       <use xlink:href="#DejaVuSans-44"/>
       <use xlink:href="#DejaVuSans-65" x="77.001953"/>
       <use xlink:href="#DejaVuSans-74" x="138.525391"/>
       <use xlink:href="#DejaVuSans-72" x="177.734375"/>
       <use xlink:href="#DejaVuSans-65" x="216.597656"/>
       <use xlink:href="#DejaVuSans-6e" x="278.121094"/>
       <use xlink:href="#DejaVuSans-64" x="341.5"/>
       <use xlink:href="#DejaVuSans-65" x="404.976562"/>
       <use xlink:href="#DejaVuSans-64" x="466.5"/>
       <use xlink:href="#DejaVuSans-5f" x="529.976562"/>
       <use xlink:href="#DejaVuSans-66" x="579.976562"/>
       <use xlink:href="#DejaVuSans-6c" x="615.181641"/>
       <use xlink:href="#DejaVuSans-75" x="642.964844"/>
       <use xlink:href="#DejaVuSans-63" x="706.34375"/>
       <use xlink:href="#DejaVuSans-74" x="761.324219"/>
       <use xlink:href="#DejaVuSans-75" x="800.533203"/>
       <use xlink:href="#DejaVuSans-61" x="863.912109"/>
       <use xlink:href="#DejaVuSans-74" x="925.191406"/>
       <use xlink:href="#DejaVuSans-69" x="964.400391"/>
       <use xlink:href="#DejaVuSans-6f" x="992.183594"/>
       <use xlink:href="#DejaVuSans-6e" x="1053.365234"/>
      </g>
     </g>
    </g>
    <g id="ytick_22">
     <g id="line2d_31">
      <g>
       <use xlink:href="#m4b68066f4a" x="126" y="777.42" style="stroke: #000000; stroke-width: 0.8"/>
      </g>
     </g>
     <g id="text_32">
      <!-- fft_Mean_Re -->
      <g transform="translate(58.315625 781.219219)scale(0.1 -0.1)">
       <use xlink:href="#DejaVuSans-66"/>
       <use xlink:href="#DejaVuSans-66" x="35.205078"/>
       <use xlink:href="#DejaVuSans-74" x="68.660156"/>
       <use xlink:href="#DejaVuSans-5f" x="107.869141"/>
       <use xlink:href="#DejaVuSans-4d" x="157.869141"/>
       <use xlink:href="#DejaVuSans-65" x="244.148438"/>
       <use xlink:href="#DejaVuSans-61" x="305.671875"/>
       <use xlink:href="#DejaVuSans-6e" x="366.951172"/>
       <use xlink:href="#DejaVuSans-5f" x="430.330078"/>
       <use xlink:href="#DejaVuSans-52" x="480.330078"/>
       <use xlink:href="#DejaVuSans-65" x="545.3125"/>
      </g>
     </g>
    </g>
    <g id="ytick_23">
     <g id="line2d_32">
      <g>
       <use xlink:href="#m4b68066f4a" x="126" y="805.14" style="stroke: #000000; stroke-width: 0.8"/>
      </g>
     </g>
     <g id="text_33">
      <!-- fft_Mean_Im -->
      <g transform="translate(58.276562 808.939219)scale(0.1 -0.1)">
       <defs>
        <path id="DejaVuSans-49" d="M 628 4666 
L 1259 4666 
L 1259 0 
L 628 0 
L 628 4666 
z
" transform="scale(0.015625)"/>
       </defs>
       <use xlink:href="#DejaVuSans-66"/>
       <use xlink:href="#DejaVuSans-66" x="35.205078"/>
       <use xlink:href="#DejaVuSans-74" x="68.660156"/>
       <use xlink:href="#DejaVuSans-5f" x="107.869141"/>
       <use xlink:href="#DejaVuSans-4d" x="157.869141"/>
       <use xlink:href="#DejaVuSans-65" x="244.148438"/>
       <use xlink:href="#DejaVuSans-61" x="305.671875"/>
       <use xlink:href="#DejaVuSans-6e" x="366.951172"/>
       <use xlink:href="#DejaVuSans-5f" x="430.330078"/>
       <use xlink:href="#DejaVuSans-49" x="480.330078"/>
       <use xlink:href="#DejaVuSans-6d" x="509.822266"/>
      </g>
     </g>
    </g>
    <g id="ytick_24">
     <g id="line2d_33">
      <g>
       <use xlink:href="#m4b68066f4a" x="126" y="832.86" style="stroke: #000000; stroke-width: 0.8"/>
      </g>
     </g>
     <g id="text_34">
      <!-- fft_Median_Re -->
      <g transform="translate(49.189062 836.659219)scale(0.1 -0.1)">
       <use xlink:href="#DejaVuSans-66"/>
       <use xlink:href="#DejaVuSans-66" x="35.205078"/>
       <use xlink:href="#DejaVuSans-74" x="68.660156"/>
       <use xlink:href="#DejaVuSans-5f" x="107.869141"/>
       <use xlink:href="#DejaVuSans-4d" x="157.869141"/>
       <use xlink:href="#DejaVuSans-65" x="244.148438"/>
       <use xlink:href="#DejaVuSans-64" x="305.671875"/>
       <use xlink:href="#DejaVuSans-69" x="369.148438"/>
       <use xlink:href="#DejaVuSans-61" x="396.931641"/>
       <use xlink:href="#DejaVuSans-6e" x="458.210938"/>
       <use xlink:href="#DejaVuSans-5f" x="521.589844"/>
       <use xlink:href="#DejaVuSans-52" x="571.589844"/>
       <use xlink:href="#DejaVuSans-65" x="636.572266"/>
      </g>
     </g>
    </g>
    <g id="ytick_25">
     <g id="line2d_34">
      <g>
       <use xlink:href="#m4b68066f4a" x="126" y="860.58" style="stroke: #000000; stroke-width: 0.8"/>
      </g>
     </g>
     <g id="text_35">
      <!-- fft_Median_Im -->
      <g transform="translate(49.15 864.379219)scale(0.1 -0.1)">
       <use xlink:href="#DejaVuSans-66"/>
       <use xlink:href="#DejaVuSans-66" x="35.205078"/>
       <use xlink:href="#DejaVuSans-74" x="68.660156"/>
       <use xlink:href="#DejaVuSans-5f" x="107.869141"/>
       <use xlink:href="#DejaVuSans-4d" x="157.869141"/>
       <use xlink:href="#DejaVuSans-65" x="244.148438"/>
       <use xlink:href="#DejaVuSans-64" x="305.671875"/>
       <use xlink:href="#DejaVuSans-69" x="369.148438"/>
       <use xlink:href="#DejaVuSans-61" x="396.931641"/>
       <use xlink:href="#DejaVuSans-6e" x="458.210938"/>
       <use xlink:href="#DejaVuSans-5f" x="521.589844"/>
       <use xlink:href="#DejaVuSans-49" x="571.589844"/>
       <use xlink:href="#DejaVuSans-6d" x="601.082031"/>
      </g>
     </g>
    </g>
    <g id="ytick_26">
     <g id="line2d_35">
      <g>
       <use xlink:href="#m4b68066f4a" x="126" y="888.3" style="stroke: #000000; stroke-width: 0.8"/>
      </g>
     </g>
     <g id="text_36">
      <!-- fft_Variance -->
      <g transform="translate(60.014062 892.099219)scale(0.1 -0.1)">
       <use xlink:href="#DejaVuSans-66"/>
       <use xlink:href="#DejaVuSans-66" x="35.205078"/>
       <use xlink:href="#DejaVuSans-74" x="68.660156"/>
       <use xlink:href="#DejaVuSans-5f" x="107.869141"/>
       <use xlink:href="#DejaVuSans-56" x="157.869141"/>
       <use xlink:href="#DejaVuSans-61" x="218.527344"/>
       <use xlink:href="#DejaVuSans-72" x="279.806641"/>
       <use xlink:href="#DejaVuSans-69" x="320.919922"/>
       <use xlink:href="#DejaVuSans-61" x="348.703125"/>
       <use xlink:href="#DejaVuSans-6e" x="409.982422"/>
       <use xlink:href="#DejaVuSans-63" x="473.361328"/>
       <use xlink:href="#DejaVuSans-65" x="528.341797"/>
      </g>
     </g>
    </g>
    <g id="ytick_27">
     <g id="line2d_36">
      <g>
       <use xlink:href="#m4b68066f4a" x="126" y="916.02" style="stroke: #000000; stroke-width: 0.8"/>
      </g>
     </g>
     <g id="text_37">
      <!-- fft_Std -->
      <g transform="translate(86.596875 919.819219)scale(0.1 -0.1)">
       <use xlink:href="#DejaVuSans-66"/>
       <use xlink:href="#DejaVuSans-66" x="35.205078"/>
       <use xlink:href="#DejaVuSans-74" x="68.660156"/>
       <use xlink:href="#DejaVuSans-5f" x="107.869141"/>
       <use xlink:href="#DejaVuSans-53" x="157.869141"/>
       <use xlink:href="#DejaVuSans-74" x="221.345703"/>
       <use xlink:href="#DejaVuSans-64" x="260.554688"/>
      </g>
     </g>
    </g>
    <g id="ytick_28">
     <g id="line2d_37">
      <g>
       <use xlink:href="#m4b68066f4a" x="126" y="943.74" style="stroke: #000000; stroke-width: 0.8"/>
      </g>
     </g>
     <g id="text_38">
      <!-- fft_Skewness_Re -->
      <g transform="translate(36.545312 947.539219)scale(0.1 -0.1)">
       <use xlink:href="#DejaVuSans-66"/>
       <use xlink:href="#DejaVuSans-66" x="35.205078"/>
       <use xlink:href="#DejaVuSans-74" x="68.660156"/>
       <use xlink:href="#DejaVuSans-5f" x="107.869141"/>
       <use xlink:href="#DejaVuSans-53" x="157.869141"/>
       <use xlink:href="#DejaVuSans-6b" x="221.345703"/>
       <use xlink:href="#DejaVuSans-65" x="275.630859"/>
       <use xlink:href="#DejaVuSans-77" x="337.154297"/>
       <use xlink:href="#DejaVuSans-6e" x="418.941406"/>
       <use xlink:href="#DejaVuSans-65" x="482.320312"/>
       <use xlink:href="#DejaVuSans-73" x="543.84375"/>
       <use xlink:href="#DejaVuSans-73" x="595.943359"/>
       <use xlink:href="#DejaVuSans-5f" x="648.042969"/>
       <use xlink:href="#DejaVuSans-52" x="698.042969"/>
       <use xlink:href="#DejaVuSans-65" x="763.025391"/>
      </g>
     </g>
    </g>
    <g id="ytick_29">
     <g id="line2d_38">
      <g>
       <use xlink:href="#m4b68066f4a" x="126" y="971.46" style="stroke: #000000; stroke-width: 0.8"/>
      </g>
     </g>
     <g id="text_39">
      <!-- fft_Skewness_Im -->
      <g transform="translate(36.50625 975.259219)scale(0.1 -0.1)">
       <use xlink:href="#DejaVuSans-66"/>
       <use xlink:href="#DejaVuSans-66" x="35.205078"/>
       <use xlink:href="#DejaVuSans-74" x="68.660156"/>
       <use xlink:href="#DejaVuSans-5f" x="107.869141"/>
       <use xlink:href="#DejaVuSans-53" x="157.869141"/>
       <use xlink:href="#DejaVuSans-6b" x="221.345703"/>
       <use xlink:href="#DejaVuSans-65" x="275.630859"/>
       <use xlink:href="#DejaVuSans-77" x="337.154297"/>
       <use xlink:href="#DejaVuSans-6e" x="418.941406"/>
       <use xlink:href="#DejaVuSans-65" x="482.320312"/>
       <use xlink:href="#DejaVuSans-73" x="543.84375"/>
       <use xlink:href="#DejaVuSans-73" x="595.943359"/>
       <use xlink:href="#DejaVuSans-5f" x="648.042969"/>
       <use xlink:href="#DejaVuSans-49" x="698.042969"/>
       <use xlink:href="#DejaVuSans-6d" x="727.535156"/>
      </g>
     </g>
    </g>
    <g id="ytick_30">
     <g id="line2d_39">
      <g>
       <use xlink:href="#m4b68066f4a" x="126" y="999.18" style="stroke: #000000; stroke-width: 0.8"/>
      </g>
     </g>
     <g id="text_40">
      <!-- fft_Kurtosis_Re -->
      <g transform="translate(45.820312 1002.979219)scale(0.1 -0.1)">
       <use xlink:href="#DejaVuSans-66"/>
       <use xlink:href="#DejaVuSans-66" x="35.205078"/>
       <use xlink:href="#DejaVuSans-74" x="68.660156"/>
       <use xlink:href="#DejaVuSans-5f" x="107.869141"/>
       <use xlink:href="#DejaVuSans-4b" x="157.869141"/>
       <use xlink:href="#DejaVuSans-75" x="218.445312"/>
       <use xlink:href="#DejaVuSans-72" x="281.824219"/>
       <use xlink:href="#DejaVuSans-74" x="322.9375"/>
       <use xlink:href="#DejaVuSans-6f" x="362.146484"/>
       <use xlink:href="#DejaVuSans-73" x="423.328125"/>
       <use xlink:href="#DejaVuSans-69" x="475.427734"/>
       <use xlink:href="#DejaVuSans-73" x="503.210938"/>
       <use xlink:href="#DejaVuSans-5f" x="555.310547"/>
       <use xlink:href="#DejaVuSans-52" x="605.310547"/>
       <use xlink:href="#DejaVuSans-65" x="670.292969"/>
      </g>
     </g>
    </g>
    <g id="ytick_31">
     <g id="line2d_40">
      <g>
       <use xlink:href="#m4b68066f4a" x="126" y="1026.9" style="stroke: #000000; stroke-width: 0.8"/>
      </g>
     </g>
     <g id="text_41">
      <!-- fft_Kurtosis_Im -->
      <g transform="translate(45.78125 1030.699219)scale(0.1 -0.1)">
       <use xlink:href="#DejaVuSans-66"/>
       <use xlink:href="#DejaVuSans-66" x="35.205078"/>
       <use xlink:href="#DejaVuSans-74" x="68.660156"/>
       <use xlink:href="#DejaVuSans-5f" x="107.869141"/>
       <use xlink:href="#DejaVuSans-4b" x="157.869141"/>
       <use xlink:href="#DejaVuSans-75" x="218.445312"/>
       <use xlink:href="#DejaVuSans-72" x="281.824219"/>
       <use xlink:href="#DejaVuSans-74" x="322.9375"/>
       <use xlink:href="#DejaVuSans-6f" x="362.146484"/>
       <use xlink:href="#DejaVuSans-73" x="423.328125"/>
       <use xlink:href="#DejaVuSans-69" x="475.427734"/>
       <use xlink:href="#DejaVuSans-73" x="503.210938"/>
       <use xlink:href="#DejaVuSans-5f" x="555.310547"/>
       <use xlink:href="#DejaVuSans-49" x="605.310547"/>
       <use xlink:href="#DejaVuSans-6d" x="634.802734"/>
      </g>
     </g>
    </g>
    <g id="ytick_32">
     <g id="line2d_41">
      <g>
       <use xlink:href="#m4b68066f4a" x="126" y="1054.62" style="stroke: #000000; stroke-width: 0.8"/>
      </g>
     </g>
     <g id="text_42">
      <!-- psd_Median -->
      <g transform="translate(59.720312 1058.419219)scale(0.1 -0.1)">
       <use xlink:href="#DejaVuSans-70"/>
       <use xlink:href="#DejaVuSans-73" x="63.476562"/>
       <use xlink:href="#DejaVuSans-64" x="115.576172"/>
       <use xlink:href="#DejaVuSans-5f" x="179.052734"/>
       <use xlink:href="#DejaVuSans-4d" x="229.052734"/>
       <use xlink:href="#DejaVuSans-65" x="315.332031"/>
       <use xlink:href="#DejaVuSans-64" x="376.855469"/>
       <use xlink:href="#DejaVuSans-69" x="440.332031"/>
       <use xlink:href="#DejaVuSans-61" x="468.115234"/>
       <use xlink:href="#DejaVuSans-6e" x="529.394531"/>
      </g>
     </g>
    </g>
    <g id="ytick_33">
     <g id="line2d_42">
      <g>
       <use xlink:href="#m4b68066f4a" x="126" y="1082.34" style="stroke: #000000; stroke-width: 0.8"/>
      </g>
     </g>
     <g id="text_43">
      <!-- psd_Mean -->
      <g transform="translate(68.846875 1086.139219)scale(0.1 -0.1)">
       <use xlink:href="#DejaVuSans-70"/>
       <use xlink:href="#DejaVuSans-73" x="63.476562"/>
       <use xlink:href="#DejaVuSans-64" x="115.576172"/>
       <use xlink:href="#DejaVuSans-5f" x="179.052734"/>
       <use xlink:href="#DejaVuSans-4d" x="229.052734"/>
       <use xlink:href="#DejaVuSans-65" x="315.332031"/>
       <use xlink:href="#DejaVuSans-61" x="376.855469"/>
       <use xlink:href="#DejaVuSans-6e" x="438.134766"/>
      </g>
     </g>
    </g>
    <g id="ytick_34">
     <g id="line2d_43">
      <g>
       <use xlink:href="#m4b68066f4a" x="126" y="1110.06" style="stroke: #000000; stroke-width: 0.8"/>
      </g>
     </g>
     <g id="text_44">
      <!-- psd_Std -->
      <g transform="translate(79.476562 1113.859219)scale(0.1 -0.1)">
       <use xlink:href="#DejaVuSans-70"/>
       <use xlink:href="#DejaVuSans-73" x="63.476562"/>
       <use xlink:href="#DejaVuSans-64" x="115.576172"/>
       <use xlink:href="#DejaVuSans-5f" x="179.052734"/>
       <use xlink:href="#DejaVuSans-53" x="229.052734"/>
       <use xlink:href="#DejaVuSans-74" x="292.529297"/>
       <use xlink:href="#DejaVuSans-64" x="331.738281"/>
      </g>
     </g>
    </g>
    <g id="ytick_35">
     <g id="line2d_44">
      <g>
       <use xlink:href="#m4b68066f4a" x="126" y="1137.78" style="stroke: #000000; stroke-width: 0.8"/>
      </g>
     </g>
     <g id="text_45">
      <!-- psd_Maximum -->
      <g transform="translate(46.821875 1141.579219)scale(0.1 -0.1)">
       <use xlink:href="#DejaVuSans-70"/>
       <use xlink:href="#DejaVuSans-73" x="63.476562"/>
       <use xlink:href="#DejaVuSans-64" x="115.576172"/>
       <use xlink:href="#DejaVuSans-5f" x="179.052734"/>
       <use xlink:href="#DejaVuSans-4d" x="229.052734"/>
       <use xlink:href="#DejaVuSans-61" x="315.332031"/>
       <use xlink:href="#DejaVuSans-78" x="376.611328"/>
       <use xlink:href="#DejaVuSans-69" x="435.791016"/>
       <use xlink:href="#DejaVuSans-6d" x="463.574219"/>
       <use xlink:href="#DejaVuSans-75" x="560.986328"/>
       <use xlink:href="#DejaVuSans-6d" x="624.365234"/>
      </g>
     </g>
    </g>
    <g id="ytick_36">
     <g id="line2d_45">
      <g>
       <use xlink:href="#m4b68066f4a" x="126" y="1165.5" style="stroke: #000000; stroke-width: 0.8"/>
      </g>
     </g>
     <g id="text_46">
      <!-- psd_Minimum -->
      <g transform="translate(49.753125 1169.299219)scale(0.1 -0.1)">
       <use xlink:href="#DejaVuSans-70"/>
       <use xlink:href="#DejaVuSans-73" x="63.476562"/>
       <use xlink:href="#DejaVuSans-64" x="115.576172"/>
       <use xlink:href="#DejaVuSans-5f" x="179.052734"/>
       <use xlink:href="#DejaVuSans-4d" x="229.052734"/>
       <use xlink:href="#DejaVuSans-69" x="315.332031"/>
       <use xlink:href="#DejaVuSans-6e" x="343.115234"/>
       <use xlink:href="#DejaVuSans-69" x="406.494141"/>
       <use xlink:href="#DejaVuSans-6d" x="434.277344"/>
       <use xlink:href="#DejaVuSans-75" x="531.689453"/>
       <use xlink:href="#DejaVuSans-6d" x="595.068359"/>
      </g>
     </g>
    </g>
    <g id="ytick_37">
     <g id="line2d_46">
      <g>
       <use xlink:href="#m4b68066f4a" x="126" y="1193.22" style="stroke: #000000; stroke-width: 0.8"/>
      </g>
     </g>
     <g id="text_47">
      <!-- psd_SAD -->
      <g transform="translate(75.017188 1197.019219)scale(0.1 -0.1)">
       <use xlink:href="#DejaVuSans-70"/>
       <use xlink:href="#DejaVuSans-73" x="63.476562"/>
       <use xlink:href="#DejaVuSans-64" x="115.576172"/>
       <use xlink:href="#DejaVuSans-5f" x="179.052734"/>
       <use xlink:href="#DejaVuSans-53" x="229.052734"/>
       <use xlink:href="#DejaVuSans-41" x="294.404297"/>
       <use xlink:href="#DejaVuSans-44" x="362.8125"/>
      </g>
     </g>
    </g>
    <g id="ytick_38">
     <g id="line2d_47">
      <g>
       <use xlink:href="#m4b68066f4a" x="126" y="1220.94" style="stroke: #000000; stroke-width: 0.8"/>
      </g>
     </g>
     <g id="text_48">
      <!-- psd_RMS -->
      <g transform="translate(74.16875 1224.739219)scale(0.1 -0.1)">
       <use xlink:href="#DejaVuSans-70"/>
       <use xlink:href="#DejaVuSans-73" x="63.476562"/>
       <use xlink:href="#DejaVuSans-64" x="115.576172"/>
       <use xlink:href="#DejaVuSans-5f" x="179.052734"/>
       <use xlink:href="#DejaVuSans-52" x="229.052734"/>
       <use xlink:href="#DejaVuSans-4d" x="298.535156"/>
       <use xlink:href="#DejaVuSans-53" x="384.814453"/>
      </g>
     </g>
    </g>
    <g id="ytick_39">
     <g id="line2d_48">
      <g>
       <use xlink:href="#m4b68066f4a" x="126" y="1248.66" style="stroke: #000000; stroke-width: 0.8"/>
      </g>
     </g>
     <g id="text_49">
      <!-- psd_PtP -->
      <g transform="translate(80.114062 1252.459219)scale(0.1 -0.1)">
       <use xlink:href="#DejaVuSans-70"/>
       <use xlink:href="#DejaVuSans-73" x="63.476562"/>
       <use xlink:href="#DejaVuSans-64" x="115.576172"/>
       <use xlink:href="#DejaVuSans-5f" x="179.052734"/>
       <use xlink:href="#DejaVuSans-50" x="229.052734"/>
       <use xlink:href="#DejaVuSans-74" x="289.355469"/>
       <use xlink:href="#DejaVuSans-50" x="328.564453"/>
      </g>
     </g>
    </g>
    <g id="ytick_40">
     <g id="line2d_49">
      <g>
       <use xlink:href="#m4b68066f4a" x="126" y="1276.38" style="stroke: #000000; stroke-width: 0.8"/>
      </g>
     </g>
     <g id="text_50">
      <!-- psd_Kurtosis -->
      <g transform="translate(56.351562 1280.179219)scale(0.1 -0.1)">
       <use xlink:href="#DejaVuSans-70"/>
       <use xlink:href="#DejaVuSans-73" x="63.476562"/>
       <use xlink:href="#DejaVuSans-64" x="115.576172"/>
       <use xlink:href="#DejaVuSans-5f" x="179.052734"/>
       <use xlink:href="#DejaVuSans-4b" x="229.052734"/>
       <use xlink:href="#DejaVuSans-75" x="289.628906"/>
       <use xlink:href="#DejaVuSans-72" x="353.007812"/>
       <use xlink:href="#DejaVuSans-74" x="394.121094"/>
       <use xlink:href="#DejaVuSans-6f" x="433.330078"/>
       <use xlink:href="#DejaVuSans-73" x="494.511719"/>
       <use xlink:href="#DejaVuSans-69" x="546.611328"/>
       <use xlink:href="#DejaVuSans-73" x="574.394531"/>
      </g>
     </g>
    </g>
    <g id="ytick_41">
     <g id="line2d_50">
      <g>
       <use xlink:href="#m4b68066f4a" x="126" y="1304.1" style="stroke: #000000; stroke-width: 0.8"/>
      </g>
     </g>
     <g id="text_51">
      <!-- psd_Skewness -->
      <g transform="translate(47.076562 1307.899219)scale(0.1 -0.1)">
       <use xlink:href="#DejaVuSans-70"/>
       <use xlink:href="#DejaVuSans-73" x="63.476562"/>
       <use xlink:href="#DejaVuSans-64" x="115.576172"/>
       <use xlink:href="#DejaVuSans-5f" x="179.052734"/>
       <use xlink:href="#DejaVuSans-53" x="229.052734"/>
       <use xlink:href="#DejaVuSans-6b" x="292.529297"/>
       <use xlink:href="#DejaVuSans-65" x="346.814453"/>
       <use xlink:href="#DejaVuSans-77" x="408.337891"/>
       <use xlink:href="#DejaVuSans-6e" x="490.125"/>
       <use xlink:href="#DejaVuSans-65" x="553.503906"/>
       <use xlink:href="#DejaVuSans-73" x="615.027344"/>
       <use xlink:href="#DejaVuSans-73" x="667.126953"/>
      </g>
     </g>
    </g>
    <g id="ytick_42">
     <g id="line2d_51">
      <g>
       <use xlink:href="#m4b68066f4a" x="126" y="1331.82" style="stroke: #000000; stroke-width: 0.8"/>
      </g>
     </g>
     <g id="text_52">
      <!-- psd_Variance -->
      <g transform="translate(52.89375 1335.619219)scale(0.1 -0.1)">
       <use xlink:href="#DejaVuSans-70"/>
       <use xlink:href="#DejaVuSans-73" x="63.476562"/>
       <use xlink:href="#DejaVuSans-64" x="115.576172"/>
       <use xlink:href="#DejaVuSans-5f" x="179.052734"/>
       <use xlink:href="#DejaVuSans-56" x="229.052734"/>
       <use xlink:href="#DejaVuSans-61" x="289.710938"/>
       <use xlink:href="#DejaVuSans-72" x="350.990234"/>
       <use xlink:href="#DejaVuSans-69" x="392.103516"/>
       <use xlink:href="#DejaVuSans-61" x="419.886719"/>
       <use xlink:href="#DejaVuSans-6e" x="481.166016"/>
       <use xlink:href="#DejaVuSans-63" x="544.544922"/>
       <use xlink:href="#DejaVuSans-65" x="599.525391"/>
      </g>
     </g>
    </g>
   </g>
   <g id="line2d_52">
    <path clip-path="url(#p80ea00bdb9)" style="fill: none; stroke: #424242; stroke-width: 2.7; stroke-linecap: square"/>
   </g>
   <g id="line2d_53">
    <path clip-path="url(#p80ea00bdb9)" style="fill: none; stroke: #424242; stroke-width: 2.7; stroke-linecap: square"/>
   </g>
   <g id="line2d_54">
    <path clip-path="url(#p80ea00bdb9)" style="fill: none; stroke: #424242; stroke-width: 2.7; stroke-linecap: square"/>
   </g>
   <g id="line2d_55">
    <path clip-path="url(#p80ea00bdb9)" style="fill: none; stroke: #424242; stroke-width: 2.7; stroke-linecap: square"/>
   </g>
   <g id="line2d_56">
    <path clip-path="url(#p80ea00bdb9)" style="fill: none; stroke: #424242; stroke-width: 2.7; stroke-linecap: square"/>
   </g>
   <g id="line2d_57">
    <path clip-path="url(#p80ea00bdb9)" style="fill: none; stroke: #424242; stroke-width: 2.7; stroke-linecap: square"/>
   </g>
   <g id="line2d_58">
    <path clip-path="url(#p80ea00bdb9)" style="fill: none; stroke: #424242; stroke-width: 2.7; stroke-linecap: square"/>
   </g>
   <g id="line2d_59">
    <path clip-path="url(#p80ea00bdb9)" style="fill: none; stroke: #424242; stroke-width: 2.7; stroke-linecap: square"/>
   </g>
   <g id="line2d_60">
    <path clip-path="url(#p80ea00bdb9)" style="fill: none; stroke: #424242; stroke-width: 2.7; stroke-linecap: square"/>
   </g>
   <g id="line2d_61">
    <path clip-path="url(#p80ea00bdb9)" style="fill: none; stroke: #424242; stroke-width: 2.7; stroke-linecap: square"/>
   </g>
   <g id="line2d_62">
    <path clip-path="url(#p80ea00bdb9)" style="fill: none; stroke: #424242; stroke-width: 2.7; stroke-linecap: square"/>
   </g>
   <g id="line2d_63">
    <path clip-path="url(#p80ea00bdb9)" style="fill: none; stroke: #424242; stroke-width: 2.7; stroke-linecap: square"/>
   </g>
   <g id="line2d_64">
    <path clip-path="url(#p80ea00bdb9)" style="fill: none; stroke: #424242; stroke-width: 2.7; stroke-linecap: square"/>
   </g>
   <g id="line2d_65">
    <path clip-path="url(#p80ea00bdb9)" style="fill: none; stroke: #424242; stroke-width: 2.7; stroke-linecap: square"/>
   </g>
   <g id="line2d_66">
    <path clip-path="url(#p80ea00bdb9)" style="fill: none; stroke: #424242; stroke-width: 2.7; stroke-linecap: square"/>
   </g>
   <g id="line2d_67">
    <path clip-path="url(#p80ea00bdb9)" style="fill: none; stroke: #424242; stroke-width: 2.7; stroke-linecap: square"/>
   </g>
   <g id="line2d_68">
    <path clip-path="url(#p80ea00bdb9)" style="fill: none; stroke: #424242; stroke-width: 2.7; stroke-linecap: square"/>
   </g>
   <g id="line2d_69">
    <path clip-path="url(#p80ea00bdb9)" style="fill: none; stroke: #424242; stroke-width: 2.7; stroke-linecap: square"/>
   </g>
   <g id="line2d_70">
    <path clip-path="url(#p80ea00bdb9)" style="fill: none; stroke: #424242; stroke-width: 2.7; stroke-linecap: square"/>
   </g>
   <g id="line2d_71">
    <path clip-path="url(#p80ea00bdb9)" style="fill: none; stroke: #424242; stroke-width: 2.7; stroke-linecap: square"/>
   </g>
   <g id="line2d_72">
    <path clip-path="url(#p80ea00bdb9)" style="fill: none; stroke: #424242; stroke-width: 2.7; stroke-linecap: square"/>
   </g>
   <g id="line2d_73">
    <path clip-path="url(#p80ea00bdb9)" style="fill: none; stroke: #424242; stroke-width: 2.7; stroke-linecap: square"/>
   </g>
   <g id="line2d_74">
    <path clip-path="url(#p80ea00bdb9)" style="fill: none; stroke: #424242; stroke-width: 2.7; stroke-linecap: square"/>
   </g>
   <g id="line2d_75">
    <path clip-path="url(#p80ea00bdb9)" style="fill: none; stroke: #424242; stroke-width: 2.7; stroke-linecap: square"/>
   </g>
   <g id="line2d_76">
    <path clip-path="url(#p80ea00bdb9)" style="fill: none; stroke: #424242; stroke-width: 2.7; stroke-linecap: square"/>
   </g>
   <g id="line2d_77">
    <path clip-path="url(#p80ea00bdb9)" style="fill: none; stroke: #424242; stroke-width: 2.7; stroke-linecap: square"/>
   </g>
   <g id="line2d_78">
    <path clip-path="url(#p80ea00bdb9)" style="fill: none; stroke: #424242; stroke-width: 2.7; stroke-linecap: square"/>
   </g>
   <g id="line2d_79">
    <path clip-path="url(#p80ea00bdb9)" style="fill: none; stroke: #424242; stroke-width: 2.7; stroke-linecap: square"/>
   </g>
   <g id="line2d_80">
    <path clip-path="url(#p80ea00bdb9)" style="fill: none; stroke: #424242; stroke-width: 2.7; stroke-linecap: square"/>
   </g>
   <g id="line2d_81">
    <path clip-path="url(#p80ea00bdb9)" style="fill: none; stroke: #424242; stroke-width: 2.7; stroke-linecap: square"/>
   </g>
   <g id="line2d_82">
    <path clip-path="url(#p80ea00bdb9)" style="fill: none; stroke: #424242; stroke-width: 2.7; stroke-linecap: square"/>
   </g>
   <g id="line2d_83">
    <path clip-path="url(#p80ea00bdb9)" style="fill: none; stroke: #424242; stroke-width: 2.7; stroke-linecap: square"/>
   </g>
   <g id="line2d_84">
    <path clip-path="url(#p80ea00bdb9)" style="fill: none; stroke: #424242; stroke-width: 2.7; stroke-linecap: square"/>
   </g>
   <g id="line2d_85">
    <path clip-path="url(#p80ea00bdb9)" style="fill: none; stroke: #424242; stroke-width: 2.7; stroke-linecap: square"/>
   </g>
   <g id="line2d_86">
    <path clip-path="url(#p80ea00bdb9)" style="fill: none; stroke: #424242; stroke-width: 2.7; stroke-linecap: square"/>
   </g>
   <g id="line2d_87">
    <path clip-path="url(#p80ea00bdb9)" style="fill: none; stroke: #424242; stroke-width: 2.7; stroke-linecap: square"/>
   </g>
   <g id="line2d_88">
    <path clip-path="url(#p80ea00bdb9)" style="fill: none; stroke: #424242; stroke-width: 2.7; stroke-linecap: square"/>
   </g>
   <g id="line2d_89">
    <path clip-path="url(#p80ea00bdb9)" style="fill: none; stroke: #424242; stroke-width: 2.7; stroke-linecap: square"/>
   </g>
   <g id="line2d_90">
    <path clip-path="url(#p80ea00bdb9)" style="fill: none; stroke: #424242; stroke-width: 2.7; stroke-linecap: square"/>
   </g>
   <g id="line2d_91">
    <path clip-path="url(#p80ea00bdb9)" style="fill: none; stroke: #424242; stroke-width: 2.7; stroke-linecap: square"/>
   </g>
   <g id="line2d_92">
    <path clip-path="url(#p80ea00bdb9)" style="fill: none; stroke: #424242; stroke-width: 2.7; stroke-linecap: square"/>
   </g>
   <g id="line2d_93">
    <path clip-path="url(#p80ea00bdb9)" style="fill: none; stroke: #424242; stroke-width: 2.7; stroke-linecap: square"/>
   </g>
   <g id="patch_45">
    <path d="M 126 1345.68 
L 126 181.44 
" style="fill: none; stroke: #000000; stroke-width: 0.8; stroke-linejoin: miter; stroke-linecap: square"/>
   </g>
   <g id="patch_46">
    <path d="M 126 1345.68 
L 907.2 1345.68 
" style="fill: none; stroke: #000000; stroke-width: 0.8; stroke-linejoin: miter; stroke-linecap: square"/>
   </g>
   <g id="text_53">
    <!-- ﻑﺍ ﻥﻮﻣﺯﺁ ﺱﺎﺳﺍ ﺮﺑ ﺐﺨﺘﻨﻣ ﯼﺎﻫﯽﮔﮋﯾﻭ ﻪﺴﯾﺎﻘﻣ -->
    <g transform="translate(405.29125 175.44)scale(0.16 -0.16)">
     <defs>
      <path id="BNazanin-fed1" d="M 4303 1134 
L 4303 1063 
Q 4303 641 4172 441 
Q 3850 -53 1950 -53 
Q 491 -53 484 766 
Q 481 1163 703 1491 
Q 750 1559 791 1559 
Q 822 1559 825 1500 
Q 816 1469 753 1234 
Q 728 1138 728 1028 
Q 728 616 1291 478 
Q 1572 409 2172 409 
Q 3897 409 4084 759 
Q 4113 813 4116 906 
Q 4119 984 4100 1034 
Q 3788 981 3547 981 
Q 2988 981 2984 1447 
Q 2981 1772 3134 2078 
Q 3322 2450 3616 2450 
Q 3881 2450 4078 2116 
Q 4303 1734 4303 1134 
z
M 3997 1481 
Q 3997 1672 3865 1828 
Q 3734 1984 3547 1984 
Q 3238 1984 3231 1684 
Q 3228 1434 3616 1428 
Q 3775 1425 3997 1481 
z
M 3809 3328 
L 3484 3003 
L 3156 3331 
L 3481 3656 
L 3809 3328 
z
" transform="scale(0.015625)"/>
      <path id="BNazanin-fee5" d="M 3453 59 
Q 3488 -150 3488 -291 
Q 3488 -516 3413 -728 
Q 3256 -1175 2709 -1422 
Q 2253 -1628 1716 -1628 
Q 1191 -1628 853 -1369 
Q 484 -1081 484 -569 
Q 484 -297 619 13 
Q 716 234 819 359 
Q 869 419 909 419 
Q 947 419 947 375 
Q 947 347 928 309 
Q 750 -56 750 -359 
Q 750 -656 947 -872 
Q 1206 -1156 1731 -1156 
Q 2325 -1156 2781 -944 
Q 3156 -769 3250 -563 
Q 3281 -494 3281 -391 
Q 3281 -231 3200 0 
Q 3131 194 2825 628 
L 2988 953 
Q 3025 1025 3044 1025 
Q 3063 1025 3100 966 
Q 3375 538 3453 59 
z
M 2275 1791 
L 1950 1466 
L 1622 1794 
L 1947 2119 
L 2275 1791 
z
" transform="scale(0.015625)"/>
      <path id="BNazanin-feee" d="M 2484 3 
L 2050 3 
Q 1994 -813 1422 -1388 
Q 1241 -1569 1194 -1569 
Q 866 -1569 416 -1500 
Q 269 -1478 269 -1453 
Q 269 -1428 425 -1381 
Q 919 -1238 1328 -881 
Q 1503 -728 1647 -528 
Q 1828 -275 1828 -103 
L 1828 3 
L 1328 3 
Q 753 3 753 469 
Q 753 766 925 1106 
Q 1122 1494 1375 1494 
Q 1684 1494 1872 1113 
Q 2009 834 2044 466 
L 2484 466 
L 2484 3 
z
M 1769 472 
Q 1769 653 1641 838 
Q 1497 1047 1309 1047 
Q 1188 1047 1091 948 
Q 994 850 994 728 
Q 994 456 1459 456 
Q 1581 456 1769 472 
z
" transform="scale(0.015625)"/>
      <path id="BNazanin-fe81" d="M 1350 497 
Q 1350 259 1247 50 
Q 1188 -72 1166 -72 
Q 1141 -72 1141 81 
Q 1141 775 897 3469 
L 1228 3778 
Q 1272 3819 1288 3822 
Q 1303 3822 1306 3753 
Q 1350 2994 1350 497 
z
M 1609 4284 
Q 1350 4072 966 4072 
Q 909 4072 796 4086 
Q 684 4100 628 4100 
Q 591 4100 520 4012 
Q 450 3925 422 3925 
Q 369 3925 369 4000 
Q 369 4050 438 4203 
Q 513 4372 569 4372 
Q 647 4372 801 4345 
Q 956 4319 1034 4319 
Q 1378 4319 1547 4366 
Q 1638 4391 1666 4391 
Q 1691 4391 1691 4375 
Q 1691 4350 1609 4284 
z
" transform="scale(0.015625)"/>
      <path id="BNazanin-feb1" d="M 5547 841 
Q 5547 -6 4834 -6 
Q 4441 -6 4297 344 
Q 4100 -16 3725 -16 
Q 3588 -16 3428 34 
Q 3416 -325 3384 -728 
Q 3225 -1175 2697 -1419 
Q 2244 -1628 1716 -1628 
Q 1191 -1628 853 -1369 
Q 484 -1081 484 -569 
Q 484 -297 619 13 
Q 716 234 819 359 
Q 869 419 909 419 
Q 947 419 947 375 
Q 947 347 928 309 
Q 750 -56 750 -359 
Q 750 -656 947 -872 
Q 1206 -1156 1731 -1156 
Q 2325 -1156 2766 -944 
Q 3128 -769 3222 -563 
Q 3253 -494 3231 -297 
Q 3209 -97 3172 0 
Q 3100 188 2784 594 
L 2959 925 
Q 2997 997 3016 997 
Q 3031 997 3072 938 
Q 3238 688 3300 628 
Q 3469 463 3706 463 
Q 3972 463 4091 606 
Q 4169 703 4216 947 
Q 4238 1066 4291 1066 
Q 4338 1066 4350 959 
Q 4388 669 4525 559 
Q 4663 450 4963 450 
Q 5088 450 5178 516 
Q 5281 588 5281 706 
Q 5281 878 5050 1138 
L 5253 1484 
Q 5284 1538 5300 1541 
Q 5319 1531 5350 1484 
Q 5547 1181 5547 841 
z
" transform="scale(0.015625)"/>
      <path id="BNazanin-feb3" d="M 3234 856 
Q 3234 500 3069 269 
Q 2881 3 2541 3 
Q 2141 3 1966 331 
Q 1744 3 1403 3 
Q 966 3 819 331 
Q 591 3 197 3 
L -81 3 
L -81 466 
L 238 466 
Q 672 466 750 934 
Q 769 1050 825 1050 
Q 875 1050 888 931 
Q 934 466 1391 466 
Q 1659 466 1772 603 
Q 1850 700 1884 931 
Q 1900 1044 1950 1044 
Q 2003 1044 2019 934 
Q 2081 466 2500 466 
Q 2956 466 2956 681 
Q 2956 853 2731 1138 
L 2913 1478 
Q 2956 1559 2975 1559 
Q 2994 1559 3044 1469 
Q 3234 1122 3234 856 
z
" transform="scale(0.015625)"/>
      <path id="BNazanin-feae" d="M 2488 3 
L 2319 3 
Q 2100 3 1988 78 
Q 1994 16 1994 -47 
Q 1994 -609 1628 -1131 
Q 1313 -1581 1113 -1581 
Q 656 -1581 325 -1534 
Q 216 -1519 216 -1481 
Q 216 -1444 328 -1422 
Q 797 -1325 1272 -925 
Q 1778 -497 1778 -103 
Q 1778 159 1359 566 
L 1544 941 
Q 1566 988 1581 991 
Q 1600 984 1634 938 
Q 1819 694 1919 613 
Q 2106 466 2363 466 
L 2488 466 
L 2488 3 
z
" transform="scale(0.015625)"/>
      <path id="BNazanin-fe91" d="M 1038 797 
Q 1038 3 247 3 
L -81 3 
L -81 466 
L 191 466 
Q 788 466 788 681 
Q 788 831 516 1178 
L 678 1572 
Q 703 1631 719 1631 
Q 734 1631 784 1559 
Q 1038 1188 1038 797 
z
M 909 -878 
L 584 -1203 
L 256 -875 
L 581 -550 
L 909 -878 
z
" transform="scale(0.015625)"/>
      <path id="BNazanin-fe90" d="M 4803 3 
L 4634 3 
Q 4353 3 4175 131 
Q 3972 275 3969 544 
Q 3303 -72 1916 -72 
Q 484 -72 484 797 
Q 484 1091 706 1406 
Q 747 1466 794 1466 
Q 838 1466 838 1409 
Q 838 1384 822 1347 
Q 734 1147 734 988 
Q 734 391 2034 391 
Q 3550 391 4047 1050 
Q 4147 1181 4200 1181 
Q 4238 1181 4238 1106 
Q 4238 1053 4216 947 
Q 4194 841 4194 788 
Q 4194 466 4634 466 
L 4803 466 
L 4803 3 
z
M 2669 -906 
L 2344 -1231 
L 2019 -903 
L 2344 -578 
L 2669 -906 
z
" transform="scale(0.015625)"/>
      <path id="BNazanin-fea8" d="M 3606 3 
L 3200 3 
Q 2413 3 2413 784 
Q 2413 875 2422 991 
Q 2150 859 1666 559 
Q 1209 275 969 172 
Q 581 3 203 3 
L -81 3 
L -81 466 
L 219 466 
Q 719 466 1209 716 
Q 1453 844 2088 1172 
Q 1950 1200 1388 1347 
Q 978 1453 897 1453 
Q 681 1453 425 1234 
Q 378 1194 341 1194 
Q 300 1194 300 1247 
Q 300 1269 313 1306 
Q 513 1900 984 1900 
Q 1163 1900 1447 1803 
Q 1881 1656 2169 1591 
Q 2559 1503 3134 1516 
Q 3225 1519 3238 1503 
Q 3250 1488 3222 1416 
L 3088 1069 
Q 2713 1072 2622 1025 
Q 2622 756 2684 656 
Q 2803 466 3216 466 
L 3606 466 
L 3606 3 
z
M 2069 2988 
L 1744 2663 
L 1419 2991 
L 1744 3316 
L 2069 2988 
z
" transform="scale(0.015625)"/>
      <path id="BNazanin-fee8" d="M 2050 3 
L 1744 3 
Q 1191 3 1003 366 
Q 797 3 178 3 
L -81 3 
L -81 466 
L 275 466 
Q 859 466 913 919 
Q 934 1100 1003 1100 
Q 1072 1100 1091 913 
Q 1131 466 1697 466 
L 2050 466 
L 2050 3 
z
M 1256 2069 
L 931 1744 
L 603 2069 
L 928 2394 
L 1256 2069 
z
" transform="scale(0.015625)"/>
      <path id="BNazanin-fbfc" d="M 4122 1466 
Q 4147 1353 4131 1338 
Q 4119 1322 4031 1372 
Q 3847 1475 3563 1475 
Q 3169 1475 2831 1141 
Q 2553 863 2553 700 
Q 2553 506 3109 406 
Q 3719 294 3822 113 
Q 3844 75 3844 -9 
Q 3844 -338 3634 -672 
Q 3497 -894 3034 -1078 
Q 2463 -1306 1725 -1306 
Q 1206 -1306 863 -1041 
Q 484 -747 484 -244 
Q 484 316 850 797 
Q 906 869 959 884 
Q 1009 897 1009 847 
Q 1009 809 975 747 
Q 741 316 741 -56 
Q 741 -328 944 -547 
Q 1222 -844 1769 -844 
Q 2256 -844 2797 -722 
Q 3578 -547 3578 -231 
Q 3578 -113 2813 34 
Q 2528 91 2425 150 
Q 2278 238 2278 447 
Q 2278 838 2684 1363 
Q 3122 1928 3550 1928 
Q 4016 1928 4122 1466 
z
" transform="scale(0.015625)"/>
      <path id="BNazanin-feeb" d="M 2522 819 
Q 2522 597 2372 350 
Q 2194 59 1953 59 
Q 1766 59 1097 334 
Q 575 3 138 3 
L -81 3 
L -81 466 
L 153 466 
Q 419 466 628 522 
Q 381 697 381 997 
Q 381 1384 903 1784 
L 638 1916 
Q 753 2031 981 2269 
Q 1544 1997 1934 1691 
Q 2522 1228 2522 819 
z
M 2309 663 
Q 2309 825 2063 1063 
Q 1863 1256 1697 1341 
Q 1697 866 1422 634 
Q 1916 472 2066 472 
Q 2309 472 2309 663 
z
M 1469 1134 
Q 1469 1288 1400 1416 
Q 1319 1569 1178 1569 
Q 1022 1569 844 1434 
Q 656 1294 656 1144 
Q 656 881 1091 753 
Q 1228 784 1341 888 
Q 1469 1003 1469 1134 
z
" transform="scale(0.015625)"/>
      <path id="BNazanin-fbfd" d="M 4075 3 
L 3163 3 
Q 2994 3 2838 -50 
Q 2622 -122 2622 -253 
Q 2622 -284 3198 -412 
Q 3775 -541 3775 -666 
Q 3775 -1138 3503 -1369 
Q 3044 -1763 1884 -1763 
Q 484 -1763 484 -728 
Q 484 -494 584 -208 
Q 684 78 828 266 
Q 884 341 931 344 
Q 978 347 978 294 
Q 978 247 941 175 
Q 759 -169 759 -538 
Q 759 -947 1147 -1144 
Q 1444 -1294 1900 -1294 
Q 2384 -1294 2788 -1244 
Q 3513 -1153 3513 -934 
Q 3513 -844 3197 -791 
Q 2694 -706 2616 -684 
Q 2300 -597 2300 -416 
Q 2300 -272 2453 -56 
Q 2581 122 2722 238 
Q 3003 466 3522 466 
L 4075 466 
L 4075 3 
z
" transform="scale(0.015625)"/>
      <path id="BNazanin-fb94" d="M 2403 3841 
L 2322 3544 
L 363 2916 
L 447 3203 
L 2403 3841 
z
M 2488 3244 
Q 2472 3141 2363 2803 
Q 1638 2622 597 2266 
Q 1338 1559 1403 1091 
Q 1447 763 1328 500 
Q 1197 209 903 100 
Q 644 3 91 3 
L -81 3 
L -81 466 
L 56 466 
Q 1197 466 1197 859 
Q 1197 1178 572 1778 
L 519 1678 
Q 453 1731 303 1913 
Q 141 2109 141 2156 
Q 141 2359 291 2525 
Q 325 2563 1088 2816 
Q 1897 3084 2488 3244 
z
" transform="scale(0.015625)"/>
      <path id="BNazanin-fb8b" d="M 2488 3 
L 2319 3 
Q 2100 3 1988 78 
Q 1994 16 1994 -47 
Q 1994 -609 1628 -1131 
Q 1313 -1581 1113 -1581 
Q 656 -1581 325 -1534 
Q 216 -1519 216 -1481 
Q 216 -1444 328 -1422 
Q 797 -1325 1272 -925 
Q 1778 -497 1778 -103 
Q 1778 159 1359 566 
L 1544 941 
Q 1566 988 1581 991 
Q 1600 984 1634 938 
Q 1819 694 1919 613 
Q 2106 466 2363 466 
L 2488 466 
L 2488 3 
z
M 1559 2609 
L 1266 2319 
L 972 2613 
L 1263 2903 
L 1559 2609 
z
M 1919 1984 
L 1625 1694 
L 1328 1988 
L 1622 2278 
L 1919 1984 
z
M 1206 1984 
L 913 1694 
L 616 1988 
L 913 2278 
L 1206 1984 
z
" transform="scale(0.015625)"/>
      <path id="BNazanin-fbfe" d="M 1038 797 
Q 1038 3 247 3 
L -81 3 
L -81 466 
L 191 466 
Q 788 466 788 681 
Q 788 831 516 1178 
L 678 1572 
Q 703 1631 719 1631 
Q 734 1631 784 1559 
Q 1038 1188 1038 797 
z
M 1406 -878 
L 1097 -1188 
L 788 -875 
L 1097 -566 
L 1406 -878 
z
M 722 -878 
L 413 -1188 
L 103 -875 
L 409 -566 
L 722 -878 
z
" transform="scale(0.015625)"/>
      <path id="BNazanin-feed" d="M 2056 163 
Q 2056 -731 1441 -1369 
Q 1247 -1569 1194 -1569 
Q 853 -1569 416 -1500 
Q 263 -1475 263 -1453 
Q 263 -1428 425 -1381 
Q 909 -1241 1328 -881 
Q 1503 -731 1647 -528 
Q 1828 -275 1828 -103 
L 1828 28 
L 1306 9 
Q 753 -9 753 469 
Q 753 766 925 1106 
Q 1122 1494 1375 1494 
Q 1750 1494 1931 978 
Q 2056 622 2056 163 
z
M 1769 494 
Q 1769 688 1638 859 
Q 1497 1047 1309 1047 
Q 1184 1047 1092 953 
Q 1000 859 1000 734 
Q 1000 459 1394 459 
Q 1541 459 1769 494 
z
" transform="scale(0.015625)"/>
      <path id="BNazanin-feea" d="M 2738 3 
L 2441 3 
Q 1928 3 1791 641 
Q 1509 363 1466 363 
L 1113 363 
Q 925 363 741 419 
Q 484 497 484 638 
Q 484 1088 803 1369 
Q 1016 1556 1538 1763 
L 1459 2147 
L 1728 2450 
Q 1744 2400 2000 1141 
Q 2078 756 2144 641 
Q 2244 466 2459 466 
L 2738 466 
L 2738 3 
z
M 1741 819 
L 1606 1453 
Q 1403 1394 1122 1256 
Q 738 1069 738 959 
Q 738 869 1031 819 
Q 1238 784 1397 784 
Q 1594 784 1741 819 
z
" transform="scale(0.015625)"/>
      <path id="BNazanin-feb4" d="M 3772 3 
L 3550 3 
Q 3147 3 2984 331 
Q 2841 3 2453 3 
Q 2116 3 1934 331 
Q 1766 3 1403 3 
Q 966 3 819 331 
Q 591 3 197 3 
L -81 3 
L -81 466 
L 238 466 
Q 672 466 750 934 
Q 769 1050 825 1050 
Q 875 1050 888 931 
Q 934 466 1391 466 
Q 1834 466 1884 931 
Q 1897 1050 1947 1050 
Q 2003 1050 2019 934 
Q 2081 466 2438 466 
Q 2881 466 2931 931 
Q 2944 1050 2994 1050 
Q 3050 1050 3066 934 
Q 3125 466 3541 466 
L 3772 466 
L 3772 3 
z
" transform="scale(0.015625)"/>
      <path id="BNazanin-fed8" d="M 2247 3 
L 2041 3 
Q 1847 3 1578 75 
Q 1291 150 1150 253 
Q 784 3 209 3 
L -81 3 
L -81 466 
L 106 466 
Q 563 466 722 534 
Q 497 709 497 991 
Q 497 1238 703 1572 
Q 944 1959 1234 1959 
Q 1519 1959 1672 1650 
Q 1791 1409 1791 1091 
Q 1791 759 1519 541 
Q 1669 466 2088 466 
L 2247 466 
L 2247 3 
z
M 1559 1031 
Q 1559 1172 1437 1334 
Q 1316 1497 1178 1497 
Q 1050 1497 897 1358 
Q 744 1219 744 1091 
Q 744 950 891 819 
Q 1025 697 1172 669 
Q 1300 691 1413 775 
Q 1559 884 1559 1031 
z
M 1759 2969 
L 1450 2663 
L 1141 2972 
L 1447 3281 
L 1759 2969 
z
M 1075 2969 
L 766 2663 
L 453 2972 
L 763 3281 
L 1075 2969 
z
" transform="scale(0.015625)"/>
     </defs>
     <use xlink:href="#BNazanin-fed1"/>
     <use xlink:href="#BNazanin-fe8d" x="67.333984"/>
     <use xlink:href="#BNazanin-20" x="82.03125"/>
     <use xlink:href="#BNazanin-fee5" x="106.445312"/>
     <use xlink:href="#BNazanin-feee" x="161.035156"/>
     <use xlink:href="#BNazanin-fee3" x="198.535156"/>
     <use xlink:href="#BNazanin-feaf" x="230.859375"/>
     <use xlink:href="#BNazanin-fe81" x="262.451172"/>
     <use xlink:href="#BNazanin-20" x="287.158203"/>
     <use xlink:href="#BNazanin-feb1" x="311.572266"/>
     <use xlink:href="#BNazanin-fe8e" x="398.291016"/>
     <use xlink:href="#BNazanin-feb3" x="421.728516"/>
     <use xlink:href="#BNazanin-fe8d" x="472.558594"/>
     <use xlink:href="#BNazanin-20" x="487.255859"/>
     <use xlink:href="#BNazanin-feae" x="511.669922"/>
     <use xlink:href="#BNazanin-fe91" x="549.267578"/>
     <use xlink:href="#BNazanin-20" x="565.527344"/>
     <use xlink:href="#BNazanin-fe90" x="589.941406"/>
     <use xlink:href="#BNazanin-fea8" x="663.720703"/>
     <use xlink:href="#BNazanin-fe98" x="718.359375"/>
     <use xlink:href="#BNazanin-fee8" x="749.121094"/>
     <use xlink:href="#BNazanin-fee3" x="779.882812"/>
     <use xlink:href="#BNazanin-20" x="812.207031"/>
     <use xlink:href="#BNazanin-fbfc" x="836.621094"/>
     <use xlink:href="#BNazanin-fe8e" x="901.367188"/>
     <use xlink:href="#BNazanin-feeb" x="924.804688"/>
     <use xlink:href="#BNazanin-fbfd" x="964.257812"/>
     <use xlink:href="#BNazanin-fb94" x="1026.611328"/>
     <use xlink:href="#BNazanin-fb8b" x="1063.964844"/>
     <use xlink:href="#BNazanin-fbfe" x="1101.5625"/>
     <use xlink:href="#BNazanin-feed" x="1123.779297"/>
     <use xlink:href="#BNazanin-20" x="1155.957031"/>
     <use xlink:href="#BNazanin-feea" x="1180.371094"/>
     <use xlink:href="#BNazanin-feb4" x="1221.875"/>
     <use xlink:href="#BNazanin-fbfe" x="1279.492188"/>
     <use xlink:href="#BNazanin-fe8e" x="1301.708984"/>
     <use xlink:href="#BNazanin-fed8" x="1325.146484"/>
     <use xlink:href="#BNazanin-fee3" x="1358.935547"/>
    </g>
   </g>
  </g>
 </g>
 <defs>
  <clipPath id="p80ea00bdb9">
   <rect x="126" y="181.44" width="781.2" height="1164.24"/>
  </clipPath>
 </defs>
</svg>
