<?xml version="1.0" encoding="utf-8" standalone="no"?>
<!DOCTYPE svg PUBLIC "-//W3C//DTD SVG 1.1//EN"
  "http://www.w3.org/Graphics/SVG/1.1/DTD/svg11.dtd">
<svg xmlns:xlink="http://www.w3.org/1999/xlink" width="1152pt" height="648pt" viewBox="0 0 1152 648" xmlns="http://www.w3.org/2000/svg" version="1.1">
 <metadata>
  <rdf:RDF xmlns:dc="http://purl.org/dc/elements/1.1/" xmlns:cc="http://creativecommons.org/ns#" xmlns:rdf="http://www.w3.org/1999/02/22-rdf-syntax-ns#">
   <cc:Work>
    <dc:type rdf:resource="http://purl.org/dc/dcmitype/StillImage"/>
    <dc:date>2022-08-26T14:11:51.661339</dc:date>
    <dc:format>image/svg+xml</dc:format>
    <dc:creator>
     <cc:Agent>
      <dc:title>Matplotlib v3.5.3, https://matplotlib.org/</dc:title>
     </cc:Agent>
    </dc:creator>
   </cc:Work>
  </rdf:RDF>
 </metadata>
 <defs>
  <style type="text/css">*{stroke-linejoin: round; stroke-linecap: butt}</style>
 </defs>
 <g id="figure_1">
  <g id="patch_1">
   <path d="M 0 648 
L 1152 648 
L 1152 0 
L 0 0 
z
" style="fill: #ffffff"/>
  </g>
  <g id="axes_1">
   <g id="patch_2">
    <path d="M 65.918214 606.04 
L 1134.9 606.04 
L 1134.9 26.4075 
L 65.918214 26.4075 
z
" style="fill: #ffffff"/>
   </g>
   <g id="PolyCollection_1">
    <path d="M 65.918214 107353.468542 
L 65.918214 217.626585 
L 74.269634 139.078757 
L 82.621054 173.631129 
L 90.972474 210.733634 
L 99.323894 256.576723 
L 107.675315 266.892613 
L 116.026735 280.575168 
L 124.378155 299.249846 
L 132.729575 319.665704 
L 141.080995 331.414171 
L 149.432416 336.799061 
L 157.783836 343.598636 
L 166.135256 340.339648 
L 174.486676 346.029177 
L 182.838096 353.400965 
L 191.189517 355.167488 
L 199.540937 356.863485 
L 207.892357 357.362603 
L 216.243777 365.783227 
L 224.595197 377.698728 
L 232.946618 385.576828 
L 241.298038 391.583442 
L 249.649458 395.20539 
L 258.000878 397.01668 
L 266.352299 399.215538 
L 274.703719 401.436253 
L 283.055139 403.750329 
L 291.406559 405.71053 
L 299.757979 400.06055 
L 308.1094 387.728769 
L 316.46082 372.328251 
L 324.81224 371.040222 
L 333.16366 386.078231 
L 341.51508 397.666381 
L 349.866501 412.018877 
L 358.217921 426.188934 
L 366.569341 439.24122 
L 374.920761 441.040945 
L 383.272181 445.538351 
L 391.623602 445.332292 
L 399.975022 440.127362 
L 408.326442 444.387715 
L 416.677862 440.587841 
L 425.029282 438.600038 
L 433.380703 441.079834 
L 441.732123 439.933832 
L 450.083543 439.88884 
L 458.434963 440.853074 
L 466.786383 442.295342 
L 475.137804 442.684869 
L 483.489224 440.930349 
L 491.840644 441.116235 
L 500.192064 441.727704 
L 508.543485 440.750237 
L 516.894905 440.987196 
L 525.246325 438.268483 
L 533.597745 438.596261 
L 541.949165 440.380039 
L 550.300586 442.369885 
L 558.652006 445.223271 
L 567.003426 443.357005 
L 575.354846 443.935238 
L 583.706266 441.562489 
L 592.057687 443.342819 
L 600.409107 441.13334 
L 608.760527 441.377312 
L 617.111947 440.939225 
L 625.463367 438.342104 
L 633.814788 436.897096 
L 642.166208 433.992913 
L 650.517628 432.864022 
L 658.869048 431.441319 
L 667.220468 434.121353 
L 675.571889 434.752829 
L 683.923309 434.274113 
L 692.274729 434.752818 
L 700.626149 435.976713 
L 708.977569 438.395666 
L 717.32899 442.645286 
L 725.68041 445.503056 
L 734.03183 448.02725 
L 742.38325 445.311551 
L 750.734671 443.744393 
L 759.086091 444.547853 
L 767.437511 446.565393 
L 775.788931 446.714831 
L 784.140351 449.797737 
L 792.491772 449.202181 
L 800.843192 447.138496 
L 809.194612 450.904669 
L 817.546032 449.187034 
L 825.897452 447.768205 
L 834.248873 450.80868 
L 842.600293 448.711048 
L 850.951713 450.757022 
L 859.303133 453.77966 
L 867.654553 450.359513 
L 876.005974 450.760924 
L 884.357394 452.943766 
L 892.708814 451.442016 
L 901.060234 453.728163 
L 909.411654 451.181965 
L 917.763075 451.493939 
L 926.114495 448.658851 
L 934.465915 447.23148 
L 942.817335 446.776537 
L 951.168755 444.359204 
L 959.520176 447.090369 
L 967.871596 445.336022 
L 976.223016 447.59394 
L 984.574436 440.806979 
L 992.925856 438.569502 
L 1001.277277 439.310012 
L 1009.628697 442.183574 
L 1017.980117 440.730258 
L 1026.331537 442.665165 
L 1034.682958 441.34387 
L 1043.034378 440.138668 
L 1051.385798 437.142784 
L 1059.737218 435.199002 
L 1068.088638 439.361265 
L 1076.440059 437.749682 
L 1084.791479 434.873654 
L 1093.142899 437.482511 
L 1101.494319 435.468955 
L 1109.845739 437.638119 
L 1118.19716 440.921817 
L 1126.54858 442.706625 
L 1134.9 473.121271 
L 1134.9 107353.468542 
L 1134.9 107353.468542 
L 1126.54858 107353.468542 
L 1118.19716 107353.468542 
L 1109.845739 107353.468542 
L 1101.494319 107353.468542 
L 1093.142899 107353.468542 
L 1084.791479 107353.468542 
L 1076.440059 107353.468542 
L 1068.088638 107353.468542 
L 1059.737218 107353.468542 
L 1051.385798 107353.468542 
L 1043.034378 107353.468542 
L 1034.682958 107353.468542 
L 1026.331537 107353.468542 
L 1017.980117 107353.468542 
L 1009.628697 107353.468542 
L 1001.277277 107353.468542 
L 992.925856 107353.468542 
L 984.574436 107353.468542 
L 976.223016 107353.468542 
L 967.871596 107353.468542 
L 959.520176 107353.468542 
L 951.168755 107353.468542 
L 942.817335 107353.468542 
L 934.465915 107353.468542 
L 926.114495 107353.468542 
L 917.763075 107353.468542 
L 909.411654 107353.468542 
L 901.060234 107353.468542 
L 892.708814 107353.468542 
L 884.357394 107353.468542 
L 876.005974 107353.468542 
L 867.654553 107353.468542 
L 859.303133 107353.468542 
L 850.951713 107353.468542 
L 842.600293 107353.468542 
L 834.248873 107353.468542 
L 825.897452 107353.468542 
L 817.546032 107353.468542 
L 809.194612 107353.468542 
L 800.843192 107353.468542 
L 792.491772 107353.468542 
L 784.140351 107353.468542 
L 775.788931 107353.468542 
L 767.437511 107353.468542 
L 759.086091 107353.468542 
L 750.734671 107353.468542 
L 742.38325 107353.468542 
L 734.03183 107353.468542 
L 725.68041 107353.468542 
L 717.32899 107353.468542 
L 708.977569 107353.468542 
L 700.626149 107353.468542 
L 692.274729 107353.468542 
L 683.923309 107353.468542 
L 675.571889 107353.468542 
L 667.220468 107353.468542 
L 658.869048 107353.468542 
L 650.517628 107353.468542 
L 642.166208 107353.468542 
L 633.814788 107353.468542 
L 625.463367 107353.468542 
L 617.111947 107353.468542 
L 608.760527 107353.468542 
L 600.409107 107353.468542 
L 592.057687 107353.468542 
L 583.706266 107353.468542 
L 575.354846 107353.468542 
L 567.003426 107353.468542 
L 558.652006 107353.468542 
L 550.300586 107353.468542 
L 541.949165 107353.468542 
L 533.597745 107353.468542 
L 525.246325 107353.468542 
L 516.894905 107353.468542 
L 508.543485 107353.468542 
L 500.192064 107353.468542 
L 491.840644 107353.468542 
L 483.489224 107353.468542 
L 475.137804 107353.468542 
L 466.786383 107353.468542 
L 458.434963 107353.468542 
L 450.083543 107353.468542 
L 441.732123 107353.468542 
L 433.380703 107353.468542 
L 425.029282 107353.468542 
L 416.677862 107353.468542 
L 408.326442 107353.468542 
L 399.975022 107353.468542 
L 391.623602 107353.468542 
L 383.272181 107353.468542 
L 374.920761 107353.468542 
L 366.569341 107353.468542 
L 358.217921 107353.468542 
L 349.866501 107353.468542 
L 341.51508 107353.468542 
L 333.16366 107353.468542 
L 324.81224 107353.468542 
L 316.46082 107353.468542 
L 308.1094 107353.468542 
L 299.757979 107353.468542 
L 291.406559 107353.468542 
L 283.055139 107353.468542 
L 274.703719 107353.468542 
L 266.352299 107353.468542 
L 258.000878 107353.468542 
L 249.649458 107353.468542 
L 241.298038 107353.468542 
L 232.946618 107353.468542 
L 224.595197 107353.468542 
L 216.243777 107353.468542 
L 207.892357 107353.468542 
L 199.540937 107353.468542 
L 191.189517 107353.468542 
L 182.838096 107353.468542 
L 174.486676 107353.468542 
L 166.135256 107353.468542 
L 157.783836 107353.468542 
L 149.432416 107353.468542 
L 141.080995 107353.468542 
L 132.729575 107353.468542 
L 124.378155 107353.468542 
L 116.026735 107353.468542 
L 107.675315 107353.468542 
L 99.323894 107353.468542 
L 90.972474 107353.468542 
L 82.621054 107353.468542 
L 74.269634 107353.468542 
L 65.918214 107353.468542 
z
" clip-path="url(#p69f85f8d1f)" style="fill: #e04356; stroke: #e04356"/>
   </g>
   <g id="PolyCollection_2">
    <path d="M 65.918214 107353.468542 
L 65.918214 191.903746 
L 74.269634 127.488084 
L 82.621054 119.090832 
L 90.972474 106.142499 
L 99.323894 129.598715 
L 107.675315 143.52447 
L 116.026735 168.492334 
L 124.378155 182.239645 
L 132.729575 193.099163 
L 141.080995 201.236552 
L 149.432416 211.914724 
L 157.783836 222.676222 
L 166.135256 234.292931 
L 174.486676 252.325455 
L 182.838096 261.719385 
L 191.189517 276.636633 
L 199.540937 282.805953 
L 207.892357 292.180033 
L 216.243777 300.16838 
L 224.595197 306.656242 
L 232.946618 317.397225 
L 241.298038 327.802014 
L 249.649458 339.473833 
L 258.000878 353.402118 
L 266.352299 359.430704 
L 274.703719 362.864559 
L 283.055139 366.9755 
L 291.406559 368.421969 
L 299.757979 371.877193 
L 308.1094 372.554969 
L 316.46082 369.415868 
L 324.81224 359.247126 
L 333.16366 356.28815 
L 341.51508 354.682187 
L 349.866501 345.108032 
L 358.217921 326.697734 
L 366.569341 313.703306 
L 374.920761 312.708079 
L 383.272181 323.182308 
L 391.623602 343.914019 
L 399.975022 367.750006 
L 408.326442 389.928417 
L 416.677862 408.963596 
L 425.029282 422.174273 
L 433.380703 431.534823 
L 441.732123 441.705655 
L 450.083543 448.052989 
L 458.434963 456.129116 
L 466.786383 460.643274 
L 475.137804 461.020736 
L 483.489224 465.687865 
L 491.840644 468.769757 
L 500.192064 470.577259 
L 508.543485 473.019739 
L 516.894905 473.678622 
L 525.246325 477.753651 
L 533.597745 480.833032 
L 541.949165 480.123284 
L 550.300586 479.358225 
L 558.652006 482.497669 
L 567.003426 487.146036 
L 575.354846 484.572253 
L 583.706266 482.464004 
L 592.057687 489.06879 
L 600.409107 493.35131 
L 608.760527 497.969326 
L 617.111947 500.555524 
L 625.463367 498.781639 
L 633.814788 503.404474 
L 642.166208 506.817138 
L 650.517628 505.037928 
L 658.869048 507.664334 
L 667.220468 510.247448 
L 675.571889 510.369026 
L 683.923309 510.703127 
L 692.274729 513.746556 
L 700.626149 516.5648 
L 708.977569 523.235593 
L 717.32899 522.884872 
L 725.68041 523.103939 
L 734.03183 527.027333 
L 742.38325 527.55445 
L 750.734671 531.041433 
L 759.086091 537.060904 
L 767.437511 535.813835 
L 775.788931 533.504493 
L 784.140351 534.760342 
L 792.491772 536.944335 
L 800.843192 538.882277 
L 809.194612 538.240752 
L 817.546032 537.49331 
L 825.897452 539.295406 
L 834.248873 543.090145 
L 842.600293 543.224526 
L 850.951713 541.578414 
L 859.303133 541.623871 
L 867.654553 544.236358 
L 876.005974 544.776978 
L 884.357394 545.024507 
L 892.708814 545.130313 
L 901.060234 545.377574 
L 909.411654 542.972574 
L 917.763075 543.09278 
L 926.114495 544.229111 
L 934.465915 543.691851 
L 942.817335 544.396788 
L 951.168755 547.103289 
L 959.520176 543.261799 
L 967.871596 541.006441 
L 976.223016 538.822278 
L 984.574436 536.379136 
L 992.925856 534.42992 
L 1001.277277 534.012804 
L 1009.628697 534.126943 
L 1017.980117 532.888331 
L 1026.331537 531.281044 
L 1034.682958 529.395568 
L 1043.034378 529.373503 
L 1051.385798 528.56671 
L 1059.737218 529.025557 
L 1068.088638 528.657578 
L 1076.440059 525.069422 
L 1084.791479 522.489986 
L 1093.142899 524.268878 
L 1101.494319 527.937463 
L 1109.845739 527.526765 
L 1118.19716 525.394756 
L 1126.54858 516.282599 
L 1134.9 539.2017 
L 1134.9 107353.468542 
L 1134.9 107353.468542 
L 1126.54858 107353.468542 
L 1118.19716 107353.468542 
L 1109.845739 107353.468542 
L 1101.494319 107353.468542 
L 1093.142899 107353.468542 
L 1084.791479 107353.468542 
L 1076.440059 107353.468542 
L 1068.088638 107353.468542 
L 1059.737218 107353.468542 
L 1051.385798 107353.468542 
L 1043.034378 107353.468542 
L 1034.682958 107353.468542 
L 1026.331537 107353.468542 
L 1017.980117 107353.468542 
L 1009.628697 107353.468542 
L 1001.277277 107353.468542 
L 992.925856 107353.468542 
L 984.574436 107353.468542 
L 976.223016 107353.468542 
L 967.871596 107353.468542 
L 959.520176 107353.468542 
L 951.168755 107353.468542 
L 942.817335 107353.468542 
L 934.465915 107353.468542 
L 926.114495 107353.468542 
L 917.763075 107353.468542 
L 909.411654 107353.468542 
L 901.060234 107353.468542 
L 892.708814 107353.468542 
L 884.357394 107353.468542 
L 876.005974 107353.468542 
L 867.654553 107353.468542 
L 859.303133 107353.468542 
L 850.951713 107353.468542 
L 842.600293 107353.468542 
L 834.248873 107353.468542 
L 825.897452 107353.468542 
L 817.546032 107353.468542 
L 809.194612 107353.468542 
L 800.843192 107353.468542 
L 792.491772 107353.468542 
L 784.140351 107353.468542 
L 775.788931 107353.468542 
L 767.437511 107353.468542 
L 759.086091 107353.468542 
L 750.734671 107353.468542 
L 742.38325 107353.468542 
L 734.03183 107353.468542 
L 725.68041 107353.468542 
L 717.32899 107353.468542 
L 708.977569 107353.468542 
L 700.626149 107353.468542 
L 692.274729 107353.468542 
L 683.923309 107353.468542 
L 675.571889 107353.468542 
L 667.220468 107353.468542 
L 658.869048 107353.468542 
L 650.517628 107353.468542 
L 642.166208 107353.468542 
L 633.814788 107353.468542 
L 625.463367 107353.468542 
L 617.111947 107353.468542 
L 608.760527 107353.468542 
L 600.409107 107353.468542 
L 592.057687 107353.468542 
L 583.706266 107353.468542 
L 575.354846 107353.468542 
L 567.003426 107353.468542 
L 558.652006 107353.468542 
L 550.300586 107353.468542 
L 541.949165 107353.468542 
L 533.597745 107353.468542 
L 525.246325 107353.468542 
L 516.894905 107353.468542 
L 508.543485 107353.468542 
L 500.192064 107353.468542 
L 491.840644 107353.468542 
L 483.489224 107353.468542 
L 475.137804 107353.468542 
L 466.786383 107353.468542 
L 458.434963 107353.468542 
L 450.083543 107353.468542 
L 441.732123 107353.468542 
L 433.380703 107353.468542 
L 425.029282 107353.468542 
L 416.677862 107353.468542 
L 408.326442 107353.468542 
L 399.975022 107353.468542 
L 391.623602 107353.468542 
L 383.272181 107353.468542 
L 374.920761 107353.468542 
L 366.569341 107353.468542 
L 358.217921 107353.468542 
L 349.866501 107353.468542 
L 341.51508 107353.468542 
L 333.16366 107353.468542 
L 324.81224 107353.468542 
L 316.46082 107353.468542 
L 308.1094 107353.468542 
L 299.757979 107353.468542 
L 291.406559 107353.468542 
L 283.055139 107353.468542 
L 274.703719 107353.468542 
L 266.352299 107353.468542 
L 258.000878 107353.468542 
L 249.649458 107353.468542 
L 241.298038 107353.468542 
L 232.946618 107353.468542 
L 224.595197 107353.468542 
L 216.243777 107353.468542 
L 207.892357 107353.468542 
L 199.540937 107353.468542 
L 191.189517 107353.468542 
L 182.838096 107353.468542 
L 174.486676 107353.468542 
L 166.135256 107353.468542 
L 157.783836 107353.468542 
L 149.432416 107353.468542 
L 141.080995 107353.468542 
L 132.729575 107353.468542 
L 124.378155 107353.468542 
L 116.026735 107353.468542 
L 107.675315 107353.468542 
L 99.323894 107353.468542 
L 90.972474 107353.468542 
L 82.621054 107353.468542 
L 74.269634 107353.468542 
L 65.918214 107353.468542 
z
" clip-path="url(#p69f85f8d1f)" style="fill: #008000; stroke: #008000"/>
   </g>
   <g id="PolyCollection_3">
    <path d="M 65.918214 107353.468542 
L 65.918214 162.186593 
L 74.269634 97.39314 
L 82.621054 70.778139 
L 90.972474 67.094378 
L 99.323894 117.287815 
L 107.675315 134.363813 
L 116.026735 159.446749 
L 124.378155 184.662022 
L 132.729575 201.824373 
L 141.080995 208.68441 
L 149.432416 211.874826 
L 157.783836 225.743673 
L 166.135256 240.660418 
L 174.486676 260.560445 
L 182.838096 273.047227 
L 191.189517 293.634271 
L 199.540937 289.57688 
L 207.892357 289.1512 
L 216.243777 303.739152 
L 224.595197 306.903208 
L 232.946618 324.258747 
L 241.298038 333.658925 
L 249.649458 340.123644 
L 258.000878 358.199193 
L 266.352299 364.866313 
L 274.703719 361.115084 
L 283.055139 354.470095 
L 291.406559 363.688217 
L 299.757979 372.373641 
L 308.1094 375.374329 
L 316.46082 385.201808 
L 324.81224 361.985106 
L 333.16366 348.221754 
L 341.51508 332.808267 
L 349.866501 324.63655 
L 358.217921 320.082564 
L 366.569341 318.820143 
L 374.920761 334.635318 
L 383.272181 351.094227 
L 391.623602 383.331228 
L 399.975022 414.677606 
L 408.326442 437.32794 
L 416.677862 453.320876 
L 425.029282 453.419674 
L 433.380703 473.013148 
L 441.732123 478.003691 
L 450.083543 476.996355 
L 458.434963 485.493974 
L 466.786383 492.836573 
L 475.137804 485.36599 
L 483.489224 488.667294 
L 491.840644 499.456968 
L 500.192064 512.779775 
L 508.543485 507.732171 
L 516.894905 504.718352 
L 525.246325 501.838443 
L 533.597745 494.560933 
L 541.949165 502.581981 
L 550.300586 516.565371 
L 558.652006 518.663357 
L 567.003426 523.285289 
L 575.354846 524.328484 
L 583.706266 519.894095 
L 592.057687 511.562478 
L 600.409107 521.922047 
L 608.760527 520.712387 
L 617.111947 519.784228 
L 625.463367 530.888541 
L 633.814788 535.390952 
L 642.166208 527.443743 
L 650.517628 525.213827 
L 658.869048 528.828556 
L 667.220468 521.439349 
L 675.571889 526.493537 
L 683.923309 532.72853 
L 692.274729 531.974682 
L 700.626149 534.875155 
L 708.977569 546.304852 
L 717.32899 552.873536 
L 725.68041 550.859533 
L 734.03183 551.015392 
L 742.38325 572.453839 
L 750.734671 567.023045 
L 759.086091 555.506636 
L 767.437511 555.759728 
L 775.788931 560.330038 
L 784.140351 561.895132 
L 792.491772 556.687641 
L 800.843192 563.897652 
L 809.194612 575.433761 
L 817.546032 559.355293 
L 825.897452 559.105617 
L 834.248873 560.296462 
L 842.600293 568.295908 
L 850.951713 571.444123 
L 859.303133 565.749335 
L 867.654553 564.942477 
L 876.005974 563.580267 
L 884.357394 559.610088 
L 892.708814 558.279182 
L 901.060234 553.242824 
L 909.411654 564.054037 
L 917.763075 568.248299 
L 926.114495 570.087225 
L 934.465915 556.73403 
L 942.817335 549.743435 
L 951.168755 566.366384 
L 959.520176 560.680959 
L 967.871596 548.5592 
L 976.223016 550.275375 
L 984.574436 567.792528 
L 992.925856 560.479698 
L 1001.277277 545.504384 
L 1009.628697 534.518222 
L 1017.980117 543.922507 
L 1026.331537 542.650323 
L 1034.682958 546.441511 
L 1043.034378 539.783448 
L 1051.385798 530.99166 
L 1059.737218 532.043361 
L 1068.088638 543.134983 
L 1076.440059 537.695623 
L 1084.791479 530.213079 
L 1093.142899 538.624782 
L 1101.494319 541.426133 
L 1109.845739 544.025794 
L 1118.19716 549.709483 
L 1126.54858 529.500745 
L 1134.9 541.304448 
L 1134.9 107353.468542 
L 1134.9 107353.468542 
L 1126.54858 107353.468542 
L 1118.19716 107353.468542 
L 1109.845739 107353.468542 
L 1101.494319 107353.468542 
L 1093.142899 107353.468542 
L 1084.791479 107353.468542 
L 1076.440059 107353.468542 
L 1068.088638 107353.468542 
L 1059.737218 107353.468542 
L 1051.385798 107353.468542 
L 1043.034378 107353.468542 
L 1034.682958 107353.468542 
L 1026.331537 107353.468542 
L 1017.980117 107353.468542 
L 1009.628697 107353.468542 
L 1001.277277 107353.468542 
L 992.925856 107353.468542 
L 984.574436 107353.468542 
L 976.223016 107353.468542 
L 967.871596 107353.468542 
L 959.520176 107353.468542 
L 951.168755 107353.468542 
L 942.817335 107353.468542 
L 934.465915 107353.468542 
L 926.114495 107353.468542 
L 917.763075 107353.468542 
L 909.411654 107353.468542 
L 901.060234 107353.468542 
L 892.708814 107353.468542 
L 884.357394 107353.468542 
L 876.005974 107353.468542 
L 867.654553 107353.468542 
L 859.303133 107353.468542 
L 850.951713 107353.468542 
L 842.600293 107353.468542 
L 834.248873 107353.468542 
L 825.897452 107353.468542 
L 817.546032 107353.468542 
L 809.194612 107353.468542 
L 800.843192 107353.468542 
L 792.491772 107353.468542 
L 784.140351 107353.468542 
L 775.788931 107353.468542 
L 767.437511 107353.468542 
L 759.086091 107353.468542 
L 750.734671 107353.468542 
L 742.38325 107353.468542 
L 734.03183 107353.468542 
L 725.68041 107353.468542 
L 717.32899 107353.468542 
L 708.977569 107353.468542 
L 700.626149 107353.468542 
L 692.274729 107353.468542 
L 683.923309 107353.468542 
L 675.571889 107353.468542 
L 667.220468 107353.468542 
L 658.869048 107353.468542 
L 650.517628 107353.468542 
L 642.166208 107353.468542 
L 633.814788 107353.468542 
L 625.463367 107353.468542 
L 617.111947 107353.468542 
L 608.760527 107353.468542 
L 600.409107 107353.468542 
L 592.057687 107353.468542 
L 583.706266 107353.468542 
L 575.354846 107353.468542 
L 567.003426 107353.468542 
L 558.652006 107353.468542 
L 550.300586 107353.468542 
L 541.949165 107353.468542 
L 533.597745 107353.468542 
L 525.246325 107353.468542 
L 516.894905 107353.468542 
L 508.543485 107353.468542 
L 500.192064 107353.468542 
L 491.840644 107353.468542 
L 483.489224 107353.468542 
L 475.137804 107353.468542 
L 466.786383 107353.468542 
L 458.434963 107353.468542 
L 450.083543 107353.468542 
L 441.732123 107353.468542 
L 433.380703 107353.468542 
L 425.029282 107353.468542 
L 416.677862 107353.468542 
L 408.326442 107353.468542 
L 399.975022 107353.468542 
L 391.623602 107353.468542 
L 383.272181 107353.468542 
L 374.920761 107353.468542 
L 366.569341 107353.468542 
L 358.217921 107353.468542 
L 349.866501 107353.468542 
L 341.51508 107353.468542 
L 333.16366 107353.468542 
L 324.81224 107353.468542 
L 316.46082 107353.468542 
L 308.1094 107353.468542 
L 299.757979 107353.468542 
L 291.406559 107353.468542 
L 283.055139 107353.468542 
L 274.703719 107353.468542 
L 266.352299 107353.468542 
L 258.000878 107353.468542 
L 249.649458 107353.468542 
L 241.298038 107353.468542 
L 232.946618 107353.468542 
L 224.595197 107353.468542 
L 216.243777 107353.468542 
L 207.892357 107353.468542 
L 199.540937 107353.468542 
L 191.189517 107353.468542 
L 182.838096 107353.468542 
L 174.486676 107353.468542 
L 166.135256 107353.468542 
L 157.783836 107353.468542 
L 149.432416 107353.468542 
L 141.080995 107353.468542 
L 132.729575 107353.468542 
L 124.378155 107353.468542 
L 116.026735 107353.468542 
L 107.675315 107353.468542 
L 99.323894 107353.468542 
L 90.972474 107353.468542 
L 82.621054 107353.468542 
L 74.269634 107353.468542 
L 65.918214 107353.468542 
z
" clip-path="url(#p69f85f8d1f)" style="fill: #00ffff; stroke: #00ffff"/>
   </g>
   <g id="PolyCollection_4">
    <path d="M 65.918214 107353.468542 
L 65.918214 171.570932 
L 74.269634 95.207129 
L 82.621054 60.540735 
L 90.972474 52.754432 
L 99.323894 78.314183 
L 107.675315 72.631242 
L 116.026735 116.92961 
L 124.378155 137.440079 
L 132.729575 167.066503 
L 141.080995 200.449282 
L 149.432416 192.274356 
L 157.783836 199.928318 
L 166.135256 226.23789 
L 174.486676 249.443037 
L 182.838096 250.781748 
L 191.189517 275.415652 
L 199.540937 281.637497 
L 207.892357 296.433528 
L 216.243777 300.311408 
L 224.595197 296.708601 
L 232.946618 304.296602 
L 241.298038 312.82858 
L 249.649458 352.620883 
L 258.000878 353.151762 
L 266.352299 346.069485 
L 274.703719 343.351844 
L 283.055139 363.554693 
L 291.406559 384.881033 
L 299.757979 391.867465 
L 308.1094 393.788455 
L 316.46082 392.860776 
L 324.81224 383.531009 
L 333.16366 379.119725 
L 341.51508 374.810799 
L 349.866501 366.084456 
L 358.217921 342.155247 
L 366.569341 341.667355 
L 374.920761 351.231888 
L 383.272181 360.045784 
L 391.623602 375.405801 
L 399.975022 392.80544 
L 408.326442 405.248426 
L 416.677862 417.74815 
L 425.029282 423.493945 
L 433.380703 431.591151 
L 441.732123 453.241164 
L 450.083543 457.926961 
L 458.434963 470.773098 
L 466.786383 498.323103 
L 475.137804 490.618036 
L 483.489224 496.159872 
L 491.840644 508.735059 
L 500.192064 505.292964 
L 508.543485 500.777411 
L 516.894905 496.727881 
L 525.246325 497.339899 
L 533.597745 507.735246 
L 541.949165 518.175024 
L 550.300586 527.535775 
L 558.652006 532.769219 
L 567.003426 517.493487 
L 575.354846 512.482305 
L 583.706266 530.866155 
L 592.057687 534.399369 
L 600.409107 516.700573 
L 608.760527 530.160422 
L 617.111947 540.597762 
L 625.463367 542.080056 
L 633.814788 554.969235 
L 642.166208 540.957937 
L 650.517628 547.458094 
L 658.869048 533.120895 
L 667.220468 542.168326 
L 675.571889 539.304376 
L 683.923309 550.22711 
L 692.274729 542.614058 
L 700.626149 537.534785 
L 708.977569 550.469213 
L 717.32899 549.98609 
L 725.68041 555.343768 
L 734.03183 543.803436 
L 742.38325 544.70328 
L 750.734671 552.404807 
L 759.086091 556.51294 
L 767.437511 567.215355 
L 775.788931 553.709911 
L 784.140351 550.859893 
L 792.491772 561.439051 
L 800.843192 565.928622 
L 809.194612 571.131965 
L 817.546032 565.721951 
L 825.897452 564.858212 
L 834.248873 566.546156 
L 842.600293 569.979724 
L 850.951713 563.175513 
L 859.303133 572.104113 
L 867.654553 579.693068 
L 876.005974 576.265531 
L 884.357394 577.179283 
L 892.708814 578.102152 
L 901.060234 568.253038 
L 909.411654 572.153903 
L 917.763075 577.505894 
L 926.114495 576.369102 
L 934.465915 557.012729 
L 942.817335 565.994069 
L 951.168755 573.893787 
L 959.520176 574.516707 
L 967.871596 559.620116 
L 976.223016 554.195957 
L 984.574436 553.961133 
L 992.925856 552.88607 
L 1001.277277 559.833351 
L 1009.628697 547.923765 
L 1017.980117 542.931862 
L 1026.331537 544.281456 
L 1034.682958 536.484996 
L 1043.034378 531.181407 
L 1051.385798 542.065124 
L 1059.737218 551.729918 
L 1068.088638 550.324243 
L 1076.440059 555.303302 
L 1084.791479 551.785457 
L 1093.142899 558.724792 
L 1101.494319 549.225024 
L 1109.845739 546.021259 
L 1118.19716 553.667552 
L 1126.54858 536.931408 
L 1134.9 544.81735 
L 1134.9 107353.468542 
L 1134.9 107353.468542 
L 1126.54858 107353.468542 
L 1118.19716 107353.468542 
L 1109.845739 107353.468542 
L 1101.494319 107353.468542 
L 1093.142899 107353.468542 
L 1084.791479 107353.468542 
L 1076.440059 107353.468542 
L 1068.088638 107353.468542 
L 1059.737218 107353.468542 
L 1051.385798 107353.468542 
L 1043.034378 107353.468542 
L 1034.682958 107353.468542 
L 1026.331537 107353.468542 
L 1017.980117 107353.468542 
L 1009.628697 107353.468542 
L 1001.277277 107353.468542 
L 992.925856 107353.468542 
L 984.574436 107353.468542 
L 976.223016 107353.468542 
L 967.871596 107353.468542 
L 959.520176 107353.468542 
L 951.168755 107353.468542 
L 942.817335 107353.468542 
L 934.465915 107353.468542 
L 926.114495 107353.468542 
L 917.763075 107353.468542 
L 909.411654 107353.468542 
L 901.060234 107353.468542 
L 892.708814 107353.468542 
L 884.357394 107353.468542 
L 876.005974 107353.468542 
L 867.654553 107353.468542 
L 859.303133 107353.468542 
L 850.951713 107353.468542 
L 842.600293 107353.468542 
L 834.248873 107353.468542 
L 825.897452 107353.468542 
L 817.546032 107353.468542 
L 809.194612 107353.468542 
L 800.843192 107353.468542 
L 792.491772 107353.468542 
L 784.140351 107353.468542 
L 775.788931 107353.468542 
L 767.437511 107353.468542 
L 759.086091 107353.468542 
L 750.734671 107353.468542 
L 742.38325 107353.468542 
L 734.03183 107353.468542 
L 725.68041 107353.468542 
L 717.32899 107353.468542 
L 708.977569 107353.468542 
L 700.626149 107353.468542 
L 692.274729 107353.468542 
L 683.923309 107353.468542 
L 675.571889 107353.468542 
L 667.220468 107353.468542 
L 658.869048 107353.468542 
L 650.517628 107353.468542 
L 642.166208 107353.468542 
L 633.814788 107353.468542 
L 625.463367 107353.468542 
L 617.111947 107353.468542 
L 608.760527 107353.468542 
L 600.409107 107353.468542 
L 592.057687 107353.468542 
L 583.706266 107353.468542 
L 575.354846 107353.468542 
L 567.003426 107353.468542 
L 558.652006 107353.468542 
L 550.300586 107353.468542 
L 541.949165 107353.468542 
L 533.597745 107353.468542 
L 525.246325 107353.468542 
L 516.894905 107353.468542 
L 508.543485 107353.468542 
L 500.192064 107353.468542 
L 491.840644 107353.468542 
L 483.489224 107353.468542 
L 475.137804 107353.468542 
L 466.786383 107353.468542 
L 458.434963 107353.468542 
L 450.083543 107353.468542 
L 441.732123 107353.468542 
L 433.380703 107353.468542 
L 425.029282 107353.468542 
L 416.677862 107353.468542 
L 408.326442 107353.468542 
L 399.975022 107353.468542 
L 391.623602 107353.468542 
L 383.272181 107353.468542 
L 374.920761 107353.468542 
L 366.569341 107353.468542 
L 358.217921 107353.468542 
L 349.866501 107353.468542 
L 341.51508 107353.468542 
L 333.16366 107353.468542 
L 324.81224 107353.468542 
L 316.46082 107353.468542 
L 308.1094 107353.468542 
L 299.757979 107353.468542 
L 291.406559 107353.468542 
L 283.055139 107353.468542 
L 274.703719 107353.468542 
L 266.352299 107353.468542 
L 258.000878 107353.468542 
L 249.649458 107353.468542 
L 241.298038 107353.468542 
L 232.946618 107353.468542 
L 224.595197 107353.468542 
L 216.243777 107353.468542 
L 207.892357 107353.468542 
L 199.540937 107353.468542 
L 191.189517 107353.468542 
L 182.838096 107353.468542 
L 174.486676 107353.468542 
L 166.135256 107353.468542 
L 157.783836 107353.468542 
L 149.432416 107353.468542 
L 141.080995 107353.468542 
L 132.729575 107353.468542 
L 124.378155 107353.468542 
L 116.026735 107353.468542 
L 107.675315 107353.468542 
L 99.323894 107353.468542 
L 90.972474 107353.468542 
L 82.621054 107353.468542 
L 74.269634 107353.468542 
L 65.918214 107353.468542 
z
" clip-path="url(#p69f85f8d1f)" style="fill: #8868de; stroke: #8868de"/>
   </g>
   <g id="matplotlib.axis_1">
    <g id="xtick_1">
     <g id="line2d_1">
      <defs>
       <path id="m572c6ad680" d="M 0 0 
L 0 3.5 
" style="stroke: #000000; stroke-width: 0.8"/>
      </defs>
      <g>
       <use xlink:href="#m572c6ad680" x="65.918214" y="606.04" style="stroke: #000000; stroke-width: 0.8"/>
      </g>
     </g>
     <g id="text_1">
      <!-- 0 -->
      <g transform="translate(62.736964 620.638438)scale(0.1 -0.1)">
       <defs>
        <path id="DejaVuSans-30" d="M 2034 4250 
Q 1547 4250 1301 3770 
Q 1056 3291 1056 2328 
Q 1056 1369 1301 889 
Q 1547 409 2034 409 
Q 2525 409 2770 889 
Q 3016 1369 3016 2328 
Q 3016 3291 2770 3770 
Q 2525 4250 2034 4250 
z
M 2034 4750 
Q 2819 4750 3233 4129 
Q 3647 3509 3647 2328 
Q 3647 1150 3233 529 
Q 2819 -91 2034 -91 
Q 1250 -91 836 529 
Q 422 1150 422 2328 
Q 422 3509 836 4129 
Q 1250 4750 2034 4750 
z
" transform="scale(0.015625)"/>
       </defs>
       <use xlink:href="#DejaVuSans-30"/>
      </g>
     </g>
    </g>
    <g id="xtick_2">
     <g id="line2d_2">
      <g>
       <use xlink:href="#m572c6ad680" x="279.714571" y="606.04" style="stroke: #000000; stroke-width: 0.8"/>
      </g>
     </g>
     <g id="text_2">
      <!-- 10 -->
      <g transform="translate(273.352071 620.638438)scale(0.1 -0.1)">
       <defs>
        <path id="DejaVuSans-31" d="M 794 531 
L 1825 531 
L 1825 4091 
L 703 3866 
L 703 4441 
L 1819 4666 
L 2450 4666 
L 2450 531 
L 3481 531 
L 3481 0 
L 794 0 
L 794 531 
z
" transform="scale(0.015625)"/>
       </defs>
       <use xlink:href="#DejaVuSans-31"/>
       <use xlink:href="#DejaVuSans-30" x="63.623047"/>
      </g>
     </g>
    </g>
    <g id="xtick_3">
     <g id="line2d_3">
      <g>
       <use xlink:href="#m572c6ad680" x="493.510928" y="606.04" style="stroke: #000000; stroke-width: 0.8"/>
      </g>
     </g>
     <g id="text_3">
      <!-- 20 -->
      <g transform="translate(487.148428 620.638438)scale(0.1 -0.1)">
       <defs>
        <path id="DejaVuSans-32" d="M 1228 531 
L 3431 531 
L 3431 0 
L 469 0 
L 469 531 
Q 828 903 1448 1529 
Q 2069 2156 2228 2338 
Q 2531 2678 2651 2914 
Q 2772 3150 2772 3378 
Q 2772 3750 2511 3984 
Q 2250 4219 1831 4219 
Q 1534 4219 1204 4116 
Q 875 4013 500 3803 
L 500 4441 
Q 881 4594 1212 4672 
Q 1544 4750 1819 4750 
Q 2544 4750 2975 4387 
Q 3406 4025 3406 3419 
Q 3406 3131 3298 2873 
Q 3191 2616 2906 2266 
Q 2828 2175 2409 1742 
Q 1991 1309 1228 531 
z
" transform="scale(0.015625)"/>
       </defs>
       <use xlink:href="#DejaVuSans-32"/>
       <use xlink:href="#DejaVuSans-30" x="63.623047"/>
      </g>
     </g>
    </g>
    <g id="xtick_4">
     <g id="line2d_4">
      <g>
       <use xlink:href="#m572c6ad680" x="707.307285" y="606.04" style="stroke: #000000; stroke-width: 0.8"/>
      </g>
     </g>
     <g id="text_4">
      <!-- 30 -->
      <g transform="translate(700.944785 620.638438)scale(0.1 -0.1)">
       <defs>
        <path id="DejaVuSans-33" d="M 2597 2516 
Q 3050 2419 3304 2112 
Q 3559 1806 3559 1356 
Q 3559 666 3084 287 
Q 2609 -91 1734 -91 
Q 1441 -91 1130 -33 
Q 819 25 488 141 
L 488 750 
Q 750 597 1062 519 
Q 1375 441 1716 441 
Q 2309 441 2620 675 
Q 2931 909 2931 1356 
Q 2931 1769 2642 2001 
Q 2353 2234 1838 2234 
L 1294 2234 
L 1294 2753 
L 1863 2753 
Q 2328 2753 2575 2939 
Q 2822 3125 2822 3475 
Q 2822 3834 2567 4026 
Q 2313 4219 1838 4219 
Q 1578 4219 1281 4162 
Q 984 4106 628 3988 
L 628 4550 
Q 988 4650 1302 4700 
Q 1616 4750 1894 4750 
Q 2613 4750 3031 4423 
Q 3450 4097 3450 3541 
Q 3450 3153 3228 2886 
Q 3006 2619 2597 2516 
z
" transform="scale(0.015625)"/>
       </defs>
       <use xlink:href="#DejaVuSans-33"/>
       <use xlink:href="#DejaVuSans-30" x="63.623047"/>
      </g>
     </g>
    </g>
    <g id="xtick_5">
     <g id="line2d_5">
      <g>
       <use xlink:href="#m572c6ad680" x="921.103643" y="606.04" style="stroke: #000000; stroke-width: 0.8"/>
      </g>
     </g>
     <g id="text_5">
      <!-- 40 -->
      <g transform="translate(914.741143 620.638438)scale(0.1 -0.1)">
       <defs>
        <path id="DejaVuSans-34" d="M 2419 4116 
L 825 1625 
L 2419 1625 
L 2419 4116 
z
M 2253 4666 
L 3047 4666 
L 3047 1625 
L 3713 1625 
L 3713 1100 
L 3047 1100 
L 3047 0 
L 2419 0 
L 2419 1100 
L 313 1100 
L 313 1709 
L 2253 4666 
z
" transform="scale(0.015625)"/>
       </defs>
       <use xlink:href="#DejaVuSans-34"/>
       <use xlink:href="#DejaVuSans-30" x="63.623047"/>
      </g>
     </g>
    </g>
    <g id="xtick_6">
     <g id="line2d_6">
      <g>
       <use xlink:href="#m572c6ad680" x="1134.9" y="606.04" style="stroke: #000000; stroke-width: 0.8"/>
      </g>
     </g>
     <g id="text_6">
      <!-- 50 -->
      <g transform="translate(1128.5375 620.638438)scale(0.1 -0.1)">
       <defs>
        <path id="DejaVuSans-35" d="M 691 4666 
L 3169 4666 
L 3169 4134 
L 1269 4134 
L 1269 2991 
Q 1406 3038 1543 3061 
Q 1681 3084 1819 3084 
Q 2600 3084 3056 2656 
Q 3513 2228 3513 1497 
Q 3513 744 3044 326 
Q 2575 -91 1722 -91 
Q 1428 -91 1123 -41 
Q 819 9 494 109 
L 494 744 
Q 775 591 1075 516 
Q 1375 441 1709 441 
Q 2250 441 2565 725 
Q 2881 1009 2881 1497 
Q 2881 1984 2565 2268 
Q 2250 2553 1709 2553 
Q 1456 2553 1204 2497 
Q 953 2441 691 2322 
L 691 4666 
z
" transform="scale(0.015625)"/>
       </defs>
       <use xlink:href="#DejaVuSans-35"/>
       <use xlink:href="#DejaVuSans-30" x="63.623047"/>
      </g>
     </g>
    </g>
    <g id="text_7">
     <!-- Frequency [Hz] -->
     <g transform="translate(562.704419 634.316563)scale(0.1 -0.1)">
      <defs>
       <path id="DejaVuSans-46" d="M 628 4666 
L 3309 4666 
L 3309 4134 
L 1259 4134 
L 1259 2759 
L 3109 2759 
L 3109 2228 
L 1259 2228 
L 1259 0 
L 628 0 
L 628 4666 
z
" transform="scale(0.015625)"/>
       <path id="DejaVuSans-72" d="M 2631 2963 
Q 2534 3019 2420 3045 
Q 2306 3072 2169 3072 
Q 1681 3072 1420 2755 
Q 1159 2438 1159 1844 
L 1159 0 
L 581 0 
L 581 3500 
L 1159 3500 
L 1159 2956 
Q 1341 3275 1631 3429 
Q 1922 3584 2338 3584 
Q 2397 3584 2469 3576 
Q 2541 3569 2628 3553 
L 2631 2963 
z
" transform="scale(0.015625)"/>
       <path id="DejaVuSans-65" d="M 3597 1894 
L 3597 1613 
L 953 1613 
Q 991 1019 1311 708 
Q 1631 397 2203 397 
Q 2534 397 2845 478 
Q 3156 559 3463 722 
L 3463 178 
Q 3153 47 2828 -22 
Q 2503 -91 2169 -91 
Q 1331 -91 842 396 
Q 353 884 353 1716 
Q 353 2575 817 3079 
Q 1281 3584 2069 3584 
Q 2775 3584 3186 3129 
Q 3597 2675 3597 1894 
z
M 3022 2063 
Q 3016 2534 2758 2815 
Q 2500 3097 2075 3097 
Q 1594 3097 1305 2825 
Q 1016 2553 972 2059 
L 3022 2063 
z
" transform="scale(0.015625)"/>
       <path id="DejaVuSans-71" d="M 947 1747 
Q 947 1113 1208 752 
Q 1469 391 1925 391 
Q 2381 391 2643 752 
Q 2906 1113 2906 1747 
Q 2906 2381 2643 2742 
Q 2381 3103 1925 3103 
Q 1469 3103 1208 2742 
Q 947 2381 947 1747 
z
M 2906 525 
Q 2725 213 2448 61 
Q 2172 -91 1784 -91 
Q 1150 -91 751 415 
Q 353 922 353 1747 
Q 353 2572 751 3078 
Q 1150 3584 1784 3584 
Q 2172 3584 2448 3432 
Q 2725 3281 2906 2969 
L 2906 3500 
L 3481 3500 
L 3481 -1331 
L 2906 -1331 
L 2906 525 
z
" transform="scale(0.015625)"/>
       <path id="DejaVuSans-75" d="M 544 1381 
L 544 3500 
L 1119 3500 
L 1119 1403 
Q 1119 906 1312 657 
Q 1506 409 1894 409 
Q 2359 409 2629 706 
Q 2900 1003 2900 1516 
L 2900 3500 
L 3475 3500 
L 3475 0 
L 2900 0 
L 2900 538 
Q 2691 219 2414 64 
Q 2138 -91 1772 -91 
Q 1169 -91 856 284 
Q 544 659 544 1381 
z
M 1991 3584 
L 1991 3584 
z
" transform="scale(0.015625)"/>
       <path id="DejaVuSans-6e" d="M 3513 2113 
L 3513 0 
L 2938 0 
L 2938 2094 
Q 2938 2591 2744 2837 
Q 2550 3084 2163 3084 
Q 1697 3084 1428 2787 
Q 1159 2491 1159 1978 
L 1159 0 
L 581 0 
L 581 3500 
L 1159 3500 
L 1159 2956 
Q 1366 3272 1645 3428 
Q 1925 3584 2291 3584 
Q 2894 3584 3203 3211 
Q 3513 2838 3513 2113 
z
" transform="scale(0.015625)"/>
       <path id="DejaVuSans-63" d="M 3122 3366 
L 3122 2828 
Q 2878 2963 2633 3030 
Q 2388 3097 2138 3097 
Q 1578 3097 1268 2742 
Q 959 2388 959 1747 
Q 959 1106 1268 751 
Q 1578 397 2138 397 
Q 2388 397 2633 464 
Q 2878 531 3122 666 
L 3122 134 
Q 2881 22 2623 -34 
Q 2366 -91 2075 -91 
Q 1284 -91 818 406 
Q 353 903 353 1747 
Q 353 2603 823 3093 
Q 1294 3584 2113 3584 
Q 2378 3584 2631 3529 
Q 2884 3475 3122 3366 
z
" transform="scale(0.015625)"/>
       <path id="DejaVuSans-79" d="M 2059 -325 
Q 1816 -950 1584 -1140 
Q 1353 -1331 966 -1331 
L 506 -1331 
L 506 -850 
L 844 -850 
Q 1081 -850 1212 -737 
Q 1344 -625 1503 -206 
L 1606 56 
L 191 3500 
L 800 3500 
L 1894 763 
L 2988 3500 
L 3597 3500 
L 2059 -325 
z
" transform="scale(0.015625)"/>
       <path id="DejaVuSans-20" transform="scale(0.015625)"/>
       <path id="DejaVuSans-5b" d="M 550 4863 
L 1875 4863 
L 1875 4416 
L 1125 4416 
L 1125 -397 
L 1875 -397 
L 1875 -844 
L 550 -844 
L 550 4863 
z
" transform="scale(0.015625)"/>
       <path id="DejaVuSans-48" d="M 628 4666 
L 1259 4666 
L 1259 2753 
L 3553 2753 
L 3553 4666 
L 4184 4666 
L 4184 0 
L 3553 0 
L 3553 2222 
L 1259 2222 
L 1259 0 
L 628 0 
L 628 4666 
z
" transform="scale(0.015625)"/>
       <path id="DejaVuSans-7a" d="M 353 3500 
L 3084 3500 
L 3084 2975 
L 922 459 
L 3084 459 
L 3084 0 
L 275 0 
L 275 525 
L 2438 3041 
L 353 3041 
L 353 3500 
z
" transform="scale(0.015625)"/>
       <path id="DejaVuSans-5d" d="M 1947 4863 
L 1947 -844 
L 622 -844 
L 622 -397 
L 1369 -397 
L 1369 4416 
L 622 4416 
L 622 4863 
L 1947 4863 
z
" transform="scale(0.015625)"/>
      </defs>
      <use xlink:href="#DejaVuSans-46"/>
      <use xlink:href="#DejaVuSans-72" x="50.269531"/>
      <use xlink:href="#DejaVuSans-65" x="89.132812"/>
      <use xlink:href="#DejaVuSans-71" x="150.65625"/>
      <use xlink:href="#DejaVuSans-75" x="214.132812"/>
      <use xlink:href="#DejaVuSans-65" x="277.511719"/>
      <use xlink:href="#DejaVuSans-6e" x="339.035156"/>
      <use xlink:href="#DejaVuSans-63" x="402.414062"/>
      <use xlink:href="#DejaVuSans-79" x="457.394531"/>
      <use xlink:href="#DejaVuSans-20" x="516.574219"/>
      <use xlink:href="#DejaVuSans-5b" x="548.361328"/>
      <use xlink:href="#DejaVuSans-48" x="587.375"/>
      <use xlink:href="#DejaVuSans-7a" x="662.570312"/>
      <use xlink:href="#DejaVuSans-5d" x="715.060547"/>
     </g>
    </g>
   </g>
   <g id="matplotlib.axis_2">
    <g id="ytick_1">
     <g id="line2d_7">
      <defs>
       <path id="m34c4e13b18" d="M 0 0 
L -3.5 0 
" style="stroke: #000000; stroke-width: 0.8"/>
      </defs>
      <g>
       <use xlink:href="#m34c4e13b18" x="65.918214" y="542.44345" style="stroke: #000000; stroke-width: 0.8"/>
      </g>
     </g>
     <g id="text_8">
      <!-- $\mathdefault{10^{-14}}$ -->
      <g transform="translate(31.018214 546.242669)scale(0.1 -0.1)">
       <defs>
        <path id="DejaVuSans-2212" d="M 678 2272 
L 4684 2272 
L 4684 1741 
L 678 1741 
L 678 2272 
z
" transform="scale(0.015625)"/>
       </defs>
       <use xlink:href="#DejaVuSans-31" transform="translate(0 0.684375)"/>
       <use xlink:href="#DejaVuSans-30" transform="translate(63.623047 0.684375)"/>
       <use xlink:href="#DejaVuSans-2212" transform="translate(128.203125 38.965625)scale(0.7)"/>
       <use xlink:href="#DejaVuSans-31" transform="translate(186.855469 38.965625)scale(0.7)"/>
       <use xlink:href="#DejaVuSans-34" transform="translate(231.391602 38.965625)scale(0.7)"/>
      </g>
     </g>
    </g>
    <g id="ytick_2">
     <g id="line2d_8">
      <g>
       <use xlink:href="#m34c4e13b18" x="65.918214" y="434.115838" style="stroke: #000000; stroke-width: 0.8"/>
      </g>
     </g>
     <g id="text_9">
      <!-- $\mathdefault{10^{-13}}$ -->
      <g transform="translate(31.018214 437.915057)scale(0.1 -0.1)">
       <use xlink:href="#DejaVuSans-31" transform="translate(0 0.765625)"/>
       <use xlink:href="#DejaVuSans-30" transform="translate(63.623047 0.765625)"/>
       <use xlink:href="#DejaVuSans-2212" transform="translate(128.203125 39.046875)scale(0.7)"/>
       <use xlink:href="#DejaVuSans-31" transform="translate(186.855469 39.046875)scale(0.7)"/>
       <use xlink:href="#DejaVuSans-33" transform="translate(231.391602 39.046875)scale(0.7)"/>
      </g>
     </g>
    </g>
    <g id="ytick_3">
     <g id="line2d_9">
      <g>
       <use xlink:href="#m34c4e13b18" x="65.918214" y="325.788227" style="stroke: #000000; stroke-width: 0.8"/>
      </g>
     </g>
     <g id="text_10">
      <!-- $\mathdefault{10^{-12}}$ -->
      <g transform="translate(31.018214 329.587445)scale(0.1 -0.1)">
       <use xlink:href="#DejaVuSans-31" transform="translate(0 0.765625)"/>
       <use xlink:href="#DejaVuSans-30" transform="translate(63.623047 0.765625)"/>
       <use xlink:href="#DejaVuSans-2212" transform="translate(128.203125 39.046875)scale(0.7)"/>
       <use xlink:href="#DejaVuSans-31" transform="translate(186.855469 39.046875)scale(0.7)"/>
       <use xlink:href="#DejaVuSans-32" transform="translate(231.391602 39.046875)scale(0.7)"/>
      </g>
     </g>
    </g>
    <g id="ytick_4">
     <g id="line2d_10">
      <g>
       <use xlink:href="#m34c4e13b18" x="65.918214" y="217.460615" style="stroke: #000000; stroke-width: 0.8"/>
      </g>
     </g>
     <g id="text_11">
      <!-- $\mathdefault{10^{-11}}$ -->
      <g transform="translate(31.018214 221.259834)scale(0.1 -0.1)">
       <use xlink:href="#DejaVuSans-31" transform="translate(0 0.684375)"/>
       <use xlink:href="#DejaVuSans-30" transform="translate(63.623047 0.684375)"/>
       <use xlink:href="#DejaVuSans-2212" transform="translate(128.203125 38.965625)scale(0.7)"/>
       <use xlink:href="#DejaVuSans-31" transform="translate(186.855469 38.965625)scale(0.7)"/>
       <use xlink:href="#DejaVuSans-31" transform="translate(231.391602 38.965625)scale(0.7)"/>
      </g>
     </g>
    </g>
    <g id="ytick_5">
     <g id="line2d_11">
      <g>
       <use xlink:href="#m34c4e13b18" x="65.918214" y="109.133003" style="stroke: #000000; stroke-width: 0.8"/>
      </g>
     </g>
     <g id="text_12">
      <!-- $\mathdefault{10^{-10}}$ -->
      <g transform="translate(31.018214 112.932222)scale(0.1 -0.1)">
       <use xlink:href="#DejaVuSans-31" transform="translate(0 0.765625)"/>
       <use xlink:href="#DejaVuSans-30" transform="translate(63.623047 0.765625)"/>
       <use xlink:href="#DejaVuSans-2212" transform="translate(128.203125 39.046875)scale(0.7)"/>
       <use xlink:href="#DejaVuSans-31" transform="translate(186.855469 39.046875)scale(0.7)"/>
       <use xlink:href="#DejaVuSans-30" transform="translate(231.391602 39.046875)scale(0.7)"/>
      </g>
     </g>
    </g>
    <g id="ytick_6">
     <g id="line2d_12">
      <defs>
       <path id="m1f54a1576d" d="M 0 0 
L -2 0 
" style="stroke: #000000; stroke-width: 0.6"/>
      </defs>
      <g>
       <use xlink:href="#m1f54a1576d" x="65.918214" y="599.085656" style="stroke: #000000; stroke-width: 0.6"/>
      </g>
     </g>
    </g>
    <g id="ytick_7">
     <g id="line2d_13">
      <g>
       <use xlink:href="#m1f54a1576d" x="65.918214" y="585.551341" style="stroke: #000000; stroke-width: 0.6"/>
      </g>
     </g>
    </g>
    <g id="ytick_8">
     <g id="line2d_14">
      <g>
       <use xlink:href="#m1f54a1576d" x="65.918214" y="575.05331" style="stroke: #000000; stroke-width: 0.6"/>
      </g>
     </g>
    </g>
    <g id="ytick_9">
     <g id="line2d_15">
      <g>
       <use xlink:href="#m1f54a1576d" x="65.918214" y="566.475795" style="stroke: #000000; stroke-width: 0.6"/>
      </g>
     </g>
    </g>
    <g id="ytick_10">
     <g id="line2d_16">
      <g>
       <use xlink:href="#m1f54a1576d" x="65.918214" y="559.223609" style="stroke: #000000; stroke-width: 0.6"/>
      </g>
     </g>
    </g>
    <g id="ytick_11">
     <g id="line2d_17">
      <g>
       <use xlink:href="#m1f54a1576d" x="65.918214" y="552.94148" style="stroke: #000000; stroke-width: 0.6"/>
      </g>
     </g>
    </g>
    <g id="ytick_12">
     <g id="line2d_18">
      <g>
       <use xlink:href="#m1f54a1576d" x="65.918214" y="547.40025" style="stroke: #000000; stroke-width: 0.6"/>
      </g>
     </g>
    </g>
    <g id="ytick_13">
     <g id="line2d_19">
      <g>
       <use xlink:href="#m1f54a1576d" x="65.918214" y="509.833589" style="stroke: #000000; stroke-width: 0.6"/>
      </g>
     </g>
    </g>
    <g id="ytick_14">
     <g id="line2d_20">
      <g>
       <use xlink:href="#m1f54a1576d" x="65.918214" y="490.758044" style="stroke: #000000; stroke-width: 0.6"/>
      </g>
     </g>
    </g>
    <g id="ytick_15">
     <g id="line2d_21">
      <g>
       <use xlink:href="#m1f54a1576d" x="65.918214" y="477.223729" style="stroke: #000000; stroke-width: 0.6"/>
      </g>
     </g>
    </g>
    <g id="ytick_16">
     <g id="line2d_22">
      <g>
       <use xlink:href="#m1f54a1576d" x="65.918214" y="466.725699" style="stroke: #000000; stroke-width: 0.6"/>
      </g>
     </g>
    </g>
    <g id="ytick_17">
     <g id="line2d_23">
      <g>
       <use xlink:href="#m1f54a1576d" x="65.918214" y="458.148183" style="stroke: #000000; stroke-width: 0.6"/>
      </g>
     </g>
    </g>
    <g id="ytick_18">
     <g id="line2d_24">
      <g>
       <use xlink:href="#m1f54a1576d" x="65.918214" y="450.895998" style="stroke: #000000; stroke-width: 0.6"/>
      </g>
     </g>
    </g>
    <g id="ytick_19">
     <g id="line2d_25">
      <g>
       <use xlink:href="#m1f54a1576d" x="65.918214" y="444.613868" style="stroke: #000000; stroke-width: 0.6"/>
      </g>
     </g>
    </g>
    <g id="ytick_20">
     <g id="line2d_26">
      <g>
       <use xlink:href="#m1f54a1576d" x="65.918214" y="439.072638" style="stroke: #000000; stroke-width: 0.6"/>
      </g>
     </g>
    </g>
    <g id="ytick_21">
     <g id="line2d_27">
      <g>
       <use xlink:href="#m1f54a1576d" x="65.918214" y="401.505978" style="stroke: #000000; stroke-width: 0.6"/>
      </g>
     </g>
    </g>
    <g id="ytick_22">
     <g id="line2d_28">
      <g>
       <use xlink:href="#m1f54a1576d" x="65.918214" y="382.430432" style="stroke: #000000; stroke-width: 0.6"/>
      </g>
     </g>
    </g>
    <g id="ytick_23">
     <g id="line2d_29">
      <g>
       <use xlink:href="#m1f54a1576d" x="65.918214" y="368.896117" style="stroke: #000000; stroke-width: 0.6"/>
      </g>
     </g>
    </g>
    <g id="ytick_24">
     <g id="line2d_30">
      <g>
       <use xlink:href="#m1f54a1576d" x="65.918214" y="358.398087" style="stroke: #000000; stroke-width: 0.6"/>
      </g>
     </g>
    </g>
    <g id="ytick_25">
     <g id="line2d_31">
      <g>
       <use xlink:href="#m1f54a1576d" x="65.918214" y="349.820572" style="stroke: #000000; stroke-width: 0.6"/>
      </g>
     </g>
    </g>
    <g id="ytick_26">
     <g id="line2d_32">
      <g>
       <use xlink:href="#m1f54a1576d" x="65.918214" y="342.568386" style="stroke: #000000; stroke-width: 0.6"/>
      </g>
     </g>
    </g>
    <g id="ytick_27">
     <g id="line2d_33">
      <g>
       <use xlink:href="#m1f54a1576d" x="65.918214" y="336.286257" style="stroke: #000000; stroke-width: 0.6"/>
      </g>
     </g>
    </g>
    <g id="ytick_28">
     <g id="line2d_34">
      <g>
       <use xlink:href="#m1f54a1576d" x="65.918214" y="330.745026" style="stroke: #000000; stroke-width: 0.6"/>
      </g>
     </g>
    </g>
    <g id="ytick_29">
     <g id="line2d_35">
      <g>
       <use xlink:href="#m1f54a1576d" x="65.918214" y="293.178366" style="stroke: #000000; stroke-width: 0.6"/>
      </g>
     </g>
    </g>
    <g id="ytick_30">
     <g id="line2d_36">
      <g>
       <use xlink:href="#m1f54a1576d" x="65.918214" y="274.102821" style="stroke: #000000; stroke-width: 0.6"/>
      </g>
     </g>
    </g>
    <g id="ytick_31">
     <g id="line2d_37">
      <g>
       <use xlink:href="#m1f54a1576d" x="65.918214" y="260.568506" style="stroke: #000000; stroke-width: 0.6"/>
      </g>
     </g>
    </g>
    <g id="ytick_32">
     <g id="line2d_38">
      <g>
       <use xlink:href="#m1f54a1576d" x="65.918214" y="250.070475" style="stroke: #000000; stroke-width: 0.6"/>
      </g>
     </g>
    </g>
    <g id="ytick_33">
     <g id="line2d_39">
      <g>
       <use xlink:href="#m1f54a1576d" x="65.918214" y="241.49296" style="stroke: #000000; stroke-width: 0.6"/>
      </g>
     </g>
    </g>
    <g id="ytick_34">
     <g id="line2d_40">
      <g>
       <use xlink:href="#m1f54a1576d" x="65.918214" y="234.240774" style="stroke: #000000; stroke-width: 0.6"/>
      </g>
     </g>
    </g>
    <g id="ytick_35">
     <g id="line2d_41">
      <g>
       <use xlink:href="#m1f54a1576d" x="65.918214" y="227.958645" style="stroke: #000000; stroke-width: 0.6"/>
      </g>
     </g>
    </g>
    <g id="ytick_36">
     <g id="line2d_42">
      <g>
       <use xlink:href="#m1f54a1576d" x="65.918214" y="222.417415" style="stroke: #000000; stroke-width: 0.6"/>
      </g>
     </g>
    </g>
    <g id="ytick_37">
     <g id="line2d_43">
      <g>
       <use xlink:href="#m1f54a1576d" x="65.918214" y="184.850754" style="stroke: #000000; stroke-width: 0.6"/>
      </g>
     </g>
    </g>
    <g id="ytick_38">
     <g id="line2d_44">
      <g>
       <use xlink:href="#m1f54a1576d" x="65.918214" y="165.775209" style="stroke: #000000; stroke-width: 0.6"/>
      </g>
     </g>
    </g>
    <g id="ytick_39">
     <g id="line2d_45">
      <g>
       <use xlink:href="#m1f54a1576d" x="65.918214" y="152.240894" style="stroke: #000000; stroke-width: 0.6"/>
      </g>
     </g>
    </g>
    <g id="ytick_40">
     <g id="line2d_46">
      <g>
       <use xlink:href="#m1f54a1576d" x="65.918214" y="141.742864" style="stroke: #000000; stroke-width: 0.6"/>
      </g>
     </g>
    </g>
    <g id="ytick_41">
     <g id="line2d_47">
      <g>
       <use xlink:href="#m1f54a1576d" x="65.918214" y="133.165348" style="stroke: #000000; stroke-width: 0.6"/>
      </g>
     </g>
    </g>
    <g id="ytick_42">
     <g id="line2d_48">
      <g>
       <use xlink:href="#m1f54a1576d" x="65.918214" y="125.913163" style="stroke: #000000; stroke-width: 0.6"/>
      </g>
     </g>
    </g>
    <g id="ytick_43">
     <g id="line2d_49">
      <g>
       <use xlink:href="#m1f54a1576d" x="65.918214" y="119.631033" style="stroke: #000000; stroke-width: 0.6"/>
      </g>
     </g>
    </g>
    <g id="ytick_44">
     <g id="line2d_50">
      <g>
       <use xlink:href="#m1f54a1576d" x="65.918214" y="114.089803" style="stroke: #000000; stroke-width: 0.6"/>
      </g>
     </g>
    </g>
    <g id="ytick_45">
     <g id="line2d_51">
      <g>
       <use xlink:href="#m1f54a1576d" x="65.918214" y="76.523143" style="stroke: #000000; stroke-width: 0.6"/>
      </g>
     </g>
    </g>
    <g id="ytick_46">
     <g id="line2d_52">
      <g>
       <use xlink:href="#m1f54a1576d" x="65.918214" y="57.447597" style="stroke: #000000; stroke-width: 0.6"/>
      </g>
     </g>
    </g>
    <g id="ytick_47">
     <g id="line2d_53">
      <g>
       <use xlink:href="#m1f54a1576d" x="65.918214" y="43.913282" style="stroke: #000000; stroke-width: 0.6"/>
      </g>
     </g>
    </g>
    <g id="ytick_48">
     <g id="line2d_54">
      <g>
       <use xlink:href="#m1f54a1576d" x="65.918214" y="33.415252" style="stroke: #000000; stroke-width: 0.6"/>
      </g>
     </g>
    </g>
    <g id="text_13">
     <!-- PSD Logarithmic ($uV^2$/Hz) [dB] -->
     <g transform="translate(24.918214 392.42375)rotate(-90)scale(0.1 -0.1)">
      <defs>
       <path id="DejaVuSans-50" d="M 1259 4147 
L 1259 2394 
L 2053 2394 
Q 2494 2394 2734 2622 
Q 2975 2850 2975 3272 
Q 2975 3691 2734 3919 
Q 2494 4147 2053 4147 
L 1259 4147 
z
M 628 4666 
L 2053 4666 
Q 2838 4666 3239 4311 
Q 3641 3956 3641 3272 
Q 3641 2581 3239 2228 
Q 2838 1875 2053 1875 
L 1259 1875 
L 1259 0 
L 628 0 
L 628 4666 
z
" transform="scale(0.015625)"/>
       <path id="DejaVuSans-53" d="M 3425 4513 
L 3425 3897 
Q 3066 4069 2747 4153 
Q 2428 4238 2131 4238 
Q 1616 4238 1336 4038 
Q 1056 3838 1056 3469 
Q 1056 3159 1242 3001 
Q 1428 2844 1947 2747 
L 2328 2669 
Q 3034 2534 3370 2195 
Q 3706 1856 3706 1288 
Q 3706 609 3251 259 
Q 2797 -91 1919 -91 
Q 1588 -91 1214 -16 
Q 841 59 441 206 
L 441 856 
Q 825 641 1194 531 
Q 1563 422 1919 422 
Q 2459 422 2753 634 
Q 3047 847 3047 1241 
Q 3047 1584 2836 1778 
Q 2625 1972 2144 2069 
L 1759 2144 
Q 1053 2284 737 2584 
Q 422 2884 422 3419 
Q 422 4038 858 4394 
Q 1294 4750 2059 4750 
Q 2388 4750 2728 4690 
Q 3069 4631 3425 4513 
z
" transform="scale(0.015625)"/>
       <path id="DejaVuSans-44" d="M 1259 4147 
L 1259 519 
L 2022 519 
Q 2988 519 3436 956 
Q 3884 1394 3884 2338 
Q 3884 3275 3436 3711 
Q 2988 4147 2022 4147 
L 1259 4147 
z
M 628 4666 
L 1925 4666 
Q 3281 4666 3915 4102 
Q 4550 3538 4550 2338 
Q 4550 1131 3912 565 
Q 3275 0 1925 0 
L 628 0 
L 628 4666 
z
" transform="scale(0.015625)"/>
       <path id="DejaVuSans-4c" d="M 628 4666 
L 1259 4666 
L 1259 531 
L 3531 531 
L 3531 0 
L 628 0 
L 628 4666 
z
" transform="scale(0.015625)"/>
       <path id="DejaVuSans-6f" d="M 1959 3097 
Q 1497 3097 1228 2736 
Q 959 2375 959 1747 
Q 959 1119 1226 758 
Q 1494 397 1959 397 
Q 2419 397 2687 759 
Q 2956 1122 2956 1747 
Q 2956 2369 2687 2733 
Q 2419 3097 1959 3097 
z
M 1959 3584 
Q 2709 3584 3137 3096 
Q 3566 2609 3566 1747 
Q 3566 888 3137 398 
Q 2709 -91 1959 -91 
Q 1206 -91 779 398 
Q 353 888 353 1747 
Q 353 2609 779 3096 
Q 1206 3584 1959 3584 
z
" transform="scale(0.015625)"/>
       <path id="DejaVuSans-67" d="M 2906 1791 
Q 2906 2416 2648 2759 
Q 2391 3103 1925 3103 
Q 1463 3103 1205 2759 
Q 947 2416 947 1791 
Q 947 1169 1205 825 
Q 1463 481 1925 481 
Q 2391 481 2648 825 
Q 2906 1169 2906 1791 
z
M 3481 434 
Q 3481 -459 3084 -895 
Q 2688 -1331 1869 -1331 
Q 1566 -1331 1297 -1286 
Q 1028 -1241 775 -1147 
L 775 -588 
Q 1028 -725 1275 -790 
Q 1522 -856 1778 -856 
Q 2344 -856 2625 -561 
Q 2906 -266 2906 331 
L 2906 616 
Q 2728 306 2450 153 
Q 2172 0 1784 0 
Q 1141 0 747 490 
Q 353 981 353 1791 
Q 353 2603 747 3093 
Q 1141 3584 1784 3584 
Q 2172 3584 2450 3431 
Q 2728 3278 2906 2969 
L 2906 3500 
L 3481 3500 
L 3481 434 
z
" transform="scale(0.015625)"/>
       <path id="DejaVuSans-61" d="M 2194 1759 
Q 1497 1759 1228 1600 
Q 959 1441 959 1056 
Q 959 750 1161 570 
Q 1363 391 1709 391 
Q 2188 391 2477 730 
Q 2766 1069 2766 1631 
L 2766 1759 
L 2194 1759 
z
M 3341 1997 
L 3341 0 
L 2766 0 
L 2766 531 
Q 2569 213 2275 61 
Q 1981 -91 1556 -91 
Q 1019 -91 701 211 
Q 384 513 384 1019 
Q 384 1609 779 1909 
Q 1175 2209 1959 2209 
L 2766 2209 
L 2766 2266 
Q 2766 2663 2505 2880 
Q 2244 3097 1772 3097 
Q 1472 3097 1187 3025 
Q 903 2953 641 2809 
L 641 3341 
Q 956 3463 1253 3523 
Q 1550 3584 1831 3584 
Q 2591 3584 2966 3190 
Q 3341 2797 3341 1997 
z
" transform="scale(0.015625)"/>
       <path id="DejaVuSans-69" d="M 603 3500 
L 1178 3500 
L 1178 0 
L 603 0 
L 603 3500 
z
M 603 4863 
L 1178 4863 
L 1178 4134 
L 603 4134 
L 603 4863 
z
" transform="scale(0.015625)"/>
       <path id="DejaVuSans-74" d="M 1172 4494 
L 1172 3500 
L 2356 3500 
L 2356 3053 
L 1172 3053 
L 1172 1153 
Q 1172 725 1289 603 
Q 1406 481 1766 481 
L 2356 481 
L 2356 0 
L 1766 0 
Q 1100 0 847 248 
Q 594 497 594 1153 
L 594 3053 
L 172 3053 
L 172 3500 
L 594 3500 
L 594 4494 
L 1172 4494 
z
" transform="scale(0.015625)"/>
       <path id="DejaVuSans-68" d="M 3513 2113 
L 3513 0 
L 2938 0 
L 2938 2094 
Q 2938 2591 2744 2837 
Q 2550 3084 2163 3084 
Q 1697 3084 1428 2787 
Q 1159 2491 1159 1978 
L 1159 0 
L 581 0 
L 581 4863 
L 1159 4863 
L 1159 2956 
Q 1366 3272 1645 3428 
Q 1925 3584 2291 3584 
Q 2894 3584 3203 3211 
Q 3513 2838 3513 2113 
z
" transform="scale(0.015625)"/>
       <path id="DejaVuSans-6d" d="M 3328 2828 
Q 3544 3216 3844 3400 
Q 4144 3584 4550 3584 
Q 5097 3584 5394 3201 
Q 5691 2819 5691 2113 
L 5691 0 
L 5113 0 
L 5113 2094 
Q 5113 2597 4934 2840 
Q 4756 3084 4391 3084 
Q 3944 3084 3684 2787 
Q 3425 2491 3425 1978 
L 3425 0 
L 2847 0 
L 2847 2094 
Q 2847 2600 2669 2842 
Q 2491 3084 2119 3084 
Q 1678 3084 1418 2786 
Q 1159 2488 1159 1978 
L 1159 0 
L 581 0 
L 581 3500 
L 1159 3500 
L 1159 2956 
Q 1356 3278 1631 3431 
Q 1906 3584 2284 3584 
Q 2666 3584 2933 3390 
Q 3200 3197 3328 2828 
z
" transform="scale(0.015625)"/>
       <path id="DejaVuSans-28" d="M 1984 4856 
Q 1566 4138 1362 3434 
Q 1159 2731 1159 2009 
Q 1159 1288 1364 580 
Q 1569 -128 1984 -844 
L 1484 -844 
Q 1016 -109 783 600 
Q 550 1309 550 2009 
Q 550 2706 781 3412 
Q 1013 4119 1484 4856 
L 1984 4856 
z
" transform="scale(0.015625)"/>
       <path id="DejaVuSans-Oblique-75" d="M 428 1388 
L 838 3500 
L 1416 3500 
L 1006 1409 
Q 975 1256 961 1147 
Q 947 1038 947 966 
Q 947 700 1109 554 
Q 1272 409 1569 409 
Q 2031 409 2368 721 
Q 2706 1034 2809 1563 
L 3194 3500 
L 3769 3500 
L 3091 0 
L 2516 0 
L 2631 550 
Q 2388 244 2052 76 
Q 1716 -91 1338 -91 
Q 878 -91 622 161 
Q 366 413 366 863 
Q 366 956 381 1097 
Q 397 1238 428 1388 
z
" transform="scale(0.015625)"/>
       <path id="DejaVuSans-Oblique-56" d="M 1319 0 
L 500 4666 
L 1119 4666 
L 1797 653 
L 4063 4666 
L 4750 4666 
L 2053 0 
L 1319 0 
z
" transform="scale(0.015625)"/>
       <path id="DejaVuSans-2f" d="M 1625 4666 
L 2156 4666 
L 531 -594 
L 0 -594 
L 1625 4666 
z
" transform="scale(0.015625)"/>
       <path id="DejaVuSans-29" d="M 513 4856 
L 1013 4856 
Q 1481 4119 1714 3412 
Q 1947 2706 1947 2009 
Q 1947 1309 1714 600 
Q 1481 -109 1013 -844 
L 513 -844 
Q 928 -128 1133 580 
Q 1338 1288 1338 2009 
Q 1338 2731 1133 3434 
Q 928 4138 513 4856 
z
" transform="scale(0.015625)"/>
       <path id="DejaVuSans-64" d="M 2906 2969 
L 2906 4863 
L 3481 4863 
L 3481 0 
L 2906 0 
L 2906 525 
Q 2725 213 2448 61 
Q 2172 -91 1784 -91 
Q 1150 -91 751 415 
Q 353 922 353 1747 
Q 353 2572 751 3078 
Q 1150 3584 1784 3584 
Q 2172 3584 2448 3432 
Q 2725 3281 2906 2969 
z
M 947 1747 
Q 947 1113 1208 752 
Q 1469 391 1925 391 
Q 2381 391 2643 752 
Q 2906 1113 2906 1747 
Q 2906 2381 2643 2742 
Q 2381 3103 1925 3103 
Q 1469 3103 1208 2742 
Q 947 2381 947 1747 
z
" transform="scale(0.015625)"/>
       <path id="DejaVuSans-42" d="M 1259 2228 
L 1259 519 
L 2272 519 
Q 2781 519 3026 730 
Q 3272 941 3272 1375 
Q 3272 1813 3026 2020 
Q 2781 2228 2272 2228 
L 1259 2228 
z
M 1259 4147 
L 1259 2741 
L 2194 2741 
Q 2656 2741 2882 2914 
Q 3109 3088 3109 3444 
Q 3109 3797 2882 3972 
Q 2656 4147 2194 4147 
L 1259 4147 
z
M 628 4666 
L 2241 4666 
Q 2963 4666 3353 4366 
Q 3744 4066 3744 3513 
Q 3744 3084 3544 2831 
Q 3344 2578 2956 2516 
Q 3422 2416 3680 2098 
Q 3938 1781 3938 1306 
Q 3938 681 3513 340 
Q 3088 0 2303 0 
L 628 0 
L 628 4666 
z
" transform="scale(0.015625)"/>
      </defs>
      <use xlink:href="#DejaVuSans-50" transform="translate(0 0.765625)"/>
      <use xlink:href="#DejaVuSans-53" transform="translate(60.302734 0.765625)"/>
      <use xlink:href="#DejaVuSans-44" transform="translate(123.779297 0.765625)"/>
      <use xlink:href="#DejaVuSans-20" transform="translate(200.78125 0.765625)"/>
      <use xlink:href="#DejaVuSans-4c" transform="translate(232.568359 0.765625)"/>
      <use xlink:href="#DejaVuSans-6f" transform="translate(288.28125 0.765625)"/>
      <use xlink:href="#DejaVuSans-67" transform="translate(349.462891 0.765625)"/>
      <use xlink:href="#DejaVuSans-61" transform="translate(412.939453 0.765625)"/>
      <use xlink:href="#DejaVuSans-72" transform="translate(474.21875 0.765625)"/>
      <use xlink:href="#DejaVuSans-69" transform="translate(515.332031 0.765625)"/>
      <use xlink:href="#DejaVuSans-74" transform="translate(543.115234 0.765625)"/>
      <use xlink:href="#DejaVuSans-68" transform="translate(582.324219 0.765625)"/>
      <use xlink:href="#DejaVuSans-6d" transform="translate(645.703125 0.765625)"/>
      <use xlink:href="#DejaVuSans-69" transform="translate(743.115234 0.765625)"/>
      <use xlink:href="#DejaVuSans-63" transform="translate(770.898438 0.765625)"/>
      <use xlink:href="#DejaVuSans-20" transform="translate(825.878906 0.765625)"/>
      <use xlink:href="#DejaVuSans-28" transform="translate(857.666016 0.765625)"/>
      <use xlink:href="#DejaVuSans-Oblique-75" transform="translate(896.679688 0.765625)"/>
      <use xlink:href="#DejaVuSans-Oblique-56" transform="translate(960.058594 0.765625)"/>
      <use xlink:href="#DejaVuSans-32" transform="translate(1035.483568 39.046875)scale(0.7)"/>
      <use xlink:href="#DejaVuSans-2f" transform="translate(1082.754076 0.765625)"/>
      <use xlink:href="#DejaVuSans-48" transform="translate(1114.695482 0.765625)"/>
      <use xlink:href="#DejaVuSans-7a" transform="translate(1189.890794 0.765625)"/>
      <use xlink:href="#DejaVuSans-29" transform="translate(1242.381029 0.765625)"/>
      <use xlink:href="#DejaVuSans-20" transform="translate(1281.394701 0.765625)"/>
      <use xlink:href="#DejaVuSans-5b" transform="translate(1313.18181 0.765625)"/>
      <use xlink:href="#DejaVuSans-64" transform="translate(1352.195482 0.765625)"/>
      <use xlink:href="#DejaVuSans-42" transform="translate(1415.672044 0.765625)"/>
      <use xlink:href="#DejaVuSans-5d" transform="translate(1484.27556 0.765625)"/>
     </g>
    </g>
   </g>
   <g id="line2d_55">
    <path d="M 65.918214 217.626585 
L 74.269634 139.078757 
L 82.621054 173.631129 
L 90.972474 210.733634 
L 99.323894 256.576723 
L 107.675315 266.892613 
L 116.026735 280.575168 
L 124.378155 299.249846 
L 132.729575 319.665704 
L 141.080995 331.414171 
L 149.432416 336.799061 
L 157.783836 343.598636 
L 166.135256 340.339648 
L 174.486676 346.029177 
L 182.838096 353.400965 
L 199.540937 356.863485 
L 207.892357 357.362603 
L 216.243777 365.783227 
L 224.595197 377.698728 
L 232.946618 385.576828 
L 241.298038 391.583442 
L 249.649458 395.20539 
L 258.000878 397.01668 
L 274.703719 401.436253 
L 283.055139 403.750329 
L 291.406559 405.71053 
L 299.757979 400.06055 
L 308.1094 387.728769 
L 316.46082 372.328251 
L 324.81224 371.040222 
L 333.16366 386.078231 
L 341.51508 397.666381 
L 358.217921 426.188934 
L 366.569341 439.24122 
L 374.920761 441.040945 
L 383.272181 445.538351 
L 391.623602 445.332292 
L 399.975022 440.127362 
L 408.326442 444.387715 
L 416.677862 440.587841 
L 425.029282 438.600038 
L 433.380703 441.079834 
L 441.732123 439.933832 
L 450.083543 439.88884 
L 458.434963 440.853074 
L 466.786383 442.295342 
L 475.137804 442.684869 
L 483.489224 440.930349 
L 491.840644 441.116235 
L 500.192064 441.727704 
L 508.543485 440.750237 
L 516.894905 440.987196 
L 525.246325 438.268483 
L 533.597745 438.596261 
L 541.949165 440.380039 
L 550.300586 442.369885 
L 558.652006 445.223271 
L 567.003426 443.357005 
L 575.354846 443.935238 
L 583.706266 441.562489 
L 592.057687 443.342819 
L 600.409107 441.13334 
L 608.760527 441.377312 
L 617.111947 440.939225 
L 625.463367 438.342104 
L 633.814788 436.897096 
L 642.166208 433.992913 
L 650.517628 432.864022 
L 658.869048 431.441319 
L 667.220468 434.121353 
L 675.571889 434.752829 
L 683.923309 434.274113 
L 692.274729 434.752818 
L 700.626149 435.976713 
L 708.977569 438.395666 
L 717.32899 442.645286 
L 725.68041 445.503056 
L 734.03183 448.02725 
L 742.38325 445.311551 
L 750.734671 443.744393 
L 759.086091 444.547853 
L 767.437511 446.565393 
L 775.788931 446.714831 
L 784.140351 449.797737 
L 792.491772 449.202181 
L 800.843192 447.138496 
L 809.194612 450.904669 
L 817.546032 449.187034 
L 825.897452 447.768205 
L 834.248873 450.80868 
L 842.600293 448.711048 
L 850.951713 450.757022 
L 859.303133 453.77966 
L 867.654553 450.359513 
L 876.005974 450.760924 
L 884.357394 452.943766 
L 892.708814 451.442016 
L 901.060234 453.728163 
L 909.411654 451.181965 
L 917.763075 451.493939 
L 926.114495 448.658851 
L 934.465915 447.23148 
L 942.817335 446.776537 
L 951.168755 444.359204 
L 959.520176 447.090369 
L 967.871596 445.336022 
L 976.223016 447.59394 
L 984.574436 440.806979 
L 992.925856 438.569502 
L 1001.277277 439.310012 
L 1009.628697 442.183574 
L 1017.980117 440.730258 
L 1026.331537 442.665165 
L 1034.682958 441.34387 
L 1043.034378 440.138668 
L 1051.385798 437.142784 
L 1059.737218 435.199002 
L 1068.088638 439.361265 
L 1076.440059 437.749682 
L 1084.791479 434.873654 
L 1093.142899 437.482511 
L 1101.494319 435.468955 
L 1109.845739 437.638119 
L 1118.19716 440.921817 
L 1126.54858 442.706625 
L 1134.9 473.121271 
L 1134.9 473.121271 
" clip-path="url(#p69f85f8d1f)" style="fill: none; stroke: #e04356; stroke-width: 1.5; stroke-linecap: square"/>
   </g>
   <g id="line2d_56">
    <path d="M 65.918214 191.903746 
L 74.269634 127.488084 
L 82.621054 119.090832 
L 90.972474 106.142499 
L 99.323894 129.598715 
L 107.675315 143.52447 
L 116.026735 168.492334 
L 124.378155 182.239645 
L 132.729575 193.099163 
L 141.080995 201.236552 
L 157.783836 222.676222 
L 166.135256 234.292931 
L 174.486676 252.325455 
L 182.838096 261.719385 
L 191.189517 276.636633 
L 199.540937 282.805953 
L 207.892357 292.180033 
L 216.243777 300.16838 
L 224.595197 306.656242 
L 232.946618 317.397225 
L 241.298038 327.802014 
L 249.649458 339.473833 
L 258.000878 353.402118 
L 266.352299 359.430704 
L 274.703719 362.864559 
L 283.055139 366.9755 
L 291.406559 368.421969 
L 299.757979 371.877193 
L 308.1094 372.554969 
L 316.46082 369.415868 
L 324.81224 359.247126 
L 333.16366 356.28815 
L 341.51508 354.682187 
L 349.866501 345.108032 
L 358.217921 326.697734 
L 366.569341 313.703306 
L 374.920761 312.708079 
L 383.272181 323.182308 
L 391.623602 343.914019 
L 399.975022 367.750006 
L 408.326442 389.928417 
L 416.677862 408.963596 
L 425.029282 422.174273 
L 433.380703 431.534823 
L 441.732123 441.705655 
L 450.083543 448.052989 
L 458.434963 456.129116 
L 466.786383 460.643274 
L 475.137804 461.020736 
L 483.489224 465.687865 
L 491.840644 468.769757 
L 500.192064 470.577259 
L 508.543485 473.019739 
L 516.894905 473.678622 
L 525.246325 477.753651 
L 533.597745 480.833032 
L 550.300586 479.358225 
L 558.652006 482.497669 
L 567.003426 487.146036 
L 575.354846 484.572253 
L 583.706266 482.464004 
L 592.057687 489.06879 
L 600.409107 493.35131 
L 608.760527 497.969326 
L 617.111947 500.555524 
L 625.463367 498.781639 
L 633.814788 503.404474 
L 642.166208 506.817138 
L 650.517628 505.037928 
L 667.220468 510.247448 
L 675.571889 510.369026 
L 683.923309 510.703127 
L 692.274729 513.746556 
L 700.626149 516.5648 
L 708.977569 523.235593 
L 717.32899 522.884872 
L 725.68041 523.103939 
L 734.03183 527.027333 
L 742.38325 527.55445 
L 750.734671 531.041433 
L 759.086091 537.060904 
L 767.437511 535.813835 
L 775.788931 533.504493 
L 784.140351 534.760342 
L 792.491772 536.944335 
L 800.843192 538.882277 
L 817.546032 537.49331 
L 825.897452 539.295406 
L 834.248873 543.090145 
L 842.600293 543.224526 
L 850.951713 541.578414 
L 859.303133 541.623871 
L 867.654553 544.236358 
L 876.005974 544.776978 
L 884.357394 545.024507 
L 892.708814 545.130313 
L 901.060234 545.377574 
L 909.411654 542.972574 
L 917.763075 543.09278 
L 926.114495 544.229111 
L 934.465915 543.691851 
L 942.817335 544.396788 
L 951.168755 547.103289 
L 959.520176 543.261799 
L 976.223016 538.822278 
L 984.574436 536.379136 
L 992.925856 534.42992 
L 1001.277277 534.012804 
L 1009.628697 534.126943 
L 1017.980117 532.888331 
L 1026.331537 531.281044 
L 1034.682958 529.395568 
L 1043.034378 529.373503 
L 1051.385798 528.56671 
L 1059.737218 529.025557 
L 1068.088638 528.657578 
L 1076.440059 525.069422 
L 1084.791479 522.489986 
L 1093.142899 524.268878 
L 1101.494319 527.937463 
L 1109.845739 527.526765 
L 1118.19716 525.394756 
L 1126.54858 516.282599 
L 1134.9 539.2017 
L 1134.9 539.2017 
" clip-path="url(#p69f85f8d1f)" style="fill: none; stroke: #008000; stroke-width: 1.5; stroke-linecap: square"/>
   </g>
   <g id="line2d_57">
    <path d="M 65.918214 162.186593 
L 74.269634 97.39314 
L 82.621054 70.778139 
L 90.972474 67.094378 
L 99.323894 117.287815 
L 107.675315 134.363813 
L 124.378155 184.662022 
L 132.729575 201.824373 
L 141.080995 208.68441 
L 149.432416 211.874826 
L 157.783836 225.743673 
L 166.135256 240.660418 
L 174.486676 260.560445 
L 182.838096 273.047227 
L 191.189517 293.634271 
L 199.540937 289.57688 
L 207.892357 289.1512 
L 216.243777 303.739152 
L 224.595197 306.903208 
L 232.946618 324.258747 
L 241.298038 333.658925 
L 249.649458 340.123644 
L 258.000878 358.199193 
L 266.352299 364.866313 
L 274.703719 361.115084 
L 283.055139 354.470095 
L 291.406559 363.688217 
L 299.757979 372.373641 
L 308.1094 375.374329 
L 316.46082 385.201808 
L 324.81224 361.985106 
L 333.16366 348.221754 
L 341.51508 332.808267 
L 349.866501 324.63655 
L 358.217921 320.082564 
L 366.569341 318.820143 
L 374.920761 334.635318 
L 383.272181 351.094227 
L 391.623602 383.331228 
L 399.975022 414.677606 
L 408.326442 437.32794 
L 416.677862 453.320876 
L 425.029282 453.419674 
L 433.380703 473.013148 
L 441.732123 478.003691 
L 450.083543 476.996355 
L 458.434963 485.493974 
L 466.786383 492.836573 
L 475.137804 485.36599 
L 483.489224 488.667294 
L 491.840644 499.456968 
L 500.192064 512.779775 
L 508.543485 507.732171 
L 516.894905 504.718352 
L 525.246325 501.838443 
L 533.597745 494.560933 
L 541.949165 502.581981 
L 550.300586 516.565371 
L 558.652006 518.663357 
L 567.003426 523.285289 
L 575.354846 524.328484 
L 583.706266 519.894095 
L 592.057687 511.562478 
L 600.409107 521.922047 
L 608.760527 520.712387 
L 617.111947 519.784228 
L 625.463367 530.888541 
L 633.814788 535.390952 
L 642.166208 527.443743 
L 650.517628 525.213827 
L 658.869048 528.828556 
L 667.220468 521.439349 
L 675.571889 526.493537 
L 683.923309 532.72853 
L 692.274729 531.974682 
L 700.626149 534.875155 
L 708.977569 546.304852 
L 717.32899 552.873536 
L 725.68041 550.859533 
L 734.03183 551.015392 
L 742.38325 572.453839 
L 750.734671 567.023045 
L 759.086091 555.506636 
L 767.437511 555.759728 
L 775.788931 560.330038 
L 784.140351 561.895132 
L 792.491772 556.687641 
L 800.843192 563.897652 
L 809.194612 575.433761 
L 817.546032 559.355293 
L 825.897452 559.105617 
L 834.248873 560.296462 
L 842.600293 568.295908 
L 850.951713 571.444123 
L 859.303133 565.749335 
L 867.654553 564.942477 
L 876.005974 563.580267 
L 884.357394 559.610088 
L 892.708814 558.279182 
L 901.060234 553.242824 
L 909.411654 564.054037 
L 917.763075 568.248299 
L 926.114495 570.087225 
L 934.465915 556.73403 
L 942.817335 549.743435 
L 951.168755 566.366384 
L 959.520176 560.680959 
L 967.871596 548.5592 
L 976.223016 550.275375 
L 984.574436 567.792528 
L 992.925856 560.479698 
L 1001.277277 545.504384 
L 1009.628697 534.518222 
L 1017.980117 543.922507 
L 1026.331537 542.650323 
L 1034.682958 546.441511 
L 1043.034378 539.783448 
L 1051.385798 530.99166 
L 1059.737218 532.043361 
L 1068.088638 543.134983 
L 1076.440059 537.695623 
L 1084.791479 530.213079 
L 1093.142899 538.624782 
L 1101.494319 541.426133 
L 1109.845739 544.025794 
L 1118.19716 549.709483 
L 1126.54858 529.500745 
L 1134.9 541.304448 
L 1134.9 541.304448 
" clip-path="url(#p69f85f8d1f)" style="fill: none; stroke: #00ffff; stroke-width: 1.5; stroke-linecap: square"/>
   </g>
   <g id="line2d_58">
    <path d="M 65.918214 171.570932 
L 74.269634 95.207129 
L 82.621054 60.540735 
L 90.972474 52.754432 
L 99.323894 78.314183 
L 107.675315 72.631242 
L 116.026735 116.92961 
L 124.378155 137.440079 
L 132.729575 167.066503 
L 141.080995 200.449282 
L 149.432416 192.274356 
L 157.783836 199.928318 
L 166.135256 226.23789 
L 174.486676 249.443037 
L 182.838096 250.781748 
L 191.189517 275.415652 
L 199.540937 281.637497 
L 207.892357 296.433528 
L 216.243777 300.311408 
L 224.595197 296.708601 
L 232.946618 304.296602 
L 241.298038 312.82858 
L 249.649458 352.620883 
L 258.000878 353.151762 
L 266.352299 346.069485 
L 274.703719 343.351844 
L 283.055139 363.554693 
L 291.406559 384.881033 
L 299.757979 391.867465 
L 308.1094 393.788455 
L 316.46082 392.860776 
L 324.81224 383.531009 
L 341.51508 374.810799 
L 349.866501 366.084456 
L 358.217921 342.155247 
L 366.569341 341.667355 
L 374.920761 351.231888 
L 383.272181 360.045784 
L 391.623602 375.405801 
L 399.975022 392.80544 
L 416.677862 417.74815 
L 425.029282 423.493945 
L 433.380703 431.591151 
L 441.732123 453.241164 
L 450.083543 457.926961 
L 458.434963 470.773098 
L 466.786383 498.323103 
L 475.137804 490.618036 
L 483.489224 496.159872 
L 491.840644 508.735059 
L 500.192064 505.292964 
L 508.543485 500.777411 
L 516.894905 496.727881 
L 525.246325 497.339899 
L 541.949165 518.175024 
L 550.300586 527.535775 
L 558.652006 532.769219 
L 567.003426 517.493487 
L 575.354846 512.482305 
L 583.706266 530.866155 
L 592.057687 534.399369 
L 600.409107 516.700573 
L 608.760527 530.160422 
L 617.111947 540.597762 
L 625.463367 542.080056 
L 633.814788 554.969235 
L 642.166208 540.957937 
L 650.517628 547.458094 
L 658.869048 533.120895 
L 667.220468 542.168326 
L 675.571889 539.304376 
L 683.923309 550.22711 
L 692.274729 542.614058 
L 700.626149 537.534785 
L 708.977569 550.469213 
L 717.32899 549.98609 
L 725.68041 555.343768 
L 734.03183 543.803436 
L 742.38325 544.70328 
L 750.734671 552.404807 
L 759.086091 556.51294 
L 767.437511 567.215355 
L 775.788931 553.709911 
L 784.140351 550.859893 
L 792.491772 561.439051 
L 800.843192 565.928622 
L 809.194612 571.131965 
L 817.546032 565.721951 
L 825.897452 564.858212 
L 834.248873 566.546156 
L 842.600293 569.979724 
L 850.951713 563.175513 
L 859.303133 572.104113 
L 867.654553 579.693068 
L 876.005974 576.265531 
L 892.708814 578.102152 
L 901.060234 568.253038 
L 909.411654 572.153903 
L 917.763075 577.505894 
L 926.114495 576.369102 
L 934.465915 557.012729 
L 942.817335 565.994069 
L 951.168755 573.893787 
L 959.520176 574.516707 
L 967.871596 559.620116 
L 976.223016 554.195957 
L 984.574436 553.961133 
L 992.925856 552.88607 
L 1001.277277 559.833351 
L 1009.628697 547.923765 
L 1017.980117 542.931862 
L 1026.331537 544.281456 
L 1034.682958 536.484996 
L 1043.034378 531.181407 
L 1051.385798 542.065124 
L 1059.737218 551.729918 
L 1068.088638 550.324243 
L 1076.440059 555.303302 
L 1084.791479 551.785457 
L 1093.142899 558.724792 
L 1101.494319 549.225024 
L 1109.845739 546.021259 
L 1118.19716 553.667552 
L 1126.54858 536.931408 
L 1134.9 544.81735 
L 1134.9 544.81735 
" clip-path="url(#p69f85f8d1f)" style="fill: none; stroke: #8868de; stroke-width: 1.5; stroke-linecap: square"/>
   </g>
   <g id="patch_3">
    <path d="M 65.918214 606.04 
L 65.918214 26.4075 
" style="fill: none; stroke: #000000; stroke-width: 0.8; stroke-linejoin: miter; stroke-linecap: square"/>
   </g>
   <g id="patch_4">
    <path d="M 65.918214 606.04 
L 1134.9 606.04 
" style="fill: none; stroke: #000000; stroke-width: 0.8; stroke-linejoin: miter; stroke-linecap: square"/>
   </g>
   <g id="text_14">
    <!--          -->
    <g transform="translate(479.611607 20.4075)scale(0.16 -0.16)">
     <defs>
      <path id="BNazanin-fe8f" d="M 4331 900 
Q 4331 456 4034 269 
Q 3834 144 3313 50 
Q 2738 -53 2069 -53 
Q 484 -53 484 816 
Q 484 1106 706 1425 
Q 750 1488 794 1488 
Q 838 1488 838 1431 
Q 838 1403 822 1366 
Q 734 1166 734 1006 
Q 734 416 2244 416 
Q 2978 416 3500 503 
Q 4078 600 4078 766 
Q 4078 866 3803 1234 
L 4000 1613 
Q 4034 1678 4075 1613 
Q 4331 1206 4331 900 
z
M 2753 -906 
L 2428 -1231 
L 2100 -903 
L 2425 -578 
L 2753 -906 
z
" transform="scale(0.015625)"/>
      <path id="BNazanin-fe8d" d="M 934 497 
Q 934 253 834 50 
Q 775 -72 753 -72 
Q 728 -72 728 81 
Q 728 775 484 3469 
L 816 3778 
Q 859 3819 875 3822 
Q 891 3822 894 3753 
Q 934 2963 934 497 
z
M 934 497 
Q 934 253 834 50 
Q 775 -72 753 -72 
Q 728 -72 728 81 
Q 728 775 484 3469 
L 816 3778 
Q 859 3819 875 3822 
Q 891 3822 894 3753 
Q 934 2963 934 497 
z
" transform="scale(0.015625)"/>
      <path id="BNazanin-feee" d="M 2484 3 
L 2050 3 
Q 1994 -813 1422 -1388 
Q 1241 -1569 1194 -1569 
Q 866 -1569 416 -1500 
Q 269 -1478 269 -1453 
Q 269 -1428 425 -1381 
Q 919 -1238 1328 -881 
Q 1503 -728 1647 -528 
Q 1828 -275 1828 -103 
L 1828 3 
L 1328 3 
Q 753 3 753 469 
Q 753 766 925 1106 
Q 1122 1494 1375 1494 
Q 1684 1494 1872 1113 
Q 2009 834 2044 466 
L 2484 466 
L 2484 3 
z
M 1769 472 
Q 1769 653 1641 838 
Q 1497 1047 1309 1047 
Q 1188 1047 1091 948 
Q 994 850 994 728 
Q 994 456 1459 456 
Q 1581 456 1769 472 
z
" transform="scale(0.015625)"/>
      <path id="BNazanin-fea7" d="M 3203 1166 
L 3028 853 
Q 2581 859 2403 794 
Q 2163 703 1678 463 
Q 1209 228 953 138 
Q 575 3 203 3 
L -81 3 
L -81 466 
L 219 466 
Q 775 466 1197 650 
L 2128 1056 
Q 1906 1106 1419 1288 
Q 1016 1438 897 1438 
Q 666 1438 425 1234 
Q 378 1194 341 1194 
Q 300 1194 300 1247 
Q 300 1269 313 1306 
Q 509 1884 984 1884 
Q 1153 1884 1444 1753 
Q 1931 1534 2169 1453 
Q 2578 1316 3144 1278 
Q 3244 1272 3244 1253 
Q 3244 1238 3203 1166 
z
M 2069 2988 
L 1744 2663 
L 1419 2991 
L 1744 3316 
L 2069 2988 
z
" transform="scale(0.015625)"/>
      <path id="BNazanin-20" transform="scale(0.015625)"/>
      <path id="BNazanin-fbfc" d="M 4122 1466 
Q 4147 1353 4131 1338 
Q 4119 1322 4031 1372 
Q 3847 1475 3563 1475 
Q 3169 1475 2831 1141 
Q 2553 863 2553 700 
Q 2553 506 3109 406 
Q 3719 294 3822 113 
Q 3844 75 3844 -9 
Q 3844 -338 3634 -672 
Q 3497 -894 3034 -1078 
Q 2463 -1306 1725 -1306 
Q 1206 -1306 863 -1041 
Q 484 -747 484 -244 
Q 484 316 850 797 
Q 906 869 959 884 
Q 1009 897 1009 847 
Q 1009 809 975 747 
Q 741 316 741 -56 
Q 741 -328 944 -547 
Q 1222 -844 1769 -844 
Q 2256 -844 2797 -722 
Q 3578 -547 3578 -231 
Q 3578 -113 2813 34 
Q 2528 91 2425 150 
Q 2278 238 2278 447 
Q 2278 838 2684 1363 
Q 3122 1928 3550 1928 
Q 4016 1928 4122 1466 
z
" transform="scale(0.015625)"/>
      <path id="BNazanin-fe8e" d="M 1584 3 
L 1313 3 
Q 866 3 694 369 
Q 572 625 575 1134 
L 578 1897 
Q 581 2450 484 3453 
L 731 3716 
Q 800 3788 813 3706 
Q 897 3184 897 2128 
L 897 963 
Q 897 466 1375 466 
L 1584 466 
L 1584 3 
z
" transform="scale(0.015625)"/>
      <path id="BNazanin-feeb" d="M 2522 819 
Q 2522 597 2372 350 
Q 2194 59 1953 59 
Q 1766 59 1097 334 
Q 575 3 138 3 
L -81 3 
L -81 466 
L 153 466 
Q 419 466 628 522 
Q 381 697 381 997 
Q 381 1384 903 1784 
L 638 1916 
Q 753 2031 981 2269 
Q 1544 1997 1934 1691 
Q 2522 1228 2522 819 
z
M 2309 663 
Q 2309 825 2063 1063 
Q 1863 1256 1697 1341 
Q 1697 866 1422 634 
Q 1916 472 2066 472 
Q 2309 472 2309 663 
z
M 1469 1134 
Q 1469 1288 1400 1416 
Q 1319 1569 1178 1569 
Q 1022 1569 844 1434 
Q 656 1294 656 1144 
Q 656 881 1091 753 
Q 1228 784 1341 888 
Q 1469 1003 1469 1134 
z
" transform="scale(0.015625)"/>
      <path id="BNazanin-feea" d="M 2738 3 
L 2441 3 
Q 1928 3 1791 641 
Q 1509 363 1466 363 
L 1113 363 
Q 925 363 741 419 
Q 484 497 484 638 
Q 484 1088 803 1369 
Q 1016 1556 1538 1763 
L 1459 2147 
L 1728 2450 
Q 1744 2400 2000 1141 
Q 2078 756 2144 641 
Q 2244 466 2459 466 
L 2738 466 
L 2738 3 
z
M 1741 819 
L 1606 1453 
Q 1403 1394 1122 1256 
Q 738 1069 738 959 
Q 738 869 1031 819 
Q 1238 784 1397 784 
Q 1594 784 1741 819 
z
" transform="scale(0.015625)"/>
      <path id="BNazanin-fee0" d="M 1559 3 
L 1397 3 
Q 878 3 681 384 
Q 628 213 438 103 
Q 266 3 72 3 
L -81 3 
L -81 466 
L 78 466 
Q 575 466 575 881 
L 575 2266 
Q 575 3056 541 3478 
L 881 3766 
L 881 1075 
Q 881 466 1400 466 
L 1559 466 
L 1559 3 
z
" transform="scale(0.015625)"/>
      <path id="BNazanin-fea3" d="M 3203 1166 
L 3028 853 
Q 2581 859 2403 794 
Q 2163 703 1678 463 
Q 1209 228 953 138 
Q 575 3 203 3 
L -81 3 
L -81 466 
L 219 466 
Q 775 466 1197 650 
L 2128 1056 
Q 1906 1106 1419 1288 
Q 1016 1438 897 1438 
Q 666 1438 425 1234 
Q 378 1194 341 1194 
Q 300 1194 300 1247 
Q 300 1269 313 1306 
Q 509 1884 984 1884 
Q 1153 1884 1444 1753 
Q 1931 1534 2169 1453 
Q 2578 1316 3144 1278 
Q 3244 1272 3244 1253 
Q 3244 1238 3203 1166 
z
" transform="scale(0.015625)"/>
      <path id="BNazanin-feae" d="M 2488 3 
L 2319 3 
Q 2100 3 1988 78 
Q 1994 16 1994 -47 
Q 1994 -609 1628 -1131 
Q 1313 -1581 1113 -1581 
Q 656 -1581 325 -1534 
Q 216 -1519 216 -1481 
Q 216 -1444 328 -1422 
Q 797 -1325 1272 -925 
Q 1778 -497 1778 -103 
Q 1778 159 1359 566 
L 1544 941 
Q 1566 988 1581 991 
Q 1600 984 1634 938 
Q 1819 694 1919 613 
Q 2106 466 2363 466 
L 2488 466 
L 2488 3 
z
" transform="scale(0.015625)"/>
      <path id="BNazanin-fee3" d="M 2066 797 
Q 2091 500 1997 297 
Q 1853 -13 1678 -13 
Q 1359 -13 772 397 
Q 591 181 519 125 
Q 363 3 134 3 
L -81 3 
L -81 466 
L 203 466 
Q 472 466 675 741 
Q 775 884 1034 1250 
Q 1231 1525 1438 1525 
Q 1728 1525 1913 1231 
Q 2047 1016 2066 797 
z
M 1828 503 
Q 1828 678 1697 884 
Q 1550 1116 1375 1116 
Q 1197 1116 956 750 
Q 1056 641 1322 520 
Q 1588 400 1734 400 
Q 1828 400 1828 503 
z
" transform="scale(0.015625)"/>
      <path id="BNazanin-feaf" d="M 2016 -34 
Q 2016 -619 1644 -1138 
Q 1325 -1581 1113 -1581 
Q 656 -1581 325 -1534 
Q 216 -1519 216 -1481 
Q 216 -1444 328 -1422 
Q 797 -1325 1272 -925 
Q 1778 -497 1778 -103 
Q 1778 159 1359 566 
L 1541 944 
Q 1566 994 1578 997 
Q 1597 991 1631 947 
Q 1775 772 1891 481 
Q 2016 175 2016 -34 
z
M 1722 2113 
L 1397 1788 
L 1072 2116 
L 1397 2438 
L 1722 2113 
z
" transform="scale(0.015625)"/>
      <path id="BNazanin-fee1" d="M 2553 794 
Q 2553 694 2428 475 
Q 2294 244 2209 244 
Q 2047 244 1725 305 
Q 1403 366 1241 366 
Q 922 366 781 300 
Q 884 -738 884 -1216 
Q 884 -1428 725 -1738 
Q 691 -1806 675 -1809 
Q 659 -1809 656 -1750 
Q 594 -803 484 188 
Q 472 300 600 478 
Q 703 622 788 681 
Q 916 772 1088 772 
Q 1044 941 1044 1044 
Q 1044 1241 1197 1466 
Q 1375 1725 1603 1725 
Q 1878 1725 2215 1395 
Q 2553 1066 2553 794 
z
M 2234 659 
Q 2153 866 1947 1063 
Q 1716 1281 1519 1281 
Q 1244 1281 1244 1075 
Q 1244 959 1306 772 
Q 1706 772 2234 659 
z
" transform="scale(0.015625)"/>
      <path id="BNazanin-feaa" d="M 3116 3 
L 2938 3 
Q 2713 3 2556 147 
Q 2459 238 2322 466 
Q 2178 209 1988 106 
Q 1756 -22 1325 -22 
Q 484 -22 484 581 
Q 484 784 609 1000 
Q 650 1072 691 1072 
Q 728 1072 728 1009 
Q 728 975 718 908 
Q 709 841 709 806 
Q 709 447 1319 447 
Q 2178 447 2178 781 
Q 2178 963 1681 2084 
L 1859 2394 
Q 1894 2453 1906 2456 
Q 1925 2444 1953 2378 
Q 2153 1906 2500 953 
Q 2678 466 3003 466 
L 3116 466 
L 3116 3 
z
" transform="scale(0.015625)"/>
      <path id="BNazanin-fb90" d="M 2559 3703 
Q 2544 3600 2406 3244 
L 1397 2928 
Q 719 2709 478 2566 
Q 953 2094 1122 1878 
Q 1444 1466 1478 1097 
Q 1506 800 1391 519 
Q 1181 3 134 3 
L -81 3 
L -81 466 
L 144 466 
Q 616 466 822 509 
Q 1253 600 1253 894 
Q 1253 1294 597 1888 
L 541 1800 
Q 478 1850 325 2050 
Q 159 2259 159 2306 
Q 159 2419 203 2609 
Q 253 2822 309 2888 
Q 347 2931 1134 3225 
Q 2019 3556 2559 3703 
z
" transform="scale(0.015625)"/>
      <path id="BNazanin-fead" d="M 2016 -34 
Q 2016 -619 1644 -1138 
Q 1325 -1581 1113 -1581 
Q 656 -1581 325 -1534 
Q 216 -1519 216 -1481 
Q 216 -1444 328 -1422 
Q 797 -1325 1272 -925 
Q 1778 -497 1778 -103 
Q 1778 159 1359 566 
L 1541 944 
Q 1566 994 1578 997 
Q 1597 991 1631 947 
Q 1775 772 1891 481 
Q 2016 175 2016 -34 
z
" transform="scale(0.015625)"/>
      <path id="BNazanin-fea9" d="M 2438 838 
Q 2438 3 1331 3 
Q 919 3 728 116 
Q 481 259 481 638 
Q 481 816 578 1000 
Q 622 1084 659 1084 
Q 706 1084 694 981 
Q 684 906 684 856 
Q 684 606 909 519 
Q 1047 466 1353 466 
Q 2228 466 2228 738 
Q 2228 1166 1206 1906 
L 1325 2313 
Q 1344 2372 1359 2372 
Q 1378 2372 1438 2325 
Q 2438 1522 2438 838 
z
" transform="scale(0.015625)"/>
      <path id="BNazanin-fee5" d="M 3453 59 
Q 3488 -150 3488 -291 
Q 3488 -516 3413 -728 
Q 3256 -1175 2709 -1422 
Q 2253 -1628 1716 -1628 
Q 1191 -1628 853 -1369 
Q 484 -1081 484 -569 
Q 484 -297 619 13 
Q 716 234 819 359 
Q 869 419 909 419 
Q 947 419 947 375 
Q 947 347 928 309 
Q 750 -56 750 -359 
Q 750 -656 947 -872 
Q 1206 -1156 1731 -1156 
Q 2325 -1156 2781 -944 
Q 3156 -769 3250 -563 
Q 3281 -494 3281 -391 
Q 3281 -231 3200 0 
Q 3131 194 2825 628 
L 2988 953 
Q 3025 1025 3044 1025 
Q 3063 1025 3100 966 
Q 3375 538 3453 59 
z
M 2275 1791 
L 1950 1466 
L 1622 1794 
L 1947 2119 
L 2275 1791 
z
" transform="scale(0.015625)"/>
      <path id="BNazanin-fe97" d="M 1038 797 
Q 1038 3 247 3 
L -81 3 
L -81 466 
L 191 466 
Q 788 466 788 681 
Q 788 831 516 1178 
L 678 1572 
Q 703 1631 719 1631 
Q 734 1631 784 1559 
Q 1038 1188 1038 797 
z
M 1353 2547 
L 1044 2238 
L 731 2550 
L 1041 2856 
L 1353 2547 
z
M 666 2547 
L 359 2238 
L 47 2550 
L 356 2856 
L 666 2547 
z
" transform="scale(0.015625)"/>
      <path id="BNazanin-fbfd" d="M 4075 3 
L 3163 3 
Q 2994 3 2838 -50 
Q 2622 -122 2622 -253 
Q 2622 -284 3198 -412 
Q 3775 -541 3775 -666 
Q 3775 -1138 3503 -1369 
Q 3044 -1763 1884 -1763 
Q 484 -1763 484 -728 
Q 484 -494 584 -208 
Q 684 78 828 266 
Q 884 341 931 344 
Q 978 347 978 294 
Q 978 247 941 175 
Q 759 -169 759 -538 
Q 759 -947 1147 -1144 
Q 1444 -1294 1900 -1294 
Q 2384 -1294 2788 -1244 
Q 3513 -1153 3513 -934 
Q 3513 -844 3197 -791 
Q 2694 -706 2616 -684 
Q 2300 -597 2300 -416 
Q 2300 -272 2453 -56 
Q 2581 122 2722 238 
Q 3003 466 3522 466 
L 4075 466 
L 4075 3 
z
" transform="scale(0.015625)"/>
      <path id="BNazanin-fed4" d="M 2247 3 
L 2041 3 
Q 1847 3 1578 75 
Q 1281 153 1150 253 
Q 1016 163 791 94 
Q 500 3 209 3 
L -81 3 
L -81 466 
L 106 466 
Q 575 466 722 534 
Q 631 600 564 739 
Q 497 878 497 991 
Q 497 1241 700 1572 
Q 938 1959 1234 1959 
Q 1522 1959 1672 1650 
Q 1788 1413 1791 1091 
Q 1794 881 1691 719 
Q 1634 628 1519 541 
Q 1663 466 2088 466 
L 2247 466 
L 2247 3 
z
M 1559 1031 
Q 1559 1175 1441 1328 
Q 1316 1494 1178 1497 
Q 1044 1500 895 1362 
Q 747 1225 744 1091 
Q 741 944 888 816 
Q 1016 703 1172 669 
Q 1316 688 1431 788 
Q 1559 897 1559 1031 
z
M 1444 2997 
L 1119 2672 
L 791 3000 
L 1116 3325 
L 1444 2997 
z
" transform="scale(0.015625)"/>
      <path id="BNazanin-fbff" d="M 2050 3 
L 1744 3 
Q 1191 3 1003 366 
Q 797 3 178 3 
L -81 3 
L -81 466 
L 275 466 
Q 859 466 913 919 
Q 934 1100 1003 1100 
Q 1072 1100 1091 913 
Q 1131 466 1697 466 
L 2050 466 
L 2050 3 
z
M 1419 -878 
L 1109 -1188 
L 797 -875 
L 1106 -566 
L 1419 -878 
z
M 731 -878 
L 425 -1188 
L 113 -875 
L 422 -566 
L 731 -878 
z
" transform="scale(0.015625)"/>
      <path id="BNazanin-fec3" d="M 3128 1088 
Q 3128 428 2409 181 
Q 1891 3 722 3 
L -81 3 
L -81 466 
L 338 466 
Q 528 466 591 544 
Q 638 603 634 791 
Q 631 1041 616 1688 
Q 581 2672 475 3444 
L 759 3731 
Q 800 3772 813 3775 
Q 828 3775 853 3684 
Q 913 3459 1025 3194 
Q 1053 3125 1047 3113 
Q 1031 3106 984 3106 
L 859 3106 
Q 919 2028 919 1828 
L 919 1397 
Q 919 1159 809 716 
Q 847 716 1113 966 
Q 1441 1275 1688 1431 
Q 2084 1681 2428 1681 
Q 2728 1681 2916 1538 
Q 3128 1378 3128 1088 
z
M 2850 828 
Q 2850 1022 2622 1156 
Q 2425 1272 2219 1272 
Q 1778 1272 847 497 
Q 1106 469 1375 469 
Q 1728 469 2188 541 
Q 2850 644 2850 828 
z
" transform="scale(0.015625)"/>
      <path id="BNazanin-fedf" d="M 1000 3178 
Q 1034 3097 1025 3081 
Q 1019 3072 959 3072 
L 831 3072 
Q 872 2272 856 809 
Q 853 456 684 241 
Q 497 3 153 3 
L -81 3 
L -81 466 
L 131 466 
Q 603 466 588 825 
Q 534 2113 453 3434 
L 719 3688 
Q 781 3747 794 3750 
Q 806 3738 825 3666 
Q 872 3484 1000 3178 
z
" transform="scale(0.015625)"/>
      <path id="BNazanin-fb95" d="M 2378 3853 
L 2297 3556 
L 338 2928 
L 422 3219 
L 2378 3853 
z
M 2788 3 
L 2556 3 
Q 2241 3 1922 284 
Q 1700 481 1394 909 
Q 1341 3 144 3 
L -81 3 
L -81 466 
L 81 466 
Q 1191 466 1191 913 
Q 1191 1253 666 1747 
Q 441 1959 141 2169 
Q 141 2425 266 2553 
Q 316 2603 2466 3256 
Q 2459 3178 2334 2825 
Q 1809 2688 559 2291 
Q 1184 1641 1650 1100 
Q 1922 784 2072 669 
Q 2334 466 2625 466 
L 2788 466 
L 2788 3 
z
" transform="scale(0.015625)"/>
      <path id="BNazanin-fb7c" d="M 3203 1166 
L 3028 853 
Q 2581 859 2403 794 
Q 2163 703 1678 463 
Q 1209 228 953 138 
Q 575 3 203 3 
L -81 3 
L -81 466 
L 219 466 
Q 775 466 1197 650 
L 2128 1056 
Q 1906 1106 1419 1288 
Q 1016 1438 897 1438 
Q 666 1438 425 1234 
Q 378 1194 341 1194 
Q 300 1194 300 1247 
Q 300 1269 313 1306 
Q 509 1884 984 1884 
Q 1153 1884 1444 1753 
Q 1931 1534 2169 1453 
Q 2578 1316 3144 1278 
Q 3244 1272 3244 1253 
Q 3244 1238 3203 1166 
z
M 1350 -1372 
L 1641 -1078 
L 1934 -1375 
L 1644 -1666 
L 1350 -1372 
z
M 988 -747 
L 1281 -453 
L 1578 -750 
L 1284 -1041 
L 988 -747 
z
M 1700 -747 
L 1994 -453 
L 2291 -750 
L 1997 -1041 
L 1700 -747 
z
" transform="scale(0.015625)"/>
     </defs>
     <use xlink:href="#BNazanin-fe8f"/>
     <use xlink:href="#BNazanin-fe8d" x="67.724609"/>
     <use xlink:href="#BNazanin-feee" x="82.421875"/>
     <use xlink:href="#BNazanin-fea7" x="119.921875"/>
     <use xlink:href="#BNazanin-20" x="170.605469"/>
     <use xlink:href="#BNazanin-fbfc" x="195.019531"/>
     <use xlink:href="#BNazanin-fe8e" x="259.765625"/>
     <use xlink:href="#BNazanin-feeb" x="283.203125"/>
     <use xlink:href="#BNazanin-feea" x="322.65625"/>
     <use xlink:href="#BNazanin-fee0" x="364.160156"/>
     <use xlink:href="#BNazanin-fea3" x="387.255859"/>
     <use xlink:href="#BNazanin-feae" x="437.939453"/>
     <use xlink:href="#BNazanin-fee3" x="475.537109"/>
     <use xlink:href="#BNazanin-20" x="507.861328"/>
     <use xlink:href="#BNazanin-feaf" x="532.275391"/>
     <use xlink:href="#BNazanin-fe8d" x="563.867188"/>
     <use xlink:href="#BNazanin-20" x="578.564453"/>
     <use xlink:href="#BNazanin-fee1" x="602.978516"/>
     <use xlink:href="#BNazanin-fe8d" x="642.96875"/>
     <use xlink:href="#BNazanin-feaa" x="657.666016"/>
     <use xlink:href="#BNazanin-fb90" x="705.078125"/>
     <use xlink:href="#BNazanin-20" x="742.431641"/>
     <use xlink:href="#BNazanin-feae" x="766.845703"/>
     <use xlink:href="#BNazanin-feeb" x="804.443359"/>
     <use xlink:href="#BNazanin-20" x="843.896484"/>
     <use xlink:href="#BNazanin-fead" x="868.310547"/>
     <use xlink:href="#BNazanin-fea9" x="899.902344"/>
     <use xlink:href="#BNazanin-20" x="938.085938"/>
     <use xlink:href="#BNazanin-fee5" x="962.5"/>
     <use xlink:href="#BNazanin-fe8d" x="1017.089844"/>
     <use xlink:href="#BNazanin-feee" x="1031.787109"/>
     <use xlink:href="#BNazanin-fe97" x="1069.287109"/>
     <use xlink:href="#BNazanin-20" x="1090.429688"/>
     <use xlink:href="#BNazanin-fbfd" x="1114.84375"/>
     <use xlink:href="#BNazanin-fed4" x="1177.197266"/>
     <use xlink:href="#BNazanin-fbff" x="1210.986328"/>
     <use xlink:href="#BNazanin-fec3" x="1241.748047"/>
     <use xlink:href="#BNazanin-20" x="1290.673828"/>
     <use xlink:href="#BNazanin-fbfd" x="1315.087891"/>
     <use xlink:href="#BNazanin-fedf" x="1377.441406"/>
     <use xlink:href="#BNazanin-fe8e" x="1393.457031"/>
     <use xlink:href="#BNazanin-fb95" x="1416.894531"/>
     <use xlink:href="#BNazanin-fb7c" x="1459.179688"/>
    </g>
   </g>
   <g id="legend_1">
    <g id="patch_5">
     <path d="M 1082.05625 93.12 
L 1127.9 93.12 
Q 1129.9 93.12 1129.9 91.12 
L 1129.9 33.4075 
Q 1129.9 31.4075 1127.9 31.4075 
L 1082.05625 31.4075 
Q 1080.05625 31.4075 1080.05625 33.4075 
L 1080.05625 91.12 
Q 1080.05625 93.12 1082.05625 93.12 
z
" style="fill: #ffffff; opacity: 0.8; stroke: #cccccc; stroke-linejoin: miter"/>
    </g>
    <g id="patch_6">
     <path d="M 1084.05625 43.005937 
L 1104.05625 43.005937 
L 1104.05625 36.005937 
L 1084.05625 36.005937 
z
" style="fill: #e04356; stroke: #e04356; stroke-linejoin: miter"/>
    </g>
    <g id="text_15">
     <!-- N1 -->
     <g transform="translate(1112.05625 43.005937)scale(0.1 -0.1)">
      <defs>
       <path id="DejaVuSans-4e" d="M 628 4666 
L 1478 4666 
L 3547 763 
L 3547 4666 
L 4159 4666 
L 4159 0 
L 3309 0 
L 1241 3903 
L 1241 0 
L 628 0 
L 628 4666 
z
" transform="scale(0.015625)"/>
      </defs>
      <use xlink:href="#DejaVuSans-4e"/>
      <use xlink:href="#DejaVuSans-31" x="74.804688"/>
     </g>
    </g>
    <g id="patch_7">
     <path d="M 1084.05625 57.684062 
L 1104.05625 57.684062 
L 1104.05625 50.684062 
L 1084.05625 50.684062 
z
" style="fill: #008000; stroke: #008000; stroke-linejoin: miter"/>
    </g>
    <g id="text_16">
     <!-- N2 -->
     <g transform="translate(1112.05625 57.684062)scale(0.1 -0.1)">
      <use xlink:href="#DejaVuSans-4e"/>
      <use xlink:href="#DejaVuSans-32" x="74.804688"/>
     </g>
    </g>
    <g id="patch_8">
     <path d="M 1084.05625 72.362188 
L 1104.05625 72.362188 
L 1104.05625 65.362188 
L 1084.05625 65.362188 
z
" style="fill: #00ffff; stroke: #00ffff; stroke-linejoin: miter"/>
    </g>
    <g id="text_17">
     <!-- N3 -->
     <g transform="translate(1112.05625 72.362188)scale(0.1 -0.1)">
      <use xlink:href="#DejaVuSans-4e"/>
      <use xlink:href="#DejaVuSans-33" x="74.804688"/>
     </g>
    </g>
    <g id="patch_9">
     <path d="M 1084.05625 87.040312 
L 1104.05625 87.040312 
L 1104.05625 80.040312 
L 1084.05625 80.040312 
z
" style="fill: #8868de; stroke: #8868de; stroke-linejoin: miter"/>
    </g>
    <g id="text_18">
     <!-- N4 -->
     <g transform="translate(1112.05625 87.040312)scale(0.1 -0.1)">
      <use xlink:href="#DejaVuSans-4e"/>
      <use xlink:href="#DejaVuSans-34" x="74.804688"/>
     </g>
    </g>
   </g>
  </g>
 </g>
 <defs>
  <clipPath id="p69f85f8d1f">
   <rect x="65.918214" y="26.4075" width="1068.981786" height="579.6325"/>
  </clipPath>
 </defs>
</svg>
