<?xml version="1.0" encoding="utf-8" standalone="no"?>
<!DOCTYPE svg PUBLIC "-//W3C//DTD SVG 1.1//EN"
  "http://www.w3.org/Graphics/SVG/1.1/DTD/svg11.dtd">
<svg xmlns:xlink="http://www.w3.org/1999/xlink" width="1152pt" height="648pt" viewBox="0 0 1152 648" xmlns="http://www.w3.org/2000/svg" version="1.1">
 <metadata>
  <rdf:RDF xmlns:dc="http://purl.org/dc/elements/1.1/" xmlns:cc="http://creativecommons.org/ns#" xmlns:rdf="http://www.w3.org/1999/02/22-rdf-syntax-ns#">
   <cc:Work>
    <dc:type rdf:resource="http://purl.org/dc/dcmitype/StillImage"/>
    <dc:date>2022-08-27T19:47:03.964583</dc:date>
    <dc:format>image/svg+xml</dc:format>
    <dc:creator>
     <cc:Agent>
      <dc:title>Matplotlib v3.5.3, https://matplotlib.org/</dc:title>
     </cc:Agent>
    </dc:creator>
   </cc:Work>
  </rdf:RDF>
 </metadata>
 <defs>
  <style type="text/css">*{stroke-linejoin: round; stroke-linecap: butt}</style>
 </defs>
 <g id="figure_1">
  <g id="patch_1">
   <path d="M 0 648 
L 1152 648 
L 1152 0 
L 0 0 
z
" style="fill: #ffffff"/>
  </g>
  <g id="axes_1">
   <g id="patch_2">
    <path d="M 44.57 606.04 
L 1130.175 606.04 
L 1130.175 26.88 
L 44.57 26.88 
z
" style="fill: #ffffff"/>
   </g>
   <g id="matplotlib.axis_1">
    <g id="xtick_1">
     <g id="line2d_1">
      <path d="M 175.497236 606.04 
L 175.497236 26.88 
" clip-path="url(#p21e527bc22)" style="fill: none; stroke-dasharray: 0.8,1.32; stroke-dashoffset: 0; stroke: #b0b0b0; stroke-width: 0.8"/>
     </g>
     <g id="line2d_2">
      <defs>
       <path id="m6ce4e3ff99" d="M 0 0 
L 0 3.5 
" style="stroke: #000000; stroke-width: 0.8"/>
      </defs>
      <g>
       <use xlink:href="#m6ce4e3ff99" x="175.497236" y="606.04" style="stroke: #000000; stroke-width: 0.8"/>
      </g>
     </g>
     <g id="text_1">
      <!-- 2.5 -->
      <g transform="translate(167.545674 620.638438)scale(0.1 -0.1)">
       <defs>
        <path id="DejaVuSans-32" d="M 1228 531 
L 3431 531 
L 3431 0 
L 469 0 
L 469 531 
Q 828 903 1448 1529 
Q 2069 2156 2228 2338 
Q 2531 2678 2651 2914 
Q 2772 3150 2772 3378 
Q 2772 3750 2511 3984 
Q 2250 4219 1831 4219 
Q 1534 4219 1204 4116 
Q 875 4013 500 3803 
L 500 4441 
Q 881 4594 1212 4672 
Q 1544 4750 1819 4750 
Q 2544 4750 2975 4387 
Q 3406 4025 3406 3419 
Q 3406 3131 3298 2873 
Q 3191 2616 2906 2266 
Q 2828 2175 2409 1742 
Q 1991 1309 1228 531 
z
" transform="scale(0.015625)"/>
        <path id="DejaVuSans-2e" d="M 684 794 
L 1344 794 
L 1344 0 
L 684 0 
L 684 794 
z
" transform="scale(0.015625)"/>
        <path id="DejaVuSans-35" d="M 691 4666 
L 3169 4666 
L 3169 4134 
L 1269 4134 
L 1269 2991 
Q 1406 3038 1543 3061 
Q 1681 3084 1819 3084 
Q 2600 3084 3056 2656 
Q 3513 2228 3513 1497 
Q 3513 744 3044 326 
Q 2575 -91 1722 -91 
Q 1428 -91 1123 -41 
Q 819 9 494 109 
L 494 744 
Q 775 591 1075 516 
Q 1375 441 1709 441 
Q 2250 441 2565 725 
Q 2881 1009 2881 1497 
Q 2881 1984 2565 2268 
Q 2250 2553 1709 2553 
Q 1456 2553 1204 2497 
Q 953 2441 691 2322 
L 691 4666 
z
" transform="scale(0.015625)"/>
       </defs>
       <use xlink:href="#DejaVuSans-32"/>
       <use xlink:href="#DejaVuSans-2e" x="63.623047"/>
       <use xlink:href="#DejaVuSans-35" x="95.410156"/>
      </g>
     </g>
    </g>
    <g id="xtick_2">
     <g id="line2d_3">
      <path d="M 311.879774 606.04 
L 311.879774 26.88 
" clip-path="url(#p21e527bc22)" style="fill: none; stroke-dasharray: 0.8,1.32; stroke-dashoffset: 0; stroke: #b0b0b0; stroke-width: 0.8"/>
     </g>
     <g id="line2d_4">
      <g>
       <use xlink:href="#m6ce4e3ff99" x="311.879774" y="606.04" style="stroke: #000000; stroke-width: 0.8"/>
      </g>
     </g>
     <g id="text_2">
      <!-- 5.0 -->
      <g transform="translate(303.928211 620.638438)scale(0.1 -0.1)">
       <defs>
        <path id="DejaVuSans-30" d="M 2034 4250 
Q 1547 4250 1301 3770 
Q 1056 3291 1056 2328 
Q 1056 1369 1301 889 
Q 1547 409 2034 409 
Q 2525 409 2770 889 
Q 3016 1369 3016 2328 
Q 3016 3291 2770 3770 
Q 2525 4250 2034 4250 
z
M 2034 4750 
Q 2819 4750 3233 4129 
Q 3647 3509 3647 2328 
Q 3647 1150 3233 529 
Q 2819 -91 2034 -91 
Q 1250 -91 836 529 
Q 422 1150 422 2328 
Q 422 3509 836 4129 
Q 1250 4750 2034 4750 
z
" transform="scale(0.015625)"/>
       </defs>
       <use xlink:href="#DejaVuSans-35"/>
       <use xlink:href="#DejaVuSans-2e" x="63.623047"/>
       <use xlink:href="#DejaVuSans-30" x="95.410156"/>
      </g>
     </g>
    </g>
    <g id="xtick_3">
     <g id="line2d_5">
      <path d="M 448.262312 606.04 
L 448.262312 26.88 
" clip-path="url(#p21e527bc22)" style="fill: none; stroke-dasharray: 0.8,1.32; stroke-dashoffset: 0; stroke: #b0b0b0; stroke-width: 0.8"/>
     </g>
     <g id="line2d_6">
      <g>
       <use xlink:href="#m6ce4e3ff99" x="448.262312" y="606.04" style="stroke: #000000; stroke-width: 0.8"/>
      </g>
     </g>
     <g id="text_3">
      <!-- 7.5 -->
      <g transform="translate(440.310749 620.638438)scale(0.1 -0.1)">
       <defs>
        <path id="DejaVuSans-37" d="M 525 4666 
L 3525 4666 
L 3525 4397 
L 1831 0 
L 1172 0 
L 2766 4134 
L 525 4134 
L 525 4666 
z
" transform="scale(0.015625)"/>
       </defs>
       <use xlink:href="#DejaVuSans-37"/>
       <use xlink:href="#DejaVuSans-2e" x="63.623047"/>
       <use xlink:href="#DejaVuSans-35" x="95.410156"/>
      </g>
     </g>
    </g>
    <g id="xtick_4">
     <g id="line2d_7">
      <path d="M 584.644849 606.04 
L 584.644849 26.88 
" clip-path="url(#p21e527bc22)" style="fill: none; stroke-dasharray: 0.8,1.32; stroke-dashoffset: 0; stroke: #b0b0b0; stroke-width: 0.8"/>
     </g>
     <g id="line2d_8">
      <g>
       <use xlink:href="#m6ce4e3ff99" x="584.644849" y="606.04" style="stroke: #000000; stroke-width: 0.8"/>
      </g>
     </g>
     <g id="text_4">
      <!-- 10.0 -->
      <g transform="translate(573.512037 620.638438)scale(0.1 -0.1)">
       <defs>
        <path id="DejaVuSans-31" d="M 794 531 
L 1825 531 
L 1825 4091 
L 703 3866 
L 703 4441 
L 1819 4666 
L 2450 4666 
L 2450 531 
L 3481 531 
L 3481 0 
L 794 0 
L 794 531 
z
" transform="scale(0.015625)"/>
       </defs>
       <use xlink:href="#DejaVuSans-31"/>
       <use xlink:href="#DejaVuSans-30" x="63.623047"/>
       <use xlink:href="#DejaVuSans-2e" x="127.246094"/>
       <use xlink:href="#DejaVuSans-30" x="159.033203"/>
      </g>
     </g>
    </g>
    <g id="xtick_5">
     <g id="line2d_9">
      <path d="M 721.027387 606.04 
L 721.027387 26.88 
" clip-path="url(#p21e527bc22)" style="fill: none; stroke-dasharray: 0.8,1.32; stroke-dashoffset: 0; stroke: #b0b0b0; stroke-width: 0.8"/>
     </g>
     <g id="line2d_10">
      <g>
       <use xlink:href="#m6ce4e3ff99" x="721.027387" y="606.04" style="stroke: #000000; stroke-width: 0.8"/>
      </g>
     </g>
     <g id="text_5">
      <!-- 12.5 -->
      <g transform="translate(709.894574 620.638438)scale(0.1 -0.1)">
       <use xlink:href="#DejaVuSans-31"/>
       <use xlink:href="#DejaVuSans-32" x="63.623047"/>
       <use xlink:href="#DejaVuSans-2e" x="127.246094"/>
       <use xlink:href="#DejaVuSans-35" x="159.033203"/>
      </g>
     </g>
    </g>
    <g id="xtick_6">
     <g id="line2d_11">
      <path d="M 857.409925 606.04 
L 857.409925 26.88 
" clip-path="url(#p21e527bc22)" style="fill: none; stroke-dasharray: 0.8,1.32; stroke-dashoffset: 0; stroke: #b0b0b0; stroke-width: 0.8"/>
     </g>
     <g id="line2d_12">
      <g>
       <use xlink:href="#m6ce4e3ff99" x="857.409925" y="606.04" style="stroke: #000000; stroke-width: 0.8"/>
      </g>
     </g>
     <g id="text_6">
      <!-- 15.0 -->
      <g transform="translate(846.277112 620.638438)scale(0.1 -0.1)">
       <use xlink:href="#DejaVuSans-31"/>
       <use xlink:href="#DejaVuSans-35" x="63.623047"/>
       <use xlink:href="#DejaVuSans-2e" x="127.246094"/>
       <use xlink:href="#DejaVuSans-30" x="159.033203"/>
      </g>
     </g>
    </g>
    <g id="xtick_7">
     <g id="line2d_13">
      <path d="M 993.792462 606.04 
L 993.792462 26.88 
" clip-path="url(#p21e527bc22)" style="fill: none; stroke-dasharray: 0.8,1.32; stroke-dashoffset: 0; stroke: #b0b0b0; stroke-width: 0.8"/>
     </g>
     <g id="line2d_14">
      <g>
       <use xlink:href="#m6ce4e3ff99" x="993.792462" y="606.04" style="stroke: #000000; stroke-width: 0.8"/>
      </g>
     </g>
     <g id="text_7">
      <!-- 17.5 -->
      <g transform="translate(982.65965 620.638438)scale(0.1 -0.1)">
       <use xlink:href="#DejaVuSans-31"/>
       <use xlink:href="#DejaVuSans-37" x="63.623047"/>
       <use xlink:href="#DejaVuSans-2e" x="127.246094"/>
       <use xlink:href="#DejaVuSans-35" x="159.033203"/>
      </g>
     </g>
    </g>
    <g id="xtick_8">
     <g id="line2d_15">
      <path d="M 1130.175 606.04 
L 1130.175 26.88 
" clip-path="url(#p21e527bc22)" style="fill: none; stroke-dasharray: 0.8,1.32; stroke-dashoffset: 0; stroke: #b0b0b0; stroke-width: 0.8"/>
     </g>
     <g id="line2d_16">
      <g>
       <use xlink:href="#m6ce4e3ff99" x="1130.175" y="606.04" style="stroke: #000000; stroke-width: 0.8"/>
      </g>
     </g>
     <g id="text_8">
      <!-- 20.0 -->
      <g transform="translate(1119.042188 620.638438)scale(0.1 -0.1)">
       <use xlink:href="#DejaVuSans-32"/>
       <use xlink:href="#DejaVuSans-30" x="63.623047"/>
       <use xlink:href="#DejaVuSans-2e" x="127.246094"/>
       <use xlink:href="#DejaVuSans-30" x="159.033203"/>
      </g>
     </g>
    </g>
    <g id="text_9">
     <!-- Frequency (Hz) -->
     <g transform="translate(549.667812 634.316563)scale(0.1 -0.1)">
      <defs>
       <path id="DejaVuSans-46" d="M 628 4666 
L 3309 4666 
L 3309 4134 
L 1259 4134 
L 1259 2759 
L 3109 2759 
L 3109 2228 
L 1259 2228 
L 1259 0 
L 628 0 
L 628 4666 
z
" transform="scale(0.015625)"/>
       <path id="DejaVuSans-72" d="M 2631 2963 
Q 2534 3019 2420 3045 
Q 2306 3072 2169 3072 
Q 1681 3072 1420 2755 
Q 1159 2438 1159 1844 
L 1159 0 
L 581 0 
L 581 3500 
L 1159 3500 
L 1159 2956 
Q 1341 3275 1631 3429 
Q 1922 3584 2338 3584 
Q 2397 3584 2469 3576 
Q 2541 3569 2628 3553 
L 2631 2963 
z
" transform="scale(0.015625)"/>
       <path id="DejaVuSans-65" d="M 3597 1894 
L 3597 1613 
L 953 1613 
Q 991 1019 1311 708 
Q 1631 397 2203 397 
Q 2534 397 2845 478 
Q 3156 559 3463 722 
L 3463 178 
Q 3153 47 2828 -22 
Q 2503 -91 2169 -91 
Q 1331 -91 842 396 
Q 353 884 353 1716 
Q 353 2575 817 3079 
Q 1281 3584 2069 3584 
Q 2775 3584 3186 3129 
Q 3597 2675 3597 1894 
z
M 3022 2063 
Q 3016 2534 2758 2815 
Q 2500 3097 2075 3097 
Q 1594 3097 1305 2825 
Q 1016 2553 972 2059 
L 3022 2063 
z
" transform="scale(0.015625)"/>
       <path id="DejaVuSans-71" d="M 947 1747 
Q 947 1113 1208 752 
Q 1469 391 1925 391 
Q 2381 391 2643 752 
Q 2906 1113 2906 1747 
Q 2906 2381 2643 2742 
Q 2381 3103 1925 3103 
Q 1469 3103 1208 2742 
Q 947 2381 947 1747 
z
M 2906 525 
Q 2725 213 2448 61 
Q 2172 -91 1784 -91 
Q 1150 -91 751 415 
Q 353 922 353 1747 
Q 353 2572 751 3078 
Q 1150 3584 1784 3584 
Q 2172 3584 2448 3432 
Q 2725 3281 2906 2969 
L 2906 3500 
L 3481 3500 
L 3481 -1331 
L 2906 -1331 
L 2906 525 
z
" transform="scale(0.015625)"/>
       <path id="DejaVuSans-75" d="M 544 1381 
L 544 3500 
L 1119 3500 
L 1119 1403 
Q 1119 906 1312 657 
Q 1506 409 1894 409 
Q 2359 409 2629 706 
Q 2900 1003 2900 1516 
L 2900 3500 
L 3475 3500 
L 3475 0 
L 2900 0 
L 2900 538 
Q 2691 219 2414 64 
Q 2138 -91 1772 -91 
Q 1169 -91 856 284 
Q 544 659 544 1381 
z
M 1991 3584 
L 1991 3584 
z
" transform="scale(0.015625)"/>
       <path id="DejaVuSans-6e" d="M 3513 2113 
L 3513 0 
L 2938 0 
L 2938 2094 
Q 2938 2591 2744 2837 
Q 2550 3084 2163 3084 
Q 1697 3084 1428 2787 
Q 1159 2491 1159 1978 
L 1159 0 
L 581 0 
L 581 3500 
L 1159 3500 
L 1159 2956 
Q 1366 3272 1645 3428 
Q 1925 3584 2291 3584 
Q 2894 3584 3203 3211 
Q 3513 2838 3513 2113 
z
" transform="scale(0.015625)"/>
       <path id="DejaVuSans-63" d="M 3122 3366 
L 3122 2828 
Q 2878 2963 2633 3030 
Q 2388 3097 2138 3097 
Q 1578 3097 1268 2742 
Q 959 2388 959 1747 
Q 959 1106 1268 751 
Q 1578 397 2138 397 
Q 2388 397 2633 464 
Q 2878 531 3122 666 
L 3122 134 
Q 2881 22 2623 -34 
Q 2366 -91 2075 -91 
Q 1284 -91 818 406 
Q 353 903 353 1747 
Q 353 2603 823 3093 
Q 1294 3584 2113 3584 
Q 2378 3584 2631 3529 
Q 2884 3475 3122 3366 
z
" transform="scale(0.015625)"/>
       <path id="DejaVuSans-79" d="M 2059 -325 
Q 1816 -950 1584 -1140 
Q 1353 -1331 966 -1331 
L 506 -1331 
L 506 -850 
L 844 -850 
Q 1081 -850 1212 -737 
Q 1344 -625 1503 -206 
L 1606 56 
L 191 3500 
L 800 3500 
L 1894 763 
L 2988 3500 
L 3597 3500 
L 2059 -325 
z
" transform="scale(0.015625)"/>
       <path id="DejaVuSans-20" transform="scale(0.015625)"/>
       <path id="DejaVuSans-28" d="M 1984 4856 
Q 1566 4138 1362 3434 
Q 1159 2731 1159 2009 
Q 1159 1288 1364 580 
Q 1569 -128 1984 -844 
L 1484 -844 
Q 1016 -109 783 600 
Q 550 1309 550 2009 
Q 550 2706 781 3412 
Q 1013 4119 1484 4856 
L 1984 4856 
z
" transform="scale(0.015625)"/>
       <path id="DejaVuSans-48" d="M 628 4666 
L 1259 4666 
L 1259 2753 
L 3553 2753 
L 3553 4666 
L 4184 4666 
L 4184 0 
L 3553 0 
L 3553 2222 
L 1259 2222 
L 1259 0 
L 628 0 
L 628 4666 
z
" transform="scale(0.015625)"/>
       <path id="DejaVuSans-7a" d="M 353 3500 
L 3084 3500 
L 3084 2975 
L 922 459 
L 3084 459 
L 3084 0 
L 275 0 
L 275 525 
L 2438 3041 
L 353 3041 
L 353 3500 
z
" transform="scale(0.015625)"/>
       <path id="DejaVuSans-29" d="M 513 4856 
L 1013 4856 
Q 1481 4119 1714 3412 
Q 1947 2706 1947 2009 
Q 1947 1309 1714 600 
Q 1481 -109 1013 -844 
L 513 -844 
Q 928 -128 1133 580 
Q 1338 1288 1338 2009 
Q 1338 2731 1133 3434 
Q 928 4138 513 4856 
z
" transform="scale(0.015625)"/>
      </defs>
      <use xlink:href="#DejaVuSans-46"/>
      <use xlink:href="#DejaVuSans-72" x="50.269531"/>
      <use xlink:href="#DejaVuSans-65" x="89.132812"/>
      <use xlink:href="#DejaVuSans-71" x="150.65625"/>
      <use xlink:href="#DejaVuSans-75" x="214.132812"/>
      <use xlink:href="#DejaVuSans-65" x="277.511719"/>
      <use xlink:href="#DejaVuSans-6e" x="339.035156"/>
      <use xlink:href="#DejaVuSans-63" x="402.414062"/>
      <use xlink:href="#DejaVuSans-79" x="457.394531"/>
      <use xlink:href="#DejaVuSans-20" x="516.574219"/>
      <use xlink:href="#DejaVuSans-28" x="548.361328"/>
      <use xlink:href="#DejaVuSans-48" x="587.375"/>
      <use xlink:href="#DejaVuSans-7a" x="662.570312"/>
      <use xlink:href="#DejaVuSans-29" x="715.060547"/>
     </g>
    </g>
   </g>
   <g id="matplotlib.axis_2">
    <g id="ytick_1">
     <g id="line2d_17">
      <path d="M 44.57 553.799115 
L 1130.175 553.799115 
" clip-path="url(#p21e527bc22)" style="fill: none; stroke-dasharray: 0.8,1.32; stroke-dashoffset: 0; stroke: #b0b0b0; stroke-width: 0.8"/>
     </g>
     <g id="line2d_18">
      <defs>
       <path id="m4cdc80be9d" d="M 0 0 
L -3.5 0 
" style="stroke: #000000; stroke-width: 0.8"/>
      </defs>
      <g>
       <use xlink:href="#m4cdc80be9d" x="44.57" y="553.799115" style="stroke: #000000; stroke-width: 0.8"/>
      </g>
     </g>
     <g id="text_10">
      <!-- 10 -->
      <g transform="translate(24.845 557.598334)scale(0.1 -0.1)">
       <use xlink:href="#DejaVuSans-31"/>
       <use xlink:href="#DejaVuSans-30" x="63.623047"/>
      </g>
     </g>
    </g>
    <g id="ytick_2">
     <g id="line2d_19">
      <path d="M 44.57 486.217265 
L 1130.175 486.217265 
" clip-path="url(#p21e527bc22)" style="fill: none; stroke-dasharray: 0.8,1.32; stroke-dashoffset: 0; stroke: #b0b0b0; stroke-width: 0.8"/>
     </g>
     <g id="line2d_20">
      <g>
       <use xlink:href="#m4cdc80be9d" x="44.57" y="486.217265" style="stroke: #000000; stroke-width: 0.8"/>
      </g>
     </g>
     <g id="text_11">
      <!-- 15 -->
      <g transform="translate(24.845 490.016483)scale(0.1 -0.1)">
       <use xlink:href="#DejaVuSans-31"/>
       <use xlink:href="#DejaVuSans-35" x="63.623047"/>
      </g>
     </g>
    </g>
    <g id="ytick_3">
     <g id="line2d_21">
      <path d="M 44.57 418.635414 
L 1130.175 418.635414 
" clip-path="url(#p21e527bc22)" style="fill: none; stroke-dasharray: 0.8,1.32; stroke-dashoffset: 0; stroke: #b0b0b0; stroke-width: 0.8"/>
     </g>
     <g id="line2d_22">
      <g>
       <use xlink:href="#m4cdc80be9d" x="44.57" y="418.635414" style="stroke: #000000; stroke-width: 0.8"/>
      </g>
     </g>
     <g id="text_12">
      <!-- 20 -->
      <g transform="translate(24.845 422.434633)scale(0.1 -0.1)">
       <use xlink:href="#DejaVuSans-32"/>
       <use xlink:href="#DejaVuSans-30" x="63.623047"/>
      </g>
     </g>
    </g>
    <g id="ytick_4">
     <g id="line2d_23">
      <path d="M 44.57 351.053564 
L 1130.175 351.053564 
" clip-path="url(#p21e527bc22)" style="fill: none; stroke-dasharray: 0.8,1.32; stroke-dashoffset: 0; stroke: #b0b0b0; stroke-width: 0.8"/>
     </g>
     <g id="line2d_24">
      <g>
       <use xlink:href="#m4cdc80be9d" x="44.57" y="351.053564" style="stroke: #000000; stroke-width: 0.8"/>
      </g>
     </g>
     <g id="text_13">
      <!-- 25 -->
      <g transform="translate(24.845 354.852783)scale(0.1 -0.1)">
       <use xlink:href="#DejaVuSans-32"/>
       <use xlink:href="#DejaVuSans-35" x="63.623047"/>
      </g>
     </g>
    </g>
    <g id="ytick_5">
     <g id="line2d_25">
      <path d="M 44.57 283.471714 
L 1130.175 283.471714 
" clip-path="url(#p21e527bc22)" style="fill: none; stroke-dasharray: 0.8,1.32; stroke-dashoffset: 0; stroke: #b0b0b0; stroke-width: 0.8"/>
     </g>
     <g id="line2d_26">
      <g>
       <use xlink:href="#m4cdc80be9d" x="44.57" y="283.471714" style="stroke: #000000; stroke-width: 0.8"/>
      </g>
     </g>
     <g id="text_14">
      <!-- 30 -->
      <g transform="translate(24.845 287.270933)scale(0.1 -0.1)">
       <defs>
        <path id="DejaVuSans-33" d="M 2597 2516 
Q 3050 2419 3304 2112 
Q 3559 1806 3559 1356 
Q 3559 666 3084 287 
Q 2609 -91 1734 -91 
Q 1441 -91 1130 -33 
Q 819 25 488 141 
L 488 750 
Q 750 597 1062 519 
Q 1375 441 1716 441 
Q 2309 441 2620 675 
Q 2931 909 2931 1356 
Q 2931 1769 2642 2001 
Q 2353 2234 1838 2234 
L 1294 2234 
L 1294 2753 
L 1863 2753 
Q 2328 2753 2575 2939 
Q 2822 3125 2822 3475 
Q 2822 3834 2567 4026 
Q 2313 4219 1838 4219 
Q 1578 4219 1281 4162 
Q 984 4106 628 3988 
L 628 4550 
Q 988 4650 1302 4700 
Q 1616 4750 1894 4750 
Q 2613 4750 3031 4423 
Q 3450 4097 3450 3541 
Q 3450 3153 3228 2886 
Q 3006 2619 2597 2516 
z
" transform="scale(0.015625)"/>
       </defs>
       <use xlink:href="#DejaVuSans-33"/>
       <use xlink:href="#DejaVuSans-30" x="63.623047"/>
      </g>
     </g>
    </g>
    <g id="ytick_6">
     <g id="line2d_27">
      <path d="M 44.57 215.889864 
L 1130.175 215.889864 
" clip-path="url(#p21e527bc22)" style="fill: none; stroke-dasharray: 0.8,1.32; stroke-dashoffset: 0; stroke: #b0b0b0; stroke-width: 0.8"/>
     </g>
     <g id="line2d_28">
      <g>
       <use xlink:href="#m4cdc80be9d" x="44.57" y="215.889864" style="stroke: #000000; stroke-width: 0.8"/>
      </g>
     </g>
     <g id="text_15">
      <!-- 35 -->
      <g transform="translate(24.845 219.689083)scale(0.1 -0.1)">
       <use xlink:href="#DejaVuSans-33"/>
       <use xlink:href="#DejaVuSans-35" x="63.623047"/>
      </g>
     </g>
    </g>
    <g id="ytick_7">
     <g id="line2d_29">
      <path d="M 44.57 148.308014 
L 1130.175 148.308014 
" clip-path="url(#p21e527bc22)" style="fill: none; stroke-dasharray: 0.8,1.32; stroke-dashoffset: 0; stroke: #b0b0b0; stroke-width: 0.8"/>
     </g>
     <g id="line2d_30">
      <g>
       <use xlink:href="#m4cdc80be9d" x="44.57" y="148.308014" style="stroke: #000000; stroke-width: 0.8"/>
      </g>
     </g>
     <g id="text_16">
      <!-- 40 -->
      <g transform="translate(24.845 152.107232)scale(0.1 -0.1)">
       <defs>
        <path id="DejaVuSans-34" d="M 2419 4116 
L 825 1625 
L 2419 1625 
L 2419 4116 
z
M 2253 4666 
L 3047 4666 
L 3047 1625 
L 3713 1625 
L 3713 1100 
L 3047 1100 
L 3047 0 
L 2419 0 
L 2419 1100 
L 313 1100 
L 313 1709 
L 2253 4666 
z
" transform="scale(0.015625)"/>
       </defs>
       <use xlink:href="#DejaVuSans-34"/>
       <use xlink:href="#DejaVuSans-30" x="63.623047"/>
      </g>
     </g>
    </g>
    <g id="ytick_8">
     <g id="line2d_31">
      <path d="M 44.57 80.726164 
L 1130.175 80.726164 
" clip-path="url(#p21e527bc22)" style="fill: none; stroke-dasharray: 0.8,1.32; stroke-dashoffset: 0; stroke: #b0b0b0; stroke-width: 0.8"/>
     </g>
     <g id="line2d_32">
      <g>
       <use xlink:href="#m4cdc80be9d" x="44.57" y="80.726164" style="stroke: #000000; stroke-width: 0.8"/>
      </g>
     </g>
     <g id="text_17">
      <!-- 45 -->
      <g transform="translate(24.845 84.525382)scale(0.1 -0.1)">
       <use xlink:href="#DejaVuSans-34"/>
       <use xlink:href="#DejaVuSans-35" x="63.623047"/>
      </g>
     </g>
    </g>
    <g id="text_18">
     <!-- µV^2/Hz (dB) -->
     <g transform="translate(18.765312 350.596719)rotate(-90)scale(0.1 -0.1)">
      <defs>
       <path id="DejaVuSans-b5" d="M 544 -1331 
L 544 3500 
L 1119 3500 
L 1119 1325 
Q 1119 872 1334 640 
Q 1550 409 1972 409 
Q 2434 409 2667 671 
Q 2900 934 2900 1459 
L 2900 3500 
L 3475 3500 
L 3475 806 
Q 3475 619 3529 530 
Q 3584 441 3700 441 
Q 3728 441 3778 458 
Q 3828 475 3916 513 
L 3916 50 
Q 3788 -22 3673 -56 
Q 3559 -91 3450 -91 
Q 3234 -91 3106 31 
Q 2978 153 2931 403 
Q 2775 156 2548 32 
Q 2322 -91 2016 -91 
Q 1697 -91 1473 31 
Q 1250 153 1119 397 
L 1119 -1331 
L 544 -1331 
z
" transform="scale(0.015625)"/>
       <path id="DejaVuSans-56" d="M 1831 0 
L 50 4666 
L 709 4666 
L 2188 738 
L 3669 4666 
L 4325 4666 
L 2547 0 
L 1831 0 
z
" transform="scale(0.015625)"/>
       <path id="DejaVuSans-5e" d="M 2988 4666 
L 4684 2925 
L 4056 2925 
L 2681 4159 
L 1306 2925 
L 678 2925 
L 2375 4666 
L 2988 4666 
z
" transform="scale(0.015625)"/>
       <path id="DejaVuSans-2f" d="M 1625 4666 
L 2156 4666 
L 531 -594 
L 0 -594 
L 1625 4666 
z
" transform="scale(0.015625)"/>
       <path id="DejaVuSans-64" d="M 2906 2969 
L 2906 4863 
L 3481 4863 
L 3481 0 
L 2906 0 
L 2906 525 
Q 2725 213 2448 61 
Q 2172 -91 1784 -91 
Q 1150 -91 751 415 
Q 353 922 353 1747 
Q 353 2572 751 3078 
Q 1150 3584 1784 3584 
Q 2172 3584 2448 3432 
Q 2725 3281 2906 2969 
z
M 947 1747 
Q 947 1113 1208 752 
Q 1469 391 1925 391 
Q 2381 391 2643 752 
Q 2906 1113 2906 1747 
Q 2906 2381 2643 2742 
Q 2381 3103 1925 3103 
Q 1469 3103 1208 2742 
Q 947 2381 947 1747 
z
" transform="scale(0.015625)"/>
       <path id="DejaVuSans-42" d="M 1259 2228 
L 1259 519 
L 2272 519 
Q 2781 519 3026 730 
Q 3272 941 3272 1375 
Q 3272 1813 3026 2020 
Q 2781 2228 2272 2228 
L 1259 2228 
z
M 1259 4147 
L 1259 2741 
L 2194 2741 
Q 2656 2741 2882 2914 
Q 3109 3088 3109 3444 
Q 3109 3797 2882 3972 
Q 2656 4147 2194 4147 
L 1259 4147 
z
M 628 4666 
L 2241 4666 
Q 2963 4666 3353 4366 
Q 3744 4066 3744 3513 
Q 3744 3084 3544 2831 
Q 3344 2578 2956 2516 
Q 3422 2416 3680 2098 
Q 3938 1781 3938 1306 
Q 3938 681 3513 340 
Q 3088 0 2303 0 
L 628 0 
L 628 4666 
z
" transform="scale(0.015625)"/>
      </defs>
      <use xlink:href="#DejaVuSans-b5"/>
      <use xlink:href="#DejaVuSans-56" x="63.623047"/>
      <use xlink:href="#DejaVuSans-5e" x="132.03125"/>
      <use xlink:href="#DejaVuSans-32" x="215.820312"/>
      <use xlink:href="#DejaVuSans-2f" x="279.443359"/>
      <use xlink:href="#DejaVuSans-48" x="313.134766"/>
      <use xlink:href="#DejaVuSans-7a" x="388.330078"/>
      <use xlink:href="#DejaVuSans-20" x="440.820312"/>
      <use xlink:href="#DejaVuSans-28" x="472.607422"/>
      <use xlink:href="#DejaVuSans-64" x="511.621094"/>
      <use xlink:href="#DejaVuSans-42" x="575.097656"/>
      <use xlink:href="#DejaVuSans-29" x="643.701172"/>
     </g>
    </g>
   </g>
   <g id="line2d_33">
    <path clip-path="url(#p21e527bc22)" style="fill: none; stroke-dasharray: 7.4,3.2; stroke-dashoffset: 0; stroke: #000000; stroke-opacity: 0.25; stroke-width: 2"/>
   </g>
   <g id="line2d_34">
    <path d="M 66.391206 606.04 
L 66.391206 26.88 
" clip-path="url(#p21e527bc22)" style="fill: none; stroke-dasharray: 7.4,3.2; stroke-dashoffset: 0; stroke: #000000; stroke-opacity: 0.25; stroke-width: 2"/>
   </g>
   <g id="line2d_35">
    <path d="M 44.57 219.281307 
L 47.297651 194.471183 
L 50.025302 171.126466 
L 52.752952 158.976575 
L 55.480603 151.509918 
L 58.208254 146.93918 
L 60.935905 147.534076 
L 63.663555 153.419291 
L 66.391206 163.048433 
L 69.118857 179.337639 
L 74.574158 221.520876 
L 77.301809 244.537493 
L 80.02946 264.243672 
L 82.757111 267.927626 
L 85.484761 250.192359 
L 88.212412 245.003388 
L 93.667714 230.741553 
L 96.395364 225.278035 
L 99.123015 223.181081 
L 101.850666 224.742304 
L 104.578317 238.03459 
L 107.305967 244.699337 
L 110.033618 252.457265 
L 112.761269 262.866727 
L 115.48892 277.208207 
L 118.21657 289.648535 
L 120.944221 300.482344 
L 123.671872 307.922777 
L 126.399523 310.088229 
L 129.127173 310.506527 
L 131.854824 309.864141 
L 134.582475 307.546008 
L 137.310126 303.394595 
L 140.037776 297.721446 
L 142.765427 296.68367 
L 145.493078 297.353604 
L 148.220729 300.268521 
L 150.948379 304.184089 
L 153.67603 309.368433 
L 156.403681 315.943859 
L 159.131332 328.117383 
L 161.858982 327.82275 
L 164.586633 334.139773 
L 167.314284 338.844215 
L 170.041935 340.274134 
L 172.769585 340.116428 
L 178.224887 338.814144 
L 180.952538 344.458116 
L 183.680188 346.440394 
L 189.13549 341.535028 
L 191.863141 341.352999 
L 194.590791 341.989376 
L 197.318442 343.071878 
L 200.046093 345.293772 
L 202.773744 346.715734 
L 205.501394 350.143397 
L 208.229045 354.657515 
L 210.956696 360.267464 
L 213.684347 363.936218 
L 216.411997 366.389953 
L 219.139648 366.602769 
L 221.867299 365.011891 
L 224.59495 362.593502 
L 227.322601 359.533304 
L 230.050251 358.953129 
L 232.777902 358.078921 
L 235.505553 358.508641 
L 238.233204 360.005419 
L 240.960854 362.201656 
L 243.688505 365.655567 
L 246.416156 369.990109 
L 249.143807 372.532631 
L 251.871457 374.329568 
L 254.599108 376.338789 
L 257.326759 377.644493 
L 260.05441 380.058921 
L 262.78206 381.885603 
L 265.509711 384.354464 
L 268.237362 386.191059 
L 270.965013 385.689603 
L 273.692663 386.615843 
L 279.147965 387.000696 
L 281.875616 386.767963 
L 284.603266 387.470051 
L 287.330917 387.946827 
L 290.058568 389.642785 
L 292.786219 385.629042 
L 295.513869 385.933726 
L 298.24152 387.367066 
L 300.969171 389.971781 
L 303.696822 391.222176 
L 306.424472 393.063022 
L 309.152123 393.927833 
L 311.879774 398.142152 
L 314.607425 403.339823 
L 317.335075 403.909496 
L 320.062726 404.03391 
L 322.790377 404.535073 
L 325.518028 404.735337 
L 328.245678 405.770711 
L 330.973329 407.083269 
L 333.70098 407.638878 
L 336.428631 408.815239 
L 339.156281 409.619294 
L 344.611583 411.616577 
L 347.339234 413.828227 
L 350.066884 415.255719 
L 352.794535 416.857597 
L 355.522186 417.033482 
L 358.249837 416.953026 
L 360.977487 417.172164 
L 363.705138 417.558135 
L 366.432789 416.752864 
L 369.16044 416.625824 
L 371.88809 416.651128 
L 377.343392 419.005987 
L 380.071043 421.433061 
L 382.798693 422.789844 
L 388.253995 423.71321 
L 390.981646 425.360916 
L 396.436947 427.69898 
L 399.164598 427.120626 
L 401.892249 427.206742 
L 404.619899 428.944652 
L 407.34755 430.172084 
L 420.985804 430.958567 
L 423.713455 429.131812 
L 426.441106 428.400729 
L 429.168756 428.937063 
L 431.896407 430.173044 
L 434.624058 430.814883 
L 437.351709 432.409853 
L 440.079359 433.536021 
L 442.80701 435.304821 
L 445.534661 438.111214 
L 450.989962 438.220499 
L 453.717613 436.769703 
L 456.445264 436.871681 
L 459.172915 436.785649 
L 461.900565 437.244399 
L 464.628216 435.945184 
L 467.355867 434.034239 
L 470.083518 434.717724 
L 472.811168 434.736699 
L 475.538819 435.270969 
L 478.26647 434.884876 
L 480.994121 433.869287 
L 483.721771 434.82785 
L 486.449422 436.562342 
L 491.904724 435.058941 
L 494.632374 433.939449 
L 500.087676 432.368689 
L 502.815327 431.158432 
L 505.542977 429.288778 
L 508.270628 429.892983 
L 510.998279 429.359962 
L 513.72593 430.0908 
L 516.45358 429.652199 
L 519.181231 429.483918 
L 521.908882 429.558046 
L 524.636533 431.097469 
L 527.364183 431.554162 
L 530.091834 431.814257 
L 532.819485 431.822343 
L 535.547136 431.061245 
L 538.274786 430.8786 
L 541.002437 430.175026 
L 549.185389 428.634713 
L 551.91304 428.634169 
L 554.640691 428.497814 
L 557.368342 427.961755 
L 560.095992 428.223591 
L 562.823643 428.209112 
L 565.551294 427.777649 
L 568.278945 427.769594 
L 571.006595 427.539965 
L 573.734246 427.861945 
L 576.461897 427.954421 
L 579.189548 428.634938 
L 581.917198 429.052982 
L 584.644849 428.140408 
L 587.3725 429.216087 
L 590.100151 430.861207 
L 592.827802 430.982289 
L 595.555452 431.526126 
L 598.283103 431.548113 
L 601.010754 430.997745 
L 603.738405 431.074026 
L 606.466055 431.469874 
L 609.193706 430.78869 
L 614.649008 431.782586 
L 617.376658 432.10135 
L 620.104309 432.979597 
L 622.83196 433.043906 
L 625.559611 434.329735 
L 628.287261 434.723702 
L 636.470214 435.160743 
L 639.197864 436.102475 
L 641.925515 436.879251 
L 644.653166 436.809931 
L 647.380817 436.368623 
L 650.108467 434.85622 
L 652.836118 435.077543 
L 655.563769 435.635619 
L 661.01907 435.821663 
L 666.474372 437.86792 
L 669.202023 436.977456 
L 671.929673 437.560274 
L 674.657324 437.820569 
L 677.384975 437.198043 
L 680.112626 436.101886 
L 682.840276 434.783043 
L 685.567927 432.4864 
L 688.295578 432.765333 
L 691.023229 434.270376 
L 693.750879 434.186047 
L 696.47853 435.645363 
L 699.206181 437.914835 
L 701.933832 440.418012 
L 704.661482 443.754191 
L 707.389133 448.820423 
L 710.116784 450.391068 
L 712.844435 452.279103 
L 715.572085 455.004623 
L 718.299736 456.030226 
L 721.027387 458.797734 
L 723.755038 460.052718 
L 726.482688 461.49202 
L 729.210339 463.330605 
L 731.93799 465.675206 
L 734.665641 467.726646 
L 740.120942 472.553626 
L 742.848593 474.479674 
L 745.576244 478.276351 
L 748.303894 480.967867 
L 751.031545 483.825298 
L 753.759196 486.163075 
L 756.486847 487.495105 
L 759.214497 490.797614 
L 761.942148 492.252943 
L 764.669799 493.841601 
L 767.39745 494.489826 
L 772.852751 495.195817 
L 778.308053 495.724895 
L 781.035704 495.550548 
L 783.763354 495.022091 
L 786.491005 495.333398 
L 789.218656 495.020724 
L 791.946307 494.963211 
L 794.673957 495.142438 
L 797.401608 492.649364 
L 802.85691 490.742541 
L 805.58456 490.475138 
L 808.312211 490.024823 
L 811.039862 489.97183 
L 813.767513 490.03484 
L 816.495163 490.86957 
L 819.222814 491.948814 
L 821.950465 492.83127 
L 824.678116 492.967144 
L 827.405766 493.524041 
L 830.133417 493.731075 
L 832.861068 492.664361 
L 835.588719 492.142454 
L 838.316369 492.312707 
L 841.04402 491.345018 
L 843.771671 490.602183 
L 846.499322 490.514224 
L 849.226972 489.326885 
L 851.954623 490.781296 
L 854.682274 490.218827 
L 857.409925 490.952661 
L 860.137575 492.817448 
L 862.865226 496.12474 
L 865.592877 498.424996 
L 868.320528 500.002362 
L 871.048178 501.973778 
L 873.775829 504.665382 
L 876.50348 508.321648 
L 879.231131 509.614281 
L 881.958781 509.330678 
L 884.686432 509.918944 
L 887.414083 509.730241 
L 890.141734 511.593589 
L 892.869384 513.694979 
L 895.597035 515.457711 
L 898.324686 515.772887 
L 901.052337 515.573973 
L 903.779987 518.142129 
L 906.507638 520.153465 
L 909.235289 522.698414 
L 911.96294 524.124497 
L 914.69059 524.528432 
L 917.418241 525.66712 
L 920.145892 527.467221 
L 922.873543 528.056218 
L 925.601193 528.139074 
L 931.056495 529.533687 
L 933.784146 529.397776 
L 936.511796 529.552177 
L 941.967098 529.098755 
L 944.694749 528.950101 
L 947.422399 528.650459 
L 950.15005 529.012887 
L 952.877701 529.2204 
L 955.605352 528.60212 
L 958.333003 528.828582 
L 966.515955 530.058987 
L 969.243606 530.108547 
L 971.971256 529.90123 
L 974.698907 530.74954 
L 977.426558 531.216646 
L 980.154209 532.090345 
L 982.881859 531.985194 
L 985.60951 531.499615 
L 988.337161 531.30287 
L 991.064812 531.372198 
L 993.792462 531.249492 
L 996.520113 532.042903 
L 999.247764 531.123315 
L 1004.703065 531.429942 
L 1007.430716 532.573228 
L 1010.158367 531.588135 
L 1012.886018 532.200655 
L 1015.613668 530.95802 
L 1018.341319 530.497463 
L 1021.06897 530.683352 
L 1023.796621 530.108039 
L 1026.524271 529.655707 
L 1029.251922 530.167043 
L 1031.979573 529.508054 
L 1034.707224 530.30104 
L 1037.434874 530.476857 
L 1040.162525 529.888152 
L 1042.890176 530.357177 
L 1045.617827 531.570114 
L 1048.345477 531.743121 
L 1051.073128 531.66354 
L 1053.800779 529.741826 
L 1056.52843 530.118557 
L 1059.25608 531.2853 
L 1061.983731 531.48561 
L 1064.711382 530.81696 
L 1070.166683 530.702811 
L 1072.894334 531.965248 
L 1075.621985 531.620403 
L 1078.349636 531.926774 
L 1086.532588 533.579813 
L 1089.260239 533.40582 
L 1091.987889 534.141549 
L 1094.71554 535.002902 
L 1097.443191 534.557408 
L 1100.170842 533.116371 
L 1102.898492 532.339374 
L 1105.626143 530.962483 
L 1108.353794 531.162964 
L 1111.081445 531.148876 
L 1113.809095 529.96202 
L 1116.536746 529.176008 
L 1119.264397 529.688839 
L 1121.992048 529.636065 
L 1124.719698 530.392661 
L 1127.447349 530.208861 
L 1130.175 530.322774 
L 1130.175 530.322774 
" clip-path="url(#p21e527bc22)" style="fill: none; stroke: #1f77b4; stroke-width: 0.5; stroke-linecap: square"/>
   </g>
   <g id="line2d_36">
    <path clip-path="url(#p21e527bc22)" style="fill: none; stroke-dasharray: 7.4,3.2; stroke-dashoffset: 0; stroke: #000000; stroke-opacity: 0.25; stroke-width: 2"/>
   </g>
   <g id="line2d_37">
    <path d="M 66.391206 606.04 
L 66.391206 26.88 
" clip-path="url(#p21e527bc22)" style="fill: none; stroke-dasharray: 7.4,3.2; stroke-dashoffset: 0; stroke: #000000; stroke-opacity: 0.25; stroke-width: 2"/>
   </g>
   <g id="line2d_38">
    <path d="M 44.57 231.402426 
L 47.297651 195.141514 
L 50.025302 168.879155 
L 52.752952 150.396474 
L 55.480603 136.74741 
L 58.208254 126.394008 
L 60.935905 120.598435 
L 63.663555 118.681907 
L 66.391206 121.609152 
L 69.118857 127.976699 
L 71.846508 137.2929 
L 74.574158 148.043032 
L 77.301809 159.712043 
L 80.02946 167.834635 
L 82.757111 169.93597 
L 85.484761 163.273843 
L 90.940063 147.813849 
L 93.667714 140.95718 
L 96.395364 136.051736 
L 99.123015 134.280061 
L 101.850666 135.625451 
L 104.578317 141.266323 
L 107.305967 148.622834 
L 110.033618 158.261748 
L 112.761269 169.993576 
L 118.21657 197.218658 
L 120.944221 209.50082 
L 123.671872 218.497268 
L 126.399523 223.381495 
L 129.127173 223.35774 
L 131.854824 220.482312 
L 140.037776 210.7848 
L 142.765427 210.119097 
L 145.493078 210.709475 
L 148.220729 213.164598 
L 150.948379 217.79254 
L 153.67603 223.444367 
L 156.403681 229.858154 
L 159.131332 238.460242 
L 161.858982 244.573311 
L 164.586633 251.421771 
L 167.314284 256.857235 
L 170.041935 260.588239 
L 172.769585 261.906053 
L 175.497236 262.184728 
L 178.224887 261.324394 
L 180.952538 261.39068 
L 183.680188 260.276032 
L 186.407839 259.01125 
L 189.13549 258.243872 
L 191.863141 258.651326 
L 194.590791 259.554309 
L 197.318442 261.953649 
L 200.046093 265.360727 
L 205.501394 272.452342 
L 208.229045 275.845631 
L 213.684347 281.928244 
L 216.411997 284.103729 
L 219.139648 283.8395 
L 221.867299 283.101644 
L 224.59495 282.65435 
L 227.322601 282.042041 
L 230.050251 281.547244 
L 232.777902 281.517154 
L 235.505553 281.901403 
L 238.233204 283.006039 
L 240.960854 285.047337 
L 246.416156 291.047356 
L 249.143807 294.488935 
L 254.599108 301.779565 
L 257.326759 304.973118 
L 260.05441 307.70742 
L 262.78206 310.137711 
L 265.509711 311.592628 
L 268.237362 313.201658 
L 270.965013 313.699713 
L 273.692663 313.919709 
L 276.420314 313.88914 
L 279.147965 314.767783 
L 284.603266 317.214119 
L 287.330917 319.187813 
L 290.058568 321.305607 
L 292.786219 322.006004 
L 295.513869 324.606734 
L 298.24152 327.637235 
L 306.424472 335.622056 
L 309.152123 337.834644 
L 311.879774 340.429696 
L 314.607425 343.523893 
L 317.335075 344.348879 
L 320.062726 344.476057 
L 322.790377 345.062694 
L 325.518028 345.397756 
L 328.245678 345.557436 
L 333.70098 348.117876 
L 336.428631 350.047085 
L 339.156281 352.163088 
L 341.883932 354.689336 
L 344.611583 356.743798 
L 347.339234 359.054661 
L 350.066884 361.088399 
L 352.794535 362.408502 
L 355.522186 363.934029 
L 358.249837 364.804298 
L 366.432789 368.327814 
L 371.88809 369.395897 
L 374.615741 370.042178 
L 380.071043 372.078917 
L 382.798693 372.902667 
L 385.526344 373.983389 
L 388.253995 375.384559 
L 390.981646 377.057404 
L 396.436947 379.627828 
L 399.164598 380.097401 
L 401.892249 380.936493 
L 404.619899 381.026662 
L 407.34755 381.578838 
L 412.802852 381.969327 
L 415.530503 381.692469 
L 420.985804 382.289687 
L 426.441106 383.596236 
L 431.896407 384.909962 
L 434.624058 386.140823 
L 437.351709 387.71235 
L 440.079359 389.583064 
L 442.80701 390.772296 
L 445.534661 392.459207 
L 448.262312 393.887461 
L 450.989962 395.494482 
L 456.445264 397.344854 
L 461.900565 398.592743 
L 464.628216 398.968256 
L 467.355867 399.599516 
L 470.083518 400.417323 
L 472.811168 401.649903 
L 478.26647 403.441983 
L 480.994121 404.226718 
L 486.449422 407.01637 
L 497.360025 411.178093 
L 502.815327 412.716892 
L 505.542977 413.549353 
L 508.270628 414.102362 
L 510.998279 414.863448 
L 513.72593 415.947985 
L 516.45358 417.613589 
L 521.908882 419.715259 
L 527.364183 422.112566 
L 530.091834 423.61822 
L 535.547136 425.497094 
L 538.274786 426.643452 
L 541.002437 428.658138 
L 543.730088 429.722749 
L 546.457739 431.315265 
L 549.185389 432.031725 
L 551.91304 432.926572 
L 557.368342 433.394542 
L 560.095992 433.517253 
L 562.823643 434.227385 
L 565.551294 434.813723 
L 568.278945 435.934292 
L 573.734246 438.589705 
L 576.461897 440.458216 
L 584.644849 444.236987 
L 592.827802 446.717841 
L 595.555452 446.875995 
L 601.010754 448.767527 
L 606.466055 450.147917 
L 609.193706 451.177618 
L 611.921357 452.035562 
L 614.649008 453.450037 
L 617.376658 454.39207 
L 622.83196 456.831318 
L 625.559611 457.999742 
L 631.014912 459.161604 
L 633.742563 460.420535 
L 636.470214 461.131604 
L 639.197864 462.16061 
L 641.925515 462.71969 
L 644.653166 463.510023 
L 647.380817 464.684893 
L 650.108467 466.135072 
L 652.836118 466.844981 
L 655.563769 467.809688 
L 658.29142 468.23949 
L 661.01907 468.861323 
L 663.746721 469.208917 
L 666.474372 469.779696 
L 669.202023 470.137106 
L 671.929673 470.898888 
L 674.657324 471.296544 
L 677.384975 471.538008 
L 680.112626 471.594697 
L 685.567927 470.966267 
L 688.295578 470.607954 
L 693.750879 470.204909 
L 696.47853 470.197121 
L 699.206181 470.381746 
L 704.661482 471.602318 
L 707.389133 472.460172 
L 710.116784 472.808594 
L 712.844435 472.856306 
L 718.299736 473.681623 
L 721.027387 473.936797 
L 726.482688 473.98505 
L 729.210339 473.439856 
L 731.93799 473.459758 
L 737.393291 472.528928 
L 740.120942 472.387769 
L 742.848593 471.457886 
L 745.576244 470.202761 
L 748.303894 468.541239 
L 751.031545 467.020723 
L 756.486847 462.876686 
L 761.942148 456.416167 
L 767.39745 449.410384 
L 770.125101 444.533728 
L 772.852751 440.16616 
L 775.580402 436.050464 
L 778.308053 432.514273 
L 781.035704 428.412051 
L 783.763354 423.478068 
L 786.491005 418.989431 
L 794.673957 409.620937 
L 797.401608 405.95788 
L 800.129259 403.247964 
L 802.85691 401.117965 
L 805.58456 400.230435 
L 808.312211 398.810795 
L 811.039862 397.575336 
L 813.767513 397.009757 
L 816.495163 396.610722 
L 819.222814 397.057742 
L 824.678116 398.347382 
L 827.405766 399.266037 
L 830.133417 400.434102 
L 832.861068 401.758486 
L 835.588719 403.383975 
L 838.316369 405.197439 
L 843.771671 410.098255 
L 851.954623 418.913026 
L 857.409925 426.185442 
L 860.137575 429.687548 
L 862.865226 432.863247 
L 868.320528 439.982858 
L 871.048178 444.10116 
L 873.775829 447.914604 
L 876.50348 451.362559 
L 879.231131 455.416622 
L 881.958781 458.963267 
L 884.686432 462.788435 
L 887.414083 466.822789 
L 898.324686 481.171245 
L 901.052337 485.139542 
L 903.779987 488.74619 
L 906.507638 492.045915 
L 909.235289 495.99489 
L 911.96294 499.444239 
L 914.69059 502.534906 
L 917.418241 506.151878 
L 920.145892 508.554617 
L 925.601193 514.187978 
L 931.056495 519.360509 
L 936.511796 524.686894 
L 939.239447 527.021494 
L 944.694749 531.148194 
L 947.422399 532.635693 
L 952.877701 535.937689 
L 955.605352 537.095849 
L 961.060653 540.789701 
L 963.788304 542.229436 
L 966.515955 543.924365 
L 969.243606 545.391448 
L 971.971256 546.318338 
L 977.426558 548.529694 
L 980.154209 549.091117 
L 988.337161 551.118968 
L 991.064812 552.708576 
L 996.520113 554.687626 
L 1001.975415 556.20027 
L 1004.703065 557.296915 
L 1010.158367 557.474783 
L 1012.886018 558.327186 
L 1015.613668 558.437257 
L 1021.06897 559.9569 
L 1023.796621 559.958681 
L 1026.524271 560.505844 
L 1029.251922 561.856782 
L 1031.979573 562.433101 
L 1034.707224 562.761808 
L 1037.434874 563.36998 
L 1040.162525 563.472274 
L 1045.617827 564.828654 
L 1048.345477 564.948333 
L 1051.073128 565.287991 
L 1053.800779 565.438289 
L 1056.52843 565.301883 
L 1059.25608 565.771511 
L 1061.983731 566.082359 
L 1064.711382 566.859868 
L 1067.439033 567.445123 
L 1072.894334 568.197745 
L 1075.621985 569.149141 
L 1078.349636 569.669149 
L 1081.077286 570.523706 
L 1083.804937 570.886543 
L 1086.532588 571.616038 
L 1089.260239 572.086878 
L 1091.987889 572.766913 
L 1094.71554 573.194542 
L 1097.443191 573.93651 
L 1100.170842 573.99495 
L 1102.898492 574.494928 
L 1105.626143 574.706767 
L 1108.353794 575.097319 
L 1111.081445 575.678983 
L 1113.809095 575.899669 
L 1116.536746 576.246097 
L 1121.992048 576.467404 
L 1124.719698 576.930141 
L 1127.447349 577.085057 
L 1130.175 577.412289 
L 1130.175 577.412289 
" clip-path="url(#p21e527bc22)" style="fill: none; stroke: #ff7f0e; stroke-width: 0.5; stroke-linecap: square"/>
   </g>
   <g id="line2d_39">
    <path clip-path="url(#p21e527bc22)" style="fill: none; stroke-dasharray: 7.4,3.2; stroke-dashoffset: 0; stroke: #000000; stroke-opacity: 0.25; stroke-width: 2"/>
   </g>
   <g id="line2d_40">
    <path d="M 66.391206 606.04 
L 66.391206 26.88 
" clip-path="url(#p21e527bc22)" style="fill: none; stroke-dasharray: 7.4,3.2; stroke-dashoffset: 0; stroke: #000000; stroke-opacity: 0.25; stroke-width: 2"/>
   </g>
   <g id="line2d_41">
    <path d="M 44.57 185.313664 
L 47.297651 146.030411 
L 50.025302 117.318406 
L 52.752952 99.44243 
L 55.480603 85.389039 
L 58.208254 74.663872 
L 60.935905 66.031292 
L 63.663555 62.37596 
L 66.391206 62.889206 
L 69.118857 67.821143 
L 74.574158 81.26098 
L 77.301809 86.98942 
L 80.02946 92.29636 
L 82.757111 93.300899 
L 85.484761 86.678901 
L 90.940063 68.229799 
L 93.667714 59.99144 
L 96.395364 55.4391 
L 99.123015 53.205455 
L 101.850666 53.508308 
L 104.578317 58.165339 
L 107.305967 65.642473 
L 110.033618 75.611982 
L 112.761269 88.890606 
L 118.21657 118.514052 
L 120.944221 133.474192 
L 123.671872 143.927637 
L 126.399523 151.003397 
L 129.127173 153.129302 
L 131.854824 152.446486 
L 134.582475 150.307826 
L 137.310126 148.533185 
L 140.037776 147.826735 
L 142.765427 147.707538 
L 145.493078 150.072639 
L 148.220729 153.248214 
L 150.948379 158.311703 
L 153.67603 164.767421 
L 156.403681 172.738244 
L 161.858982 191.306985 
L 164.586633 199.335205 
L 167.314284 206.877278 
L 170.041935 212.581621 
L 172.769585 215.053379 
L 175.497236 214.266343 
L 178.224887 214.451433 
L 180.952538 214.164027 
L 186.407839 212.227088 
L 189.13549 212.654251 
L 191.863141 214.667738 
L 194.590791 218.709335 
L 197.318442 222.294369 
L 200.046093 226.587311 
L 205.501394 236.364734 
L 208.229045 241.661423 
L 210.956696 246.158531 
L 213.684347 250.412259 
L 216.411997 252.352472 
L 219.139648 253.999829 
L 224.59495 254.686293 
L 230.050251 253.719854 
L 232.777902 253.929224 
L 235.505553 254.688337 
L 238.233204 257.190318 
L 240.960854 260.453824 
L 243.688505 263.231429 
L 249.143807 270.686766 
L 251.871457 274.963015 
L 254.599108 278.62016 
L 257.326759 280.872961 
L 260.05441 283.45238 
L 262.78206 285.603105 
L 265.509711 286.532804 
L 268.237362 288.162637 
L 273.692663 290.3276 
L 276.420314 291.1135 
L 281.875616 293.995504 
L 284.603266 296.92758 
L 287.330917 300.038306 
L 290.058568 303.500352 
L 292.786219 304.938503 
L 295.513869 306.752467 
L 303.696822 313.677734 
L 306.424472 315.631238 
L 309.152123 317.081537 
L 311.879774 318.787998 
L 314.607425 321.633297 
L 317.335075 322.725451 
L 322.790377 323.611823 
L 325.518028 324.426297 
L 328.245678 324.34914 
L 330.973329 324.752836 
L 333.70098 325.897805 
L 336.428631 326.905121 
L 339.156281 328.732381 
L 341.883932 331.480456 
L 344.611583 332.4124 
L 347.339234 334.088413 
L 350.066884 336.69219 
L 355.522186 339.064317 
L 360.977487 342.46912 
L 363.705138 343.555224 
L 366.432789 345.175 
L 369.16044 345.574889 
L 371.88809 347.40328 
L 374.615741 348.935761 
L 377.343392 350.019045 
L 380.071043 349.790798 
L 382.798693 350.765925 
L 385.526344 351.194865 
L 388.253995 352.898387 
L 390.981646 354.417807 
L 393.709296 354.90958 
L 399.164598 356.16925 
L 404.619899 356.680959 
L 407.34755 357.816263 
L 410.075201 358.53398 
L 412.802852 360.162826 
L 415.530503 360.39387 
L 418.258153 361.848594 
L 420.985804 362.628486 
L 423.713455 363.008699 
L 426.441106 362.75663 
L 429.168756 363.319314 
L 431.896407 364.059012 
L 434.624058 365.42173 
L 437.351709 367.790775 
L 442.80701 373.037143 
L 445.534661 376.061749 
L 450.989962 380.423614 
L 453.717613 382.589548 
L 456.445264 383.330422 
L 459.172915 384.211831 
L 464.628216 387.15299 
L 467.355867 387.913833 
L 472.811168 390.646432 
L 475.538819 392.712331 
L 478.26647 394.075772 
L 480.994121 395.853613 
L 483.721771 396.216866 
L 486.449422 398.313097 
L 489.177073 400.101788 
L 491.904724 400.986035 
L 497.360025 404.538823 
L 500.087676 405.899293 
L 502.815327 406.048857 
L 505.542977 407.638783 
L 508.270628 407.595378 
L 510.998279 407.982768 
L 513.72593 407.816698 
L 516.45358 408.364309 
L 519.181231 409.98673 
L 521.908882 411.902777 
L 524.636533 414.217034 
L 527.364183 416.2033 
L 530.091834 419.120739 
L 532.819485 422.879068 
L 535.547136 426.429042 
L 538.274786 427.335125 
L 541.002437 428.487771 
L 546.457739 433.340717 
L 549.185389 434.718276 
L 551.91304 434.751409 
L 554.640691 434.087624 
L 557.368342 434.674357 
L 560.095992 437.041867 
L 562.823643 438.387825 
L 565.551294 437.711847 
L 571.006595 441.034461 
L 573.734246 442.098889 
L 576.461897 442.844903 
L 581.917198 442.85391 
L 587.3725 444.644411 
L 590.100151 446.135416 
L 592.827802 448.037979 
L 598.283103 451.221649 
L 601.010754 453.097915 
L 603.738405 454.205757 
L 606.466055 455.499326 
L 609.193706 455.85193 
L 611.921357 456.438092 
L 614.649008 458.796571 
L 620.104309 461.824842 
L 625.559611 464.565243 
L 628.287261 466.539598 
L 631.014912 466.749292 
L 633.742563 466.621476 
L 636.470214 468.401248 
L 639.197864 469.848449 
L 641.925515 470.072052 
L 644.653166 470.022988 
L 647.380817 470.748841 
L 650.108467 472.776266 
L 652.836118 474.05551 
L 655.563769 473.61646 
L 661.01907 473.705688 
L 663.746721 476.350925 
L 666.474372 478.031586 
L 669.202023 478.456947 
L 671.929673 479.676984 
L 674.657324 480.752817 
L 677.384975 482.679858 
L 680.112626 483.875273 
L 682.840276 483.404534 
L 685.567927 481.437029 
L 691.023229 480.646776 
L 693.750879 480.623451 
L 696.47853 481.158178 
L 701.933832 481.585124 
L 704.661482 482.414627 
L 707.389133 483.730137 
L 710.116784 484.06335 
L 712.844435 482.590521 
L 715.572085 481.831101 
L 718.299736 481.237391 
L 721.027387 480.769722 
L 723.755038 480.583036 
L 729.210339 478.317549 
L 731.93799 477.952415 
L 734.665641 477.163225 
L 737.393291 477.305249 
L 740.120942 476.185776 
L 742.848593 473.884142 
L 745.576244 471.103052 
L 748.303894 469.174992 
L 751.031545 466.87174 
L 753.759196 465.031772 
L 756.486847 462.55543 
L 759.214497 457.931003 
L 761.942148 455.528086 
L 764.669799 454.209133 
L 767.39745 452.184335 
L 770.125101 448.400881 
L 772.852751 444.129188 
L 775.580402 440.860992 
L 778.308053 437.975138 
L 781.035704 435.689209 
L 786.491005 430.349134 
L 789.218656 429.41682 
L 791.946307 427.984782 
L 794.673957 427.364733 
L 797.401608 425.373929 
L 800.129259 426.125398 
L 802.85691 425.595403 
L 805.58456 426.715984 
L 808.312211 426.665266 
L 811.039862 427.363829 
L 813.767513 428.236688 
L 816.495163 431.384374 
L 819.222814 432.282887 
L 821.950465 433.532741 
L 824.678116 435.320231 
L 827.405766 436.510213 
L 830.133417 438.474193 
L 832.861068 440.945463 
L 835.588719 442.408928 
L 838.316369 444.706439 
L 841.04402 447.741347 
L 843.771671 450.589708 
L 849.226972 455.633088 
L 851.954623 459.03482 
L 854.682274 462.172732 
L 857.409925 466.239766 
L 862.865226 472.181979 
L 865.592877 476.526277 
L 871.048178 484.367241 
L 873.775829 487.473194 
L 876.50348 490.014805 
L 879.231131 493.302668 
L 887.414083 500.926294 
L 890.141734 503.961453 
L 892.869384 505.997256 
L 898.324686 512.354586 
L 901.052337 515.233884 
L 906.507638 518.625313 
L 909.235289 521.37871 
L 911.96294 522.832723 
L 914.69059 525.120152 
L 917.418241 526.307822 
L 920.145892 526.770205 
L 922.873543 529.384161 
L 928.328844 533.060672 
L 931.056495 533.940322 
L 933.784146 536.15642 
L 936.511796 537.356459 
L 939.239447 540.559952 
L 941.967098 542.821764 
L 944.694749 543.703443 
L 947.422399 545.712805 
L 950.15005 547.344265 
L 952.877701 550.156978 
L 955.605352 550.051088 
L 958.333003 549.415758 
L 961.060653 548.560917 
L 963.788304 548.494711 
L 966.515955 550.300398 
L 971.971256 552.704734 
L 977.426558 554.550431 
L 980.154209 556.43275 
L 982.881859 558.773481 
L 985.60951 559.723693 
L 988.337161 560.524447 
L 991.064812 560.601983 
L 993.792462 560.892328 
L 996.520113 562.474561 
L 999.247764 563.282514 
L 1001.975415 563.109691 
L 1004.703065 563.163432 
L 1007.430716 563.089695 
L 1010.158367 564.407199 
L 1012.886018 565.954042 
L 1015.613668 567.043924 
L 1018.341319 567.299581 
L 1021.06897 567.306631 
L 1026.524271 569.801682 
L 1029.251922 570.102301 
L 1031.979573 570.061085 
L 1034.707224 570.155287 
L 1037.434874 570.568807 
L 1040.162525 572.143815 
L 1042.890176 573.997661 
L 1045.617827 575.378338 
L 1048.345477 576.896541 
L 1051.073128 578.144639 
L 1053.800779 578.62917 
L 1056.52843 578.483902 
L 1059.25608 579.15546 
L 1061.983731 579.192238 
L 1064.711382 578.518988 
L 1067.439033 577.486082 
L 1070.166683 575.710504 
L 1072.894334 575.050372 
L 1075.621985 577.575753 
L 1078.349636 577.122888 
L 1081.077286 576.312929 
L 1083.804937 575.151846 
L 1086.532588 574.678929 
L 1089.260239 575.601097 
L 1091.987889 577.459455 
L 1094.71554 575.749197 
L 1097.443191 574.542352 
L 1100.170842 574.33423 
L 1102.898492 575.888731 
L 1105.626143 576.424361 
L 1108.353794 576.719946 
L 1111.081445 576.364351 
L 1113.809095 576.890727 
L 1116.536746 578.789988 
L 1119.264397 579.612282 
L 1121.992048 578.83457 
L 1124.719698 578.304995 
L 1127.447349 579.714545 
L 1130.175 579.593712 
L 1130.175 579.593712 
" clip-path="url(#p21e527bc22)" style="fill: none; stroke: #2ca02c; stroke-width: 0.5; stroke-linecap: square"/>
   </g>
   <g id="line2d_42">
    <path clip-path="url(#p21e527bc22)" style="fill: none; stroke-dasharray: 7.4,3.2; stroke-dashoffset: 0; stroke: #000000; stroke-opacity: 0.25; stroke-width: 2"/>
   </g>
   <g id="line2d_43">
    <path d="M 66.391206 606.04 
L 66.391206 26.88 
" clip-path="url(#p21e527bc22)" style="fill: none; stroke-dasharray: 7.4,3.2; stroke-dashoffset: 0; stroke: #000000; stroke-opacity: 0.25; stroke-width: 2"/>
   </g>
   <g id="line2d_44">
    <path d="M 44.57 227.67144 
L 47.297651 203.325511 
L 50.025302 184.659375 
L 52.752952 171.100821 
L 55.480603 161.986329 
L 58.208254 157.561083 
L 60.935905 157.774474 
L 63.663555 162.234961 
L 66.391206 171.338137 
L 69.118857 182.770391 
L 71.846508 199.397751 
L 74.574158 219.595927 
L 77.301809 238.930243 
L 80.02946 254.868203 
L 82.757111 263.977923 
L 85.484761 253.18358 
L 88.212412 248.42952 
L 90.940063 241.950109 
L 93.667714 236.477233 
L 96.395364 231.547339 
L 99.123015 229.43293 
L 101.850666 230.160926 
L 104.578317 240.268532 
L 107.305967 246.68299 
L 110.033618 254.993039 
L 112.761269 264.434702 
L 115.48892 277.287346 
L 118.21657 289.051929 
L 120.944221 300.306723 
L 123.671872 308.745701 
L 126.399523 311.778822 
L 129.127173 310.867354 
L 131.854824 307.262545 
L 134.582475 301.653964 
L 137.310126 295.6486 
L 140.037776 286.746203 
L 142.765427 283.796235 
L 145.493078 283.339261 
L 148.220729 283.750971 
L 150.948379 285.789307 
L 153.67603 289.811028 
L 156.403681 295.162733 
L 159.131332 307.476992 
L 161.858982 309.179769 
L 164.586633 314.269641 
L 167.314284 318.44586 
L 170.041935 321.486609 
L 172.769585 321.493403 
L 175.497236 320.611828 
L 178.224887 319.365664 
L 180.952538 321.739445 
L 183.680188 321.750833 
L 186.407839 319.370452 
L 189.13549 318.281715 
L 191.863141 318.012132 
L 194.590791 318.635543 
L 200.046093 322.887892 
L 202.773744 326.080518 
L 205.501394 329.600754 
L 208.229045 333.557248 
L 213.684347 338.719165 
L 216.411997 339.089477 
L 219.139648 338.434836 
L 221.867299 335.968604 
L 224.59495 334.029355 
L 227.322601 332.532471 
L 230.050251 330.415209 
L 232.777902 329.76321 
L 235.505553 328.608742 
L 238.233204 328.351322 
L 240.960854 330.096344 
L 243.688505 333.018959 
L 246.416156 334.786946 
L 249.143807 336.79713 
L 251.871457 338.43542 
L 254.599108 341.426126 
L 260.05441 345.221152 
L 262.78206 345.207523 
L 265.509711 346.221317 
L 268.237362 347.032454 
L 270.965013 347.69514 
L 276.420314 348.637433 
L 281.875616 350.291377 
L 284.603266 350.796652 
L 287.330917 352.299407 
L 290.058568 353.963177 
L 292.786219 352.932738 
L 295.513869 353.966905 
L 300.969171 358.188384 
L 303.696822 361.249467 
L 306.424472 363.93108 
L 309.152123 365.851331 
L 311.879774 368.115818 
L 314.607425 372.680006 
L 317.335075 373.988064 
L 322.790377 375.27742 
L 325.518028 375.317777 
L 328.245678 375.025501 
L 330.973329 376.187191 
L 333.70098 378.002871 
L 336.428631 379.28519 
L 341.883932 383.623002 
L 344.611583 384.967222 
L 347.339234 386.503825 
L 350.066884 387.685211 
L 352.794535 388.661125 
L 355.522186 390.069556 
L 358.249837 391.675308 
L 360.977487 392.401388 
L 363.705138 393.408132 
L 366.432789 394.992899 
L 371.88809 397.674114 
L 377.343392 398.688078 
L 380.071043 399.108515 
L 382.798693 400.608671 
L 388.253995 404.012371 
L 390.981646 405.020475 
L 393.709296 407.045388 
L 396.436947 409.289569 
L 401.892249 411.789622 
L 404.619899 412.448164 
L 407.34755 413.593734 
L 410.075201 414.055097 
L 412.802852 413.89145 
L 415.530503 413.504365 
L 418.258153 414.588434 
L 420.985804 415.099303 
L 423.713455 414.801606 
L 426.441106 414.323114 
L 429.168756 414.676704 
L 431.896407 416.155828 
L 434.624058 417.43771 
L 440.079359 417.83608 
L 442.80701 418.262952 
L 445.534661 419.928554 
L 448.262312 421.171153 
L 450.989962 421.033529 
L 453.717613 420.407402 
L 456.445264 420.678012 
L 459.172915 420.589859 
L 461.900565 420.74104 
L 470.083518 419.999354 
L 472.811168 420.808489 
L 475.538819 420.160071 
L 483.721771 420.924379 
L 486.449422 420.284811 
L 489.177073 420.112899 
L 491.904724 419.060175 
L 494.632374 418.993198 
L 497.360025 418.45137 
L 500.087676 416.685098 
L 502.815327 415.599772 
L 505.542977 414.652722 
L 508.270628 413.89481 
L 510.998279 413.276633 
L 516.45358 413.39984 
L 519.181231 414.560291 
L 521.908882 416.267349 
L 524.636533 417.381264 
L 527.364183 419.423088 
L 530.091834 420.547861 
L 532.819485 422.380038 
L 535.547136 423.441104 
L 538.274786 424.808027 
L 541.002437 425.453129 
L 543.730088 426.53184 
L 546.457739 427.12515 
L 549.185389 428.853546 
L 551.91304 429.284845 
L 554.640691 430.212252 
L 557.368342 431.325132 
L 560.095992 431.624567 
L 568.278945 434.358274 
L 571.006595 435.784593 
L 573.734246 437.947014 
L 576.461897 439.317227 
L 579.189548 440.51027 
L 581.917198 442.539655 
L 584.644849 444.153096 
L 587.3725 446.082956 
L 590.100151 447.546967 
L 592.827802 447.998717 
L 598.283103 449.980028 
L 601.010754 451.388009 
L 603.738405 452.05132 
L 606.466055 453.477998 
L 609.193706 455.312762 
L 611.921357 456.619247 
L 614.649008 457.762878 
L 617.376658 459.968479 
L 622.83196 463.204059 
L 628.287261 464.760918 
L 636.470214 467.970114 
L 639.197864 469.355589 
L 641.925515 470.531033 
L 647.380817 474.077488 
L 650.108467 474.767406 
L 652.836118 475.822109 
L 655.563769 477.77486 
L 658.29142 477.884731 
L 661.01907 478.589328 
L 663.746721 479.771946 
L 666.474372 481.306812 
L 669.202023 482.278649 
L 671.929673 483.697929 
L 674.657324 484.252068 
L 677.384975 485.569407 
L 680.112626 486.507598 
L 682.840276 486.208566 
L 685.567927 486.693808 
L 688.295578 486.604276 
L 691.023229 487.050198 
L 693.750879 488.136751 
L 696.47853 488.978152 
L 699.206181 489.945771 
L 707.389133 493.803524 
L 710.116784 495.474545 
L 712.844435 496.245898 
L 715.572085 496.281117 
L 718.299736 497.480927 
L 721.027387 498.841434 
L 723.755038 499.435811 
L 726.482688 499.527059 
L 731.93799 500.859021 
L 734.665641 501.856565 
L 737.393291 502.148302 
L 740.120942 502.582631 
L 742.848593 501.595052 
L 745.576244 503.086338 
L 748.303894 503.599454 
L 753.759196 505.452225 
L 756.486847 506.088455 
L 761.942148 507.945929 
L 764.669799 509.969419 
L 767.39745 510.801477 
L 770.125101 511.397641 
L 772.852751 511.545557 
L 775.580402 511.494009 
L 778.308053 511.262338 
L 783.763354 511.133442 
L 786.491005 509.998529 
L 789.218656 509.65184 
L 791.946307 508.670368 
L 794.673957 508.51794 
L 800.129259 509.676236 
L 805.58456 509.116945 
L 808.312211 509.517325 
L 811.039862 509.616791 
L 813.767513 510.608181 
L 816.495163 510.218158 
L 819.222814 509.996083 
L 821.950465 510.14539 
L 824.678116 509.860961 
L 827.405766 510.149425 
L 830.133417 509.826192 
L 832.861068 509.78226 
L 838.316369 511.285124 
L 843.771671 513.267942 
L 846.499322 514.181929 
L 849.226972 514.732216 
L 851.954623 516.158276 
L 854.682274 517.413791 
L 857.409925 518.027912 
L 860.137575 518.781066 
L 862.865226 519.942769 
L 871.048178 522.881334 
L 873.775829 522.535521 
L 876.50348 522.562629 
L 884.686432 524.100491 
L 887.414083 525.412198 
L 890.141734 527.059607 
L 892.869384 527.976198 
L 895.597035 528.689829 
L 901.052337 530.532164 
L 903.779987 532.267963 
L 906.507638 533.378312 
L 909.235289 533.392072 
L 911.96294 533.913215 
L 914.69059 535.036943 
L 917.418241 536.974294 
L 920.145892 537.403741 
L 922.873543 536.874594 
L 925.601193 537.217605 
L 928.328844 537.914058 
L 933.784146 538.624418 
L 939.239447 540.177146 
L 941.967098 541.499134 
L 944.694749 541.788939 
L 947.422399 541.354488 
L 950.15005 541.387713 
L 955.605352 542.595872 
L 961.060653 541.996769 
L 963.788304 542.601505 
L 966.515955 543.480158 
L 969.243606 544.917056 
L 971.971256 545.234958 
L 974.698907 544.72606 
L 977.426558 544.554943 
L 980.154209 544.997284 
L 982.881859 545.053454 
L 985.60951 545.504563 
L 988.337161 546.211006 
L 993.792462 547.082528 
L 996.520113 546.65506 
L 999.247764 546.565483 
L 1001.975415 546.806943 
L 1004.703065 546.08354 
L 1007.430716 546.236523 
L 1010.158367 545.270141 
L 1012.886018 544.765531 
L 1015.613668 544.997568 
L 1018.341319 544.991314 
L 1021.06897 544.850548 
L 1023.796621 545.258648 
L 1026.524271 545.859948 
L 1029.251922 545.852329 
L 1031.979573 546.455954 
L 1034.707224 546.753777 
L 1037.434874 547.481916 
L 1040.162525 548.38686 
L 1042.890176 548.698125 
L 1045.617827 548.849075 
L 1048.345477 548.446685 
L 1051.073128 548.648002 
L 1056.52843 549.71868 
L 1059.25608 549.41967 
L 1061.983731 549.713848 
L 1064.711382 548.956577 
L 1067.439033 548.901579 
L 1070.166683 549.484265 
L 1072.894334 548.916528 
L 1075.621985 549.446157 
L 1078.349636 550.159957 
L 1081.077286 550.36773 
L 1086.532588 553.571695 
L 1089.260239 554.457359 
L 1091.987889 555.564124 
L 1094.71554 555.970472 
L 1097.443191 555.70733 
L 1100.170842 555.975862 
L 1102.898492 556.0755 
L 1105.626143 556.33056 
L 1108.353794 554.938798 
L 1111.081445 554.625896 
L 1113.809095 555.477626 
L 1116.536746 556.008777 
L 1119.264397 555.843044 
L 1121.992048 555.140465 
L 1124.719698 555.224491 
L 1127.447349 555.861126 
L 1130.175 557.009232 
L 1130.175 557.009232 
" clip-path="url(#p21e527bc22)" style="fill: none; stroke: #d62728; stroke-width: 0.5; stroke-linecap: square"/>
   </g>
   <g id="line2d_45">
    <path clip-path="url(#p21e527bc22)" style="fill: none; stroke-dasharray: 7.4,3.2; stroke-dashoffset: 0; stroke: #000000; stroke-opacity: 0.25; stroke-width: 2"/>
   </g>
   <g id="line2d_46">
    <path d="M 66.391206 606.04 
L 66.391206 26.88 
" clip-path="url(#p21e527bc22)" style="fill: none; stroke-dasharray: 7.4,3.2; stroke-dashoffset: 0; stroke: #000000; stroke-opacity: 0.25; stroke-width: 2"/>
   </g>
   <g id="line2d_47">
    <path d="M 44.57 153.45947 
L 47.297651 123.360547 
L 50.025302 101.036034 
L 52.752952 88.116172 
L 55.480603 79.703333 
L 58.208254 74.986697 
L 60.935905 74.716481 
L 63.663555 79.339633 
L 66.391206 89.866339 
L 69.118857 106.12834 
L 71.846508 125.183184 
L 74.574158 145.060515 
L 80.02946 188.468342 
L 82.757111 197.481557 
L 85.484761 190.774033 
L 88.212412 184.412367 
L 90.940063 179.546885 
L 93.667714 172.642451 
L 96.395364 168.314022 
L 99.123015 167.073711 
L 101.850666 168.492741 
L 104.578317 175.905711 
L 107.305967 185.597774 
L 110.033618 194.523363 
L 112.761269 205.490853 
L 115.48892 217.625712 
L 118.21657 230.822566 
L 120.944221 239.906583 
L 123.671872 248.271016 
L 126.399523 251.591029 
L 129.127173 253.231016 
L 131.854824 250.720926 
L 134.582475 247.531312 
L 140.037776 238.422788 
L 142.765427 236.992974 
L 145.493078 236.88264 
L 148.220729 237.68136 
L 150.948379 239.955271 
L 153.67603 244.652381 
L 156.403681 250.629434 
L 159.131332 259.105198 
L 161.858982 264.767428 
L 164.586633 270.764494 
L 167.314284 277.111181 
L 170.041935 282.322784 
L 172.769585 284.330028 
L 175.497236 285.517159 
L 178.224887 285.446812 
L 180.952538 287.529417 
L 183.680188 287.612776 
L 186.407839 287.253308 
L 189.13549 286.695376 
L 191.863141 286.977054 
L 194.590791 288.468754 
L 197.318442 291.148448 
L 200.046093 294.758904 
L 202.773744 299.4819 
L 210.956696 315.007078 
L 213.684347 319.488254 
L 216.411997 322.859001 
L 219.139648 324.770803 
L 221.867299 324.923372 
L 224.59495 324.767234 
L 227.322601 322.681235 
L 230.050251 322.315032 
L 235.505553 322.835582 
L 240.960854 325.629569 
L 243.688505 327.343391 
L 246.416156 330.434978 
L 251.871457 336.237403 
L 257.326759 343.090152 
L 260.05441 345.260432 
L 262.78206 348.168033 
L 265.509711 349.396512 
L 268.237362 351.116135 
L 270.965013 351.341921 
L 273.692663 350.173845 
L 276.420314 349.150285 
L 279.147965 349.036324 
L 281.875616 349.821847 
L 284.603266 351.316309 
L 287.330917 352.126181 
L 290.058568 353.133944 
L 292.786219 351.813286 
L 295.513869 353.35955 
L 300.969171 354.315861 
L 303.696822 354.697956 
L 306.424472 355.453881 
L 309.152123 357.374571 
L 311.879774 360.786681 
L 314.607425 363.181685 
L 317.335075 363.654505 
L 322.790377 365.239246 
L 325.518028 364.436067 
L 328.245678 363.986258 
L 330.973329 362.567853 
L 333.70098 362.427936 
L 336.428631 364.244538 
L 339.156281 365.743784 
L 341.883932 366.950429 
L 344.611583 368.97818 
L 347.339234 370.111002 
L 352.794535 374.088527 
L 355.522186 375.539479 
L 358.249837 375.064499 
L 360.977487 377.23408 
L 363.705138 377.8559 
L 366.432789 379.082326 
L 369.16044 379.48126 
L 371.88809 380.582419 
L 374.615741 381.529437 
L 377.343392 383.283853 
L 380.071043 384.018612 
L 382.798693 384.381397 
L 385.526344 385.215358 
L 388.253995 387.045838 
L 390.981646 386.988309 
L 393.709296 387.345121 
L 396.436947 387.217351 
L 399.164598 387.680353 
L 401.892249 388.026218 
L 404.619899 388.570543 
L 407.34755 387.800444 
L 410.075201 388.76234 
L 412.802852 389.847603 
L 415.530503 390.107426 
L 418.258153 389.841022 
L 420.985804 390.62068 
L 423.713455 391.26497 
L 426.441106 392.905003 
L 431.896407 394.464104 
L 434.624058 395.738319 
L 437.351709 397.402094 
L 440.079359 398.935462 
L 442.80701 399.196774 
L 445.534661 399.293198 
L 448.262312 400.410077 
L 450.989962 401.252235 
L 453.717613 400.491546 
L 456.445264 399.228979 
L 461.900565 399.518361 
L 464.628216 400.096329 
L 467.355867 400.411509 
L 470.083518 399.439962 
L 475.538819 401.12076 
L 478.26647 401.699023 
L 480.994121 401.499027 
L 486.449422 401.798678 
L 489.177073 402.166408 
L 491.904724 402.77564 
L 494.632374 404.230261 
L 497.360025 404.067878 
L 500.087676 404.081305 
L 502.815327 405.231141 
L 505.542977 405.276131 
L 508.270628 405.88967 
L 510.998279 405.420704 
L 516.45358 405.863858 
L 519.181231 407.136448 
L 524.636533 407.524889 
L 530.091834 409.05032 
L 532.819485 410.10185 
L 535.547136 410.369619 
L 541.002437 409.452893 
L 543.730088 409.601082 
L 546.457739 409.446459 
L 549.185389 409.74882 
L 551.91304 408.978581 
L 554.640691 407.897088 
L 557.368342 407.334192 
L 560.095992 407.668842 
L 565.551294 409.006353 
L 568.278945 408.799781 
L 576.461897 410.51026 
L 579.189548 411.073209 
L 581.917198 410.891321 
L 584.644849 408.863971 
L 587.3725 407.944891 
L 590.100151 408.489624 
L 592.827802 408.603993 
L 595.555452 409.593729 
L 598.283103 408.763938 
L 601.010754 408.853013 
L 603.738405 409.756058 
L 606.466055 411.356302 
L 609.193706 411.536384 
L 611.921357 410.661079 
L 614.649008 410.598517 
L 617.376658 410.682169 
L 620.104309 411.602038 
L 622.83196 411.337152 
L 625.559611 411.691315 
L 628.287261 412.5186 
L 633.742563 413.17903 
L 636.470214 414.136403 
L 639.197864 414.438078 
L 644.653166 414.446989 
L 650.108467 413.023022 
L 652.836118 411.986482 
L 655.563769 412.60658 
L 658.29142 412.033989 
L 661.01907 412.725573 
L 663.746721 412.909462 
L 666.474372 413.894976 
L 669.202023 414.621706 
L 671.929673 416.081128 
L 680.112626 416.059289 
L 682.840276 416.230987 
L 691.023229 416.350387 
L 693.750879 416.872163 
L 696.47853 418.175828 
L 699.206181 419.3166 
L 701.933832 419.749616 
L 704.661482 420.374641 
L 710.116784 422.15382 
L 712.844435 422.091569 
L 715.572085 421.16346 
L 718.299736 420.631703 
L 721.027387 421.476831 
L 723.755038 421.861103 
L 726.482688 422.114944 
L 729.210339 422.567481 
L 731.93799 423.404346 
L 734.665641 424.57039 
L 740.120942 426.142051 
L 742.848593 426.423216 
L 745.576244 425.970794 
L 748.303894 425.653737 
L 751.031545 426.538236 
L 753.759196 427.661459 
L 756.486847 428.586635 
L 759.214497 428.383584 
L 761.942148 429.556795 
L 764.669799 430.021517 
L 767.39745 431.401997 
L 770.125101 430.945594 
L 772.852751 430.128447 
L 775.580402 430.342833 
L 778.308053 431.136661 
L 781.035704 431.617964 
L 783.763354 431.81748 
L 786.491005 432.316994 
L 789.218656 432.179942 
L 791.946307 432.472852 
L 794.673957 433.177025 
L 797.401608 434.103547 
L 800.129259 434.017903 
L 802.85691 433.674979 
L 805.58456 434.046944 
L 808.312211 433.650585 
L 813.767513 435.447055 
L 816.495163 435.181206 
L 819.222814 435.059779 
L 824.678116 436.176572 
L 827.405766 436.49003 
L 830.133417 437.858786 
L 832.861068 437.321865 
L 835.588719 437.258785 
L 838.316369 437.472005 
L 841.04402 437.018473 
L 843.771671 438.163976 
L 846.499322 438.825765 
L 849.226972 438.761802 
L 851.954623 438.197923 
L 854.682274 438.476067 
L 857.409925 439.317522 
L 862.865226 438.942091 
L 865.592877 439.389364 
L 868.320528 440.664852 
L 871.048178 440.727173 
L 873.775829 441.410727 
L 876.50348 441.15216 
L 881.958781 441.206554 
L 884.686432 440.320776 
L 887.414083 439.164518 
L 890.141734 439.312528 
L 892.869384 439.798547 
L 895.597035 441.070675 
L 901.052337 440.439305 
L 903.779987 440.520963 
L 906.507638 441.416161 
L 909.235289 440.750541 
L 911.96294 440.365484 
L 914.69059 439.533205 
L 917.418241 439.391861 
L 920.145892 439.447625 
L 922.873543 440.724962 
L 925.601193 441.125498 
L 931.056495 442.800232 
L 933.784146 442.251012 
L 936.511796 442.146388 
L 939.239447 442.403053 
L 941.967098 441.511339 
L 944.694749 440.877455 
L 947.422399 440.430992 
L 950.15005 439.809941 
L 955.605352 440.6782 
L 958.333003 441.657904 
L 961.060653 440.3264 
L 963.788304 440.983722 
L 966.515955 440.29741 
L 969.243606 440.711023 
L 977.426558 440.62628 
L 980.154209 441.924109 
L 982.881859 442.487402 
L 985.60951 442.799677 
L 988.337161 442.740048 
L 993.792462 443.384526 
L 996.520113 442.339581 
L 999.247764 440.831274 
L 1001.975415 440.449137 
L 1004.703065 439.168388 
L 1010.158367 438.847029 
L 1012.886018 438.657227 
L 1015.613668 439.236642 
L 1018.341319 440.210538 
L 1021.06897 440.694518 
L 1023.796621 442.430961 
L 1026.524271 443.177593 
L 1029.251922 443.64609 
L 1031.979573 444.391911 
L 1034.707224 445.287131 
L 1037.434874 445.21826 
L 1040.162525 445.784307 
L 1042.890176 445.139895 
L 1045.617827 445.152135 
L 1051.073128 445.963987 
L 1056.52843 445.718152 
L 1059.25608 446.890196 
L 1061.983731 447.040855 
L 1064.711382 446.249894 
L 1067.439033 446.365407 
L 1070.166683 445.538525 
L 1072.894334 445.417301 
L 1075.621985 445.689562 
L 1081.077286 444.839323 
L 1083.804937 445.247611 
L 1086.532588 445.882195 
L 1089.260239 445.495631 
L 1091.987889 444.349908 
L 1094.71554 443.491916 
L 1097.443191 443.434617 
L 1102.898492 444.389729 
L 1105.626143 444.537796 
L 1108.353794 444.231941 
L 1111.081445 445.056648 
L 1113.809095 444.7734 
L 1116.536746 445.113187 
L 1119.264397 444.091165 
L 1121.992048 443.778083 
L 1124.719698 443.728842 
L 1127.447349 444.013865 
L 1130.175 443.674035 
L 1130.175 443.674035 
" clip-path="url(#p21e527bc22)" style="fill: none; stroke: #9467bd; stroke-width: 0.5; stroke-linecap: square"/>
   </g>
   <g id="patch_3">
    <path d="M 44.57 606.04 
L 44.57 26.88 
" style="fill: none; stroke: #000000; stroke-width: 0.8; stroke-linejoin: miter; stroke-linecap: square"/>
   </g>
   <g id="patch_4">
    <path d="M 1130.175 606.04 
L 1130.175 26.88 
" style="fill: none; stroke: #000000; stroke-width: 0.8; stroke-linejoin: miter; stroke-linecap: square"/>
   </g>
   <g id="patch_5">
    <path d="M 44.57 606.04 
L 1130.175 606.04 
" style="fill: none; stroke: #000000; stroke-width: 0.8; stroke-linejoin: miter; stroke-linecap: square"/>
   </g>
   <g id="patch_6">
    <path d="M 44.57 26.88 
L 1130.175 26.88 
" style="fill: none; stroke: #000000; stroke-width: 0.8; stroke-linejoin: miter; stroke-linecap: square"/>
   </g>
   <g id="text_19">
    <!-- Average over Fpz-Cz and Pz-Oz -->
    <g transform="translate(493.555 20.88)scale(0.12 -0.12)">
     <defs>
      <path id="DejaVuSans-41" d="M 2188 4044 
L 1331 1722 
L 3047 1722 
L 2188 4044 
z
M 1831 4666 
L 2547 4666 
L 4325 0 
L 3669 0 
L 3244 1197 
L 1141 1197 
L 716 0 
L 50 0 
L 1831 4666 
z
" transform="scale(0.015625)"/>
      <path id="DejaVuSans-76" d="M 191 3500 
L 800 3500 
L 1894 563 
L 2988 3500 
L 3597 3500 
L 2284 0 
L 1503 0 
L 191 3500 
z
" transform="scale(0.015625)"/>
      <path id="DejaVuSans-61" d="M 2194 1759 
Q 1497 1759 1228 1600 
Q 959 1441 959 1056 
Q 959 750 1161 570 
Q 1363 391 1709 391 
Q 2188 391 2477 730 
Q 2766 1069 2766 1631 
L 2766 1759 
L 2194 1759 
z
M 3341 1997 
L 3341 0 
L 2766 0 
L 2766 531 
Q 2569 213 2275 61 
Q 1981 -91 1556 -91 
Q 1019 -91 701 211 
Q 384 513 384 1019 
Q 384 1609 779 1909 
Q 1175 2209 1959 2209 
L 2766 2209 
L 2766 2266 
Q 2766 2663 2505 2880 
Q 2244 3097 1772 3097 
Q 1472 3097 1187 3025 
Q 903 2953 641 2809 
L 641 3341 
Q 956 3463 1253 3523 
Q 1550 3584 1831 3584 
Q 2591 3584 2966 3190 
Q 3341 2797 3341 1997 
z
" transform="scale(0.015625)"/>
      <path id="DejaVuSans-67" d="M 2906 1791 
Q 2906 2416 2648 2759 
Q 2391 3103 1925 3103 
Q 1463 3103 1205 2759 
Q 947 2416 947 1791 
Q 947 1169 1205 825 
Q 1463 481 1925 481 
Q 2391 481 2648 825 
Q 2906 1169 2906 1791 
z
M 3481 434 
Q 3481 -459 3084 -895 
Q 2688 -1331 1869 -1331 
Q 1566 -1331 1297 -1286 
Q 1028 -1241 775 -1147 
L 775 -588 
Q 1028 -725 1275 -790 
Q 1522 -856 1778 -856 
Q 2344 -856 2625 -561 
Q 2906 -266 2906 331 
L 2906 616 
Q 2728 306 2450 153 
Q 2172 0 1784 0 
Q 1141 0 747 490 
Q 353 981 353 1791 
Q 353 2603 747 3093 
Q 1141 3584 1784 3584 
Q 2172 3584 2450 3431 
Q 2728 3278 2906 2969 
L 2906 3500 
L 3481 3500 
L 3481 434 
z
" transform="scale(0.015625)"/>
      <path id="DejaVuSans-6f" d="M 1959 3097 
Q 1497 3097 1228 2736 
Q 959 2375 959 1747 
Q 959 1119 1226 758 
Q 1494 397 1959 397 
Q 2419 397 2687 759 
Q 2956 1122 2956 1747 
Q 2956 2369 2687 2733 
Q 2419 3097 1959 3097 
z
M 1959 3584 
Q 2709 3584 3137 3096 
Q 3566 2609 3566 1747 
Q 3566 888 3137 398 
Q 2709 -91 1959 -91 
Q 1206 -91 779 398 
Q 353 888 353 1747 
Q 353 2609 779 3096 
Q 1206 3584 1959 3584 
z
" transform="scale(0.015625)"/>
      <path id="DejaVuSans-70" d="M 1159 525 
L 1159 -1331 
L 581 -1331 
L 581 3500 
L 1159 3500 
L 1159 2969 
Q 1341 3281 1617 3432 
Q 1894 3584 2278 3584 
Q 2916 3584 3314 3078 
Q 3713 2572 3713 1747 
Q 3713 922 3314 415 
Q 2916 -91 2278 -91 
Q 1894 -91 1617 61 
Q 1341 213 1159 525 
z
M 3116 1747 
Q 3116 2381 2855 2742 
Q 2594 3103 2138 3103 
Q 1681 3103 1420 2742 
Q 1159 2381 1159 1747 
Q 1159 1113 1420 752 
Q 1681 391 2138 391 
Q 2594 391 2855 752 
Q 3116 1113 3116 1747 
z
" transform="scale(0.015625)"/>
      <path id="DejaVuSans-2d" d="M 313 2009 
L 1997 2009 
L 1997 1497 
L 313 1497 
L 313 2009 
z
" transform="scale(0.015625)"/>
      <path id="DejaVuSans-43" d="M 4122 4306 
L 4122 3641 
Q 3803 3938 3442 4084 
Q 3081 4231 2675 4231 
Q 1875 4231 1450 3742 
Q 1025 3253 1025 2328 
Q 1025 1406 1450 917 
Q 1875 428 2675 428 
Q 3081 428 3442 575 
Q 3803 722 4122 1019 
L 4122 359 
Q 3791 134 3420 21 
Q 3050 -91 2638 -91 
Q 1578 -91 968 557 
Q 359 1206 359 2328 
Q 359 3453 968 4101 
Q 1578 4750 2638 4750 
Q 3056 4750 3426 4639 
Q 3797 4528 4122 4306 
z
" transform="scale(0.015625)"/>
      <path id="DejaVuSans-50" d="M 1259 4147 
L 1259 2394 
L 2053 2394 
Q 2494 2394 2734 2622 
Q 2975 2850 2975 3272 
Q 2975 3691 2734 3919 
Q 2494 4147 2053 4147 
L 1259 4147 
z
M 628 4666 
L 2053 4666 
Q 2838 4666 3239 4311 
Q 3641 3956 3641 3272 
Q 3641 2581 3239 2228 
Q 2838 1875 2053 1875 
L 1259 1875 
L 1259 0 
L 628 0 
L 628 4666 
z
" transform="scale(0.015625)"/>
      <path id="DejaVuSans-4f" d="M 2522 4238 
Q 1834 4238 1429 3725 
Q 1025 3213 1025 2328 
Q 1025 1447 1429 934 
Q 1834 422 2522 422 
Q 3209 422 3611 934 
Q 4013 1447 4013 2328 
Q 4013 3213 3611 3725 
Q 3209 4238 2522 4238 
z
M 2522 4750 
Q 3503 4750 4090 4092 
Q 4678 3434 4678 2328 
Q 4678 1225 4090 567 
Q 3503 -91 2522 -91 
Q 1538 -91 948 565 
Q 359 1222 359 2328 
Q 359 3434 948 4092 
Q 1538 4750 2522 4750 
z
" transform="scale(0.015625)"/>
     </defs>
     <use xlink:href="#DejaVuSans-41"/>
     <use xlink:href="#DejaVuSans-76" x="62.533203"/>
     <use xlink:href="#DejaVuSans-65" x="121.712891"/>
     <use xlink:href="#DejaVuSans-72" x="183.236328"/>
     <use xlink:href="#DejaVuSans-61" x="224.349609"/>
     <use xlink:href="#DejaVuSans-67" x="285.628906"/>
     <use xlink:href="#DejaVuSans-65" x="349.105469"/>
     <use xlink:href="#DejaVuSans-20" x="410.628906"/>
     <use xlink:href="#DejaVuSans-6f" x="442.416016"/>
     <use xlink:href="#DejaVuSans-76" x="503.597656"/>
     <use xlink:href="#DejaVuSans-65" x="562.777344"/>
     <use xlink:href="#DejaVuSans-72" x="624.300781"/>
     <use xlink:href="#DejaVuSans-20" x="665.414062"/>
     <use xlink:href="#DejaVuSans-46" x="697.201172"/>
     <use xlink:href="#DejaVuSans-70" x="754.720703"/>
     <use xlink:href="#DejaVuSans-7a" x="818.197266"/>
     <use xlink:href="#DejaVuSans-2d" x="870.6875"/>
     <use xlink:href="#DejaVuSans-43" x="906.771484"/>
     <use xlink:href="#DejaVuSans-7a" x="976.595703"/>
     <use xlink:href="#DejaVuSans-20" x="1029.085938"/>
     <use xlink:href="#DejaVuSans-61" x="1060.873047"/>
     <use xlink:href="#DejaVuSans-6e" x="1122.152344"/>
     <use xlink:href="#DejaVuSans-64" x="1185.53125"/>
     <use xlink:href="#DejaVuSans-20" x="1249.007812"/>
     <use xlink:href="#DejaVuSans-50" x="1280.794922"/>
     <use xlink:href="#DejaVuSans-7a" x="1341.097656"/>
     <use xlink:href="#DejaVuSans-2d" x="1393.587891"/>
     <use xlink:href="#DejaVuSans-4f" x="1432.421875"/>
     <use xlink:href="#DejaVuSans-7a" x="1511.132812"/>
    </g>
   </g>
   <g id="legend_1">
    <g id="patch_7">
     <path d="M 1013.184375 108.270625 
L 1123.175 108.270625 
Q 1125.175 108.270625 1125.175 106.270625 
L 1125.175 33.88 
Q 1125.175 31.88 1123.175 31.88 
L 1013.184375 31.88 
Q 1011.184375 31.88 1011.184375 33.88 
L 1011.184375 106.270625 
Q 1011.184375 108.270625 1013.184375 108.270625 
z
" style="fill: #ffffff; opacity: 0.8; stroke: #cccccc; stroke-linejoin: miter"/>
    </g>
    <g id="line2d_48">
     <path d="M 1015.184375 39.978438 
L 1025.184375 39.978438 
L 1035.184375 39.978438 
" style="fill: none; stroke: #1f77b4; stroke-width: 0.5; stroke-linecap: square"/>
    </g>
    <g id="text_20">
     <!-- Sleep stage 1 -->
     <g transform="translate(1043.184375 43.478438)scale(0.1 -0.1)">
      <defs>
       <path id="DejaVuSans-53" d="M 3425 4513 
L 3425 3897 
Q 3066 4069 2747 4153 
Q 2428 4238 2131 4238 
Q 1616 4238 1336 4038 
Q 1056 3838 1056 3469 
Q 1056 3159 1242 3001 
Q 1428 2844 1947 2747 
L 2328 2669 
Q 3034 2534 3370 2195 
Q 3706 1856 3706 1288 
Q 3706 609 3251 259 
Q 2797 -91 1919 -91 
Q 1588 -91 1214 -16 
Q 841 59 441 206 
L 441 856 
Q 825 641 1194 531 
Q 1563 422 1919 422 
Q 2459 422 2753 634 
Q 3047 847 3047 1241 
Q 3047 1584 2836 1778 
Q 2625 1972 2144 2069 
L 1759 2144 
Q 1053 2284 737 2584 
Q 422 2884 422 3419 
Q 422 4038 858 4394 
Q 1294 4750 2059 4750 
Q 2388 4750 2728 4690 
Q 3069 4631 3425 4513 
z
" transform="scale(0.015625)"/>
       <path id="DejaVuSans-6c" d="M 603 4863 
L 1178 4863 
L 1178 0 
L 603 0 
L 603 4863 
z
" transform="scale(0.015625)"/>
       <path id="DejaVuSans-73" d="M 2834 3397 
L 2834 2853 
Q 2591 2978 2328 3040 
Q 2066 3103 1784 3103 
Q 1356 3103 1142 2972 
Q 928 2841 928 2578 
Q 928 2378 1081 2264 
Q 1234 2150 1697 2047 
L 1894 2003 
Q 2506 1872 2764 1633 
Q 3022 1394 3022 966 
Q 3022 478 2636 193 
Q 2250 -91 1575 -91 
Q 1294 -91 989 -36 
Q 684 19 347 128 
L 347 722 
Q 666 556 975 473 
Q 1284 391 1588 391 
Q 1994 391 2212 530 
Q 2431 669 2431 922 
Q 2431 1156 2273 1281 
Q 2116 1406 1581 1522 
L 1381 1569 
Q 847 1681 609 1914 
Q 372 2147 372 2553 
Q 372 3047 722 3315 
Q 1072 3584 1716 3584 
Q 2034 3584 2315 3537 
Q 2597 3491 2834 3397 
z
" transform="scale(0.015625)"/>
       <path id="DejaVuSans-74" d="M 1172 4494 
L 1172 3500 
L 2356 3500 
L 2356 3053 
L 1172 3053 
L 1172 1153 
Q 1172 725 1289 603 
Q 1406 481 1766 481 
L 2356 481 
L 2356 0 
L 1766 0 
Q 1100 0 847 248 
Q 594 497 594 1153 
L 594 3053 
L 172 3053 
L 172 3500 
L 594 3500 
L 594 4494 
L 1172 4494 
z
" transform="scale(0.015625)"/>
      </defs>
      <use xlink:href="#DejaVuSans-53"/>
      <use xlink:href="#DejaVuSans-6c" x="63.476562"/>
      <use xlink:href="#DejaVuSans-65" x="91.259766"/>
      <use xlink:href="#DejaVuSans-65" x="152.783203"/>
      <use xlink:href="#DejaVuSans-70" x="214.306641"/>
      <use xlink:href="#DejaVuSans-20" x="277.783203"/>
      <use xlink:href="#DejaVuSans-73" x="309.570312"/>
      <use xlink:href="#DejaVuSans-74" x="361.669922"/>
      <use xlink:href="#DejaVuSans-61" x="400.878906"/>
      <use xlink:href="#DejaVuSans-67" x="462.158203"/>
      <use xlink:href="#DejaVuSans-65" x="525.634766"/>
      <use xlink:href="#DejaVuSans-20" x="587.158203"/>
      <use xlink:href="#DejaVuSans-31" x="618.945312"/>
     </g>
    </g>
    <g id="line2d_49">
     <path d="M 1015.184375 54.656563 
L 1025.184375 54.656563 
L 1035.184375 54.656563 
" style="fill: none; stroke: #ff7f0e; stroke-width: 0.5; stroke-linecap: square"/>
    </g>
    <g id="text_21">
     <!-- Sleep stage 2 -->
     <g transform="translate(1043.184375 58.156563)scale(0.1 -0.1)">
      <use xlink:href="#DejaVuSans-53"/>
      <use xlink:href="#DejaVuSans-6c" x="63.476562"/>
      <use xlink:href="#DejaVuSans-65" x="91.259766"/>
      <use xlink:href="#DejaVuSans-65" x="152.783203"/>
      <use xlink:href="#DejaVuSans-70" x="214.306641"/>
      <use xlink:href="#DejaVuSans-20" x="277.783203"/>
      <use xlink:href="#DejaVuSans-73" x="309.570312"/>
      <use xlink:href="#DejaVuSans-74" x="361.669922"/>
      <use xlink:href="#DejaVuSans-61" x="400.878906"/>
      <use xlink:href="#DejaVuSans-67" x="462.158203"/>
      <use xlink:href="#DejaVuSans-65" x="525.634766"/>
      <use xlink:href="#DejaVuSans-20" x="587.158203"/>
      <use xlink:href="#DejaVuSans-32" x="618.945312"/>
     </g>
    </g>
    <g id="line2d_50">
     <path d="M 1015.184375 69.334688 
L 1025.184375 69.334688 
L 1035.184375 69.334688 
" style="fill: none; stroke: #2ca02c; stroke-width: 0.5; stroke-linecap: square"/>
    </g>
    <g id="text_22">
     <!-- Sleep stage 3/4 -->
     <g transform="translate(1043.184375 72.834688)scale(0.1 -0.1)">
      <use xlink:href="#DejaVuSans-53"/>
      <use xlink:href="#DejaVuSans-6c" x="63.476562"/>
      <use xlink:href="#DejaVuSans-65" x="91.259766"/>
      <use xlink:href="#DejaVuSans-65" x="152.783203"/>
      <use xlink:href="#DejaVuSans-70" x="214.306641"/>
      <use xlink:href="#DejaVuSans-20" x="277.783203"/>
      <use xlink:href="#DejaVuSans-73" x="309.570312"/>
      <use xlink:href="#DejaVuSans-74" x="361.669922"/>
      <use xlink:href="#DejaVuSans-61" x="400.878906"/>
      <use xlink:href="#DejaVuSans-67" x="462.158203"/>
      <use xlink:href="#DejaVuSans-65" x="525.634766"/>
      <use xlink:href="#DejaVuSans-20" x="587.158203"/>
      <use xlink:href="#DejaVuSans-33" x="618.945312"/>
      <use xlink:href="#DejaVuSans-2f" x="682.568359"/>
      <use xlink:href="#DejaVuSans-34" x="716.259766"/>
     </g>
    </g>
    <g id="line2d_51">
     <path d="M 1015.184375 84.012812 
L 1025.184375 84.012812 
L 1035.184375 84.012812 
" style="fill: none; stroke: #d62728; stroke-width: 0.5; stroke-linecap: square"/>
    </g>
    <g id="text_23">
     <!-- Sleep stage R -->
     <g transform="translate(1043.184375 87.512812)scale(0.1 -0.1)">
      <defs>
       <path id="DejaVuSans-52" d="M 2841 2188 
Q 3044 2119 3236 1894 
Q 3428 1669 3622 1275 
L 4263 0 
L 3584 0 
L 2988 1197 
Q 2756 1666 2539 1819 
Q 2322 1972 1947 1972 
L 1259 1972 
L 1259 0 
L 628 0 
L 628 4666 
L 2053 4666 
Q 2853 4666 3247 4331 
Q 3641 3997 3641 3322 
Q 3641 2881 3436 2590 
Q 3231 2300 2841 2188 
z
M 1259 4147 
L 1259 2491 
L 2053 2491 
Q 2509 2491 2742 2702 
Q 2975 2913 2975 3322 
Q 2975 3731 2742 3939 
Q 2509 4147 2053 4147 
L 1259 4147 
z
" transform="scale(0.015625)"/>
      </defs>
      <use xlink:href="#DejaVuSans-53"/>
      <use xlink:href="#DejaVuSans-6c" x="63.476562"/>
      <use xlink:href="#DejaVuSans-65" x="91.259766"/>
      <use xlink:href="#DejaVuSans-65" x="152.783203"/>
      <use xlink:href="#DejaVuSans-70" x="214.306641"/>
      <use xlink:href="#DejaVuSans-20" x="277.783203"/>
      <use xlink:href="#DejaVuSans-73" x="309.570312"/>
      <use xlink:href="#DejaVuSans-74" x="361.669922"/>
      <use xlink:href="#DejaVuSans-61" x="400.878906"/>
      <use xlink:href="#DejaVuSans-67" x="462.158203"/>
      <use xlink:href="#DejaVuSans-65" x="525.634766"/>
      <use xlink:href="#DejaVuSans-20" x="587.158203"/>
      <use xlink:href="#DejaVuSans-52" x="618.945312"/>
     </g>
    </g>
    <g id="line2d_52">
     <path d="M 1015.184375 98.690938 
L 1025.184375 98.690938 
L 1035.184375 98.690938 
" style="fill: none; stroke: #9467bd; stroke-width: 0.5; stroke-linecap: square"/>
    </g>
    <g id="text_24">
     <!-- Sleep stage W -->
     <g transform="translate(1043.184375 102.190938)scale(0.1 -0.1)">
      <defs>
       <path id="DejaVuSans-57" d="M 213 4666 
L 850 4666 
L 1831 722 
L 2809 4666 
L 3519 4666 
L 4500 722 
L 5478 4666 
L 6119 4666 
L 4947 0 
L 4153 0 
L 3169 4050 
L 2175 0 
L 1381 0 
L 213 4666 
z
" transform="scale(0.015625)"/>
      </defs>
      <use xlink:href="#DejaVuSans-53"/>
      <use xlink:href="#DejaVuSans-6c" x="63.476562"/>
      <use xlink:href="#DejaVuSans-65" x="91.259766"/>
      <use xlink:href="#DejaVuSans-65" x="152.783203"/>
      <use xlink:href="#DejaVuSans-70" x="214.306641"/>
      <use xlink:href="#DejaVuSans-20" x="277.783203"/>
      <use xlink:href="#DejaVuSans-73" x="309.570312"/>
      <use xlink:href="#DejaVuSans-74" x="361.669922"/>
      <use xlink:href="#DejaVuSans-61" x="400.878906"/>
      <use xlink:href="#DejaVuSans-67" x="462.158203"/>
      <use xlink:href="#DejaVuSans-65" x="525.634766"/>
      <use xlink:href="#DejaVuSans-20" x="587.158203"/>
      <use xlink:href="#DejaVuSans-57" x="618.945312"/>
     </g>
    </g>
   </g>
  </g>
 </g>
 <defs>
  <clipPath id="p21e527bc22">
   <rect x="44.57" y="26.88" width="1085.605" height="579.16"/>
  </clipPath>
 </defs>
</svg>
